<svg clip-rule="evenodd" fill-rule="evenodd" stroke-linejoin="round" stroke-miterlimit="1.41421" viewBox="0 0 800 200" xmlns="http://www.w3.org/2000/svg" xmlns:xlink="http://www.w3.org/1999/xlink"><linearGradient id="a"><stop offset="0" stop-color="#35aec3"/><stop offset="1" stop-color="#78e8ec"/></linearGradient><linearGradient id="b" gradientUnits="userSpaceOnUse" x1="36" x2="163.925" xlink:href="#a" y1="99.9875" y2="99.9875"/><linearGradient id="c"><stop offset="0" stop-color="#26a379"/><stop offset=".36" stop-color="#2faa7c"/><stop offset=".66" stop-color="#3bb27f"/><stop offset=".9" stop-color="#57c787"/><stop offset="1" stop-color="#63d08a"/></linearGradient><linearGradient id="d" gradientUnits="userSpaceOnUse" x1="88.5755" x2="109.5703" xlink:href="#c" y1="44.4703" y2="44.4703"/><linearGradient id="e" gradientUnits="userSpaceOnUse" x1="53.9853" x2="128.4848" xlink:href="#c" y1="102.333" y2="102.333"/><linearGradient id="f" gradientUnits="userSpaceOnUse" x1="125.93" x2="163.9686" xlink:href="#c" y1="83.2072" y2="83.2072"/><linearGradient id="g" gradientTransform="matrix(59.081 65.2184 -65.2184 59.081 278.997 79.5037)" gradientUnits="userSpaceOnUse" x1="0" x2="1" xlink:href="#a" y1="0" y2="0"/><linearGradient id="h" gradientTransform="matrix(70.6227 -51.2293 51.2293 70.6227 451.945 120.832)" gradientUnits="userSpaceOnUse" x1="0" x2="1" xlink:href="#c" y1="0" y2="0"/><linearGradient id="i" gradientTransform="matrix(14.5168 -91.1102 91.1102 14.5168 692.442 146.556)" gradientUnits="userSpaceOnUse" x1="0" x2="1" y1="0" y2="0"><stop offset="0" stop-color="#ff9122"/><stop offset=".17" stop-color="#ff9427"/><stop offset=".38" stop-color="#fe9c37"/><stop offset=".61" stop-color="#fcaa51"/><stop offset=".86" stop-color="#fabd75"/><stop offset="1" stop-color="#f9ca8d"/></linearGradient><circle cx="99.963" cy="99.988" fill="url(#b)" r="63.963"/><g fill-rule="nonzero"><path d="m100.012 36.025c-3.897 0-7.72.35-11.418 1.024-.1 1.974 1.499 2.199 1.899 3.473 0 0 .05.25.45.175l5.372 4.073 3.123 3.873 3.098 3.348 2.723.924 4.323-4.272-1.124-3.024v-2.748c.799.125-1.275-1.249-.475-1.099-.025-.275-.325-.875-.45-1.275.45.05.925.025.925-.474.399-1.325.824-1.974.924-3.298-3.073-.45-6.196-.7-9.37-.7z" fill="url(#d)"/><path d="m120.151 122.874c-5.597-2.548-9.795-5.971-14.767-9.644-3.548-2.599-10.718 1.374-14.716-.475-5.472-2.499-9.994-6.846-14.741-10.619-4.923-3.872-4.673-8.395-4.673-14.116 3.848.149 9.32-1.125 11.868 2.123.8 1.025 3.573 5.597 5.422 3.973 1.524-1.324-1.124-6.646-1.624-7.895-1.574-3.848 3.573-5.347 6.197-7.946 3.423-3.398 10.793-8.745 10.219-11.168-.575-2.449-7.371-9.345-11.344-8.27-.599.15-5.846 5.946-6.871 6.846.025-1.874.05-3.773.075-5.647.025-1.199-2.124-2.424-2.024-3.173.25-1.949 5.397-5.472 6.696-6.996-.899-.6-3.972-3.348-4.897-2.948-2.248.974-4.797 1.649-7.021 2.648 0-.65-1.099-3.223-1.624-4.672.125-.05.25-.1.375-.175.65-.275-.35.025.3-.225.999-.999-.999-1.999-1.049-3.798-8.346 3.398-15.791 8.495-21.938 14.867.6 1.349 1.4 1.574 1.999 2.923 0 .5.125.624.3.425.075.249.075.599.725 1.574.499.999.499.999.774 2.298.225 2.799.775 5.797.625 7.921-.525 7.795-1.249 12.692 3.123 19.288 1.699 2.574 2.124 6.247 2.948 9.22.8 2.898 4.048 4.422 6.272 6.221 4.497 3.623 8.794 7.821 13.567 10.994 3.148 2.099 5.122 3.148 4.197 7.171-.749 3.223-.949 5.222-2.548 8.12-.5.874 1.849 6.546 2.623 7.346 2.349 2.448 4.672 4.722 7.246 6.921 3.973 3.423-.375 7.895-2.274 12.842.025.35 0 .6 0 .8-.499-.05.4 1.399-.1 1.349.125 1.349-1.224 1.199-1.524 2.498 2.649.325 5.347.5 8.07.5 4.148 0 8.196-.4 12.118-1.149.025-1.325-1.074-1.524-1.174-2.849-.45.075-.1-.974-.55-.899.15-.275.3-.55.4-.85 1.549-3.997 4.298-7.57 6.846-9.644 2.224-1.799 4.997-5.247 6.172-7.995 1.149-2.724 2.698-5.097 4.247-7.621 2.199-3.573-5.472-8.97-7.945-10.094zm-41.051-51.894c2.623 0 4.747 2.223 4.747 4.997 0 2.748-4.747 9.969-4.747 9.969s-4.772-7.221-4.772-9.969c.025-2.774 2.148-4.997 4.772-4.997z" fill="url(#e)"/><path d="m135.317 46.669c-.925.974-2.874.849-2.874 2.348.1.075.1.6.225.675.15.924.225 2.024-.524 2.948 0 0-.025.025-.025.05-.625 1.299-2.574.325-4.123.5-.05 0-.1 0-.15-.025-.475-.275-1.024-.45-1.574-.625-.2-.075-.4.15-.3.35 1.974 4.423 4.023 8.795 6.122 13.167 2.323 4.848 7.445 10.069 8.345 15.191 1.074 6.047.325 11.519.899 18.64.525 6.521 6.746 13.891 7.321 14.566.025.025.075.05.1.075.45.15 3.248 1.049 5.647.725.05 0 .075-.025.1-.05.974-.675.999-.675 1.948-.175 0 0 .025 0 .05.025.15.1.675 1.174 1.075 1.874-.15.499.375.624.874 1.124 1 .5 1.125 1.349 2.424 1.774 2.024-6.221 3.123-12.868 3.123-19.764-.025-22.336-11.418-41.95-28.683-53.393z" fill="url(#f)"/><path d="m307.693 35.95s-44 49.55-44 86.7c0 22.825 19.7 41.3 44 41.3s44-18.475 44-41.3c0-36.625-44-86.7-44-86.7zm27.625 82.425c-.55 6-2.65 11.4-6.05 15.575-3.85 4.75-8.975 8.575-15.225 11.375-4.7 2.125-8.4 2.875-8.8 2.95-.525.1-1.05.15-1.575.15-3.6 0-6.775-2.425-7.55-5.775-.425-1.9-.075-3.825 1-5.475 1.1-1.675 2.9-2.875 4.95-3.275.375-.075 9.425-2.175 14.95-8.95 3.925-4.825 2.85-12.125 2.8-12.45-.35-1.9.1-3.8 1.25-5.375 1.175-1.65 3.05-2.775 5.1-3.1.425-.075.85-.1 1.275-.1 3.75 0 6.95 2.55 7.6 6.075.075.4.675 3.825.275 8.375z" fill="url(#g)"/><path d="m531.393 108.025c0 19-11.675 36-38.9 36-5.825 12-15.575 20-15.575 20s-1.8-1.425-3.9-4c-.15-.2 9.25-8 15.575-20 13.125-13 21.325-36.175 7.775-64 7.775 48-17.5 64-19.45 64-19.45 0-29.1-17.45-24.325-41.5 4.875-24.5 33.8-42.5 28.225-62.5 9.725 0 50.575 32 50.575 72z" fill="url(#h)"/><path d="m750.961 121.125c-.875-12.975-5.125-37.05-23.875-50.125v21.2c0 .975-.8 1.8-1.8 1.8h-8.35c-.975 0-1.8-.8-1.8-1.8v-27.175c-2.475-.85-5.175-1.55-8.05-2.05v-5.225c0-2.075-1.7-3.75-3.75-3.75h-16.575c-2.075 0-3.75 1.7-3.75 3.75v5.25c-2.85.5-5.5 1.2-8 2.025v27.15c0 .975-.8 1.8-1.8 1.8h-8.35c-.975 0-1.8-.8-1.8-1.8v-21.175c-18.675 13.05-22.875 37.075-23.725 50.05-5.25 2.05-8.25 6.4-8.25 8.9 0 7.7 28.65 15.95 64 15.95s64-8.2 64-15.9c0-2.475-2.95-6.875-8.125-8.875z" fill="url(#i)"/></g></svg>