<svg enable-background="new 0 0 1024 768" height="768" viewBox="0 0 1024 768" width="1024" xmlns="http://www.w3.org/2000/svg" xmlns:xlink="http://www.w3.org/1999/xlink"><linearGradient id="a"><stop offset="0" stop-color="#e6e6e6"/><stop offset=".05" stop-color="#dadada"/><stop offset=".196" stop-color="#bebebe"/><stop offset=".353" stop-color="#a8a8a8"/><stop offset=".525" stop-color="#989898"/><stop offset=".722" stop-color="#8f8f8f"/><stop offset="1" stop-color="#8c8c8c"/></linearGradient><linearGradient id="b" gradientUnits="userSpaceOnUse" x1="129.399" x2="640.002" xlink:href="#a" y1="384" y2="384"/><linearGradient id="c" gradientUnits="userSpaceOnUse" x1="385.037" x2="385.037" y1="564" y2="190"><stop offset="0" stop-color="#f5f5f5"/><stop offset=".156" stop-color="#ccc"/><stop offset=".336" stop-color="#a5a5a5"/><stop offset=".513" stop-color="#868686"/><stop offset=".685" stop-color="#707070"/><stop offset=".85" stop-color="#636363"/><stop offset="1" stop-color="#5e5e5e"/></linearGradient><linearGradient id="d"><stop offset="0" stop-color="#fff" stop-opacity="0"/><stop offset=".056" stop-color="#fff" stop-opacity=".097"/><stop offset=".577" stop-color="#fff"/><stop offset="1" stop-color="#fff" stop-opacity="0"/></linearGradient><linearGradient id="e" gradientUnits="userSpaceOnUse" x1="149" x2="621" xlink:href="#d" y1="564.5" y2="564.5"/><linearGradient id="f"><stop offset="0" stop-color="#2eb5f6"/><stop offset=".135" stop-color="#3d97de"/><stop offset=".282" stop-color="#28c0ff"/><stop offset=".509" stop-color="#3d97de"/><stop offset=".724" stop-color="#49c0f0"/><stop offset=".871" stop-color="#3d97de"/><stop offset="1" stop-color="#45b1ea"/></linearGradient><linearGradient id="g" gradientUnits="userSpaceOnUse" x1="140.559" x2="629.514" xlink:href="#f" y1="368" y2="368"/><linearGradient id="h"><stop offset="0" stop-color="#e6e6e6"/><stop offset=".029" stop-color="#e1e1e1"/><stop offset=".218" stop-color="#ccc"/><stop offset=".425" stop-color="#bcbcbc"/><stop offset=".663" stop-color="#b3b3b3"/><stop offset="1" stop-color="#b0b0b0"/></linearGradient><linearGradient id="i" gradientUnits="userSpaceOnUse" x1="129.735" x2="640.338" xlink:href="#h" y1="312" y2="312"/><linearGradient id="j" gradientUnits="userSpaceOnUse" x1="384.789" x2="384.788" y1="493" y2="119.001"><stop offset="0" stop-color="#e6e6e6"/><stop offset="1" stop-color="#a6a6a6"/></linearGradient><linearGradient id="k" gradientUnits="userSpaceOnUse" x1="149" x2="621" xlink:href="#d" y1="492.5" y2="492.5"/><linearGradient id="l"><stop offset="0" stop-color="#fff"/><stop offset=".706" stop-color="#fff" stop-opacity="0"/></linearGradient><linearGradient id="m" gradientUnits="userSpaceOnUse" x1="385.128" x2="385.128" xlink:href="#l" y1="547.279" y2="526.878"/><linearGradient id="n"><stop offset="0" stop-opacity="0"/><stop offset=".141" stop-color="#000204" stop-opacity=".141"/><stop offset=".292" stop-color="#000711" stop-opacity=".292"/><stop offset=".447" stop-color="#001027" stop-opacity=".447"/><stop offset=".606" stop-color="#001c45" stop-opacity=".606"/><stop offset=".767" stop-color="#002c6b" stop-opacity=".767"/><stop offset=".928" stop-color="#003f9a" stop-opacity=".928"/><stop offset="1" stop-color="#0049b1"/></linearGradient><linearGradient id="o" gradientUnits="userSpaceOnUse" x1="385.317" x2="385.317" xlink:href="#n" y1="526.616" y2="497.116"/><linearGradient id="p"><stop offset="0" stop-color="#fff" stop-opacity="0"/><stop offset=".041" stop-color="#fff" stop-opacity=".037"/><stop offset=".288" stop-color="#fff" stop-opacity=".26"/><stop offset=".773" stop-color="#fff" stop-opacity="0"/></linearGradient><linearGradient id="q" gradientUnits="userSpaceOnUse" x1="140.638" x2="161.781" xlink:href="#p" y1="522.059" y2="522.059"/><linearGradient id="r"><stop offset="0" stop-color="#fafafa"/><stop offset=".047" stop-color="#fafafa" stop-opacity=".953"/><stop offset="1" stop-color="#fff" stop-opacity="0"/></linearGradient><radialGradient id="s" cx="387.655" cy="411.035" gradientUnits="userSpaceOnUse" r="219.091" xlink:href="#r"/><linearGradient id="t" gradientUnits="userSpaceOnUse" x1="190.422" x2="582" y1="297.788" y2="297.788"><stop offset="0" stop-color="#e3e3e3"/><stop offset="1" stop-color="#bfbfbf"/></linearGradient><linearGradient id="u"><stop offset="0" stop-color="#fff" stop-opacity="0"/><stop offset=".041" stop-color="#fff" stop-opacity=".037"/><stop offset=".288" stop-color="#fff" stop-opacity=".26"/><stop offset=".841" stop-color="#fff" stop-opacity="0"/></linearGradient><linearGradient id="v" gradientTransform="matrix(-1 0 0 1 1242.418 0)" gradientUnits="userSpaceOnUse" x1="612.638" x2="633.781" xlink:href="#u" y1="522.059" y2="522.059"/><linearGradient id="w"><stop offset="0" stop-color="#f0f0f0"/><stop offset=".437" stop-color="#ededed"/><stop offset=".713" stop-color="#e4e4e4"/><stop offset=".945" stop-color="#d6d6d6"/><stop offset="1" stop-color="#d1d1d1"/></linearGradient><linearGradient id="x" gradientTransform="matrix(1 0 0 .8095 0 88.0522)" gradientUnits="userSpaceOnUse" x1="159.5" x2="159.5" xlink:href="#w" y1="481.714" y2="464.419"/><linearGradient id="y"><stop offset="0" stop-color="#e3e3e3"/><stop offset=".524" stop-color="#e0e0e0"/><stop offset=".855" stop-color="#d8d8d8"/><stop offset="1" stop-color="#d1d1d1"/></linearGradient><radialGradient id="z" cx="159.5" cy="473.307" gradientTransform="matrix(1 0 0 .7556 0 113.3696)" gradientUnits="userSpaceOnUse" r="8.174" xlink:href="#y"/><linearGradient id="A" gradientTransform="matrix(1 0 0 .8095 0 88.0522)" gradientUnits="userSpaceOnUse" x1="611.5" x2="611.5" xlink:href="#w" y1="481.714" y2="464.419"/><radialGradient id="B" cx="611.5" cy="473.307" gradientTransform="matrix(1 0 0 .7556 0 113.3696)" gradientUnits="userSpaceOnUse" r="8.174" xlink:href="#y"/><linearGradient id="C"><stop offset="0" stop-color="#bfbfbf"/><stop offset="1" stop-color="#a6a6a6"/></linearGradient><linearGradient id="D" gradientTransform="matrix(1 0 0 .8095 0 88.0522)" gradientUnits="userSpaceOnUse" x1="190.5" x2="190.5" xlink:href="#C" y1="72.819" y2="55.524"/><linearGradient id="E"><stop offset="0" stop-color="#cfcfcf"/><stop offset="1" stop-color="#a6a6a6"/></linearGradient><linearGradient id="F" gradientTransform="matrix(1 0 0 .7556 0 113.3696)" gradientUnits="userSpaceOnUse" x1="190.5" x2="190.5" xlink:href="#E" y1="43.417" y2="27.071"/><linearGradient id="G" gradientTransform="matrix(1 0 0 .8095 0 88.0522)" gradientUnits="userSpaceOnUse" x1="578.5" x2="578.5" xlink:href="#C" y1="72.819" y2="55.524"/><linearGradient id="H" gradientTransform="matrix(1 0 0 .7556 0 113.3696)" gradientUnits="userSpaceOnUse" x1="578.5" x2="578.5" xlink:href="#E" y1="43.417" y2="27.071"/><linearGradient id="I"><stop offset="0" stop-color="#fff"/><stop offset="1" stop-color="#bfbfbf"/></linearGradient><linearGradient id="J" gradientUnits="userSpaceOnUse" x1="361.54" x2="403.964" xlink:href="#I" y1="190.414" y2="431.013"/><linearGradient id="K"><stop offset="0" stop-color="#fff"/><stop offset=".521" stop-color="#fdfdfd"/><stop offset=".793" stop-color="#f5f5f5"/><stop offset="1" stop-color="#e8e8e8"/></linearGradient><linearGradient id="L" gradientUnits="userSpaceOnUse" x1="388.752" x2="384.915" xlink:href="#K" y1="187.035" y2="406.83"/><linearGradient id="M" gradientUnits="userSpaceOnUse" x1="652.596" x2="904.394" xlink:href="#a" y1="249" y2="249"/><linearGradient id="N"><stop offset="0" stop-color="#dbdbdb"/><stop offset=".008" stop-color="#d9d9d9"/><stop offset=".184" stop-color="#a9a9a9"/><stop offset=".359" stop-color="#818181"/><stop offset=".53" stop-color="#626262"/><stop offset=".696" stop-color="#4c4c4c"/><stop offset=".856" stop-color="#3f3f3f"/><stop offset="1" stop-color="#3b3b3b"/></linearGradient><linearGradient id="O" gradientUnits="userSpaceOnUse" x1="778.662" x2="778.662" xlink:href="#N" y1="339" y2="153"/><linearGradient id="P" gradientUnits="userSpaceOnUse" x1="661.814" x2="895.511" xlink:href="#f" y1="243" y2="243"/><linearGradient id="Q" gradientUnits="userSpaceOnUse" x1="652.764" x2="904.561" xlink:href="#h" y1="213" y2="213"/><linearGradient id="R"><stop offset="0" stop-color="#ebebeb"/><stop offset=".25" stop-color="#e5e5e5"/><stop offset=".586" stop-color="#d4d4d4"/><stop offset=".97" stop-color="#b8b8b8"/><stop offset="1" stop-color="#b5b5b5"/></linearGradient><linearGradient id="S" gradientUnits="userSpaceOnUse" x1="778.538" x2="778.538" xlink:href="#R" y1="303" y2="117"/><linearGradient id="T" gradientUnits="userSpaceOnUse" x1="778.535" x2="778.535" xlink:href="#l" y1="329" y2="319.351"/><linearGradient id="U" gradientUnits="userSpaceOnUse" x1="778.574" x2="778.574" xlink:href="#n" y1="318" y2="302.474"/><linearGradient id="V" gradientUnits="userSpaceOnUse" x1="661.664" x2="673.235" xlink:href="#p" y1="314.226" y2="314.226"/><radialGradient id="W" cx="780.039" cy="261.385" gradientUnits="userSpaceOnUse" r="115.194" xlink:href="#r"/><linearGradient id="X" gradientTransform="matrix(-1 0 0 1 1242.418 0)" gradientUnits="userSpaceOnUse" x1="346.993" x2="357.676" xlink:href="#u" y1="314.334" y2="314.334"/><linearGradient id="Y"><stop offset="0" stop-color="#858585"/><stop offset="1" stop-color="#757575"/></linearGradient><linearGradient id="Z" gradientTransform="matrix(1 0 0 .8095 0 88.0522)" gradientUnits="userSpaceOnUse" x1="683.484" x2="683.484" xlink:href="#Y" y1="54.934" y2="47.273"/><linearGradient id="aa"><stop offset="0" stop-color="#e0e0e0"/><stop offset="1" stop-color="#bfbfbf"/></linearGradient><linearGradient id="ab" gradientTransform="matrix(1 0 0 .7556 0 113.3696)" gradientUnits="userSpaceOnUse" x1="683.484" x2="683.484" xlink:href="#aa" y1="17.625" y2="24.866"/><linearGradient id="ac" gradientUnits="userSpaceOnUse" x1="766.204" x2="784.737" xlink:href="#I" y1="166.674" y2="271.779"/><linearGradient id="ad" gradientUnits="userSpaceOnUse" x1="777.965" x2="776.306" xlink:href="#K" y1="165.189" y2="260.201"/><linearGradient id="ae" gradientTransform="matrix(1 0 0 .8095 0 88.0522)" gradientUnits="userSpaceOnUse" x1="873.484" x2="873.484" xlink:href="#Y" y1="54.934" y2="47.273"/><linearGradient id="af" gradientTransform="matrix(1 0 0 .7556 0 113.3696)" gradientUnits="userSpaceOnUse" x1="873.484" x2="873.484" xlink:href="#aa" y1="17.625" y2="24.866"/><linearGradient id="ag"><stop offset="0" stop-color="#9e9e9e"/><stop offset="1" stop-color="#b8b8b8"/></linearGradient><linearGradient id="ah" gradientTransform="matrix(1 0 0 .8095 0 88.0522)" gradientUnits="userSpaceOnUse" x1="669.484" x2="669.484" xlink:href="#ag" y1="253.823" y2="246.161"/><linearGradient id="ai"><stop offset="0" stop-color="#f0f0f0"/><stop offset="1" stop-color="#cfcfcf"/></linearGradient><linearGradient id="aj" gradientTransform="matrix(1 0 0 .7556 0 113.3696)" gradientUnits="userSpaceOnUse" x1="669.484" x2="669.484" xlink:href="#ai" y1="230.7" y2="237.941"/><linearGradient id="ak" gradientTransform="matrix(1 0 0 .8095 0 88.0522)" gradientUnits="userSpaceOnUse" x1="887.484" x2="887.484" xlink:href="#Y" y1="252.587" y2="244.925"/><linearGradient id="al" gradientTransform="matrix(1 0 0 .7556 0 113.3696)" gradientUnits="userSpaceOnUse" x1="887.484" x2="887.484" xlink:href="#aa" y1="229.376" y2="236.618"/><linearGradient id="am" gradientUnits="userSpaceOnUse" x1="670" x2="884" xlink:href="#d" y1="303.5" y2="303.5"/><linearGradient id="an" gradientUnits="userSpaceOnUse" x1="671" x2="885" xlink:href="#d" y1="339.5" y2="339.5"/><linearGradient id="ao" gradientUnits="userSpaceOnUse" x1="651.623" x2="777.504" xlink:href="#a" y1="465.5" y2="465.5"/><linearGradient id="ap" gradientUnits="userSpaceOnUse" x1="714.648" x2="714.648" xlink:href="#N" y1="510" y2="417"/><linearGradient id="aq" gradientUnits="userSpaceOnUse" x1="656.231" x2="773.064" xlink:href="#f" y1="462" y2="462"/><linearGradient id="ar" gradientUnits="userSpaceOnUse" x1="651.707" x2="777.588" xlink:href="#h" y1="447.5" y2="447.5"/><linearGradient id="as" gradientUnits="userSpaceOnUse" x1="714.585" x2="714.585" xlink:href="#R" y1="492" y2="399"/><linearGradient id="at" gradientUnits="userSpaceOnUse" x1="714.584" x2="714.584" xlink:href="#l" y1="506" y2="500.759"/><linearGradient id="au" gradientUnits="userSpaceOnUse" x1="714.604" x2="714.604" xlink:href="#n" y1="499.667" y2="491.905"/><linearGradient id="av" gradientUnits="userSpaceOnUse" x1="656.157" x2="661.941" xlink:href="#p" y1="497.779" y2="497.779"/><radialGradient id="aw" cx="715.336" cy="471.638" gradientUnits="userSpaceOnUse" r="57.608" xlink:href="#r"/><linearGradient id="ax" gradientTransform="matrix(-1 0 0 1 1242.418 0)" gradientUnits="userSpaceOnUse" x1="469.397" x2="474.738" xlink:href="#u" y1="497.834" y2="497.834"/><linearGradient id="ay" gradientTransform="matrix(1 0 0 .8095 0 88.0522)" gradientUnits="userSpaceOnUse" x1="667.065" x2="667.065" xlink:href="#Y" y1="393.933" y2="390.102"/><linearGradient id="az" gradientTransform="matrix(1 0 0 .7556 0 113.3696)" gradientUnits="userSpaceOnUse" x1="667.065" x2="667.065" xlink:href="#aa" y1="384.668" y2="388.288"/><linearGradient id="aA" gradientUnits="userSpaceOnUse" x1="708.349" x2="717.599" xlink:href="#I" y1="424.027" y2="476.49"/><linearGradient id="aB" gradientUnits="userSpaceOnUse" x1="714.345" x2="713.513" xlink:href="#K" y1="423.272" y2="470.937"/><linearGradient id="aC" gradientTransform="matrix(1 0 0 .8095 0 88.0522)" gradientUnits="userSpaceOnUse" x1="762.052" x2="762.052" xlink:href="#Y" y1="393.933" y2="390.102"/><linearGradient id="aD" gradientTransform="matrix(1 0 0 .7556 0 113.3696)" gradientUnits="userSpaceOnUse" x1="762.051" x2="762.051" xlink:href="#aa" y1="384.668" y2="388.288"/><linearGradient id="aE" gradientTransform="matrix(1 0 0 .8095 0 88.0522)" gradientUnits="userSpaceOnUse" x1="660.066" x2="660.066" xlink:href="#ag" y1="493.364" y2="489.532"/><linearGradient id="aF" gradientTransform="matrix(1 0 0 .7556 0 113.3696)" gradientUnits="userSpaceOnUse" x1="660.065" x2="660.065" xlink:href="#ai" y1="491.19" y2="494.81"/><linearGradient id="aG" gradientTransform="matrix(1 0 0 .8095 0 88.0522)" gradientUnits="userSpaceOnUse" x1="769.051" x2="769.051" xlink:href="#Y" y1="492.746" y2="488.915"/><linearGradient id="aH" gradientTransform="matrix(1 0 0 .7556 0 113.3696)" gradientUnits="userSpaceOnUse" x1="769.051" x2="769.051" xlink:href="#aa" y1="490.527" y2="494.147"/><linearGradient id="aI" gradientUnits="userSpaceOnUse" x1="661" x2="768" xlink:href="#d" y1="492.5" y2="492.5"/><linearGradient id="aJ" gradientUnits="userSpaceOnUse" x1="661" x2="768" xlink:href="#d" y1="510.5" y2="510.5"/><linearGradient id="aK" gradientUnits="userSpaceOnUse" x1="653.865" x2="701.135" xlink:href="#a" y1="580.5" y2="580.5"/><linearGradient id="aL" gradientUnits="userSpaceOnUse" x1="677.531" x2="677.531" xlink:href="#N" y1="597" y2="562"/><linearGradient id="aM" gradientUnits="userSpaceOnUse" x1="655.595" x2="699.467" xlink:href="#f" y1="579" y2="579"/><linearGradient id="aN" gradientUnits="userSpaceOnUse" x1="653.896" x2="701.166" xlink:href="#h" y1="573.5" y2="573.5"/><linearGradient id="aO" gradientUnits="userSpaceOnUse" x1="677.508" x2="677.508" xlink:href="#R" y1="590" y2="555"/><linearGradient id="aP" gradientUnits="userSpaceOnUse" x1="655.566" x2="657.741" xlink:href="#p" y1="592.6" y2="592.6"/><radialGradient id="aQ" cx="677.79" cy="582.069" gradientUnits="userSpaceOnUse" r="21.603" xlink:href="#r"/><linearGradient id="aR" gradientTransform="matrix(-1 0 0 1 1242.418 0)" gradientUnits="userSpaceOnUse" x1="542.967" x2="544.973" xlink:href="#u" y1="592.613" y2="592.613"/><linearGradient id="aS" gradientUnits="userSpaceOnUse" x1="675.084" x2="678.629" xlink:href="#I" y1="564.64" y2="584.746"/><linearGradient id="aT" gradientUnits="userSpaceOnUse" x1="677.231" x2="676.91" xlink:href="#K" y1="564.34" y2="582.668"/><linearGradient id="aU" gradientUnits="userSpaceOnUse" x1="790.744" x2="822.256" xlink:href="#a" y1="415.5" y2="415.5"/><linearGradient id="aV" gradientUnits="userSpaceOnUse" x1="806.519" x2="806.519" xlink:href="#N" y1="427" y2="404"/><linearGradient id="aW" gradientUnits="userSpaceOnUse" x1="791.896" x2="821.144" xlink:href="#f" y1="415" y2="415"/><linearGradient id="aX" gradientUnits="userSpaceOnUse" x1="790.765" x2="822.275" xlink:href="#h" y1="411.5" y2="411.5"/><linearGradient id="aY" gradientUnits="userSpaceOnUse" x1="806.506" x2="806.506" xlink:href="#R" y1="423" y2="399"/><linearGradient id="aZ" gradientUnits="userSpaceOnUse" x1="806.504" x2="806.504" xlink:href="#l" y1="426" y2="425.076"/><linearGradient id="a0" gradientUnits="userSpaceOnUse" x1="806.51" x2="806.51" xlink:href="#n" y1="424.473" y2="422.529"/><linearGradient id="a1" gradientUnits="userSpaceOnUse" x1="791.878" x2="793.327" xlink:href="#p" y1="424" y2="424"/><radialGradient id="a2" cx="806.692" cy="417.617" gradientUnits="userSpaceOnUse" r="14.432" xlink:href="#r"/><linearGradient id="a3" gradientTransform="matrix(-1 0 0 1 1242.418 0)" gradientUnits="userSpaceOnUse" x1="421.285" x2="422.621" xlink:href="#u" y1="424.014" y2="424.014"/><linearGradient id="a4" gradientUnits="userSpaceOnUse" x1="804.852" x2="807.206" xlink:href="#I" y1="405.553" y2="418.902"/><linearGradient id="a5" gradientUnits="userSpaceOnUse" x1="806.486" x2="806.274" xlink:href="#K" y1="405.343" y2="417.507"/><linearGradient id="a6" gradientUnits="userSpaceOnUse" x1="790.985" x2="805.951" xlink:href="#a" y1="458.5" y2="458.5"/><linearGradient id="a7" gradientUnits="userSpaceOnUse" x1="798.479" x2="798.479" xlink:href="#N" y1="464" y2="452"/><linearGradient id="a8" gradientUnits="userSpaceOnUse" x1="791.532" x2="805.424" xlink:href="#f" y1="458" y2="458"/><linearGradient id="a9" gradientUnits="userSpaceOnUse" x1="798.471" x2="798.471" xlink:href="#R" y1="462" y2="450"/><linearGradient id="ba" gradientUnits="userSpaceOnUse" x1="798.471" x2="798.471" xlink:href="#l" y1="463" y2="462.398"/><linearGradient id="bb" gradientUnits="userSpaceOnUse" x1="797.727" x2="798.856" xlink:href="#I" y1="453.36" y2="459.764"/><linearGradient id="bc" gradientUnits="userSpaceOnUse" x1="798.469" x2="798.365" xlink:href="#K" y1="453.199" y2="459.113"/><g fill="#fff"><path d="m128.5 117.5h512v512h-512z" stroke="#ccc" stroke-miterlimit="10"/><path d="m650.5 117.5h256v256h-256z" stroke="#ccc" stroke-miterlimit="10"/><path d="m650.5 398.5h128v128h-128z" stroke="#ccc" stroke-miterlimit="10"/><path d="m790.5 398.5h32v32h-32z" stroke="#ccc" stroke-miterlimit="10"/><path d="m790.5 449.5h16v16h-16z" stroke="#ccc" stroke-miterlimit="10"/></g><g fill="#999"><path d="m133.193 105.092h-2.975l-.3 2.003c.18-.024.348-.036.636-.036.611 0 1.199.12 1.679.42.611.336 1.115 1.02 1.115 1.991 0 1.523-1.211 2.663-2.902 2.663-.852 0-1.559-.24-1.943-.479l.264-.804c.324.192.959.432 1.679.432.983 0 1.847-.647 1.835-1.691 0-1.007-.684-1.715-2.231-1.715-.456 0-.804.036-1.091.072l.504-3.742h3.73z"/><path d="m136.986 105.188h-.024l-1.355.732-.204-.804 1.703-.912h.9v7.796h-1.02z"/><path d="m140.851 112v-.647l.828-.804c1.991-1.895 2.902-2.902 2.902-4.078 0-.792-.372-1.523-1.535-1.523-.708 0-1.295.36-1.655.66l-.336-.744c.528-.444 1.307-.792 2.195-.792 1.679 0 2.387 1.151 2.387 2.267 0 1.439-1.043 2.603-2.687 4.186l-.612.576v.024h3.49v.875z"/><path d="m650.539 112v-.647l.828-.804c1.991-1.895 2.902-2.902 2.902-4.078 0-.792-.371-1.523-1.535-1.523-.707 0-1.295.36-1.654.66l-.336-.744c.527-.444 1.307-.792 2.194-.792 1.679 0 2.387 1.151 2.387 2.267 0 1.439-1.044 2.603-2.687 4.186l-.611.576v.024h3.49v.875z"/><path d="m661.35 105.092h-2.975l-.301 2.003c.18-.024.348-.036.637-.036.611 0 1.199.12 1.679.42.611.336 1.115 1.02 1.115 1.991 0 1.523-1.212 2.663-2.902 2.663-.852 0-1.56-.24-1.942-.479l.264-.804c.323.192.959.432 1.679.432.983 0 1.847-.647 1.835-1.691 0-1.007-.684-1.715-2.23-1.715-.456 0-.804.036-1.092.072l.504-3.742h3.73v.886z"/><path d="m667.301 104.948c-.216-.012-.492.012-.791.06-1.668.264-2.531 1.463-2.711 2.758h.023c.372-.503 1.031-.911 1.896-.911 1.379 0 2.351 1.007 2.351 2.519 0 1.439-.972 2.758-2.603 2.758-1.655 0-2.747-1.295-2.747-3.322 0-1.535.54-2.746 1.32-3.514.646-.636 1.511-1.032 2.494-1.151.312-.048.576-.06.768-.06zm-.3 4.497c0-1.115-.636-1.787-1.606-1.787-.637 0-1.236.384-1.523.959-.061.12-.108.264-.108.456.013 1.283.612 2.243 1.728 2.243.897 0 1.509-.755 1.509-1.871z"/><path d="m651.83 387.188h-.023l-1.355.732-.204-.805 1.703-.911h.899v7.796h-1.02z"/><path d="m655.695 394v-.647l.828-.804c1.99-1.895 2.902-2.902 2.902-4.078 0-.791-.372-1.523-1.535-1.523-.708 0-1.296.36-1.655.66l-.336-.744c.528-.443 1.308-.791 2.194-.791 1.68 0 2.387 1.151 2.387 2.267 0 1.439-1.043 2.603-2.686 4.187l-.612.575v.024h3.49v.874z"/><path d="m663.291 389.898c-.876-.408-1.248-1.08-1.248-1.751 0-1.235 1.043-2.075 2.423-2.075 1.511 0 2.278.936 2.278 1.919 0 .659-.336 1.38-1.295 1.823v.035c.972.385 1.571 1.08 1.571 2.016 0 1.367-1.163 2.267-2.651 2.267-1.631 0-2.613-.96-2.613-2.099 0-.983.587-1.691 1.547-2.1zm2.662 2.075c0-.936-.66-1.402-1.715-1.703-.912.264-1.404.876-1.404 1.619-.035.78.564 1.476 1.561 1.476.947-.001 1.558-.588 1.558-1.392zm-2.902-3.898c-.012.78.588 1.199 1.486 1.439.672-.228 1.188-.708 1.188-1.415 0-.624-.371-1.271-1.318-1.271-.877 0-1.356.576-1.356 1.247z"/><path d="m790.791 392.801c.301.18.984.479 1.728.479 1.343 0 1.774-.852 1.763-1.511-.012-1.092-.995-1.56-2.015-1.56h-.587v-.792h.587c.768 0 1.739-.395 1.739-1.318 0-.624-.396-1.176-1.367-1.176-.624 0-1.224.275-1.559.516l-.289-.768c.42-.3 1.212-.6 2.051-.6 1.535 0 2.231.912 2.231 1.859 0 .815-.491 1.499-1.439 1.847v.024c.96.18 1.728.898 1.739 1.99 0 1.248-.983 2.339-2.842 2.339-.876 0-1.644-.276-2.027-.528z"/><path d="m796.695 394v-.647l.828-.804c1.99-1.895 2.902-2.902 2.902-4.078 0-.791-.372-1.523-1.535-1.523-.708 0-1.296.36-1.655.66l-.336-.744c.528-.443 1.308-.791 2.194-.791 1.68 0 2.387 1.151 2.387 2.267 0 1.439-1.043 2.603-2.686 4.187l-.612.575v.024h3.49v.874z"/><path d="m791.83 438.188h-.023l-1.355.732-.204-.805 1.703-.911h.899v7.796h-1.02z"/><path d="m800.145 437.947c-.215-.012-.491.013-.791.061-1.667.264-2.531 1.463-2.711 2.758h.024c.372-.503 1.031-.91 1.896-.91 1.379 0 2.35 1.007 2.35 2.518 0 1.439-.971 2.759-2.602 2.759-1.656 0-2.747-1.296-2.747-3.322 0-1.535.54-2.746 1.319-3.514.647-.636 1.512-1.032 2.494-1.151.312-.049.576-.061.768-.061zm-.299 4.498c0-1.115-.637-1.787-1.607-1.787-.636 0-1.235.384-1.523.959-.061.121-.107.265-.107.457.012 1.283.611 2.242 1.727 2.242.897 0 1.51-.755 1.51-1.871z"/></g><path d="m653.5 554.5h48v48h-48z" fill="#fff" stroke="#ccc" stroke-miterlimit="10"/><path d="m656.802 549v-2.135h-3.622v-.684l3.479-4.978h1.139v4.846h1.092v.815h-1.092v2.136zm0-2.95v-2.603c0-.408.013-.816.036-1.224h-.036c-.239.456-.432.792-.647 1.151l-1.907 2.65v.024h2.554z" fill="#999"/><path d="m661.135 544.898c-.875-.408-1.248-1.08-1.248-1.751 0-1.235 1.044-2.075 2.424-2.075 1.511 0 2.278.936 2.278 1.919 0 .659-.336 1.38-1.296 1.823v.035c.973.385 1.572 1.08 1.572 2.016 0 1.367-1.164 2.267-2.651 2.267-1.631 0-2.614-.96-2.614-2.099 0-.983.588-1.691 1.547-2.1zm2.662 2.075c0-.936-.659-1.402-1.715-1.703-.911.264-1.403.876-1.403 1.619-.036.78.563 1.476 1.56 1.476.947-.001 1.558-.588 1.558-1.392zm-2.902-3.898c-.012.78.588 1.199 1.487 1.439.672-.228 1.188-.708 1.188-1.415 0-.624-.372-1.271-1.319-1.271-.876 0-1.356.576-1.356 1.247z" fill="#999"/><path d="m639.914 547.611c1.118 12.963-8.612 23.389-21.624 23.389h-467.179c-13.012 0-22.742-10.426-21.624-23.389l28.225-327.133c1.118-12.962 12.678-23.478 25.69-23.478h402.599c13.012 0 24.572 10.516 25.69 23.479z" fill="url(#b)"/><path d="m640.25 540.611c1.118 12.963-8.612 23.389-21.624 23.389h-467.18c-13.012 0-22.742-10.426-21.624-23.389l28.225-327.133c1.118-12.963 12.679-23.479 25.69-23.479h402.6c13.012 0 24.572 10.516 25.69 23.479z" fill="url(#c)"/><path d="m149 564h472v1h-472z" fill="url(#e)"/><path d="m629.476 524.438c.723 12.41-8.855 22.562-21.286 22.562h-446.308c-12.43 0-22.008-10.152-21.285-22.562l18.217-312.695c.724-12.409 11.486-22.743 23.916-22.743h404.614c12.431 0 23.192 10.334 23.916 22.743z" fill="url(#g)"/><path d="m640.25 475.611c1.118 12.963-8.612 23.389-21.624 23.389h-467.18c-13.012 0-22.742-10.426-21.624-23.389l28.224-327.133c1.118-12.963 12.679-23.479 25.69-23.479h402.6c13.012 0 24.572 10.516 25.69 23.479z" fill="url(#i)"/><path d="m640.002 469.611c1.118 12.963-8.612 23.389-21.624 23.389h-467.18c-13.012 0-22.742-10.426-21.624-23.389l28.224-327.133c1.118-12.963 12.679-23.479 25.69-23.479h402.6c13.012 0 24.572 10.516 25.69 23.479z" fill="url(#j)"/><path d="m149 492h472v1h-472z" fill="url(#k)"/><path d="m608.639 547.002c-14.932 0-36.365.277-223.472.277-187.106 0-206.845-.279-223.673-.279-18.13 0-20.856-20-20.856-20l488.98-.122s-.922 18.428-20.979 20.124z" fill="url(#m)" opacity=".24"/><path d="m629.618 518.975s-57.345 7.642-244.451 7.642-244.151-8.726-244.151-8.726l1.14-20.774s1.805 1.89 9.049 1.89c3.465 0 411.941-.175 469.795-.249 4.396-.006 6.895-1.449 6.895-1.449z" fill="url(#o)" opacity=".24"/><path d="m142.156 497.116-1.518 29.884s.149 7.255 5.596 13.392 15.26 6.608 15.26 6.608l.288-47.998c-4.197.053-11.692.007-12.968-.089-3.86-.288-6.658-1.797-6.658-1.797z" fill="url(#q)"/><path d="m575.507 492c22.346-35.383 35.299-76.715 35.299-121.345 0-124.69-101.08-225.814-225.769-225.814-124.69 0-225.77 101.146-225.77 225.836 0 44.627 12.954 85.94 35.298 121.323z" fill="url(#s)"/><path d="m517.771 277.257c.021-.751.034-1.504.034-2.261 0-50.861-48.227-92.092-107.717-92.092-48.222 0-89.039 27.09-102.773 64.441-8.901-2.566-18.422-3.977-28.336-3.977-48.974 0-88.557 33.942-88.557 75.813 0 35.616 29.578 65.481 67.578 73.611v2.208h190.376c14.188 10 33.006 17.672 53.653 17.672 44.167 0 79.971-30.611 79.971-68.372 0-33.154-27.603-60.789-64.229-67.043zm-18.063 133.485c-20.234 0-38.676-6.742-52.581-16.742h-187.127v-3.075c-38-7.92-65.946-36.999-65.946-71.679 0-40.771 39.059-73.821 87.054-73.821 9.715 0 19.052 1.374 27.775 3.872 13.459-36.369 53.464-62.747 100.721-62.747 58.3 0 105.562 40.147 105.562 89.671 0 .736-.011 1.47-.032 2.202 35.896 6.089 62.946 33.229 62.946 65.511 0 36.77-35.088 66.808-78.372 66.808z" fill="url(#t)"/><path d="m628.262 497.116 1.518 29.884s-.149 7.255-5.596 13.392-15.26 6.608-15.26 6.608l-.287-47.998c4.197.053 11.692.007 12.969-.089 3.859-.288 6.656-1.797 6.656-1.797z" fill="url(#v)"/><ellipse cx="159.5" cy="471" fill="url(#x)" rx="9.265" ry="7"/><ellipse cx="159.5" cy="471" fill="url(#z)" rx="8.175" ry="6.176"/><path d="m159 468h1v6h-1z" fill="#bcbcbc"/><ellipse cx="611.5" cy="471" fill="url(#A)" rx="9.265" ry="7"/><ellipse cx="611.5" cy="471" fill="url(#B)" rx="8.175" ry="6.176"/><path d="m611 468h1v6h-1z" fill="#bcbcbc"/><ellipse cx="190.5" cy="140" fill="url(#D)" rx="9.265" ry="7"/><ellipse cx="190.5" cy="140" fill="url(#F)" rx="8.175" ry="6.176"/><path d="m190 137h1v6h-1z" fill="#a0a0a0"/><path d="m187 139h7v1h-7z" fill="#a0a0a0"/><ellipse cx="578.5" cy="140" fill="url(#G)" rx="9.265" ry="7"/><ellipse cx="578.5" cy="140" fill="url(#H)" rx="8.175" ry="6.176"/><path d="m578 137h1v6h-1z" fill="#a0a0a0"/><path d="m575 139h7v1h-7z" fill="#a0a0a0"/><path d="m520.561 277.143c.021-.743.036-1.489.036-2.238 0-50.303-49.248-91.081-109.992-91.081-49.24 0-90.919 26.793-104.943 63.735-9.092-2.538-18.812-3.933-28.936-3.933-50.009 0-90.079 33.568-90.079 74.979 0 35.227 30.354 64.762 69.354 72.804v3.591h193.699c14.489 7 33.703 16.773 54.786 16.773 45.102 0 81.66-30.627 81.66-67.972 0-32.788-28.185-60.476-65.585-66.658z" fill="url(#J)"/><path d="m502.117 408.861c-20.664 0-39.494-6.861-53.693-16.861h-190.424v-2.436c-40-7.832-67.663-36.596-67.663-70.895 0-40.323 39.716-73.011 88.727-73.011 9.918 0 19.372 1.358 28.28 3.83 13.742-35.969 54.551-62.06 102.804-62.06 59.532 0 107.774 39.707 107.774 88.688 0 .73-.025 1.456-.045 2.179 36.652 6.021 64.272 32.713 64.272 64.643 0 36.367-35.836 65.923-80.032 65.923z" fill="url(#L)"/><path d="m519.074 276.652c.022-.71.032-1.424.032-2.139 0-41.614-35.503-75.667-82.949-84.25-36.606 107.805-65.136 199.737-65.136 199.737h79.913c13.934 10 32.41 15.652 52.687 15.652 43.366 0 78.521-29.446 78.521-65.128.001-31.329-27.101-57.961-63.068-63.872z" fill="#fff" opacity=".58"/><path d="m904.306 318.517c1.117 12.963-8.613 23.483-21.625 23.483h-208.373c-13.012 0-22.742-10.521-21.624-23.483l11.982-138.928c1.118-12.963 12.679-23.589 25.69-23.589h176.279c13.012 0 24.572 10.626 25.689 23.589z" fill="url(#M)"/><path d="m904.473 315.278c1.118 12.963-8.613 23.722-21.624 23.722h-208.373c-13.012 0-22.742-10.759-21.624-23.722l11.98-138.808c1.118-12.964 12.679-23.47 25.69-23.47h176.279c13.012 0 24.572 10.506 25.69 23.47z" fill="url(#O)"/><path d="m895.473 306.513c.724 12.409-8.854 22.487-21.285 22.487h-191.05c-12.431 0-22.009-10.078-21.285-22.487l7.39-126.865c.723-12.41 11.485-22.648 23.915-22.648h171.008c12.431 0 23.192 10.238 23.916 22.647z" fill="url(#P)"/><path d="m904.473 282.626c1.118 12.963-8.613 23.374-21.624 23.374h-208.373c-13.012 0-22.742-10.411-21.624-23.374l11.98-138.982c1.118-12.963 12.679-23.644 25.69-23.644h176.279c13.012 0 24.572 10.681 25.69 23.644z" fill="url(#Q)"/><path d="m904.35 279.635c1.118 12.963-8.612 23.365-21.624 23.365h-208.375c-13.012 0-22.742-10.402-21.624-23.365l11.982-138.986c1.118-12.963 12.679-23.648 25.69-23.648h176.279c13.012 0 24.572 10.686 25.69 23.649z" fill="url(#S)"/><path d="m875.389 329c-6.662 0-12.744 0-96.228 0-83.485 0-89.673 0-97.181 0-10.783-.166-16.803-9.649-16.803-9.649l226.715.559c.001 0-5.758 8.808-16.503 9.09z" fill="url(#T)" opacity=".24"/><path d="m894.331 314.818s-25.671 3.182-115.605 3.182c-89.937 0-115.888-4.325-115.888-4.325l-1.114-5.197.478-6.004s5.434 3.662 14.303 3.289c1.664-.07 180.057-.053 207.194-.053 6.373 0 11.56-3.236 11.56-3.236l.167 6.613z" fill="url(#U)" opacity=".24"/><path d="m662.201 302.474-.537 7.34s1.101 6.033 3.304 9.241c2.233 3.252 7.032 6.921 7.032 6.921l1.235-19.973c-2 .024-5.29-.595-7.235-1.6-1.654-.854-3.799-1.929-3.799-1.929z" fill="url(#V)"/><path d="m878.793 304c11.748-19 18.559-40.476 18.559-63.938 0-65.549-53.141-118.784-118.688-118.784-65.552 0-118.69 53.283-118.69 118.834 0 23.461 6.812 44.888 18.559 63.888z" fill="url(#W)"/><path d="m895.258 302.474.167 7.716s-.429 5.552-3.88 10.102c-2.614 3.448-6.422 5.901-6.422 5.901l-.381-20.202c2.44.024 5.342-1.077 6.687-1.585 2.555-.964 3.829-1.932 3.829-1.932z" fill="url(#X)"/><ellipse cx="683.485" cy="129.421" fill="url(#Z)" rx="4.104" ry="3.102"/><ellipse cx="683.484" cy="129.421" fill="url(#ab)" rx="3.621" ry="2.736"/><path d="m682 129h3v1h-3z" fill="#a0a0a0"/><path d="m683 128h1v3h-1z" fill="#a0a0a0"/><path d="m841.677 204.151c.011-.321.018-.643.018-.967 0-21.739-23.756-39.361-53.058-39.361-23.752 0-43.857 11.579-50.622 27.543-4.386-1.097-9.074-1.7-13.958-1.7-24.123 0-43.481 14.507-43.481 32.402 0 15.223 14.425 27.987 33.425 31.462v1.47h93.495c6.989 3 16.258 7.291 26.428 7.291 21.756 0 39.391-13.215 39.391-29.354-.002-14.17-13.597-26.114-31.638-28.786z" fill="url(#ac)"/><path d="m832.78 261.18c-9.968 0-19.051-3.18-25.9-7.18h-91.88v-1.266c-19-3.385-32.627-15.814-32.627-30.636 0-17.426 19.164-31.552 42.806-31.552 4.784 0 9.348.587 13.645 1.655 6.629-15.544 26.315-26.819 49.592-26.819 28.717 0 51.988 17.159 51.988 38.326 0 .315-.012.629-.021.941 17.681 2.603 31.004 14.19 31.004 27.989-.001 15.715-17.287 28.542-38.607 28.542z" fill="url(#ad)"/><path d="m840.96 203.939c.011-.307.016-.615.016-.924 0-17.983-17.126-32.661-40.013-36.37-17.658 46.588-31.42 86.355-31.42 86.355h38.548c6.722 4 15.634 6.727 25.415 6.727 20.919 0 37.877-12.745 37.877-28.165 0-13.54-13.073-25.068-30.423-27.623z" fill="#fff" opacity=".58"/><ellipse cx="873.485" cy="129.421" fill="url(#ae)" rx="4.104" ry="3.102"/><ellipse cx="873.484" cy="129.421" fill="url(#af)" rx="3.621" ry="2.736"/><path d="m872 129h3v1h-3z" fill="#a0a0a0"/><path d="m873 128h1v3h-1z" fill="#a0a0a0"/><ellipse cx="669.485" cy="290.421" fill="url(#ah)" rx="4.104" ry="3.102"/><ellipse cx="669.484" cy="290.421" fill="url(#aj)" rx="3.621" ry="2.736"/><path d="m668 290h3v1h-3z" fill="#a0a0a0"/><path d="m669 289h1v3h-1z" fill="#a0a0a0"/><ellipse cx="887.485" cy="289.421" fill="url(#ak)" rx="4.104" ry="3.102"/><ellipse cx="887.484" cy="289.421" fill="url(#al)" rx="3.621" ry="2.736"/><path d="m886 289h3v1h-3z" fill="#a0a0a0"/><path d="m887 288h1v3h-1z" fill="#a0a0a0"/><path d="m670 303h214v1h-214z" fill="url(#am)"/><path d="m671 339h214v1h-214z" fill="url(#an)"/><path d="m777.46 500.092c.56 6.48-4.306 11.908-10.811 11.908h-104.171c-6.505 0-11.37-5.428-10.811-11.908l5.99-69.376c.56-6.48 6.339-11.716 12.844-11.716h88.126c6.505 0 12.284 5.235 12.844 11.716z" fill="url(#ao)"/><path d="m777.544 498.223c.56 6.48-4.306 11.777-10.811 11.777h-104.171c-6.505 0-11.37-5.297-10.811-11.777l5.989-69.441c.56-6.48 6.339-11.781 12.844-11.781h88.127c6.505 0 12.284 5.301 12.844 11.781z" fill="url(#ap)"/><path d="m773.045 493.841c.361 6.203-4.427 11.159-10.642 11.159h-95.512c-6.215 0-11.003-4.956-10.642-11.159l3.696-63.471c.361-6.204 5.741-11.37 11.956-11.37h85.49c6.215 0 11.595 5.166 11.956 11.37z" fill="url(#aq)"/><path d="m777.544 482.148c.56 6.48-4.306 11.852-10.811 11.852h-104.171c-6.505 0-11.37-5.371-10.811-11.852l5.989-69.404c.56-6.48 6.339-11.744 12.844-11.744h88.127c6.505 0 12.284 5.264 12.844 11.744z" fill="url(#ar)"/><path d="m777.481 480.402c.56 6.48-4.306 11.598-10.811 11.598h-104.171c-6.505 0-11.37-5.117-10.811-11.598l5.989-69.531c.56-6.48 6.339-11.871 12.844-11.871h88.127c6.505 0 12.284 5.391 12.844 11.871z" fill="url(#as)"/><path d="m763.004 506c-3.331 0-6.371 0-48.107 0s-44.83 0-48.584 0c-5.39 0-8.398-5.241-8.398-5.241l113.34.489c-.001 0-2.88 2.752-8.251 4.752z" fill="url(#at)" opacity=".24"/><path d="m772.474 498.076s-12.834 1.591-57.795 1.591c-44.962 0-57.935-2.162-57.935-2.162l-.558-2.599.238-3.001s2.717 1.831 7.151 1.645c.831-.035 90.015-.027 103.581-.027 3.188 0 5.779-1.617 5.779-1.617l.084 3.307z" fill="url(#au)" opacity=".24"/><path d="m656.425 491.905-.268 3.67s.55 3.016 1.65 4.619c1.117 1.626 3.517 3.46 3.517 3.46l.617-9.984c-.999.013-2.646-.298-3.617-.8-.827-.428-1.899-.965-1.899-.965z" fill="url(#av)"/><path d="m764.705 493c5.874-9 9.279-20.402 9.279-32.131 0-32.77-26.567-59.467-59.337-59.467-32.771 0-59.337 26.762-59.337 59.533 0 11.729 3.405 23.064 9.278 32.064h100.117z" fill="url(#aw)"/><path d="m772.937 491.905.084 3.856s-.214 2.776-1.94 5.051c-1.307 1.725-3.21 2.95-3.21 2.95l-.19-10.1c1.22.013 2.67-.538 3.343-.793 1.277-.479 1.913-.964 1.913-.964z" fill="url(#ax)"/><ellipse cx="667.065" cy="405.391" fill="url(#ay)" rx="2.052" ry="1.551"/><ellipse cx="667.065" cy="405.391" fill="url(#az)" rx="1.81" ry="1.368"/><path d="m666.323 405.181h1.5v.5h-1.5z" fill="#a0a0a0"/><path d="m666.822 404.681h.5v1.499h-.5z" fill="#a0a0a0"/><path d="m746.15 442.75c.005-.159.009-.32.009-.482 0-10.869-11.877-19.678-26.525-19.678-11.874 0-21.926 5.789-25.308 13.77-2.192-.548-4.536-.851-6.978-.851-12.061 0-21.897 7.253-21.897 16.199 0 7.61 7.549 13.992 16.549 15.729v.563h47.062c3.495 2 8.128 3.73 13.212 3.73 10.877 0 19.692-6.564 19.692-14.633 0-7.083-6.797-13.01-15.816-14.347z" fill="url(#aA)"/><path d="m741.702 471.425c-4.983 0-9.524-1.425-12.948-3.425h-45.754v-.962c-10-1.691-16.401-7.905-16.401-15.315 0-8.712 9.537-15.773 21.355-15.773 2.392 0 4.65.293 6.799.827 3.313-7.771 13.144-13.408 24.78-13.408 14.357 0 25.985 8.578 25.985 19.161 0 .157-.008.314-.012.471 8.838 1.301 15.497 7.175 15.497 14.075.001 7.856-8.644 14.349-19.301 14.349z" fill="url(#aB)"/><path d="m745.792 442.645c.006-.153.007-.308.007-.462 0-8.99-8.562-16.413-20.003-18.268-8.827 23.292-15.707 43.085-15.707 43.085h19.271c3.36 3 7.815 3.449 12.706 3.449 10.457 0 18.935-6.328 18.935-14.037-.001-6.769-6.536-12.49-15.209-13.767z" fill="#fff" opacity=".58"/><ellipse cx="762.052" cy="405.391" fill="url(#aC)" rx="2.052" ry="1.551"/><ellipse cx="762.051" cy="405.391" fill="url(#aD)" rx="1.81" ry="1.368"/><path d="m761.31 405.181h1.499v.5h-1.499z" fill="#a0a0a0"/><path d="m761.81 404.681h.5v1.499h-.5z" fill="#a0a0a0"/><ellipse cx="660.066" cy="485.88" fill="url(#aE)" rx="2.053" ry="1.551"/><ellipse cx="660.065" cy="485.88" fill="url(#aF)" rx="1.811" ry="1.367"/><path d="m659.323 485.668h1.501v.5h-1.501z" fill="#a0a0a0"/><path d="m659.823 485.169h.501v1.5h-.501z" fill="#a0a0a0"/><ellipse cx="769.051" cy="485.38" fill="url(#aG)" rx="2.052" ry="1.551"/><ellipse cx="769.051" cy="485.38" fill="url(#aH)" rx="1.811" ry="1.367"/><path d="m768.309 485.169h1.5v.499h-1.5z" fill="#a0a0a0"/><path d="m768.809 484.669h.5v1.499h-.5z" fill="#a0a0a0"/><path d="m661 492h107v1h-107z" fill="url(#aI)"/><path d="m661 510h107v1h-107z" fill="url(#aJ)"/><path d="m701.118 593.357c.21 2.434-1.616 4.643-4.06 4.643h-39.117c-2.443 0-4.27-2.209-4.06-4.643l2.249-26.004c.21-2.434 2.38-4.354 4.823-4.354h33.092c2.443 0 4.613 1.92 4.823 4.354z" fill="url(#aK)"/><path d="m701.149 592.531c.21 2.434-1.616 4.469-4.06 4.469h-39.117c-2.443 0-4.27-2.035-4.06-4.469l2.248-26.092c.21-2.434 2.38-4.439 4.823-4.439h33.093c2.443 0 4.613 2.006 4.823 4.439z" fill="url(#aL)"/><path d="m699.46 590.824c.136 2.329-1.662 4.176-3.995 4.176h-35.867c-2.334 0-4.132-1.847-3.996-4.176l1.388-23.693c.136-2.33 2.156-4.131 4.489-4.131h32.104c2.334 0 4.354 1.801 4.49 4.131z" fill="url(#aM)"/><path d="m701.149 586.5c.21 2.434-1.616 4.5-4.06 4.5h-39.117c-2.443 0-4.27-2.066-4.06-4.5l2.248-26.077c.21-2.434 2.38-4.423 4.823-4.423h33.093c2.443 0 4.613 1.989 4.823 4.423z" fill="url(#aN)"/><path d="m701.127 585.719c.21 2.434-1.616 4.281-4.06 4.281h-39.118c-2.443 0-4.27-1.848-4.06-4.281l2.25-26.185c.21-2.434 2.38-4.534 4.823-4.534h33.092c2.443 0 4.613 2.101 4.823 4.534z" fill="url(#aO)"/><path d="m655.668 590.674-.102 1.203s.209.988.622 1.514c.42.532 1.32 1.134 1.32 1.134l.232-3.271c-.377.004-.995-.098-1.359-.263-.311-.14-.713-.317-.713-.317z" fill="url(#aP)"/><path d="m696.33 590c2.203-3 3.482-7.398 3.482-11.803 0-12.306-9.977-22.201-22.281-22.201-12.306 0-22.282 9.853-22.282 22.159 0 4.405 1.28 8.845 3.485 11.845z" fill="url(#aQ)"/><path d="m699.42 590.659.031 1.271s-.08.916-.729 1.665c-.491.567-1.205.972-1.205.972l-.071-3.327c.459.003 1.002-.18 1.256-.263.479-.159.718-.318.718-.318z" fill="url(#aR)"/><path d="m689.361 571.655c.002-.06.003-.121.003-.182 0-4.08-4.46-7.39-9.961-7.39-4.459 0-8.232 2.174-9.503 5.17-.824-.205-1.702-.318-2.62-.318-4.528 0-8.36 2.724-8.36 6.082 0 2.859 3.08 5.255 6.08 5.907v1.076h17.943c1.313 0 3.052.967 4.961.967 4.087 0 7.396-2.679 7.396-5.708 0-2.662-2.552-5.103-5.939-5.604z" fill="url(#aS)"/><path d="m687.69 582.855c-1.871 0-3.577-.855-4.861-.855h-17.829v-1.224c-3-.637-5.833-2.97-5.833-5.753 0-3.271 3.742-5.922 8.18-5.922.898 0 1.829.109 2.634.311 1.242-2.919 4.918-5.035 9.289-5.035 5.391 0 9.73 3.222 9.73 7.194v.177c3 .489 5.881 2.91 5.881 5.501 0 2.949-3.188 5.606-7.191 5.606z" fill="url(#aT)"/><path d="m689.227 571.614c.002-.057.003-.114.003-.173 0-3.376-3.215-5.544-7.513-6.24-3.315 8.746-5.897 16.799-5.897 16.799h7.235c1.262 0 2.935.677 4.771.677 3.927 0 7.111-2.688 7.111-5.584.001-2.542-2.454-4.998-5.71-5.479z" fill="#fff" opacity=".58"/><path d="m822.245 424.299c.141 1.622-1.077 2.701-2.706 2.701h-26.078c-1.629 0-2.847-1.079-2.706-2.701l1.499-17.367c.141-1.621 1.587-2.932 3.216-2.932h22.06c1.629 0 3.075 1.311 3.216 2.932z" fill="url(#aU)"/><path d="m822.265 424.082c.141 1.621-1.077 2.918-2.706 2.918h-26.077c-1.629 0-2.847-1.297-2.706-2.918l1.499-17.26c.141-1.622 1.587-2.822 3.216-2.822h22.06c1.629 0 3.075 1.2 3.216 2.822z" fill="url(#aV)"/><path d="m821.14 423.109c.091 1.553-1.107 2.891-2.663 2.891h-23.912c-1.556 0-2.754-1.338-2.663-2.891l.926-16.076c.091-1.553 1.438-3.033 2.993-3.033h21.401c1.556 0 2.902 1.48 2.993 3.033z" fill="url(#aW)"/><path d="m822.265 420.061c.141 1.622-1.077 2.939-2.706 2.939h-26.077c-1.629 0-2.847-1.317-2.706-2.939l1.499-17.248c.141-1.623 1.587-2.812 3.216-2.812h22.06c1.629 0 3.075 1.189 3.216 2.812z" fill="url(#aX)"/><path d="m822.251 419.873c.141 1.622-1.077 3.127-2.706 3.127h-26.078c-1.629 0-2.847-1.505-2.706-3.127l1.5-17.654c.141-1.621 1.587-3.219 3.216-3.219h22.059c1.629 0 3.075 1.598 3.216 3.219z" fill="url(#aY)"/><path d="m818.625 426c-.834 0-1.594 0-12.042 0s-11.222 0-12.161 0c-1.35 0-2.104-.783-2.104-.783l28.372-.141s-.72.924-2.065.924z" fill="url(#aZ)" opacity=".24"/><path d="m820.997 424.075s-3.213.397-14.469.397-14.502-.543-14.502-.543l-.14-.649.059-.751s.68.459 1.79.412c.208-.01 22.533-.007 25.931-.007.798 0 1.446-.405 1.446-.405l.021.826z" fill="url(#a0)" opacity=".24"/><path d="m791.945 422.529-.067.918s.14.756.415 1.155c.279.408.88.867.88.867l.154-2.5c-.251.004-.663-.073-.908-.2-.206-.105-.474-.24-.474-.24z" fill="url(#a1)"/><path d="m819.053 423c1.47-3 2.321-5.205 2.321-8.143 0-8.201-6.65-14.935-14.854-14.935s-14.854 6.771-14.854 14.976c0 2.936.853 5.102 2.323 8.102z" fill="url(#a2)"/><path d="m821.112 422.529.021.965s-.053.696-.486 1.266c-.326.431-.803.737-.803.737l-.047-2.527c.306.001.667-.137.837-.2.319-.121.478-.241.478-.241z" fill="url(#a3)"/><path d="m814.406 410.224c.002-.039.004-.08.004-.12 0-2.721-2.975-4.927-6.642-4.927-2.972 0-5.487 1.449-6.335 3.446-.55-.137-1.135-.212-1.746-.212-3.02 0-5.657 1.816-5.657 4.055 0 1.906 1.97 3.502 3.97 3.938v.596h12.13c.875 0 2.032.707 3.307.707 2.723 0 4.93-1.759 4.93-3.778-.001-1.775-1.701-3.37-3.961-3.705z" fill="url(#a4)"/><path d="m813.293 417.629c-1.247 0-2.384-.629-3.241-.629h-12.052v-.695c-2-.424-3.806-1.98-3.806-3.835 0-2.181 2.536-3.949 5.494-3.949.601 0 1.239.074 1.778.208.826-1.946 3.705-3.356 6.618-3.356 3.595 0 6.915 2.146 6.915 4.796v.117c1 .327 3.504 1.911 3.504 3.637.001 1.965-2.54 3.706-5.21 3.706z" fill="url(#a5)"/><path d="m815 410.197c0-.038 0-.077 0-.115 0-2.251-2.484-3.758-5.349-4.223-2.209 5.832-4.271 11.141-4.271 11.141h4.824c.842 0 1.956.51 3.181.51 2.617 0 5.082-1.761 5.082-3.691 0-1.695-2.467-3.302-3.467-3.622z" fill="#fff" opacity=".58"/><path d="m805.946 462.461c.066.771-.512 1.539-1.285 1.539h-12.386c-.773 0-1.352-.768-1.285-1.539l.711-8.157c.066-.771.754-1.304 1.527-1.304h10.478c.773 0 1.461.533 1.527 1.304z" fill="url(#a6)"/><path d="m805.956 462.357c.066.771-.512 1.643-1.285 1.643h-12.386c-.773 0-1.352-.871-1.285-1.643l.713-8.606c.066-.771.754-1.751 1.527-1.751h10.478c.773 0 1.461.98 1.527 1.751z" fill="url(#a7)"/><path d="m805.422 461.635c.043.737-.526 1.365-1.266 1.365h-11.356c-.739 0-1.309-.628-1.266-1.365l.44-7.415c.043-.737.683-1.22 1.422-1.22h10.164c.739 0 1.379.482 1.422 1.22z" fill="url(#a8)"/><path d="m805.949 460.387c.066.777-.518 1.613-1.297 1.613h-12.363c-.779 0-1.363-.836-1.297-1.613l.714-8.693c.066-.776.758-1.693 1.538-1.693h10.455c.779 0 1.471.917 1.537 1.693z" fill="url(#a9)"/><path d="m804.228 463c-.396 0-.758 0-5.72 0s-5.33 0-5.776 0c-.642 0-.999-.602-.999-.602l13.477.047c-.001 0-.345.555-.982.555z" fill="url(#ba)" opacity=".24"/><path d="m803 455.521c0-.019 0-.038 0-.056 0-1.292-1.799-2.342-3.543-2.342-1.41 0-2.799.689-3.201 1.638-.262-.065-.637-.101-.927-.101-1.434 0-2.95.863-2.95 1.925 0 .906-.379 1.665 1.621 1.872v.543h6.191c.416 0 .966.205 1.571.205 1.294 0 2.729-.898 2.729-1.86.001-.84-.491-1.665-1.491-1.824z" fill="url(#bb)"/><path d="m801.695 459.171c-.593 0-1.133-.171-1.539-.171h-6.156v-.592c-2-.2-1.592-.939-1.592-1.82 0-1.037 1.312-1.875 2.717-1.875.285 0 .643.034.899.098.393-.924 2.035-1.594 3.417-1.594 1.707 0 3.559 1.02 3.559 2.277v.057c1 .154 1.418.974 1.418 1.792 0 .935-1.457 1.828-2.723 1.828z" fill="url(#bc)"/><path d="m803 455.509c0-.018 0-.036 0-.056 0-1.069-1.428-1.652-2.787-1.874-1.049 2.77-2.276 5.421-2.276 5.421h2.292c.398 0 .929.113 1.51.113 1.243 0 2.662-.901 2.662-1.819-.001-.805-.401-1.633-1.401-1.785z" fill="#fff" opacity=".58"/></svg>