<svg clip-rule="evenodd" fill-rule="evenodd" stroke-linejoin="round" stroke-miterlimit="1.41421" viewBox="0 0 250 300" xmlns="http://www.w3.org/2000/svg" xmlns:xlink="http://www.w3.org/1999/xlink"><linearGradient id="a" gradientUnits="userSpaceOnUse" x1="46.5155" x2="203.3815" y1="161.982" y2="161.982"><stop offset="0" stop-color="#e6e6e6"/><stop offset=".05" stop-color="#dadada"/><stop offset=".2" stop-color="#bebebe"/><stop offset=".35" stop-color="#a8a8a8"/><stop offset=".52" stop-color="#989898"/><stop offset=".72" stop-color="#8f8f8f"/><stop offset="1" stop-color="#8c8c8c"/></linearGradient><linearGradient id="b" gradientTransform="matrix(0 -114.899 114.899 0 125.052 217.281)" gradientUnits="userSpaceOnUse" x1="0" x2="1" y1="0" y2="0"><stop offset="0" stop-color="#f5f5f5"/><stop offset=".16" stop-color="#ccc"/><stop offset=".34" stop-color="#a5a5a5"/><stop offset=".51" stop-color="#868686"/><stop offset=".69" stop-color="#707070"/><stop offset=".85" stop-color="#636363"/><stop offset="1" stop-color="#5e5e5e"/></linearGradient><linearGradient id="c"><stop offset="0" stop-color="#fff" stop-opacity="0"/><stop offset=".06" stop-color="#fff" stop-opacity=".094118"/><stop offset=".58" stop-color="#fff"/><stop offset="1" stop-color="#fff" stop-opacity="0"/></linearGradient><linearGradient id="d" gradientUnits="userSpaceOnUse" x1="52.5371" x2="197.5441" xlink:href="#c" y1="217.434" y2="217.434"/><linearGradient id="e" gradientUnits="userSpaceOnUse" x1="49.9438" x2="200.1588" y1="157.066" y2="157.066"><stop offset="0" stop-color="#2eb5f6"/><stop offset=".14" stop-color="#3d97de"/><stop offset=".28" stop-color="#28c0ff"/><stop offset=".51" stop-color="#3d97de"/><stop offset=".72" stop-color="#49c0f0"/><stop offset=".87" stop-color="#3d97de"/><stop offset="1" stop-color="#45b1ea"/></linearGradient><linearGradient id="f" gradientUnits="userSpaceOnUse" x1="46.6185" x2="203.4845" y1="139.862" y2="139.862"><stop offset="0" stop-color="#e6e6e6"/><stop offset=".03" stop-color="#e1e1e1"/><stop offset=".22" stop-color="#ccc"/><stop offset=".43" stop-color="#bcbcbc"/><stop offset=".66" stop-color="#b3b3b3"/><stop offset="1" stop-color="#b0b0b0"/></linearGradient><linearGradient id="g" gradientTransform="matrix(-.00003072 -114.899 114.899 -.00003072 124.975 195.468)" gradientUnits="userSpaceOnUse" x1="0" x2="1" y1="0" y2="0"><stop offset="0" stop-color="#e6e6e6"/><stop offset="1" stop-color="#a6a6a6"/></linearGradient><linearGradient id="h" gradientUnits="userSpaceOnUse" x1="52.5371" x2="197.5441" xlink:href="#c" y1="195.315" y2="195.315"/><linearGradient id="i" gradientTransform="matrix(0 -6.26766 6.26766 0 125.08 212.144)" gradientUnits="userSpaceOnUse" x1="0" x2="1" y1="0" y2="0"><stop offset="0" stop-color="#fff" stop-opacity=".24"/><stop offset=".71" stop-color="#fff" stop-opacity="0"/><stop offset="1" stop-color="#fff" stop-opacity="0"/></linearGradient><linearGradient id="j" gradientTransform="matrix(0 -9.06291 9.06291 0 125.138 205.796)" gradientUnits="userSpaceOnUse" x1="0" x2="1" y1="0" y2="0"><stop offset="0" stop-opacity="0"/><stop offset=".14" stop-color="#000204" stop-opacity=".032941"/><stop offset=".29" stop-color="#000711" stop-opacity=".069647"/><stop offset=".45" stop-color="#001027" stop-opacity=".107294"/><stop offset=".61" stop-color="#001c45" stop-opacity=".144941"/><stop offset=".77" stop-color="#002c6b" stop-opacity=".183529"/><stop offset=".93" stop-color="#003f9a" stop-opacity=".222118"/><stop offset="1" stop-color="#0049b1" stop-opacity=".24"/></linearGradient><linearGradient id="k" gradientUnits="userSpaceOnUse" x1="49.9681" x2="56.46375" y1="204.396" y2="204.396"><stop offset="0" stop-color="#fff" stop-opacity="0"/><stop offset=".04" stop-color="#fff" stop-opacity=".035294"/><stop offset=".29" stop-color="#fff" stop-opacity=".258824"/><stop offset=".77" stop-color="#fff" stop-opacity="0"/><stop offset="1" stop-color="#fff" stop-opacity="0"/></linearGradient><radialGradient id="l" cx="125.856" cy="170.287" gradientUnits="userSpaceOnUse" r="67.3085"><stop offset="0" stop-color="#fafafa"/><stop offset=".05" stop-color="#fafafa" stop-opacity=".94902"/><stop offset="1" stop-color="#fff" stop-opacity="0"/></radialGradient><linearGradient id="m" gradientUnits="userSpaceOnUse" x1="65.2628" x2="185.5618" y1="135.496" y2="135.496"><stop offset="0" stop-color="#e3e3e3"/><stop offset="1" stop-color="#bfbfbf"/></linearGradient><linearGradient id="n" gradientTransform="matrix(-6.49565 0 0 -6.49565 200.241 204.396)" gradientUnits="userSpaceOnUse" x1="0" x2="1" y1="0" y2="0"><stop offset="0" stop-color="#fff" stop-opacity="0"/><stop offset=".04" stop-color="#fff" stop-opacity=".035294"/><stop offset=".29" stop-color="#fff" stop-opacity=".258824"/><stop offset=".84" stop-color="#fff" stop-opacity="0"/><stop offset="1" stop-color="#fff" stop-opacity="0"/></linearGradient><linearGradient id="o"><stop offset="0" stop-color="#f0f0f0"/><stop offset=".44" stop-color="#ededed"/><stop offset=".71" stop-color="#e4e4e4"/><stop offset=".95" stop-color="#d6d6d6"/><stop offset="1" stop-color="#d1d1d1"/></linearGradient><linearGradient id="p" gradientTransform="matrix(0 -4.30114 4.30114 0 55.7629 190.86)" gradientUnits="userSpaceOnUse" x1="0" x2="1" xlink:href="#o" y1="0" y2="0"/><linearGradient id="q"><stop offset="0" stop-color="#e3e3e3"/><stop offset=".52" stop-color="#e0e0e0"/><stop offset=".86" stop-color="#d8d8d8"/><stop offset="1" stop-color="#d1d1d1"/></linearGradient><radialGradient id="r" cx="0" cy="0" gradientTransform="matrix(2.51129 0 0 1.89753 55.7629 188.71)" gradientUnits="userSpaceOnUse" r="1" xlink:href="#q"/><linearGradient id="s" gradientTransform="matrix(0 -4.30114 4.30114 0 194.625 190.86)" gradientUnits="userSpaceOnUse" x1="0" x2="1" xlink:href="#o" y1="0" y2="0"/><radialGradient id="t" cx="0" cy="0" gradientTransform="matrix(2.51129 0 0 1.89753 194.625 188.71)" gradientUnits="userSpaceOnUse" r="1" xlink:href="#q"/><linearGradient id="u"><stop offset="0" stop-color="#bfbfbf"/><stop offset="1" stop-color="#a6a6a6"/></linearGradient><linearGradient id="v" gradientTransform="matrix(0 -4.30111 4.30111 0 65.2866 89.1708)" gradientUnits="userSpaceOnUse" x1="0" x2="1" xlink:href="#u" y1="0" y2="0"/><linearGradient id="w"><stop offset="0" stop-color="#cfcfcf"/><stop offset="1" stop-color="#a6a6a6"/></linearGradient><linearGradient id="x" gradientTransform="matrix(0 -3.79461 3.79461 0 65.2866 88.9179)" gradientUnits="userSpaceOnUse" x1="0" x2="1" xlink:href="#w" y1="0" y2="0"/><linearGradient id="y" gradientTransform="matrix(0 -4.30111 4.30111 0 184.487 89.1708)" gradientUnits="userSpaceOnUse" x1="0" x2="1" xlink:href="#u" y1="0" y2="0"/><linearGradient id="z" gradientTransform="matrix(0 -3.79461 3.79461 0 184.487 88.9179)" gradientUnits="userSpaceOnUse" x1="0" x2="1" xlink:href="#w" y1="0" y2="0"/><linearGradient id="A" gradientTransform="matrix(13.0334 73.9161 -73.9161 13.0334 117.833 102.509)" gradientUnits="userSpaceOnUse" x1="0" x2="1" y1="0" y2="0"><stop offset="0" stop-color="#fff"/><stop offset="1" stop-color="#bfbfbf"/></linearGradient><linearGradient id="B" gradientTransform="matrix(-1.17867 67.5249 -67.5249 -1.17867 126.193 101.471)" gradientUnits="userSpaceOnUse" x1="0" x2="1" y1="0" y2="0"><stop offset="0" stop-color="#fff"/><stop offset=".52" stop-color="#fdfdfd"/><stop offset=".79" stop-color="#f5f5f5"/><stop offset="1" stop-color="#e8e8e8"/></linearGradient><path d="m203.354 212.246c.344 3.982-2.645 7.185-6.643 7.185h-143.525c-3.998 0-6.987-3.203-6.644-7.185l8.672-100.501c.343-3.982 3.894-7.213 7.892-7.213h123.685c3.998 0 7.549 3.231 7.893 7.213z" fill="url(#a)" fill-rule="nonzero"/><path d="m203.458 210.095c.343 3.983-2.646 7.186-6.644 7.186h-143.525c-3.998 0-6.987-3.203-6.644-7.186l8.672-100.501c.343-3.982 3.895-7.213 7.892-7.213h123.686c3.997 0 7.549 3.231 7.892 7.213z" fill="url(#b)" fill-rule="nonzero"/><path d="m52.537 217.281h145.007v.307h-145.007z" fill="url(#d)"/><path d="m200.148 205.127c.222 3.812-2.721 6.931-6.54 6.931h-137.113c-3.819 0-6.762-3.119-6.539-6.931l5.596-96.066c.223-3.812 3.529-6.987 7.348-6.987h124.304c3.819 0 7.125 3.175 7.347 6.987z" fill="url(#e)" fill-rule="nonzero"/><path d="m203.458 190.126c.343 3.983-2.646 7.186-6.644 7.186h-143.525c-3.998 0-6.987-3.203-6.644-7.186l8.671-100.501c.344-3.982 3.895-7.213 7.893-7.213h123.685c3.998 0 7.549 3.231 7.893 7.213z" fill="url(#f)" fill-rule="nonzero"/><path d="m203.381 188.283c.344 3.982-2.645 7.185-6.643 7.185h-143.526c-3.997 0-6.986-3.203-6.643-7.185l8.671-100.501c.343-3.983 3.895-7.213 7.892-7.213h123.686c3.998 0 7.549 3.23 7.893 7.213z" fill="url(#g)" fill-rule="nonzero"/><path d="m52.537 195.161h145.007v.307h-145.007z" fill="url(#h)"/><g fill-rule="nonzero"><path d="m193.746 212.059c-4.587 0-11.172.085-68.654.085s-63.547-.086-68.717-.086c-5.569 0-6.407-6.144-6.407-6.144l150.223-.038s-.283 5.662-6.445 6.183z" fill="url(#i)"/><path d="m200.191 203.448s-17.617 2.348-75.099 2.348-75.008-2.681-75.008-2.681l.351-6.382s.554.581 2.78.581c1.064 0 126.555-.054 144.329-.077 1.35-.002 2.118-.445 2.118-.445z" fill="url(#j)"/><path d="m50.435 196.733-.467 9.181s.046 2.229 1.719 4.114c1.674 1.885 4.688 2.03 4.688 2.03l.089-14.746c-1.289.017-3.592.002-3.984-.027-1.186-.089-2.045-.552-2.045-.552z" fill="url(#k)"/><path d="m183.567 195.161c6.866-10.87 10.845-23.568 10.845-37.279 0-38.307-31.054-69.374-69.36-69.374-38.307 0-69.361 31.074-69.361 69.381 0 13.71 3.98 26.402 10.844 37.272z" fill="url(#l)"/><path d="m165.83 129.188c.006-.23.01-.462.01-.694 0-15.626-14.816-28.293-33.092-28.293-14.815 0-27.354 8.323-31.574 19.798-2.734-.788-5.659-1.222-8.705-1.222-15.046 0-27.206 10.428-27.206 23.291 0 10.942 9.087 20.117 20.761 22.615v.678h58.487c4.358 3.072 10.14 5.429 16.483 5.429 13.569 0 24.568-9.404 24.568-21.005 0-10.185-8.48-18.675-19.732-20.597zm-5.549 41.009c-6.217 0-11.882-2.071-16.154-5.143h-57.489v-.945c-11.674-2.433-20.26-11.367-20.26-22.021 0-12.525 12-22.679 26.745-22.679 2.985 0 5.853.422 8.533 1.19 4.135-11.174 16.425-19.277 30.943-19.277 17.911 0 32.431 12.333 32.431 27.548 0 .226-.004.452-.01.677 11.028 1.87 19.338 10.208 19.338 20.126 0 11.296-10.78 20.524-24.077 20.524z" fill="url(#m)"/><path d="m199.775 196.733.466 9.181s-.046 2.229-1.719 4.114c-1.674 1.885-4.688 2.03-4.688 2.03l-.088-14.746c1.289.017 3.592.002 3.984-.027 1.185-.089 2.045-.552 2.045-.552z" fill="url(#n)"/></g><ellipse cx="55.763" cy="188.71" fill="url(#p)" rx="2.846" ry="2.151"/><ellipse cx="55.763" cy="188.71" fill="url(#r)" rx="2.512" ry="1.897"/><path d="m55.609 187.788h.307v1.843h-.307z" fill="#bcbcbc"/><path d="m55.763 187.634v2.151z" fill="#bcbcbc"/><ellipse cx="194.625" cy="188.71" fill="url(#s)" rx="2.846" ry="2.151"/><ellipse cx="194.625" cy="188.71" fill="url(#t)" rx="2.512" ry="1.897"/><path d="m194.472 187.788h.307v1.843h-.307z" fill="#bcbcbc"/><path d="m194.625 187.634v2.151z" fill="#bcbcbc"/><ellipse cx="65.287" cy="87.021" fill="url(#v)" rx="2.846" ry="2.151"/><ellipse cx="65.287" cy="87.021" fill="url(#x)" rx="2.512" ry="1.897"/><path d="m65.133 86.099h.307v1.843h-.307z" fill="#a0a0a0"/><path d="m64.211 86.713h2.151v.307h-2.151z" fill="#a0a0a0"/><ellipse cx="184.487" cy="87.021" fill="url(#y)" rx="2.846" ry="2.151"/><ellipse cx="184.487" cy="87.021" fill="url(#z)" rx="2.512" ry="1.897"/><path d="m184.333 86.099h.307v1.843h-.307z" fill="#a0a0a0"/><path d="m183.412 86.713h2.151v.307h-2.151z" fill="#a0a0a0"/><path d="m166.687 129.153c.007-.228.011-.457.011-.687 0-15.454-15.13-27.982-33.791-27.982-15.128 0-27.932 8.231-32.241 19.581-2.793-.78-5.779-1.209-8.889-1.209-15.364 0-27.674 10.313-27.674 23.035 0 10.822 9.325 19.896 21.307 22.367v1.103h59.507c4.452 2.151 10.355 5.153 16.832 5.153 13.856 0 25.087-9.409 25.087-20.882 0-10.073-8.659-18.579-20.149-20.479z" fill="url(#A)" fill-rule="nonzero"/><path d="m161.021 169.619c-6.349 0-12.133-2.107-16.496-5.18h-58.501v-.748c-12.289-2.406-20.787-11.243-20.787-21.78 0-12.388 12.201-22.43 27.258-22.43 3.047 0 5.951.417 8.688 1.176 4.222-11.05 16.759-19.066 31.583-19.066 18.29 0 33.11 12.199 33.11 27.247 0 .224-.007.447-.013.669 11.26 1.85 19.745 10.05 19.745 19.86 0 11.172-11.009 20.252-24.587 20.252z" fill="url(#B)" fill-rule="nonzero"/><path d="m166.23 129.002c.007-.218.01-.437.01-.657 0-12.784-10.907-23.246-25.483-25.883-11.246 33.12-20.011 61.363-20.011 61.363h24.55c4.281 3.072 9.957 4.808 16.187 4.808 13.323 0 24.123-9.046 24.123-20.008 0-9.625-8.326-17.807-19.376-19.623z" fill="#fff" fill-opacity=".58" fill-rule="nonzero"/></svg>