<?xml version="1.0" encoding="UTF-8" standalone="no"?><!DOCTYPE svg PUBLIC "-//W3C//DTD SVG 1.1//EN" "http://www.w3.org/Graphics/SVG/1.1/DTD/svg11.dtd"><svg width="100%" height="100%" viewBox="0 0 250 300" version="1.1" xmlns="http://www.w3.org/2000/svg" xmlns:xlink="http://www.w3.org/1999/xlink" xml:space="preserve" xmlns:serif="http://www.serif.com/" style="fill-rule:evenodd;clip-rule:evenodd;stroke-linejoin:round;stroke-miterlimit:1.41421;"><g id="database-icons" serif:id="database icons"><path d="M203.354,212.246c0.344,3.982 -2.645,7.185 -6.643,7.185l-143.525,0c-3.998,0 -6.987,-3.203 -6.644,-7.185l8.672,-100.501c0.343,-3.982 3.894,-7.213 7.892,-7.213l123.685,0c3.998,0 7.549,3.231 7.893,7.213l8.67,100.501Z" style="fill:url(#_Linear1);fill-rule:nonzero;"/><path d="M203.458,210.095c0.343,3.983 -2.646,7.186 -6.644,7.186l-143.525,0c-3.998,0 -6.987,-3.203 -6.644,-7.186l8.672,-100.501c0.343,-3.982 3.895,-7.213 7.892,-7.213l123.686,0c3.997,0 7.549,3.231 7.892,7.213l8.671,100.501Z" style="fill:url(#_Linear2);fill-rule:nonzero;"/><rect x="52.537" y="217.281" width="145.007" height="0.307" style="fill:url(#_Linear3);"/><path d="M200.148,205.127c0.222,3.812 -2.721,6.931 -6.54,6.931l-137.113,0c-3.819,0 -6.762,-3.119 -6.539,-6.931l5.596,-96.066c0.223,-3.812 3.529,-6.987 7.348,-6.987l124.304,0c3.819,0 7.125,3.175 7.347,6.987l5.597,96.066Z" style="fill:url(#_Linear4);fill-rule:nonzero;"/><path d="M203.458,190.126c0.343,3.983 -2.646,7.186 -6.644,7.186l-143.525,0c-3.998,0 -6.987,-3.203 -6.644,-7.186l8.671,-100.501c0.344,-3.982 3.895,-7.213 7.893,-7.213l123.685,0c3.998,0 7.549,3.231 7.893,7.213l8.671,100.501Z" style="fill:url(#_Linear5);fill-rule:nonzero;"/><path d="M203.381,188.283c0.344,3.982 -2.645,7.185 -6.643,7.185l-143.526,0c-3.997,0 -6.986,-3.203 -6.643,-7.185l8.671,-100.501c0.343,-3.983 3.895,-7.213 7.892,-7.213l123.686,0c3.998,0 7.549,3.23 7.893,7.213l8.67,100.501Z" style="fill:url(#_Linear6);fill-rule:nonzero;"/><rect x="52.537" y="195.161" width="145.007" height="0.307" style="fill:url(#_Linear7);"/><path d="M193.746,212.059c-4.587,0 -11.172,0.085 -68.654,0.085c-57.482,0 -63.547,-0.086 -68.717,-0.086c-5.569,0 -6.407,-6.144 -6.407,-6.144l150.223,-0.038c0,0 -0.283,5.662 -6.445,6.183Z" style="fill:url(#_Linear8);fill-rule:nonzero;"/><path d="M200.191,203.448c0,0 -17.617,2.348 -75.099,2.348c-57.482,0 -75.008,-2.681 -75.008,-2.681l0.351,-6.382c0,0 0.554,0.581 2.78,0.581c1.064,0 126.555,-0.054 144.329,-0.077c1.35,-0.002 2.118,-0.445 2.118,-0.445l0.529,6.656Z" style="fill:url(#_Linear9);fill-rule:nonzero;"/><path d="M50.435,196.733l-0.467,9.181c0,0 0.046,2.229 1.719,4.114c1.674,1.885 4.688,2.03 4.688,2.03l0.089,-14.746c-1.289,0.017 -3.592,0.002 -3.984,-0.027c-1.186,-0.089 -2.045,-0.552 -2.045,-0.552Z" style="fill:url(#_Linear10);fill-rule:nonzero;"/><path d="M183.567,195.161c6.866,-10.87 10.845,-23.568 10.845,-37.279c0,-38.307 -31.054,-69.374 -69.36,-69.374c-38.307,0 -69.361,31.074 -69.361,69.381c0,13.71 3.98,26.402 10.844,37.272l117.032,0Z" style="fill:url(#_Radial11);fill-rule:nonzero;"/><path d="M165.83,129.188c0.006,-0.23 0.01,-0.462 0.01,-0.694c0,-15.626 -14.816,-28.293 -33.092,-28.293c-14.815,0 -27.354,8.323 -31.574,19.798c-2.734,-0.788 -5.659,-1.222 -8.705,-1.222c-15.046,0 -27.206,10.428 -27.206,23.291c0,10.942 9.087,20.117 20.761,22.615l0,0.678l58.487,0c4.358,3.072 10.14,5.429 16.483,5.429c13.569,0 24.568,-9.404 24.568,-21.005c0,-10.185 -8.48,-18.675 -19.732,-20.597Zm-5.549,41.009c-6.217,0 -11.882,-2.071 -16.154,-5.143l-57.489,0l0,-0.945c-11.674,-2.433 -20.26,-11.367 -20.26,-22.021c0,-12.525 12,-22.679 26.745,-22.679c2.985,0 5.853,0.422 8.533,1.19c4.135,-11.174 16.425,-19.277 30.943,-19.277c17.911,0 32.431,12.333 32.431,27.548c0,0.226 -0.004,0.452 -0.01,0.677c11.028,1.87 19.338,10.208 19.338,20.126c0,11.296 -10.78,20.524 -24.077,20.524Z" style="fill:url(#_Linear12);fill-rule:nonzero;"/><path d="M199.775,196.733l0.466,9.181c0,0 -0.046,2.229 -1.719,4.114c-1.674,1.885 -4.688,2.03 -4.688,2.03l-0.088,-14.746c1.289,0.017 3.592,0.002 3.984,-0.027c1.185,-0.089 2.045,-0.552 2.045,-0.552Z" style="fill:url(#_Linear13);fill-rule:nonzero;"/><g><ellipse cx="55.763" cy="188.71" rx="2.846" ry="2.151" style="fill:url(#_Linear14);"/><ellipse cx="55.763" cy="188.71" rx="2.512" ry="1.897" style="fill:url(#_Radial15);"/><rect x="55.609" y="187.788" width="0.307" height="1.843" style="fill:#bcbcbc;"/><path d="M55.763,187.634l0,2.151l0,-2.151Z" style="fill:#bcbcbc;"/></g><g><ellipse cx="194.625" cy="188.71" rx="2.846" ry="2.151" style="fill:url(#_Linear16);"/><ellipse cx="194.625" cy="188.71" rx="2.512" ry="1.897" style="fill:url(#_Radial17);"/><rect x="194.472" y="187.788" width="0.307" height="1.843" style="fill:#bcbcbc;"/><path d="M194.625,187.634l0,2.151l0,-2.151Z" style="fill:#bcbcbc;"/></g><g><ellipse cx="65.287" cy="87.021" rx="2.846" ry="2.151" style="fill:url(#_Linear18);"/><ellipse cx="65.287" cy="87.021" rx="2.512" ry="1.897" style="fill:url(#_Linear19);"/><rect x="65.133" y="86.099" width="0.307" height="1.843" style="fill:#a0a0a0;"/><rect x="64.211" y="86.713" width="2.151" height="0.307" style="fill:#a0a0a0;"/></g><g><ellipse cx="184.487" cy="87.021" rx="2.846" ry="2.151" style="fill:url(#_Linear20);"/><ellipse cx="184.487" cy="87.021" rx="2.512" ry="1.897" style="fill:url(#_Linear21);"/><rect x="184.333" y="86.099" width="0.307" height="1.843" style="fill:#a0a0a0;"/><rect x="183.412" y="86.713" width="2.151" height="0.307" style="fill:#a0a0a0;"/></g><g><path d="M166.687,129.153c0.007,-0.228 0.011,-0.457 0.011,-0.687c0,-15.454 -15.13,-27.982 -33.791,-27.982c-15.128,0 -27.932,8.231 -32.241,19.581c-2.793,-0.78 -5.779,-1.209 -8.889,-1.209c-15.364,0 -27.674,10.313 -27.674,23.035c0,10.822 9.325,19.896 21.307,22.367l0,1.103l59.507,0c4.452,2.151 10.355,5.153 16.832,5.153c13.856,0 25.087,-9.409 25.087,-20.882c0,-10.073 -8.659,-18.579 -20.149,-20.479Z" style="fill:url(#_Linear22);fill-rule:nonzero;"/><path d="M161.021,169.619c-6.349,0 -12.133,-2.107 -16.496,-5.18l-58.501,0l0,-0.748c-12.289,-2.406 -20.787,-11.243 -20.787,-21.78c0,-12.388 12.201,-22.43 27.258,-22.43c3.047,0 5.951,0.417 8.688,1.176c4.222,-11.05 16.759,-19.066 31.583,-19.066c18.29,0 33.11,12.199 33.11,27.247c0,0.224 -0.007,0.447 -0.013,0.669c11.26,1.85 19.745,10.05 19.745,19.86c0,11.172 -11.009,20.252 -24.587,20.252Z" style="fill:url(#_Linear23);fill-rule:nonzero;"/><path d="M166.23,129.002c0.007,-0.218 0.01,-0.437 0.01,-0.657c0,-12.784 -10.907,-23.246 -25.483,-25.883c-11.246,33.12 -20.011,61.363 -20.011,61.363l24.55,0c4.281,3.072 9.957,4.808 16.187,4.808c13.323,0 24.123,-9.046 24.123,-20.008c0,-9.625 -8.326,-17.807 -19.376,-19.623Z" style="fill:#fff;fill-opacity:0.58;fill-rule:nonzero;"/></g></g><defs><linearGradient id="_Linear1" x1="0" y1="0" x2="1" y2="0" gradientUnits="userSpaceOnUse" gradientTransform="matrix(156.866,0,0,156.866,46.5155,161.982)"><stop offset="0" style="stop-color:#e6e6e6;stop-opacity:1"/><stop offset="0.05" style="stop-color:#dadada;stop-opacity:1"/><stop offset="0.2" style="stop-color:#bebebe;stop-opacity:1"/><stop offset="0.35" style="stop-color:#a8a8a8;stop-opacity:1"/><stop offset="0.52" style="stop-color:#989898;stop-opacity:1"/><stop offset="0.72" style="stop-color:#8f8f8f;stop-opacity:1"/><stop offset="1" style="stop-color:#8c8c8c;stop-opacity:1"/></linearGradient><linearGradient id="_Linear2" x1="0" y1="0" x2="1" y2="0" gradientUnits="userSpaceOnUse" gradientTransform="matrix(7.03554e-15,-114.899,114.899,7.03554e-15,125.052,217.281)"><stop offset="0" style="stop-color:#f5f5f5;stop-opacity:1"/><stop offset="0.16" style="stop-color:#ccc;stop-opacity:1"/><stop offset="0.34" style="stop-color:#a5a5a5;stop-opacity:1"/><stop offset="0.51" style="stop-color:#868686;stop-opacity:1"/><stop offset="0.69" style="stop-color:#707070;stop-opacity:1"/><stop offset="0.85" style="stop-color:#636363;stop-opacity:1"/><stop offset="1" style="stop-color:#5e5e5e;stop-opacity:1"/></linearGradient><linearGradient id="_Linear3" x1="0" y1="0" x2="1" y2="0" gradientUnits="userSpaceOnUse" gradientTransform="matrix(145.007,0,0,145.007,52.5371,217.434)"><stop offset="0" style="stop-color:#fff;stop-opacity:0"/><stop offset="0.06" style="stop-color:#fff;stop-opacity:0.0941176"/><stop offset="0.58" style="stop-color:#fff;stop-opacity:1"/><stop offset="1" style="stop-color:#fff;stop-opacity:0"/></linearGradient><linearGradient id="_Linear4" x1="0" y1="0" x2="1" y2="0" gradientUnits="userSpaceOnUse" gradientTransform="matrix(150.215,0,0,150.215,49.9438,157.066)"><stop offset="0" style="stop-color:#2eb5f6;stop-opacity:1"/><stop offset="0.14" style="stop-color:#3d97de;stop-opacity:1"/><stop offset="0.28" style="stop-color:#28c0ff;stop-opacity:1"/><stop offset="0.51" style="stop-color:#3d97de;stop-opacity:1"/><stop offset="0.72" style="stop-color:#49c0f0;stop-opacity:1"/><stop offset="0.87" style="stop-color:#3d97de;stop-opacity:1"/><stop offset="1" style="stop-color:#45b1ea;stop-opacity:1"/></linearGradient><linearGradient id="_Linear5" x1="0" y1="0" x2="1" y2="0" gradientUnits="userSpaceOnUse" gradientTransform="matrix(156.866,0,0,156.866,46.6185,139.862)"><stop offset="0" style="stop-color:#e6e6e6;stop-opacity:1"/><stop offset="0.03" style="stop-color:#e1e1e1;stop-opacity:1"/><stop offset="0.22" style="stop-color:#ccc;stop-opacity:1"/><stop offset="0.43" style="stop-color:#bcbcbc;stop-opacity:1"/><stop offset="0.66" style="stop-color:#b3b3b3;stop-opacity:1"/><stop offset="1" style="stop-color:#b0b0b0;stop-opacity:1"/></linearGradient><linearGradient id="_Linear6" x1="0" y1="0" x2="1" y2="0" gradientUnits="userSpaceOnUse" gradientTransform="matrix(-3.07217e-05,-114.899,114.899,-3.07217e-05,124.975,195.468)"><stop offset="0" style="stop-color:#e6e6e6;stop-opacity:1"/><stop offset="1" style="stop-color:#a6a6a6;stop-opacity:1"/></linearGradient><linearGradient id="_Linear7" x1="0" y1="0" x2="1" y2="0" gradientUnits="userSpaceOnUse" gradientTransform="matrix(145.007,0,0,145.007,52.5371,195.315)"><stop offset="0" style="stop-color:#fff;stop-opacity:0"/><stop offset="0.06" style="stop-color:#fff;stop-opacity:0.0941176"/><stop offset="0.58" style="stop-color:#fff;stop-opacity:1"/><stop offset="1" style="stop-color:#fff;stop-opacity:0"/></linearGradient><linearGradient id="_Linear8" x1="0" y1="0" x2="1" y2="0" gradientUnits="userSpaceOnUse" gradientTransform="matrix(3.83784e-16,-6.26766,6.26766,3.83784e-16,125.08,212.144)"><stop offset="0" style="stop-color:#fff;stop-opacity:0.24"/><stop offset="0.71" style="stop-color:#fff;stop-opacity:0"/><stop offset="1" style="stop-color:#fff;stop-opacity:0"/></linearGradient><linearGradient id="_Linear9" x1="0" y1="0" x2="1" y2="0" gradientUnits="userSpaceOnUse" gradientTransform="matrix(5.54943e-16,-9.06291,9.06291,5.54943e-16,125.138,205.796)"><stop offset="0" style="stop-color:#000;stop-opacity:0"/><stop offset="0.14" style="stop-color:#000204;stop-opacity:0.0329412"/><stop offset="0.29" style="stop-color:#000711;stop-opacity:0.0696471"/><stop offset="0.45" style="stop-color:#001027;stop-opacity:0.107294"/><stop offset="0.61" style="stop-color:#001c45;stop-opacity:0.144941"/><stop offset="0.77" style="stop-color:#002c6b;stop-opacity:0.183529"/><stop offset="0.93" style="stop-color:#003f9a;stop-opacity:0.222118"/><stop offset="1" style="stop-color:#0049b1;stop-opacity:0.24"/></linearGradient><linearGradient id="_Linear10" x1="0" y1="0" x2="1" y2="0" gradientUnits="userSpaceOnUse" gradientTransform="matrix(6.49565,0,0,6.49565,49.9681,204.396)"><stop offset="0" style="stop-color:#fff;stop-opacity:0"/><stop offset="0.04" style="stop-color:#fff;stop-opacity:0.0352941"/><stop offset="0.29" style="stop-color:#fff;stop-opacity:0.258824"/><stop offset="0.77" style="stop-color:#fff;stop-opacity:0"/><stop offset="1" style="stop-color:#fff;stop-opacity:0"/></linearGradient><radialGradient id="_Radial11" cx="0" cy="0" r="1" gradientUnits="userSpaceOnUse" gradientTransform="matrix(67.3085,0,0,67.3085,125.856,170.287)"><stop offset="0" style="stop-color:#fafafa;stop-opacity:1"/><stop offset="0.05" style="stop-color:#fafafa;stop-opacity:0.94902"/><stop offset="1" style="stop-color:#fff;stop-opacity:0"/></radialGradient><linearGradient id="_Linear12" x1="0" y1="0" x2="1" y2="0" gradientUnits="userSpaceOnUse" gradientTransform="matrix(120.299,0,0,120.299,65.2628,135.496)"><stop offset="0" style="stop-color:#e3e3e3;stop-opacity:1"/><stop offset="1" style="stop-color:#bfbfbf;stop-opacity:1"/></linearGradient><linearGradient id="_Linear13" x1="0" y1="0" x2="1" y2="0" gradientUnits="userSpaceOnUse" gradientTransform="matrix(-6.49565,7.95488e-16,-7.95488e-16,-6.49565,200.241,204.396)"><stop offset="0" style="stop-color:#fff;stop-opacity:0"/><stop offset="0.04" style="stop-color:#fff;stop-opacity:0.0352941"/><stop offset="0.29" style="stop-color:#fff;stop-opacity:0.258824"/><stop offset="0.84" style="stop-color:#fff;stop-opacity:0"/><stop offset="1" style="stop-color:#fff;stop-opacity:0"/></linearGradient><linearGradient id="_Linear14" x1="0" y1="0" x2="1" y2="0" gradientUnits="userSpaceOnUse" gradientTransform="matrix(2.63369e-16,-4.30114,4.30114,2.63369e-16,55.7629,190.86)"><stop offset="0" style="stop-color:#f0f0f0;stop-opacity:1"/><stop offset="0.44" style="stop-color:#ededed;stop-opacity:1"/><stop offset="0.71" style="stop-color:#e4e4e4;stop-opacity:1"/><stop offset="0.95" style="stop-color:#d6d6d6;stop-opacity:1"/><stop offset="1" style="stop-color:#d1d1d1;stop-opacity:1"/></linearGradient><radialGradient id="_Radial15" cx="0" cy="0" r="1" gradientUnits="userSpaceOnUse" gradientTransform="matrix(2.51129,0,0,1.89753,55.7629,188.71)"><stop offset="0" style="stop-color:#e3e3e3;stop-opacity:1"/><stop offset="0.52" style="stop-color:#e0e0e0;stop-opacity:1"/><stop offset="0.86" style="stop-color:#d8d8d8;stop-opacity:1"/><stop offset="1" style="stop-color:#d1d1d1;stop-opacity:1"/></radialGradient><linearGradient id="_Linear16" x1="0" y1="0" x2="1" y2="0" gradientUnits="userSpaceOnUse" gradientTransform="matrix(2.63369e-16,-4.30114,4.30114,2.63369e-16,194.625,190.86)"><stop offset="0" style="stop-color:#f0f0f0;stop-opacity:1"/><stop offset="0.44" style="stop-color:#ededed;stop-opacity:1"/><stop offset="0.71" style="stop-color:#e4e4e4;stop-opacity:1"/><stop offset="0.95" style="stop-color:#d6d6d6;stop-opacity:1"/><stop offset="1" style="stop-color:#d1d1d1;stop-opacity:1"/></linearGradient><radialGradient id="_Radial17" cx="0" cy="0" r="1" gradientUnits="userSpaceOnUse" gradientTransform="matrix(2.51129,0,0,1.89753,194.625,188.71)"><stop offset="0" style="stop-color:#e3e3e3;stop-opacity:1"/><stop offset="0.52" style="stop-color:#e0e0e0;stop-opacity:1"/><stop offset="0.86" style="stop-color:#d8d8d8;stop-opacity:1"/><stop offset="1" style="stop-color:#d1d1d1;stop-opacity:1"/></radialGradient><linearGradient id="_Linear18" x1="0" y1="0" x2="1" y2="0" gradientUnits="userSpaceOnUse" gradientTransform="matrix(2.63367e-16,-4.30111,4.30111,2.63367e-16,65.2866,89.1708)"><stop offset="0" style="stop-color:#bfbfbf;stop-opacity:1"/><stop offset="1" style="stop-color:#a6a6a6;stop-opacity:1"/></linearGradient><linearGradient id="_Linear19" x1="0" y1="0" x2="1" y2="0" gradientUnits="userSpaceOnUse" gradientTransform="matrix(2.32353e-16,-3.79461,3.79461,2.32353e-16,65.2866,88.9179)"><stop offset="0" style="stop-color:#cfcfcf;stop-opacity:1"/><stop offset="1" style="stop-color:#a6a6a6;stop-opacity:1"/></linearGradient><linearGradient id="_Linear20" x1="0" y1="0" x2="1" y2="0" gradientUnits="userSpaceOnUse" gradientTransform="matrix(2.63367e-16,-4.30111,4.30111,2.63367e-16,184.487,89.1708)"><stop offset="0" style="stop-color:#bfbfbf;stop-opacity:1"/><stop offset="1" style="stop-color:#a6a6a6;stop-opacity:1"/></linearGradient><linearGradient id="_Linear21" x1="0" y1="0" x2="1" y2="0" gradientUnits="userSpaceOnUse" gradientTransform="matrix(2.32353e-16,-3.79461,3.79461,2.32353e-16,184.487,88.9179)"><stop offset="0" style="stop-color:#cfcfcf;stop-opacity:1"/><stop offset="1" style="stop-color:#a6a6a6;stop-opacity:1"/></linearGradient><linearGradient id="_Linear22" x1="0" y1="0" x2="1" y2="0" gradientUnits="userSpaceOnUse" gradientTransform="matrix(13.0334,73.9161,-73.9161,13.0334,117.833,102.509)"><stop offset="0" style="stop-color:#fff;stop-opacity:1"/><stop offset="1" style="stop-color:#bfbfbf;stop-opacity:1"/></linearGradient><linearGradient id="_Linear23" x1="0" y1="0" x2="1" y2="0" gradientUnits="userSpaceOnUse" gradientTransform="matrix(-1.17867,67.5249,-67.5249,-1.17867,126.193,101.471)"><stop offset="0" style="stop-color:#fff;stop-opacity:1"/><stop offset="0.52" style="stop-color:#fdfdfd;stop-opacity:1"/><stop offset="0.79" style="stop-color:#f5f5f5;stop-opacity:1"/><stop offset="1" style="stop-color:#e8e8e8;stop-opacity:1"/></linearGradient></defs></svg>