<?xml version="1.0" encoding="UTF-8" standalone="no"?><!DOCTYPE svg PUBLIC "-//W3C//DTD SVG 1.1//EN" "http://www.w3.org/Graphics/SVG/1.1/DTD/svg11.dtd"><svg width="100%" height="100%" viewBox="0 0 1280 800" version="1.1" xmlns="http://www.w3.org/2000/svg" xmlns:xlink="http://www.w3.org/1999/xlink" xml:space="preserve" xmlns:serif="http://www.serif.com/" style="fill-rule:evenodd;clip-rule:evenodd;stroke-linejoin:round;stroke-miterlimit:1.41421;"><g><rect x="309" y="521" width="662" height="179"/><g><g><path d="M401.79,646.283l0,-17.595c2.783,0 4.775,-0.372 5.976,-1.115c1.202,-0.743 1.802,-2.142 1.802,-4.197l0,-23.997c0,-2.087 -0.6,-3.502 -1.802,-4.245c-1.201,-0.743 -3.193,-1.114 -5.976,-1.114l0,-17.595l65.638,0l0,26.843l-16.599,0c0,-1.961 -0.095,-3.534 -0.285,-4.719c-0.19,-1.186 -0.545,-2.119 -1.067,-2.798c-0.522,-0.68 -1.217,-1.139 -2.087,-1.376c-0.869,-0.237 -1.952,-0.355 -3.248,-0.355l-6.593,0l0,13.706l15.129,0l0,8.347l-15.129,0l0,7.303c0,1.676 0.419,2.98 1.257,3.913c0.838,0.932 2.364,1.399 4.577,1.399l4.837,0l0,17.595l-46.43,0Z" style="fill:#fff;fill-rule:nonzero;"/><path d="M507.309,576.425l0,47.141c0,2.118 0.521,3.501 1.565,4.15c1.043,0.648 2.371,0.972 3.983,0.972l1.281,0l0,17.595l-39.932,0l0,-17.595l1.849,0c1.676,0 2.917,-0.53 3.723,-1.589c0.806,-1.059 1.209,-2.205 1.209,-3.438l0,-24.282c0,-1.834 -0.577,-3.186 -1.731,-4.055c-1.154,-0.87 -2.49,-1.304 -4.007,-1.304l-1.043,0l0,-17.595l33.103,0Z" style="fill:#fff;fill-rule:nonzero;"/><path d="M544.356,600.612c-1.612,0 -2.995,0.118 -4.149,0.355c-1.155,0.238 -2.143,0.514 -2.965,0.83c-0.822,0.317 -1.501,0.672 -2.039,1.067c-0.537,0.396 -1.012,0.751 -1.423,1.068l0.475,0.474c0.6,-0.316 1.256,-0.633 1.968,-0.949c0.711,-0.316 1.62,-0.474 2.727,-0.474c1.865,0 3.478,0.609 4.837,1.826c1.36,1.217 2.039,3.154 2.039,5.81c0,2.529 -1.035,4.56 -3.106,6.094c-2.071,1.533 -4.845,2.3 -8.323,2.3c-3.32,0 -5.968,-0.957 -7.944,-2.869c-1.976,-1.913 -2.964,-4.624 -2.964,-8.134c0,-1.928 0.537,-3.849 1.612,-5.762c1.075,-1.913 2.743,-3.628 5.004,-5.146c2.26,-1.517 5.138,-2.766 8.631,-3.746c3.494,-0.981 7.707,-1.471 12.639,-1.471c5.881,0 10.687,0.554 14.418,1.66c3.731,1.107 6.631,2.53 8.702,4.269c2.071,1.739 3.494,3.715 4.269,5.928c0.774,2.213 1.162,4.442 1.162,6.687l0,18.543c0,2.877 0.094,4.83 0.284,5.857c0.19,1.028 0.901,1.542 2.134,1.542c0.98,0 1.668,-0.467 2.063,-1.399c0.396,-0.933 0.593,-2.538 0.593,-4.814l0,-5.928l5.407,0l0,6.023c0,2.845 -0.237,5.367 -0.712,7.564c-0.474,2.198 -1.375,4.079 -2.703,5.644c-1.328,1.565 -3.13,2.751 -5.407,3.557c-2.276,0.806 -5.185,1.209 -8.726,1.209c-3.193,0 -5.841,-0.34 -7.944,-1.019c-2.102,-0.68 -3.77,-1.526 -5.003,-2.538c-1.233,-1.012 -2.111,-2.063 -2.632,-3.154c-0.522,-1.09 -0.783,-2.063 -0.783,-2.916l-0.759,0c-0.189,1.296 -0.735,2.529 -1.636,3.699c-0.901,1.17 -2.15,2.205 -3.746,3.106c-1.597,0.901 -3.51,1.629 -5.739,2.182c-2.229,0.553 -4.766,0.83 -7.612,0.83c-2.719,0 -5.193,-0.261 -7.422,-0.783c-2.229,-0.521 -4.126,-1.343 -5.691,-2.466c-1.565,-1.122 -2.782,-2.577 -3.652,-4.363c-0.869,-1.786 -1.304,-3.913 -1.304,-6.379c0,-3.035 0.854,-5.43 2.561,-7.185c1.707,-1.754 3.857,-3.146 6.45,-4.173c2.593,-1.028 5.414,-1.866 8.465,-2.514c3.052,-0.648 5.873,-1.43 8.466,-2.347c2.593,-0.917 4.743,-2.103 6.45,-3.557c1.707,-1.455 2.561,-3.51 2.561,-6.166c0,-2.371 -0.743,-4.276 -2.229,-5.714c-1.486,-1.439 -3.921,-2.158 -7.304,-2.158Zm9.533,20.535c-0.696,1.012 -1.565,1.826 -2.609,2.442c-1.043,0.617 -2.047,1.218 -3.011,1.803c-0.964,0.585 -1.802,1.28 -2.514,2.086c-0.711,0.807 -1.067,1.89 -1.067,3.249c0,1.043 0.285,1.984 0.854,2.822c0.569,0.838 1.676,1.257 3.32,1.257c1.486,0 2.695,-0.577 3.628,-1.731c0.932,-1.154 1.399,-2.775 1.399,-4.861l0,-7.067Z" style="fill:#fff;fill-rule:nonzero;"/><path d="M623.79,576.425l0,17.595l14.181,0l0,17.595l-14.181,0l0,14.559c0,2.087 0.293,3.794 0.878,5.122c0.585,1.328 1.794,1.992 3.628,1.992c1.011,0 1.826,-0.198 2.442,-0.593c0.617,-0.395 1.107,-0.917 1.47,-1.565c0.364,-0.648 0.593,-1.391 0.688,-2.229c0.095,-0.838 0.142,-1.747 0.142,-2.727l0,-7.066l5.454,0l0,7.635c0,3.067 -0.324,5.929 -0.972,8.584c-0.648,2.656 -1.755,4.948 -3.32,6.877c-1.565,1.929 -3.691,3.462 -6.379,4.6c-2.687,1.139 -6.07,1.708 -10.149,1.708c-4.521,0 -8.125,-0.554 -10.813,-1.66c-2.687,-1.107 -4.726,-2.624 -6.118,-4.553c-1.391,-1.929 -2.3,-4.221 -2.727,-6.877c-0.426,-2.656 -0.64,-5.549 -0.64,-8.679l0,-15.128l-7.446,0l0,-15.651c2.372,0 4.577,-0.514 6.616,-1.541c2.04,-1.028 3.794,-2.451 5.264,-4.269c1.471,-1.818 2.609,-3.896 3.415,-6.236c0.806,-2.34 1.209,-4.838 1.209,-7.493l17.358,0Z" style="fill:#fff;fill-rule:nonzero;"/><path d="M641.385,646.283l0,-17.595c2.783,0 4.774,-0.372 5.976,-1.115c1.201,-0.743 1.802,-2.142 1.802,-4.197l0,-23.997c0,-2.087 -0.601,-3.502 -1.802,-4.245c-1.202,-0.743 -3.193,-1.114 -5.976,-1.114l0,-17.595l65.637,0l0,26.843l-16.599,0c0,-1.961 -0.094,-3.534 -0.284,-4.719c-0.19,-1.186 -0.546,-2.119 -1.067,-2.798c-0.522,-0.68 -1.217,-1.139 -2.087,-1.376c-0.869,-0.237 -1.952,-0.355 -3.249,-0.355l-6.592,0l0,13.706l15.129,0l0,8.347l-15.129,0l0,7.303c0,1.676 0.419,2.98 1.257,3.913c0.838,0.932 2.363,1.399 4.577,1.399l4.837,0l0,17.595l-46.43,0Z" style="fill:#fff;fill-rule:nonzero;"/><path d="M746.903,594.02l0,29.546c0,2.118 0.522,3.501 1.565,4.15c1.044,0.648 2.372,0.972 3.984,0.972l1.281,0l0,17.595l-39.933,0l0,-17.595l1.85,0c1.676,0 2.917,-0.53 3.723,-1.589c0.806,-1.059 1.209,-2.205 1.209,-3.438l0,-6.687c0,-1.834 -0.577,-3.186 -1.731,-4.055c-1.154,-0.87 -2.49,-1.304 -4.007,-1.304l-1.044,0l0,-17.595l33.103,0Zm-27.08,-11.667c0,-2.719 1.036,-5.043 3.107,-6.972c2.071,-1.928 5.019,-2.893 8.845,-2.893c3.889,0 6.884,0.965 8.987,2.893c2.102,1.929 3.154,4.253 3.154,6.972c0,2.782 -1.052,5.13 -3.154,7.043c-2.103,1.912 -5.098,2.869 -8.987,2.869c-3.826,0 -6.774,-0.957 -8.845,-2.869c-2.071,-1.913 -3.107,-4.261 -3.107,-7.043Z" style="fill:#fff;fill-rule:nonzero;"/><path d="M762.89,615.693c-0.664,-1.423 -1.431,-2.458 -2.3,-3.106c-0.87,-0.648 -2.506,-0.972 -4.909,-0.972l0,-17.595l38.083,0l0,17.595c-2.023,0 -3.328,0.292 -3.913,0.877c-0.584,0.585 -0.64,1.494 -0.166,2.727l5.122,14.56l0.712,0l5.406,-14.56c0.475,-1.17 0.419,-2.063 -0.166,-2.68c-0.585,-0.616 -1.889,-0.924 -3.912,-0.924l0,-17.595l26.416,0l0,17.595c-2.308,0 -3.936,0.308 -4.885,0.924c-0.948,0.617 -1.739,1.668 -2.371,3.154l-12.71,30.59l-27.697,0l-12.71,-30.59Z" style="fill:#fff;fill-rule:nonzero;"/></g><path d="M876.088,593.993c-0.429,1.435 -0.933,2.789 -1.513,4.062c-0.833,1.826 -2.075,3.386 -3.728,4.678c-1.653,1.292 -3.871,2.311 -6.654,3.057c-2.784,0.746 -6.338,1.118 -10.662,1.118c-2.535,0 -4.505,-0.062 -5.909,-0.186c-1.404,-0.124 -2.566,-0.298 -3.486,-0.522l0,4.958c0.473,-0.149 0.964,-0.273 1.473,-0.373c0.509,-0.099 1.106,-0.198 1.789,-0.298c0.684,-0.099 1.485,-0.174 2.405,-0.224c0.919,-0.049 2.013,-0.074 3.28,-0.074c4.772,0 8.78,0.522 12.023,1.566c3.243,1.043 5.828,2.466 7.754,4.268c1.926,1.802 3.299,3.89 4.119,6.263c0.82,2.373 1.231,4.877 1.231,7.512c0,2.709 -0.522,5.194 -1.566,7.455c-1.044,2.262 -2.647,4.232 -4.809,5.909c-2.162,1.678 -4.902,2.989 -8.22,3.933c-3.318,0.945 -7.263,1.417 -11.836,1.417c-7.68,0 -13.682,-1.336 -18.006,-4.008c-4.324,-2.671 -6.487,-6.455 -6.487,-11.351c0,-1.765 0.28,-3.312 0.839,-4.641c0.559,-1.33 1.299,-2.411 2.218,-3.244c0.92,-0.832 1.964,-1.454 3.132,-1.864c1.168,-0.41 2.336,-0.615 3.504,-0.615c2.908,0 5.07,0.609 6.486,1.827c1.417,1.218 2.125,2.796 2.125,4.734c0,1.939 -0.559,3.405 -1.677,4.399c-1.119,0.994 -2.436,1.715 -3.952,2.162c1.218,0.622 2.51,1.094 3.877,1.417c1.367,0.323 2.896,0.485 4.586,0.485c3.355,0 5.871,-0.889 7.549,-2.666c1.677,-1.777 2.516,-4.045 2.516,-6.803c0,-2.883 -0.926,-5.089 -2.777,-6.617c-1.852,-1.529 -4.356,-2.293 -7.512,-2.293c-2.088,0 -3.765,0.211 -5.033,0.634c-1.267,0.422 -2.211,0.77 -2.833,1.044l-9.32,0l0,-27.119l45.074,0Z" style="fill:#fff;fill-rule:nonzero;"/><g><path d="M836.097,581.659l0.015,0l3.598,-8.897l1.671,0l0,10.75l-1.094,0l0,-9.338l-0.03,0l-3.887,9.338l-0.577,0l-3.887,-9.338l-0.03,0l0,9.338l-1.094,0l0,-10.75l1.671,0l3.644,8.897Z" style="fill:#fff;fill-rule:nonzero;"/><path d="M848.198,583.785c-0.81,0 -1.473,-0.139 -1.989,-0.418c-0.516,-0.278 -0.926,-0.63 -1.23,-1.055c-0.303,-0.425 -0.513,-0.888 -0.63,-1.389c-0.116,-0.501 -0.175,-0.974 -0.175,-1.42l0,-6.741l1.094,0l0,6.62c0,0.435 0.05,0.858 0.152,1.268c0.101,0.409 0.265,0.774 0.493,1.093c0.228,0.319 0.529,0.577 0.903,0.774c0.375,0.198 0.836,0.296 1.382,0.296c0.547,0 1.007,-0.098 1.382,-0.296c0.374,-0.197 0.676,-0.455 0.903,-0.774c0.228,-0.319 0.393,-0.684 0.494,-1.093c0.101,-0.41 0.152,-0.833 0.152,-1.268l0,-6.62l1.093,0l0,6.741c0,0.446 -0.058,0.919 -0.175,1.42c-0.116,0.501 -0.326,0.964 -0.63,1.389c-0.304,0.425 -0.716,0.777 -1.237,1.055c-0.522,0.279 -1.182,0.418 -1.982,0.418Z" style="fill:#fff;fill-rule:nonzero;"/><path d="M860.224,574.493c-0.233,-0.324 -0.532,-0.585 -0.896,-0.782c-0.365,-0.198 -0.805,-0.297 -1.321,-0.297c-0.263,0 -0.532,0.041 -0.805,0.122c-0.273,0.081 -0.521,0.205 -0.744,0.372c-0.223,0.167 -0.402,0.377 -0.539,0.63c-0.137,0.253 -0.205,0.552 -0.205,0.896c0,0.344 0.066,0.628 0.197,0.85c0.132,0.223 0.307,0.413 0.524,0.57c0.218,0.156 0.466,0.286 0.744,0.387c0.279,0.101 0.57,0.202 0.873,0.303c0.375,0.122 0.752,0.254 1.132,0.395c0.379,0.142 0.721,0.327 1.024,0.554c0.304,0.228 0.552,0.517 0.744,0.866c0.193,0.349 0.289,0.792 0.289,1.328c0,0.537 -0.104,1 -0.311,1.39c-0.208,0.39 -0.476,0.711 -0.805,0.964c-0.329,0.253 -0.704,0.44 -1.124,0.562c-0.42,0.121 -0.842,0.182 -1.267,0.182c-0.324,0 -0.648,-0.033 -0.972,-0.099c-0.324,-0.066 -0.633,-0.164 -0.926,-0.296c-0.294,-0.131 -0.567,-0.298 -0.82,-0.501c-0.253,-0.202 -0.476,-0.435 -0.668,-0.698l0.941,-0.699c0.233,0.385 0.559,0.706 0.979,0.964c0.42,0.259 0.914,0.388 1.481,0.388c0.273,0 0.551,-0.043 0.835,-0.129c0.283,-0.087 0.539,-0.218 0.767,-0.395c0.227,-0.177 0.415,-0.395 0.561,-0.653c0.147,-0.258 0.221,-0.559 0.221,-0.904c0,-0.374 -0.074,-0.685 -0.221,-0.933c-0.146,-0.248 -0.341,-0.456 -0.584,-0.623c-0.243,-0.167 -0.521,-0.306 -0.835,-0.417c-0.314,-0.112 -0.643,-0.223 -0.987,-0.335c-0.354,-0.111 -0.704,-0.237 -1.048,-0.379c-0.344,-0.142 -0.653,-0.327 -0.926,-0.554c-0.273,-0.228 -0.494,-0.509 -0.661,-0.843c-0.167,-0.334 -0.25,-0.744 -0.25,-1.23c0,-0.516 0.104,-0.962 0.311,-1.336c0.208,-0.375 0.478,-0.683 0.812,-0.926c0.335,-0.243 0.704,-0.42 1.109,-0.532c0.405,-0.111 0.805,-0.167 1.199,-0.167c0.729,0 1.352,0.129 1.868,0.387c0.516,0.259 0.906,0.565 1.169,0.919l-0.865,0.699Z" style="fill:#fff;fill-rule:nonzero;"/><rect x="863.579" y="572.762" width="1.093" height="10.75" style="fill:#fff;fill-rule:nonzero;"/><path d="M876.577,581.781c-0.183,0.273 -0.403,0.531 -0.661,0.774c-0.258,0.243 -0.557,0.456 -0.896,0.638c-0.339,0.182 -0.713,0.326 -1.123,0.433c-0.41,0.106 -0.858,0.159 -1.344,0.159c-0.81,0 -1.559,-0.142 -2.247,-0.425c-0.689,-0.284 -1.281,-0.676 -1.777,-1.177c-0.496,-0.501 -0.883,-1.096 -1.161,-1.784c-0.279,-0.688 -0.418,-1.442 -0.418,-2.262c0,-0.82 0.142,-1.574 0.425,-2.263c0.284,-0.688 0.676,-1.283 1.177,-1.784c0.501,-0.501 1.093,-0.893 1.776,-1.177c0.684,-0.283 1.425,-0.425 2.225,-0.425c0.395,0 0.782,0.041 1.161,0.122c0.38,0.081 0.737,0.195 1.071,0.341c0.334,0.147 0.638,0.324 0.911,0.532c0.273,0.207 0.501,0.443 0.683,0.706l-0.911,0.668c-0.111,-0.172 -0.261,-0.344 -0.448,-0.516c-0.187,-0.172 -0.407,-0.324 -0.66,-0.456c-0.253,-0.131 -0.529,-0.238 -0.828,-0.319c-0.298,-0.081 -0.62,-0.121 -0.964,-0.121c-0.698,0 -1.323,0.126 -1.875,0.379c-0.552,0.254 -1.02,0.595 -1.405,1.025c-0.384,0.431 -0.678,0.929 -0.88,1.496c-0.203,0.567 -0.304,1.164 -0.304,1.792c0,0.627 0.104,1.224 0.311,1.791c0.208,0.567 0.504,1.066 0.889,1.496c0.384,0.43 0.852,0.772 1.404,1.025c0.552,0.253 1.172,0.379 1.86,0.379c0.617,0 1.205,-0.126 1.761,-0.379c0.557,-0.253 1.023,-0.658 1.397,-1.215l0.851,0.547Z" style="fill:#fff;fill-rule:nonzero;"/></g></g></g><g><g><path d="M401.79,219l0,-17.595c2.783,0 4.775,-0.371 5.976,-1.114c1.202,-0.743 1.802,-2.143 1.802,-4.198l0,-23.997c0,-2.087 -0.6,-3.502 -1.802,-4.245c-1.201,-0.743 -3.193,-1.114 -5.976,-1.114l0,-17.595l65.638,0l0,26.843l-16.599,0c0,-1.96 -0.095,-3.533 -0.285,-4.719c-0.19,-1.186 -0.545,-2.118 -1.067,-2.798c-0.522,-0.68 -1.217,-1.138 -2.087,-1.375c-0.869,-0.238 -1.952,-0.356 -3.248,-0.356l-6.593,0l0,13.706l15.129,0l0,8.347l-15.129,0l0,7.303c0,1.676 0.419,2.98 1.257,3.913c0.838,0.933 2.364,1.399 4.577,1.399l4.837,0l0,17.595l-46.43,0Z" style="fill-rule:nonzero;"/><path d="M507.309,149.142l0,47.141c0,2.118 0.521,3.502 1.565,4.15c1.043,0.648 2.371,0.972 3.983,0.972l1.281,0l0,17.595l-39.932,0l0,-17.595l1.849,0c1.676,0 2.917,-0.53 3.723,-1.589c0.806,-1.059 1.209,-2.205 1.209,-3.438l0,-24.282c0,-1.834 -0.577,-3.185 -1.731,-4.055c-1.154,-0.869 -2.49,-1.304 -4.007,-1.304l-1.043,0l0,-17.595l33.103,0Z" style="fill-rule:nonzero;"/><path d="M544.356,173.329c-1.612,0 -2.995,0.119 -4.149,0.356c-1.155,0.237 -2.143,0.514 -2.965,0.83c-0.822,0.316 -1.501,0.672 -2.039,1.067c-0.537,0.395 -1.012,0.751 -1.423,1.067l0.475,0.474c0.6,-0.316 1.256,-0.632 1.968,-0.948c0.711,-0.317 1.62,-0.475 2.727,-0.475c1.865,0 3.478,0.609 4.837,1.826c1.36,1.217 2.039,3.154 2.039,5.81c0,2.529 -1.035,4.561 -3.106,6.094c-2.071,1.533 -4.845,2.3 -8.323,2.3c-3.32,0 -5.968,-0.956 -7.944,-2.869c-1.976,-1.913 -2.964,-4.624 -2.964,-8.134c0,-1.928 0.537,-3.849 1.612,-5.762c1.075,-1.913 2.743,-3.628 5.004,-5.145c2.26,-1.518 5.138,-2.767 8.631,-3.747c3.494,-0.98 7.707,-1.47 12.639,-1.47c5.881,0 10.687,0.553 14.418,1.66c3.731,1.106 6.631,2.529 8.702,4.268c2.071,1.739 3.494,3.715 4.269,5.928c0.774,2.213 1.162,4.442 1.162,6.687l0,18.544c0,2.877 0.094,4.829 0.284,5.857c0.19,1.027 0.901,1.541 2.134,1.541c0.98,0 1.668,-0.466 2.063,-1.399c0.396,-0.933 0.593,-2.537 0.593,-4.814l0,-5.928l5.407,0l0,6.023c0,2.846 -0.237,5.367 -0.712,7.565c-0.474,2.197 -1.375,4.078 -2.703,5.643c-1.328,1.565 -3.13,2.751 -5.407,3.557c-2.276,0.806 -5.185,1.209 -8.726,1.209c-3.193,0 -5.841,-0.339 -7.944,-1.019c-2.102,-0.68 -3.77,-1.526 -5.003,-2.537c-1.233,-1.012 -2.111,-2.063 -2.632,-3.154c-0.522,-1.091 -0.783,-2.063 -0.783,-2.917l-0.759,0c-0.189,1.296 -0.735,2.529 -1.636,3.699c-0.901,1.17 -2.15,2.206 -3.746,3.107c-1.597,0.901 -3.51,1.628 -5.739,2.181c-2.229,0.554 -4.766,0.83 -7.612,0.83c-2.719,0 -5.193,-0.261 -7.422,-0.782c-2.229,-0.522 -4.126,-1.344 -5.691,-2.467c-1.565,-1.122 -2.782,-2.576 -3.652,-4.363c-0.869,-1.786 -1.304,-3.912 -1.304,-6.378c0,-3.036 0.854,-5.431 2.561,-7.185c1.707,-1.755 3.857,-3.146 6.45,-4.174c2.593,-1.027 5.414,-1.865 8.465,-2.513c3.052,-0.649 5.873,-1.431 8.466,-2.348c2.593,-0.917 4.743,-2.103 6.45,-3.557c1.707,-1.454 2.561,-3.509 2.561,-6.165c0,-2.372 -0.743,-4.277 -2.229,-5.715c-1.486,-1.439 -3.921,-2.158 -7.304,-2.158Zm9.533,20.535c-0.696,1.012 -1.565,1.826 -2.609,2.443c-1.043,0.616 -2.047,1.217 -3.011,1.802c-0.964,0.585 -1.802,1.28 -2.514,2.087c-0.711,0.806 -1.067,1.889 -1.067,3.248c0,1.044 0.285,1.984 0.854,2.822c0.569,0.838 1.676,1.257 3.32,1.257c1.486,0 2.695,-0.577 3.628,-1.731c0.932,-1.154 1.399,-2.774 1.399,-4.861l0,-7.067Z" style="fill-rule:nonzero;"/><path d="M623.79,149.142l0,17.595l14.181,0l0,17.595l-14.181,0l0,14.559c0,2.087 0.293,3.795 0.878,5.122c0.585,1.328 1.794,1.992 3.628,1.992c1.011,0 1.826,-0.197 2.442,-0.592c0.617,-0.396 1.107,-0.917 1.47,-1.566c0.364,-0.648 0.593,-1.391 0.688,-2.229c0.095,-0.837 0.142,-1.746 0.142,-2.727l0,-7.066l5.454,0l0,7.636c0,3.066 -0.324,5.928 -0.972,8.584c-0.648,2.655 -1.755,4.948 -3.32,6.876c-1.565,1.929 -3.691,3.462 -6.379,4.601c-2.687,1.138 -6.07,1.707 -10.149,1.707c-4.521,0 -8.125,-0.553 -10.813,-1.66c-2.687,-1.106 -4.726,-2.624 -6.118,-4.553c-1.391,-1.928 -2.3,-4.221 -2.727,-6.876c-0.426,-2.656 -0.64,-5.549 -0.64,-8.679l0,-15.129l-7.446,0l0,-15.651c2.372,0 4.577,-0.513 6.616,-1.541c2.04,-1.028 3.794,-2.45 5.264,-4.268c1.471,-1.818 2.609,-3.897 3.415,-6.237c0.806,-2.339 1.209,-4.837 1.209,-7.493l17.358,0Z" style="fill-rule:nonzero;"/><path d="M641.385,219l0,-17.595c2.783,0 4.774,-0.371 5.976,-1.114c1.201,-0.743 1.802,-2.143 1.802,-4.198l0,-23.997c0,-2.087 -0.601,-3.502 -1.802,-4.245c-1.202,-0.743 -3.193,-1.114 -5.976,-1.114l0,-17.595l65.637,0l0,26.843l-16.599,0c0,-1.96 -0.094,-3.533 -0.284,-4.719c-0.19,-1.186 -0.546,-2.118 -1.067,-2.798c-0.522,-0.68 -1.217,-1.138 -2.087,-1.375c-0.869,-0.238 -1.952,-0.356 -3.249,-0.356l-6.592,0l0,13.706l15.129,0l0,8.347l-15.129,0l0,7.303c0,1.676 0.419,2.98 1.257,3.913c0.838,0.933 2.363,1.399 4.577,1.399l4.837,0l0,17.595l-46.43,0Z" style="fill-rule:nonzero;"/><path d="M746.903,166.737l0,29.546c0,2.118 0.522,3.502 1.565,4.15c1.044,0.648 2.372,0.972 3.984,0.972l1.281,0l0,17.595l-39.933,0l0,-17.595l1.85,0c1.676,0 2.917,-0.53 3.723,-1.589c0.806,-1.059 1.209,-2.205 1.209,-3.438l0,-6.687c0,-1.834 -0.577,-3.186 -1.731,-4.055c-1.154,-0.869 -2.49,-1.304 -4.007,-1.304l-1.044,0l0,-17.595l33.103,0Zm-27.08,-11.667c0,-2.719 1.036,-5.043 3.107,-6.971c2.071,-1.929 5.019,-2.893 8.845,-2.893c3.889,0 6.884,0.964 8.987,2.893c2.102,1.928 3.154,4.252 3.154,6.971c0,2.782 -1.052,5.13 -3.154,7.043c-2.103,1.913 -5.098,2.869 -8.987,2.869c-3.826,0 -6.774,-0.956 -8.845,-2.869c-2.071,-1.913 -3.107,-4.261 -3.107,-7.043Z" style="fill-rule:nonzero;"/><path d="M762.89,188.41c-0.664,-1.422 -1.431,-2.458 -2.3,-3.106c-0.87,-0.648 -2.506,-0.972 -4.909,-0.972l0,-17.595l38.083,0l0,17.595c-2.023,0 -3.328,0.292 -3.913,0.877c-0.584,0.585 -0.64,1.494 -0.166,2.727l5.122,14.56l0.712,0l5.406,-14.56c0.475,-1.17 0.419,-2.063 -0.166,-2.679c-0.585,-0.617 -1.889,-0.925 -3.912,-0.925l0,-17.595l26.416,0l0,17.595c-2.308,0 -3.936,0.308 -4.885,0.925c-0.948,0.616 -1.739,1.667 -2.371,3.153l-12.71,30.59l-27.697,0l-12.71,-30.59Z" style="fill-rule:nonzero;"/></g><path d="M876.088,166.711c-0.429,1.435 -0.933,2.789 -1.513,4.061c-0.833,1.827 -2.075,3.386 -3.728,4.678c-1.653,1.293 -3.871,2.312 -6.654,3.057c-2.784,0.746 -6.338,1.119 -10.662,1.119c-2.535,0 -4.505,-0.062 -5.909,-0.187c-1.404,-0.124 -2.566,-0.298 -3.486,-0.522l0,4.958c0.473,-0.149 0.964,-0.273 1.473,-0.372c0.509,-0.1 1.106,-0.199 1.789,-0.299c0.684,-0.099 1.485,-0.174 2.405,-0.223c0.919,-0.05 2.013,-0.075 3.28,-0.075c4.772,0 8.78,0.522 12.023,1.566c3.243,1.044 5.828,2.467 7.754,4.268c1.926,1.802 3.299,3.89 4.119,6.263c0.82,2.374 1.231,4.878 1.231,7.512c0,2.709 -0.522,5.194 -1.566,7.456c-1.044,2.261 -2.647,4.231 -4.809,5.908c-2.162,1.678 -4.902,2.989 -8.22,3.933c-3.318,0.945 -7.263,1.417 -11.836,1.417c-7.68,0 -13.682,-1.336 -18.006,-4.007c-4.324,-2.672 -6.487,-6.456 -6.487,-11.352c0,-1.764 0.28,-3.312 0.839,-4.641c0.559,-1.33 1.299,-2.411 2.218,-3.243c0.92,-0.833 1.964,-1.454 3.132,-1.864c1.168,-0.41 2.336,-0.616 3.504,-0.616c2.908,0 5.07,0.609 6.486,1.827c1.417,1.218 2.125,2.796 2.125,4.735c0,1.938 -0.559,3.404 -1.677,4.399c-1.119,0.994 -2.436,1.714 -3.952,2.162c1.218,0.621 2.51,1.093 3.877,1.416c1.367,0.323 2.896,0.485 4.586,0.485c3.355,0 5.871,-0.889 7.549,-2.666c1.677,-1.776 2.516,-4.044 2.516,-6.803c0,-2.883 -0.926,-5.089 -2.777,-6.617c-1.852,-1.528 -4.356,-2.293 -7.512,-2.293c-2.088,0 -3.765,0.212 -5.033,0.634c-1.267,0.423 -2.211,0.77 -2.833,1.044l-9.32,0l0,-27.118l45.074,0Z" style="fill:#ee5537;fill-rule:nonzero;"/><g><path d="M836.097,154.377l0.015,0l3.598,-8.898l1.671,0l0,10.75l-1.094,0l0,-9.338l-0.03,0l-3.887,9.338l-0.577,0l-3.887,-9.338l-0.03,0l0,9.338l-1.094,0l0,-10.75l1.671,0l3.644,8.898Z" style="fill:#ee5537;fill-rule:nonzero;"/><path d="M848.198,156.502c-0.81,0 -1.473,-0.139 -1.989,-0.417c-0.516,-0.279 -0.926,-0.63 -1.23,-1.056c-0.303,-0.425 -0.513,-0.888 -0.63,-1.389c-0.116,-0.501 -0.175,-0.974 -0.175,-1.42l0,-6.741l1.094,0l0,6.62c0,0.435 0.05,0.858 0.152,1.268c0.101,0.41 0.265,0.774 0.493,1.093c0.228,0.319 0.529,0.577 0.903,0.774c0.375,0.198 0.836,0.296 1.382,0.296c0.547,0 1.007,-0.098 1.382,-0.296c0.374,-0.197 0.676,-0.455 0.903,-0.774c0.228,-0.319 0.393,-0.683 0.494,-1.093c0.101,-0.41 0.152,-0.833 0.152,-1.268l0,-6.62l1.093,0l0,6.741c0,0.446 -0.058,0.919 -0.175,1.42c-0.116,0.501 -0.326,0.964 -0.63,1.389c-0.304,0.426 -0.716,0.777 -1.237,1.056c-0.522,0.278 -1.182,0.417 -1.982,0.417Z" style="fill:#ee5537;fill-rule:nonzero;"/><path d="M860.224,147.21c-0.233,-0.324 -0.532,-0.585 -0.896,-0.782c-0.365,-0.198 -0.805,-0.296 -1.321,-0.296c-0.263,0 -0.532,0.04 -0.805,0.121c-0.273,0.081 -0.521,0.205 -0.744,0.372c-0.223,0.167 -0.402,0.377 -0.539,0.63c-0.137,0.253 -0.205,0.552 -0.205,0.896c0,0.344 0.066,0.628 0.197,0.851c0.132,0.222 0.307,0.412 0.524,0.569c0.218,0.157 0.466,0.286 0.744,0.387c0.279,0.101 0.57,0.203 0.873,0.304c0.375,0.121 0.752,0.253 1.132,0.395c0.379,0.141 0.721,0.326 1.024,0.554c0.304,0.227 0.552,0.516 0.744,0.865c0.193,0.349 0.289,0.792 0.289,1.329c0,0.536 -0.104,0.999 -0.311,1.389c-0.208,0.39 -0.476,0.711 -0.805,0.964c-0.329,0.253 -0.704,0.441 -1.124,0.562c-0.42,0.122 -0.842,0.182 -1.267,0.182c-0.324,0 -0.648,-0.033 -0.972,-0.098c-0.324,-0.066 -0.633,-0.165 -0.926,-0.297c-0.294,-0.131 -0.567,-0.298 -0.82,-0.501c-0.253,-0.202 -0.476,-0.435 -0.668,-0.698l0.941,-0.698c0.233,0.384 0.559,0.706 0.979,0.964c0.42,0.258 0.914,0.387 1.481,0.387c0.273,0 0.551,-0.043 0.835,-0.129c0.283,-0.086 0.539,-0.218 0.767,-0.395c0.227,-0.177 0.415,-0.395 0.561,-0.653c0.147,-0.258 0.221,-0.559 0.221,-0.903c0,-0.375 -0.074,-0.686 -0.221,-0.934c-0.146,-0.248 -0.341,-0.456 -0.584,-0.623c-0.243,-0.167 -0.521,-0.306 -0.835,-0.417c-0.314,-0.112 -0.643,-0.223 -0.987,-0.334c-0.354,-0.112 -0.704,-0.238 -1.048,-0.38c-0.344,-0.142 -0.653,-0.326 -0.926,-0.554c-0.273,-0.228 -0.494,-0.509 -0.661,-0.843c-0.167,-0.334 -0.25,-0.744 -0.25,-1.23c0,-0.516 0.104,-0.961 0.311,-1.336c0.208,-0.374 0.478,-0.683 0.812,-0.926c0.335,-0.243 0.704,-0.42 1.109,-0.531c0.405,-0.112 0.805,-0.167 1.199,-0.167c0.729,0 1.352,0.129 1.868,0.387c0.516,0.258 0.906,0.564 1.169,0.918l-0.865,0.699Z" style="fill:#ee5537;fill-rule:nonzero;"/><rect x="863.579" y="145.479" width="1.093" height="10.75" style="fill:#ee5537;fill-rule:nonzero;"/><path d="M876.577,154.498c-0.183,0.273 -0.403,0.531 -0.661,0.774c-0.258,0.243 -0.557,0.456 -0.896,0.638c-0.339,0.182 -0.713,0.327 -1.123,0.433c-0.41,0.106 -0.858,0.159 -1.344,0.159c-0.81,0 -1.559,-0.141 -2.247,-0.425c-0.689,-0.283 -1.281,-0.676 -1.777,-1.177c-0.496,-0.501 -0.883,-1.095 -1.161,-1.784c-0.279,-0.688 -0.418,-1.442 -0.418,-2.262c0,-0.82 0.142,-1.574 0.425,-2.262c0.284,-0.689 0.676,-1.283 1.177,-1.785c0.501,-0.501 1.093,-0.893 1.776,-1.176c0.684,-0.284 1.425,-0.425 2.225,-0.425c0.395,0 0.782,0.04 1.161,0.121c0.38,0.081 0.737,0.195 1.071,0.342c0.334,0.146 0.638,0.324 0.911,0.531c0.273,0.208 0.501,0.443 0.683,0.706l-0.911,0.668c-0.111,-0.172 -0.261,-0.344 -0.448,-0.516c-0.187,-0.172 -0.407,-0.324 -0.66,-0.456c-0.253,-0.131 -0.529,-0.237 -0.828,-0.318c-0.298,-0.081 -0.62,-0.122 -0.964,-0.122c-0.698,0 -1.323,0.127 -1.875,0.38c-0.552,0.253 -1.02,0.594 -1.405,1.025c-0.384,0.43 -0.678,0.928 -0.88,1.495c-0.203,0.567 -0.304,1.164 -0.304,1.792c0,0.628 0.104,1.225 0.311,1.792c0.208,0.566 0.504,1.065 0.889,1.495c0.384,0.43 0.852,0.772 1.404,1.025c0.552,0.253 1.172,0.38 1.86,0.38c0.617,0 1.205,-0.127 1.761,-0.38c0.557,-0.253 1.023,-0.658 1.397,-1.215l0.851,0.547Z" style="fill:#ee5537;fill-rule:nonzero;"/></g></g><g><g><g><path d="M401.79,406.897l0,-17.595c2.783,0 4.775,-0.371 5.976,-1.114c1.202,-0.743 1.802,-2.142 1.802,-4.197l0,-23.998c0,-2.087 -0.6,-3.501 -1.802,-4.244c-1.201,-0.743 -3.193,-1.115 -5.976,-1.115l0,-17.595l65.638,0l0,26.843l-16.599,0c0,-1.96 -0.095,-3.533 -0.285,-4.719c-0.19,-1.185 -0.545,-2.118 -1.067,-2.798c-0.522,-0.68 -1.217,-1.138 -2.087,-1.375c-0.869,-0.237 -1.952,-0.356 -3.248,-0.356l-6.593,0l0,13.706l15.129,0l0,8.347l-15.129,0l0,7.304c0,1.675 0.419,2.98 1.257,3.912c0.838,0.933 2.364,1.399 4.577,1.399l4.837,0l0,17.595l-46.43,0Z" style="fill:#ee5537;fill-rule:nonzero;"/><path d="M507.309,337.039l0,47.141c0,2.119 0.521,3.502 1.565,4.15c1.043,0.648 2.371,0.972 3.983,0.972l1.281,0l0,17.595l-39.932,0l0,-17.595l1.849,0c1.676,0 2.917,-0.529 3.723,-1.588c0.806,-1.06 1.209,-2.206 1.209,-3.439l0,-24.282c0,-1.834 -0.577,-3.185 -1.731,-4.055c-1.154,-0.869 -2.49,-1.304 -4.007,-1.304l-1.043,0l0,-17.595l33.103,0Z" style="fill:#ee5537;fill-rule:nonzero;"/><path d="M544.356,361.226c-1.612,0 -2.995,0.119 -4.149,0.356c-1.155,0.237 -2.143,0.514 -2.965,0.83c-0.822,0.316 -1.501,0.672 -2.039,1.067c-0.537,0.395 -1.012,0.751 -1.423,1.067l0.475,0.474c0.6,-0.316 1.256,-0.632 1.968,-0.948c0.711,-0.316 1.62,-0.474 2.727,-0.474c1.865,0 3.478,0.608 4.837,1.825c1.36,1.218 2.039,3.154 2.039,5.81c0,2.529 -1.035,4.561 -3.106,6.094c-2.071,1.534 -4.845,2.3 -8.323,2.3c-3.32,0 -5.968,-0.956 -7.944,-2.869c-1.976,-1.913 -2.964,-4.624 -2.964,-8.133c0,-1.929 0.537,-3.85 1.612,-5.763c1.075,-1.912 2.743,-3.628 5.004,-5.145c2.26,-1.518 5.138,-2.767 8.631,-3.747c3.494,-0.98 7.707,-1.47 12.639,-1.47c5.881,0 10.687,0.553 14.418,1.66c3.731,1.106 6.631,2.529 8.702,4.268c2.071,1.739 3.494,3.715 4.269,5.928c0.774,2.214 1.162,4.443 1.162,6.687l0,18.544c0,2.877 0.094,4.829 0.284,5.857c0.19,1.027 0.901,1.541 2.134,1.541c0.98,0 1.668,-0.466 2.063,-1.399c0.396,-0.933 0.593,-2.537 0.593,-4.814l0,-5.928l5.407,0l0,6.023c0,2.846 -0.237,5.367 -0.712,7.565c-0.474,2.197 -1.375,4.078 -2.703,5.643c-1.328,1.565 -3.13,2.751 -5.407,3.557c-2.276,0.807 -5.185,1.21 -8.726,1.21c-3.193,0 -5.841,-0.34 -7.944,-1.02c-2.102,-0.68 -3.77,-1.526 -5.003,-2.537c-1.233,-1.012 -2.111,-2.063 -2.632,-3.154c-0.522,-1.091 -0.783,-2.063 -0.783,-2.917l-0.759,0c-0.189,1.297 -0.735,2.53 -1.636,3.699c-0.901,1.17 -2.15,2.206 -3.746,3.107c-1.597,0.901 -3.51,1.628 -5.739,2.181c-2.229,0.554 -4.766,0.83 -7.612,0.83c-2.719,0 -5.193,-0.26 -7.422,-0.782c-2.229,-0.522 -4.126,-1.344 -5.691,-2.466c-1.565,-1.123 -2.782,-2.577 -3.652,-4.363c-0.869,-1.787 -1.304,-3.913 -1.304,-6.379c0,-3.035 0.854,-5.43 2.561,-7.185c1.707,-1.755 3.857,-3.146 6.45,-4.174c2.593,-1.027 5.414,-1.865 8.465,-2.513c3.052,-0.648 5.873,-1.431 8.466,-2.348c2.593,-0.917 4.743,-2.102 6.45,-3.557c1.707,-1.454 2.561,-3.509 2.561,-6.165c0,-2.371 -0.743,-4.276 -2.229,-5.715c-1.486,-1.438 -3.921,-2.158 -7.304,-2.158Zm9.533,20.536c-0.696,1.011 -1.565,1.825 -2.609,2.442c-1.043,0.617 -2.047,1.217 -3.011,1.802c-0.964,0.585 -1.802,1.281 -2.514,2.087c-0.711,0.806 -1.067,1.889 -1.067,3.249c0,1.043 0.285,1.984 0.854,2.821c0.569,0.838 1.676,1.257 3.32,1.257c1.486,0 2.695,-0.577 3.628,-1.731c0.932,-1.154 1.399,-2.774 1.399,-4.861l0,-7.066Z" style="fill:#ee5537;fill-rule:nonzero;"/><path d="M623.79,337.039l0,17.595l14.181,0l0,17.595l-14.181,0l0,14.56c0,2.086 0.293,3.794 0.878,5.122c0.585,1.328 1.794,1.992 3.628,1.992c1.011,0 1.826,-0.198 2.442,-0.593c0.617,-0.395 1.107,-0.917 1.47,-1.565c0.364,-0.648 0.593,-1.391 0.688,-2.229c0.095,-0.838 0.142,-1.747 0.142,-2.727l0,-7.067l5.454,0l0,7.636c0,3.067 -0.324,5.928 -0.972,8.584c-0.648,2.656 -1.755,4.948 -3.32,6.877c-1.565,1.928 -3.691,3.462 -6.379,4.6c-2.687,1.138 -6.07,1.707 -10.149,1.707c-4.521,0 -8.125,-0.553 -10.813,-1.66c-2.687,-1.106 -4.726,-2.624 -6.118,-4.553c-1.391,-1.928 -2.3,-4.22 -2.727,-6.876c-0.426,-2.656 -0.64,-5.549 -0.64,-8.679l0,-15.129l-7.446,0l0,-15.65c2.372,0 4.577,-0.514 6.616,-1.542c2.04,-1.027 3.794,-2.45 5.264,-4.268c1.471,-1.818 2.609,-3.897 3.415,-6.237c0.806,-2.339 1.209,-4.837 1.209,-7.493l17.358,0Z" style="fill:#ee5537;fill-rule:nonzero;"/><path d="M641.385,406.897l0,-17.595c2.783,0 4.774,-0.371 5.976,-1.114c1.201,-0.743 1.802,-2.142 1.802,-4.197l0,-23.998c0,-2.087 -0.601,-3.501 -1.802,-4.244c-1.202,-0.743 -3.193,-1.115 -5.976,-1.115l0,-17.595l65.637,0l0,26.843l-16.599,0c0,-1.96 -0.094,-3.533 -0.284,-4.719c-0.19,-1.185 -0.546,-2.118 -1.067,-2.798c-0.522,-0.68 -1.217,-1.138 -2.087,-1.375c-0.869,-0.237 -1.952,-0.356 -3.249,-0.356l-6.592,0l0,13.706l15.129,0l0,8.347l-15.129,0l0,7.304c0,1.675 0.419,2.98 1.257,3.912c0.838,0.933 2.363,1.399 4.577,1.399l4.837,0l0,17.595l-46.43,0Z" style="fill:#ee5537;fill-rule:nonzero;"/><path d="M746.903,354.634l0,29.546c0,2.119 0.522,3.502 1.565,4.15c1.044,0.648 2.372,0.972 3.984,0.972l1.281,0l0,17.595l-39.933,0l0,-17.595l1.85,0c1.676,0 2.917,-0.529 3.723,-1.588c0.806,-1.06 1.209,-2.206 1.209,-3.439l0,-6.687c0,-1.834 -0.577,-3.185 -1.731,-4.055c-1.154,-0.869 -2.49,-1.304 -4.007,-1.304l-1.044,0l0,-17.595l33.103,0Zm-27.08,-11.667c0,-2.719 1.036,-5.043 3.107,-6.971c2.071,-1.929 5.019,-2.893 8.845,-2.893c3.889,0 6.884,0.964 8.987,2.893c2.102,1.928 3.154,4.252 3.154,6.971c0,2.783 -1.052,5.13 -3.154,7.043c-2.103,1.913 -5.098,2.869 -8.987,2.869c-3.826,0 -6.774,-0.956 -8.845,-2.869c-2.071,-1.913 -3.107,-4.26 -3.107,-7.043Z" style="fill:#ee5537;fill-rule:nonzero;"/><path d="M762.89,376.308c-0.664,-1.423 -1.431,-2.459 -2.3,-3.107c-0.87,-0.648 -2.506,-0.972 -4.909,-0.972l0,-17.595l38.083,0l0,17.595c-2.023,0 -3.328,0.292 -3.913,0.877c-0.584,0.585 -0.64,1.494 -0.166,2.727l5.122,14.56l0.712,0l5.406,-14.56c0.475,-1.169 0.419,-2.063 -0.166,-2.679c-0.585,-0.617 -1.889,-0.925 -3.912,-0.925l0,-17.595l26.416,0l0,17.595c-2.308,0 -3.936,0.308 -4.885,0.925c-0.948,0.616 -1.739,1.668 -2.371,3.154l-12.71,30.589l-27.697,0l-12.71,-30.589Z" style="fill:#ee5537;fill-rule:nonzero;"/></g><path d="M876.088,354.608c-0.429,1.435 -0.933,2.789 -1.513,4.061c-0.833,1.827 -2.075,3.386 -3.728,4.679c-1.653,1.292 -3.871,2.311 -6.654,3.056c-2.784,0.746 -6.338,1.119 -10.662,1.119c-2.535,0 -4.505,-0.062 -5.909,-0.187c-1.404,-0.124 -2.566,-0.298 -3.486,-0.521l0,4.958c0.473,-0.149 0.964,-0.274 1.473,-0.373c0.509,-0.1 1.106,-0.199 1.789,-0.298c0.684,-0.1 1.485,-0.174 2.405,-0.224c0.919,-0.05 2.013,-0.075 3.28,-0.075c4.772,0 8.78,0.522 12.023,1.566c3.243,1.044 5.828,2.467 7.754,4.269c1.926,1.801 3.299,3.889 4.119,6.262c0.82,2.374 1.231,4.878 1.231,7.512c0,2.709 -0.522,5.194 -1.566,7.456c-1.044,2.262 -2.647,4.231 -4.809,5.909c-2.162,1.677 -4.902,2.988 -8.22,3.933c-3.318,0.944 -7.263,1.416 -11.836,1.416c-7.68,0 -13.682,-1.336 -18.006,-4.007c-4.324,-2.672 -6.487,-6.456 -6.487,-11.352c0,-1.764 0.28,-3.311 0.839,-4.641c0.559,-1.33 1.299,-2.411 2.218,-3.243c0.92,-0.833 1.964,-1.454 3.132,-1.864c1.168,-0.41 2.336,-0.615 3.504,-0.615c2.908,0 5.07,0.609 6.486,1.826c1.417,1.218 2.125,2.796 2.125,4.735c0,1.938 -0.559,3.405 -1.677,4.399c-1.119,0.994 -2.436,1.715 -3.952,2.162c1.218,0.621 2.51,1.093 3.877,1.417c1.367,0.323 2.896,0.484 4.586,0.484c3.355,0 5.871,-0.888 7.549,-2.665c1.677,-1.777 2.516,-4.045 2.516,-6.804c0,-2.883 -0.926,-5.088 -2.777,-6.617c-1.852,-1.528 -4.356,-2.292 -7.512,-2.292c-2.088,0 -3.765,0.211 -5.033,0.633c-1.267,0.423 -2.211,0.771 -2.833,1.044l-9.32,0l0,-27.118l45.074,0Z" style="fill:#ee5537;fill-rule:nonzero;"/><g><path d="M836.097,342.274l0.015,0l3.598,-8.898l1.671,0l0,10.75l-1.094,0l0,-9.338l-0.03,0l-3.887,9.338l-0.577,0l-3.887,-9.338l-0.03,0l0,9.338l-1.094,0l0,-10.75l1.671,0l3.644,8.898Z" style="fill:#ee5537;fill-rule:nonzero;"/><path d="M848.198,344.399c-0.81,0 -1.473,-0.139 -1.989,-0.417c-0.516,-0.278 -0.926,-0.63 -1.23,-1.055c-0.303,-0.426 -0.513,-0.889 -0.63,-1.39c-0.116,-0.501 -0.175,-0.974 -0.175,-1.419l0,-6.742l1.094,0l0,6.62c0,0.435 0.05,0.858 0.152,1.268c0.101,0.41 0.265,0.774 0.493,1.093c0.228,0.319 0.529,0.577 0.903,0.775c0.375,0.197 0.836,0.296 1.382,0.296c0.547,0 1.007,-0.099 1.382,-0.296c0.374,-0.198 0.676,-0.456 0.903,-0.775c0.228,-0.319 0.393,-0.683 0.494,-1.093c0.101,-0.41 0.152,-0.833 0.152,-1.268l0,-6.62l1.093,0l0,6.742c0,0.445 -0.058,0.918 -0.175,1.419c-0.116,0.501 -0.326,0.964 -0.63,1.39c-0.304,0.425 -0.716,0.777 -1.237,1.055c-0.522,0.278 -1.182,0.417 -1.982,0.417Z" style="fill:#ee5537;fill-rule:nonzero;"/><path d="M860.224,335.107c-0.233,-0.324 -0.532,-0.585 -0.896,-0.782c-0.365,-0.197 -0.805,-0.296 -1.321,-0.296c-0.263,0 -0.532,0.04 -0.805,0.121c-0.273,0.081 -0.521,0.205 -0.744,0.372c-0.223,0.167 -0.402,0.378 -0.539,0.631c-0.137,0.253 -0.205,0.551 -0.205,0.895c0,0.345 0.066,0.628 0.197,0.851c0.132,0.222 0.307,0.412 0.524,0.569c0.218,0.157 0.466,0.286 0.744,0.387c0.279,0.102 0.57,0.203 0.873,0.304c0.375,0.121 0.752,0.253 1.132,0.395c0.379,0.141 0.721,0.326 1.024,0.554c0.304,0.228 0.552,0.516 0.744,0.865c0.193,0.35 0.289,0.792 0.289,1.329c0,0.536 -0.104,1 -0.311,1.389c-0.208,0.39 -0.476,0.711 -0.805,0.964c-0.329,0.254 -0.704,0.441 -1.124,0.562c-0.42,0.122 -0.842,0.182 -1.267,0.182c-0.324,0 -0.648,-0.032 -0.972,-0.098c-0.324,-0.066 -0.633,-0.165 -0.926,-0.296c-0.294,-0.132 -0.567,-0.299 -0.82,-0.501c-0.253,-0.203 -0.476,-0.436 -0.668,-0.699l0.941,-0.698c0.233,0.384 0.559,0.706 0.979,0.964c0.42,0.258 0.914,0.387 1.481,0.387c0.273,0 0.551,-0.043 0.835,-0.129c0.283,-0.086 0.539,-0.218 0.767,-0.395c0.227,-0.177 0.415,-0.395 0.561,-0.653c0.147,-0.258 0.221,-0.559 0.221,-0.903c0,-0.375 -0.074,-0.686 -0.221,-0.934c-0.146,-0.248 -0.341,-0.455 -0.584,-0.622c-0.243,-0.167 -0.521,-0.307 -0.835,-0.418c-0.314,-0.111 -0.643,-0.223 -0.987,-0.334c-0.354,-0.111 -0.704,-0.238 -1.048,-0.38c-0.344,-0.141 -0.653,-0.326 -0.926,-0.554c-0.273,-0.228 -0.494,-0.508 -0.661,-0.843c-0.167,-0.334 -0.25,-0.744 -0.25,-1.229c0,-0.517 0.104,-0.962 0.311,-1.337c0.208,-0.374 0.478,-0.683 0.812,-0.926c0.335,-0.243 0.704,-0.42 1.109,-0.531c0.405,-0.112 0.805,-0.167 1.199,-0.167c0.729,0 1.352,0.129 1.868,0.387c0.516,0.258 0.906,0.564 1.169,0.919l-0.865,0.698Z" style="fill:#ee5537;fill-rule:nonzero;"/><rect x="863.579" y="333.376" width="1.093" height="10.75" style="fill:#ee5537;fill-rule:nonzero;"/><path d="M876.577,342.395c-0.183,0.274 -0.403,0.532 -0.661,0.775c-0.258,0.243 -0.557,0.455 -0.896,0.637c-0.339,0.183 -0.713,0.327 -1.123,0.433c-0.41,0.106 -0.858,0.159 -1.344,0.159c-0.81,0 -1.559,-0.141 -2.247,-0.425c-0.689,-0.283 -1.281,-0.675 -1.777,-1.176c-0.496,-0.501 -0.883,-1.096 -1.161,-1.785c-0.279,-0.688 -0.418,-1.442 -0.418,-2.262c0,-0.82 0.142,-1.574 0.425,-2.262c0.284,-0.689 0.676,-1.283 1.177,-1.784c0.501,-0.501 1.093,-0.894 1.776,-1.177c0.684,-0.283 1.425,-0.425 2.225,-0.425c0.395,0 0.782,0.04 1.161,0.121c0.38,0.081 0.737,0.195 1.071,0.342c0.334,0.147 0.638,0.324 0.911,0.531c0.273,0.208 0.501,0.443 0.683,0.706l-0.911,0.668c-0.111,-0.172 -0.261,-0.344 -0.448,-0.516c-0.187,-0.172 -0.407,-0.324 -0.66,-0.455c-0.253,-0.132 -0.529,-0.238 -0.828,-0.319c-0.298,-0.081 -0.62,-0.122 -0.964,-0.122c-0.698,0 -1.323,0.127 -1.875,0.38c-0.552,0.253 -1.02,0.595 -1.405,1.025c-0.384,0.43 -0.678,0.929 -0.88,1.495c-0.203,0.567 -0.304,1.165 -0.304,1.792c0,0.628 0.104,1.225 0.311,1.792c0.208,0.567 0.504,1.065 0.889,1.495c0.384,0.431 0.852,0.772 1.404,1.025c0.552,0.253 1.172,0.38 1.86,0.38c0.617,0 1.205,-0.127 1.761,-0.38c0.557,-0.253 1.023,-0.658 1.397,-1.214l0.851,0.546Z" style="fill:#ee5537;fill-rule:nonzero;"/></g></g></g></svg>