<svg clip-rule="evenodd" fill-rule="evenodd" stroke-linejoin="round" stroke-miterlimit="1.41421" viewBox="0 0 1280 800" xmlns="http://www.w3.org/2000/svg"><path d="m309 521h662v179h-662z"/><g fill-rule="nonzero"><path d="m401.79 646.283v-17.595c2.783 0 4.775-.372 5.976-1.115 1.202-.743 1.802-2.142 1.802-4.197v-23.997c0-2.087-.6-3.502-1.802-4.245-1.201-.743-3.193-1.114-5.976-1.114v-17.595h65.638v26.843h-16.599c0-1.961-.095-3.534-.285-4.719-.19-1.186-.545-2.119-1.067-2.798-.522-.68-1.217-1.139-2.087-1.376-.869-.237-1.952-.355-3.248-.355h-6.593v13.706h15.129v8.347h-15.129v7.303c0 1.676.419 2.98 1.257 3.913.838.932 2.364 1.399 4.577 1.399h4.837v17.595z" fill="#fff"/><path d="m507.309 576.425v47.141c0 2.118.521 3.501 1.565 4.15 1.043.648 2.371.972 3.983.972h1.281v17.595h-39.932v-17.595h1.849c1.676 0 2.917-.53 3.723-1.589s1.209-2.205 1.209-3.438v-24.282c0-1.834-.577-3.186-1.731-4.055-1.154-.87-2.49-1.304-4.007-1.304h-1.043v-17.595z" fill="#fff"/><path d="m544.356 600.612c-1.612 0-2.995.118-4.149.355-1.155.238-2.143.514-2.965.83-.822.317-1.501.672-2.039 1.067-.537.396-1.012.751-1.423 1.068l.475.474c.6-.316 1.256-.633 1.968-.949.711-.316 1.62-.474 2.727-.474 1.865 0 3.478.609 4.837 1.826 1.36 1.217 2.039 3.154 2.039 5.81 0 2.529-1.035 4.56-3.106 6.094-2.071 1.533-4.845 2.3-8.323 2.3-3.32 0-5.968-.957-7.944-2.869-1.976-1.913-2.964-4.624-2.964-8.134 0-1.928.537-3.849 1.612-5.762s2.743-3.628 5.004-5.146c2.26-1.517 5.138-2.766 8.631-3.746 3.494-.981 7.707-1.471 12.639-1.471 5.881 0 10.687.554 14.418 1.66 3.731 1.107 6.631 2.53 8.702 4.269s3.494 3.715 4.269 5.928c.774 2.213 1.162 4.442 1.162 6.687v18.543c0 2.877.094 4.83.284 5.857.19 1.028.901 1.542 2.134 1.542.98 0 1.668-.467 2.063-1.399.396-.933.593-2.538.593-4.814v-5.928h5.407v6.023c0 2.845-.237 5.367-.712 7.564-.474 2.198-1.375 4.079-2.703 5.644s-3.13 2.751-5.407 3.557c-2.276.806-5.185 1.209-8.726 1.209-3.193 0-5.841-.34-7.944-1.019-2.102-.68-3.77-1.526-5.003-2.538s-2.111-2.063-2.632-3.154c-.522-1.09-.783-2.063-.783-2.916h-.759c-.189 1.296-.735 2.529-1.636 3.699s-2.15 2.205-3.746 3.106c-1.597.901-3.51 1.629-5.739 2.182s-4.766.83-7.612.83c-2.719 0-5.193-.261-7.422-.783-2.229-.521-4.126-1.343-5.691-2.466-1.565-1.122-2.782-2.577-3.652-4.363-.869-1.786-1.304-3.913-1.304-6.379 0-3.035.854-5.43 2.561-7.185 1.707-1.754 3.857-3.146 6.45-4.173 2.593-1.028 5.414-1.866 8.465-2.514 3.052-.648 5.873-1.43 8.466-2.347s4.743-2.103 6.45-3.557c1.707-1.455 2.561-3.51 2.561-6.166 0-2.371-.743-4.276-2.229-5.714-1.486-1.439-3.921-2.158-7.304-2.158zm9.533 20.535c-.696 1.012-1.565 1.826-2.609 2.442-1.043.617-2.047 1.218-3.011 1.803s-1.802 1.28-2.514 2.086c-.711.807-1.067 1.89-1.067 3.249 0 1.043.285 1.984.854 2.822s1.676 1.257 3.32 1.257c1.486 0 2.695-.577 3.628-1.731.932-1.154 1.399-2.775 1.399-4.861z" fill="#fff"/><path d="m623.79 576.425v17.595h14.181v17.595h-14.181v14.559c0 2.087.293 3.794.878 5.122s1.794 1.992 3.628 1.992c1.011 0 1.826-.198 2.442-.593.617-.395 1.107-.917 1.47-1.565.364-.648.593-1.391.688-2.229s.142-1.747.142-2.727v-7.066h5.454v7.635c0 3.067-.324 5.929-.972 8.584-.648 2.656-1.755 4.948-3.32 6.877s-3.691 3.462-6.379 4.6c-2.687 1.139-6.07 1.708-10.149 1.708-4.521 0-8.125-.554-10.813-1.66-2.687-1.107-4.726-2.624-6.118-4.553-1.391-1.929-2.3-4.221-2.727-6.877-.426-2.656-.64-5.549-.64-8.679v-15.128h-7.446v-15.651c2.372 0 4.577-.514 6.616-1.541 2.04-1.028 3.794-2.451 5.264-4.269 1.471-1.818 2.609-3.896 3.415-6.236s1.209-4.838 1.209-7.493z" fill="#fff"/><path d="m641.385 646.283v-17.595c2.783 0 4.774-.372 5.976-1.115 1.201-.743 1.802-2.142 1.802-4.197v-23.997c0-2.087-.601-3.502-1.802-4.245-1.202-.743-3.193-1.114-5.976-1.114v-17.595h65.637v26.843h-16.599c0-1.961-.094-3.534-.284-4.719-.19-1.186-.546-2.119-1.067-2.798-.522-.68-1.217-1.139-2.087-1.376-.869-.237-1.952-.355-3.249-.355h-6.592v13.706h15.129v8.347h-15.129v7.303c0 1.676.419 2.98 1.257 3.913.838.932 2.363 1.399 4.577 1.399h4.837v17.595z" fill="#fff"/><path d="m746.903 594.02v29.546c0 2.118.522 3.501 1.565 4.15 1.044.648 2.372.972 3.984.972h1.281v17.595h-39.933v-17.595h1.85c1.676 0 2.917-.53 3.723-1.589s1.209-2.205 1.209-3.438v-6.687c0-1.834-.577-3.186-1.731-4.055-1.154-.87-2.49-1.304-4.007-1.304h-1.044v-17.595zm-27.08-11.667c0-2.719 1.036-5.043 3.107-6.972 2.071-1.928 5.019-2.893 8.845-2.893 3.889 0 6.884.965 8.987 2.893 2.102 1.929 3.154 4.253 3.154 6.972 0 2.782-1.052 5.13-3.154 7.043-2.103 1.912-5.098 2.869-8.987 2.869-3.826 0-6.774-.957-8.845-2.869-2.071-1.913-3.107-4.261-3.107-7.043z" fill="#fff"/><path d="m762.89 615.693c-.664-1.423-1.431-2.458-2.3-3.106-.87-.648-2.506-.972-4.909-.972v-17.595h38.083v17.595c-2.023 0-3.328.292-3.913.877-.584.585-.64 1.494-.166 2.727l5.122 14.56h.712l5.406-14.56c.475-1.17.419-2.063-.166-2.68-.585-.616-1.889-.924-3.912-.924v-17.595h26.416v17.595c-2.308 0-3.936.308-4.885.924-.948.617-1.739 1.668-2.371 3.154l-12.71 30.59h-27.697z" fill="#fff"/><path d="m876.088 593.993c-.429 1.435-.933 2.789-1.513 4.062-.833 1.826-2.075 3.386-3.728 4.678s-3.871 2.311-6.654 3.057c-2.784.746-6.338 1.118-10.662 1.118-2.535 0-4.505-.062-5.909-.186s-2.566-.298-3.486-.522v4.958c.473-.149.964-.273 1.473-.373.509-.099 1.106-.198 1.789-.298.684-.099 1.485-.174 2.405-.224.919-.049 2.013-.074 3.28-.074 4.772 0 8.78.522 12.023 1.566 3.243 1.043 5.828 2.466 7.754 4.268s3.299 3.89 4.119 6.263 1.231 4.877 1.231 7.512c0 2.709-.522 5.194-1.566 7.455-1.044 2.262-2.647 4.232-4.809 5.909-2.162 1.678-4.902 2.989-8.22 3.933-3.318.945-7.263 1.417-11.836 1.417-7.68 0-13.682-1.336-18.006-4.008-4.324-2.671-6.487-6.455-6.487-11.351 0-1.765.28-3.312.839-4.641.559-1.33 1.299-2.411 2.218-3.244.92-.832 1.964-1.454 3.132-1.864s2.336-.615 3.504-.615c2.908 0 5.07.609 6.486 1.827 1.417 1.218 2.125 2.796 2.125 4.734 0 1.939-.559 3.405-1.677 4.399-1.119.994-2.436 1.715-3.952 2.162 1.218.622 2.51 1.094 3.877 1.417s2.896.485 4.586.485c3.355 0 5.871-.889 7.549-2.666 1.677-1.777 2.516-4.045 2.516-6.803 0-2.883-.926-5.089-2.777-6.617-1.852-1.529-4.356-2.293-7.512-2.293-2.088 0-3.765.211-5.033.634-1.267.422-2.211.77-2.833 1.044h-9.32v-27.119z" fill="#fff"/><path d="m836.097 581.659h.015l3.598-8.897h1.671v10.75h-1.094v-9.338h-.03l-3.887 9.338h-.577l-3.887-9.338h-.03v9.338h-1.094v-10.75h1.671z" fill="#fff"/><path d="m848.198 583.785c-.81 0-1.473-.139-1.989-.418-.516-.278-.926-.63-1.23-1.055-.303-.425-.513-.888-.63-1.389-.116-.501-.175-.974-.175-1.42v-6.741h1.094v6.62c0 .435.05.858.152 1.268.101.409.265.774.493 1.093s.529.577.903.774c.375.198.836.296 1.382.296.547 0 1.007-.098 1.382-.296.374-.197.676-.455.903-.774.228-.319.393-.684.494-1.093.101-.41.152-.833.152-1.268v-6.62h1.093v6.741c0 .446-.058.919-.175 1.42-.116.501-.326.964-.63 1.389s-.716.777-1.237 1.055c-.522.279-1.182.418-1.982.418z" fill="#fff"/><path d="m860.224 574.493c-.233-.324-.532-.585-.896-.782-.365-.198-.805-.297-1.321-.297-.263 0-.532.041-.805.122s-.521.205-.744.372-.402.377-.539.63-.205.552-.205.896.066.628.197.85c.132.223.307.413.524.57.218.156.466.286.744.387.279.101.57.202.873.303.375.122.752.254 1.132.395.379.142.721.327 1.024.554.304.228.552.517.744.866.193.349.289.792.289 1.328 0 .537-.104 1-.311 1.39-.208.39-.476.711-.805.964s-.704.44-1.124.562c-.42.121-.842.182-1.267.182-.324 0-.648-.033-.972-.099s-.633-.164-.926-.296c-.294-.131-.567-.298-.82-.501-.253-.202-.476-.435-.668-.698l.941-.699c.233.385.559.706.979.964.42.259.914.388 1.481.388.273 0 .551-.043.835-.129.283-.087.539-.218.767-.395.227-.177.415-.395.561-.653.147-.258.221-.559.221-.904 0-.374-.074-.685-.221-.933-.146-.248-.341-.456-.584-.623s-.521-.306-.835-.417c-.314-.112-.643-.223-.987-.335-.354-.111-.704-.237-1.048-.379s-.653-.327-.926-.554c-.273-.228-.494-.509-.661-.843s-.25-.744-.25-1.23c0-.516.104-.962.311-1.336.208-.375.478-.683.812-.926.335-.243.704-.42 1.109-.532.405-.111.805-.167 1.199-.167.729 0 1.352.129 1.868.387.516.259.906.565 1.169.919z" fill="#fff"/><path d="m863.579 572.762h1.093v10.75h-1.093z" fill="#fff"/><path d="m876.577 581.781c-.183.273-.403.531-.661.774s-.557.456-.896.638-.713.326-1.123.433c-.41.106-.858.159-1.344.159-.81 0-1.559-.142-2.247-.425-.689-.284-1.281-.676-1.777-1.177s-.883-1.096-1.161-1.784c-.279-.688-.418-1.442-.418-2.262s.142-1.574.425-2.263c.284-.688.676-1.283 1.177-1.784s1.093-.893 1.776-1.177c.684-.283 1.425-.425 2.225-.425.395 0 .782.041 1.161.122.38.081.737.195 1.071.341.334.147.638.324.911.532.273.207.501.443.683.706l-.911.668c-.111-.172-.261-.344-.448-.516s-.407-.324-.66-.456c-.253-.131-.529-.238-.828-.319-.298-.081-.62-.121-.964-.121-.698 0-1.323.126-1.875.379-.552.254-1.02.595-1.405 1.025-.384.431-.678.929-.88 1.496-.203.567-.304 1.164-.304 1.792 0 .627.104 1.224.311 1.791.208.567.504 1.066.889 1.496.384.43.852.772 1.404 1.025s1.172.379 1.86.379c.617 0 1.205-.126 1.761-.379.557-.253 1.023-.658 1.397-1.215z" fill="#fff"/><path d="m401.79 219v-17.595c2.783 0 4.775-.371 5.976-1.114 1.202-.743 1.802-2.143 1.802-4.198v-23.997c0-2.087-.6-3.502-1.802-4.245-1.201-.743-3.193-1.114-5.976-1.114v-17.595h65.638v26.843h-16.599c0-1.96-.095-3.533-.285-4.719s-.545-2.118-1.067-2.798-1.217-1.138-2.087-1.375c-.869-.238-1.952-.356-3.248-.356h-6.593v13.706h15.129v8.347h-15.129v7.303c0 1.676.419 2.98 1.257 3.913s2.364 1.399 4.577 1.399h4.837v17.595z"/><path d="m507.309 149.142v47.141c0 2.118.521 3.502 1.565 4.15 1.043.648 2.371.972 3.983.972h1.281v17.595h-39.932v-17.595h1.849c1.676 0 2.917-.53 3.723-1.589s1.209-2.205 1.209-3.438v-24.282c0-1.834-.577-3.185-1.731-4.055-1.154-.869-2.49-1.304-4.007-1.304h-1.043v-17.595z"/><path d="m544.356 173.329c-1.612 0-2.995.119-4.149.356-1.155.237-2.143.514-2.965.83s-1.501.672-2.039 1.067c-.537.395-1.012.751-1.423 1.067l.475.474c.6-.316 1.256-.632 1.968-.948.711-.317 1.62-.475 2.727-.475 1.865 0 3.478.609 4.837 1.826 1.36 1.217 2.039 3.154 2.039 5.81 0 2.529-1.035 4.561-3.106 6.094s-4.845 2.3-8.323 2.3c-3.32 0-5.968-.956-7.944-2.869s-2.964-4.624-2.964-8.134c0-1.928.537-3.849 1.612-5.762s2.743-3.628 5.004-5.145c2.26-1.518 5.138-2.767 8.631-3.747 3.494-.98 7.707-1.47 12.639-1.47 5.881 0 10.687.553 14.418 1.66 3.731 1.106 6.631 2.529 8.702 4.268s3.494 3.715 4.269 5.928c.774 2.213 1.162 4.442 1.162 6.687v18.544c0 2.877.094 4.829.284 5.857.19 1.027.901 1.541 2.134 1.541.98 0 1.668-.466 2.063-1.399.396-.933.593-2.537.593-4.814v-5.928h5.407v6.023c0 2.846-.237 5.367-.712 7.565-.474 2.197-1.375 4.078-2.703 5.643s-3.13 2.751-5.407 3.557c-2.276.806-5.185 1.209-8.726 1.209-3.193 0-5.841-.339-7.944-1.019-2.102-.68-3.77-1.526-5.003-2.537-1.233-1.012-2.111-2.063-2.632-3.154-.522-1.091-.783-2.063-.783-2.917h-.759c-.189 1.296-.735 2.529-1.636 3.699s-2.15 2.206-3.746 3.107c-1.597.901-3.51 1.628-5.739 2.181-2.229.554-4.766.83-7.612.83-2.719 0-5.193-.261-7.422-.782-2.229-.522-4.126-1.344-5.691-2.467-1.565-1.122-2.782-2.576-3.652-4.363-.869-1.786-1.304-3.912-1.304-6.378 0-3.036.854-5.431 2.561-7.185 1.707-1.755 3.857-3.146 6.45-4.174 2.593-1.027 5.414-1.865 8.465-2.513 3.052-.649 5.873-1.431 8.466-2.348s4.743-2.103 6.45-3.557 2.561-3.509 2.561-6.165c0-2.372-.743-4.277-2.229-5.715-1.486-1.439-3.921-2.158-7.304-2.158zm9.533 20.535c-.696 1.012-1.565 1.826-2.609 2.443-1.043.616-2.047 1.217-3.011 1.802s-1.802 1.28-2.514 2.087c-.711.806-1.067 1.889-1.067 3.248 0 1.044.285 1.984.854 2.822s1.676 1.257 3.32 1.257c1.486 0 2.695-.577 3.628-1.731.932-1.154 1.399-2.774 1.399-4.861z"/><path d="m623.79 149.142v17.595h14.181v17.595h-14.181v14.559c0 2.087.293 3.795.878 5.122.585 1.328 1.794 1.992 3.628 1.992 1.011 0 1.826-.197 2.442-.592.617-.396 1.107-.917 1.47-1.566.364-.648.593-1.391.688-2.229.095-.837.142-1.746.142-2.727v-7.066h5.454v7.636c0 3.066-.324 5.928-.972 8.584-.648 2.655-1.755 4.948-3.32 6.876-1.565 1.929-3.691 3.462-6.379 4.601-2.687 1.138-6.07 1.707-10.149 1.707-4.521 0-8.125-.553-10.813-1.66-2.687-1.106-4.726-2.624-6.118-4.553-1.391-1.928-2.3-4.221-2.727-6.876-.426-2.656-.64-5.549-.64-8.679v-15.129h-7.446v-15.651c2.372 0 4.577-.513 6.616-1.541 2.04-1.028 3.794-2.45 5.264-4.268 1.471-1.818 2.609-3.897 3.415-6.237.806-2.339 1.209-4.837 1.209-7.493z"/><path d="m641.385 219v-17.595c2.783 0 4.774-.371 5.976-1.114 1.201-.743 1.802-2.143 1.802-4.198v-23.997c0-2.087-.601-3.502-1.802-4.245-1.202-.743-3.193-1.114-5.976-1.114v-17.595h65.637v26.843h-16.599c0-1.96-.094-3.533-.284-4.719s-.546-2.118-1.067-2.798c-.522-.68-1.217-1.138-2.087-1.375-.869-.238-1.952-.356-3.249-.356h-6.592v13.706h15.129v8.347h-15.129v7.303c0 1.676.419 2.98 1.257 3.913s2.363 1.399 4.577 1.399h4.837v17.595z"/><path d="m746.903 166.737v29.546c0 2.118.522 3.502 1.565 4.15 1.044.648 2.372.972 3.984.972h1.281v17.595h-39.933v-17.595h1.85c1.676 0 2.917-.53 3.723-1.589s1.209-2.205 1.209-3.438v-6.687c0-1.834-.577-3.186-1.731-4.055s-2.49-1.304-4.007-1.304h-1.044v-17.595zm-27.08-11.667c0-2.719 1.036-5.043 3.107-6.971 2.071-1.929 5.019-2.893 8.845-2.893 3.889 0 6.884.964 8.987 2.893 2.102 1.928 3.154 4.252 3.154 6.971 0 2.782-1.052 5.13-3.154 7.043-2.103 1.913-5.098 2.869-8.987 2.869-3.826 0-6.774-.956-8.845-2.869s-3.107-4.261-3.107-7.043z"/><path d="m762.89 188.41c-.664-1.422-1.431-2.458-2.3-3.106-.87-.648-2.506-.972-4.909-.972v-17.595h38.083v17.595c-2.023 0-3.328.292-3.913.877-.584.585-.64 1.494-.166 2.727l5.122 14.56h.712l5.406-14.56c.475-1.17.419-2.063-.166-2.679-.585-.617-1.889-.925-3.912-.925v-17.595h26.416v17.595c-2.308 0-3.936.308-4.885.925-.948.616-1.739 1.667-2.371 3.153l-12.71 30.59h-27.697z"/><path d="m876.088 166.711c-.429 1.435-.933 2.789-1.513 4.061-.833 1.827-2.075 3.386-3.728 4.678-1.653 1.293-3.871 2.312-6.654 3.057-2.784.746-6.338 1.119-10.662 1.119-2.535 0-4.505-.062-5.909-.187-1.404-.124-2.566-.298-3.486-.522v4.958c.473-.149.964-.273 1.473-.372.509-.1 1.106-.199 1.789-.299.684-.099 1.485-.174 2.405-.223.919-.05 2.013-.075 3.28-.075 4.772 0 8.78.522 12.023 1.566s5.828 2.467 7.754 4.268c1.926 1.802 3.299 3.89 4.119 6.263.82 2.374 1.231 4.878 1.231 7.512 0 2.709-.522 5.194-1.566 7.456-1.044 2.261-2.647 4.231-4.809 5.908-2.162 1.678-4.902 2.989-8.22 3.933-3.318.945-7.263 1.417-11.836 1.417-7.68 0-13.682-1.336-18.006-4.007-4.324-2.672-6.487-6.456-6.487-11.352 0-1.764.28-3.312.839-4.641.559-1.33 1.299-2.411 2.218-3.243.92-.833 1.964-1.454 3.132-1.864s2.336-.616 3.504-.616c2.908 0 5.07.609 6.486 1.827 1.417 1.218 2.125 2.796 2.125 4.735 0 1.938-.559 3.404-1.677 4.399-1.119.994-2.436 1.714-3.952 2.162 1.218.621 2.51 1.093 3.877 1.416s2.896.485 4.586.485c3.355 0 5.871-.889 7.549-2.666 1.677-1.776 2.516-4.044 2.516-6.803 0-2.883-.926-5.089-2.777-6.617-1.852-1.528-4.356-2.293-7.512-2.293-2.088 0-3.765.212-5.033.634-1.267.423-2.211.77-2.833 1.044h-9.32v-27.118z" fill="#ee5537"/><path d="m836.097 154.377h.015l3.598-8.898h1.671v10.75h-1.094v-9.338h-.03l-3.887 9.338h-.577l-3.887-9.338h-.03v9.338h-1.094v-10.75h1.671z" fill="#ee5537"/><path d="m848.198 156.502c-.81 0-1.473-.139-1.989-.417-.516-.279-.926-.63-1.23-1.056-.303-.425-.513-.888-.63-1.389-.116-.501-.175-.974-.175-1.42v-6.741h1.094v6.62c0 .435.05.858.152 1.268.101.41.265.774.493 1.093s.529.577.903.774c.375.198.836.296 1.382.296.547 0 1.007-.098 1.382-.296.374-.197.676-.455.903-.774.228-.319.393-.683.494-1.093s.152-.833.152-1.268v-6.62h1.093v6.741c0 .446-.058.919-.175 1.42-.116.501-.326.964-.63 1.389-.304.426-.716.777-1.237 1.056-.522.278-1.182.417-1.982.417z" fill="#ee5537"/><path d="m860.224 147.21c-.233-.324-.532-.585-.896-.782-.365-.198-.805-.296-1.321-.296-.263 0-.532.04-.805.121s-.521.205-.744.372-.402.377-.539.63-.205.552-.205.896.066.628.197.851c.132.222.307.412.524.569.218.157.466.286.744.387.279.101.57.203.873.304.375.121.752.253 1.132.395.379.141.721.326 1.024.554.304.227.552.516.744.865.193.349.289.792.289 1.329 0 .536-.104.999-.311 1.389-.208.39-.476.711-.805.964s-.704.441-1.124.562c-.42.122-.842.182-1.267.182-.324 0-.648-.033-.972-.098-.324-.066-.633-.165-.926-.297-.294-.131-.567-.298-.82-.501-.253-.202-.476-.435-.668-.698l.941-.698c.233.384.559.706.979.964s.914.387 1.481.387c.273 0 .551-.043.835-.129.283-.086.539-.218.767-.395.227-.177.415-.395.561-.653.147-.258.221-.559.221-.903 0-.375-.074-.686-.221-.934-.146-.248-.341-.456-.584-.623s-.521-.306-.835-.417c-.314-.112-.643-.223-.987-.334-.354-.112-.704-.238-1.048-.38s-.653-.326-.926-.554-.494-.509-.661-.843-.25-.744-.25-1.23c0-.516.104-.961.311-1.336.208-.374.478-.683.812-.926.335-.243.704-.42 1.109-.531.405-.112.805-.167 1.199-.167.729 0 1.352.129 1.868.387s.906.564 1.169.918z" fill="#ee5537"/><path d="m863.579 145.479h1.093v10.75h-1.093z" fill="#ee5537"/><path d="m876.577 154.498c-.183.273-.403.531-.661.774s-.557.456-.896.638-.713.327-1.123.433-.858.159-1.344.159c-.81 0-1.559-.141-2.247-.425-.689-.283-1.281-.676-1.777-1.177s-.883-1.095-1.161-1.784c-.279-.688-.418-1.442-.418-2.262s.142-1.574.425-2.262c.284-.689.676-1.283 1.177-1.785.501-.501 1.093-.893 1.776-1.176.684-.284 1.425-.425 2.225-.425.395 0 .782.04 1.161.121.38.081.737.195 1.071.342.334.146.638.324.911.531.273.208.501.443.683.706l-.911.668c-.111-.172-.261-.344-.448-.516s-.407-.324-.66-.456c-.253-.131-.529-.237-.828-.318-.298-.081-.62-.122-.964-.122-.698 0-1.323.127-1.875.38s-1.02.594-1.405 1.025c-.384.43-.678.928-.88 1.495-.203.567-.304 1.164-.304 1.792s.104 1.225.311 1.792c.208.566.504 1.065.889 1.495.384.43.852.772 1.404 1.025s1.172.38 1.86.38c.617 0 1.205-.127 1.761-.38.557-.253 1.023-.658 1.397-1.215z" fill="#ee5537"/><path d="m401.79 406.897v-17.595c2.783 0 4.775-.371 5.976-1.114 1.202-.743 1.802-2.142 1.802-4.197v-23.998c0-2.087-.6-3.501-1.802-4.244-1.201-.743-3.193-1.115-5.976-1.115v-17.595h65.638v26.843h-16.599c0-1.96-.095-3.533-.285-4.719-.19-1.185-.545-2.118-1.067-2.798s-1.217-1.138-2.087-1.375c-.869-.237-1.952-.356-3.248-.356h-6.593v13.706h15.129v8.347h-15.129v7.304c0 1.675.419 2.98 1.257 3.912.838.933 2.364 1.399 4.577 1.399h4.837v17.595z" fill="#ee5537"/><path d="m507.309 337.039v47.141c0 2.119.521 3.502 1.565 4.15 1.043.648 2.371.972 3.983.972h1.281v17.595h-39.932v-17.595h1.849c1.676 0 2.917-.529 3.723-1.588.806-1.06 1.209-2.206 1.209-3.439v-24.282c0-1.834-.577-3.185-1.731-4.055-1.154-.869-2.49-1.304-4.007-1.304h-1.043v-17.595z" fill="#ee5537"/><path d="m544.356 361.226c-1.612 0-2.995.119-4.149.356-1.155.237-2.143.514-2.965.83s-1.501.672-2.039 1.067c-.537.395-1.012.751-1.423 1.067l.475.474c.6-.316 1.256-.632 1.968-.948.711-.316 1.62-.474 2.727-.474 1.865 0 3.478.608 4.837 1.825 1.36 1.218 2.039 3.154 2.039 5.81 0 2.529-1.035 4.561-3.106 6.094-2.071 1.534-4.845 2.3-8.323 2.3-3.32 0-5.968-.956-7.944-2.869s-2.964-4.624-2.964-8.133c0-1.929.537-3.85 1.612-5.763 1.075-1.912 2.743-3.628 5.004-5.145 2.26-1.518 5.138-2.767 8.631-3.747 3.494-.98 7.707-1.47 12.639-1.47 5.881 0 10.687.553 14.418 1.66 3.731 1.106 6.631 2.529 8.702 4.268s3.494 3.715 4.269 5.928c.774 2.214 1.162 4.443 1.162 6.687v18.544c0 2.877.094 4.829.284 5.857.19 1.027.901 1.541 2.134 1.541.98 0 1.668-.466 2.063-1.399.396-.933.593-2.537.593-4.814v-5.928h5.407v6.023c0 2.846-.237 5.367-.712 7.565-.474 2.197-1.375 4.078-2.703 5.643s-3.13 2.751-5.407 3.557c-2.276.807-5.185 1.21-8.726 1.21-3.193 0-5.841-.34-7.944-1.02-2.102-.68-3.77-1.526-5.003-2.537-1.233-1.012-2.111-2.063-2.632-3.154-.522-1.091-.783-2.063-.783-2.917h-.759c-.189 1.297-.735 2.53-1.636 3.699-.901 1.17-2.15 2.206-3.746 3.107-1.597.901-3.51 1.628-5.739 2.181-2.229.554-4.766.83-7.612.83-2.719 0-5.193-.26-7.422-.782s-4.126-1.344-5.691-2.466c-1.565-1.123-2.782-2.577-3.652-4.363-.869-1.787-1.304-3.913-1.304-6.379 0-3.035.854-5.43 2.561-7.185s3.857-3.146 6.45-4.174c2.593-1.027 5.414-1.865 8.465-2.513 3.052-.648 5.873-1.431 8.466-2.348s4.743-2.102 6.45-3.557c1.707-1.454 2.561-3.509 2.561-6.165 0-2.371-.743-4.276-2.229-5.715-1.486-1.438-3.921-2.158-7.304-2.158zm9.533 20.536c-.696 1.011-1.565 1.825-2.609 2.442-1.043.617-2.047 1.217-3.011 1.802s-1.802 1.281-2.514 2.087c-.711.806-1.067 1.889-1.067 3.249 0 1.043.285 1.984.854 2.821.569.838 1.676 1.257 3.32 1.257 1.486 0 2.695-.577 3.628-1.731.932-1.154 1.399-2.774 1.399-4.861z" fill="#ee5537"/><path d="m623.79 337.039v17.595h14.181v17.595h-14.181v14.56c0 2.086.293 3.794.878 5.122s1.794 1.992 3.628 1.992c1.011 0 1.826-.198 2.442-.593.617-.395 1.107-.917 1.47-1.565.364-.648.593-1.391.688-2.229s.142-1.747.142-2.727v-7.067h5.454v7.636c0 3.067-.324 5.928-.972 8.584s-1.755 4.948-3.32 6.877c-1.565 1.928-3.691 3.462-6.379 4.6-2.687 1.138-6.07 1.707-10.149 1.707-4.521 0-8.125-.553-10.813-1.66-2.687-1.106-4.726-2.624-6.118-4.553-1.391-1.928-2.3-4.22-2.727-6.876-.426-2.656-.64-5.549-.64-8.679v-15.129h-7.446v-15.65c2.372 0 4.577-.514 6.616-1.542 2.04-1.027 3.794-2.45 5.264-4.268 1.471-1.818 2.609-3.897 3.415-6.237.806-2.339 1.209-4.837 1.209-7.493z" fill="#ee5537"/><path d="m641.385 406.897v-17.595c2.783 0 4.774-.371 5.976-1.114 1.201-.743 1.802-2.142 1.802-4.197v-23.998c0-2.087-.601-3.501-1.802-4.244-1.202-.743-3.193-1.115-5.976-1.115v-17.595h65.637v26.843h-16.599c0-1.96-.094-3.533-.284-4.719-.19-1.185-.546-2.118-1.067-2.798-.522-.68-1.217-1.138-2.087-1.375-.869-.237-1.952-.356-3.249-.356h-6.592v13.706h15.129v8.347h-15.129v7.304c0 1.675.419 2.98 1.257 3.912.838.933 2.363 1.399 4.577 1.399h4.837v17.595z" fill="#ee5537"/><path d="m746.903 354.634v29.546c0 2.119.522 3.502 1.565 4.15 1.044.648 2.372.972 3.984.972h1.281v17.595h-39.933v-17.595h1.85c1.676 0 2.917-.529 3.723-1.588.806-1.06 1.209-2.206 1.209-3.439v-6.687c0-1.834-.577-3.185-1.731-4.055-1.154-.869-2.49-1.304-4.007-1.304h-1.044v-17.595zm-27.08-11.667c0-2.719 1.036-5.043 3.107-6.971 2.071-1.929 5.019-2.893 8.845-2.893 3.889 0 6.884.964 8.987 2.893 2.102 1.928 3.154 4.252 3.154 6.971 0 2.783-1.052 5.13-3.154 7.043-2.103 1.913-5.098 2.869-8.987 2.869-3.826 0-6.774-.956-8.845-2.869s-3.107-4.26-3.107-7.043z" fill="#ee5537"/><path d="m762.89 376.308c-.664-1.423-1.431-2.459-2.3-3.107-.87-.648-2.506-.972-4.909-.972v-17.595h38.083v17.595c-2.023 0-3.328.292-3.913.877-.584.585-.64 1.494-.166 2.727l5.122 14.56h.712l5.406-14.56c.475-1.169.419-2.063-.166-2.679-.585-.617-1.889-.925-3.912-.925v-17.595h26.416v17.595c-2.308 0-3.936.308-4.885.925-.948.616-1.739 1.668-2.371 3.154l-12.71 30.589h-27.697z" fill="#ee5537"/><path d="m876.088 354.608c-.429 1.435-.933 2.789-1.513 4.061-.833 1.827-2.075 3.386-3.728 4.679-1.653 1.292-3.871 2.311-6.654 3.056-2.784.746-6.338 1.119-10.662 1.119-2.535 0-4.505-.062-5.909-.187-1.404-.124-2.566-.298-3.486-.521v4.958c.473-.149.964-.274 1.473-.373.509-.1 1.106-.199 1.789-.298.684-.1 1.485-.174 2.405-.224.919-.05 2.013-.075 3.28-.075 4.772 0 8.78.522 12.023 1.566s5.828 2.467 7.754 4.269c1.926 1.801 3.299 3.889 4.119 6.262.82 2.374 1.231 4.878 1.231 7.512 0 2.709-.522 5.194-1.566 7.456s-2.647 4.231-4.809 5.909c-2.162 1.677-4.902 2.988-8.22 3.933-3.318.944-7.263 1.416-11.836 1.416-7.68 0-13.682-1.336-18.006-4.007-4.324-2.672-6.487-6.456-6.487-11.352 0-1.764.28-3.311.839-4.641s1.299-2.411 2.218-3.243c.92-.833 1.964-1.454 3.132-1.864s2.336-.615 3.504-.615c2.908 0 5.07.609 6.486 1.826 1.417 1.218 2.125 2.796 2.125 4.735 0 1.938-.559 3.405-1.677 4.399-1.119.994-2.436 1.715-3.952 2.162 1.218.621 2.51 1.093 3.877 1.417 1.367.323 2.896.484 4.586.484 3.355 0 5.871-.888 7.549-2.665 1.677-1.777 2.516-4.045 2.516-6.804 0-2.883-.926-5.088-2.777-6.617-1.852-1.528-4.356-2.292-7.512-2.292-2.088 0-3.765.211-5.033.633-1.267.423-2.211.771-2.833 1.044h-9.32v-27.118z" fill="#ee5537"/><path d="m836.097 342.274h.015l3.598-8.898h1.671v10.75h-1.094v-9.338h-.03l-3.887 9.338h-.577l-3.887-9.338h-.03v9.338h-1.094v-10.75h1.671z" fill="#ee5537"/><path d="m848.198 344.399c-.81 0-1.473-.139-1.989-.417s-.926-.63-1.23-1.055c-.303-.426-.513-.889-.63-1.39-.116-.501-.175-.974-.175-1.419v-6.742h1.094v6.62c0 .435.05.858.152 1.268.101.41.265.774.493 1.093s.529.577.903.775c.375.197.836.296 1.382.296.547 0 1.007-.099 1.382-.296.374-.198.676-.456.903-.775.228-.319.393-.683.494-1.093s.152-.833.152-1.268v-6.62h1.093v6.742c0 .445-.058.918-.175 1.419-.116.501-.326.964-.63 1.39-.304.425-.716.777-1.237 1.055-.522.278-1.182.417-1.982.417z" fill="#ee5537"/><path d="m860.224 335.107c-.233-.324-.532-.585-.896-.782-.365-.197-.805-.296-1.321-.296-.263 0-.532.04-.805.121s-.521.205-.744.372-.402.378-.539.631-.205.551-.205.895c0 .345.066.628.197.851.132.222.307.412.524.569.218.157.466.286.744.387.279.102.57.203.873.304.375.121.752.253 1.132.395.379.141.721.326 1.024.554.304.228.552.516.744.865.193.35.289.792.289 1.329 0 .536-.104 1-.311 1.389-.208.39-.476.711-.805.964-.329.254-.704.441-1.124.562-.42.122-.842.182-1.267.182-.324 0-.648-.032-.972-.098s-.633-.165-.926-.296c-.294-.132-.567-.299-.82-.501-.253-.203-.476-.436-.668-.699l.941-.698c.233.384.559.706.979.964s.914.387 1.481.387c.273 0 .551-.043.835-.129.283-.086.539-.218.767-.395.227-.177.415-.395.561-.653.147-.258.221-.559.221-.903 0-.375-.074-.686-.221-.934-.146-.248-.341-.455-.584-.622s-.521-.307-.835-.418-.643-.223-.987-.334c-.354-.111-.704-.238-1.048-.38-.344-.141-.653-.326-.926-.554s-.494-.508-.661-.843c-.167-.334-.25-.744-.25-1.229 0-.517.104-.962.311-1.337.208-.374.478-.683.812-.926.335-.243.704-.42 1.109-.531.405-.112.805-.167 1.199-.167.729 0 1.352.129 1.868.387s.906.564 1.169.919z" fill="#ee5537"/><path d="m863.579 333.376h1.093v10.75h-1.093z" fill="#ee5537"/><path d="m876.577 342.395c-.183.274-.403.532-.661.775s-.557.455-.896.637c-.339.183-.713.327-1.123.433s-.858.159-1.344.159c-.81 0-1.559-.141-2.247-.425-.689-.283-1.281-.675-1.777-1.176s-.883-1.096-1.161-1.785c-.279-.688-.418-1.442-.418-2.262s.142-1.574.425-2.262c.284-.689.676-1.283 1.177-1.784s1.093-.894 1.776-1.177c.684-.283 1.425-.425 2.225-.425.395 0 .782.04 1.161.121.38.081.737.195 1.071.342s.638.324.911.531c.273.208.501.443.683.706l-.911.668c-.111-.172-.261-.344-.448-.516s-.407-.324-.66-.455c-.253-.132-.529-.238-.828-.319-.298-.081-.62-.122-.964-.122-.698 0-1.323.127-1.875.38s-1.02.595-1.405 1.025c-.384.43-.678.929-.88 1.495-.203.567-.304 1.165-.304 1.792 0 .628.104 1.225.311 1.792.208.567.504 1.065.889 1.495.384.431.852.772 1.404 1.025s1.172.38 1.86.38c.617 0 1.205-.127 1.761-.38.557-.253 1.023-.658 1.397-1.214z" fill="#ee5537"/></g></svg>