<?xml version="1.0" encoding="UTF-8" standalone="no"?><!DOCTYPE svg PUBLIC "-//W3C//DTD SVG 1.1//EN" "http://www.w3.org/Graphics/SVG/1.1/DTD/svg11.dtd"><svg width="100%" height="100%" viewBox="0 0 250 300" version="1.1" xmlns="http://www.w3.org/2000/svg" xmlns:xlink="http://www.w3.org/1999/xlink" xml:space="preserve" xmlns:serif="http://www.serif.com/" style="fill-rule:evenodd;clip-rule:evenodd;stroke-linejoin:round;stroke-miterlimit:1.41421;"><g><g><path d="M36.895,163.235l0,-6.508c1.029,0 1.766,-0.137 2.21,-0.412c0.445,-0.275 0.667,-0.793 0.667,-1.553l0,-8.875c0,-0.772 -0.222,-1.295 -0.667,-1.57c-0.444,-0.275 -1.181,-0.412 -2.21,-0.412l0,-6.508l24.277,0l0,9.928l-6.139,0c0,-0.725 -0.035,-1.307 -0.106,-1.745c-0.07,-0.439 -0.201,-0.784 -0.394,-1.035c-0.193,-0.252 -0.451,-0.421 -0.772,-0.509c-0.322,-0.088 -0.722,-0.131 -1.202,-0.131l-2.438,0l0,5.069l5.596,0l0,3.087l-5.596,0l0,2.701c0,0.62 0.155,1.103 0.465,1.448c0.31,0.344 0.874,0.517 1.693,0.517l1.789,0l0,6.508l-17.173,0Z" style="fill-rule:nonzero;"/><path d="M75.922,137.397l0,17.436c0,0.783 0.193,1.295 0.579,1.534c0.386,0.24 0.877,0.36 1.474,0.36l0.473,0l0,6.508l-14.769,0l0,-6.508l0.684,0c0.62,0 1.079,-0.196 1.377,-0.588c0.298,-0.391 0.447,-0.815 0.447,-1.271l0,-8.981c0,-0.679 -0.213,-1.179 -0.64,-1.5c-0.427,-0.322 -0.921,-0.482 -1.482,-0.482l-0.386,0l0,-6.508l12.243,0Z" style="fill-rule:nonzero;"/><path d="M89.625,146.343c-0.596,0 -1.108,0.044 -1.535,0.131c-0.427,0.088 -0.792,0.19 -1.096,0.307c-0.304,0.117 -0.556,0.249 -0.754,0.395c-0.199,0.146 -0.375,0.278 -0.527,0.395l0.176,0.175c0.222,-0.117 0.465,-0.234 0.728,-0.351c0.263,-0.117 0.599,-0.175 1.008,-0.175c0.69,0 1.287,0.225 1.789,0.675c0.503,0.45 0.755,1.167 0.755,2.149c0,0.935 -0.383,1.687 -1.149,2.254c-0.766,0.567 -1.792,0.851 -3.079,0.851c-1.228,0 -2.207,-0.354 -2.938,-1.062c-0.731,-0.707 -1.096,-1.71 -1.096,-3.008c0,-0.713 0.199,-1.424 0.596,-2.131c0.398,-0.708 1.015,-1.342 1.851,-1.903c0.836,-0.562 1.9,-1.024 3.192,-1.386c1.293,-0.363 2.851,-0.544 4.675,-0.544c2.175,0 3.953,0.205 5.333,0.614c1.379,0.409 2.452,0.936 3.218,1.579c0.766,0.643 1.292,1.374 1.579,2.192c0.286,0.819 0.43,1.643 0.43,2.474l0,6.858c0,1.064 0.035,1.786 0.105,2.167c0.07,0.38 0.333,0.57 0.789,0.57c0.363,0 0.617,-0.173 0.763,-0.518c0.147,-0.345 0.22,-0.938 0.22,-1.78l0,-2.193l1.999,0l0,2.228c0,1.052 -0.087,1.985 -0.263,2.798c-0.175,0.812 -0.509,1.508 -1,2.087c-0.491,0.579 -1.157,1.017 -1.999,1.316c-0.842,0.298 -1.918,0.447 -3.228,0.447c-1.181,0 -2.16,-0.126 -2.938,-0.377c-0.778,-0.252 -1.395,-0.565 -1.851,-0.939c-0.456,-0.374 -0.78,-0.763 -0.973,-1.166c-0.193,-0.404 -0.29,-0.763 -0.29,-1.079l-0.28,0c-0.07,0.479 -0.272,0.936 -0.605,1.368c-0.334,0.433 -0.796,0.816 -1.386,1.149c-0.591,0.333 -1.298,0.602 -2.123,0.807c-0.824,0.205 -1.762,0.307 -2.815,0.307c-1.006,0 -1.921,-0.096 -2.745,-0.289c-0.824,-0.193 -1.526,-0.497 -2.105,-0.913c-0.579,-0.415 -1.029,-0.953 -1.351,-1.613c-0.321,-0.661 -0.482,-1.447 -0.482,-2.36c0,-1.122 0.316,-2.008 0.947,-2.657c0.632,-0.649 1.427,-1.164 2.386,-1.544c0.959,-0.38 2.002,-0.69 3.131,-0.929c1.128,-0.24 2.172,-0.529 3.131,-0.869c0.959,-0.339 1.754,-0.777 2.386,-1.315c0.631,-0.538 0.947,-1.298 0.947,-2.28c0,-0.878 -0.275,-1.582 -0.825,-2.114c-0.549,-0.532 -1.45,-0.798 -2.701,-0.798Zm3.526,7.595c-0.258,0.374 -0.579,0.675 -0.965,0.903c-0.386,0.228 -0.757,0.451 -1.114,0.667c-0.357,0.216 -0.666,0.473 -0.93,0.772c-0.263,0.298 -0.394,0.698 -0.394,1.201c0,0.386 0.105,0.734 0.316,1.044c0.21,0.31 0.619,0.465 1.227,0.465c0.55,0 0.997,-0.214 1.342,-0.64c0.345,-0.427 0.518,-1.027 0.518,-1.798l0,-2.614Z" style="fill-rule:nonzero;"/><path d="M119.005,137.397l0,6.508l5.244,0l0,6.507l-5.244,0l0,5.385c0,0.772 0.108,1.404 0.324,1.895c0.216,0.491 0.664,0.736 1.342,0.736c0.374,0 0.675,-0.073 0.903,-0.219c0.228,-0.146 0.41,-0.339 0.544,-0.579c0.135,-0.239 0.219,-0.514 0.255,-0.824c0.035,-0.31 0.052,-0.646 0.052,-1.009l0,-2.613l2.017,0l0,2.824c0,1.134 -0.12,2.192 -0.359,3.175c-0.24,0.982 -0.649,1.83 -1.228,2.543c-0.579,0.713 -1.365,1.281 -2.359,1.702c-0.994,0.421 -2.246,0.631 -3.754,0.631c-1.672,0 -3.006,-0.205 -3.999,-0.614c-0.994,-0.409 -1.749,-0.97 -2.263,-1.684c-0.515,-0.713 -0.851,-1.561 -1.009,-2.543c-0.158,-0.983 -0.237,-2.053 -0.237,-3.21l0,-5.596l-2.754,0l0,-5.788c0.877,0 1.693,-0.19 2.447,-0.57c0.755,-0.38 1.404,-0.907 1.947,-1.579c0.544,-0.672 0.965,-1.441 1.263,-2.307c0.299,-0.865 0.448,-1.789 0.448,-2.771l6.42,0Z" style="fill-rule:nonzero;"/><path d="M125.512,163.235l0,-6.508c1.029,0 1.766,-0.137 2.211,-0.412c0.444,-0.275 0.666,-0.793 0.666,-1.553l0,-8.875c0,-0.772 -0.222,-1.295 -0.666,-1.57c-0.445,-0.275 -1.182,-0.412 -2.211,-0.412l0,-6.508l24.277,0l0,9.928l-6.139,0c0,-0.725 -0.035,-1.307 -0.106,-1.745c-0.07,-0.439 -0.201,-0.784 -0.394,-1.035c-0.193,-0.252 -0.45,-0.421 -0.772,-0.509c-0.322,-0.088 -0.722,-0.131 -1.202,-0.131l-2.438,0l0,5.069l5.596,0l0,3.087l-5.596,0l0,2.701c0,0.62 0.155,1.103 0.465,1.448c0.31,0.344 0.874,0.517 1.693,0.517l1.789,0l0,6.508l-17.173,0Z" style="fill-rule:nonzero;"/><path d="M164.54,143.905l0,10.928c0,0.783 0.193,1.295 0.578,1.534c0.386,0.24 0.877,0.36 1.474,0.36l0.473,0l0,6.508l-14.769,0l0,-6.508l0.684,0c0.62,0 1.079,-0.196 1.377,-0.588c0.298,-0.391 0.447,-0.815 0.447,-1.271l0,-2.474c0,-0.678 -0.213,-1.178 -0.64,-1.499c-0.427,-0.322 -0.921,-0.483 -1.482,-0.483l-0.386,0l0,-6.507l12.244,0Zm-10.016,-4.316c0,-1.005 0.383,-1.865 1.149,-2.578c0.766,-0.713 1.856,-1.07 3.271,-1.07c1.438,0 2.546,0.357 3.324,1.07c0.778,0.713 1.166,1.573 1.166,2.578c0,1.029 -0.388,1.898 -1.166,2.605c-0.778,0.708 -1.886,1.061 -3.324,1.061c-1.415,0 -2.505,-0.353 -3.271,-1.061c-0.766,-0.707 -1.149,-1.576 -1.149,-2.605Z" style="fill-rule:nonzero;"/><path d="M170.452,151.921c-0.245,-0.526 -0.529,-0.909 -0.85,-1.149c-0.322,-0.24 -0.927,-0.36 -1.816,-0.36l0,-6.507l14.086,0l0,6.507c-0.749,0 -1.231,0.108 -1.448,0.325c-0.216,0.216 -0.236,0.552 -0.061,1.008l1.894,5.385l0.264,0l1.999,-5.385c0.176,-0.432 0.155,-0.763 -0.061,-0.991c-0.216,-0.228 -0.699,-0.342 -1.447,-0.342l0,-6.507l9.77,0l0,6.507c-0.854,0 -1.456,0.114 -1.807,0.342c-0.35,0.228 -0.643,0.617 -0.877,1.167l-4.701,11.314l-10.244,0l-4.701,-11.314Z" style="fill-rule:nonzero;"/></g><path d="M212.32,143.895c-0.158,0.531 -0.345,1.031 -0.56,1.502c-0.308,0.676 -0.767,1.252 -1.378,1.73c-0.612,0.478 -1.432,0.855 -2.462,1.131c-1.029,0.276 -2.344,0.414 -3.943,0.414c-0.938,0 -1.666,-0.023 -2.185,-0.069c-0.52,-0.046 -0.949,-0.111 -1.29,-0.193l0,1.833c0.175,-0.055 0.357,-0.101 0.545,-0.137c0.188,-0.037 0.409,-0.074 0.662,-0.111c0.253,-0.037 0.549,-0.064 0.889,-0.082c0.34,-0.019 0.745,-0.028 1.214,-0.028c1.764,0 3.247,0.193 4.446,0.579c1.2,0.386 2.156,0.912 2.868,1.579c0.713,0.666 1.22,1.438 1.524,2.316c0.303,0.878 0.455,1.804 0.455,2.778c0,1.002 -0.193,1.922 -0.579,2.758c-0.386,0.837 -0.979,1.565 -1.779,2.186c-0.8,0.62 -1.813,1.105 -3.04,1.454c-1.227,0.349 -2.687,0.524 -4.378,0.524c-2.84,0 -5.06,-0.494 -6.66,-1.482c-1.599,-0.988 -2.399,-2.388 -2.399,-4.199c0,-0.652 0.104,-1.224 0.31,-1.716c0.207,-0.492 0.481,-0.892 0.821,-1.2c0.34,-0.308 0.726,-0.538 1.158,-0.689c0.432,-0.152 0.864,-0.228 1.296,-0.228c1.076,0 1.875,0.226 2.399,0.676c0.524,0.45 0.786,1.034 0.786,1.751c0,0.717 -0.207,1.259 -0.62,1.627c-0.414,0.368 -0.901,0.634 -1.462,0.8c0.451,0.23 0.929,0.404 1.434,0.524c0.506,0.119 1.071,0.179 1.696,0.179c1.241,0 2.172,-0.329 2.792,-0.986c0.621,-0.657 0.931,-1.496 0.931,-2.516c0,-1.067 -0.343,-1.882 -1.027,-2.448c-0.685,-0.565 -1.611,-0.848 -2.779,-0.848c-0.772,0 -1.392,0.079 -1.861,0.235c-0.469,0.156 -0.818,0.285 -1.048,0.386l-3.447,0l0,-10.03l16.671,0Z" style="fill:#ee5537;fill-rule:nonzero;"/><g><path d="M197.529,139.333l0.005,0l1.331,-3.291l0.618,0l0,3.976l-0.404,0l0,-3.454l-0.011,0l-1.438,3.454l-0.213,0l-1.438,-3.454l-0.011,0l0,3.454l-0.405,0l0,-3.976l0.618,0l1.348,3.291Z" style="fill:#ee5537;fill-rule:nonzero;"/><path d="M202.005,140.119c-0.3,0 -0.545,-0.051 -0.736,-0.154c-0.191,-0.103 -0.343,-0.233 -0.455,-0.391c-0.112,-0.157 -0.19,-0.328 -0.233,-0.513c-0.043,-0.186 -0.065,-0.361 -0.065,-0.526l0,-2.493l0.405,0l0,2.449c0,0.16 0.019,0.317 0.056,0.468c0.037,0.152 0.098,0.287 0.182,0.405c0.085,0.118 0.196,0.213 0.335,0.286c0.138,0.073 0.309,0.11 0.511,0.11c0.202,0 0.372,-0.037 0.511,-0.11c0.138,-0.073 0.25,-0.168 0.334,-0.286c0.084,-0.118 0.145,-0.253 0.182,-0.405c0.038,-0.151 0.057,-0.308 0.057,-0.468l0,-2.449l0.404,0l0,2.493c0,0.165 -0.022,0.34 -0.065,0.526c-0.043,0.185 -0.12,0.356 -0.233,0.513c-0.112,0.158 -0.265,0.288 -0.457,0.391c-0.193,0.103 -0.438,0.154 -0.733,0.154Z" style="fill:#ee5537;fill-rule:nonzero;"/><path d="M206.452,136.682c-0.086,-0.12 -0.196,-0.216 -0.331,-0.289c-0.135,-0.073 -0.298,-0.11 -0.488,-0.11c-0.098,0 -0.197,0.015 -0.298,0.045c-0.101,0.03 -0.193,0.076 -0.275,0.138c-0.083,0.062 -0.149,0.139 -0.2,0.233c-0.05,0.094 -0.075,0.204 -0.075,0.331c0,0.128 0.024,0.232 0.073,0.315c0.048,0.082 0.113,0.152 0.193,0.21c0.081,0.058 0.173,0.106 0.275,0.144c0.103,0.037 0.211,0.075 0.323,0.112c0.139,0.045 0.278,0.094 0.419,0.146c0.14,0.052 0.267,0.121 0.379,0.205c0.112,0.084 0.204,0.191 0.275,0.32c0.071,0.129 0.107,0.293 0.107,0.491c0,0.199 -0.039,0.37 -0.115,0.514c-0.077,0.144 -0.176,0.263 -0.298,0.357c-0.122,0.094 -0.26,0.163 -0.416,0.208c-0.155,0.045 -0.311,0.067 -0.469,0.067c-0.119,0 -0.239,-0.012 -0.359,-0.036c-0.12,-0.025 -0.234,-0.061 -0.343,-0.11c-0.108,-0.049 -0.209,-0.11 -0.303,-0.185c-0.093,-0.075 -0.176,-0.161 -0.247,-0.259l0.348,-0.258c0.086,0.142 0.207,0.261 0.363,0.357c0.155,0.095 0.337,0.143 0.547,0.143c0.101,0 0.204,-0.016 0.309,-0.048c0.105,-0.032 0.199,-0.08 0.284,-0.146c0.084,-0.065 0.153,-0.146 0.207,-0.241c0.055,-0.096 0.082,-0.207 0.082,-0.334c0,-0.139 -0.027,-0.254 -0.082,-0.346c-0.054,-0.092 -0.126,-0.168 -0.216,-0.23c-0.09,-0.062 -0.193,-0.113 -0.309,-0.155c-0.116,-0.041 -0.237,-0.082 -0.365,-0.123c-0.131,-0.041 -0.26,-0.088 -0.387,-0.14c-0.128,-0.053 -0.242,-0.121 -0.343,-0.205c-0.101,-0.085 -0.182,-0.189 -0.244,-0.312c-0.062,-0.124 -0.093,-0.275 -0.093,-0.455c0,-0.191 0.039,-0.356 0.115,-0.494c0.077,-0.139 0.177,-0.253 0.301,-0.343c0.123,-0.09 0.26,-0.155 0.41,-0.196c0.149,-0.042 0.297,-0.062 0.443,-0.062c0.27,0 0.5,0.048 0.691,0.143c0.191,0.096 0.335,0.209 0.433,0.34l-0.321,0.258Z" style="fill:#ee5537;fill-rule:nonzero;"/><rect x="207.694" y="136.042" width="0.404" height="3.976" style="fill:#ee5537;fill-rule:nonzero;"/><path d="M212.501,139.378c-0.068,0.101 -0.149,0.196 -0.245,0.286c-0.095,0.09 -0.205,0.169 -0.331,0.236c-0.125,0.067 -0.264,0.121 -0.415,0.16c-0.152,0.039 -0.318,0.059 -0.497,0.059c-0.3,0 -0.577,-0.052 -0.832,-0.157c-0.254,-0.105 -0.473,-0.25 -0.657,-0.435c-0.183,-0.186 -0.326,-0.406 -0.429,-0.66c-0.103,-0.255 -0.155,-0.534 -0.155,-0.837c0,-0.303 0.053,-0.582 0.158,-0.837c0.104,-0.254 0.249,-0.474 0.435,-0.66c0.185,-0.185 0.404,-0.33 0.657,-0.435c0.253,-0.105 0.527,-0.157 0.823,-0.157c0.146,0 0.289,0.015 0.429,0.045c0.141,0.03 0.273,0.072 0.396,0.126c0.124,0.054 0.236,0.12 0.337,0.197c0.101,0.076 0.185,0.164 0.253,0.261l-0.337,0.247c-0.041,-0.064 -0.097,-0.127 -0.166,-0.191c-0.069,-0.064 -0.151,-0.12 -0.244,-0.168c-0.094,-0.049 -0.196,-0.088 -0.306,-0.118c-0.111,-0.03 -0.23,-0.045 -0.357,-0.045c-0.258,0 -0.489,0.046 -0.693,0.14c-0.204,0.094 -0.378,0.22 -0.52,0.379c-0.142,0.159 -0.251,0.344 -0.326,0.553c-0.074,0.21 -0.112,0.431 -0.112,0.663c0,0.232 0.038,0.453 0.115,0.663c0.077,0.209 0.186,0.394 0.329,0.553c0.142,0.159 0.315,0.285 0.519,0.379c0.204,0.094 0.434,0.14 0.688,0.14c0.229,0 0.446,-0.046 0.652,-0.14c0.206,-0.094 0.378,-0.243 0.516,-0.449l0.315,0.202Z" style="fill:#ee5537;fill-rule:nonzero;"/></g></g></svg>