<?xml version="1.0" encoding="UTF-8" standalone="no"?><!DOCTYPE svg PUBLIC "-//W3C//DTD SVG 1.1//EN" "http://www.w3.org/Graphics/SVG/1.1/DTD/svg11.dtd"><svg width="100%" height="100%" viewBox="0 0 512 512" version="1.1" xmlns="http://www.w3.org/2000/svg" xmlns:xlink="http://www.w3.org/1999/xlink" xml:space="preserve" xmlns:serif="http://www.serif.com/" style="fill-rule:evenodd;clip-rule:evenodd;stroke-linejoin:round;stroke-miterlimit:1.41421;"><path d="M256.828,0.001c64.711,0.308 128.485,25.914 175.204,70.194c38.66,36.641 65.625,85.608 75.533,138.154c12.835,68.066 -3.256,141.247 -44.169,197.681c-37.72,52.03 -95.648,89.241 -158.961,101.386c-64.386,12.35 -133.379,-1.09 -188.316,-37.028c-60.838,-39.798 -103.501,-106.291 -113.633,-178.606c-9.25,-66.014 8.282,-135.28 48.4,-188.91c46.14,-61.681 120.17,-101.051 199.334,-102.808c2.201,-0.049 4.401,-0.066 6.608,-0.063Zm65.417,469.971c58.744,-18.458 109.536,-61.857 136.256,-118.15c29.355,-61.845 28.354,-137.461 -3.625,-198.934c-36.746,-70.638 -112.725,-119.551 -195.252,-120.859c-1.45,-0.023 -2.9,-0.03 -4.35,-0.028c-56.164,0.267 -111.351,22.134 -152.313,60.497c-52.223,48.908 -79.028,123.381 -68.686,195.541c9.067,63.264 46.724,121.591 100.494,156.306c17.874,11.54 37.433,20.378 57.849,26.358c6.476,-11.561 8.676,-32.33 9.339,-51.086c0.115,-3.259 -22.7,7.816 -47.689,-2.493c-39.001,-16.091 -30.182,-46.46 -61.078,-65.413c-3.373,-2.069 -7.03,-16.267 24.696,-4.721c10.137,3.69 24.233,38.031 45.356,41.903c22.643,4.15 38.758,-4.723 38.758,-5.393c0,-12.706 5.528,-22.631 14.488,-29.584c-53.367,-5.03 -99.897,-22.631 -104.488,-97.916c-1.874,-30.731 7.756,-54.568 24.101,-72.366c-13.406,-36.232 3.569,-58.506 3.569,-58.506c0,0 29.926,-3.3 59.633,22.687c17.139,-4.636 34.224,-7.815 51.697,-7.815c20.236,0 42.547,2.904 62.498,7.83c24.662,-24.534 59.197,-22.427 59.197,-22.427c0,0 14.204,35.25 4.167,56.897c14.265,15.756 23.097,36.975 23.138,65.2c0.06,41.525 -0.62,98.42 -101.858,107.456c7.727,6.709 12.654,15.948 13.858,27.544c1.599,15.397 -5.366,64.926 10.245,87.472Z" style="fill:#65568b;fill-rule:nonzero;"/></svg>