<svg width="100%" height="100%" viewBox="0 0 859 596" version="1.1" xmlns="http://www.w3.org/2000/svg" xmlns:xlink="http://www.w3.org/1999/xlink" xml:space="preserve" xmlns:serif="http://www.serif.com/" fill-rule="evenodd" clip-rule="evenodd" stroke-linecap="round" stroke-linejoin="round" stroke-miterlimit="1.5"><rect id="Artboard3" x="0" y="0" width="858.24" height="595.276" fill="none"/><path d="M463.519,254.764c0,0 0,0 0,0c12.566,-9.584 44.666,-9.663 69.463,-10.382c21.751,-0.631 65.806,3.374 71.627,12.178c6.644,10.048 5.385,23.739 3.818,42.211c-1.064,12.532 -5.093,35.561 -12.287,42.027c-8.473,7.614 -26.389,11.771 -57.234,11.898c-30.845,0.127 -48.563,-3.002 -61.761,-11.281c-12.057,-7.565 -15.412,-20.201 -19.562,-39.529c-4.075,-18.98 -6.296,-37.793 5.936,-47.122Zm-68.798,0c0,0 0,0 0,0c-12.566,-9.584 -44.666,-9.663 -69.463,-10.382c-21.751,-0.631 -65.806,3.374 -71.627,12.178c-6.644,10.048 -5.662,22.906 -3.338,42.689c1.468,12.491 4.965,35.249 11.807,41.549c8.38,7.716 26.389,11.771 57.234,11.898c30.845,0.127 48.563,-3.002 61.761,-11.281c12.057,-7.565 15.412,-20.201 19.562,-39.529c4.075,-18.98 6.296,-37.793 -5.936,-47.122Z" fill="none" stroke="#919191" stroke-width="1px"/><circle cx="422.874" cy="262.435" r="1.701" fill="none" stroke="#858585" stroke-width="0.5px"/><circle cx="429.038" cy="262.435" r="1.701" fill="none" stroke="#8c8c8c" stroke-width="0.5px"/><circle cx="435.202" cy="262.435" r="1.701" fill="none" stroke="#8c8c8c" stroke-width="0.5px"/><text x="402.831" y="224.893" font-family="'ArialMT', 'Arial', sans-serif" font-size="10px">Microphone</text><g><text x="9481.08" y="894.054" font-family="'ArialMT', 'Arial', sans-serif" font-size="41.667px" transform="matrix(0.24,0,0,0.24,-2097.03,60.7297)">Left Menu</text><text x="9481.08" y="937.084" font-family="'ArialMT', 'Arial', sans-serif" font-size="41.667px" transform="matrix(0.24,0,0,0.24,-2097.03,60.7297)">W<tspan x="9518.86px 9542.03px" y="937.084px 937.084px">ak</tspan>e Icon</text></g><rect x="428.471" y="230.4" width=".567" height="26.4"/><g><path d="M604.152,295.767l-0.377,-0.045l-0.045,0.377l0.377,0.045l0.045,-0.377Z" fill="#8d8d8d"/></g><g><text x="9481.08" y="894.054" font-family="'ArialMT', 'Arial', sans-serif" font-size="41.667px" transform="matrix(0.24,0,0,0.24,-1645.25,60.9697)">Right Menu</text><text x="9481.08" y="937.084" font-family="'ArialMT', 'Arial', sans-serif" font-size="41.667px" transform="matrix(0.24,0,0,0.24,-1645.25,60.9697)">W<tspan x="9518.86px 9542.03px" y="937.084px 937.084px">ak</tspan>e Icon</text></g><text x="373.345" y="114.809" font-family="'AvenirNext-Regular', 'Avenir Next', sans-serif" font-size="12px">Default Sleep Mode</text><path d="M264.12,260.64c2.318,0 4.2,1.882 4.2,4.2c0,2.318 -1.882,4.2 -4.2,4.2c-2.318,0 -4.2,-1.882 -4.2,-4.2c0,-2.318 1.882,-4.2 4.2,-4.2Zm0.72,6.48l-0.72,0.72l-0.72,-0.72l0,-0.62l0.72,0.72l0.72,-0.72l0,0.62Zm-1.44,-3.543l0.72,-0.698l0.72,0.741l0,2.583l-0.72,0.698l-0.72,-0.741l0,-2.583Zm0,-0.297l0,-0.72l0.72,-0.72l0.72,0.72l0,0.72l-0.72,-0.72l-0.72,0.72Z" fill="#b4b4b4"/><path d="M592.773,260.4c2.318,0 4.2,1.882 4.2,4.2c0,2.318 -1.882,4.2 -4.2,4.2c-2.318,0 -4.2,-1.882 -4.2,-4.2c0,-2.318 1.882,-4.2 4.2,-4.2Zm0.72,6.48l-0.72,0.72l-0.72,-0.72l0,-0.62l0.72,0.72l0.72,-0.72l0,0.62Zm-1.44,-3.543l0.72,-0.698l0.72,0.741l0,2.583l-0.72,0.698l-0.72,-0.741l0,-2.583Zm0,-0.297l0,-0.72l0.72,-0.72l0.72,0.72l0,0.72l-0.72,-0.72l-0.72,0.72Z" fill="#b4b4b4"/><path d="M391.962,269.243l-2.175,-2.177c0.399,-0.499 0.639,-1.134 0.639,-1.825c0,-1.614 -1.307,-2.921 -2.917,-2.921c-1.612,0 -2.917,1.309 -2.917,2.921c0,1.612 1.307,2.921 2.917,2.921c0.695,0 1.332,-0.243 1.833,-0.648l2.172,2.176l0.448,-0.447Zm-6.299,-2.152c-0.494,-0.493 -0.764,-1.149 -0.764,-1.848c0,-0.699 0.272,-1.355 0.764,-1.848c0.491,-0.493 1.149,-0.768 1.846,-0.768c0.697,0 1.353,0.273 1.846,0.766c0.494,0.493 0.764,1.15 0.764,1.848c0,0.699 -0.272,1.355 -0.764,1.848c-0.493,0.494 -1.149,0.766 -1.846,0.766c-0.697,0.002 -1.353,-0.27 -1.846,-0.764Z" fill="#898989" fill-rule="nonzero"/><text x="326.79" y="68.835" font-family="'AvenirNext-Regular', 'Avenir Next', sans-serif" font-size="18px">V<tspan x="337.68px 342.18px" y="68.835px 68.835px">is</tspan>ual <tspan x="378.954px 389.412px 400.41px" y="68.835px 68.835px 68.835px">Voi</tspan>ce Intermesh Ui</text><path d="M440.574,27.366c0,-1.952 -1.584,-3.536 -3.536,-3.536l-15.604,0c-1.952,0 -3.537,1.584 -3.537,3.536l0,15.604c0,1.952 1.585,3.537 3.537,3.537l15.604,0c1.952,0 3.536,-1.585 3.536,-3.537l0,-15.604Z" fill="#191919"/><path d="M436.046,30.615c0,-0.151 -0.06,-0.297 -0.167,-0.404c-0.107,-0.107 -0.252,-0.167 -0.404,-0.167c-0.506,0 -1.241,0 -1.74,0c-0.301,0 -0.545,0.244 -0.545,0.545c0,0.274 0,0.606 0,0.88c0,0.144 0.057,0.282 0.159,0.384c0.102,0.102 0.241,0.159 0.385,0.159c0.828,0 2.312,0 2.312,0c0,0 0,-0.816 0,-1.397Zm-2.029,2.093c-0.224,0 -0.438,0.092 -0.592,0.255c-0.154,0.163 -0.234,0.383 -0.221,0.607c0.016,0.319 0.022,0.67 0.022,1.094l0,3.672c0,0.381 -0.005,0.708 -0.019,1.013c-0.013,0.245 0.076,0.485 0.246,0.663c0.169,0.179 0.404,0.279 0.65,0.279c0.355,0.001 0.756,0.001 1.105,0.001c0.227,0 0.444,-0.093 0.6,-0.259c0.156,-0.165 0.238,-0.387 0.225,-0.613c-0.017,-0.324 -0.023,-0.679 -0.023,-1.096l0,-3.66c0,-0.477 0.007,-0.852 0.023,-1.174c0.013,-0.202 -0.058,-0.401 -0.196,-0.549c-0.139,-0.148 -0.333,-0.232 -0.536,-0.232c-0.397,-0.001 -0.876,-0.001 -1.284,-0.001Z" fill="#fbfbfb" fill-rule="nonzero"/><path d="M422.473,31.036c-0.085,-0.225 -0.054,-0.478 0.082,-0.676c0.137,-0.198 0.363,-0.316 0.603,-0.316c0.519,0 1.127,0 1.581,0c0.4,0 0.754,0.26 0.873,0.642c0.333,1.064 1.011,3.232 1.508,4.822c0.082,0.26 0.323,0.437 0.595,0.436c0.272,-0.001 0.513,-0.178 0.593,-0.439c0.491,-1.596 1.162,-3.774 1.488,-4.832c0.116,-0.374 0.461,-0.629 0.852,-0.629c0.358,0 0.814,0 1.241,0c0.3,0 0.581,0.147 0.752,0.393c0.171,0.246 0.211,0.56 0.107,0.841c-0.834,2.248 -2.569,6.922 -3.15,8.489c-0.117,0.316 -0.418,0.525 -0.755,0.525c-0.626,0 -1.637,0 -2.278,0c-0.358,0 -0.678,-0.221 -0.805,-0.556c-0.626,-1.657 -2.485,-6.578 -3.287,-8.7Z" fill="#fbfbfb" fill-rule="nonzero"/></svg>