<?xml version="1.0" encoding="UTF-8" standalone="no"?><!DOCTYPE svg PUBLIC "-//W3C//DTD SVG 1.1//EN" "http://www.w3.org/Graphics/SVG/1.1/DTD/svg11.dtd"><svg width="100%" height="100%" viewBox="0 0 250 300" version="1.1" xmlns="http://www.w3.org/2000/svg" xmlns:xlink="http://www.w3.org/1999/xlink" xml:space="preserve" xmlns:serif="http://www.serif.com/" style="fill-rule:evenodd;clip-rule:evenodd;stroke-linecap:round;stroke-linejoin:round;stroke-miterlimit:1.5;"><g id="glasses-ui" serif:id="glasses ui"><path d="M119.901,144.983c-0.532,0.117 -1.019,0.403 -1.381,0.823c-0.486,0.564 -0.701,1.314 -0.586,2.05c2.308,14.792 -4.34,32.108 -14.179,37.693c-15.049,8.543 -57.722,8.058 -67.45,-0.441c-4.54,-3.966 -5.859,-21.512 -6.141,-34.696c-0.036,-1.835 -1.25,-3.437 -3.006,-3.97c-0.29,-0.088 -0.576,-0.175 -0.845,-0.257c-0.978,-0.296 -1.683,-1.149 -1.79,-2.164c-0.296,-2.788 -0.882,-8.311 -1.136,-10.701c-0.032,-0.302 0.059,-0.604 0.253,-0.839c0.193,-0.234 0.473,-0.38 0.776,-0.406c2,-0.169 5.911,-0.5 5.911,-0.5c4.555,-0.628 24.625,-3.086 42.667,-3.086c24.13,0 44.204,4.915 45.524,5.245l6.482,0.009l6.482,-0.009c1.32,-0.33 21.394,-5.245 45.524,-5.245c18.042,0 38.112,2.458 42.667,3.086c0,0 3.911,0.331 5.911,0.5c0.303,0.026 0.583,0.172 0.776,0.406c0.194,0.235 0.285,0.537 0.253,0.839c-0.254,2.39 -0.84,7.913 -1.136,10.701c-0.107,1.015 -0.812,1.868 -1.79,2.164c-0.269,0.082 -0.555,0.169 -0.845,0.257c-1.756,0.533 -2.97,2.135 -3.006,3.97c-0.282,13.184 -1.601,30.73 -6.141,34.696c-9.728,8.499 -52.401,8.984 -67.45,0.441c-9.839,-5.585 -16.487,-22.901 -14.179,-37.693c0.115,-0.736 -0.1,-1.486 -0.586,-2.05c-0.362,-0.42 -0.849,-0.706 -1.381,-0.823l-5.099,-0.032l-5.099,0.032Zm22.236,-6.235c0,0 0,0 0,0c6.26,-4.775 22.252,-4.815 34.605,-5.173c10.836,-0.314 32.784,1.681 35.684,6.067c3.31,5.006 2.126,8.755 1.663,21.267c-0.233,6.262 -2.298,17.478 -5.883,20.699c-4.22,3.794 -13.146,5.864 -28.512,5.927c-15.367,0.064 -24.194,-1.495 -30.769,-5.62c-6.006,-3.768 -7.678,-10.063 -9.745,-19.692c-2.03,-9.456 -3.137,-18.828 2.957,-23.475Zm-34.274,0c0,0 0,0 0,0c-6.26,-4.775 -22.252,-4.815 -34.605,-5.173c-10.836,-0.314 -32.784,1.681 -35.684,6.067c-3.31,5.006 -2.126,8.755 -1.663,21.267c0.233,6.262 2.298,17.478 5.883,20.699c4.22,3.794 13.146,5.864 28.512,5.927c15.367,0.064 24.194,-1.495 30.769,-5.62c6.006,-3.768 7.678,-10.063 9.745,-19.692c2.03,-9.456 3.137,-18.828 -2.957,-23.475Zm114.839,0.333c-0.546,0 -0.988,0.443 -0.988,0.988c0,0.546 0.442,0.989 0.988,0.989c0.546,0 0.989,-0.443 0.989,-0.989c0,-0.545 -0.443,-0.988 -0.989,-0.988Zm-195.404,0c0.546,0 0.988,0.443 0.988,0.988c0,0.546 -0.442,0.989 -0.988,0.989c-0.546,0 -0.989,-0.443 -0.989,-0.989c0,-0.545 0.443,-0.988 0.989,-0.988Zm195.404,-5.022c-0.546,0 -0.988,0.443 -0.988,0.989c0,0.545 0.442,0.988 0.988,0.988c0.546,0 0.989,-0.443 0.989,-0.988c0,-0.546 -0.443,-0.989 -0.989,-0.989Zm-195.404,0c0.546,0 0.988,0.443 0.988,0.989c0,0.545 -0.442,0.988 -0.988,0.988c-0.546,0 -0.989,-0.443 -0.989,-0.988c0,-0.546 0.443,-0.989 0.989,-0.989Z" style="fill:url(#_Linear1);"/><circle cx="121.929" cy="142.2" r="0.847" style="fill:url(#_Linear2);stroke:url(#_Radial3);stroke-width:0.42px;"/><circle cx="125" cy="142.2" r="0.847" style="fill:url(#_Linear4);stroke:url(#_Radial5);stroke-width:0.42px;"/><circle cx="128.071" cy="142.2" r="0.847" style="fill:url(#_Linear6);stroke:url(#_Radial7);stroke-width:0.42px;"/><path d="M144.6,33.159c0,-3.374 -2.74,-6.114 -6.114,-6.114l-26.972,0c-3.374,0 -6.114,2.74 -6.114,6.114l0,26.972c0,3.374 2.74,6.114 6.114,6.114l26.972,0c3.374,0 6.114,-2.74 6.114,-6.114l0,-26.972Z" style="fill:#191919;"/><path d="M136.772,38.775c0,-0.262 -0.104,-0.513 -0.289,-0.698c-0.185,-0.185 -0.436,-0.289 -0.698,-0.289c-0.875,0 -2.145,0 -3.007,0c-0.521,0 -0.942,0.422 -0.942,0.942c0,0.474 0,1.047 0,1.52c0,0.249 0.099,0.488 0.275,0.664c0.176,0.177 0.415,0.276 0.664,0.276c1.432,0 3.997,0 3.997,0c0,0 0,-1.411 0,-2.415Zm-3.507,3.618c-0.387,0 -0.758,0.159 -1.024,0.441c-0.266,0.282 -0.404,0.661 -0.382,1.048c0.028,0.552 0.039,1.159 0.039,1.892l0,6.347c0,0.658 -0.01,1.225 -0.034,1.751c-0.021,0.424 0.132,0.839 0.425,1.147c0.293,0.308 0.699,0.482 1.124,0.482c0.615,0.001 1.307,0.001 1.911,0.001c0.392,0 0.767,-0.161 1.037,-0.447c0.27,-0.285 0.41,-0.669 0.388,-1.061c-0.028,-0.56 -0.039,-1.172 -0.039,-1.894l0,-6.326c0,-0.825 0.012,-1.474 0.04,-2.03c0.023,-0.35 -0.1,-0.693 -0.34,-0.949c-0.24,-0.256 -0.575,-0.401 -0.925,-0.401c-0.686,-0.001 -1.515,-0.001 -2.22,-0.001Z" style="fill:#fbfbfb;fill-rule:nonzero;"/><path d="M113.309,39.502c-0.147,-0.389 -0.093,-0.825 0.143,-1.168c0.237,-0.342 0.626,-0.546 1.042,-0.546c0.896,0 1.948,0 2.732,0c0.692,0 1.304,0.449 1.51,1.11c0.575,1.838 1.748,5.587 2.607,8.334c0.141,0.45 0.557,0.755 1.028,0.754c0.471,-0.001 0.886,-0.308 1.025,-0.758c0.85,-2.759 2.009,-6.524 2.573,-8.353c0.199,-0.646 0.796,-1.087 1.472,-1.087c0.619,0 1.407,0 2.146,0c0.518,0 1.003,0.253 1.299,0.679c0.296,0.425 0.365,0.968 0.185,1.454c-1.442,3.886 -4.44,11.965 -5.445,14.674c-0.203,0.545 -0.723,0.907 -1.305,0.907c-1.083,0 -2.83,0 -3.937,0c-0.619,0 -1.173,-0.382 -1.392,-0.961c-1.082,-2.865 -4.297,-11.371 -5.683,-15.039Z" style="fill:#fbfbfb;fill-rule:nonzero;"/></g><defs><linearGradient id="_Linear1" x1="0" y1="0" x2="1" y2="0" gradientUnits="userSpaceOnUse" gradientTransform="matrix(108.031,-63.2357,63.2357,108.031,118.587,191.724)"><stop offset="0" style="stop-color:#1f1f1f;stop-opacity:1"/><stop offset="0.36" style="stop-color:#272727;stop-opacity:1"/><stop offset="0.67" style="stop-color:#424242;stop-opacity:1"/><stop offset="0.82" style="stop-color:#4a4a4a;stop-opacity:1"/><stop offset="1" style="stop-color:#4c4c4c;stop-opacity:1"/></linearGradient><linearGradient id="_Linear2" x1="0" y1="0" x2="1" y2="0" gradientUnits="userSpaceOnUse" gradientTransform="matrix(0.690083,-1.19564,1.19564,0.690083,121.602,142.548)"><stop offset="0" style="stop-color:#000;stop-opacity:1"/><stop offset="1" style="stop-color:#4b4b4b;stop-opacity:1"/></linearGradient><radialGradient id="_Radial3" cx="0" cy="0" r="1" gradientUnits="userSpaceOnUse" gradientTransform="matrix(1.69461,0,0,1.69461,121.082,142.2)"><stop offset="0" style="stop-color:#737373;stop-opacity:1"/><stop offset="1" style="stop-color:#151515;stop-opacity:1"/></radialGradient><linearGradient id="_Linear4" x1="0" y1="0" x2="1" y2="0" gradientUnits="userSpaceOnUse" gradientTransform="matrix(0.652425,-1.19564,1.19564,0.652425,124.711,142.548)"><stop offset="0" style="stop-color:#000;stop-opacity:1"/><stop offset="1" style="stop-color:#4b4b4b;stop-opacity:1"/></linearGradient><radialGradient id="_Radial5" cx="0" cy="0" r="1" gradientUnits="userSpaceOnUse" gradientTransform="matrix(1.69461,0,0,1.69461,124.153,142.2)"><stop offset="0" style="stop-color:#737373;stop-opacity:1"/><stop offset="1" style="stop-color:#151515;stop-opacity:1"/></radialGradient><linearGradient id="_Linear6" x1="0" y1="0" x2="1" y2="0" gradientUnits="userSpaceOnUse" gradientTransform="matrix(0.614767,-1.31521,1.31521,0.614767,127.819,142.668)"><stop offset="0" style="stop-color:#000;stop-opacity:1"/><stop offset="1" style="stop-color:#4b4b4b;stop-opacity:1"/></linearGradient><radialGradient id="_Radial7" cx="0" cy="0" r="1" gradientUnits="userSpaceOnUse" gradientTransform="matrix(1.69461,0,0,1.69461,127.224,142.2)"><stop offset="0" style="stop-color:#737373;stop-opacity:1"/><stop offset="1" style="stop-color:#151515;stop-opacity:1"/></radialGradient></defs></svg>