<?xml version="1.0" encoding="UTF-8" standalone="no"?><!DOCTYPE svg PUBLIC "-//W3C//DTD SVG 1.1//EN" "http://www.w3.org/Graphics/SVG/1.1/DTD/svg11.dtd"><svg width="100%" height="100%" viewBox="0 0 842 596" version="1.1" xmlns="http://www.w3.org/2000/svg" xmlns:xlink="http://www.w3.org/1999/xlink" xml:space="preserve" xmlns:serif="http://www.serif.com/" style="fill-rule:evenodd;clip-rule:evenodd;stroke-linecap:round;stroke-linejoin:round;stroke-miterlimit:1.5;"><path id="Artboard1" d="M0,0l0,595.276l841.89,0l0,-595.276l-841.89,0Z" style="fill:none;"/><path d="M410.825,266.967c-1.068,0.234 -2.044,0.809 -2.771,1.653c-0.976,1.132 -1.407,2.637 -1.177,4.114c4.633,29.692 -8.711,64.451 -28.461,75.662c-30.208,17.148 -115.864,16.175 -135.392,-0.886c-9.113,-7.962 -11.761,-43.181 -12.327,-69.646c-0.073,-3.682 -2.509,-6.899 -6.033,-7.968c-0.583,-0.177 -1.157,-0.351 -1.697,-0.515c-1.962,-0.595 -3.377,-2.306 -3.593,-4.345c-0.594,-5.597 -1.77,-16.681 -2.279,-21.48c-0.065,-0.606 0.118,-1.213 0.506,-1.683c0.389,-0.47 0.95,-0.764 1.558,-0.816c4.015,-0.34 11.865,-1.004 11.865,-1.004c9.144,-1.259 49.43,-6.195 85.646,-6.195c48.435,0 88.729,9.867 91.38,10.529l13.011,0.018l13.01,-0.018c2.651,-0.662 42.945,-10.529 91.381,-10.529c36.215,0 76.502,4.936 85.646,6.195c0,0 7.849,0.664 11.865,1.004c0.608,0.052 1.169,0.346 1.557,0.816c0.388,0.47 0.571,1.077 0.507,1.683c-0.509,4.799 -1.685,15.883 -2.279,21.48c-0.216,2.039 -1.632,3.75 -3.593,4.345c-0.54,0.164 -1.115,0.338 -1.697,0.515c-3.525,1.069 -5.961,4.286 -6.034,7.968c-0.565,26.465 -3.214,61.684 -12.326,69.646c-19.528,17.061 -105.185,18.034 -135.393,0.886c-19.75,-11.211 -33.094,-45.97 -28.461,-75.662c0.23,-1.477 -0.2,-2.982 -1.176,-4.114c-0.728,-0.844 -1.703,-1.419 -2.772,-1.653l-10.235,-0.063l-10.236,0.063Zm44.635,-12.516c0,0 0,0 0,0c12.566,-9.584 44.665,-9.663 69.463,-10.382c21.751,-0.631 65.806,3.374 71.627,12.178c6.644,10.048 4.268,17.573 3.337,42.689c-0.466,12.568 -4.612,35.083 -11.807,41.549c-8.472,7.614 -26.388,11.771 -57.233,11.898c-30.845,0.127 -48.563,-3.002 -61.761,-11.282c-12.057,-7.564 -15.413,-20.201 -19.563,-39.528c-4.075,-18.98 -6.295,-37.793 5.937,-47.122Zm-68.798,0c0,0 0,0 0,0c-12.567,-9.584 -44.666,-9.663 -69.463,-10.382c-21.751,-0.631 -65.806,3.374 -71.627,12.178c-6.645,10.048 -4.269,17.573 -3.338,42.689c0.466,12.568 4.613,35.083 11.807,41.549c8.472,7.614 26.389,11.771 57.234,11.898c30.844,0.127 48.563,-3.002 61.76,-11.282c12.058,-7.564 15.413,-20.201 19.563,-39.528c4.075,-18.98 6.296,-37.793 -5.936,-47.122Zm230.515,0.669c-1.095,0 -1.984,0.889 -1.984,1.984c0,1.095 0.889,1.985 1.984,1.985c1.095,0 1.984,-0.89 1.984,-1.985c0,-1.095 -0.889,-1.984 -1.984,-1.984Zm-392.233,0c1.095,0 1.985,0.889 1.985,1.984c0,1.095 -0.89,1.985 -1.985,1.985c-1.095,0 -1.984,-0.89 -1.984,-1.985c0,-1.095 0.889,-1.984 1.984,-1.984Zm392.233,-10.08c-1.095,0 -1.984,0.889 -1.984,1.984c0,1.095 0.889,1.985 1.984,1.985c1.095,0 1.984,-0.89 1.984,-1.985c0,-1.095 -0.889,-1.984 -1.984,-1.984Zm-392.233,0c1.095,0 1.985,0.889 1.985,1.984c0,1.095 -0.89,1.985 -1.985,1.985c-1.095,0 -1.984,-0.89 -1.984,-1.985c0,-1.095 0.889,-1.984 1.984,-1.984Z" style="fill:url(#_Linear1);"/><path d="M410.825,266.967c-1.068,0.234 -2.044,0.809 -2.771,1.653c-0.976,1.132 -1.407,2.637 -1.177,4.114c4.633,29.692 -8.711,64.451 -28.461,75.662c-30.208,17.148 -115.864,16.175 -135.392,-0.886c-9.113,-7.962 -11.761,-43.181 -12.327,-69.646c-0.073,-3.682 -2.509,-6.899 -6.033,-7.968c-0.583,-0.177 -1.157,-0.351 -1.697,-0.515c-1.962,-0.595 -3.377,-2.306 -3.593,-4.345c-0.594,-5.597 -1.77,-16.681 -2.279,-21.48c-0.065,-0.606 0.118,-1.213 0.506,-1.683c0.389,-0.47 0.95,-0.764 1.558,-0.816c4.015,-0.34 11.865,-1.004 11.865,-1.004c9.144,-1.259 49.43,-6.195 85.646,-6.195c48.435,0 88.729,9.867 91.38,10.529l13.011,0.018l13.01,-0.018c2.651,-0.662 42.945,-10.529 91.381,-10.529c36.215,0 76.502,4.936 85.646,6.195c0,0 7.849,0.664 11.865,1.004c0.608,0.052 1.169,0.346 1.557,0.816c0.388,0.47 0.571,1.077 0.507,1.683c-0.509,4.799 -1.685,15.883 -2.279,21.48c-0.216,2.039 -1.632,3.75 -3.593,4.345c-0.54,0.164 -1.115,0.338 -1.697,0.515c-3.525,1.069 -5.961,4.286 -6.034,7.968c-0.565,26.465 -3.214,61.684 -12.326,69.646c-19.528,17.061 -105.185,18.034 -135.393,0.886c-19.75,-11.211 -33.094,-45.97 -28.461,-75.662c0.23,-1.477 -0.2,-2.982 -1.176,-4.114c-0.728,-0.844 -1.703,-1.419 -2.772,-1.653l-10.235,-0.063l-10.236,0.063Zm44.635,-12.516c0,0 0,0 0,0c12.566,-9.584 44.665,-9.663 69.463,-10.382c21.751,-0.631 65.806,3.374 71.627,12.178c6.644,10.048 4.268,17.573 3.337,42.689c-0.466,12.568 -4.612,35.083 -11.807,41.549c-8.472,7.614 -26.388,11.771 -57.233,11.898c-30.845,0.127 -48.563,-3.002 -61.761,-11.282c-12.057,-7.564 -15.413,-20.201 -19.563,-39.528c-4.075,-18.98 -6.295,-37.793 5.937,-47.122Zm-68.798,0c0,0 0,0 0,0c-12.567,-9.584 -44.666,-9.663 -69.463,-10.382c-21.751,-0.631 -65.806,3.374 -71.627,12.178c-6.645,10.048 -4.269,17.573 -3.338,42.689c0.466,12.568 4.613,35.083 11.807,41.549c8.472,7.614 26.389,11.771 57.234,11.898c30.844,0.127 48.563,-3.002 61.76,-11.282c12.058,-7.564 15.413,-20.201 19.563,-39.528c4.075,-18.98 6.296,-37.793 -5.936,-47.122Zm230.515,0.669c-1.095,0 -1.984,0.889 -1.984,1.984c0,1.095 0.889,1.985 1.984,1.985c1.095,0 1.984,-0.89 1.984,-1.985c0,-1.095 -0.889,-1.984 -1.984,-1.984Zm-392.233,0c1.095,0 1.985,0.889 1.985,1.984c0,1.095 -0.89,1.985 -1.985,1.985c-1.095,0 -1.984,-0.89 -1.984,-1.985c0,-1.095 0.889,-1.984 1.984,-1.984Zm392.233,-10.08c-1.095,0 -1.984,0.889 -1.984,1.984c0,1.095 0.889,1.985 1.984,1.985c1.095,0 1.984,-0.89 1.984,-1.985c0,-1.095 -0.889,-1.984 -1.984,-1.984Zm-392.233,0c1.095,0 1.985,0.889 1.985,1.984c0,1.095 -0.89,1.985 -1.985,1.985c-1.095,0 -1.984,-0.89 -1.984,-1.985c0,-1.095 0.889,-1.984 1.984,-1.984Z" style="fill:url(#_Linear2);"/><circle cx="414.896" cy="261.381" r="1.701" style="fill:url(#_Linear3);stroke:url(#_Radial4);stroke-width:0.2px;"/><circle cx="421.061" cy="261.381" r="1.701" style="fill:url(#_Linear5);stroke:url(#_Radial6);stroke-width:0.2px;"/><circle cx="427.225" cy="261.381" r="1.701" style="fill:url(#_Linear7);stroke:url(#_Radial8);stroke-width:0.2px;"/><text x="318.615px" y="62.307px" style="font-family:'AvenirNext-Regular', 'Avenir Next', sans-serif;font-size:18px;">V<tspan x="329.505px 334.005px " y="62.307px 62.307px ">is</tspan>ual <tspan x="370.779px 381.237px 392.235px " y="62.307px 62.307px 62.307px ">Voi</tspan>ce Intermesh Ui</text><text x="369.549px" y="100.564px" style="font-family:'AvenirNext-Regular', 'Avenir Next', sans-serif;font-size:12px;">F<tspan x="375.789px 379.893px 387.225px " y="100.564px 100.564px 100.564px ">ron</tspan>t face concept</text><path d="M432.399,20.838c0,-1.952 -1.584,-3.536 -3.537,-3.536l-15.603,0c-1.952,0 -3.537,1.584 -3.537,3.536l0,15.604c0,1.952 1.585,3.537 3.537,3.537l15.603,0c1.953,0 3.537,-1.585 3.537,-3.537l0,-15.604Z" style="fill:#191919;"/><path d="M427.871,24.087c0,-0.151 -0.06,-0.296 -0.167,-0.404c-0.107,-0.107 -0.252,-0.167 -0.404,-0.167c-0.506,0 -1.241,0 -1.74,0c-0.301,0 -0.545,0.244 -0.545,0.545c0,0.275 0,0.606 0,0.88c0,0.144 0.057,0.282 0.159,0.384c0.102,0.102 0.24,0.159 0.385,0.159c0.828,0 2.312,0 2.312,0c0,0 0,-0.816 0,-1.397Zm-2.029,2.093c-0.224,0 -0.438,0.093 -0.592,0.256c-0.154,0.163 -0.234,0.382 -0.222,0.606c0.017,0.319 0.023,0.67 0.023,1.094l0,3.672c0,0.381 -0.005,0.709 -0.019,1.013c-0.013,0.246 0.076,0.485 0.246,0.664c0.169,0.178 0.404,0.279 0.65,0.279c0.355,0 0.756,0 1.105,0c0.227,0 0.444,-0.093 0.6,-0.258c0.156,-0.165 0.237,-0.388 0.225,-0.614c-0.017,-0.324 -0.023,-0.679 -0.023,-1.096l0,-3.66c0,-0.477 0.007,-0.852 0.023,-1.174c0.013,-0.202 -0.058,-0.401 -0.197,-0.549c-0.138,-0.148 -0.332,-0.232 -0.535,-0.232c-0.397,-0.001 -0.876,-0.001 -1.284,-0.001Z" style="fill:#fbfbfb;fill-rule:nonzero;"/><path d="M414.298,24.508c-0.085,-0.225 -0.054,-0.478 0.082,-0.676c0.137,-0.198 0.363,-0.316 0.603,-0.316c0.519,0 1.127,0 1.581,0c0.4,0 0.754,0.26 0.873,0.642c0.333,1.064 1.011,3.232 1.508,4.822c0.082,0.26 0.323,0.437 0.595,0.436c0.272,-0.001 0.513,-0.178 0.593,-0.439c0.491,-1.596 1.162,-3.774 1.488,-4.832c0.115,-0.374 0.461,-0.629 0.852,-0.629c0.358,0 0.814,0 1.241,0c0.3,0 0.581,0.147 0.752,0.393c0.171,0.246 0.211,0.56 0.107,0.841c-0.834,2.248 -2.569,6.922 -3.15,8.489c-0.117,0.316 -0.418,0.525 -0.755,0.525c-0.627,0 -1.637,0 -2.278,0c-0.358,0 -0.678,-0.221 -0.805,-0.556c-0.626,-1.657 -2.485,-6.578 -3.287,-8.7Z" style="fill:#fbfbfb;fill-rule:nonzero;"/><defs><linearGradient id="_Linear1" x1="0" y1="0" x2="1" y2="0" gradientUnits="userSpaceOnUse" gradientTransform="matrix(216.85,-126.933,126.933,216.85,408.189,360.791)"><stop offset="0" style="stop-color:#1f1f1f;stop-opacity:1"/><stop offset="0.36" style="stop-color:#272727;stop-opacity:1"/><stop offset="0.67" style="stop-color:#424242;stop-opacity:1"/><stop offset="0.82" style="stop-color:#4a4a4a;stop-opacity:1"/><stop offset="1" style="stop-color:#4c4c4c;stop-opacity:1"/></linearGradient><linearGradient id="_Linear2" x1="0" y1="0" x2="1" y2="0" gradientUnits="userSpaceOnUse" gradientTransform="matrix(216.85,-126.933,126.933,216.85,408.189,360.791)"><stop offset="0" style="stop-color:#1f1f1f;stop-opacity:1"/><stop offset="0.36" style="stop-color:#272727;stop-opacity:1"/><stop offset="0.67" style="stop-color:#424242;stop-opacity:1"/><stop offset="0.82" style="stop-color:#4a4a4a;stop-opacity:1"/><stop offset="1" style="stop-color:#4c4c4c;stop-opacity:1"/></linearGradient><linearGradient id="_Linear3" x1="0" y1="0" x2="1" y2="0" gradientUnits="userSpaceOnUse" gradientTransform="matrix(1.3852,-2.4,2.4,1.3852,414.24,262.08)"><stop offset="0" style="stop-color:#000;stop-opacity:1"/><stop offset="1" style="stop-color:#4b4b4b;stop-opacity:1"/></linearGradient><radialGradient id="_Radial4" cx="0" cy="0" r="1" gradientUnits="userSpaceOnUse" gradientTransform="matrix(3.40157,0,0,3.40157,413.196,261.381)"><stop offset="0" style="stop-color:#737373;stop-opacity:1"/><stop offset="1" style="stop-color:#151515;stop-opacity:1"/></radialGradient><linearGradient id="_Linear5" x1="0" y1="0" x2="1" y2="0" gradientUnits="userSpaceOnUse" gradientTransform="matrix(1.30961,-2.4,2.4,1.30961,420.48,262.08)"><stop offset="0" style="stop-color:#000;stop-opacity:1"/><stop offset="1" style="stop-color:#4b4b4b;stop-opacity:1"/></linearGradient><radialGradient id="_Radial6" cx="0" cy="0" r="1" gradientUnits="userSpaceOnUse" gradientTransform="matrix(3.40157,0,0,3.40157,419.36,261.381)"><stop offset="0" style="stop-color:#737373;stop-opacity:1"/><stop offset="1" style="stop-color:#151515;stop-opacity:1"/></radialGradient><linearGradient id="_Linear7" x1="0" y1="0" x2="1" y2="0" gradientUnits="userSpaceOnUse" gradientTransform="matrix(1.23402,-2.64,2.64,1.23402,426.72,262.32)"><stop offset="0" style="stop-color:#000;stop-opacity:1"/><stop offset="1" style="stop-color:#4b4b4b;stop-opacity:1"/></linearGradient><radialGradient id="_Radial8" cx="0" cy="0" r="1" gradientUnits="userSpaceOnUse" gradientTransform="matrix(3.40157,0,0,3.40157,425.524,261.381)"><stop offset="0" style="stop-color:#737373;stop-opacity:1"/><stop offset="1" style="stop-color:#151515;stop-opacity:1"/></radialGradient></defs></svg>