<svg clip-rule="evenodd" fill-rule="evenodd" stroke-linecap="round" stroke-linejoin="round" stroke-miterlimit="1.5" viewBox="0 0 250 300" xmlns="http://www.w3.org/2000/svg" xmlns:xlink="http://www.w3.org/1999/xlink"><linearGradient id="a" gradientTransform="matrix(108.031 -63.2357 63.2357 108.031 118.587 191.724)" gradientUnits="userSpaceOnUse" x1="0" x2="1" y1="0" y2="0"><stop offset="0" stop-color="#1f1f1f"/><stop offset=".36" stop-color="#272727"/><stop offset=".67" stop-color="#424242"/><stop offset=".82" stop-color="#4a4a4a"/><stop offset="1" stop-color="#4c4c4c"/></linearGradient><linearGradient id="b"><stop offset="0"/><stop offset="1" stop-color="#4b4b4b"/></linearGradient><linearGradient id="c" gradientTransform="matrix(.690083 -1.19564 1.19564 .690083 121.602 142.548)" gradientUnits="userSpaceOnUse" x1="0" x2="1" xlink:href="#b" y1="0" y2="0"/><linearGradient id="d"><stop offset="0" stop-color="#737373"/><stop offset="1" stop-color="#151515"/></linearGradient><radialGradient id="e" cx="121.082" cy="142.2" gradientUnits="userSpaceOnUse" r="1.69461" xlink:href="#d"/><linearGradient id="f" gradientTransform="matrix(.652425 -1.19564 1.19564 .652425 124.711 142.548)" gradientUnits="userSpaceOnUse" x1="0" x2="1" xlink:href="#b" y1="0" y2="0"/><radialGradient id="g" cx="124.153" cy="142.2" gradientUnits="userSpaceOnUse" r="1.69461" xlink:href="#d"/><linearGradient id="h" gradientTransform="matrix(.614767 -1.31521 1.31521 .614767 127.819 142.668)" gradientUnits="userSpaceOnUse" x1="0" x2="1" xlink:href="#b" y1="0" y2="0"/><radialGradient id="i" cx="127.224" cy="142.2" gradientUnits="userSpaceOnUse" r="1.69461" xlink:href="#d"/><path d="m119.901 144.983c-.532.117-1.019.403-1.381.823-.486.564-.701 1.314-.586 2.05 2.308 14.792-4.34 32.108-14.179 37.693-15.049 8.543-57.722 8.058-67.45-.441-4.54-3.966-5.859-21.512-6.141-34.696-.036-1.835-1.25-3.437-3.006-3.97-.29-.088-.576-.175-.845-.257-.978-.296-1.683-1.149-1.79-2.164-.296-2.788-.882-8.311-1.136-10.701-.032-.302.059-.604.253-.839.193-.234.473-.38.776-.406 2-.169 5.911-.5 5.911-.5 4.555-.628 24.625-3.086 42.667-3.086 24.13 0 44.204 4.915 45.524 5.245l6.482.009 6.482-.009c1.32-.33 21.394-5.245 45.524-5.245 18.042 0 38.112 2.458 42.667 3.086 0 0 3.911.331 5.911.5.303.026.583.172.776.406.194.235.285.537.253.839-.254 2.39-.84 7.913-1.136 10.701-.107 1.015-.812 1.868-1.79 2.164-.269.082-.555.169-.845.257-1.756.533-2.97 2.135-3.006 3.97-.282 13.184-1.601 30.73-6.141 34.696-9.728 8.499-52.401 8.984-67.45.441-9.839-5.585-16.487-22.901-14.179-37.693.115-.736-.1-1.486-.586-2.05-.362-.42-.849-.706-1.381-.823l-5.099-.032zm22.236-6.235c6.26-4.775 22.252-4.815 34.605-5.173 10.836-.314 32.784 1.681 35.684 6.067 3.31 5.006 2.126 8.755 1.663 21.267-.233 6.262-2.298 17.478-5.883 20.699-4.22 3.794-13.146 5.864-28.512 5.927-15.367.064-24.194-1.495-30.769-5.62-6.006-3.768-7.678-10.063-9.745-19.692-2.03-9.456-3.137-18.828 2.957-23.475zm-34.274 0c-6.26-4.775-22.252-4.815-34.605-5.173-10.836-.314-32.784 1.681-35.684 6.067-3.31 5.006-2.126 8.755-1.663 21.267.233 6.262 2.298 17.478 5.883 20.699 4.22 3.794 13.146 5.864 28.512 5.927 15.367.064 24.194-1.495 30.769-5.62 6.006-3.768 7.678-10.063 9.745-19.692 2.03-9.456 3.137-18.828-2.957-23.475zm114.839.333c-.546 0-.988.443-.988.988 0 .546.442.989.988.989s.989-.443.989-.989c0-.545-.443-.988-.989-.988zm-195.404 0c.546 0 .988.443.988.988 0 .546-.442.989-.988.989s-.989-.443-.989-.989c0-.545.443-.988.989-.988zm195.404-5.022c-.546 0-.988.443-.988.989 0 .545.442.988.988.988s.989-.443.989-.988c0-.546-.443-.989-.989-.989zm-195.404 0c.546 0 .988.443.988.989 0 .545-.442.988-.988.988s-.989-.443-.989-.988c0-.546.443-.989.989-.989z" fill="url(#a)"/><g stroke-width=".42"><circle cx="121.929" cy="142.2" fill="url(#c)" r=".847" stroke="url(#e)"/><circle cx="125" cy="142.2" fill="url(#f)" r=".847" stroke="url(#g)"/><circle cx="128.071" cy="142.2" fill="url(#h)" r=".847" stroke="url(#i)"/></g><path d="m144.6 33.159c0-3.374-2.74-6.114-6.114-6.114h-26.972c-3.374 0-6.114 2.74-6.114 6.114v26.972c0 3.374 2.74 6.114 6.114 6.114h26.972c3.374 0 6.114-2.74 6.114-6.114z" fill="#191919"/><path d="m136.772 38.775c0-.262-.104-.513-.289-.698s-.436-.289-.698-.289c-.875 0-2.145 0-3.007 0-.521 0-.942.422-.942.942v1.52c0 .249.099.488.275.664.176.177.415.276.664.276h3.997s0-1.411 0-2.415zm-3.507 3.618c-.387 0-.758.159-1.024.441s-.404.661-.382 1.048c.028.552.039 1.159.039 1.892v6.347c0 .658-.01 1.225-.034 1.751-.021.424.132.839.425 1.147s.699.482 1.124.482c.615.001 1.307.001 1.911.001.392 0 .767-.161 1.037-.447.27-.285.41-.669.388-1.061-.028-.56-.039-1.172-.039-1.894v-6.326c0-.825.012-1.474.04-2.03.023-.35-.1-.693-.34-.949s-.575-.401-.925-.401c-.686-.001-1.515-.001-2.22-.001z" fill="#fbfbfb" fill-rule="nonzero"/><path d="m113.309 39.502c-.147-.389-.093-.825.143-1.168.237-.342.626-.546 1.042-.546h2.732c.692 0 1.304.449 1.51 1.11.575 1.838 1.748 5.587 2.607 8.334.141.45.557.755 1.028.754s.886-.308 1.025-.758c.85-2.759 2.009-6.524 2.573-8.353.199-.646.796-1.087 1.472-1.087h2.146c.518 0 1.003.253 1.299.679.296.425.365.968.185 1.454-1.442 3.886-4.44 11.965-5.445 14.674-.203.545-.723.907-1.305.907-1.083 0-2.83 0-3.937 0-.619 0-1.173-.382-1.392-.961-1.082-2.865-4.297-11.371-5.683-15.039z" fill="#fbfbfb" fill-rule="nonzero"/></svg>