<svg width="100%" height="100%" viewBox="0 0 859 596" version="1.1" xmlns="http://www.w3.org/2000/svg" xmlns:xlink="http://www.w3.org/1999/xlink" xml:space="preserve" xmlns:serif="http://www.serif.com/" fill-rule="evenodd" clip-rule="evenodd" stroke-linecap="round" stroke-linejoin="round" stroke-miterlimit="1.5"><rect id="Artboard2" x="0" y="0" width="858.24" height="595.276" fill="none"/><path d="M418.884,267.594c-1.068,0.234 -2.044,0.808 -2.771,1.652c-0.976,1.133 -1.406,2.637 -1.177,4.115c4.633,29.691 -8.711,64.45 -28.46,75.662c-30.209,17.148 -115.865,16.174 -135.393,-0.887c-9.113,-7.961 -11.761,-43.181 -12.326,-69.645c-0.074,-3.683 -2.509,-6.899 -6.034,-7.968c-0.582,-0.178 -1.157,-0.352 -1.697,-0.516c-1.962,-0.595 -3.377,-2.306 -3.593,-4.344c-0.594,-5.597 -1.77,-16.682 -2.279,-21.48c-0.064,-0.606 0.118,-1.213 0.507,-1.683c0.388,-0.471 0.949,-0.765 1.557,-0.816c4.016,-0.34 11.865,-1.005 11.865,-1.005c9.144,-1.259 49.431,-6.194 85.646,-6.194c48.436,0 88.73,9.867 91.38,10.529l13.011,0.018l13.011,-0.018c2.65,-0.662 42.944,-10.529 91.38,-10.529c36.215,0 76.502,4.935 85.646,6.194c0,0 7.849,0.665 11.865,1.005c0.608,0.051 1.169,0.345 1.557,0.816c0.389,0.47 0.571,1.077 0.507,1.683c-0.509,4.798 -1.685,15.883 -2.279,21.48c-0.216,2.038 -1.631,3.749 -3.593,4.344c-0.54,0.164 -1.115,0.338 -1.697,0.516c-3.525,1.069 -5.96,4.285 -6.034,7.968c-0.565,26.464 -3.213,61.684 -12.326,69.645c-19.528,17.061 -105.184,18.035 -135.393,0.887c-19.749,-11.212 -33.093,-45.971 -28.46,-75.662c0.229,-1.478 -0.201,-2.982 -1.177,-4.115c-0.727,-0.844 -1.703,-1.418 -2.771,-1.652l-10.236,-0.063l-10.236,0.063Zm44.635,-12.516c0,0 0,0 0,0c12.566,-9.584 44.666,-9.664 69.463,-10.383c21.751,-0.63 65.806,3.375 71.627,12.178c6.644,10.048 4.269,17.573 3.338,42.689c-0.466,12.569 -4.613,35.084 -11.807,41.549c-8.473,7.615 -26.389,11.771 -57.234,11.898c-30.845,0.127 -48.563,-3.002 -61.761,-11.281c-12.057,-7.564 -15.412,-20.201 -19.562,-39.529c-4.075,-18.979 -6.296,-37.793 5.936,-47.121Zm-68.798,0c0,0 0,0 0,0c-12.566,-9.584 -44.666,-9.664 -69.463,-10.383c-21.751,-0.63 -65.806,3.375 -71.627,12.178c-6.644,10.048 -4.269,17.573 -3.338,42.689c0.466,12.569 4.613,35.084 11.807,41.549c8.473,7.615 26.389,11.771 57.234,11.898c30.845,0.127 48.563,-3.002 61.761,-11.281c12.057,-7.564 15.412,-20.201 19.562,-39.529c4.075,-18.979 6.296,-37.793 -5.936,-47.121Zm230.515,0.669c-1.095,0 -1.984,0.889 -1.984,1.984c0,1.095 0.889,1.984 1.984,1.984c1.096,0 1.985,-0.889 1.985,-1.984c0,-1.095 -0.889,-1.984 -1.985,-1.984Zm-392.232,0c1.095,0 1.984,0.889 1.984,1.984c0,1.095 -0.889,1.984 -1.984,1.984c-1.096,0 -1.985,-0.889 -1.985,-1.984c0,-1.095 0.889,-1.984 1.985,-1.984Zm392.232,-10.08c-1.095,0 -1.984,0.889 -1.984,1.984c0,1.095 0.889,1.984 1.984,1.984c1.096,0 1.985,-0.889 1.985,-1.984c0,-1.095 -0.889,-1.984 -1.985,-1.984Zm-392.232,0c1.095,0 1.984,0.889 1.984,1.984c0,1.095 -0.889,1.984 -1.984,1.984c-1.096,0 -1.985,-0.889 -1.985,-1.984c0,-1.095 0.889,-1.984 1.985,-1.984Z" fill="none" stroke="#919191" stroke-width="1px"/><circle cx="423.34" cy="262.122" r="1.701" fill="none" stroke="#858585" stroke-width="0.5px"/><circle cx="429.504" cy="262.122" r="1.701" fill="none" stroke="#8c8c8c" stroke-width="0.5px"/><circle cx="435.668" cy="262.122" r="1.701" fill="none" stroke="#8c8c8c" stroke-width="0.5px"/><text x="355.558" y="114.496" font-family="'AvenirNext-Regular', 'Avenir Next', sans-serif" font-size="12px">F<tspan x="361.798px 365.902px 373.234px" y="114.496px 114.496px 114.496px">ron</tspan>t face concept Diagr<tspan x="490.666px 497.074px" y="114.496px 114.496px">am</tspan></text><text x="402.831" y="224.58" font-family="'ArialMT', 'Arial', sans-serif" font-size="10px">Microphone</text><rect x="428.471" y="230.087" width=".567" height="26.4"/><text x="326.79" y="68.522" font-family="'AvenirNext-Regular', 'Avenir Next', sans-serif" font-size="18px">V<tspan x="337.68px 342.18px" y="68.522px 68.522px">is</tspan>ual <tspan x="378.954px 389.412px 400.41px" y="68.522px 68.522px 68.522px">Voi</tspan>ce Intermesh Ui</text><path d="M440.574,27.053c0,-1.952 -1.584,-3.537 -3.536,-3.537l-15.604,0c-1.952,0 -3.537,1.585 -3.537,3.537l0,15.604c0,1.952 1.585,3.536 3.537,3.536l15.604,0c1.952,0 3.536,-1.584 3.536,-3.536l0,-15.604Z" fill="#191919"/><path d="M436.046,30.302c0,-0.152 -0.06,-0.297 -0.167,-0.404c-0.107,-0.107 -0.252,-0.167 -0.404,-0.167c-0.506,0 -1.241,0 -1.74,0c-0.301,0 -0.545,0.244 -0.545,0.545c0,0.274 0,0.605 0,0.879c0,0.144 0.057,0.283 0.159,0.385c0.102,0.102 0.241,0.159 0.385,0.159c0.828,0 2.312,0 2.312,0c0,0 0,-0.816 0,-1.397Zm-2.029,2.093c-0.224,0 -0.438,0.092 -0.592,0.255c-0.154,0.163 -0.234,0.382 -0.221,0.606c0.016,0.32 0.022,0.671 0.022,1.095l0,3.672c0,0.38 -0.005,0.708 -0.019,1.013c-0.013,0.245 0.076,0.485 0.246,0.663c0.169,0.178 0.404,0.279 0.65,0.279c0.355,0.001 0.756,0.001 1.105,0.001c0.227,0 0.444,-0.094 0.6,-0.259c0.156,-0.165 0.238,-0.387 0.225,-0.614c-0.017,-0.324 -0.023,-0.678 -0.023,-1.095l0,-3.66c0,-0.477 0.007,-0.853 0.023,-1.174c0.013,-0.203 -0.058,-0.401 -0.196,-0.549c-0.139,-0.148 -0.333,-0.232 -0.536,-0.232c-0.397,-0.001 -0.876,-0.001 -1.284,-0.001Z" fill="#fbfbfb" fill-rule="nonzero"/><path d="M422.473,30.723c-0.085,-0.225 -0.054,-0.478 0.082,-0.676c0.137,-0.198 0.363,-0.316 0.603,-0.316c0.519,0 1.127,0 1.581,0c0.4,0 0.754,0.26 0.873,0.642c0.333,1.064 1.011,3.232 1.508,4.822c0.082,0.26 0.323,0.436 0.595,0.436c0.272,-0.001 0.513,-0.179 0.593,-0.439c0.491,-1.596 1.162,-3.774 1.488,-4.832c0.116,-0.374 0.461,-0.629 0.852,-0.629c0.358,0 0.814,0 1.241,0c0.3,0 0.581,0.147 0.752,0.393c0.171,0.246 0.211,0.56 0.107,0.841c-0.834,2.248 -2.569,6.922 -3.15,8.489c-0.117,0.315 -0.418,0.525 -0.755,0.525c-0.626,0 -1.637,0 -2.278,0c-0.358,0 -0.678,-0.222 -0.805,-0.556c-0.626,-1.658 -2.485,-6.578 -3.287,-8.7Z" fill="#fbfbfb" fill-rule="nonzero"/></svg>