<svg width="100%" height="100%" viewBox="0 0 859 596" version="1.1" xmlns="http://www.w3.org/2000/svg" xmlns:xlink="http://www.w3.org/1999/xlink" xml:space="preserve" xmlns:serif="http://www.serif.com/" fill-rule="evenodd" clip-rule="evenodd" stroke-linecap="round" stroke-linejoin="round" stroke-miterlimit="1.5"><rect id="Artboard3" x="0" y="0" width="858.24" height="595.276" fill="none"/><path d="M463.519,254.764c0,0 0,0 0,0c12.566,-9.584 44.666,-9.663 69.463,-10.382c21.751,-0.631 65.806,3.374 71.627,12.178c6.644,10.048 5.385,23.739 3.818,42.211c-1.064,12.532 -5.093,35.561 -12.287,42.027c-8.473,7.614 -26.389,11.771 -57.234,11.898c-30.845,0.127 -48.563,-3.002 -61.761,-11.281c-12.057,-7.565 -15.412,-20.201 -19.562,-39.529c-4.075,-18.98 -6.296,-37.793 5.936,-47.122Zm-68.798,0c0,0 0,0 0,0c-12.566,-9.584 -44.666,-9.663 -69.463,-10.382c-21.751,-0.631 -65.806,3.374 -71.627,12.178c-6.644,10.048 -5.662,22.906 -3.338,42.689c1.468,12.491 4.965,35.249 11.807,41.549c8.38,7.716 26.389,11.771 57.234,11.898c30.845,0.127 48.563,-3.002 61.761,-11.281c12.057,-7.565 15.412,-20.201 19.562,-39.529c4.075,-18.98 6.296,-37.793 -5.936,-47.122Z" fill="none" stroke="#919191" stroke-width="1px"/><circle cx="422.874" cy="262.435" r="1.701" fill="none" stroke="#858585" stroke-width="0.5px"/><circle cx="429.038" cy="262.435" r="1.701" fill="none" stroke="#8c8c8c" stroke-width="0.5px"/><circle cx="435.202" cy="262.435" r="1.701" fill="none" stroke="#8c8c8c" stroke-width="0.5px"/><text x="402.831" y="224.893" font-family="'ArialMT', 'Arial', sans-serif" font-size="10px">Microphone</text><text x="170.511" y="275.543" font-family="'ArialMT', 'Arial', sans-serif" font-size="10px">Left Menu Strip</text><rect x="428.471" y="230.4" width=".567" height="26.4"/><g><path d="M259.086,286.451c0.203,-0.275 0.313,-0.615 0.286,-0.977c-0.057,-0.797 -0.753,-1.4 -1.574,-1.385c-0.029,0 -0.056,0.002 -0.087,0.005c-0.371,0.025 -0.702,0.176 -0.955,0.402l1.05,0.881l-0.177,0.203c-0.494,-0.318 -1.08,-0.505 -1.703,-0.512l0,-0.002c-0.012,-0.155 -0.148,-0.272 -0.303,-0.261c-0.155,0.012 -0.273,0.148 -0.261,0.303l0,0.002c-0.613,0.098 -1.164,0.37 -1.603,0.758l-0.204,-0.176l0.909,-1.026c-0.283,-0.187 -0.633,-0.286 -1.002,-0.257c-0.029,0.003 -0.058,0.007 -0.087,0.009c-0.816,0.106 -1.415,0.806 -1.352,1.602c0.026,0.361 0.186,0.682 0.427,0.924l0.911,-1.03l0.186,0.16c-0.595,0.628 -0.934,1.496 -0.864,2.428c0.059,0.799 0.408,1.507 0.937,2.029l-0.602,0.861l0.238,0.169l0.582,-0.829c0.616,0.507 1.42,0.79 2.279,0.726l0.007,-0.001c0.859,-0.063 1.617,-0.462 2.151,-1.054l0.698,0.735l0.211,-0.201l-0.725,-0.764c0.446,-0.596 0.687,-1.348 0.627,-2.145c-0.069,-0.93 -0.531,-1.741 -1.215,-2.276l0.16,-0.185l1.055,0.884Zm-6.624,0.042c-0.088,-0.151 -0.141,-0.326 -0.156,-0.501c-0.049,-0.639 0.429,-1.214 1.102,-1.304c0.23,-0.03 0.422,-0.006 0.592,0.067l-1.538,1.738Zm6.329,1.518c0.118,1.596 -1.098,2.957 -2.701,3.076c-1.602,0.119 -3.002,-1.047 -3.121,-2.643c-0.118,-1.596 1.092,-2.985 2.696,-3.104c1.603,-0.119 3.007,1.074 3.126,2.671Zm-1.563,-3.494c0.154,-0.099 0.342,-0.149 0.576,-0.154c0.68,-0.014 1.236,0.485 1.282,1.127c0.013,0.175 -0.015,0.356 -0.08,0.52l-1.778,-1.493Z" fill="#777" fill-rule="nonzero"/><path d="M255.723,286.108l0.173,2.329l-1.746,0.13l0.021,0.291l2.038,-0.152l-0.194,-2.62l-0.292,0.022Z" fill="#777" fill-rule="nonzero"/></g><path d="M261.9,273.937c0,0 -0.608,26.705 9.111,56.148" fill="none" stroke="#8c8c8c" stroke-width="0.5px"/><g><g><path d="M260.2,302.214c-0.272,-1.853 -1.361,-2.337 -2.314,-2.341c-0.002,-0.009 -0.001,-0.019 -0.003,-0.03c-0.034,-0.234 -0.268,-0.39 -0.521,-0.353c-0.253,0.037 -0.425,0.253 -0.39,0.486c0.001,0.012 0.003,0.021 0.006,0.031c-0.913,0.279 -1.823,1.059 -1.551,2.912c0.317,2.161 -0.186,2.472 -0.819,3.185l7.292,-1.07c-0.807,-0.505 -1.382,-0.659 -1.7,-2.82Zm-4.816,3.464c0.138,-0.195 0.26,-0.395 0.342,-0.667c0.158,-0.514 0.166,-1.173 0.023,-2.141c-0.129,-0.881 0.014,-1.562 0.423,-2.025c0.381,-0.431 0.917,-0.587 1.298,-0.643c0.382,-0.056 0.94,-0.06 1.425,0.243c0.523,0.325 0.854,0.932 0.984,1.813c0.233,1.591 0.61,2.186 1.162,2.59l-5.657,0.83Z" fill="#767676" fill-rule="nonzero"/><path d="M258.436,306.782c0.509,-0.075 0.871,-0.514 0.862,-0.961l-1.963,0.288c0.117,0.431 0.592,0.747 1.101,0.673Z" fill="#727272" fill-rule="nonzero"/></g><path d="M261.659,312.849c-0.764,0.184 -1.413,0.617 -1.508,1.242c-0.39,-0.508 -1.145,-0.602 -1.909,-0.417c-1.03,0.248 -1.757,0.937 -1.519,1.926l1.275,5.28l0.413,-0.1c0.121,-0.549 0.636,-0.983 1.272,-1.136c0.751,-0.181 1.502,0.181 1.811,0.826l0.368,-0.088c-0.02,-0.716 0.486,-1.381 1.236,-1.562c0.636,-0.154 1.194,-0.058 1.653,0.43l0.411,-0.099l-0.076,-0.317l-1.176,-4.87l-0.018,-0.075l-0.004,-0.018c-0.239,-0.989 -1.199,-1.271 -2.229,-1.022Zm-0.296,6.921c-0.452,-0.401 -1.103,-0.581 -1.751,-0.425c-0.649,0.157 -1.158,0.478 -1.396,1.047l-0.017,0.014l-1.182,-4.897l-0.004,-0.018c-0.132,-0.794 0.473,-1.319 1.298,-1.518c0.842,-0.203 1.617,-0.021 1.834,0.778c0.002,0.013 0.006,0.027 0.01,0.041l0.065,0.243l1.143,4.735Zm2.249,-5.734l1.152,4.775c-0.452,-0.402 -1.089,-0.446 -1.738,-0.29c-0.649,0.157 -1.145,0.613 -1.365,1.177l-1.197,-4.961l-0.005,-0.019c-0.198,-0.823 0.415,-1.364 1.272,-1.57c0.824,-0.199 1.569,-0.159 1.813,0.608l0.068,0.28Z" fill="#8c8c8c" fill-rule="nonzero"/></g><g><g><path d="M600.821,285.752l4.266,0.2l0.058,-1.219l-4.266,-0.2l-0.058,1.219Zm0.348,-0.9l3.657,0.172l-0.029,0.609l-3.657,-0.172l0.029,-0.609Z" fill-rule="nonzero"/><path d="M605.173,284.124l-4.266,-0.201c-0.337,-0.015 -0.622,0.244 -0.638,0.581l-0.286,6.095c-0.016,0.337 0.243,0.622 0.581,0.638l4.266,0.2c0.337,0.016 0.622,-0.243 0.638,-0.581l0.286,-6.094c0.016,-0.337 -0.244,-0.622 -0.581,-0.638Zm-0.01,6.718c-0.008,0.168 -0.151,0.298 -0.319,0.291l-4.266,-0.201c-0.168,-0.008 -0.298,-0.151 -0.29,-0.319l0.286,-6.094c0.008,-0.168 0.151,-0.299 0.319,-0.291l4.266,0.201c0.168,0.008 0.298,0.151 0.29,0.319l-0.286,6.094Z" fill="#7e7e7e" fill-rule="nonzero"/><path d="M601.054,287.29l0.029,-0.61l0.014,-0.304l-0.304,-0.015l-0.058,1.219l1.219,0.057l0.015,-0.304l-0.305,-0.015l-0.61,-0.028Z" fill="#7e7e7e" fill-rule="nonzero"/><path d="M600.983,288.813l0.028,-0.609l0.015,-0.305l-0.305,-0.014l-0.057,1.219l1.219,0.057l0.014,-0.305l-0.305,-0.014l-0.609,-0.029Z" fill="#7e7e7e" fill-rule="nonzero"/><path d="M600.911,290.337l0.029,-0.609l0.014,-0.305l-0.304,-0.015l-0.058,1.219l1.219,0.058l0.014,-0.305l-0.304,-0.014l-0.61,-0.029Z" fill="#7e7e7e" fill-rule="nonzero"/><path d="M602.578,287.361l0.029,-0.609l0.014,-0.305l-0.305,-0.014l-0.057,1.219l1.219,0.057l0.014,-0.305l-0.304,-0.014l-0.61,-0.029Z" fill="#7e7e7e" fill-rule="nonzero"/><path d="M604.102,287.433l0.028,-0.61l0.015,-0.304l-0.305,-0.015l-0.057,1.219l1.219,0.058l0.014,-0.305l-0.305,-0.014l-0.609,-0.029Z" fill="#7e7e7e" fill-rule="nonzero"/><path d="M602.506,288.885l0.029,-0.609l0.014,-0.305l-0.304,-0.015l-0.058,1.219l1.219,0.058l0.015,-0.305l-0.305,-0.014l-0.61,-0.029Z" fill="#7e7e7e" fill-rule="nonzero"/><path d="M602.435,290.409l0.029,-0.61l0.014,-0.305l-0.305,-0.014l-0.057,1.219l1.219,0.057l0.014,-0.304l-0.305,-0.015l-0.609,-0.028Z" fill="#7e7e7e" fill-rule="nonzero"/><path d="M603.959,290.48l0.028,-0.609l0.086,-1.829l-0.305,-0.014l-0.129,2.743l1.219,0.057l0.015,-0.305l-0.305,-0.014l-0.609,-0.029Z" fill="#7e7e7e" fill-rule="nonzero"/></g></g><g><g><path d="M604.706,301.138l-1.121,-0.134c-0.506,-0.724 -0.663,-0.964 -0.887,-0.991l-1.608,-0.192c-0.224,-0.027 -0.43,0.169 -1.095,0.754l-0.242,-0.029l0.035,-0.291l-0.618,-0.074l-0.035,0.291l-0.245,-0.029c-0.32,-0.039 -0.638,0.167 -0.676,0.485l-0.382,3.199c-0.038,0.318 0.217,0.639 0.536,0.678l5.817,0.695c0.32,0.038 0.588,-0.221 0.626,-0.539l0.383,-3.199c0.038,-0.318 -0.168,-0.586 -0.488,-0.624Zm-0.185,3.788c-0.021,0.169 -0.151,0.301 -0.302,0.283l-5.816,-0.695c-0.158,-0.019 -0.299,-0.196 -0.28,-0.353l0.382,-3.199c0.018,-0.149 0.179,-0.249 0.35,-0.229l1.232,0.148l0.095,-0.048c0.082,-0.073 0.161,-0.165 0.231,-0.227c0.233,-0.206 0.402,-0.352 0.519,-0.434c0.094,-0.066 0.121,-0.061 0.121,-0.061l1.609,0.192c0,0 0.029,0.002 0.112,0.097c0.099,0.113 0.231,0.332 0.419,0.599c0.045,0.067 0.094,0.137 0.146,0.211l0.08,0.069l1.252,0.15c0.16,0.019 0.251,0.14 0.232,0.298l-0.382,3.199Z" fill="#747474" fill-rule="nonzero"/><path d="M601.707,301.323c-0.856,-0.102 -1.638,0.512 -1.74,1.368c-0.102,0.856 0.512,1.638 1.368,1.74c0.856,0.102 1.638,-0.512 1.74,-1.368c0.102,-0.856 -0.512,-1.638 -1.368,-1.74Zm-0.337,2.817c-0.698,-0.083 -1.196,-0.716 -1.112,-1.414c0.083,-0.698 0.716,-1.196 1.414,-1.112c0.698,0.083 1.196,0.716 1.112,1.414c-0.083,0.698 -0.716,1.196 -1.414,1.112Z" fill="#6e6e6e" fill-rule="nonzero"/><path d="M603.755,301.614l-0.309,-0.037l-0.037,0.309l0.309,0.037l0.037,-0.309Z" fill="#8d8d8d"/><path d="M601.59,302.295c0.321,0.039 0.551,0.331 0.513,0.652c-0.039,0.321 -0.331,0.55 -0.652,0.512c-0.321,-0.039 -0.55,-0.33 -0.512,-0.651c0.039,-0.321 0.33,-0.551 0.651,-0.513Z" fill="#6e6e6e"/></g><g><path d="M599.621,313.899c0.553,0.187 0.999,0.579 1.258,1.102c0.258,0.523 0.297,1.115 0.11,1.668c-0.235,0.693 -0.976,1.599 -2.143,2.618c-0.57,0.499 -1.116,0.913 -1.441,1.15c-0.113,-0.384 -0.293,-1.042 -0.443,-1.783c-0.307,-1.522 -0.345,-2.693 -0.11,-3.387c0.187,-0.553 0.578,-0.999 1.101,-1.258c0.524,-0.258 1.116,-0.297 1.668,-0.11m0.088,-0.258c-1.285,-0.436 -2.68,0.253 -3.116,1.538c-0.613,1.81 0.662,5.701 0.662,5.701c0,0 3.379,-2.314 3.992,-4.124c0.436,-1.285 -0.253,-2.68 -1.538,-3.115Z" fill="#8e8e8e" fill-rule="nonzero"/><path d="M599.271,314.933c-0.571,-0.193 -1.192,0.114 -1.385,0.684c-0.193,0.57 0.113,1.191 0.684,1.385c0.57,0.193 1.191,-0.113 1.384,-0.684c0.194,-0.57 -0.113,-1.191 -0.683,-1.385Zm-0.608,1.792c-0.418,-0.141 -0.642,-0.596 -0.501,-1.014c0.142,-0.419 0.597,-0.643 1.015,-0.501c0.419,0.142 0.643,0.596 0.501,1.014c-0.142,0.419 -0.596,0.643 -1.015,0.501Z" fill="#767676" fill-rule="nonzero"/></g></g><text x="620.843" y="275.543" font-family="'ArialMT', 'Arial', sans-serif" font-size="10px">Right Menu Strip</text><text x="338.101" y="114.809" font-family="'AvenirNext-Regular', 'Avenir Next', sans-serif" font-size="12px">Applica<tspan x="380.053" y="114.809">t</tspan>ion <tspan x="403.945px 412.345px" y="114.809px 114.809px">Ac</tspan>cess Strip concept</text><path d="M258.994,266.25l2.305,-2.305l-2.305,-2.305l0.601,-0.601l2.305,2.305l2.305,-2.305l0.602,0.601l-2.305,2.305l2.305,2.305l-0.602,0.602l-2.305,-2.305l-2.305,2.305l-0.601,-0.602Z" fill="#8c8c8c"/><path d="M255.136,273.937l3.118,3.36l-6.236,0l3.118,-3.36Z" fill="#b3b3b3"/><path d="M255.136,273.937l3.118,3.36l-6.236,0l3.118,-3.36Z" fill="#b3b3b3"/><path d="M264.814,330.085l-3.894,-2.419l6.015,-1.644l-2.121,4.063Z" fill="#b3b3b3"/><path d="M596.649,273.937c0,0 0.608,26.705 -9.111,56.148" fill="none" stroke="#8c8c8c" stroke-width="0.5px"/><path d="M599.555,266.25l-2.305,-2.305l2.305,-2.305l-0.601,-0.601l-2.305,2.305l-2.306,-2.305l-0.601,0.601l2.305,2.305l-2.305,2.305l0.601,0.602l2.306,-2.305l2.305,2.305l0.601,-0.602Z" fill="#8c8c8c"/><path d="M603.413,273.937l-3.119,3.36l6.237,0l-3.118,-3.36Z" fill="#b3b3b3"/><path d="M603.413,273.937l-3.119,3.36l6.237,0l-3.118,-3.36Z" fill="#b3b3b3"/><path d="M593.735,330.085l3.894,-2.419l-6.016,-1.644l2.122,4.063Z" fill="#b3b3b3"/><text x="326.79" y="68.835" font-family="'AvenirNext-Regular', 'Avenir Next', sans-serif" font-size="18px">V<tspan x="337.68px 342.18px" y="68.835px 68.835px">is</tspan>ual <tspan x="378.954px 389.412px 400.41px" y="68.835px 68.835px 68.835px">Voi</tspan>ce Intermesh Ui</text><path d="M440.574,27.366c0,-1.952 -1.584,-3.536 -3.536,-3.536l-15.604,0c-1.952,0 -3.537,1.584 -3.537,3.536l0,15.604c0,1.952 1.585,3.537 3.537,3.537l15.604,0c1.952,0 3.536,-1.585 3.536,-3.537l0,-15.604Z" fill="#191919"/><path d="M436.046,30.615c0,-0.151 -0.06,-0.297 -0.167,-0.404c-0.107,-0.107 -0.252,-0.167 -0.404,-0.167c-0.506,0 -1.241,0 -1.74,0c-0.301,0 -0.545,0.244 -0.545,0.545c0,0.274 0,0.606 0,0.88c0,0.144 0.057,0.282 0.159,0.384c0.102,0.102 0.241,0.159 0.385,0.159c0.828,0 2.312,0 2.312,0c0,0 0,-0.816 0,-1.397Zm-2.029,2.093c-0.224,0 -0.438,0.092 -0.592,0.255c-0.154,0.163 -0.234,0.383 -0.221,0.607c0.016,0.319 0.022,0.67 0.022,1.094l0,3.672c0,0.381 -0.005,0.708 -0.019,1.013c-0.013,0.245 0.076,0.485 0.246,0.663c0.169,0.179 0.404,0.279 0.65,0.279c0.355,0.001 0.756,0.001 1.105,0.001c0.227,0 0.444,-0.093 0.6,-0.259c0.156,-0.165 0.238,-0.387 0.225,-0.613c-0.017,-0.324 -0.023,-0.679 -0.023,-1.096l0,-3.66c0,-0.477 0.007,-0.852 0.023,-1.174c0.013,-0.202 -0.058,-0.401 -0.196,-0.549c-0.139,-0.148 -0.333,-0.232 -0.536,-0.232c-0.397,-0.001 -0.876,-0.001 -1.284,-0.001Z" fill="#fbfbfb" fill-rule="nonzero"/><path d="M422.473,31.036c-0.085,-0.225 -0.054,-0.478 0.082,-0.676c0.137,-0.198 0.363,-0.316 0.603,-0.316c0.519,0 1.127,0 1.581,0c0.4,0 0.754,0.26 0.873,0.642c0.333,1.064 1.011,3.232 1.508,4.822c0.082,0.26 0.323,0.437 0.595,0.436c0.272,-0.001 0.513,-0.178 0.593,-0.439c0.491,-1.596 1.162,-3.774 1.488,-4.832c0.116,-0.374 0.461,-0.629 0.852,-0.629c0.358,0 0.814,0 1.241,0c0.3,0 0.581,0.147 0.752,0.393c0.171,0.246 0.211,0.56 0.107,0.841c-0.834,2.248 -2.569,6.922 -3.15,8.489c-0.117,0.316 -0.418,0.525 -0.755,0.525c-0.626,0 -1.637,0 -2.278,0c-0.358,0 -0.678,-0.221 -0.805,-0.556c-0.626,-1.657 -2.485,-6.578 -3.287,-8.7Z" fill="#fbfbfb" fill-rule="nonzero"/></svg>