<?xml version="1.0" standalone="no"?>
<!DOCTYPE svg PUBLIC "-//W3C//DTD SVG 1.1//EN" "http://www.w3.org/Graphics/SVG/1.1/DTD/svg11.dtd" >
<svg xmlns="http://www.w3.org/2000/svg">
<metadata>Generated by IcoMoon</metadata>
<defs>
<font id="gsl-icons" horiz-adv-x="1024">
<font-face units-per-em="1024" ascent="960" descent="-64" />
<missing-glyph horiz-adv-x="1024" />
<glyph unicode="&#x20;" horiz-adv-x="512" d="" />
<glyph unicode="&#xe900;" glyph-name="globe" d="M512 960c-282.78 0-512-229.24-512-512s229.22-512 512-512 512 229.24 512 512-229.24 512-512 512zM344.72 680.28c21.040 0 38-17.86 38-40s-38-79.82-38-79.82-38.1 57.78-38.1 79.82 17.060 40 38.1 40zM172.58 108.58c-86.988 86.799-140.805 206.812-140.805 339.395 0 127.294 49.609 243.001 130.547 328.843l-0.222-0.238c0.56-2 0.68-4.78 5.88-12.58 4-8 4-8 6.28-18.36 1.78-22.36 6.18-46.34 5.040-63.48-4.12-62.48-10-101.6 24.92-154.32 13.6-20.54 16.94-50 23.56-73.74 6.48-23.26 32.34-35.44 50.2-49.78 36-28.92 70.44-62.52 108.62-88 25.2-16.8 40.94-25.14 33.56-57.36-6-25.9-7.58-41.86-20.38-64.92-4-7.040 14.74-52.3 20.94-58.8 18.8-19.68 37.46-37.74 58-55.48 31.76-27.5-3.080-63.22-18.24-102.72 0.061-0.951 0.096-2.061 0.096-3.18s-0.035-2.229-0.103-3.331l0.008 0.151c-113.32 12.415-213.022 62.767-287.887 137.887l-0.013 0.013zM851.4 108.58c-67.537-67.703-155.217-115.282-253.287-132.984l-2.913-0.436c1.193 1.936 2.297 4.177 3.188 6.523l0.092 0.277c12.38 32 34.44 60.58 54.9 77.1 17.8 14.38 40 42 49.38 64s21.58 40.84 34 60.96c17.72 28.62-43.68 71.78-63.56 80.84-44.76 20.36-78.46 47.82-118.24 77.14-28.34 20.88-85.9-10.9-117.88 3.72-43.82 20-80 54.88-118 84.92-39.32 31.020-37.42 67.16-37.42 112.92 30.8-1.18 74.6 8.92 95.040-17.020 6.46-8.18 28.64-44.76 43.48-31.76 12.12 10.62-8.98 53.18-13.060 63.18-12.54 30.76 28.6 42.76 49.64 63.62 27.48 27.22 86.42 70 81.76 89.4s-58.98 74.78-90.88 66.16c-4.78-1.3-46.88-47.52-55.020-54.78q0.32 22.64 0.66 45.26c0.14 9.52-16.96 19.3-16.18 25.46 2 15.54 43.28 43.72 53.54 56-7.2 4.7-31.74 26.8-39.16 23.56-18-7.86-38.3-13.26-56.28-21.12 0 5.12-8.78 25.78-13.020 37.4l3 1.3c32.962 14.402 71.314 25.655 111.322 31.915l2.678 0.345 43.28-32.48 24.94-31 24.88-26.88 21.72-7.32 34.54 34.12-8.9 24.36v21.9c6.5-0.98-10.24 10-3.82 8.82-0.12 2.26-2.66 7.1-3.52 10.28 75.74-9.738 143.871-35.861 202.878-74.712l-1.798 1.112c1.24-7.42 1.8-16.28-4.26-23.6-0.075-0.093-0.142-0.198-0.196-0.31l-0.004-0.010c-5-10.48-20.66-2.62-33.040-4-0.054-0.005-0.116-0.008-0.18-0.008-0.368 0-0.713 0.1-1.010 0.273l0.009-0.005c-3.57 1.906-7.736 3.608-12.086 4.881l-0.474 0.119c-0.19 0.066-0.41 0.104-0.638 0.104-1.105 0-2-0.895-2-2 0-0.299 0.066-0.582 0.183-0.837l-0.005 0.012c15.8-35.3 32.32-70.32 48.92-105.3 18.54-38.86 59.66-80.56 66.88-121.6 8.52-48.36 2.6-92.28 7.26-149.18 4.28-52.24 54-111.26 58.64-116.66 0.218-0.262 0.502-0.462 0.827-0.576l0.013-0.004c3.62-1.22 26-8.42 45.1-5.74 0.341 0.054 0.646 0.181 0.907 0.365l-0.007-0.005c7.74 5.34 8 5.32 15.64 1.46l0.3-0.12c1.22-0.72 5.46-9.36 8.56-15.040-23.966-80.298-65.898-149.059-121.309-204.309l-0.011-0.011z" />
<glyph unicode="&#xe901;" glyph-name="collection" d="M992 960h-960c-17.673 0-32-14.327-32-32v0-960c0-17.673 14.327-32 32-32v0h960c17.673 0 32 14.327 32 32v0 960c0 17.673-14.327 32-32 32v0zM320 32c0-17.673-14.327-32-32-32v0h-192c-17.673 0-32 14.327-32 32v0 192c0 17.673 14.327 32 32 32v0h192c17.673 0 32-14.327 32-32v0zM320 352c0-17.673-14.327-32-32-32v0h-192c-17.673 0-32 14.327-32 32v0 192c0 17.673 14.327 32 32 32v0h192c17.673 0 32-14.327 32-32v0zM320 672c0-17.673-14.327-32-32-32v0h-192c-17.673 0-32 14.327-32 32v0 192c0 17.673 14.327 32 32 32v0h192c17.673 0 32-14.327 32-32v0zM640 32c0-17.673-14.327-32-32-32v0h-192c-17.673 0-32 14.327-32 32v0 192c0 17.673 14.327 32 32 32v0h192c17.673 0 32-14.327 32-32v0zM640 352c0-17.673-14.327-32-32-32v0h-192c-17.673 0-32 14.327-32 32v0 192c0 17.673 14.327 32 32 32v0h192c17.673 0 32-14.327 32-32v0zM640 672c0-17.673-14.327-32-32-32v0h-192c-17.673 0-32 14.327-32 32v0 192c0 17.673 14.327 32 32 32v0h192c17.673 0 32-14.327 32-32v0zM960 32c0-17.673-14.327-32-32-32v0h-192c-17.673 0-32 14.327-32 32v0 192c0 17.673 14.327 32 32 32v0h192c17.673 0 32-14.327 32-32v0zM960 352c0-17.673-14.327-32-32-32v0h-192c-17.673 0-32 14.327-32 32v0 192c0 17.673 14.327 32 32 32v0h192c17.673 0 32-14.327 32-32v0zM960 672c0-17.673-14.327-32-32-32v0h-192c-17.673 0-32 14.327-32 32v0 192c0 17.673 14.327 32 32 32v0h192c17.673 0 32-14.327 32-32v0z" />
<glyph unicode="&#xe902;" glyph-name="map" d="M768 704l-38-16c3.813 15.311 6 32.888 6 50.975 0 0.037 0 0.074 0 0.11v-0.006c0 122-99.84 220.92-223 220.92s-223-98.92-223-220.96c0-0.054 0-0.118 0-0.182 0-19.567 2.561-38.536 7.367-56.59l-0.347 1.532 0.1-0.16c0.64-2.56 1.4-5.2 2.22-7.88l-75.34 28.24-224-64v-704l224 96 288-96 256 96 256-96v704zM208 60l-176-75.48v631.34l176 50.28zM513 849.52c57.74 0 104.54-46.38 104.54-103.58s-46.8-103.58-104.54-103.58-104.54 46.38-104.54 103.64 46.8 103.52 104.54 103.52zM240 60.4v603.42l75.36-28.26c44.4-93.1 144.64-218.94 182.64-265.18v-396zM752 60.18l-222-83.26v395.22c42.18 49.8 150.94 183.2 188 276l34 14.32zM992-17.82l-208 78v606.84l208-52z" />
<glyph unicode="&#xe903;" glyph-name="app" d="M1001.38-41.38l-41.38 41.38v960h-320v-640l-617.38 617.38c-4.82 4.82-9.32 7.14-13 7.14-5.82 0-9.62-5.76-9.62-16.52v-960c0-17.673 14.327-32 32-32v0h960c17.6 0 21.82 10.18 9.38 22.62zM672 928h256v-160h-32v-32h32v-160h-32v-32h32v-160h-32v-32h32v-160h-32v-32h32v-128l-256 256zM32-32v0 128h32v32h-32v160h32v32h-32v160h32v32h-32v160h32v32h-32v178.74l914.74-914.74zM224 96h320c31.22 0 42.22 18.46 45.52 26.4s8.48 28.78-13.52 50.86l-338.74 338.74c-13.66 13.66-26.92 16.52-35.64 16.52-20 0-41.62-15.18-41.62-48.52v-320c0-35.346 28.654-64 64-64v0zM192 480c0 10.76 3.82 16.52 9.62 16.52 3.68 0 8.18-2.32 13-7.16l338.76-338.74c12.44-12.44 8.22-22.62-9.38-22.62h-320c-17.673 0-32 14.327-32 32v0z" />
<glyph unicode="&#xe904;" glyph-name="money" d="M942.68 229.22l-43.040-18.58 0.36-34.64-400-172-0.7 33.88-138.6-59.88c-2.661-0.96-5.731-1.515-8.931-1.515-0.32 0-0.638 0.006-0.955 0.017l0.046-0.001c-0.32-0.011-0.696-0.017-1.073-0.017-5.627 0-10.937 1.359-15.619 3.767l0.192-0.090-271.54 174.4 88.2 33.34 166-106.6c8.9-5.7 21.58-8.74 33.8-8.74 0.312-0.006 0.681-0.010 1.050-0.010 7.734 0 15.113 1.517 21.857 4.269l-0.387-0.14 124 53.54-0.7 34.54-136-58.7c-2.661-0.96-5.731-1.515-8.931-1.515-0.32 0-0.638 0.006-0.955 0.017l0.046-0.001c-0.32-0.011-0.696-0.017-1.073-0.017-5.627 0-10.937 1.359-15.619 3.767l0.192-0.090-271.54 174.34 90.16 34 164.16-105.34c8.9-5.7 21.58-8.74 33.8-8.74 0.312-0.006 0.681-0.010 1.050-0.010 7.734 0 15.113 1.517 21.857 4.269l-0.387-0.14 121.42 52.4-0.82 34.62-133.3-57.62c-2.661-0.96-5.731-1.515-8.931-1.515-0.32 0-0.638 0.006-0.955 0.017l0.046-0.001c-0.32-0.011-0.696-0.017-1.073-0.017-5.627 0-10.937 1.359-15.619 3.767l0.192-0.090-18.6 12-253.040 162.4 91.28 34.5 171.060-109.84c8.9-5.7 21.58-8.74 33.8-8.74 0.312-0.006 0.681-0.010 1.050-0.010 7.734 0 15.113 1.517 21.857 4.269l-0.387-0.14 110.94 47.88-0.32 15.52-18 11.5-105.3-45.5c-2.661-0.96-5.731-1.515-8.931-1.515-0.32 0-0.638 0.006-0.955 0.017l0.046-0.001c-0.32-0.011-0.696-0.017-1.073-0.017-5.627 0-10.937 1.359-15.619 3.767l0.192-0.090-271.54 174.4 124.34 47-33.66 21.48-131.5-49.72c-16.46-6.22-17.82-19.1-3-28.6l93.56-60.12-98.56-37.28c-16.46-6.22-17.82-19.1-3-28.6l100.52-64.54-97.52-36.86c-16.46-6.22-17.82-19.1-3-28.6l98.56-63.28-95.56-36.12c-16.46-6.22-17.82-19.1-3-28.6l298.14-191.42c8.9-5.7 21.58-8.74 33.8-8.74 0.312-0.006 0.681-0.010 1.050-0.010 7.734 0 15.113 1.517 21.857 4.269l-0.387-0.14 613.16 264.64c16.16 6.98 16.7 19.52 1.22 27.88l-89 48 0.38-36.56zM995.84 625.2l-295.68 159.6c-9.22 4.98-22.24 7.62-34.72 7.62-0.36 0.007-0.784 0.011-1.209 0.011-7.964 0-15.607-1.374-22.705-3.898l0.474 0.147-88.6-33.48-1.4 0.8-392-148 1.5-0.96 330.5-210.98 0.32-15.44 1.78-86.92 0.7-34.54 2-94.32 0.7-34.54 1.88-92.34 0.62-33.96 400 172-0.36 34.64-0.42 42-0.38 36.56-0.14 14.14 88 38c16.16 6.98 16.7 19.52 1.22 27.88l-90.38 48.78-0.16 14.86 89.24 38.52c16.16 6.98 16.7 19.52 1.22 27.88l-91.64 49.4v6.16l98.48 42.5c16.1 6.98 16.64 19.52 1.16 27.88zM942.68 357.2l-44.34-19.2-0.34 43.38zM942.68 487.2l-45.66-19.7-0.46 44.6zM531.020 52.18l-1.86 91.82-0.7 34.54-2 94.32-0.7 34.54-1.76 86.84v2.4l-0.34 17.1-14.44 9.2-276.72 176.74 318.52 120.32 313.16-171.080 0.2-19.44 0.78-75.72 0.56-55 0.76-74.42 0.56-54.28 0.74-73.060zM874 580l-283.52 154.98 62.9 23.78c3.222 1.066 6.93 1.681 10.782 1.681 0.428 0 0.855-0.008 1.28-0.023l-0.062 0.002c0.341 0.009 0.741 0.014 1.143 0.014 6.643 0 12.96-1.396 18.674-3.911l-0.297 0.117 265.72-143.42zM590.56 516.4c-12.391-5.082-26.772-8.033-41.843-8.033-3.477 0-6.918 0.157-10.315 0.464l0.438-0.032q-26 2.38-41.76 14.88-0.84 0.66-2.48 2.12l24.5 10.34q25.42-17.64 56.32-7.76l-42.9 33.9q-58.46-16-87.58 7.020-15.54 12.28-11.8 25.9t26.24 24.8l-24.74 19.56 20.32 8.58 24.74-19.56c10.866 3.766 23.389 5.941 36.421 5.941 1.695 0 3.381-0.037 5.058-0.11l-0.239 0.008q22.26-0.7 43.34-17.34l2.24-1.78-23.68-10c-6.396 5.463-14.092 9.607-22.549 11.905l-0.411 0.095c-3.065 0.636-6.586 1-10.193 1-5.109 0-10.048-0.73-14.717-2.093l0.371 0.093 40.66-32.14q37.36 9.7 57 7.36c12.572-1.222 23.864-5.888 33.152-13.032l-0.152 0.112q17.080-13.48 12.94-27.36t-28.1-26.26l14.52-11.46-20.32-8.58zM512.56 578.060l-38.24 30.2q-21.38-12.66-5.22-25.42 15.28-12.080 43.4-4.84zM555.72 568.6l39.86-31.5q24.62 14.82 7.38 28.44c-4.808 3.696-10.714 6.199-17.153 6.964l-0.167 0.016q-10.34 1.48-29.98-3.9z" />
<glyph unicode="&#xe905;" glyph-name="poc" d="M728.28 404.16c63.855 58.695 103.729 142.618 103.729 235.854 0 176.731-143.269 320-320 320s-320-143.269-320-320c0-92.634 39.361-176.074 102.27-234.509l0.201-0.184c-155.72-65.6-262.48-200.080-262.48-355.32 0.040-40.905 7.368-80.086 20.754-116.333l-0.754 2.333h916c12.632 33.914 19.96 73.095 20 113.983v0.017c0 154.34-105.5 288.14-259.72 354.16zM308.28 436.34c-52.116 52.117-84.35 124.116-84.35 203.644 0 159.058 128.942 288 288 288s288-128.942 288-288c0-79.527-32.234-151.526-84.35-203.644v0q-10.14-10.14-21.080-19.12c-49.226-40.744-113.012-65.462-182.57-65.462-70.088 0-134.314 25.095-184.184 66.791l0.454-0.369q-10.2 8.58-19.84 18.18zM944.7-32h-869.4c-7.166 24.573-11.292 52.803-11.3 81.995v0.005c0 146.92 106 273.86 258.6 332 52.315-38.774 118.135-62.067 189.395-62.067 70.664 0 135.978 22.904 188.923 61.694l-0.898-0.628c151.16-58.6 255.98-185 255.98-331-0.008-29.197-4.134-57.427-11.829-84.145l0.529 2.145zM576 224c0-35.346-28.654-64-64-64s-64 28.654-64 64c0 35.346 28.654 64 64 64s64-28.654 64-64zM580 64c0-35.346-28.654-64-64-64s-64 28.654-64 64c0 35.346 28.654 64 64 64s64-28.654 64-64z" />
<glyph unicode="&#xe906;" glyph-name="boat" d="M706.8 80.56c-119.44-82-270.52-82-390 0 0 0-131.74-144.58-243.72-144.58h48.8c68.24 0 134 26.48 194.98 57.82 56.686-29.624 123.813-47.003 195-47.003s138.314 17.379 197.371 48.126l-2.371-1.124c60.88-31.3 126.68-57.8 194.92-57.8h48.74c-108.9 0-243.72 144.56-243.72 144.56zM832 494.66v305.34h-192v160h-256v-160h-192v-305.34l-192-68s84-330.66 96-362.66c128 0 224 90.66 224 90.66s96-90.66 192-90.66 192 90.66 192 90.66 96-90.66 224-90.66c12 40 96 362.66 96 362.66zM416 928h192v-128h-192zM224 768h576v-256h-16.94l-271.060 96-271.060-96h-16.94zM320 198.74l-22-20.74c-17.417-15.341-36.875-29.151-57.702-40.807l-1.698-0.873c-28.38-16-70.66-34.46-119.4-39.18-16 56-53.060 199.24-81.080 309.12l457.88 162.12v-471.4c-76.86 9.22-153.24 80.2-154 80.94zM904 97.2c-48.48 4.82-90.5 23.28-118.76 39.12-22.46 12.54-41.865 26.347-59.606 41.997l0.366-0.317-22 20.6-22-20.6c-0.82-0.76-77.2-71.74-154-80.96v471.34l457.62-162c-17.84-68.38-63.040-241.36-81.62-309.18z" />
<glyph unicode="&#xe907;" glyph-name="lock" d="M896 576h-92.28c0.16 2.64 0.28 5.32 0.28 8v248c-0.215 70.606-57.394 127.785-127.979 128h-324.021c-70.606-0.215-127.785-57.394-128-127.979v-248.021c0-2.68 0.12-5.36 0.28-8h-96.28c-17.673 0-32-14.327-32-32v0-576c0-17.673 14.327-32 32-32v0h768c17.673 0 32 14.327 32 32v0 576c0 17.673-14.327 32-32 32v0zM544 9c-0.011-4.966-4.034-8.989-8.999-9h-46.001c-4.966 0.011-8.989 4.034-9 8.999v119.001c-71.32 15.337-124 77.858-124 152.683 0 86.156 69.844 156 156 156s156-69.844 156-156c0-74.825-52.68-137.346-122.974-152.497l-1.026-0.185c0-10 0-119 0-119zM288 832c0.214 35.26 28.74 63.786 63.98 64h324.020c35.26-0.214 63.786-28.74 64-63.98v-248.020c-0.006-2.826-0.195-5.602-0.555-8.325l0.035 0.325h-450.96c-0.325 2.397-0.514 5.174-0.52 7.993v0.007z" />
<glyph unicode="&#xe908;" glyph-name="link" d="M627.040 465.22l-105.54-105.54c-18.24-18.24-48.62-17.74-67.48 1.12l-137.22 137.2c-18.86 18.86-19.38 49.24-1.12 67.48l265.4 265.4c18.24 18.24 48.62 17.74 67.48-1.12l137.22-137.22c18.86-18.86 19.38-49.24 1.12-67.48l-68.38-68.38 45.74-45.74 101.56 101.56c24.32 24.32 23.66 64.82-1.5 90l-205.82 205.8c-25.16 25.16-65.64 25.84-90 1.5l-331.74-331.8c-24.32-24.32-23.66-64.82 1.5-90l205.74-205.74c25.16-25.16 65.64-25.84 90-1.5l138.72 138.72zM810 419.48l-205.82 205.82c-11.727 11.659-27.892 18.866-45.74 18.866s-34.013-7.207-45.743-18.869l-137.217-137.297 45.74-45.74 102.92 102.92c8.795 8.742 20.916 14.145 34.3 14.145s25.505-5.403 34.302-14.147l137.258-137.178c8.742-8.795 14.145-20.916 14.145-34.3s-5.403-25.505-14.147-34.302l-274.478-274.398c-8.795-8.742-20.916-14.145-34.3-14.145s-25.505 5.403-34.302 14.147l-137.218 137.218c-8.742 8.795-14.145 20.916-14.145 34.3s5.403 25.505 14.147 34.302l79.998 79.998-45.7 45.78-114.34-114.34c-11.659-11.727-18.866-27.892-18.866-45.74s7.207-34.013 18.869-45.743l205.817-205.817c11.727-11.659 27.892-18.866 45.74-18.866s34.013 7.207 45.743 18.869l343.037 343.037c11.659 11.727 18.866 27.892 18.866 45.74s-7.207 34.013-18.869 45.743l0.003-0.003z" />
<glyph unicode="&#xe909;" glyph-name="drone" d="M816 352c-0.095 0-0.208 0-0.321 0-38.562 0-74.662-10.544-105.574-28.905l0.955 0.525c-12.573 37.137-19.829 79.911-19.829 124.38s7.256 87.243 20.65 127.202l-0.82-2.822c30.046-17.841 66.239-28.386 104.894-28.386 114.875 0 208 93.125 208 208s-93.125 208-208 208c-114.875 0-208-93.125-208-208 0-38.655 10.545-74.848 28.914-105.858l-0.528 0.964c-37.132-12.569-79.9-19.824-124.362-19.824-45.624 0-89.463 7.638-130.31 21.706l2.812-0.842c17.305 29.739 27.52 65.453 27.52 103.552 0 0.108 0 0.217 0 0.325v-0.017c0 114.88-92.22 208-206 208s-206-93.12-206-208 92.22-208 206-208c0.084 0 0.183 0 0.283 0 39.256 0 75.917 11.112 107.008 30.363l-0.871-0.502c12.893-37.581 20.337-80.881 20.337-125.919 0-44.454-7.252-87.214-20.637-127.162l0.82 2.822c-30.057 17.857-66.264 28.411-104.937 28.411-114.875 0-208-93.125-208-208s93.125-208 208-208c114.875 0 208 93.125 208 208 0 38.653-10.543 74.844-28.911 105.853l0.528-0.964c37.134 12.575 79.905 19.832 124.37 19.832s87.236-7.258 127.191-20.653l-2.821 0.82c-17.843-30.048-28.389-66.242-28.389-104.9 0-114.875 93.125-208 208-208s208 93.125 208 208c0 114.865-93.108 207.983-207.969 208h-0.002zM282.48 722.78c3.497 8.659 5.525 18.7 5.525 29.215 0 44.183-35.817 80-80 80s-80-35.817-80-80c0-44.183 35.817-80 80-80 10.515 0 20.556 2.029 29.753 5.716l-0.539-0.191 56.34-56.34c2.6-5.5 5.020-11.040 7.36-16.62-26.66-17.894-59.476-28.56-94.783-28.56-0.048 0-0.096 0-0.144 0h0.007c-96 0-174 78.96-174 176s78 176 174 176 174-78.96 174-176c0-0.046 0-0.101 0-0.156 0-34.104-9.677-65.948-26.435-92.935l0.435 0.751c-5.1 2.16-10.2 4.4-15.24 6.78zM384 144c0-0.046 0-0.101 0-0.156 0-97.29-78.87-176.16-176.16-176.16s-176.16 78.87-176.16 176.16c0 97.29 78.87 176.16 176.16 176.16 34.762 0 67.172-10.069 94.474-27.449l-0.714 0.425q-5.42-13.060-11.76-25.88l-49.84-49.8c-9.439 4.235-20.458 6.702-32.054 6.702-44.183 0-80-35.817-80-80s35.817-80 80-80c44.183 0 80 35.817 80 80 0 9.421-1.629 18.462-4.62 26.856l0.174-0.559 62.66 62.66c3.58 1.6 7.18 3.14 10.78 4.64 16.976-26.483 27.060-58.796 27.060-93.464 0-0.048 0-0.096 0-0.143v0.007zM512 348c-55.228 0-100 44.772-100 100s44.772 100 100 100c55.228 0 100-44.772 100-100v0c0-55.228-44.772-100-100-100v0zM816 928c0.028 0 0.062 0 0.095 0 97.202 0 176-78.798 176-176s-78.798-176-176-176c-34.731 0-67.111 10.060-94.388 27.424l0.713-0.424c2.52 6 5.18 12.16 8 18.18l56.34 56.34c8.659-3.497 18.7-5.525 29.215-5.525 44.183 0 80 35.817 80 80s-35.817 80-80 80c-44.183 0-80-35.817-80-80 0-10.515 2.029-20.556 5.716-29.753l-0.191 0.539-56.34-56.34q-9.020-4.26-18.16-8c-16.896 26.538-26.928 58.877-26.928 93.56 0 97.177 78.757 175.959 175.924 176h0.004zM816-32c-97.173 0.038-175.933 78.821-175.933 176 0 34.699 10.042 67.053 27.378 94.314l-0.425-0.714q5.4-2.24 10.78-4.64l65.66-65.66c-2.209-6.984-3.482-15.016-3.482-23.345 0-44.183 35.817-80 80-80s80 35.817 80 80c0 44.183-35.817 80-80 80-12.65 0-24.614-2.936-35.248-8.164l0.47 0.209-51.040 51.040q-6.36 12.82-11.76 25.88c26.592 16.99 59.019 27.080 93.802 27.080 97.202 0 176-78.798 176-176s-78.798-176-176-176c-0.071 0-0.142 0-0.213 0h0.011zM544 448c0-17.673-14.327-32-32-32s-32 14.327-32 32c0 17.673 14.327 32 32 32s32-14.327 32-32z" />
<glyph unicode="&#xe90a;" glyph-name="tree" d="M1001.62 516.26c-6.69 8.914-14.206 16.658-22.587 23.364l-0.253 0.196c6.074 13.088 9.635 28.402 9.68 44.544v0.016c0 39-21.080 74.86-55.62 97.46 1.45 6.602 2.28 14.185 2.28 21.963 0 0.013 0 0.026 0 0.039v-0.002c0 33.56-15.14 64.76-42.66 87.88-23.441 19.433-53.357 31.809-86.096 33.525l-0.364 0.015c-7.268 22.678-20.473 41.749-37.795 55.996l-0.205 0.164c-26 21.76-60 33.76-96 33.76-0.055 0-0.121 0-0.186 0-16.508 0-32.421-2.552-47.364-7.283l1.11 0.303c-9.68 11.965-21.145 22.016-34.080 29.892l-0.58 0.328c-22.567 13.552-49.797 21.568-78.9 21.568s-56.334-8.016-79.605-21.96l0.705 0.392c-13.515-8.204-24.98-18.255-34.467-29.974l-0.193-0.246c-13.833 4.428-29.745 6.98-46.254 6.98-0.066 0-0.131 0-0.196 0h0.010c-36 0-70.12-12-96-33.76-18.096-14.874-31.582-34.747-38.386-57.505l-0.214-0.835c-26.207-4.62-49.267-15.682-68.234-31.489l0.234 0.189c-27.5-23.12-42.66-54.32-42.66-87.88 0-0.010 0-0.022 0-0.035 0-4.542 0.283-9.017 0.834-13.409l-0.054 0.524c-43.62-20.98-71.96-61.46-71.96-106.62 0.045-16.158 3.606-31.472 9.959-45.234l-0.279 0.674c-8.634-6.902-16.15-14.646-22.605-23.233l-0.235-0.327c-13.944-18.151-22.346-41.192-22.346-66.196 0-21.012 5.933-40.638 16.216-57.294l-0.27 0.47c6.155-10.067 13.259-18.743 21.388-26.334l0.072-0.066c-1.171-6.459-1.84-13.893-1.84-21.484 0-0.013 0-0.026 0-0.038v0.002c0-39.42 17.86-76.14 50.3-103.4 30.84-26 71.5-40.18 114.48-40.18 0.016 0 0.035 0 0.054 0 20.654 0 40.528 3.344 59.108 9.521l-1.322-0.381c25.34-20.56 58.42-32 93.82-32 26.82 0 48.58 4.24 70.58 13.74 2.119 0.941 3.917 1.937 5.619 3.067l-0.139-0.087c9.516-8.451 20.319-15.784 32.004-21.614l0.856-0.386c-1.88-92.54-21.2-178.26-44.92-237.58h192c-23.42 58.56-42.54 142.84-44.84 234 13.695 6.479 25.38 14.909 35.272 25.091l0.028 0.029c26.58-15.42 58.66-18 77.060-18 0.513-0.006 1.119-0.010 1.726-0.010 10.653 0 21.047 1.111 31.073 3.222l-0.978-0.172c32.32 7.36 46.12 15.62 60.26 30.12 16.74-5.437 36.003-8.575 55.998-8.58h0.002c42.98 0 83.64 14.28 114.48 40.18 32.44 27.26 50.3 64 50.3 103.4 0 0.011 0 0.024 0 0.036 0 7.59-0.669 15.025-1.952 22.246l0.112-0.763c8.178 7.663 15.263 16.345 21.092 25.878l0.308 0.542c10 16.178 15.926 35.793 15.926 56.791 0 25.027-8.418 48.088-22.577 66.507l0.19-0.258zM950.3 378.92c3.881-9.977 6.133-21.524 6.14-33.597v-0.003c0-61.64-59.46-111.6-132.8-111.6-0.153-0.001-0.334-0.001-0.516-0.001-23.484 0-45.725 5.326-65.579 14.836l0.915-0.395c-19.38-22.56-23.64-28.92-58.22-36.78-6.949-1.444-14.935-2.271-23.114-2.271-0.572 0-1.142 0.004-1.712 0.012l0.086-0.001c-22.5 0-51.68 4.6-69.78 19.8 0.18-0.16 0.24-0.22 0.18-0.22-0.5 0-11.82 7.020-15.020 7.020-0.42 0-0.7-0.12-0.8-0.38-7.381-11.112-16.323-20.506-26.641-28.148l-0.299-0.212c3.92 148.12-4.9 147.42 144.86 241.020-160-44-196 160-196 160s-20-200-192-160c148.56-92.84 136.12-90.34 140.74-237.46-10.098 6.756-18.608 14.986-25.461 24.49l-0.199 0.29c0 0.14-0.22 0.2-0.44 0.2-3.44 0-24.36-13.38-24.76-13.56-18.58-8-36.4-11.12-57.88-11.12-35.64 0-67.1 14.74-86.48 37.3-18.94-9.115-41.18-14.441-64.664-14.441-0.181 0-0.362 0-0.543 0.001h0.028c-73.34 0-132.8 50-132.8 111.6 0.007 12.076 2.259 23.623 6.361 34.251l-0.221-0.651c-25.3 16.4-41.68 42.060-41.68 71.1 0 34.74 23.56 64.8 58 79.68-14 15.16-22.38 34.12-22.38 54.78 0 41.36 33.38 76 78.72 86.42-4.758 9.676-7.559 21.056-7.6 33.086v0.014c0 49.5 47.76 89.64 106.66 89.64 0 49.5 47.76 89.64 106.66 89.64 0.168 0.001 0.367 0.001 0.567 0.001 21.588 0 41.854-5.659 59.396-15.575l-0.603 0.313c14.58 34.92 54 60 100.58 60s86-25.1 100.58-60c16.905 9.553 37.121 15.182 58.652 15.182 0.27 0 0.54-0.001 0.81-0.003h-0.041c58.92 0 106.66-40.14 106.66-89.64 0-0.46 0-0.9 0-1.36 5.343 0.833 11.529 1.326 17.824 1.36h0.036c58.92 0 106.66-40.14 106.66-89.64-0.077-13.853-3.777-26.825-10.2-38.039l0.2 0.379c37.28-14 63.3-45.34 63.3-81.86 0-20.66-8.4-39.62-22.38-54.78 34.38-14.88 58-44.94 58-79.68-0.1-28.96-16.48-54.62-41.8-71z" />
<glyph unicode="&#xe90b;" glyph-name="imagery" d="M823.040 614.24c-20.785 1.337-38.976 11.423-51.090 26.578l-0.11 0.142-48.64 68.32c-12.224 15.297-30.415 25.383-50.991 26.709l-0.209 0.011h-320c-20.785-1.337-38.976-11.423-51.090-26.578l-0.11-0.142-48.8-68.32c-12.224-15.297-30.415-25.383-50.991-26.709l-0.209-0.011h-168.8c-0.008 0-0.017 0-0.026 0-17.673 0-32-14.327-32-32 0-0.45 0.009-0.898 0.028-1.344l-0.002 0.064v-611.68c-0.016-0.382-0.026-0.83-0.026-1.28 0-17.673 14.327-32 32-32 0.009 0 0.018 0 0.027 0h959.999c0.008 0 0.017 0 0.026 0 17.673 0 32 14.327 32 32 0 0.45-0.009 0.898-0.028 1.344l0.002-0.064v611.68c0.016 0.382 0.026 0.83 0.026 1.28 0 17.673-14.327 32-32 32-0.009 0-0.018 0-0.027 0h0.001zM512 0c-141.385 0-256 114.615-256 256s114.615 256 256 256c141.385 0 256-114.615 256-256v0c0-141.385-114.615-256-256-256v0zM904 448c-30.928 0-56 25.072-56 56s25.072 56 56 56c30.928 0 56-25.072 56-56v0c0-30.928-25.072-56-56-56v0zM656 256c0-79.529-64.471-144-144-144s-144 64.471-144 144c0 79.529 64.471 144 144 144s144-64.471 144-144z" />
<glyph unicode="&#xe90c;" glyph-name="elevation" d="M546.56 755.32l303.14-606.26 115.080 57.56 23.86-238.62h-943.24l131.46 368 154.22-94.9 14.44 34.48 201.040 479.74zM544 832l-228-544-156 96-160-448h1024l-32 320-128-64-320 640z" />
<glyph unicode="&#xe90d;" glyph-name="cube" d="M528.88 463.48c-15.4-8.52-40.52-8.34-55.8 0.38l-407.28 234.28c-15.28 8.72-15.28 22.98 0 31.7l409.28 224.3c15.28 8.72 40.4 8.88 55.8 0.38l411.12-225.040c15.4-8.52 15.4-22.44 0-30.96zM968 192c0-17.6-12.72-38.74-28.26-47l-371.62-206c-15.54-8.24-28.54-0.6-28.86 17l-1.72 428c-0.32 17.6 12 38.96 27.42 47.46l371.040 205.080c15.4 8.5 28 1.060 28-16.54zM56 192c0-17.6 12.3-38.74 27.32-47l361.32-206c15.020-8.24 27.58-0.6 27.9 17l-0.54 428c0.32 17.6-11.6 38.96-26.5 47.46l-362.42 205.080c-14.9 8.5-27.080 1.060-27.080-16.54z" />
<glyph unicode="&#xe90e;" glyph-name="site-manager" d="M32 960h192c17.673 0 32-14.327 32-32v-192c0-17.673-14.327-32-32-32h-192c-17.673 0-32 14.327-32 32v192c0 17.673 14.327 32 32 32zM416 960h192c17.673 0 32-14.327 32-32v-192c0-17.673-14.327-32-32-32h-192c-17.673 0-32 14.327-32 32v192c0 17.673 14.327 32 32 32zM800 960h192c17.673 0 32-14.327 32-32v-192c0-17.673-14.327-32-32-32h-192c-17.673 0-32 14.327-32 32v192c0 17.673 14.327 32 32 32zM32 192h192c17.673 0 32-14.327 32-32v-192c0-17.673-14.327-32-32-32h-192c-17.673 0-32 14.327-32 32v192c0 17.673 14.327 32 32 32zM416 192h192c17.673 0 32-14.327 32-32v-192c0-17.673-14.327-32-32-32h-192c-17.673 0-32 14.327-32 32v192c0 17.673 14.327 32 32 32zM800 192h192c17.673 0 32-14.327 32-32v-192c0-17.673-14.327-32-32-32h-192c-17.673 0-32 14.327-32 32v192c0 17.673 14.327 32 32 32zM32 576h192c17.673 0 32-14.327 32-32v-192c0-17.673-14.327-32-32-32h-192c-17.673 0-32 14.327-32 32v192c0 17.673 14.327 32 32 32zM416 576h192c17.673 0 32-14.327 32-32v-192c0-17.673-14.327-32-32-32h-192c-17.673 0-32 14.327-32 32v192c0 17.673 14.327 32 32 32zM800 576h192c17.673 0 32-14.327 32-32v-192c0-17.673-14.327-32-32-32h-192c-17.673 0-32 14.327-32 32v192c0 17.673 14.327 32 32 32z" />
<glyph unicode="&#xe90f;" glyph-name="box" d="M539.78 944.12c-15.28 8.74-40.28 8.74-55.56 0l-392.44-224.24c-15.28-8.74-27.78-30.28-27.78-47.88v-448c0-17.6 12.5-39.14 27.78-47.88l392.44-224.24c15.28-8.74 40.28-8.74 55.56 0l392.44 224.24c15.28 8.74 27.78 30.28 27.78 47.88v448c0 17.6-12.5 39.14-27.78 47.88zM484.22 908.34c15.28 8.74 40.28 8.74 55.56 0l329.82-188.46c15.28-8.74 15.28-23.020 0-31.76l-329.82-188.46c-15.28-8.74-40.28-8.74-55.56 0l-329.82 188.46c-15.28 8.74-15.28 23.020 0 31.76zM96 653.72c0 17.6 12.5 24.86 27.78 16.12l344.44-196.82c15.28-8.74 27.78-30.28 27.78-47.88v-420.38c0-17.6-12.62-25.080-28-16.62l-344 188.48c-15.38 8.46-28 29.78-28 47.38zM928 224c0-17.6-12.62-38.92-28-47.38l-344-188.48c-15.44-8.46-28-0.98-28 16.62v420.38c0 17.6 12.5 39.14 27.78 47.88l344.44 196.82c15.28 8.74 27.78 1.48 27.78-16.12z" />
<glyph unicode="&#xe910;" glyph-name="training" d="M960 224h-896l-64-214.86s-2.2-73.14 73.14-73.14h877.72c73.46 0 73.14 73.14 73.14 73.14zM672 0h-320v64h320zM928 864h-832c-17.673 0-32-14.327-32-32v0-544h896v544c0 17.673-14.327 32-32 32v0zM292 320c45.837 74.862 127.173 124.057 220 124.057s174.163-49.195 219.36-122.935l0.64-1.122zM352 640c0 88.366 71.634 160 160 160s160-71.634 160-160c0-88.366-71.634-160-160-160v0c-88.324 0.102-159.898 71.676-160 159.99v0.010zM928 320h-159.4c-36.785 70.177-99.643 122.476-175.383 144.532l-2.037 0.508c67.094 30.906 112.83 97.571 112.83 174.917 0 106.039-85.961 192-192 192s-192-85.961-192-192c0-77.347 45.736-144.011 111.639-174.425l1.191-0.493c-77.785-22.559-140.651-74.859-176.683-143.459l-0.757-1.581h-159.4v512h832z" />
<glyph unicode="&#xe911;" glyph-name="noaa" d="M981.44 653.44s-192-260.96-345.12-298.56c0 0 78.080 5.44 121.12-21.6 2.24-1.44-88.32-11.2-156-45.76-204.64-104.16-247.52-37.6-247.52-37.6 75.36 2.72 156 61.92 156 61.92-224-16-406.24 231.36-406.24 231.36-22.152 21.884-49.593 38.464-80.232 47.648l-1.368 0.352c-13.176-43.215-20.763-92.884-20.763-144.326 0-282.77 229.23-512 512-512s512 229.23 512 512c0 74.512-15.917 145.307-44.536 209.17l1.299-3.244zM274.4 574.080c164.64-246.88 273.12-219.2 273.12-219.2 172.48 18.72 225.92 234.080 225.92 234.080 22.078 75.857 76.831 135.805 147.593 164.515l1.687 0.605c-94.384 125.232-242.841 205.348-410.010 205.348-175.596 0-330.545-88.396-422.777-223.117l-1.132-1.751s86.080-11.040 185.6-160.48z" />
<glyph unicode="&#xe912;" glyph-name="unpublish" d="M330 224.94c-9.1 0-12.64-6.14-7.88-13.66l181.3-270c4.72-7.44 12.44-7.44 17.16 0l181.3 270c4.76 7.52 1.22 13.66-7.88 13.66h-101.64c-9.352 0.132-17.091 6.875-18.761 15.76l-0.019 0.12-61.88 456.98c-1.18 8.38-3.040 8.36-4.12 0l-57.32-456.96c-1.537-9.052-9.264-15.877-18.607-16h-0.013zM1024.8 480c-0.089 95.043-69.164 173.927-159.848 189.282l-1.132 0.158c0.625 5.568 0.981 12.023 0.981 18.56 0 97.202-78.798 176-176 176-0.141 0-0.282 0-0.423 0h0.022c-0.081 0-0.178 0-0.275 0-39.994 0-76.871-13.349-106.417-35.835l0.431 0.315c-40.43 78.833-121.148 131.843-214.248 131.843-132.548 0-240-107.452-240-240 0-20.235 2.504-39.886 7.22-58.658l-0.352 1.655c-78.884-25.061-135.039-97.651-135.039-183.356 0-104.73 83.853-189.876 188.084-191.961l0.195-0.003h164v32h-160c-88.323 0.056-159.901 71.669-159.901 160 0 82.809 62.908 150.924 143.541 159.164l0.679 0.056c-10.299 23.819-16.289 51.555-16.289 80.689 0 114.875 93.125 208 208 208 97.045 0 178.568-66.46 201.537-156.349l0.312-1.44c26.37 37.843 69.676 62.296 118.692 62.296 79.651 0 144.22-64.569 144.22-144.22 0-5.706-0.331-11.335-0.976-16.869l0.064 0.673c-1.358-11.957-3.976-22.853-7.757-33.19l0.317 0.99c2.64 0.12 5.28 0.2 8 0.2 88.366 0 160-71.634 160-160s-71.634-160-160-160v0h-160.44v-32h164c104.622 1.899 188.715 87.115 188.8 191.992v0.008z" />
<glyph unicode="&#xe913;" glyph-name="publish" d="M694 414.76c9.1 0 12.64 6.14 7.88 13.66l-181.3 270c-4.72 7.44-12.44 7.44-17.16 0l-181.3-270c-4.76-7.52-1.22-13.66 7.88-13.66h101.64c9.352-0.132 17.091-6.875 18.761-15.76l0.019-0.12 61.9-456.98c1.18-8.38 3.040-8.36 4.12 0l57.32 456.94c1.537 9.052 9.264 15.877 18.607 16h0.013zM1024.8 480c-0.089 95.043-69.164 173.927-159.848 189.282l-1.132 0.158c0.625 5.568 0.981 12.023 0.981 18.56 0 97.202-78.798 176-176 176-0.141 0-0.282 0-0.423 0h0.022c-0.081 0-0.178 0-0.275 0-39.994 0-76.871-13.349-106.417-35.835l0.431 0.315c-40.43 78.833-121.148 131.843-214.248 131.843-132.548 0-240-107.452-240-240 0-20.235 2.504-39.886 7.22-58.658l-0.352 1.655c-78.884-25.061-135.039-97.651-135.039-183.356 0-104.73 83.853-189.876 188.084-191.961l0.195-0.003h164v32h-160c-88.323 0.056-159.901 71.669-159.901 160 0 82.809 62.908 150.924 143.541 159.164l0.679 0.056c-10.299 23.819-16.289 51.555-16.289 80.689 0 114.875 93.125 208 208 208 97.045 0 178.568-66.46 201.537-156.349l0.312-1.44c26.37 37.843 69.676 62.296 118.692 62.296 79.651 0 144.22-64.569 144.22-144.22 0-5.706-0.331-11.335-0.976-16.869l0.064 0.673c-1.358-11.957-3.976-22.853-7.757-33.19l0.317 0.99c2.64 0.12 5.28 0.2 8 0.2 88.366 0 160-71.634 160-160s-71.634-160-160-160v0h-160.44v-32h164c104.622 1.899 188.715 87.115 188.8 191.992v0.008z" />
<glyph unicode="&#xe914;" glyph-name="list" d="M892 832v-128h-476v128h476zM924 864h-540v-192h540v192zM252 832v-128h-124v128h124zM284 864h-188v-192h188v192zM896 512v-128h-480v128h480zM928 544h-544v-192h544v192zM896 192v-128h-480v128h480zM928 224h-544v-192h544v192zM256 192v-128h-128v128h128zM288 224h-192v-192h192v192zM256 512v-128h-128v128h128zM288 544h-192v-192h192v192z" />
<glyph unicode="&#xe915;" glyph-name="sort" d="M866.16 530.8l-354.16 321.96-354.16-321.96-43.040 47.36 397.2 361.080 397.2-361.080-43.040-47.36zM512-43.24l-373.52 339.56 43.040 47.36 330.48-300.44 330.48 300.44 43.040-47.36-373.52-339.56z" />
<glyph unicode="&#xe916;" glyph-name="desktop" d="M992 800h-960c-17.673 0-32-14.327-32-32v0-608c0-17.673 14.327-32 32-32v0h377.6l-48.4-161.34c-5.060-16.86 5.2-30.66 22.8-30.66h252c17.6 0 28.28 14 23.76 30.92l-42.96 161.080h375.2c17.673 0 32 14.327 32 32v0 608c0 17.673-14.327 32-32 32v0zM32 768h960v-508h-960v508z" />
<glyph unicode="&#xe917;" glyph-name="learning" d="M416 96h192v-32h-192v32zM576 0h-128l-32 32h192l-32-32zM544-64h-64l-32 32h128l-32-32zM512 896c-176.74 0-320-137.54-320-307.2 0-0.064 0-0.141 0-0.217 0-37.389 6.941-73.157 19.604-106.086l-0.684 2.023c3.61-11.252 7.969-20.96 13.249-30.066l-0.389 0.726c14.951-29.216 33.113-54.298 54.517-76.198l-0.057 0.058c48.44-61.76 113.46-138.52 137.76-251.040h192c24.3 112.52 89.32 189.28 137.76 251.040 21.347 21.842 39.509 46.925 53.652 74.413l0.808 1.727c4.891 8.38 9.249 18.088 12.559 28.268l0.301 1.072c11.979 30.906 18.92 66.674 18.92 104.063 0 0.076 0 0.153 0 0.229v-0.012c0 169.66-143.26 307.2-320 307.2zM783.12 495.78l-0.36-0.96-0.3-0.98c-2.869-8.859-6.325-16.501-10.506-23.667l0.306 0.567-0.32-0.56-0.3-0.58c-13.398-26.179-29.679-48.653-48.869-68.27l0.049 0.050-1.2-1.24-1.060-1.36-9.52-12c-45.28-57.36-100.76-127.68-128.12-226.7h-6.72l3.8 287.92 74.32 152.84-46.32-24.84-64-128v-288h-64v288l-68 128-46.16 24.56 82.16-152.56v-288h-6.92c-27.36 99.020-82.86 169.34-128.14 226.7l-9.52 12-1.060 1.36-1.2 1.24c-19.133 19.567-35.408 42.041-48.077 66.674l-0.723 1.546-0.3 0.58-0.32 0.58c-3.876 6.6-7.332 14.241-9.961 22.257l-0.239 0.843-0.3 0.98-0.36 0.96c-10.688 27.555-16.88 59.446-16.88 92.784 0 0.104 0 0.208 0 0.312v-0.016c0 73.26 29.8 142.2 83.88 194.14 54.46 52.28 126.94 81.060 204.12 81.060s149.66-28.78 204.12-81.060c54.080-51.94 83.88-120.94 83.88-194.14 0-0.070 0-0.153 0-0.236 0-33.338-6.192-65.229-17.49-94.586l0.61 1.803z" />
<glyph unicode="&#xe918;" glyph-name="mobile" d="M768 960h-512c-17.673 0-32-14.327-32-32v0-960c0-17.673 14.327-32 32-32v0h512c17.673 0 32 14.327 32 32v0 960c0 17.673-14.327 32-32 32v0zM452 32c0 33.137 26.863 60 60 60s60-26.863 60-60c0-33.137-26.863-60-60-60v0c-33.137 0-60 26.863-60 60v0zM256 128v736h512v-736z" />
<glyph unicode="&#xe919;" glyph-name="reporting" d="M830 928v-960h-640v960h640zM862 960h-704v-1024h704v1024zM286 832h448v-256h-448v256zM286 384h448v-64h-448v64zM286 256h448v-64h-448v64zM286 128h448v-64h-448v64zM286 512h448v-64h-448v64z" />
<glyph unicode="&#xe91a;" glyph-name="web" d="M512 960c-282.76 0-512-229.24-512-512s229.24-512 512-512 512 229.24 512 512-229.24 512-512 512zM900.66 483.46q-2.84 1.84-5.76 3.64c-4.4 77.66-21.8 150.48-49.28 214.6 72.82-35.7 114.38-81.24 114.38-125.7 0-31.62-21.020-63.78-59.34-92.54zM960 352c0-41.22-35.74-83.36-98.98-117.72 21.74 61.738 34.512 132.931 34.979 207.044l0.001 0.216c1.6 1 3.16 2 4.72 3 38.26-28.76 59.28-60.92 59.28-92.54zM123.34 444.54c1.56-1 3.12-2 4.72-3 0.447-74.321 13.199-145.518 36.315-211.858l-1.395 4.598c-63.24 34.36-98.98 76.5-98.98 117.72 0 31.62 21.020 63.78 59.34 92.54zM64 576c0 44.46 41.56 90 114.38 125.7-27.5-64.14-44.88-136.94-49.28-214.6q-2.92-1.8-5.76-3.64c-38.32 28.76-59.34 60.92-59.34 92.54zM835.32 637.62c12.621-38.46 21.882-83.319 25.993-129.659l0.167-2.341c-45.26 22.42-100.3 40.5-162 52.72-6 72.96-17.84 140-34.14 197.72 51.413-8.172 97.183-20.467 140.904-36.941l-4.904 1.621c12.136-23.204 23.651-50.709 32.893-79.238l1.087-3.882zM819.32 214.46c-42.94-18-92.12-31.76-145.28-40.96 14 58.56 23.62 125.2 27.7 196.72 61.68 12.4 116.66 30.68 161.76 53.3-2.081-59.642-12.249-116.155-29.444-169.514l1.224 4.394q-7.12-22.62-15.9-43.96zM188.62 258.46c-15.971 48.965-26.139 105.478-28.19 164.055l-0.030 1.065c45.080-22.62 100-40.9 161.76-53.3 4-71.52 13.72-138.16 27.7-196.72-53.16 9.22-102.34 23.020-145.28 40.96q-8.72 21.26-15.9 43.86zM160.34 468.28q12.2 6.76 25.78 13.12c39.84 18.6 85.9 33.32 136 43.82-1.38-25.22-2.12-50.98-2.12-77.22q0-22.7 0.74-44.92c-49.6 10.48-95.16 25.1-134.62 43.52q-13.72 6.4-26 13.24c0.040 2.82 0.12 5.62 0.22 8.44zM512 544c0.631 0.002 1.379 0.002 2.128 0.002 54.843 0 108.608-4.613 160.929-13.471l-5.636 0.789c1.7-27.32 2.58-55.1 2.58-83.32q0-25.76-0.96-51.040c-47.168-8.248-101.481-12.962-156.895-12.962-0.754 0-1.507 0.001-2.261 0.003h0.116c-0.637-0.002-1.391-0.002-2.145-0.002-55.414 0-109.727 4.715-162.56 13.765l5.665-0.803q-0.96 25.26-0.96 51.040c0 28.22 0.88 56 2.58 83.32 46.685 8.070 100.45 12.682 155.292 12.682 0.748 0 1.496-0.001 2.244-0.003h-0.117zM357.040 564c6.38 72 18.72 139.1 36.34 196.86 35.61 4.508 76.815 7.081 118.62 7.081s83.009-2.573 123.462-7.568l-4.842 0.487c17.62-57.76 30-124.8 36.34-196.86-46.589 7.599-100.287 11.941-155 11.941s-108.411-4.342-160.77-12.7l5.77 0.759zM354.58 364.28c46.69-7.816 100.487-12.282 155.326-12.282 0.736 0 1.472 0.001 2.208 0.002h-0.114c0.505-0.001 1.104-0.001 1.702-0.001 54.972 0 108.895 4.488 161.424 13.118l-5.726-0.776c-4.42-70.68-14.46-137.3-29.5-196-38.24-5.309-82.422-8.34-127.312-8.34-0.207 0-0.413 0-0.62 0h0.032c-0.354 0-0.774-0.001-1.193-0.001-44.676 0-88.651 3.002-131.733 8.816l5.026-0.555c-15.040 58.78-25.080 125.4-29.5 196.080zM863.88 459.78q-12.3-6.82-26-13.24c-39.46-18.42-85.020-33.040-134.62-43.52q0.72 22.2 0.74 44.92c0 26.24-0.74 52-2.18 77.22 50.16-10.5 96.2-25.24 136-43.82q13.58-6.34 25.78-13.12c0.16-2.76 0.24-5.56 0.3-8.38zM654.9 790c-18 53.44-40.14 96.72-65.080 126.26 62.82-19.4 120.8-62.26 168-125.32q10.22-13.62 19.52-28.2c-34.296 11.006-75.647 20.522-118.070 26.735l-4.37 0.525zM617.8 798.8c0.54-1.46 1.080-2.96 1.62-4.44-32.226 3.59-69.589 5.637-107.43 5.637s-75.204-2.048-111.984-6.038l4.554 0.401c0.54 1.48 1.080 2.98 1.62 4.44 30.36 80.9 69.82 129.2 105.82 129.2s75.46-48.3 105.8-129.2zM434.18 916.16c-24.96-29.54-47.1-72.82-65.080-126.16-46.825-6.731-88.21-16.248-128.251-28.804l5.711 1.544q9.32 14.54 19.52 28.2c47.3 63.060 105.28 105.8 168.1 125.22zM358.62 756c-16.3-57.64-28.14-124.78-34.14-197.72-61.66-12.22-116.7-30.3-162-52.72 4.278 48.681 13.539 93.54 27.373 136.343l-1.213-4.343c10.291 32.383 21.768 59.864 35.3 86.112l-1.44-3.072c38.853 14.885 84.661 27.208 132.034 34.856l4.086 0.544zM358.62 139.68c19.54-68.98 45.48-124.32 75.46-159.82-62.82 19.4-120.8 62.26-168 125.32-14.806 19.614-28.828 41.774-40.986 65.061l-1.254 2.639c38.241-13.729 83.683-25.301 130.523-32.657l4.357-0.563zM406.2 97.2q-6.78 18-12.76 37.7c35.358-4.393 76.283-6.9 117.793-6.9 0.269 0 0.539 0 0.808 0h-0.041c0.228 0 0.497 0 0.767 0 41.51 0 82.435 2.507 122.631 7.378l-4.838-0.478q-6-19.58-12.76-37.7c-30.34-80.9-69.8-129.2-105.8-129.2s-75.46 48.3-105.8 129.2zM589.84-20.16c30 35.5 56 90.86 75.46 159.82 51.2 7.903 96.65 19.462 140.301 34.838l-5.401-1.658c-13.401-25.919-27.409-48.073-43.081-68.903l0.881 1.223c-47.38-63.16-105.36-105.9-168.18-125.32zM851.42 787.42c29.012-28.955 54.329-61.595 75.195-97.161l1.225-2.259c-27.32 22-62.46 41.72-103.64 58.2-29.58 54.96-67.1 101.76-110.34 137.46 53.221-25.008 98.719-57.292 137.549-96.229l0.011-0.011zM172.6 787.42c38.837 38.924 84.328 71.187 134.626 94.942l2.914 1.238c-43.24-35.7-80.78-82.5-110.34-137.46-41.18-16.48-76.34-36.14-103.64-58.14 22.091 37.825 47.408 70.465 76.412 99.412l0.008 0.008zM40 535.32c10-25.56 29.38-49.58 56.32-71.32-30.48-24.6-51.22-52.16-59.78-81.52-2.833 19.7-4.451 42.448-4.451 65.575 0 30.85 2.879 61.028 8.382 90.279l-0.471-3.013zM172.58 108.58c-42.734 42.621-77.446 93.261-101.688 149.475l-1.192 3.105c-0.96 2.28-1.88 4.56-2.8 6.84 25.7-29.64 64.6-56.14 113.3-77.88 31.76-72.48 76.48-133.6 130-177.72-53.243 24.985-98.762 57.25-137.613 96.173l-0.007 0.007zM851.4 108.58c-38.842-38.925-84.34-71.189-134.646-94.942l-2.914-1.238c53.46 44.14 98.18 105.26 130 177.72 48.7 21.74 87.6 48.24 113.3 77.88-0.92-2.28-1.84-4.58-2.8-6.84-25.446-59.321-60.17-109.961-102.908-152.568l-0.012-0.012zM987.54 382.48c-8.56 29.36-29.3 56.92-59.78 81.52 26.94 21.72 46.24 45.76 56.24 71.32 5.040-26.257 7.923-56.456 7.923-87.328 0-23.104-1.615-45.831-4.737-68.074l0.295 2.562z" />
<glyph unicode="&#xe91b;" glyph-name="visualizations" d="M512 704c0.765 0.004 1.671 0.006 2.577 0.006 76.53 0 149.454-15.44 215.827-43.374l-3.664 1.368c57.718-24.498 107.43-55.672 151.335-93.414l-0.755 0.634c41.559-35.372 77.592-75.37 107.868-119.619l1.332-2.061c-29.896-45.58-64.26-84.864-103.319-118.899l-0.681-0.581c-42.676-37.604-91.981-69.057-145.698-92.225l-3.582-1.375c-67.24-28.16-140.32-42.46-217.24-42.46-76.42 0-149.48 14.12-217.12 42-58.163 24.449-108.272 55.643-152.552 93.461l0.792-0.661c-41.646 35.214-77.736 75.059-108.064 119.175l-1.316 2.025c31.551 46.142 67.488 86.006 108.073 120.576l0.847 0.704c43.156 37.087 92.876 68.242 146.877 91.306l3.723 1.414c62.709 26.566 135.633 42.006 212.163 42.006 0.906 0 1.811-0.002 2.716-0.006l-0.139 0.001zM512 736c-352 0-512-288-512-288s160-288 516-288 508 288 508 288-160 288-512 288zM512 640c106.039 0 192-85.961 192-192s-85.961-192-192-192c-106.039 0-192 85.961-192 192v0c0.125 105.988 86.012 191.875 191.988 192h0.012zM512 672c-123.712 0-224-100.288-224-224s100.288-224 224-224c123.712 0 224 100.288 224 224v0c0 123.712-100.288 224-224 224v0zM608 448c0-53.019-42.981-96-96-96s-96 42.981-96 96c0 53.019 42.981 96 96 96s96-42.981 96-96z" />
<glyph unicode="&#xe91c;" glyph-name="analysis" d="M992 800h-960c-17.673 0-32-14.327-32-32v0-608c0-17.673 14.327-32 32-32v0h377.6l-48.4-161.34c-5.060-16.86 5.2-30.66 22.8-30.66h252c17.6 0 28.28 14 23.76 30.92l-42.96 161.080h375.2c17.673 0 32 14.327 32 32v0 608c0 17.673-14.327 32-32 32v0zM32 768h960v-508h-960v508zM258 544h128v-224h-128v224zM450 608h128v-288h-128v288zM642 672h128v-352h-128v352z" />
<glyph unicode="&#xe91d;" glyph-name="fail" d="M512 928c265.028-0.194 479.8-215.086 479.8-480.14 0-197.578-119.339-367.282-289.868-440.963l-3.112-1.197c-54.67-23.472-118.3-37.121-185.117-37.121-265.174 0-480.14 214.966-480.14 480.14 0 197.057 118.711 366.387 288.52 440.378l3.097 1.202c54.846 23.835 118.732 37.701 185.856 37.701 0.339 0 0.678 0 1.017-0.001h-0.052zM512 960c-282.76 0-512-229.22-512-512s229.24-512 512-512 512 229.22 512 512-229.24 512-512 512zM456.060 768h111.020c4.451 0 8.060-3.609 8.060-8.060v-431.88c0-4.451-3.609-8.060-8.060-8.060h-111.020c-4.451 0-8.060 3.609-8.060 8.060v431.88c0 4.451 3.609 8.060 8.060 8.060zM458 256h108c5.523 0 10-4.477 10-10v-108c0-5.523-4.477-10-10-10h-108c-5.523 0-10 4.477-10 10v108c0 5.523 4.477 10 10 10z" />
<glyph unicode="&#xe91e;" glyph-name="success" d="M512 928c265.028-0.194 479.8-215.086 479.8-480.14 0-197.578-119.339-367.282-289.868-440.963l-3.112-1.197c-54.67-23.472-118.3-37.121-185.117-37.121-265.174 0-480.14 214.966-480.14 480.14 0 197.057 118.711 366.387 288.52 440.378l3.097 1.202c54.846 23.835 118.732 37.701 185.856 37.701 0.339 0 0.678 0 1.017-0.001h-0.052zM512 960c-282.76 0-512-229.22-512-512s229.24-512 512-512 512 229.22 512 512-229.24 512-512 512zM840.1 662.96l-22.62 22.62-429.94-429.92-181 181.020-22.64-22.62 203.64-203.64 452.56 452.54z" />
<glyph unicode="&#xe91f;" glyph-name="sad-baby" d="M448 432c0-26.51-21.49-48-48-48s-48 21.49-48 48c0 26.51 21.49 48 48 48s48-21.49 48-48zM672 432c0-26.51-21.49-48-48-48s-48 21.49-48 48c0 26.51 21.49 48 48 48s48-21.49 48-48zM416 244c-0.016 0-0.034 0-0.053 0-8.837 0-16 7.163-16 16 0 4.451 1.818 8.478 4.752 11.379l0.001 0.001c1.5 1.5 37.5 36.68 107.32 36.68 74.4 0 106.7-36 108-37.46 0 0 10.16-12.34 0-22.54-8-8-24 1.46-24 1.46-0.88 0.94-25.080 26.54-84 26.54-55.86 0-83.62-26.28-84.78-27.4-2.872-2.879-6.842-4.66-11.229-4.66-0.004 0-0.007 0-0.011 0h0.001zM896 576c-10.673-0.003-21.004-1.463-30.807-4.192l0.807 0.192c-58 115.16-194.68 196-354 196s-296-80.84-354-196c-8.996 2.537-19.327 3.997-29.998 4h-0.002c-70.7 0-128-64.48-128-144s57.3-144 128-144c16.334 0.007 31.87 3.413 45.943 9.548l-0.743-0.288c64.68-100.72 192.12-169.26 338.8-169.26s274.12 68.54 338.8 169.26c13.33-5.847 28.866-9.253 45.197-9.26h0.003c70.7 0 128 64.48 128 144s-57.3 144-128 144zM896 320c-10.509 0.011-20.558 1.969-29.809 5.533l0.569-0.193c-10.605 4.080-19.738 9.645-27.67 16.554l0.11-0.094c-5.459-11.112-10.781-20.352-16.62-29.222l0.62 1.002c-59.2-91.26-176.42-153.58-311.2-153.58s-252 62.32-311.22 153.56c-5.219 7.868-10.541 17.108-15.304 26.675l-0.696 1.545c-7.822-6.815-16.955-12.38-26.935-16.247l-0.625-0.213c-8.678-3.362-18.72-5.313-29.217-5.32h-0.003c-52.94 0-96 50.24-96 112s43.060 112 96 112c5.998-0.012 11.839-0.66 17.466-1.879l-0.546 0.099c11.211-2.391 21.127-6.628 29.927-12.422l-0.327 0.202c4.312 11.819 8.672 21.581 13.606 30.996l-0.666-1.396c49.020 95.12 158.76 164.34 289.28 175l0.84-1.68c1.56 0.78 3.14 1.46 4.72 2.1 9.7 0.6 19.7 0.98 29.7 0.98 5.26 0 10.48-0.12 15.68-0.3 11.52-4.18 17.34-11.84 22.8-31.14l26.22-1.2c-2.62 12.14-9.66 24.24-15.38 29.78 124.3-14.34 228-82 275.2-173.62 4.268-8.019 8.628-17.781 12.368-27.844l0.572-1.756c8.47 5.62 18.385 9.883 29.027 12.196l0.573 0.104c5.088 1.122 10.935 1.77 16.932 1.78h0.008c52.94 0 96-50.24 96-112s-43.060-112-96-112z" />
<glyph unicode="&#xe920;" glyph-name="plus" d="M1024 480h-488v480h-64v-480h-472v-64h472v-480h64v480h488v64z" />
<glyph unicode="&#xe921;" glyph-name="magnifier" d="M1014-8.82l-316.68 301.28c63.702 70.505 102.68 164.408 102.68 267.415 0 0.206 0 0.411 0 0.617v-0.032c0 221.22-178.86 400.54-399.5 400.54s-399.5-179.32-399.5-400.5 178.86-400.5 399.5-400.5c0.158 0 0.344 0 0.531 0 94.98 0 182.174 33.339 250.517 88.954l-0.727-0.573 319.18-303.56c5.559-4.781 12.845-7.691 20.811-7.691 17.673 0 32 14.327 32 32 0 8.554-3.356 16.324-8.823 22.065l0.012-0.013zM140.66 300c-66.536 66.765-107.673 158.879-107.673 260.6s41.138 193.835 107.684 260.61l-0.010-0.010c66.502 66.492 158.369 107.617 259.841 107.617 202.965 0 367.5-164.535 367.5-367.5 0-0.287 0-0.575-0.001-0.862v0.044c0.001-0.327 0.002-0.714 0.002-1.101 0-202.854-164.446-367.3-367.3-367.3-101.587 0-193.541 41.241-260.034 107.894l-0.007 0.007z" />
<glyph unicode="&#xe922;" glyph-name="glasses" d="M1000 512h-25.44c-12.908 108.096-104.041 191.1-214.56 191.1s-201.652-83.004-214.46-190.073l-0.1-1.027h-66.88c-12.908 108.096-104.041 191.1-214.56 191.1s-201.652-83.004-214.46-190.073l-0.1-1.027h-25.44c-13.255 0-24-10.745-24-24s10.745-24 24-24v0h25.44c12.908-108.096 104.041-191.1 214.56-191.1s201.652 83.004 214.46 190.073l0.1 1.027h66.88c12.908-108.096 104.041-191.1 214.56-191.1s201.652 83.004 214.46 190.073l0.1 1.027h25.44c13.255 0 24 10.745 24 24s-10.745 24-24 24v0zM264 320c-92.784 0-168 75.216-168 168s75.216 168 168 168c92.784 0 168-75.216 168-168v0c0-92.784-75.216-168-168-168v0zM760 320c-92.784 0-168 75.216-168 168s75.216 168 168 168c92.784 0 168-75.216 168-168v0c0-92.784-75.216-168-168-168v0z" />
<glyph unicode="&#xe923;" glyph-name="all" d="M240.48 719.52c69.505 69.579 165.565 112.62 271.678 112.62 178.013 0 327.735-121.129 371.239-285.461l0.603-2.679h-116l128-160 128 160h-107.16c-43.34 183.46-208.14 320-404.84 320-171.999-0.029-319.61-104.411-382.971-253.279l-1.029-2.721h34.82c20.063 43.174 46.132 80.075 77.652 111.512l0.008 0.008zM865.84 298.54c-59.926-138.951-195.731-234.448-353.84-234.448s-293.914 95.497-352.882 231.957l-0.958 2.491c-10.747 24.609-19.381 53.31-24.52 83.206l-0.32 2.254h122.68l-128 160-128-160h100.92c30.78-199.36 203.080-352 411.080-352 185.080 0 342 120.88 396 288h-33.86c-2.56-7.22-5.3-14.38-8.3-21.46z" />
<glyph unicode="&#xe924;" glyph-name="server-info" d="M784 386c115.973-0.009 209.985-94.025 209.985-210 0-115.98-94.020-210-210-210s-210 94.020-210 210c0 57.994 23.508 110.497 61.515 148.5v0c37.792 37.99 90.107 61.501 147.913 61.501 0.206 0 0.413 0 0.619-0.001h-0.032zM784 416c-132.548 0-240-107.452-240-240s107.452-240 240-240c132.548 0 240 107.452 240 240v0c0 132.548-107.452 240-240 240v0zM512 192h-256v672h512v-416h32v448l-34 64h-512.12l-33.88-64v-736h292zM268 928h484l16-32h-512zM752 224h64v-192h-64v192zM816 288c0-17.673-14.327-32-32-32s-32 14.327-32 32c0 17.673 14.327 32 32 32s32-14.327 32-32zM672 736v-64h-320v64h320zM680 768h-336c-13.255 0-24-10.745-24-24v0-80c0-13.255 10.745-24 24-24v0h336c13.255 0 24 10.745 24 24v0 80c0 13.255-10.745 24-24 24v0zM672 576v-64h-320v64h320zM680 608h-336c-13.255 0-24-10.745-24-24v0-80c0-13.255 10.745-24 24-24v0h336c13.255 0 24 10.745 24 24v0 80c0 13.255-10.745 24-24 24v0z" />
<glyph unicode="&#xe925;" glyph-name="server-push" d="M380 639.56v-63.56h-284v63.56h284zM388 671.56h-300c-13.255 0-24-10.745-24-24v0-79.56c0-13.255 10.745-24 24-24v0h300c13.255 0 24 10.745 24 24v0 79.56c0 13.255-10.745 24-24 24v0zM384 480v-64h-288v64h288zM392 512h-304c-13.255 0-24-10.745-24-24v0-80c0-13.255 10.745-24 24-24v0h304c13.255 0 24 10.745 24 24v0 80c0 13.255-10.745 24-24 24v0zM1008 160c8.837 0 16 7.163 16 16v0 592l-24.84 49.68c-4.719 8.215-13.234 13.785-23.088 14.317l-0.072 0.003h-384c-9.926-0.535-18.441-6.105-23.087-14.182l-0.073-0.138-24.84-49.68v-592c0-8.837 7.163-16 16-16v0h208v-64h-512v64h208c8.837 0 16 7.163 16 16v0 592l-24.84 49.68c-4.719 8.215-13.234 13.785-23.088 14.317l-0.072 0.003h-384c-9.926-0.535-18.441-6.105-23.087-14.182l-0.073-0.138-24.84-49.68v-592c0-8.837 7.163-16 16-16v0h204v-64h-204c-8.837 0-16-7.163-16-16v0-2c0-8.837 7.163-16 16-16v0h992c8.837 0 16 7.163 16 16v0 2c0 8.837-7.163 16-16 16v0h-204v64zM52 808h380l16-40h-416zM32 736h416v-544h-416zM596 808h380l16-40h-416zM576 736h416v-544h-416zM924 639.56v-63.56h-284v63.56h284zM932 671.56h-300c-13.255 0-24-10.745-24-24v0-79.56c0-13.255 10.745-24 24-24v0h300c13.255 0 24 10.745 24 24v0 79.56c0 13.255-10.745 24-24 24v0zM924 480v-64h-284v64h284zM932 512h-300c-13.255 0-24-10.745-24-24v0-80c0-13.255 10.745-24 24-24v0h300c13.255 0 24 10.745 24 24v0 80c0 13.255-10.745 24-24 24v0z" />
<glyph unicode="&#xe926;" glyph-name="server" d="M770 864h-512.12l-33.88-64v-768h576v768zM272 832h484l12-32h-508zM260 64v704h508v-704zM676 672v-64h-320v64h320zM684 704h-336c-13.255 0-24-10.745-24-24v0-80c0-13.255 10.745-24 24-24v0h336c13.255 0 24 10.745 24 24v0 80c0 13.255-10.745 24-24 24v0zM676 512v-64h-320v64h320zM684 544h-336c-13.255 0-24-10.745-24-24v0-80c0-13.255 10.745-24 24-24v0h336c13.255 0 24 10.745 24 24v0 80c0 13.255-10.745 24-24 24v0z" />
<glyph unicode="&#xe927;" glyph-name="archive" horiz-adv-x="1260" d="M888 544h32c8.837 0 16-7.163 16-16v-32c0-8.837-7.163-16-16-16h-32c-8.837 0-16 7.163-16 16v32c0 8.837 7.163 16 16 16zM726 544h32c8.837 0 16-7.163 16-16v-32c0-8.837-7.163-16-16-16h-32c-8.837 0-16 7.163-16 16v32c0 8.837 7.163 16 16 16zM888 416h32c8.837 0 16-7.163 16-16v-32c0-8.837-7.163-16-16-16h-32c-8.837 0-16 7.163-16 16v32c0 8.837 7.163 16 16 16zM726 416h32c8.837 0 16-7.163 16-16v-32c0-8.837-7.163-16-16-16h-32c-8.837 0-16 7.163-16 16v32c0 8.837 7.163 16 16 16zM888 288h32c8.837 0 16-7.163 16-16v-32c0-8.837-7.163-16-16-16h-32c-8.837 0-16 7.163-16 16v32c0 8.837 7.163 16 16 16zM726 288h32c8.837 0 16-7.163 16-16v-32c0-8.837-7.163-16-16-16h-32c-8.837 0-16 7.163-16 16v32c0 8.837 7.163 16 16 16zM520 464c-0.009 44.176-35.823 79.984-80 79.984-44.183 0-80-35.817-80-80 0-38.519 27.223-70.68 63.479-78.292l0.521-0.092v-145.6c0-8.837 7.163-16 16-16s16 7.163 16 16v0 145.6c36.777 7.704 64 39.865 64 78.384 0 0.006 0 0.011 0 0.017v-0.001zM1096 896h-896l-64-96v-832h1024v832zM224 864h852l40-64h-932zM1128 0h-960v768h960z" />
<glyph unicode="&#xe928;" glyph-name="clock" d="M512 928c265.028-0.194 479.8-215.086 479.8-480.14 0-197.578-119.339-367.282-289.868-440.963l-3.112-1.197c-54.67-23.472-118.3-37.121-185.117-37.121-265.174 0-480.14 214.966-480.14 480.14 0 197.057 118.711 366.387 288.52 440.378l3.097 1.202c54.846 23.835 118.732 37.701 185.856 37.701 0.339 0 0.678 0 1.017-0.001h-0.052zM512 960c-282.76 0-512-229.22-512-512s229.24-512 512-512 512 229.22 512 512-229.24 512-512 512zM480 864h64v-388h-64v388zM722.633 270.634l-45.255-45.255-164.558 164.558 45.255 45.255 164.558-164.558zM584 448c0-39.765-32.235-72-72-72s-72 32.235-72 72c0 39.765 32.235 72 72 72s72-32.235 72-72z" />
</font>
</defs>
</svg>
