<svg clip-rule="evenodd" fill-rule="evenodd" stroke-linejoin="round" stroke-miterlimit="1.41421" viewBox="0 0 250 300" xmlns="http://www.w3.org/2000/svg"><path d="m-75-.061h400v300h-400z" fill="#2d2523"/><g fill="#e51a5d" fill-rule="nonzero"><path d="m103.033 135.895c0-.878.719-1.597 1.596-1.597h6.499c.878 0 1.596.719 1.596 1.597v15.535c0 .878-.057 2.313-.127 3.188 0 0-.162 2.019-.741 3.669s-1.486 3.094-2.723 4.329c-1.236 1.236-2.533 2.103-3.891 2.603-1.887.699-4.154 1.051-6.798 1.051-1.53 0-3.198-.108-5.007-.322-1.809-.215-3.321-.639-4.536-1.275s-2.326-1.54-3.334-2.711-1.698-2.378-2.069-3.621c-.601-2-.901-3.771-.901-5.314v-17.133c0-.878.719-1.596 1.597-1.596h6.498c.878 0 1.597.718 1.597 1.596v15.981c0 .878.11 2.307.245 3.175 0 0 .23 1.476 1.18 2.439.951.964 2.27 1.446 3.957 1.446 1.672 0 2.984-.475 3.935-1.425s1.426-2.296 1.426-4.038z"/><path d="m112.142 155.334 7.649-.479c.876-.055 1.754.6 1.95 1.456 0 0 .25 1.089.865 1.875 1 1.273 2.43 1.908 4.289 1.908 1.385 0 2.454-.324 3.205-.975.751-.65 1.126-1.405 1.126-2.262 0-.815-.358-1.544-1.073-2.188-.715-.643-2.373-1.251-4.974-1.823-4.261-.958-7.299-2.23-9.114-3.817-1.83-1.586-2.745-3.609-2.745-6.068 0-1.615.469-3.141 1.405-4.578.937-1.437 2.344-2.566 4.225-3.388 1.879-.822 4.456-1.233 7.73-1.233 4.016 0 7.079.747 9.188 2.24 2.109 1.494 3.363 3.871 3.763 7.13l-7.562.443c-.877.051-1.806-.594-2.065-1.433 0 0-.283-.918-1.062-1.562-.78-.643-1.855-.965-3.228-.965-1.129 0-1.98.24-2.551.719-.573.479-.858 1.061-.858 1.748 0 .5.236.95.708 1.351.457.415 1.543.801 3.259 1.158 4.246.915 7.287 1.841 9.124 2.777s3.174 2.098 4.011 3.484c.835 1.387 1.254 2.938 1.254 4.654 0 2.015-.558 3.874-1.673 5.575s-2.674 2.991-4.675 3.87c-2.002.88-4.525 1.319-7.57 1.319-5.346 0-9.049-1.03-11.107-3.088-2.057-2.058-3.223-4.675-3.494-7.848z"/><path d="m198.258 134.469h-7.539c-.878 0-1.966.531-2.417 1.285l-4.705 7.289c-.451.754-1.189.732-1.639-.022l-4.696-7.256c-.45-.754-1.537-1.296-2.416-1.296h-6.087-1.51-5.054c-.878 0-1.673.548-1.673 1.426v7.807c0 .878-.642 1.267-1.52 1.267h-7.421c-.878 0-1.559-.389-1.559-1.267v-7.807c0-.878-.756-1.426-1.635-1.426h-6.52c-.879 0-1.345.548-1.345 1.426v28.242c0 .878.162 1.832 1.215 1.832h7.225c1.004 0 1.06-.848 1.06-1.726v-9.628c0-.878.681-1.646 1.559-1.646h7.421c.878 0 1.52.768 1.52 1.646v9.522c0 .878.226 1.832 1.376 1.832h6.861c1.187 0 1.263-.954 1.263-1.832 0 0 0-18.815 0-20.447 0-1.633 1.117-.864 1.436-.403.318.462 5.257 7.954 5.257 7.954.489.729.807 2.045.807 2.923v9.973c0 .878.641 1.832 1.597 1.832h7.419c1.113 0 1.484-.954 1.484-1.832v-9.973c0-.878.204-2.194.693-2.924l10.349-15.529c.489-.73.073-1.242-.806-1.242z"/><path d="m68.684 154.259c-.55 0-1-.333-1-.883v-4.639c0-.55.45-1 1-1h12.969c.551 0 1 .45 1 1v11.364c0 .584-.405 1.033-.953 1.613-.641.677-3.703 2.456-6.648 3.376-2.209.689-4.815 1.058-7.838 1.058-3.72 0-6.753-.635-9.098-1.904-2.345-1.268-4.163-3.157-5.453-5.666s-1.935-5.389-1.935-8.639c0-3.422.705-6.397 2.116-8.928 1.412-2.531 3.479-4.451 6.202-5.763 2.124-1.011 4.982-1.518 8.574-1.518 3.464 0 6.055.314 7.773.941s3.143 1.6 4.276 2.918c.845.983 1.533 2.162 2.065 3.536.182.47.406 1.468-.282 1.617-.689.15-7.586 1.354-7.586 1.354-.542.097-1.185-.227-1.429-.719 0 0-.593-1.193-1.512-1.82s-2.092-.941-3.517-.941c-2.125 0-3.817.737-5.079 2.213-1.262 1.475-1.892 3.81-1.892 7.003 0 3.393.637 5.817 1.914 7.27 1.275 1.455 3.054 2.182 5.335 2.182 1.083 0 2.116-.174 3.111-.451 1.016-.282 2.106-.653 3.368-1.525v-2.049c0-.55-.45-1-1-1z"/></g></svg>