<?xml version="1.0" encoding="UTF-8" standalone="no"?><!DOCTYPE svg PUBLIC "-//W3C//DTD SVG 1.1//EN" "http://www.w3.org/Graphics/SVG/1.1/DTD/svg11.dtd"><svg width="100%" height="100%" viewBox="0 0 250 300" version="1.1" xmlns="http://www.w3.org/2000/svg" xmlns:xlink="http://www.w3.org/1999/xlink" xml:space="preserve" xmlns:serif="http://www.serif.com/" style="fill-rule:evenodd;clip-rule:evenodd;stroke-linejoin:round;stroke-miterlimit:1.41421;"><g id="gushy"><rect x="-75" y="-0.061" width="400" height="300" style="fill:#2d2523;"/><path d="M103.033,135.895c0,-0.878 0.719,-1.597 1.596,-1.597l6.499,0c0.878,0 1.596,0.719 1.596,1.597l0,15.535c0,0.878 -0.057,2.313 -0.127,3.188c0,0 -0.162,2.019 -0.741,3.669c-0.579,1.65 -1.486,3.094 -2.723,4.329c-1.236,1.236 -2.533,2.103 -3.891,2.603c-1.887,0.699 -4.154,1.051 -6.798,1.051c-1.53,0 -3.198,-0.108 -5.007,-0.322c-1.809,-0.215 -3.321,-0.639 -4.536,-1.275c-1.215,-0.636 -2.326,-1.54 -3.334,-2.711c-1.008,-1.171 -1.698,-2.378 -2.069,-3.621c-0.601,-2 -0.901,-3.771 -0.901,-5.314l0,-17.133c0,-0.878 0.719,-1.596 1.597,-1.596l6.498,0c0.878,0 1.597,0.718 1.597,1.596l0,15.981c0,0.878 0.11,2.307 0.245,3.175c0,0 0.23,1.476 1.18,2.439c0.951,0.964 2.27,1.446 3.957,1.446c1.672,0 2.984,-0.475 3.935,-1.425c0.951,-0.95 1.426,-2.296 1.426,-4.038l0.001,-17.577Z" style="fill:#e51a5d;fill-rule:nonzero;"/><path d="M112.142,155.334l7.649,-0.479c0.876,-0.055 1.754,0.6 1.95,1.456c0,0 0.25,1.089 0.865,1.875c1,1.273 2.43,1.908 4.289,1.908c1.385,0 2.454,-0.324 3.205,-0.975c0.751,-0.65 1.126,-1.405 1.126,-2.262c0,-0.815 -0.358,-1.544 -1.073,-2.188c-0.715,-0.643 -2.373,-1.251 -4.974,-1.823c-4.261,-0.958 -7.299,-2.23 -9.114,-3.817c-1.83,-1.586 -2.745,-3.609 -2.745,-6.068c0,-1.615 0.469,-3.141 1.405,-4.578c0.937,-1.437 2.344,-2.566 4.225,-3.388c1.879,-0.822 4.456,-1.233 7.73,-1.233c4.016,0 7.079,0.747 9.188,2.24c2.109,1.494 3.363,3.871 3.763,7.13l-7.562,0.443c-0.877,0.051 -1.806,-0.594 -2.065,-1.433c0,0 -0.283,-0.918 -1.062,-1.562c-0.78,-0.643 -1.855,-0.965 -3.228,-0.965c-1.129,0 -1.98,0.24 -2.551,0.719c-0.573,0.479 -0.858,1.061 -0.858,1.748c0,0.5 0.236,0.95 0.708,1.351c0.457,0.415 1.543,0.801 3.259,1.158c4.246,0.915 7.287,1.841 9.124,2.777c1.837,0.936 3.174,2.098 4.011,3.484c0.835,1.387 1.254,2.938 1.254,4.654c0,2.015 -0.558,3.874 -1.673,5.575c-1.115,1.701 -2.674,2.991 -4.675,3.87c-2.002,0.88 -4.525,1.319 -7.57,1.319c-5.346,0 -9.049,-1.03 -11.107,-3.088c-2.057,-2.058 -3.223,-4.675 -3.494,-7.848Z" style="fill:#e51a5d;fill-rule:nonzero;"/><path d="M198.258,134.469l-7.539,0c-0.878,0 -1.966,0.531 -2.417,1.285l-4.705,7.289c-0.451,0.754 -1.189,0.732 -1.639,-0.022l-4.696,-7.256c-0.45,-0.754 -1.537,-1.296 -2.416,-1.296l-6.087,0l-1.51,0l-5.054,0c-0.878,0 -1.673,0.548 -1.673,1.426l0,7.807c0,0.878 -0.642,1.267 -1.52,1.267l-7.421,0c-0.878,0 -1.559,-0.389 -1.559,-1.267l0,-7.807c0,-0.878 -0.756,-1.426 -1.635,-1.426l-6.52,0c-0.879,0 -1.345,0.548 -1.345,1.426l0,28.242c0,0.878 0.162,1.832 1.215,1.832l7.225,0c1.004,0 1.06,-0.848 1.06,-1.726l0,-9.628c0,-0.878 0.681,-1.646 1.559,-1.646l7.421,0c0.878,0 1.52,0.768 1.52,1.646l0,9.522c0,0.878 0.226,1.832 1.376,1.832l6.861,0c1.187,0 1.263,-0.954 1.263,-1.832c0,0 0,-18.815 0,-20.447c0,-1.633 1.117,-0.864 1.436,-0.403c0.318,0.462 5.257,7.954 5.257,7.954c0.489,0.729 0.807,2.045 0.807,2.923l0,9.973c0,0.878 0.641,1.832 1.597,1.832l7.419,0c1.113,0 1.484,-0.954 1.484,-1.832l0,-9.973c0,-0.878 0.204,-2.194 0.693,-2.924l10.349,-15.529c0.489,-0.73 0.073,-1.242 -0.806,-1.242Z" style="fill:#e51a5d;fill-rule:nonzero;"/><path d="M68.684,154.259c-0.55,0 -1,-0.333 -1,-0.883l0,-4.639c0,-0.55 0.45,-1 1,-1l12.969,0c0.551,0 1,0.45 1,1l0,11.364c0,0.584 -0.405,1.033 -0.953,1.613c-0.641,0.677 -3.703,2.456 -6.648,3.376c-2.209,0.689 -4.815,1.058 -7.838,1.058c-3.72,0 -6.753,-0.635 -9.098,-1.904c-2.345,-1.268 -4.163,-3.157 -5.453,-5.666c-1.29,-2.509 -1.935,-5.389 -1.935,-8.639c0,-3.422 0.705,-6.397 2.116,-8.928c1.412,-2.531 3.479,-4.451 6.202,-5.763c2.124,-1.011 4.982,-1.518 8.574,-1.518c3.464,0 6.055,0.314 7.773,0.941c1.718,0.627 3.143,1.6 4.276,2.918c0.845,0.983 1.533,2.162 2.065,3.536c0.182,0.47 0.406,1.468 -0.282,1.617c-0.689,0.15 -7.586,1.354 -7.586,1.354c-0.542,0.097 -1.185,-0.227 -1.429,-0.719c0,0 -0.593,-1.193 -1.512,-1.82c-0.919,-0.627 -2.092,-0.941 -3.517,-0.941c-2.125,0 -3.817,0.737 -5.079,2.213c-1.262,1.475 -1.892,3.81 -1.892,7.003c0,3.393 0.637,5.817 1.914,7.27c1.275,1.455 3.054,2.182 5.335,2.182c1.083,0 2.116,-0.174 3.111,-0.451c1.016,-0.282 2.106,-0.653 3.368,-1.525l0,-2.049c0,-0.55 -0.45,-1 -1,-1l-4.481,0Z" style="fill:#e51a5d;fill-rule:nonzero;"/></g></svg>