<svg enable-background="new 0 0 800 600" height="600" viewBox="0 0 800 600" width="800" xmlns="http://www.w3.org/2000/svg" xmlns:xlink="http://www.w3.org/1999/xlink"><clipPath id="a"><path d="m420.216 198.259c0 .498-.373.717-.715.717-6.501 0-6.501.239-13.005.239-6.502 0-6.502-.32-13.003-.32-.341 0-.802-.139-.802-.636 0-11.144.158-11.144.158-22.286 0-.498.303-.621.644-.621 6.501 0 6.501-.412 13.003-.412 6.504 0 6.504.305 13.005.305.342 0 .681.229.681.726.089 11.142.034 11.144.034 22.288z"/></clipPath><g fill="none" stroke="#000" stroke-miterlimit="10"><path d="m318.643 504c0 2.762-2.347 4.633-5.108 4.633-39.165 0-39.165.556-78.331.556-39.167 0-39.167-.315-78.334-.315-39.168 0-39.168.428-78.335.428-2.761 0-4.916-2.539-4.916-5.301 0-37.75-.261-37.75-.261-75.5s.204-37.75.204-75.5c0-2.762 2.212-4.953 4.973-4.953 39.166 0 39.166.156 78.331.156 39.167 0 39.167-.681 78.335-.681 39.167 0 39.167.161 78.334.161 2.762 0 4.878 2.555 4.878 5.316 0 37.75.069 37.75.105 75.5s.125 37.75.125 75.5z" stroke-width="2"/><path d="m477.117 144.452c1.882 0 5.052 3.985 5.052 5.789.506 40.455.195 40.46.195 80.916 0 1.804-2.066 2.601-3.949 2.601-35.926 0-35.926.872-71.852.872-35.928 0-35.928-1.166-71.853-1.166-1.882 0-4.434-.503-4.434-2.308 0-40.456.882-40.456.882-80.912 0-1.804 2.535-5.124 4.416-5.124"/><path d="m234.623 189.145c0 13.924-5.105 26.326-11.611 37.569-6.711 11.601-15.328 21.799-26.927 28.511-11.244 6.505-24.226 10.939-38.15 10.939s-27.248-3.844-38.492-10.349c-11.601-6.711-20.382-17.207-27.094-28.807-6.505-11.244-11.056-23.939-11.056-37.864 0-13.924 4.82-26.463 11.325-37.707 6.711-11.601 14.977-22.679 26.577-29.39 11.245-6.505 24.815-9.472 38.739-9.472s26.434 4.798 37.678 11.304c11.6 6.711 22.247 15.193 28.959 26.792 6.506 11.246 10.052 24.549 10.052 38.474z"/><path d="m182.405 189.299c0 4.44-1.628 8.395-3.702 11.979-2.14 3.7-4.888 6.952-8.587 9.093-3.586 2.075-7.725 3.488-12.166 3.488s-8.689-1.226-12.275-3.3c-3.699-2.14-6.499-5.487-8.639-9.187-2.075-3.585-3.525-7.634-3.525-12.074s1.536-8.439 3.611-12.024c2.141-3.699 4.777-7.232 8.475-9.372 3.586-2.074 7.913-3.021 12.354-3.021s8.429 1.531 12.015 3.605c3.699 2.14 7.094 4.845 9.235 8.544 2.073 3.586 3.204 7.828 3.204 12.269z"/><path d="m168.481 189.339c0 1.912-.701 3.613-1.593 5.157-.922 1.593-2.104 2.993-3.697 3.914-1.543.894-3.326 1.502-5.237 1.502s-3.739-.528-5.283-1.421c-1.593-.92-2.798-2.361-3.719-3.954-.894-1.544-1.518-3.286-1.518-5.198 0-1.911.662-3.632 1.554-5.176.922-1.592 2.056-3.113 3.649-4.034 1.543-.893 3.406-1.3 5.316-1.3 1.911 0 3.628.659 5.172 1.552 1.592.921 3.053 2.085 3.975 3.677.894 1.544 1.381 3.37 1.381 5.281z"/><path d="m231.822 189.153c0 13.416-4.918 25.363-11.186 36.197-6.467 11.177-14.768 21.003-25.944 27.468-10.833 6.268-23.339 10.54-36.755 10.54s-26.253-3.702-37.085-9.97c-11.178-6.466-19.637-16.579-26.104-27.754-6.268-10.834-10.652-23.065-10.652-36.481 0-13.415 4.644-25.496 10.912-36.329 6.466-11.177 14.43-21.85 25.605-28.316 10.834-6.268 23.909-9.125 37.324-9.125s25.467 4.622 36.3 10.891c11.176 6.466 21.434 14.637 27.9 25.812 6.267 10.834 9.685 23.651 9.685 37.067z"/><path d="m456.825 144.549c5.385.104 10.14-.227 18.759-.227 1.804 0 3.598.835 3.598 2.639.485 40.455.188 40.46.188 80.916 0 1.804-1.982 2.601-3.786 2.601-34.442 0-34.442.872-68.885.872s-34.442-1.166-68.885-1.166c-1.803 0-4.25-.503-4.25-2.308 0-40.456.845-40.456.845-80.912 0-1.804 1.603-2.251 3.405-2.251 8.527 0 13.365.468 18.715.33"/><path d="m386.436 188.175c0 1.306-.48 2.47-1.089 3.524-.63 1.089-1.438 2.046-2.526 2.676-1.055.61-2.272 1.026-3.579 1.026s-2.556-.36-3.611-.971c-1.089-.629-1.911-1.614-2.541-2.703-.611-1.054-1.038-2.246-1.038-3.552s.453-2.482 1.062-3.538c.63-1.088 1.405-2.128 2.493-2.757 1.055-.609 2.328-.888 3.635-.888s2.479.451 3.534 1.06c1.09.63 2.088 1.426 2.717 2.514.61 1.055.943 2.303.943 3.609z"/><path d="m460.164 202.697c0 .681-1.46.982-2.789.982-25.362 0-25.362.329-50.725.329s-25.363-.44-50.725-.44c-1.329 0-3.131-.191-3.131-.872 0-15.277.623-15.277.623-30.552 0-.681 1.179-.851 2.508-.851 25.361 0 25.361-.564 50.725-.564 25.362 0 25.362.418 50.725.418 1.329 0 2.65.314 2.65.995.356 15.276.139 15.277.139 30.555z"/><path d="m460.164 220.6c0 .274-1.475.395-2.815.395-25.596 0-25.596.133-51.191.133s-25.596-.177-51.19-.177c-1.342 0-3.16-.077-3.16-.352 0-6.148.629-6.148.629-12.296 0-.274 1.189-.342 2.531-.342 25.595 0 25.595-.228 51.19-.228s25.596.168 51.191.168c1.341 0 2.674.127 2.674.4.36 6.151.141 6.151.141 12.299z"/><path d="m450.401 159.485c-.15.292-1.357.467-2.59.467-23.537 0-17.681.158-41.22.158-23.538 0-17.683-.21-41.222-.21-1.233 0-2.782-.112-2.905-.415-2.936-7.254-2.936-9.568-5.277-17.286-.096-.313 1.094-.405 2.328-.405 23.538 0 23.538-.27 47.076-.27 23.539 0 23.539.2 47.076.2 1.232 0 2.569.166 2.46.473-2.607 7.315-2.607 11.247-5.726 17.288z"/><path d="m340.901 149.521c0 .311-.113.587-.258.838-.149.259-.342.486-.601.636-.251.145-.54.244-.851.244s-.607-.085-.858-.231c-.26-.149-.455-.384-.604-.642-.146-.251-.247-.534-.247-.845 0-.31.108-.59.253-.841.149-.258.335-.505.593-.655.25-.145.554-.211.864-.211s.589.107.84.252c.259.149.496.339.646.597.144.252.223.548.223.858z"/><path d="m476.483 149.521c0 .311-.113.587-.258.838-.149.259-.342.486-.601.636-.251.145-.54.244-.851.244s-.607-.085-.858-.231c-.26-.149-.455-.384-.604-.642-.146-.251-.247-.534-.247-.845 0-.31.108-.59.253-.841.149-.258.335-.505.593-.655.25-.145.554-.211.864-.211s.589.107.84.252c.259.149.496.339.646.597.144.252.223.548.223.858z"/><path d="m476.483 226.06c0 .311-.113.587-.258.838-.149.259-.342.486-.601.636-.251.146-.54.244-.851.244s-.607-.085-.858-.23c-.26-.149-.455-.384-.604-.643-.146-.251-.247-.534-.247-.845 0-.31.108-.59.253-.841.149-.258.335-.505.593-.655.25-.146.554-.211.864-.211s.589.107.84.252c.259.149.496.339.646.597.144.251.223.548.223.858z"/><path d="m339.809 226.06c0 .311-.113.587-.259.838-.149.259-.342.486-.6.636-.251.146-.541.244-.852.244s-.607-.085-.858-.23c-.26-.149-.455-.384-.604-.643-.146-.251-.246-.534-.246-.845 0-.31.107-.59.253-.841.149-.258.334-.505.593-.655.249-.146.553-.211.863-.211s.59.107.841.252c.258.149.495.339.645.597.144.251.224.548.224.858z"/><path d="m420.216 198.259c0 .497-.373.716-.715.716-6.501 0-6.501.24-13.005.24-6.502 0-6.502-.321-13.003-.321-.341 0-.802-.139-.802-.635 0-11.145.158-11.145.158-22.287 0-.498.303-.621.644-.621 6.501 0 6.501-.412 13.003-.412 6.504 0 6.504.305 13.005.305.342 0 .681.229.681.726.089 11.144.034 11.145.034 22.289z"/><path d="m370.721 147.733c0 .438-.161.828-.365 1.181-.212.365-.482.686-.847.897-.354.205-.762.344-1.199.344-.439 0-.857-.121-1.211-.325-.365-.211-.641-.541-.853-.906-.205-.354-.348-.753-.348-1.191s.151-.832.356-1.186c.212-.364.47-.713.835-.924.354-.204.78-.297 1.22-.297.438 0 .831.151 1.184.355.365.211.7.478.911.843.205.352.317.771.317 1.209z"/><path d="m447.259 147.733c0 .438-.161.828-.365 1.181-.212.365-.482.686-.847.897-.354.205-.762.344-1.199.344-.438 0-.857-.121-1.211-.325-.365-.211-.641-.541-.852-.906-.205-.354-.349-.753-.349-1.191s.151-.832.356-1.186c.212-.364.47-.713.835-.924.354-.204.781-.297 1.22-.297.438 0 .831.151 1.185.355.364.211.699.478.91.843.205.352.317.771.317 1.209z"/><path d="m439.635 152.11c0 .245-.09.462-.204.66-.118.204-.271.384-.473.501-.198.115-.427.192-.671.192-.245 0-.479-.067-.677-.182-.204-.118-.357-.303-.477-.507-.114-.197-.194-.42-.194-.665s.085-.465.2-.663c.117-.204.263-.398.467-.517.197-.114.436-.166.681-.166.244 0 .465.084.662.198.204.118.391.267.51.471.114.199.176.433.176.678z"/><path d="m375.124 152.11c0 .245-.09.462-.204.66-.118.204-.271.384-.473.501-.198.115-.427.192-.671.192-.245 0-.479-.067-.677-.182-.204-.118-.357-.303-.477-.507-.114-.197-.194-.42-.194-.665s.085-.465.2-.663c.117-.204.263-.398.466-.517.198-.114.437-.166.682-.166.244 0 .465.084.662.198.204.118.391.267.51.471.114.199.176.433.176.678z"/></g><path clip-path="url(#a)" d="m410.354 187.679c0 12.965-8.921 24.278-20.493 24.278s-20.108-11.312-20.108-24.278 8.536-24.001 20.108-24.001 20.493 11.035 20.493 24.001z"/><g fill="none"><path d="m143.58 117.312c-.304-.05 1.604 1.1 1.393.884-.236-1.136-.541 1.545-.792 2.253.203-.667 5.224-3.394 5.202-3.02.708-1.604-4.752 5.887-4.864 5.525-.133-.719 12.094-6.552 12.097-6.112-.301-.938-11.344 9.021-11.7 9.883-.244-.824 16.696-9.925 16.664-9.986-.213.282-16.131 13.734-16.325 12.175.22-.103 21.599-10.892 21.714-11.67-.349.362-21.392 15.312-20.857 17-.264-.268 21.253-13.089 21.924-14.216-.24-.523-21.517 16.741-21.913 17.503-.138-.771 21.246-12.813 20.891-13.429.459 1.219-20.369 16.706-20.31 15.282.405.197 20.133-10.673 20.055-11.482.13-.108-19.049 15.785-18.979 16.575-.259-.19 19.062-12.976 19.418-11.51-.294-.029-19.153 14.194-19.742 14.164.763.602 18.671-10.314 19.159-11.82-.423 1.547-18.14 15.155-17.96 15.021-.183-.242 17.957-9.179 17.322-9.773-.045.145-17.451 14.865-16.903 14.125-.424.212 16.709-10.792 16.522-9.885.356-.042-16.079 12.814-16.482 11.95.085 1.058 16.477-9.309 16.057-8.944.635-.038-15.257 11.106-15.725 11.159.253-.129 15.797-9.461 15.771-9.125.167 1.334-15.509 12.852-15.308 12.963-.325.044 14.942-10.983 14.867-9.91.501-.375-14.594 13.383-14.477 13.307.307-1.585 14.664-10.344 14.978-9.054-.563.208-6.782 6.555-6.855 7.817.761-.364 6.306-3.757 6.306-4.01.107.695-1.358 4.786-1.02 4.649.086-1.017.828-1.361.52-1.204" stroke="#000" stroke-linecap="round" stroke-linejoin="round"/><path d="m193.203 252.826-.871.955.038-2.794-4.468 4.906 3.206-7.691-9.47 10.396 7.972-13.703-13.314 14.613 11.971-17.575-16.755 18.391 15.254-21.707-17.27 18.957 15.668-22.491-16.577 18.197 15.247-21.133-16.003 17.567 14.574-20.721-15.385 16.889 13.793-20.4-14.697 16.134 13.217-19.403-14.059 15.434 12.478-18.923-13.376 14.684 12.382-16.881-12.947 14.213 11.84-16.656-12.468 13.688 11.509-15.806-12.055 13.234 10.629-16.382-11.439 12.557 3.619-9.196-4.517 4.957-.247-4.428-.56.616" stroke="#000" stroke-linecap="round" stroke-linejoin="round"/><path d="m451.422 161.38c-.154.322-1.389.516-2.651.516-24.085 0-18.092.175-42.179.175-24.089 0-18.097-.233-42.183-.233-1.262 0-2.847-.124-2.974-.458-3.004-8.02-3.004-10.578-5.4-19.11-.098-.346 1.121-.448 2.383-.448 24.085 0 24.085-.298 48.174-.298 24.087 0 24.087.221 48.171.221 1.264 0 2.63.184 2.519.523-2.669 8.086-2.669 12.433-5.86 19.112z" stroke="#000" stroke-miterlimit="10"/><path d="m387.972 188.17c0 1.585-.583 2.997-1.322 4.276-.765 1.322-1.745 2.482-3.065 3.247-1.28.741-2.758 1.245-4.343 1.245-1.586 0-3.103-.438-4.384-1.178-1.32-.764-2.318-1.959-3.083-3.28-.742-1.279-1.26-2.726-1.26-4.311s.55-3.013 1.29-4.293c.765-1.32 1.705-2.582 3.025-3.346 1.28-.74 2.825-1.078 4.411-1.078 1.585 0 3.009.547 4.288 1.287 1.322.765 2.533 1.73 3.297 3.051.741 1.281 1.146 2.795 1.146 4.38z" stroke="#000" stroke-miterlimit="10"/><path d="m380.988 184.434c0 .063-.054.09-.104.09-.948 0-.948.031-1.897.031-.948 0-.948-.041-1.896-.041-.05 0-.117-.017-.117-.08 0-1.41.023-1.41.023-2.82 0-.063.044-.079.094-.079.948 0 .948-.052 1.896-.052.949 0 .949.039 1.897.039.05 0 .1.029.1.092.013 1.409.004 1.409.004 2.82z" stroke="#000" stroke-miterlimit="10"/><path d="m380.988 195.434c0 .063-.054.09-.104.09-.948 0-.948.031-1.897.031-.948 0-.948-.041-1.896-.041-.05 0-.117-.017-.117-.08 0-1.41.023-1.41.023-2.82 0-.063.044-.079.094-.079.948 0 .948-.052 1.896-.052.949 0 .949.039 1.897.039.05 0 .1.029.1.092.013 1.409.004 1.409.004 2.82z" stroke="#000" stroke-miterlimit="10"/><path d="m375.397 186.013c.063 0 .091.053.09.104 0 .948.031.948.031 1.897s-.041.948-.041 1.896c0 .05-.017.117-.08.117-1.41 0-1.41-.023-2.82-.023-.063 0-.078-.044-.079-.094.001-.949-.052-.948-.052-1.896 0-.949.039-.949.038-1.897 0-.05.029-.1.093-.1 1.41-.013 1.41-.004 2.82-.004z" stroke="#000" stroke-miterlimit="10"/><path d="m386.397 186.013c.063 0 .091.053.09.104 0 .948.031.948.031 1.897s-.041.948-.041 1.896c0 .05-.017.117-.08.117-1.41 0-1.41-.023-2.82-.023-.063 0-.078-.044-.079-.094.001-.949-.052-.948-.052-1.896 0-.949.039-.949.038-1.897 0-.05.029-.1.093-.1 1.41-.013 1.41-.004 2.82-.004z" stroke="#000" stroke-miterlimit="10"/><path d="m442.774 185.183c.543 1.188.591 2.445.477 3.657-.119 1.252-.456 2.459-1.184 3.484-.705.994-1.639 1.879-2.827 2.423s-2.474.736-3.688.621c-1.252-.119-2.41-.672-3.436-1.4-.995-.704-1.879-1.61-2.423-2.798-.543-1.188-.621-2.446-.506-3.659.12-1.251.392-2.52 1.119-3.545.705-.993 1.747-1.777 2.935-2.32 1.188-.544 2.442-.623 3.655-.507 1.253.12 2.492.427 3.517 1.155.995.705 1.817 1.701 2.361 2.889z" stroke="#000" stroke-miterlimit="10"/><path d="m444.169 184.54c.66 1.441.718 2.968.578 4.438-.146 1.521-.554 2.984-1.437 4.229-.855 1.207-1.989 2.28-3.43 2.94-1.442.66-3.003.894-4.477.754-1.519-.145-2.924-.817-4.169-1.699-1.207-.854-2.279-1.954-2.939-3.395-.659-1.441-.754-2.968-.614-4.441.146-1.519.476-3.058 1.358-4.301.856-1.206 2.12-2.157 3.562-2.816 1.44-.66 2.963-.755 4.435-.615 1.521.146 3.023.519 4.268 1.401 1.207.855 2.205 2.064 2.865 3.505z" stroke="#000" stroke-miterlimit="10"/><path d="m436.264 184.049c.026.057-.011.104-.057.125-.862.395-.849.423-1.712.818-.862.395-.88.357-1.741.752-.046.021-.114.033-.141-.024-.587-1.282-.565-1.292-1.152-2.574-.026-.058.007-.09.053-.11.862-.395.84-.442 1.702-.837.863-.395.879-.36 1.741-.755.046-.021.103-.015.129.042.599 1.276.591 1.281 1.178 2.563z" stroke="#000" stroke-miterlimit="10"/><path d="m440.843 194.05c.026.058-.012.104-.057.125-.862.395-.85.422-1.713.817-.862.395-.879.357-1.741.752-.045.021-.113.033-.14-.024-.587-1.282-.565-1.292-1.153-2.574-.026-.058.008-.09.053-.111.862-.395.841-.442 1.703-.836.863-.396.879-.36 1.741-.755.045-.021.103-.015.129.042.599 1.278.591 1.282 1.178 2.564z" stroke="#000" stroke-miterlimit="10"/><path d="m431.838 187.812c.058-.026.104.011.125.057.395.862.423.849.818 1.712s.356.879.752 1.741c.021.045.033.114-.024.14-1.282.587-1.292.565-2.574 1.152-.058.027-.089-.007-.11-.052-.395-.863-.442-.84-.837-1.703-.396-.863-.359-.879-.755-1.741-.021-.045-.015-.103.043-.129 1.276-.598 1.28-.59 2.562-1.177z" stroke="#000" stroke-miterlimit="10"/><path d="m441.84 183.233c.058-.026.104.011.125.057.395.862.423.849.817 1.712.396.862.357.879.753 1.741.021.045.033.114-.024.14-1.282.587-1.292.565-2.574 1.152-.058.026-.089-.007-.111-.052-.394-.863-.441-.84-.836-1.703-.396-.863-.359-.879-.755-1.741-.021-.045-.016-.103.043-.129 1.276-.598 1.28-.59 2.562-1.177z" stroke="#000" stroke-miterlimit="10"/></g><path d="m714.368 165.184c-7.653-19.399-19.433-35.081-34.066-45.349-21.805-15.299-47.782-17.448-73.149-6.049-12.99 5.836-14.82 26.433-15.04 29.969l-1.134-.034-.016.544-.807-.005-.055 9.936 1 .005.053-9.475 3.848.115.436 9.299.998-.047-.443-9.466-.038.002.022-.758-1.86-.056c.237-3.393 2.114-22.929 13.855-28.205 24.698-11.097 49.978-9.016 71.181 5.862 30.469 21.38 46.411 64.016 42.643 114.045-5.127 62.159-69.603 71.233-121.411 78.525-24.753 3.483-46.13 6.493-56.679 14.761-4.675 3.665-6.497 7.096-5.415 10.193 3.54 10.131 39.228 12.703 60.333 13.334 6.247.188 11.209.204 13.688.197l.175.946c.109-.021 5.859-1.052 12.131-1.046.447.021.897.039 1.35.053.488.014.979.022 1.47.027 4.716.269 9.299 1.283 11.615 3.904 1.66 1.881 1.957 4.412.906 7.74-5.057 16.021-15.512 13.009-21.757 11.206-.508-.146-.983-.284-1.422-.402l-.517 1.933c.427.114.89.247 1.384.392 2.074.597 4.918 1.419 7.987 1.509 5.854.175 12.529-2.302 16.231-14.034 1.263-3.999.819-7.251-1.315-9.667-1.253-1.418-3.019-2.432-5.062-3.146 2.858-.524 5.214-1.463 6.475-3.022 1.206-1.491 1.373-3.358.497-5.551-4.795-12.003-16.917-10.349-23.431-9.463-.503.069-.975.134-1.408.187l.243 1.984c.442-.054.922-.119 1.436-.188 6.389-.872 17.087-2.328 21.304 8.222.595 1.491.524 2.859-.202 3.758-1.918 2.373-7.807 3.191-13.88 3.01-.079-.003-.157-.006-.236-.008-5.311-.158-10.726-1.035-13.746-1.55l-.238 1.31c-19.854.065-68.552-2.015-72.124-12.241-.77-2.202.833-4.905 4.763-7.985 10.124-7.937 31.255-10.924 55.723-14.367 25.886-3.644 55.227-7.779 78.831-18.925 27.467-12.97 41.956-33.064 44.296-61.433 1.926-25.606-1.332-49.985-9.423-70.496zm-100.909 186.103c-.028.004-.061.009-.088.014v-.027c.028.003.059.008.088.013z"/><path d="m675.899 318.91c-.114 3.832-1.906 8.174-5.396 8.069-42.554-1.272-42.511-2.7-85.064-3.974-3.491-.104-6.585-3.164-6.47-6.996 1.145-38.266 1.711-38.248 2.855-76.513s-.063-38.301 1.081-76.566c.115-3.832 4.003-5.841 7.493-5.736 42.555 1.273 42.63-1.25 85.184.023 3.49.104 4.174 4.775 4.06 8.608-1.145 38.265 1.554 38.351.284 76.611-1.272 38.261-2.881 38.209-4.027 76.474z" fill="#fff" stroke="#000" stroke-miterlimit="10"/><path d="m672.991 315.822c-.115 3.832-1.907 8.173-5.397 8.068-42.553-1.273-42.511-2.7-85.064-3.973-3.491-.105-6.584-3.164-6.47-6.996 1.145-38.266 1.711-38.248 2.855-76.514 1.146-38.265-.063-38.301 1.082-76.566.114-3.832 4.002-5.841 7.493-5.736 42.554 1.273 42.63-1.25 85.183.023 3.49.104 4.175 4.775 4.06 8.608-1.145 38.265 1.555 38.351.284 76.611-1.272 38.262-2.881 38.21-4.026 76.475z" fill="#fff" stroke="#000" stroke-miterlimit="10"/><path d="m670.864 296.6c-1.995 1.869-2.663.182-5.396.1s-2.726-.328-5.459-.41-2.741.171-5.474.089c-2.734-.081-2.727-.339-5.461-.421-2.733-.082-2.741.17-5.475.088s-2.729-.27-5.462-.352-2.74.143-5.473.061c-2.731-.081-2.729-.186-5.46-.268-2.732-.082-2.724-.369-5.457-.451-2.734-.082-2.732-.15-5.467-.232-2.732-.082-2.736.035-5.471-.047-2.733-.082-2.735-.045-5.469-.127-2.735-.082-2.744.202-5.479.121-2.732-.082-2.731-.14-5.464-.221-2.736-.082-2.733-.184-5.469-.266s-2.729-.365-5.466-.447c-2.738-.082-3.547 2.021-5.433.035-1.871-1.97-.184-2.674-.103-5.39.081-2.714.101-2.714.182-5.428.081-2.716.449-2.704.53-5.42.082-2.715-.228-2.724-.146-5.438.081-2.716.28-2.71.361-5.425s-.192-2.723-.111-5.438c.081-2.716.337-2.708.418-5.424.081-2.715.15-2.713.231-5.429.082-2.716-.035-2.719.046-5.436.081-2.716.228-2.711.309-5.428.081-2.716-.114-2.722-.033-5.438s-.094-2.721-.013-5.438c.081-2.715.312-2.708.393-5.424.082-2.714-.045-2.718.036-5.432.081-2.716.364-2.708.445-5.422.081-2.717.104-2.716.187-5.433.081-2.716-.209-2.725-.128-5.441.081-2.717.093-2.716.175-5.433.081-2.717.403-2.707.484-5.425.081-2.716-.225-2.725-.144-5.441.082-2.718.159-2.716.24-5.434.081-2.72.213-2.716.295-5.436.081-2.72-1.876-3.501.11-5.362 1.995-1.871 2.657-.029 5.392.052 2.731.082 2.737-.09 5.47-.009 2.733.082 2.723.464 5.455.546 2.734.082 2.74-.125 5.475-.043 2.733.082 2.737-.049 5.472.032 2.733.082 2.729.226 5.463.307 2.732.082 2.738-.092 5.472-.01 2.73.082 2.729.142 5.46.224 2.733.082 2.729.207 5.463.289 2.733.082 2.729.222 5.463.303 2.734.082 2.732.137 5.467.218 2.734.082 2.741-.165 5.476-.083s2.728.319 5.463.401c2.733.082 2.741-.196 5.475-.114 2.736.082 2.731.239 5.467.321s2.743-.132 5.481-.05 3.555-1.643 5.44.343c1.87 1.97.037 2.689-.044 5.404-.081 2.714-.184 2.711-.265 5.426-.081 2.716-.091 2.715-.172 5.431-.082 2.715-.16 2.712-.241 5.427s.26 2.726.179 5.441-.162 2.712-.244 5.428c-.081 2.716-.3 2.709-.381 5.425s-.029 2.717-.11 5.433.077 2.721-.004 5.437-.476 2.705-.557 5.421-.075 2.716-.156 5.433c-.082 2.716.047 2.72-.034 5.436-.081 2.715.147 2.722.066 5.438-.082 2.714-.021 2.716-.103 5.43-.081 2.716-.269 2.71-.35 5.425-.081 2.716-.317 2.709-.398 5.426-.082 2.717.392 2.731.311 5.447-.081 2.717-.429 2.707-.51 5.423-.082 2.717.057 2.721-.024 5.439-.081 2.715.041 2.719-.04 5.435-.082 2.718-.086 2.718-.167 5.437-.081 2.72-.985 2.793-.511 5.473.502 2.819 1.958 3.459-.028 5.321z" fill="none" stroke="#000" stroke-miterlimit="10"/><path d="m634.05 308.253c-.048 1.584-.673 2.978-1.45 4.235-.804 1.299-1.818 2.429-3.161 3.153-1.302.702-2.794 1.162-4.378 1.114-1.585-.047-3.088-.529-4.347-1.308-1.297-.804-2.259-2.028-2.983-3.371-.703-1.302-1.178-2.763-1.13-4.347.047-1.584.64-2.994 1.417-4.253.805-1.296 1.782-2.53 3.125-3.253 1.302-.701 2.855-.994 4.441-.946 1.584.048 2.99.637 4.247 1.414 1.299.805 2.48 1.806 3.204 3.148.703 1.304 1.062 2.829 1.015 4.414z" fill="none" stroke="#000" stroke-miterlimit="10"/><path d="m625.688 334.31c-.033 1.093-.558 2.052-1.215 2.915-.679.891-1.538 1.666-2.678 2.16-1.105.478-2.376.788-3.726.748-1.351-.041-2.635-.381-3.71-.924-1.109-.561-1.935-1.41-2.56-2.341-.605-.9-1.017-1.911-.983-3.003.032-1.094.53-2.063 1.188-2.928.678-.891 1.506-1.736 2.646-2.229 1.106-.478 2.43-.671 3.78-.631s2.553.454 3.627.996c1.11.562 2.122 1.257 2.746 2.188.604.901.917 1.956.885 3.049z" fill="#fff" stroke="#000" stroke-miterlimit="10"/><path d="m625.461 375.321c-.033 1.093-.558 2.052-1.215 2.914-.679.892-1.538 1.667-2.678 2.16-1.106.479-2.376.789-3.726.748-1.351-.04-2.634-.38-3.71-.924-1.109-.561-1.935-1.409-2.56-2.34-.605-.9-1.017-1.911-.983-3.004.032-1.092.53-2.062 1.188-2.928.678-.89 1.506-1.736 2.646-2.229 1.106-.478 2.43-.671 3.78-.631s2.553.453 3.627.995c1.11.562 2.122 1.258 2.746 2.189.606.903.917 1.958.885 3.05z" fill="#fff" stroke="#000" stroke-miterlimit="10"/><path d="m315.643 500c0 2.762-2.347 4.633-5.108 4.633-39.165 0-39.165.556-78.331.556-39.167 0-39.167-.315-78.334-.315-39.168 0-39.168.428-78.335.428-2.761 0-4.916-2.539-4.916-5.301 0-37.75-.261-37.75-.261-75.5s.204-37.75.204-75.5c0-2.762 2.212-4.953 4.973-4.953 39.166 0 39.166.156 78.331.156 39.167 0 39.167-.681 78.335-.681 39.167 0 39.167.161 78.334.161 2.762 0 4.878 2.555 4.878 5.316 0 37.75.069 37.75.105 75.5s.125 37.75.125 75.5z" fill="#fff" stroke="#000" stroke-miterlimit="10" stroke-width="2"/><path d="m70.999 369.238c-1-.021-1.013-2.568-.013-2.598 40.649-1.166 40.676.208 81.341.041 40.667-.166 40.669.308 81.336.141s40.683-2.114 81.342-1.281c1 .021.991 2.194-.008 2.223-40.649 1.166-40.659.442-81.324.609-40.667.167-40.667 0-81.331.579-40.674.579-40.684 1.119-81.343.286z"/><path d="m70.999 474.238c-1-.021-1.013-2.568-.013-2.598 40.649-1.166 40.676.208 81.341.041 40.667-.166 40.669.308 81.336.141s40.683-2.114 81.342-1.281c1 .021.991 2.194-.008 2.223-40.649 1.166-40.659.442-81.324.609-40.667.167-40.667 0-81.331.579-40.674.579-40.684 1.119-81.343.286z"/><path d="m221 526h-56l4-17h48z" fill="none" stroke="#000" stroke-miterlimit="10" stroke-width="2"/><path d="m232.895 530h-79.79c-3.018 0 1.354-4 4.372-4h71.045c3.019 0 7.391 4 4.373 4z" fill="none" stroke="#000" stroke-miterlimit="10" stroke-width="2"/></svg>