<?xml version="1.0" encoding="utf-8"?>
<!-- Generator: Adobe Illustrator 15.1.0, SVG Export Plug-In . SVG Version: 6.00 Build 0)  -->
<!DOCTYPE svg PUBLIC "-//W3C//DTD SVG 1.1//EN" "http://www.w3.org/Graphics/SVG/1.1/DTD/svg11.dtd">
<svg version="1.1" id="Layer_1" xmlns="http://www.w3.org/2000/svg" xmlns:xlink="http://www.w3.org/1999/xlink" x="0px" y="0px"
	 width="800px" height="600px" viewBox="0 0 800 600" enable-background="new 0 0 800 600" xml:space="preserve">
<rect fill="#2D2523" width="800" height="600"/>
<g id="Layer_1_1_">
	<path fill="#E51A5D" d="M359.022,248.851c0-1.756,1.437-3.193,3.192-3.193h12.997c1.756,0,3.193,1.437,3.193,3.193v31.071
		c0,1.756-0.115,4.626-0.255,6.376c0,0-0.323,4.038-1.481,7.338c-1.158,3.3-2.973,6.187-5.447,8.657
		c-2.472,2.473-5.066,4.207-7.781,5.206c-3.775,1.399-8.308,2.103-13.597,2.103c-3.06,0-6.396-0.217-10.014-0.645
		c-3.618-0.43-6.641-1.277-9.071-2.549c-2.43-1.272-4.653-3.08-6.668-5.422c-2.016-2.343-3.396-4.757-4.139-7.243
		c-1.201-4-1.801-7.542-1.801-10.628V248.85c0-1.756,1.438-3.193,3.193-3.193h12.997c1.756,0,3.193,1.437,3.193,3.193v31.962
		c0,1.756,0.221,4.614,0.491,6.349c0,0,0.459,2.952,2.36,4.879c1.901,1.928,4.539,2.892,7.913,2.892c3.345,0,5.968-0.95,7.87-2.85
		s2.852-4.592,2.852-8.077L359.022,248.851L359.022,248.851z"/>
	<path fill="#E51A5D" d="M377.24,287.729l15.297-0.958c1.753-0.11,3.508,1.201,3.9,2.913c0,0,0.5,2.177,1.73,3.75
		c2.001,2.545,4.86,3.816,8.578,3.816c2.771,0,4.909-0.649,6.41-1.951c1.502-1.3,2.252-2.809,2.252-4.524
		c0-1.63-0.715-3.088-2.146-4.375c-1.43-1.287-4.745-2.502-9.948-3.646c-8.521-1.916-14.597-4.46-18.227-7.634
		c-3.66-3.173-5.49-7.219-5.49-12.137c0-3.23,0.938-6.282,2.81-9.156c1.873-2.874,4.688-5.132,8.449-6.776
		c3.759-1.644,8.912-2.466,15.46-2.466c8.033,0,14.159,1.494,18.377,4.481c4.217,2.987,6.726,7.741,7.526,14.26l-15.125,0.885
		c-1.754,0.102-3.611-1.187-4.13-2.865c0,0-0.566-1.837-2.124-3.124c-1.56-1.287-3.71-1.93-6.455-1.93
		c-2.259,0-3.96,0.479-5.103,1.437c-1.146,0.958-1.716,2.123-1.716,3.496c0,1.001,0.472,1.901,1.416,2.702
		c0.915,0.83,3.087,1.602,6.518,2.316c8.492,1.83,14.575,3.682,18.249,5.554c3.674,1.873,6.348,4.196,8.021,6.969
		c1.671,2.773,2.508,5.875,2.508,9.307c0,4.031-1.115,7.749-3.346,11.15c-2.229,3.402-5.347,5.982-9.35,7.741
		s-9.049,2.638-15.139,2.638c-10.693,0-18.099-2.06-22.215-6.176C380.113,299.309,377.782,294.076,377.24,287.729z"/>
	<path fill="#E51A5D" d="M549.471,246h-15.077c-1.757,0-3.932,1.062-4.834,2.569l-9.411,14.579
		c-0.902,1.507-2.377,1.464-3.277-0.044l-9.393-14.512c-0.9-1.508-3.074-2.592-4.831-2.592h-12.175h-3.019h-10.108
		c-1.757,0-3.346,1.095-3.346,2.851v15.614c0,1.756-1.284,2.535-3.041,2.535h-14.841c-1.757,0-3.118-0.779-3.118-2.535v-15.614
		c0-1.756-1.513-2.851-3.27-2.851h-13.04c-1.758,0-2.69,1.095-2.69,2.851v56.485c0,1.756,0.323,3.664,2.43,3.664h14.449
		c2.009,0,2.121-1.697,2.121-3.453v-19.256c0-1.756,1.361-3.291,3.118-3.291h14.841c1.757,0,3.041,1.535,3.041,3.291v19.045
		c0,1.756,0.452,3.664,2.751,3.664h13.722c2.374,0,2.527-1.908,2.527-3.664c0,0,0-37.63,0-40.895c0-3.265,2.234-1.728,2.871-0.805
		c0.637,0.923,10.515,15.907,10.515,15.907c0.978,1.459,1.614,4.09,1.614,5.846v19.946c0,1.757,1.282,3.664,3.194,3.664h14.837
		c2.227,0,2.969-1.907,2.969-3.664V285.39c0-1.756,0.408-4.388,1.385-5.848l20.699-31.059C552.061,247.023,551.229,246,549.471,246z
		"/>
	<g>
		<path fill="#E51A5D" d="M290.324,285.579c-1.1,0-2-0.666-2-1.766v-9.278c0-1.1,0.9-2,2-2h25.938c1.101,0,2,0.9,2,2v22.729
			c0,1.167-0.811,2.066-1.906,3.225c-1.283,1.354-7.406,4.913-13.297,6.752c-4.417,1.378-9.63,2.116-15.675,2.116
			c-7.441,0-13.507-1.269-18.196-3.807c-4.69-2.537-8.326-6.315-10.906-11.333c-2.581-5.018-3.871-10.778-3.871-17.278
			c0-6.843,1.411-12.794,4.233-17.856c2.824-5.061,6.957-8.902,12.403-11.525c4.248-2.023,9.964-3.037,17.149-3.037
			c6.928,0,12.11,0.628,15.545,1.882c3.436,1.255,6.287,3.201,8.553,5.837c1.689,1.966,3.066,4.323,4.13,7.071
			c0.364,0.94,0.812,2.936-0.565,3.235c-1.377,0.299-15.172,2.708-15.172,2.708c-1.083,0.193-2.369-0.455-2.858-1.439
			c0,0-1.185-2.385-3.023-3.64c-1.839-1.254-4.184-1.882-7.035-1.882c-4.249,0-7.634,1.475-10.158,4.427
			c-2.523,2.95-3.784,7.619-3.784,14.006c0,6.786,1.275,11.633,3.828,14.54c2.551,2.909,6.108,4.363,10.67,4.363
			c2.166,0,4.233-0.348,6.223-0.901c2.031-0.565,4.212-1.307,6.736-3.05v-4.099c0-1.1-0.9-2-2-2L290.324,285.579L290.324,285.579z"
			/>
	</g>
</g>
</svg>
