<?xml version="1.0" encoding="utf-8"?>
<!-- Generator: Adobe Illustrator 15.1.0, SVG Export Plug-In . SVG Version: 6.00 Build 0)  -->
<!DOCTYPE svg PUBLIC "-//W3C//DTD SVG 1.1//EN" "http://www.w3.org/Graphics/SVG/1.1/DTD/svg11.dtd">
<svg version="1.1" id="Layer_1" xmlns="http://www.w3.org/2000/svg" xmlns:xlink="http://www.w3.org/1999/xlink" x="0px" y="0px"
	 width="800px" height="600px" viewBox="0 0 800 600" style="enable-background:new 0 0 800 600;" xml:space="preserve">
<style type="text/css">
<![CDATA[
	.st0{fill:#FFFFFF;stroke:#000000;stroke-miterlimit:10;}
	.st1{fill:#FFFFFF;stroke:#000000;stroke-width:2;stroke-miterlimit:10;}
	.st2{fill:none;stroke:#000000;stroke-linecap:round;stroke-linejoin:round;}
	.st3{clip-path:url(#SVGID_2_);}
	.st4{fill:none;stroke:#000000;stroke-miterlimit:10;}
	.st5{fill:none;stroke:#000000;stroke-width:2;stroke-miterlimit:10;}
]]>
</style>
<path class="st5" d="M318.643,504c0,2.762-2.347,4.633-5.108,4.633c-39.165,0-39.165,0.556-78.331,0.556
	c-39.167,0-39.167-0.315-78.334-0.315c-39.168,0-39.168,0.428-78.335,0.428c-2.761,0-4.916-2.539-4.916-5.301
	c0-37.75-0.261-37.75-0.261-75.5s0.204-37.75,0.204-75.5c0-2.762,2.212-4.953,4.973-4.953c39.166,0,39.166,0.156,78.331,0.156
	c39.167,0,39.167-0.681,78.335-0.681c39.167,0,39.167,0.161,78.334,0.161c2.762,0,4.878,2.555,4.878,5.316
	c0,37.75,0.069,37.75,0.105,75.5S318.643,466.25,318.643,504z"/>
<path class="st4" d="M477.117,144.452c1.882,0,5.052,3.985,5.052,5.789c0.506,40.455,0.195,40.46,0.195,80.916
	c0,1.804-2.066,2.601-3.949,2.601c-35.926,0-35.926,0.872-71.852,0.872c-35.928,0-35.928-1.166-71.853-1.166
	c-1.882,0-4.434-0.503-4.434-2.308c0-40.456,0.882-40.456,0.882-80.912c0-1.804,2.535-5.124,4.416-5.124"/>
<path class="st4" d="M234.623,189.145c0,13.924-5.105,26.326-11.611,37.569c-6.711,11.601-15.328,21.799-26.927,28.511
	c-11.244,6.505-24.226,10.939-38.15,10.939c-13.924,0-27.248-3.844-38.492-10.349c-11.601-6.711-20.382-17.207-27.094-28.807
	c-6.505-11.244-11.056-23.939-11.056-37.864c0-13.924,4.82-26.463,11.325-37.707c6.711-11.601,14.977-22.679,26.577-29.39
	c11.245-6.505,24.815-9.472,38.739-9.472c13.924,0,26.434,4.798,37.678,11.304c11.6,6.711,22.247,15.193,28.959,26.792
	C231.077,161.917,234.623,175.22,234.623,189.145z"/>
<path class="st4" d="M182.405,189.299c0,4.44-1.628,8.395-3.702,11.979c-2.14,3.7-4.888,6.952-8.587,9.093
	c-3.586,2.075-7.725,3.488-12.166,3.488s-8.689-1.226-12.275-3.3c-3.699-2.14-6.499-5.487-8.639-9.187
	c-2.075-3.585-3.525-7.634-3.525-12.074c0-4.44,1.536-8.439,3.611-12.024c2.141-3.699,4.777-7.232,8.475-9.372
	c3.586-2.074,7.913-3.021,12.354-3.021s8.429,1.531,12.015,3.605c3.699,2.14,7.094,4.845,9.235,8.544
	C181.274,180.616,182.405,184.858,182.405,189.299z"/>
<path class="st4" d="M168.481,189.339c0,1.912-0.701,3.613-1.593,5.157c-0.922,1.593-2.104,2.993-3.697,3.914
	c-1.543,0.894-3.326,1.502-5.237,1.502c-1.911,0-3.739-0.528-5.283-1.421c-1.593-0.92-2.798-2.361-3.719-3.954
	c-0.894-1.544-1.518-3.286-1.518-5.198c0-1.911,0.662-3.632,1.554-5.176c0.922-1.592,2.056-3.113,3.649-4.034
	c1.543-0.893,3.406-1.3,5.316-1.3c1.911,0,3.628,0.659,5.172,1.552c1.592,0.921,3.053,2.085,3.975,3.677
	C167.994,185.602,168.481,187.428,168.481,189.339z"/>
<path class="st4" d="M231.822,189.153c0,13.416-4.918,25.363-11.186,36.197c-6.467,11.177-14.768,21.003-25.944,27.468
	c-10.833,6.268-23.339,10.54-36.755,10.54c-13.416,0-26.253-3.702-37.085-9.97c-11.178-6.466-19.637-16.579-26.104-27.754
	c-6.268-10.834-10.652-23.065-10.652-36.481c0-13.415,4.644-25.496,10.912-36.329c6.466-11.177,14.43-21.85,25.605-28.316
	c10.834-6.268,23.909-9.125,37.324-9.125c13.415,0,25.467,4.622,36.3,10.891c11.176,6.466,21.434,14.637,27.9,25.812
	C228.404,162.92,231.822,175.737,231.822,189.153z"/>
<path class="st4" d="M456.825,144.549c5.385,0.104,10.14-0.227,18.759-0.227c1.804,0,3.598,0.835,3.598,2.639
	c0.485,40.455,0.188,40.46,0.188,80.916c0,1.804-1.982,2.601-3.786,2.601c-34.442,0-34.442,0.872-68.885,0.872
	s-34.442-1.166-68.885-1.166c-1.803,0-4.25-0.503-4.25-2.308c0-40.456,0.845-40.456,0.845-80.912c0-1.804,1.603-2.251,3.405-2.251
	c8.527,0,13.365,0.468,18.715,0.33"/>
<path class="st4" d="M386.436,188.175c0,1.306-0.48,2.47-1.089,3.524c-0.63,1.089-1.438,2.046-2.526,2.676
	c-1.055,0.61-2.272,1.026-3.579,1.026s-2.556-0.36-3.611-0.971c-1.089-0.629-1.911-1.614-2.541-2.703
	c-0.611-1.054-1.038-2.246-1.038-3.552s0.453-2.482,1.062-3.538c0.63-1.088,1.405-2.128,2.493-2.757
	c1.055-0.609,2.328-0.888,3.635-0.888s2.479,0.451,3.534,1.06c1.09,0.63,2.088,1.426,2.717,2.514
	C386.103,185.621,386.436,186.869,386.436,188.175z"/>
<path class="st4" d="M460.164,202.697c0,0.681-1.46,0.982-2.789,0.982c-25.362,0-25.362,0.329-50.725,0.329
	c-25.363,0-25.363-0.44-50.725-0.44c-1.329,0-3.131-0.191-3.131-0.872c0-15.277,0.623-15.277,0.623-30.552
	c0-0.681,1.179-0.851,2.508-0.851c25.361,0,25.361-0.564,50.725-0.564c25.362,0,25.362,0.418,50.725,0.418
	c1.329,0,2.65,0.314,2.65,0.995C460.381,187.418,460.164,187.419,460.164,202.697z"/>
<path class="st4" d="M460.164,220.6c0,0.274-1.475,0.395-2.815,0.395c-25.596,0-25.596,0.133-51.191,0.133
	s-25.596-0.177-51.19-0.177c-1.342,0-3.16-0.077-3.16-0.352c0-6.148,0.629-6.148,0.629-12.296c0-0.274,1.189-0.342,2.531-0.342
	c25.595,0,25.595-0.228,51.19-0.228s25.596,0.168,51.191,0.168c1.341,0,2.674,0.127,2.674,0.4
	C460.383,214.452,460.164,214.452,460.164,220.6z"/>
<path class="st4" d="M450.401,159.485c-0.15,0.292-1.357,0.467-2.59,0.467c-23.537,0-17.681,0.158-41.22,0.158
	c-23.538,0-17.683-0.21-41.222-0.21c-1.233,0-2.782-0.112-2.905-0.415c-2.936-7.254-2.936-9.568-5.277-17.286
	c-0.096-0.313,1.094-0.405,2.328-0.405c23.538,0,23.538-0.27,47.076-0.27c23.539,0,23.539,0.2,47.076,0.2
	c1.232,0,2.569,0.166,2.46,0.473C453.52,149.512,453.52,153.444,450.401,159.485z"/>
<path class="st4" d="M340.901,149.521c0,0.311-0.113,0.587-0.258,0.838c-0.149,0.259-0.342,0.486-0.601,0.636
	c-0.251,0.145-0.54,0.244-0.851,0.244s-0.607-0.085-0.858-0.231c-0.26-0.149-0.455-0.384-0.604-0.642
	c-0.146-0.251-0.247-0.534-0.247-0.845c0-0.31,0.108-0.59,0.253-0.841c0.149-0.258,0.335-0.505,0.593-0.655
	c0.25-0.145,0.554-0.211,0.864-0.211s0.589,0.107,0.84,0.252c0.259,0.149,0.496,0.339,0.646,0.597
	C340.822,148.915,340.901,149.211,340.901,149.521z"/>
<path class="st4" d="M476.483,149.521c0,0.311-0.113,0.587-0.258,0.838c-0.149,0.259-0.342,0.486-0.601,0.636
	c-0.251,0.145-0.54,0.244-0.851,0.244s-0.607-0.085-0.858-0.231c-0.26-0.149-0.455-0.384-0.604-0.642
	c-0.146-0.251-0.247-0.534-0.247-0.845c0-0.31,0.108-0.59,0.253-0.841c0.149-0.258,0.335-0.505,0.593-0.655
	c0.25-0.145,0.554-0.211,0.864-0.211s0.589,0.107,0.84,0.252c0.259,0.149,0.496,0.339,0.646,0.597
	C476.404,148.915,476.483,149.211,476.483,149.521z"/>
<path class="st4" d="M476.483,226.06c0,0.311-0.113,0.587-0.258,0.838c-0.149,0.259-0.342,0.486-0.601,0.636
	c-0.251,0.146-0.54,0.244-0.851,0.244s-0.607-0.085-0.858-0.23c-0.26-0.149-0.455-0.384-0.604-0.643
	c-0.146-0.251-0.247-0.534-0.247-0.845c0-0.31,0.108-0.59,0.253-0.841c0.149-0.258,0.335-0.505,0.593-0.655
	c0.25-0.146,0.554-0.211,0.864-0.211s0.589,0.107,0.84,0.252c0.259,0.149,0.496,0.339,0.646,0.597
	C476.404,225.453,476.483,225.75,476.483,226.06z"/>
<path class="st4" d="M339.809,226.06c0,0.311-0.113,0.587-0.259,0.838c-0.149,0.259-0.342,0.486-0.6,0.636
	c-0.251,0.146-0.541,0.244-0.852,0.244s-0.607-0.085-0.858-0.23c-0.26-0.149-0.455-0.384-0.604-0.643
	c-0.146-0.251-0.246-0.534-0.246-0.845c0-0.31,0.107-0.59,0.253-0.841c0.149-0.258,0.334-0.505,0.593-0.655
	c0.249-0.146,0.553-0.211,0.863-0.211s0.59,0.107,0.841,0.252c0.258,0.149,0.495,0.339,0.645,0.597
	C339.729,225.453,339.809,225.75,339.809,226.06z"/>
<path class="st4" d="M420.216,198.259c0,0.497-0.373,0.716-0.715,0.716c-6.501,0-6.501,0.24-13.005,0.24
	c-6.502,0-6.502-0.321-13.003-0.321c-0.341,0-0.802-0.139-0.802-0.635c0-11.145,0.158-11.145,0.158-22.287
	c0-0.498,0.303-0.621,0.644-0.621c6.501,0,6.501-0.412,13.003-0.412c6.504,0,6.504,0.305,13.005,0.305
	c0.342,0,0.681,0.229,0.681,0.726C420.271,187.114,420.216,187.115,420.216,198.259z"/>
<path class="st4" d="M370.721,147.733c0,0.438-0.161,0.828-0.365,1.181c-0.212,0.365-0.482,0.686-0.847,0.897
	c-0.354,0.205-0.762,0.344-1.199,0.344c-0.439,0-0.857-0.121-1.211-0.325c-0.365-0.211-0.641-0.541-0.853-0.906
	c-0.205-0.354-0.348-0.753-0.348-1.191c0-0.438,0.151-0.832,0.356-1.186c0.212-0.364,0.47-0.713,0.835-0.924
	c0.354-0.204,0.78-0.297,1.22-0.297c0.438,0,0.831,0.151,1.184,0.355c0.365,0.211,0.7,0.478,0.911,0.843
	C370.609,146.876,370.721,147.295,370.721,147.733z"/>
<path class="st4" d="M447.259,147.733c0,0.438-0.161,0.828-0.365,1.181c-0.212,0.365-0.482,0.686-0.847,0.897
	c-0.354,0.205-0.762,0.344-1.199,0.344c-0.438,0-0.857-0.121-1.211-0.325c-0.365-0.211-0.641-0.541-0.852-0.906
	c-0.205-0.354-0.349-0.753-0.349-1.191c0-0.438,0.151-0.832,0.356-1.186c0.212-0.364,0.47-0.713,0.835-0.924
	c0.354-0.204,0.781-0.297,1.22-0.297c0.438,0,0.831,0.151,1.185,0.355c0.364,0.211,0.699,0.478,0.91,0.843
	C447.147,146.876,447.259,147.295,447.259,147.733z"/>
<path class="st4" d="M439.635,152.11c0,0.245-0.09,0.462-0.204,0.66c-0.118,0.204-0.271,0.384-0.473,0.501
	c-0.198,0.115-0.427,0.192-0.671,0.192c-0.245,0-0.479-0.067-0.677-0.182c-0.204-0.118-0.357-0.303-0.477-0.507
	c-0.114-0.197-0.194-0.42-0.194-0.665c0-0.245,0.085-0.465,0.2-0.663c0.117-0.204,0.263-0.398,0.467-0.517
	c0.197-0.114,0.436-0.166,0.681-0.166c0.244,0,0.465,0.084,0.662,0.198c0.204,0.118,0.391,0.267,0.51,0.471
	C439.573,151.631,439.635,151.865,439.635,152.11z"/>
<path class="st4" d="M375.124,152.11c0,0.245-0.09,0.462-0.204,0.66c-0.118,0.204-0.271,0.384-0.473,0.501
	c-0.198,0.115-0.427,0.192-0.671,0.192c-0.245,0-0.479-0.067-0.677-0.182c-0.204-0.118-0.357-0.303-0.477-0.507
	c-0.114-0.197-0.194-0.42-0.194-0.665c0-0.245,0.085-0.465,0.2-0.663c0.117-0.204,0.263-0.398,0.466-0.517
	c0.198-0.114,0.437-0.166,0.682-0.166c0.244,0,0.465,0.084,0.662,0.198c0.204,0.118,0.391,0.267,0.51,0.471
	C375.062,151.631,375.124,151.865,375.124,152.11z"/>
<g>
	<defs>
		<path id="SVGID_1_" d="M420.216,198.259c0,0.498-0.373,0.717-0.715,0.717c-6.501,0-6.501,0.239-13.005,0.239
			c-6.502,0-6.502-0.32-13.003-0.32c-0.341,0-0.802-0.139-0.802-0.636c0-11.144,0.158-11.144,0.158-22.286
			c0-0.498,0.303-0.621,0.644-0.621c6.501,0,6.501-0.412,13.003-0.412c6.504,0,6.504,0.305,13.005,0.305
			c0.342,0,0.681,0.229,0.681,0.726C420.271,187.113,420.216,187.115,420.216,198.259z"/>
	</defs>
	<clipPath id="SVGID_2_">
		<use xlink:href="#SVGID_1_"  style="overflow:visible;"/>
	</clipPath>
	<path class="st3" d="M410.354,187.679c0,12.965-8.921,24.278-20.493,24.278s-20.108-11.312-20.108-24.278
		c0-12.966,8.536-24.001,20.108-24.001S410.354,174.713,410.354,187.679z"/>
</g>
<g>
	<g>
		<g>
			<path class="st2" d="M143.58,117.312c-0.304-0.05,1.604,1.1,1.393,0.884c-0.236-1.136-0.541,1.545-0.792,2.253
				c0.203-0.667,5.224-3.394,5.202-3.02c0.708-1.604-4.752,5.887-4.864,5.525c-0.133-0.719,12.094-6.552,12.097-6.112
				c-0.301-0.938-11.344,9.021-11.7,9.883c-0.244-0.824,16.696-9.925,16.664-9.986c-0.213,0.282-16.131,13.734-16.325,12.175
				c0.22-0.103,21.599-10.892,21.714-11.67c-0.349,0.362-21.392,15.312-20.857,17c-0.264-0.268,21.253-13.089,21.924-14.216
				c-0.24-0.523-21.517,16.741-21.913,17.503c-0.138-0.771,21.246-12.813,20.891-13.429c0.459,1.219-20.369,16.706-20.31,15.282
				c0.405,0.197,20.133-10.673,20.055-11.482c0.13-0.108-19.049,15.785-18.979,16.575c-0.259-0.19,19.062-12.976,19.418-11.51
				c-0.294-0.029-19.153,14.194-19.742,14.164c0.763,0.602,18.671-10.314,19.159-11.82c-0.423,1.547-18.14,15.155-17.96,15.021
				c-0.183-0.242,17.957-9.179,17.322-9.773c-0.045,0.145-17.451,14.865-16.903,14.125c-0.424,0.212,16.709-10.792,16.522-9.885
				c0.356-0.042-16.079,12.814-16.482,11.95c0.085,1.058,16.477-9.309,16.057-8.944c0.635-0.038-15.257,11.106-15.725,11.159
				c0.253-0.129,15.797-9.461,15.771-9.125c0.167,1.334-15.509,12.852-15.308,12.963c-0.325,0.044,14.942-10.983,14.867-9.91
				c0.501-0.375-14.594,13.383-14.477,13.307c0.307-1.585,14.664-10.344,14.978-9.054c-0.563,0.208-6.782,6.555-6.855,7.817
				c0.761-0.364,6.306-3.757,6.306-4.01c0.107,0.695-1.358,4.786-1.02,4.649c0.086-1.017,0.828-1.361,0.52-1.204"/>
		</g>
	</g>
</g>
<g>
	<polyline class="st2" points="193.203,252.826 192.332,253.781 192.37,250.987 187.902,255.893 191.108,248.202 181.638,258.598 
		189.61,244.895 176.296,259.508 188.267,241.933 171.512,260.324 186.766,238.617 169.496,257.574 185.164,235.083 168.587,253.28 
		183.834,232.147 167.831,249.714 182.405,228.993 167.02,245.882 180.813,225.482 166.116,241.616 179.333,222.213 
		165.274,237.647 177.752,218.724 164.376,233.408 176.758,216.527 163.811,230.74 175.651,214.084 163.183,227.772 
		174.692,211.966 162.637,225.2 173.266,208.818 161.827,221.375 165.446,212.179 160.929,217.136 160.682,212.708 160.122,213.324 
			"/>
</g>
<path class="st4" d="M451.422,161.38c-0.154,0.322-1.389,0.516-2.651,0.516c-24.085,0-18.092,0.175-42.179,0.175
	c-24.089,0-18.097-0.233-42.183-0.233c-1.262,0-2.847-0.124-2.974-0.458c-3.004-8.02-3.004-10.578-5.4-19.11
	c-0.098-0.346,1.121-0.448,2.383-0.448c24.085,0,24.085-0.298,48.174-0.298c24.087,0,24.087,0.221,48.171,0.221
	c1.264,0,2.63,0.184,2.519,0.523C454.613,150.354,454.613,154.701,451.422,161.38z"/>
<path class="st4" d="M387.972,188.17c0,1.585-0.583,2.997-1.322,4.276c-0.765,1.322-1.745,2.482-3.065,3.247
	c-1.28,0.741-2.758,1.245-4.343,1.245c-1.586,0-3.103-0.438-4.384-1.178c-1.32-0.764-2.318-1.959-3.083-3.28
	c-0.742-1.279-1.26-2.726-1.26-4.311s0.55-3.013,1.29-4.293c0.765-1.32,1.705-2.582,3.025-3.346c1.28-0.74,2.825-1.078,4.411-1.078
	c1.585,0,3.009,0.547,4.288,1.287c1.322,0.765,2.533,1.73,3.297,3.051C387.567,185.071,387.972,186.585,387.972,188.17z"/>
<path class="st4" d="M380.988,184.434c0,0.063-0.054,0.09-0.104,0.09c-0.948,0-0.948,0.031-1.897,0.031
	c-0.948,0-0.948-0.041-1.896-0.041c-0.05,0-0.117-0.017-0.117-0.08c0-1.41,0.023-1.41,0.023-2.82c0-0.063,0.044-0.079,0.094-0.079
	c0.948,0,0.948-0.052,1.896-0.052c0.949,0,0.949,0.039,1.897,0.039c0.05,0,0.1,0.029,0.1,0.092
	C380.997,183.023,380.988,183.023,380.988,184.434z"/>
<path class="st4" d="M380.988,195.434c0,0.063-0.054,0.09-0.104,0.09c-0.948,0-0.948,0.031-1.897,0.031
	c-0.948,0-0.948-0.041-1.896-0.041c-0.05,0-0.117-0.017-0.117-0.08c0-1.41,0.023-1.41,0.023-2.82c0-0.063,0.044-0.079,0.094-0.079
	c0.948,0,0.948-0.052,1.896-0.052c0.949,0,0.949,0.039,1.897,0.039c0.05,0,0.1,0.029,0.1,0.092
	C380.997,194.023,380.988,194.023,380.988,195.434z"/>
<path class="st4" d="M375.397,186.013c0.063,0,0.091,0.053,0.09,0.104c0,0.948,0.031,0.948,0.031,1.897
	c0,0.949-0.041,0.948-0.041,1.896c0,0.05-0.017,0.117-0.08,0.117c-1.41,0-1.41-0.023-2.82-0.023c-0.063,0-0.078-0.044-0.079-0.094
	c0.001-0.949-0.052-0.948-0.052-1.896c0-0.949,0.039-0.949,0.038-1.897c0-0.05,0.029-0.1,0.093-0.1
	C373.987,186.004,373.987,186.013,375.397,186.013z"/>
<path class="st4" d="M386.397,186.013c0.063,0,0.091,0.053,0.09,0.104c0,0.948,0.031,0.948,0.031,1.897
	c0,0.949-0.041,0.948-0.041,1.896c0,0.05-0.017,0.117-0.08,0.117c-1.41,0-1.41-0.023-2.82-0.023c-0.063,0-0.078-0.044-0.079-0.094
	c0.001-0.949-0.052-0.948-0.052-1.896c0-0.949,0.039-0.949,0.038-1.897c0-0.05,0.029-0.1,0.093-0.1
	C384.987,186.004,384.987,186.013,386.397,186.013z"/>
<path class="st4" d="M442.774,185.183c0.543,1.188,0.591,2.445,0.477,3.657c-0.119,1.252-0.456,2.459-1.184,3.484
	c-0.705,0.994-1.639,1.879-2.827,2.423s-2.474,0.736-3.688,0.621c-1.252-0.119-2.41-0.672-3.436-1.4
	c-0.995-0.704-1.879-1.61-2.423-2.798c-0.543-1.188-0.621-2.446-0.506-3.659c0.12-1.251,0.392-2.52,1.119-3.545
	c0.705-0.993,1.747-1.777,2.935-2.32c1.188-0.544,2.442-0.623,3.655-0.507c1.253,0.12,2.492,0.427,3.517,1.155
	C441.408,182.999,442.23,183.995,442.774,185.183z"/>
<path class="st4" d="M444.169,184.54c0.66,1.441,0.718,2.968,0.578,4.438c-0.146,1.521-0.554,2.984-1.437,4.229
	c-0.855,1.207-1.989,2.28-3.43,2.94c-1.442,0.66-3.003,0.894-4.477,0.754c-1.519-0.145-2.924-0.817-4.169-1.699
	c-1.207-0.854-2.279-1.954-2.939-3.395c-0.659-1.441-0.754-2.968-0.614-4.441c0.146-1.519,0.476-3.058,1.358-4.301
	c0.856-1.206,2.12-2.157,3.562-2.816c1.44-0.66,2.963-0.755,4.435-0.615c1.521,0.146,3.023,0.519,4.268,1.401
	C442.511,181.89,443.509,183.099,444.169,184.54z"/>
<path class="st4" d="M436.264,184.049c0.026,0.057-0.011,0.104-0.057,0.125c-0.862,0.395-0.849,0.423-1.712,0.818
	c-0.862,0.395-0.88,0.357-1.741,0.752c-0.046,0.021-0.114,0.033-0.141-0.024c-0.587-1.282-0.565-1.292-1.152-2.574
	c-0.026-0.058,0.007-0.09,0.053-0.11c0.862-0.395,0.84-0.442,1.702-0.837c0.863-0.395,0.879-0.36,1.741-0.755
	c0.046-0.021,0.103-0.015,0.129,0.042C435.685,182.762,435.677,182.767,436.264,184.049z"/>
<path class="st4" d="M440.843,194.05c0.026,0.058-0.012,0.104-0.057,0.125c-0.862,0.395-0.85,0.422-1.713,0.817
	c-0.862,0.395-0.879,0.357-1.741,0.752c-0.045,0.021-0.113,0.033-0.14-0.024c-0.587-1.282-0.565-1.292-1.153-2.574
	c-0.026-0.058,0.008-0.09,0.053-0.111c0.862-0.395,0.841-0.442,1.703-0.836c0.863-0.396,0.879-0.36,1.741-0.755
	c0.045-0.021,0.103-0.015,0.129,0.042C440.264,192.764,440.256,192.768,440.843,194.05z"/>
<path class="st4" d="M431.838,187.812c0.058-0.026,0.104,0.011,0.125,0.057c0.395,0.862,0.423,0.849,0.818,1.712
	c0.395,0.863,0.356,0.879,0.752,1.741c0.021,0.045,0.033,0.114-0.024,0.14c-1.282,0.587-1.292,0.565-2.574,1.152
	c-0.058,0.027-0.089-0.007-0.11-0.052c-0.395-0.863-0.442-0.84-0.837-1.703c-0.396-0.863-0.359-0.879-0.755-1.741
	c-0.021-0.045-0.015-0.103,0.043-0.129C430.552,188.391,430.556,188.399,431.838,187.812z"/>
<path class="st4" d="M441.84,183.233c0.058-0.026,0.104,0.011,0.125,0.057c0.395,0.862,0.423,0.849,0.817,1.712
	c0.396,0.862,0.357,0.879,0.753,1.741c0.021,0.045,0.033,0.114-0.024,0.14c-1.282,0.587-1.292,0.565-2.574,1.152
	c-0.058,0.026-0.089-0.007-0.111-0.052c-0.394-0.863-0.441-0.84-0.836-1.703c-0.396-0.863-0.359-0.879-0.755-1.741
	c-0.021-0.045-0.016-0.103,0.043-0.129C440.554,183.812,440.558,183.82,441.84,183.233z"/>
<path d="M714.368,165.184c-7.653-19.399-19.433-35.081-34.066-45.349c-21.805-15.299-47.782-17.448-73.149-6.049
	c-12.99,5.836-14.82,26.433-15.04,29.969l-1.134-0.034l-0.016,0.544l-0.807-0.005l-0.055,9.936l1,0.005l0.053-9.475l3.848,0.115
	l0.436,9.299l0.998-0.047l-0.443-9.466l-0.038,0.002l0.022-0.758l-1.86-0.056c0.237-3.393,2.114-22.929,13.855-28.205
	c24.698-11.097,49.978-9.016,71.181,5.862c30.469,21.38,46.411,64.016,42.643,114.045c-5.127,62.159-69.603,71.233-121.411,78.525
	c-24.753,3.483-46.13,6.493-56.679,14.761c-4.675,3.665-6.497,7.096-5.415,10.193c3.54,10.131,39.228,12.703,60.333,13.334
	c6.247,0.188,11.209,0.204,13.688,0.197l0.175,0.946c0.109-0.021,5.859-1.052,12.131-1.046c0.447,0.021,0.897,0.039,1.35,0.053
	c0.488,0.014,0.979,0.022,1.47,0.027c4.716,0.269,9.299,1.283,11.615,3.904c1.66,1.881,1.957,4.412,0.906,7.74
	c-5.057,16.021-15.512,13.009-21.757,11.206c-0.508-0.146-0.983-0.284-1.422-0.402l-0.517,1.933c0.427,0.114,0.89,0.247,1.384,0.392
	c2.074,0.597,4.918,1.419,7.987,1.509c5.854,0.175,12.529-2.302,16.231-14.034c1.263-3.999,0.819-7.251-1.315-9.667
	c-1.253-1.418-3.019-2.432-5.062-3.146c2.858-0.524,5.214-1.463,6.475-3.022c1.206-1.491,1.373-3.358,0.497-5.551
	c-4.795-12.003-16.917-10.349-23.431-9.463c-0.503,0.069-0.975,0.134-1.408,0.187l0.243,1.984c0.442-0.054,0.922-0.119,1.436-0.188
	c6.389-0.872,17.087-2.328,21.304,8.222c0.595,1.491,0.524,2.859-0.202,3.758c-1.918,2.373-7.807,3.191-13.88,3.01
	c-0.079-0.003-0.157-0.006-0.236-0.008c-5.311-0.158-10.726-1.035-13.746-1.55l-0.238,1.31
	c-19.854,0.065-68.552-2.015-72.124-12.241c-0.77-2.202,0.833-4.905,4.763-7.985c10.124-7.937,31.255-10.924,55.723-14.367
	c25.886-3.644,55.227-7.779,78.831-18.925c27.467-12.97,41.956-33.064,44.296-61.433
	C725.717,210.074,722.459,185.695,714.368,165.184z M613.459,351.287c-0.028,0.004-0.061,0.009-0.088,0.014v-0.027
	C613.399,351.277,613.43,351.282,613.459,351.287z"/>
<path class="st0" d="M675.899,318.91c-0.114,3.832-1.906,8.174-5.396,8.069c-42.554-1.272-42.511-2.7-85.064-3.974
	c-3.491-0.104-6.585-3.164-6.47-6.996c1.145-38.266,1.711-38.248,2.855-76.513s-0.063-38.301,1.081-76.566
	c0.115-3.832,4.003-5.841,7.493-5.736c42.555,1.273,42.63-1.25,85.184,0.023c3.49,0.104,4.174,4.775,4.06,8.608
	c-1.145,38.265,1.554,38.351,0.284,76.611C678.654,280.697,677.045,280.645,675.899,318.91z"/>
<path class="st0" d="M672.991,315.822c-0.115,3.832-1.907,8.173-5.397,8.068c-42.553-1.273-42.511-2.7-85.064-3.973
	c-3.491-0.105-6.584-3.164-6.47-6.996c1.145-38.266,1.711-38.248,2.855-76.514c1.146-38.265-0.063-38.301,1.082-76.566
	c0.114-3.832,4.002-5.841,7.493-5.736c42.554,1.273,42.63-1.25,85.183,0.023c3.49,0.104,4.175,4.775,4.06,8.608
	c-1.145,38.265,1.555,38.351,0.284,76.611C675.745,277.609,674.136,277.557,672.991,315.822z"/>
<path class="st4" d="M670.864,296.6c-1.995,1.869-2.663,0.182-5.396,0.1c-2.733-0.082-2.726-0.328-5.459-0.41
	s-2.741,0.171-5.474,0.089c-2.734-0.081-2.727-0.339-5.461-0.421c-2.733-0.082-2.741,0.17-5.475,0.088
	c-2.734-0.082-2.729-0.27-5.462-0.352s-2.74,0.143-5.473,0.061c-2.731-0.081-2.729-0.186-5.46-0.268
	c-2.732-0.082-2.724-0.369-5.457-0.451c-2.734-0.082-2.732-0.15-5.467-0.232c-2.732-0.082-2.736,0.035-5.471-0.047
	c-2.733-0.082-2.735-0.045-5.469-0.127c-2.735-0.082-2.744,0.202-5.479,0.121c-2.732-0.082-2.731-0.14-5.464-0.221
	c-2.736-0.082-2.733-0.184-5.469-0.266c-2.736-0.082-2.729-0.365-5.466-0.447c-2.738-0.082-3.547,2.021-5.433,0.035
	c-1.871-1.97-0.184-2.674-0.103-5.39c0.081-2.714,0.101-2.714,0.182-5.428c0.081-2.716,0.449-2.704,0.53-5.42
	c0.082-2.715-0.228-2.724-0.146-5.438c0.081-2.716,0.28-2.71,0.361-5.425c0.081-2.715-0.192-2.723-0.111-5.438
	c0.081-2.716,0.337-2.708,0.418-5.424c0.081-2.715,0.15-2.713,0.231-5.429c0.082-2.716-0.035-2.719,0.046-5.436
	c0.081-2.716,0.228-2.711,0.309-5.428c0.081-2.716-0.114-2.722-0.033-5.438c0.081-2.716-0.094-2.721-0.013-5.438
	c0.081-2.715,0.312-2.708,0.393-5.424c0.082-2.714-0.045-2.718,0.036-5.432c0.081-2.716,0.364-2.708,0.445-5.422
	c0.081-2.717,0.104-2.716,0.187-5.433c0.081-2.716-0.209-2.725-0.128-5.441c0.081-2.717,0.093-2.716,0.175-5.433
	c0.081-2.717,0.403-2.707,0.484-5.425c0.081-2.716-0.225-2.725-0.144-5.441c0.082-2.718,0.159-2.716,0.24-5.434
	c0.081-2.72,0.213-2.716,0.295-5.436c0.081-2.72-1.876-3.501,0.11-5.362c1.995-1.871,2.657-0.029,5.392,0.052
	c2.731,0.082,2.737-0.09,5.47-0.009c2.733,0.082,2.723,0.464,5.455,0.546c2.734,0.082,2.74-0.125,5.475-0.043
	c2.733,0.082,2.737-0.049,5.472,0.032c2.733,0.082,2.729,0.226,5.463,0.307c2.732,0.082,2.738-0.092,5.472-0.01
	c2.73,0.082,2.729,0.142,5.46,0.224c2.733,0.082,2.729,0.207,5.463,0.289c2.733,0.082,2.729,0.222,5.463,0.303
	c2.734,0.082,2.732,0.137,5.467,0.218c2.734,0.082,2.741-0.165,5.476-0.083c2.735,0.082,2.728,0.319,5.463,0.401
	c2.733,0.082,2.741-0.196,5.475-0.114c2.736,0.082,2.731,0.239,5.467,0.321c2.736,0.082,2.743-0.132,5.481-0.05
	c2.738,0.082,3.555-1.643,5.44,0.343c1.87,1.97,0.037,2.689-0.044,5.404c-0.081,2.714-0.184,2.711-0.265,5.426
	c-0.081,2.716-0.091,2.715-0.172,5.431c-0.082,2.715-0.16,2.712-0.241,5.427c-0.081,2.715,0.26,2.726,0.179,5.441
	c-0.081,2.715-0.162,2.712-0.244,5.428c-0.081,2.716-0.3,2.709-0.381,5.425c-0.081,2.716-0.029,2.717-0.11,5.433
	c-0.081,2.716,0.077,2.721-0.004,5.437c-0.081,2.716-0.476,2.705-0.557,5.421s-0.075,2.716-0.156,5.433
	c-0.082,2.716,0.047,2.72-0.034,5.436c-0.081,2.715,0.147,2.722,0.066,5.438c-0.082,2.714-0.021,2.716-0.103,5.43
	c-0.081,2.716-0.269,2.71-0.35,5.425c-0.081,2.716-0.317,2.709-0.398,5.426c-0.082,2.717,0.392,2.731,0.311,5.447
	c-0.081,2.717-0.429,2.707-0.51,5.423c-0.082,2.717,0.057,2.721-0.024,5.439c-0.081,2.715,0.041,2.719-0.04,5.435
	c-0.082,2.718-0.086,2.718-0.167,5.437c-0.081,2.72-0.985,2.793-0.511,5.473C671.394,294.098,672.85,294.738,670.864,296.6z"/>
<path class="st4" d="M634.05,308.253c-0.048,1.584-0.673,2.978-1.45,4.235c-0.804,1.299-1.818,2.429-3.161,3.153
	c-1.302,0.702-2.794,1.162-4.378,1.114c-1.585-0.047-3.088-0.529-4.347-1.308c-1.297-0.804-2.259-2.028-2.983-3.371
	c-0.703-1.302-1.178-2.763-1.13-4.347c0.047-1.584,0.64-2.994,1.417-4.253c0.805-1.296,1.782-2.53,3.125-3.253
	c1.302-0.701,2.855-0.994,4.441-0.946c1.584,0.048,2.99,0.637,4.247,1.414c1.299,0.805,2.48,1.806,3.204,3.148
	C633.738,305.143,634.097,306.668,634.05,308.253z"/>
<path class="st0" d="M625.688,334.31c-0.033,1.093-0.558,2.052-1.215,2.915c-0.679,0.891-1.538,1.666-2.678,2.16
	c-1.105,0.478-2.376,0.788-3.726,0.748c-1.351-0.041-2.635-0.381-3.71-0.924c-1.109-0.561-1.935-1.41-2.56-2.341
	c-0.605-0.9-1.017-1.911-0.983-3.003c0.032-1.094,0.53-2.063,1.188-2.928c0.678-0.891,1.506-1.736,2.646-2.229
	c1.106-0.478,2.43-0.671,3.78-0.631s2.553,0.454,3.627,0.996c1.11,0.562,2.122,1.257,2.746,2.188
	C625.407,332.162,625.72,333.217,625.688,334.31z"/>
<path class="st0" d="M625.461,375.321c-0.033,1.093-0.558,2.052-1.215,2.914c-0.679,0.892-1.538,1.667-2.678,2.16
	c-1.106,0.479-2.376,0.789-3.726,0.748c-1.351-0.04-2.634-0.38-3.71-0.924c-1.109-0.561-1.935-1.409-2.56-2.34
	c-0.605-0.9-1.017-1.911-0.983-3.004c0.032-1.092,0.53-2.062,1.188-2.928c0.678-0.89,1.506-1.736,2.646-2.229
	c1.106-0.478,2.43-0.671,3.78-0.631s2.553,0.453,3.627,0.995c1.11,0.562,2.122,1.258,2.746,2.189
	C625.182,373.174,625.493,374.229,625.461,375.321z"/>
<path class="st1" d="M315.643,500c0,2.762-2.347,4.633-5.108,4.633c-39.165,0-39.165,0.556-78.331,0.556
	c-39.167,0-39.167-0.315-78.334-0.315c-39.168,0-39.168,0.428-78.335,0.428c-2.761,0-4.916-2.539-4.916-5.301
	c0-37.75-0.261-37.75-0.261-75.5s0.204-37.75,0.204-75.5c0-2.762,2.212-4.953,4.973-4.953c39.166,0,39.166,0.156,78.331,0.156
	c39.167,0,39.167-0.681,78.335-0.681c39.167,0,39.167,0.161,78.334,0.161c2.762,0,4.878,2.555,4.878,5.316
	c0,37.75,0.069,37.75,0.105,75.5S315.643,462.25,315.643,500z"/>
<g>
	<path d="M70.999,369.238c-1-0.021-1.013-2.568-0.013-2.598c40.649-1.166,40.676,0.208,81.341,0.041
		c40.667-0.166,40.669,0.308,81.336,0.141c40.667-0.167,40.683-2.114,81.342-1.281c1,0.021,0.991,2.194-0.008,2.223
		c-40.649,1.166-40.659,0.442-81.324,0.609c-40.667,0.167-40.667,0-81.331,0.579C111.668,369.531,111.658,370.071,70.999,369.238z"
		/>
</g>
<g>
	<path d="M70.999,474.238c-1-0.021-1.013-2.568-0.013-2.598c40.649-1.166,40.676,0.208,81.341,0.041
		c40.667-0.166,40.669,0.308,81.336,0.141c40.667-0.167,40.683-2.114,81.342-1.281c1,0.021,0.991,2.194-0.008,2.223
		c-40.649,1.166-40.659,0.442-81.324,0.609c-40.667,0.167-40.667,0-81.331,0.579C111.668,474.531,111.658,475.071,70.999,474.238z"
		/>
</g>
<polygon class="st5" points="221,526 165,526 169,509 217,509 "/>
<path class="st5" d="M232.895,530h-79.79c-3.018,0,1.354-4,4.372-4h71.045C231.541,526,235.913,530,232.895,530z"/>
</svg>
