<?xml version="1.0" encoding="UTF-8" standalone="no"?><!DOCTYPE svg PUBLIC "-//W3C//DTD SVG 1.1//EN" "http://www.w3.org/Graphics/SVG/1.1/DTD/svg11.dtd"><svg width="100%" height="100%" viewBox="0 0 800 600" version="1.1" xmlns="http://www.w3.org/2000/svg" xmlns:xlink="http://www.w3.org/1999/xlink" xml:space="preserve" xmlns:serif="http://www.serif.com/" style="fill-rule:evenodd;clip-rule:evenodd;stroke-miterlimit:10;"><g><path d="M240.5,514.5c0,0 -5.553,5.219 -13.523,5.525c-7.972,0.307 -14.477,-5.525 -14.477,-5.525l-2,-19l32,0l-2,19Z" style="fill:#fff;fill-rule:nonzero;stroke:#000;stroke-width:1px;"/><g><path d="M305.037,422.11c0,-3.941 -3.834,-13.445 -11.295,-23.898c-4.611,-6.463 -10.434,-13.458 -18.299,-19.277c-6.656,-4.924 -14.586,-9.057 -23.775,-11.937c-7.814,-2.449 -16.548,-4.062 -26.32,-4.062c-9.775,0 -18.454,1.792 -26.271,4.235c-9.198,2.875 -17.345,6.611 -24.005,11.531c-7.874,5.815 -13.488,13.06 -18.098,19.526c-7.432,10.425 -11.564,19.876 -11.564,23.882c0,6.696 3.146,15.035 7.591,24.028c3.453,6.988 7.976,14.269 13.692,21.194c5.229,6.335 11.259,12.366 18.086,17.634c6.641,5.123 13.637,10.056 21.527,13.264c8.097,5.306 14.583,7.025 19.826,7.107c5.517,0.084 12.25,-1.896 19.945,-7.927c7.396,-3.37 14.295,-8.163 20.834,-13.442c6.502,-5.249 12.879,-10.817 18.047,-17.101c5.55,-6.746 9.979,-14.036 13.409,-20.958c4.221,-8.516 6.67,-16.795 6.67,-23.799Z" style="fill:#fff;fill-rule:nonzero;"/><path d="M305.037,422.11c0,-3.941 -3.834,-13.445 -11.295,-23.898c-4.611,-6.463 -10.434,-13.458 -18.299,-19.277c-6.656,-4.924 -14.586,-9.057 -23.775,-11.937c-7.814,-2.449 -16.548,-4.062 -26.32,-4.062c-9.775,0 -18.454,1.792 -26.271,4.235c-9.198,2.875 -17.345,6.611 -24.005,11.531c-7.874,5.815 -13.488,13.06 -18.098,19.526c-7.432,10.425 -11.564,19.876 -11.564,23.882c0,6.696 3.146,15.035 7.591,24.028c3.453,6.988 7.976,14.269 13.692,21.194c5.229,6.335 11.259,12.366 18.086,17.634c6.641,5.123 13.637,10.056 21.527,13.264c8.097,5.306 14.583,7.025 19.826,7.107c5.517,0.084 12.25,-1.896 19.945,-7.927c7.396,-3.37 14.295,-8.163 20.834,-13.442c6.502,-5.249 12.879,-10.817 18.047,-17.101c5.55,-6.746 9.979,-14.036 13.409,-20.958c4.221,-8.516 6.67,-16.795 6.67,-23.799Z" style="fill:#fff;fill-rule:nonzero;stroke:#000;stroke-width:1px;"/></g><path d="M307.733,394.488c-2.885,-6.482 -7.401,-10.226 -11.625,-13.281c-5.867,-4.244 -11.454,-7.59 -16.028,-7.899c0.053,-0.632 0.762,0.004 0.77,-0.628c0.081,-5.999 -2.355,-10.646 -2.982,-14.391c-1.461,-8.737 -2.88,-12.062 -4.848,-12.605c1.875,5.23 2.189,13.385 -0.857,24.807c-2.215,-2.842 -4.722,-4.869 -9.421,-8.131c-3.511,-2.436 -7.333,-5.278 -12.022,-7.365c-3.954,-1.76 -8.048,-4.387 -12.833,-5.765c-4.232,-1.218 -8.98,-2.075 -13.897,-2.534c-4.394,-0.412 -9.144,0.441 -14.075,0.639c-4.455,0.178 -8.871,1.864 -13.699,2.706c-8.867,1.544 -17.452,1.888 -24.146,5.306c-7.887,4.025 -13.654,10.479 -18.946,15.963c-6.201,6.43 -9.404,14.125 -12.718,20.719c-4.877,9.703 -8.024,17.721 -8.601,22.472c2.204,1.216 5.568,2.245 7.999,3.325c-1.324,6.021 -2.785,11.084 -2.751,14.258c4.155,1.629 8.04,3.536 12.927,4.558c4.442,0.929 9.055,2.613 13.951,3.054c4.478,0.403 9.33,0.789 14.224,0.502c4.485,-0.264 9.018,-2.533 13.866,-3.168c7.778,-1.02 14.371,-2.436 20.919,-4.479c-8.824,4.393 -16.578,8.168 -24.65,9.778c1.005,2.248 5.505,2.96 6.335,4.338c8.502,-1.325 16.081,-4.742 24.515,-8.917c6.89,-3.411 14.41,-7.27 22.389,-13.45c6.458,-5.003 12.084,-9.821 17.225,-14.363c6.036,-5.333 11.618,-10.051 15.218,-16.263c0.282,2.374 0.958,1.813 1.617,4.395c2.27,8.893 5.511,16.322 9.729,21.404c7.974,9.605 17.521,10.582 19.471,10.088c1.938,-0.491 5.143,-5.812 5.533,-16.151c0.21,-5.586 0.53,-11.92 -2.589,-18.922Z" style="fill-rule:nonzero;"/><path d="M217.731,457l-51.221,0l-2.134,-25l57.624,0l-4.269,25Zm-46.821,-3.458l42.553,1.458l2.134,-19l-45.597,0l0.91,17.542Z" style="fill-rule:nonzero;"/><path d="M229,432l59.839,0l-2.216,25l-53.19,0l-4.433,-25Zm56.515,4l-49.866,0l2.217,19l44.51,-1.458l3.139,-17.542Z" style="fill-rule:nonzero;"/><path d="M232,442c-3.899,-1.268 -8.101,-1.268 -12,0c-0.412,-1.269 -0.824,-2.536 -1.236,-3.805c4.703,-1.527 9.769,-1.527 14.472,0c-0.412,1.269 -0.824,2.537 -1.236,3.805Z" style="fill-rule:nonzero;"/><path d="M213.927,484.232c-0.335,-0.556 -0.722,-1.047 -1.145,-1.468c9.144,-0.383 18.261,-2.427 26.901,-6.088c0.119,1.482 0.142,2.96 0.071,4.423c-8.45,2.924 -17.265,3.968 -25.827,3.133Z" style="fill-rule:nonzero;"/><path d="M225.084,469.07c-2.686,0 -5.373,-0.707 -7.822,-2.12c-0.21,-0.122 -0.297,-0.421 -0.194,-0.669c0.103,-0.248 0.357,-0.35 0.568,-0.229c4.664,2.693 10.233,2.693 14.897,0c0.211,-0.121 0.465,-0.02 0.568,0.229c0.103,0.248 0.016,0.547 -0.194,0.669c-2.45,1.413 -5.136,2.12 -7.823,2.12Z" style="fill-rule:nonzero;"/><path d="M216.654,468.057c-1.1,0.196 -2.078,-0.119 -2.182,-0.702c-0.103,-0.583 0.706,-1.215 1.806,-1.411c1.101,-0.196 2.078,0.119 2.182,0.702c0.104,0.583 -0.705,1.215 -1.806,1.411Z"/><path d="M233.578,465.954c1.116,0.066 1.993,0.599 1.958,1.19c-0.035,0.591 -0.969,1.018 -2.084,0.952c-1.116,-0.066 -1.994,-0.599 -1.959,-1.19c0.035,-0.591 0.969,-1.018 2.085,-0.952Z"/><path d="M211.498,467.492c-0.16,0 -0.317,-0.076 -0.414,-0.219c-0.939,-1.381 -0.939,-3.166 0,-4.547c0.156,-0.229 0.466,-0.286 0.695,-0.132c0.228,0.155 0.288,0.466 0.132,0.694c-0.707,1.039 -0.707,2.383 0,3.422c0.155,0.229 0.096,0.539 -0.132,0.694c-0.086,0.06 -0.184,0.088 -0.281,0.088Z" style="fill-rule:nonzero;"/><path d="M238.879,462.508c0.16,0 0.318,0.076 0.414,0.219c0.939,1.381 0.939,3.166 0,4.547c-0.155,0.229 -0.466,0.286 -0.694,0.132c-0.228,-0.155 -0.288,-0.466 -0.132,-0.694c0.707,-1.039 0.707,-2.383 0,-3.422c-0.156,-0.229 -0.096,-0.539 0.132,-0.694c0.086,-0.06 0.184,-0.088 0.28,-0.088Z" style="fill-rule:nonzero;"/><path d="M218.921,495c0,-0.101 0.076,-0.198 0.219,-0.259c4.419,-1.876 10.128,-1.876 14.547,0c0.229,0.097 0.286,0.291 0.132,0.435c-0.154,0.143 -0.466,0.18 -0.694,0.082c-4.076,-1.731 -9.346,-1.731 -13.422,0c-0.229,0.098 -0.54,0.061 -0.694,-0.082c-0.06,-0.055 -0.088,-0.115 -0.088,-0.176Z" style="fill-rule:nonzero;"/></g><g><path d="M587.5,514.5c0,0 -5.553,5.219 -13.523,5.525c-7.973,0.307 -14.477,-5.525 -14.477,-5.525l-2,-19l32,0l-2,19Z" style="fill:#fff;fill-rule:nonzero;stroke:#000;stroke-width:1px;"/><g><path d="M652.037,422.11c0,-3.941 -3.834,-13.445 -11.295,-23.898c-4.611,-6.463 -10.434,-13.458 -18.299,-19.277c-6.656,-4.924 -14.586,-9.057 -23.775,-11.937c-7.814,-2.449 -16.548,-4.062 -26.32,-4.062c-9.775,0 -18.454,1.792 -26.271,4.235c-9.198,2.875 -17.345,6.611 -24.005,11.531c-7.874,5.815 -13.487,13.06 -18.099,19.526c-7.432,10.425 -11.564,19.876 -11.564,23.882c0,6.696 3.146,15.035 7.592,24.028c3.453,6.988 7.976,14.269 13.691,21.194c5.229,6.335 11.26,12.366 18.086,17.634c6.641,5.123 13.638,10.056 21.527,13.264c8.098,5.306 14.584,7.025 19.826,7.107c5.517,0.084 12.25,-1.896 19.945,-7.927c7.396,-3.37 14.295,-8.163 20.834,-13.442c6.502,-5.249 12.879,-10.817 18.047,-17.101c5.55,-6.746 9.979,-14.036 13.409,-20.958c4.222,-8.516 6.671,-16.795 6.671,-23.799Z" style="fill:#fff;fill-rule:nonzero;"/><path d="M652.037,422.11c0,-3.941 -3.834,-13.445 -11.295,-23.898c-4.611,-6.463 -10.434,-13.458 -18.299,-19.277c-6.656,-4.924 -14.586,-9.057 -23.775,-11.937c-7.814,-2.449 -16.548,-4.062 -26.32,-4.062c-9.775,0 -18.454,1.792 -26.271,4.235c-9.198,2.875 -17.345,6.611 -24.005,11.531c-7.874,5.815 -13.487,13.06 -18.099,19.526c-7.432,10.425 -11.564,19.876 -11.564,23.882c0,6.696 3.146,15.035 7.592,24.028c3.453,6.988 7.976,14.269 13.691,21.194c5.229,6.335 11.26,12.366 18.086,17.634c6.641,5.123 13.638,10.056 21.527,13.264c8.098,5.306 14.584,7.025 19.826,7.107c5.517,0.084 12.25,-1.896 19.945,-7.927c7.396,-3.37 14.295,-8.163 20.834,-13.442c6.502,-5.249 12.879,-10.817 18.047,-17.101c5.55,-6.746 9.979,-14.036 13.409,-20.958c4.222,-8.516 6.671,-16.795 6.671,-23.799Z" style="fill:#fff;fill-rule:nonzero;stroke:#000;stroke-width:1px;"/></g><path d="M490.534,394.762c2.901,-6.519 7.442,-10.283 11.69,-13.355c5.9,-4.269 11.519,-7.632 16.117,-7.943c-0.053,-0.636 -0.766,0.004 -0.773,-0.632c-0.082,-6.032 2.368,-10.706 2.998,-14.471c1.47,-8.787 2.896,-12.13 4.876,-12.677c-1.885,5.26 -2.202,13.459 0.861,24.945c2.228,-2.857 4.749,-4.896 9.474,-8.176c3.53,-2.449 7.374,-5.309 12.09,-7.406c3.976,-1.77 8.092,-4.412 12.903,-5.797c4.256,-1.225 9.031,-2.087 13.976,-2.549c4.419,-0.414 9.195,0.443 14.154,0.642c4.479,0.179 8.921,1.875 13.775,2.722c8.918,1.553 17.55,1.898 24.282,5.334c7.931,4.049 13.73,10.538 19.052,16.054c6.236,6.465 9.457,14.204 12.789,20.835c4.904,9.758 8.069,17.818 8.648,22.597c-2.215,1.224 -5.6,2.259 -8.043,3.345c1.331,6.055 2.801,11.146 2.767,14.336c-4.179,1.639 -8.085,3.557 -13,4.584c-4.467,0.935 -9.104,2.629 -14.028,3.071c-4.502,0.405 -9.382,0.794 -14.304,0.505c-4.51,-0.265 -9.067,-2.547 -13.943,-3.187c-7.821,-1.024 -14.451,-2.448 -21.036,-4.503c8.873,4.416 16.671,8.213 24.787,9.833c-1.01,2.261 -5.535,2.977 -6.369,4.362c-8.551,-1.332 -16.172,-4.77 -24.653,-8.968c-6.929,-3.43 -14.489,-7.31 -22.515,-13.524c-6.494,-5.031 -12.15,-9.877 -17.321,-14.444c-6.069,-5.363 -11.683,-10.106 -15.303,-16.353c-0.284,2.387 -0.964,1.822 -1.626,4.419c-2.282,8.942 -5.542,16.413 -9.784,21.522c-8.019,9.66 -17.619,10.643 -19.58,10.145c-1.949,-0.493 -5.171,-5.845 -5.564,-16.24c-0.211,-5.616 -0.533,-11.985 2.603,-19.026Z" style="fill-rule:nonzero;"/><path d="M564.731,457l-51.221,0l-2.135,-25l57.625,0l-4.269,25Zm-46.821,-3.458l42.553,1.458l2.135,-19l-33.3,0l-12.298,0l0.91,17.542Z" style="fill-rule:nonzero;"/><path d="M576,432l59.839,0l-2.216,25l-53.19,0l-4.433,-25Zm56.515,4l-49.866,0l2.217,19l44.51,-1.458l3.139,-17.542Z" style="fill-rule:nonzero;"/><path d="M579,442c-3.899,-1.268 -8.101,-1.268 -12,0c-0.412,-1.269 -0.824,-2.536 -1.236,-3.805c4.703,-1.527 9.77,-1.527 14.473,0c-0.413,1.269 -0.825,2.537 -1.237,3.805Z" style="fill-rule:nonzero;"/><path d="M560.928,484.232c-0.336,-0.556 -0.723,-1.047 -1.145,-1.468c9.144,-0.383 18.26,-2.427 26.9,-6.088c0.119,1.482 0.142,2.96 0.071,4.423c-8.45,2.924 -17.265,3.968 -25.826,3.133Z" style="fill-rule:nonzero;"/><path d="M571.958,468.07c-2.062,0 -4.123,-0.707 -6.003,-2.12c-0.161,-0.122 -0.229,-0.421 -0.148,-0.669c0.079,-0.248 0.273,-0.35 0.436,-0.229c3.58,2.693 7.854,2.693 11.434,0c0.161,-0.121 0.356,-0.02 0.436,0.229c0.079,0.248 0.013,0.547 -0.148,0.669c-1.883,1.413 -3.944,2.12 -6.007,2.12Z" style="fill-rule:nonzero;"/><path d="M565.921,494.036c0,-0.05 0.076,-0.099 0.219,-0.129c4.419,-0.938 10.128,-0.938 14.547,0c0.229,0.048 0.286,0.146 0.132,0.217c-0.154,0.071 -0.466,0.09 -0.694,0.041c-4.076,-0.865 -9.346,-0.865 -13.422,0c-0.229,0.049 -0.54,0.03 -0.694,-0.041c-0.06,-0.027 -0.088,-0.058 -0.088,-0.088Z" style="fill-rule:nonzero;"/></g><g><path d="M460.474,137.163c3.861,-0.828 7.057,-0.15 9.846,0.622c3.875,1.072 7.254,2.307 8.939,4.068c0.264,-0.216 -0.26,-0.308 0.019,-0.506c2.644,-1.885 7.968,-1.91 3.915,2.851c2.014,0.022 3.765,0.414 6.806,1.315c2.272,0.674 4.831,1.348 7.347,2.607c2.122,1.062 4.676,1.914 6.907,3.43c1.974,1.343 3.963,3.007 5.83,4.86c1.67,1.657 2.899,3.848 4.479,5.911c1.427,1.861 2.171,4.176 3.43,6.395c2.312,4.076 5.064,7.666 5.808,11.438c0.877,4.444 -0.045,8.776 -0.696,12.617c-0.765,4.5 -3.106,8.174 -4.92,11.554c-2.669,4.973 -5.173,8.724 -7.095,10.423c-1.285,-0.519 -2.883,-1.566 -4.186,-2.221c-2.232,2.395 -3.992,4.549 -5.417,5.516c-2.13,-1.184 -4.294,-2.172 -6.402,-3.842c-1.916,-1.517 -4.226,-2.869 -6.078,-4.72c-1.695,-1.693 -3.509,-3.544 -5.036,-5.618c-1.4,-1.903 -1.924,-4.443 -3.282,-6.606c-2.177,-3.473 -3.776,-6.585 -5.082,-9.873c1.028,4.937 1.973,9.249 3.986,13.022c-1.342,0.285 -3.181,-1.321 -4.075,-1.233c-2.287,-3.86 -3.329,-7.99 -4.324,-12.702c-0.813,-3.849 -1.641,-8.092 -1.588,-13.238c0.042,-4.164 0.283,-7.934 0.566,-11.422c0.333,-4.096 0.544,-7.816 2.09,-11.195c-1.152,0.618 -1.131,0.171 -2.503,0.7c-4.727,1.822 -9.131,2.798 -12.819,2.654c-6.975,-0.273 -10.64,-3.848 -11.078,-4.792c-0.438,-0.938 0.846,-3.881 5.316,-7.229c2.413,-1.808 5.125,-3.891 9.297,-4.786Z" style="fill-rule:nonzero;"/><path d="M411.946,240.5c0,0 -4.313,5.219 -10.505,5.525c-6.192,0.307 -11.244,-5.525 -11.244,-5.525l-1.555,-19l24.858,0l-1.554,19Z" style="fill:#fff;fill-rule:nonzero;stroke:#000;stroke-width:1px;"/><path d="M471.035,155.11c0,-3.941 -3.473,-13.445 -10.231,-23.898c-4.18,-6.463 -9.453,-13.458 -16.58,-19.277c-6.029,-4.924 -13.214,-9.057 -21.54,-11.937c-7.081,-2.449 -14.994,-4.062 -23.848,-4.062c-8.856,0 -16.721,1.792 -23.803,4.235c-8.334,2.875 -15.715,6.611 -21.749,11.531c-7.134,5.815 -12.22,13.06 -16.397,19.526c-6.733,10.425 -10.478,19.876 -10.478,23.882c0,6.696 2.852,13.035 6.878,22.028c3.128,6.988 7.227,14.269 12.406,21.194c4.736,6.335 7.9,11.902 14.086,17.17c6.017,5.123 17.095,11.035 23.615,13.728c9.007,3.72 12.69,4.951 16.888,5.028c3.756,0.069 6.662,-1.514 15.521,-5.848c6.888,-3.369 16.979,-8.358 22.904,-13.638c5.892,-5.249 9.454,-10.622 14.136,-16.905c5.029,-6.746 9.041,-14.036 12.149,-20.958c3.825,-8.516 6.043,-14.795 6.043,-21.799Z" style="fill:#fff;fill-rule:nonzero;stroke:#000;stroke-width:1px;"/><path d="M390.109,213.599c-0.17,-0.591 -0.391,-1.126 -0.648,-1.596c7.153,0.796 14.557,-0.052 21.854,-2.556c-0.149,1.478 -0.373,2.938 -0.666,4.372c-7.031,1.801 -14.037,1.702 -20.54,-0.22Z" style="fill-rule:nonzero;"/><path d="M398.958,199.07c-2.062,0 -4.123,-0.707 -6.003,-2.12c-0.161,-0.122 -0.229,-0.421 -0.148,-0.669c0.079,-0.248 0.273,-0.35 0.436,-0.229c3.58,2.693 7.854,2.693 11.434,0c0.161,-0.121 0.356,-0.02 0.436,0.229c0.079,0.248 0.013,0.547 -0.148,0.669c-1.883,1.413 -3.944,2.12 -6.007,2.12Z" style="fill-rule:nonzero;"/><path d="M401.843,229.221c0.05,-0.001 0.099,0.022 0.131,0.07c0.983,1.452 1.452,2.911 0.756,4.472c-0.037,0.083 -1.6,0.412 -1.672,0.362c-0.073,-0.049 -1.566,-0.301 -1.477,-0.307c1.561,-0.111 3.048,-2.991 2.142,-4.331c-0.052,-0.075 -0.036,-0.181 0.033,-0.234c0.026,-0.021 0.056,-0.031 0.087,-0.032Z" style="fill-rule:nonzero;"/><path d="M480.824,119.849c-2.788,-6.264 -7.152,-9.882 -11.235,-12.835c-5.67,-4.102 -11.069,-7.334 -15.489,-7.634c0.051,-0.61 0.965,-0.037 0.744,-0.606c-1.201,-3.099 -5.822,-4.832 -8.396,-2.116c2.396,-2.528 -4.563,-4.706 -9.104,-7.857c-3.393,-2.354 -7.087,-5.102 -11.618,-7.118c-3.821,-1.7 -7.777,-4.24 -12.401,-5.571c-4.09,-1.177 -8.679,-2.005 -13.431,-2.449c-4.247,-0.397 -8.837,0.427 -13.603,0.617c-4.305,0.172 -8.573,1.802 -13.239,2.615c-8.569,1.492 -16.865,1.824 -23.335,5.127c-7.623,3.891 -13.195,10.127 -18.31,15.428c-5.993,6.213 -9.089,13.65 -12.292,20.022c-4.713,9.378 -7.754,17.125 -8.311,21.717c2.129,1.176 5.381,2.17 7.73,3.214c-1.28,5.819 -2.691,10.712 -2.66,13.778c4.016,1.574 7.771,3.418 12.494,4.405c4.293,0.897 8.75,2.525 13.481,2.951c4.327,0.39 9.017,0.763 13.746,0.485c4.335,-0.255 8.715,-2.448 13.4,-3.062c7.517,-0.984 13.888,-2.354 20.216,-4.327c-8.527,4.244 -16.021,7.893 -23.821,9.449c0.972,2.173 5.319,2.86 6.122,4.192c8.217,-1.28 15.541,-4.583 23.691,-8.618c6.659,-3.296 13.926,-7.024 21.638,-12.998c6.241,-4.835 11.37,-7.54 16.339,-11.93c5.833,-5.154 6.909,0 9.091,-3.272c-1.281,1.922 2.272,0.414 2.909,2.909c2.193,8.594 9.091,10.546 12.364,12.363c10.548,5.857 18.548,5.491 20.433,5.014c1.873,-0.475 4.97,-5.617 5.348,-15.608c0.204,-5.397 0.513,-11.518 -2.501,-18.285Z" style="fill-rule:nonzero;"/><path d="M465.793,155.979c0,0 -14.949,-2.182 -31.47,-3.229c-16.521,-1.047 -27.728,2.578 -27.728,2.578c-3.38,-0.145 -6.232,2.365 -6.368,5.518l1.566,6.212c-1.499,-0.365 -3.018,-0.383 -4.52,-0.068l1.517,-5.088c0,-3.154 -2.743,-5.784 -6.127,-5.784c0,0 -11.041,-4.102 -27.591,-3.761c-16.55,0.339 -31.58,1.88 -31.58,1.88c-3.383,0 -6.127,2.63 -6.127,5.785l7.709,32.809c0,3.156 2.741,5.603 6.125,5.603c0,0 12.706,1.903 22.336,1.88c9.629,-0.022 19.906,-1.88 19.906,-1.88c3.383,0 6.126,-2.446 6.126,-5.603l6.062,-20.325c2.472,-1.15 5.079,-1.137 7.548,0.041l4.941,19.595c-0.134,3.152 2.501,5.714 5.881,5.858c0,0 10.189,2.295 19.809,2.729c9.62,0.434 22.396,-0.924 22.396,-0.924c3.38,0.146 6.226,-2.182 6.359,-5.335l9.104,-32.449c0.136,-3.152 -2.494,-5.896 -5.874,-6.042Zm-79.06,35.167c0,2.846 -2.44,5.051 -5.451,5.051c0,0 -8.939,1.677 -17.509,1.697c-8.568,0.02 -19.874,-1.697 -19.874,-1.697c-3.01,0 -5.451,-2.205 -5.451,-5.051l-5.879,-26.655c0,-2.847 5.363,-7.333 8.373,-7.333c0,0 9.577,-2.39 24.304,-2.695c14.727,-0.307 24.448,3.576 24.448,3.576c3.011,0 5.453,2.37 5.453,5.216l-8.414,27.891Zm72.533,1.497c-0.122,2.842 -2.655,4.941 -5.663,4.813c0,0 -11.37,1.23 -19.929,0.845c-8.561,-0.387 -17.42,-2.443 -17.42,-2.443c-3.007,-0.129 -5.353,-2.437 -5.23,-5.28l-7.213,-28.225c0.122,-2.844 2.662,-5.107 5.67,-4.979c0,0 9.879,-3.464 24.58,-2.528c14.7,0.937 24.166,3.732 24.166,3.732c3.008,0.129 8.174,4.842 8.052,7.685l-7.013,26.38Z" style="fill-rule:nonzero;"/><path d="M335.972,133.515c-4.361,-0.37 -7.77,0.819 -10.72,2.056c-4.098,1.717 -7.627,3.544 -9.221,5.711c-0.32,-0.201 0.24,-0.374 -0.094,-0.553c-3.178,-1.699 0.62,1.09 -1.574,0.363c-5.121,-1.696 -2.731,0.271 -3.636,1.09c3.378,0.523 -3.819,-2.438 1.328,2.221c-2.21,0.306 -4.073,0.98 -7.281,2.394c-2.396,1.056 -5.106,2.152 -7.685,3.886c-2.174,1.461 -4.855,2.751 -7.084,4.727c-1.971,1.748 -3.911,3.852 -5.691,6.146c-1.592,2.052 -2.619,4.627 -4.053,7.11c-1.295,2.243 -1.773,4.886 -2.831,7.496c-1.944,4.795 -4.44,9.12 -4.706,13.362c-0.312,4.998 1.333,9.622 2.609,13.746c1.496,4.832 4.605,8.539 7.092,11.994c3.658,5.085 6.955,8.852 9.312,10.449c1.337,-0.749 2.938,-2.123 4.272,-3.022c2.802,2.318 5.048,4.438 6.753,5.299c2.166,-1.597 4.397,-2.983 6.469,-5.108c1.882,-1.932 4.222,-3.738 5.985,-6.027c1.612,-2.094 3.333,-4.379 4.708,-6.868c1.26,-2.284 1.462,-5.143 2.637,-7.706c1.884,-4.114 3.186,-7.753 4.139,-11.544c-0.41,5.562 -0.814,10.425 -2.475,14.846c1.515,0.127 3.299,-1.892 4.294,-1.92c1.947,-4.556 2.488,-9.233 2.892,-14.543c0.33,-4.337 0.617,-9.107 -0.191,-14.748c-0.655,-4.563 -1.472,-8.667 -2.291,-12.455c-0.965,-4.448 -1.74,-8.502 -3.933,-11.993c1.355,0.517 1.268,0.028 2.851,0.419c5.457,1.34 10.435,1.797 14.465,1.125c7.617,-1.273 11.119,-5.706 11.463,-6.803c0.344,-1.092 -1.497,-4.141 -6.895,-7.191c-2.914,-1.651 -6.196,-3.559 -10.908,-3.959Z" style="fill-rule:nonzero;"/><path d="M437.848,206.58l-0.79,-0.799l-1.106,0.199l0.515,-0.998l-0.53,-0.99l1.108,0.182l0.777,-0.811l0.171,1.11l1.011,0.49l-1.003,0.504l-0.153,1.113Z" style="fill-rule:nonzero;"/><g><path d="M438.655,186.788c0,0 -2.04,-1.11 -4.084,-1.063c-0.998,0.419 -3.562,3.514 -8.377,3.514c-4.817,0 -8.168,-1.712 -8.168,-1.712c0,0 2.671,2.636 8.168,2.636c2.88,0 3.873,-0.646 4.977,-0.601c1.1,0.045 3.14,0.093 3.14,0.093l-1.414,-0.971c0,0 2.044,-0.508 4.396,0.277c-0.625,-0.971 -2.617,-1.756 -2.617,-1.756c0,0 2.15,-0.37 3.979,-0.417Z" style="fill-rule:nonzero;"/><path d="M414.959,174.315c-0.121,1.659 -0.031,3.329 0.301,4.957c0.345,1.624 0.946,3.193 1.797,4.61c0.854,1.411 1.973,2.672 3.335,3.583c1.353,0.911 2.953,1.468 4.563,1.506c1.629,0.065 3.239,-0.355 4.658,-1.139c1.419,-0.785 2.644,-1.901 3.639,-3.187c1.997,-2.579 3.079,-5.818 3.306,-9.046c0.212,-3.259 -0.43,-6.583 -2.086,-9.35c-1.597,-2.754 -4.409,-4.901 -7.569,-5.037c-3.194,-0.226 -6.263,1.542 -8.334,4.04c-1.047,1.256 -1.889,2.696 -2.495,4.234c-0.591,1.545 -0.958,3.176 -1.115,4.829Zm-0.1,-0.007c0.221,-3.324 1.281,-6.642 3.288,-9.387c1.009,-1.361 2.266,-2.574 3.771,-3.438c1.501,-0.851 3.268,-1.327 5.012,-1.271c1.784,0.063 3.496,0.69 4.94,1.684c1.445,1 2.591,2.362 3.456,3.852c1.722,3.003 2.312,6.532 2.03,9.896c-0.29,3.397 -1.464,6.728 -3.594,9.403c-1.061,1.329 -2.364,2.484 -3.876,3.291c-1.506,0.806 -3.241,1.227 -4.944,1.133c-1.726,-0.091 -3.376,-0.729 -4.753,-1.714c-1.385,-0.985 -2.487,-2.312 -3.314,-3.768c-1.652,-2.932 -2.253,-6.362 -2.016,-9.681Z" style="fill-rule:nonzero;"/><path d="M418.925,174.862c-0.278,4.475 2.364,8.241 5.899,8.411c3.538,0.172 6.631,-3.313 6.911,-7.789c0.279,-4.475 -2.363,-8.24 -5.901,-8.41c-3.532,-0.172 -6.629,3.315 -6.909,7.788Z" style="fill-rule:nonzero;"/><ellipse cx="428.602" cy="170.297" rx="3.614" ry="3.098" style="fill:#fff;"/><path d="M424.048,160.675c0,0 3.655,-2.462 7.195,-1.072c7.402,2.905 9.367,1.613 10.891,-0.673c-1.21,3.182 -6.319,5.064 -6.319,5.064c0,0 4.571,2.241 11.165,-2.949c-3.759,5.283 -9.597,5.549 -9.597,5.549c0,0 6.096,3.092 13.67,-2.868c-4.303,4.661 -7.363,5.548 -11.592,6.853c-1.667,0.514 -1.326,5.801 -2.742,8.698c1.955,-5.931 -0.876,-19.007 -12.671,-18.602Z" style="fill-rule:nonzero;"/></g><g><path d="M361.252,187.788c0,0 2.04,-1.11 4.084,-1.063c0.998,0.419 3.562,3.514 8.377,3.514c4.817,0 8.168,-1.712 8.168,-1.712c0,0 -2.671,2.636 -8.168,2.636c-2.88,0 -3.873,-0.646 -4.977,-0.601c-1.1,0.045 -3.14,0.093 -3.14,0.093l1.414,-0.971c0,0 -2.044,-0.508 -4.396,0.277c0.625,-0.971 2.617,-1.756 2.617,-1.756c0,0 -2.15,-0.37 -3.979,-0.417Z" style="fill-rule:nonzero;"/><path d="M385.048,175.308c0.237,3.319 -0.363,6.749 -2.016,9.68c-0.827,1.457 -1.93,2.783 -3.314,3.768c-1.377,0.985 -3.027,1.623 -4.752,1.714c-1.703,0.094 -3.438,-0.327 -4.944,-1.133c-1.512,-0.807 -2.815,-1.961 -3.876,-3.291c-2.13,-2.675 -3.304,-6.006 -3.594,-9.403c-0.281,-3.364 0.309,-6.894 2.031,-9.896c0.864,-1.489 2.01,-2.851 3.456,-3.852c1.444,-0.994 3.156,-1.621 4.941,-1.684c1.743,-0.056 3.51,0.42 5.011,1.271c1.505,0.864 2.763,2.077 3.771,3.438c2.005,2.746 3.065,6.064 3.286,9.388Zm-0.1,0.007c-0.157,-1.653 -0.524,-3.284 -1.114,-4.829c-0.607,-1.538 -1.449,-2.978 -2.496,-4.234c-2.071,-2.499 -5.14,-4.266 -8.334,-4.04c-3.16,0.136 -5.972,2.283 -7.569,5.037c-1.656,2.767 -2.297,6.091 -2.086,9.35c0.227,3.229 1.309,6.467 3.306,9.046c0.994,1.285 2.219,2.402 3.638,3.187c1.418,0.783 3.029,1.204 4.658,1.139c1.61,-0.038 3.211,-0.595 4.563,-1.506c1.362,-0.911 2.48,-2.172 3.335,-3.583c0.851,-1.417 1.452,-2.986 1.797,-4.61c0.333,-1.628 0.423,-3.298 0.302,-4.957Z" style="fill-rule:nonzero;"/><path d="M380.982,175.862c0.278,4.475 -2.364,8.241 -5.899,8.411c-3.538,0.172 -6.631,-3.313 -6.911,-7.789c-0.279,-4.475 2.363,-8.24 5.901,-8.41c3.532,-0.172 6.629,3.315 6.909,7.788Z" style="fill-rule:nonzero;"/><ellipse cx="371.306" cy="171.297" rx="3.614" ry="3.098" style="fill:#fff;"/><path d="M375.859,161.675c0,0 -3.655,-2.462 -7.195,-1.072c-7.402,2.905 -9.367,1.613 -10.891,-0.673c1.21,3.182 6.319,5.064 6.319,5.064c0,0 -4.571,2.241 -11.165,-2.949c3.759,5.283 9.597,5.549 9.597,5.549c0,0 -6.096,3.092 -13.67,-2.868c4.303,4.661 7.363,5.548 11.592,6.853c1.667,0.514 1.326,5.801 2.742,8.698c-1.955,-5.931 0.876,-19.007 12.671,-18.602Z" style="fill-rule:nonzero;"/></g></g></svg>