<svg clip-rule="evenodd" fill-rule="evenodd" stroke-linejoin="round" stroke-miterlimit="1.41421" viewBox="0 0 800 600" xmlns="http://www.w3.org/2000/svg"><path d="m402.606 357.692 180.158 180.158c-50.619 38.968-114.006 62.15-182.764 62.15-20.211 0-39.957-2.003-59.051-5.822v-253.383h44.76zm-143.246-322.702v530.02c-94.776-50.442-159.36-150.243-159.36-265.01s64.584-214.568 159.36-265.01zm380.741 85.208c37.608 50.119 59.899 112.378 59.899 179.802s-22.291 129.683-59.899 179.802l-175.723-175.723-3.81-4.348zm-299.152-114.376c19.094-3.819 38.84-5.822 59.051-5.822 68.758 0 132.145 23.182 182.764 62.15l-176.078 176.078-20.977 20.977h-44.76v-253.383z" fill="#65568b"/></svg>