<svg clip-rule="evenodd" fill-rule="evenodd" stroke-linejoin="round" stroke-miterlimit="1.41421" viewBox="0 0 500 300" xmlns="http://www.w3.org/2000/svg"><g fill-rule="nonzero"><g fill="#c92327"><path d="m144.508 141.417c18.391 6.7 36.982-3.964 55.375.687 1.265-1.49 2.359-2.737 3.622-4.08-19.716-5.616-39.46 8.561-59.177 2.945.058.149.12.299.18.448z"/><path d="m198.525 145.119c-17.117-3.561-34.328 6.247-51.445 2.687.097.233.194.466.291.699 15.855 4.518 31.697-2.458 47.477.965 1.164-1.434 2.512-3.027 3.676-4.351z"/><path d="m141.906 134.109c21.062 8.458 42.285-5.037 63.351.86 1.374-1.572 2.617-2.902 3.991-4.304-22.461-7.163-44.999 10.033-67.46 2.87.022.058.094.515.118.574z"/><path d="m182.362 123.789c-5.79-.371-9.238 3.575-16.8 3.647-.503.72-1.101 1.535-1.644 2.227 8.804 1.658 13.416-4.073 20.498-1.873-.721-1.423-1.345-2.681-2.055-4.001z"/><path d="m175.777 111.769c-.91 1.29-3.135 3.996-3.899 4.997 1.797.511 3.666-1.892 5.618-1.558-.783-1.415-1.113-2.199-1.719-3.439z"/><path d="m178.973 117.854c-3.096-.134-5.916 3.146-9.623 3.295-.801 1.065-1.236 1.621-1.891 2.414 4.742.641 8.923-3.407 13.256-2.225-.693-1.539-1.067-2.151-1.742-3.484z"/></g><g fill="#324fa2"><path d="m147.143 152.519c-2.116 3.02-13.33 18.228-13.33 18.228h24.396l8.494 17.484 13.027-17.614 23.749.128s-7.364-15.18-8.379-17.287c-13.56-3.742-26.484 3.016-47.957-.939z"/><path d="m231.538 157.949c0 4.798-.926 8.194-2.781 10.202-1.855 2.004-4.59 3.006-8.209 3.006-3.244 0-5.81-.99-7.698-2.966-1.89-1.977-2.835-4.59-2.835-7.836v-1.041h5.214c0 4.776 1.773 7.166 5.319 7.166 1.872 0 3.307-.525 4.305-1.578.999-1.051 1.498-3.278 1.498-6.682v-26.927h5.188l-.002 26.656z"/><path d="m252.003 171.159c-5.527 0-9.658-1.239-12.393-3.715-2.738-2.476-4.177-5.662-4.319-9.546h5.002c.265 2.925 1.481 5.088 3.647 6.485 2.164 1.398 4.78 2.1 7.847 2.1 2.908 0 5.246-.598 7.018-1.792 1.774-1.193 2.661-2.816 2.661-4.867 0-2.155-.919-3.726-2.754-4.703-1.836-.982-4.994-1.949-9.476-2.902-4.484-.953-7.701-2.279-9.654-3.971-1.951-1.694-2.928-3.948-2.928-6.767 0-3.17 1.27-5.774 3.812-7.804 2.539-2.033 5.913-3.051 10.12-3.051 4.421 0 7.985 1.028 10.698 3.076 2.707 2.052 4.143 4.947 4.304 8.691h-5.054c-.518-4.743-3.762-7.114-9.733-7.114-2.887 0-5.124.543-6.71 1.632-1.588 1.086-2.38 2.529-2.38 4.331 0 1.638.636 2.869 1.911 3.689 1.274.821 3.654 1.613 7.139 2.379 3.485.768 6.25 1.525 8.301 2.274 2.051.748 3.806 1.912 5.268 3.488 1.464 1.578 2.191 3.696 2.191 6.352 0 3.371-1.341 6.167-4.026 8.395-2.684 2.226-6.178 3.34-10.493 3.34z"/><path d="m270.65 131.294h14.62c3.209 0 5.9.297 8.065.894 2.162.6 3.882 1.89 5.147 3.878 1.263 1.988 1.897 4.211 1.897 6.672 0 3.957-1.254 6.96-3.766 9.009-2.518 2.051-6.152 3.076-10.911 3.076h-9.866v15.669h-5.188l.001-39.198zm5.187 18.875h9.916c3.333 0 5.71-.622 7.125-1.87 1.419-1.247 2.127-3.047 2.127-5.401 0-1.569-.39-2.96-1.177-4.171-.783-1.212-1.777-1.977-2.981-2.299-1.204-.321-2.935-.481-5.201-.481h-9.809z"/><path d="m331.37 170.492h-5.855l-4.544-11.925h-16.423l-4.327 11.925h-5.483l15.053-39.199h5.59l15.988 39.199zm-11.924-16.046-6.899-18.179-6.577 18.179z"/><path d="m366.188 170.492h-5.322l-20.537-30.936v30.936h-4.917v-39.199h5.294l20.538 30.939v-30.939h4.943v39.199z"/></g></g><path d="m224.047 135.257h9.879v2.646h-9.879z" fill="#fff"/></svg>