<svg clip-rule="evenodd" fill-rule="evenodd" stroke-linejoin="round" stroke-miterlimit="1.41421" viewBox="0 0 250 300" xmlns="http://www.w3.org/2000/svg"><g fill-rule="nonzero"><g fill="#c92327"><path d="m77.294 134.847c32.468 11.828 65.29-6.998 97.761 1.213 2.233-2.631 4.164-4.833 6.395-7.203-34.808-9.915-69.665 15.115-104.475 5.2.104.262.213.527.319.79z"/><path d="m172.657 141.383c-30.219-6.288-60.602 11.029-90.823 4.743.17.413.342.824.514 1.235 27.991 7.975 55.959-4.339 83.819 1.703 2.056-2.532 4.435-5.344 6.49-7.681z"/><path d="m72.7 121.944c37.185 14.934 74.652-8.891 111.842 1.519 2.426-2.775 4.621-5.123 7.047-7.598-39.655-12.646-79.442 17.713-119.098 5.067.04.103.168.91.209 1.012z"/><path d="m144.123 103.726c-10.222-.656-16.311 6.312-29.661 6.439-.887 1.271-1.942 2.71-2.901 3.931 15.543 2.928 23.685-7.191 36.187-3.306-1.27-2.512-2.372-4.734-3.625-7.064z"/><path d="m132.497 82.506c-1.607 2.276-5.535 7.054-6.882 8.82 3.172.903 6.472-3.34 9.918-2.749-1.384-2.5-1.965-3.884-3.036-6.071z"/><path d="m138.14 93.247c-5.465-.236-10.446 5.555-16.99 5.819-1.413 1.879-2.182 2.861-3.338 4.261 8.373 1.132 15.753-6.015 23.403-3.928-1.223-2.718-1.883-3.798-3.075-6.152z"/></g><path d="m81.945 154.447c-3.735 5.331-23.534 32.181-23.534 32.181h43.07l14.996 30.867 22.998-31.097 41.929.227s-13-26.801-14.794-30.52c-23.939-6.607-46.755 5.324-84.665-1.658z" fill="#324fa2"/></g></svg>