<?xml version="1.0" encoding="UTF-8" standalone="no"?><!DOCTYPE svg PUBLIC "-//W3C//DTD SVG 1.1//EN" "http://www.w3.org/Graphics/SVG/1.1/DTD/svg11.dtd"><svg width="100%" height="100%" viewBox="0 0 500 300" version="1.1" xmlns="http://www.w3.org/2000/svg" xmlns:xlink="http://www.w3.org/1999/xlink" xml:space="preserve" xmlns:serif="http://www.serif.com/" style="fill-rule:evenodd;clip-rule:evenodd;stroke-linejoin:round;stroke-miterlimit:1.41421;"><g><path d="M144.508,141.417c18.391,6.7 36.982,-3.964 55.375,0.687c1.265,-1.49 2.359,-2.737 3.622,-4.08c-19.716,-5.616 -39.46,8.561 -59.177,2.945c0.058,0.149 0.12,0.299 0.18,0.448Z" style="fill:#c92327;fill-rule:nonzero;"/><path d="M198.525,145.119c-17.117,-3.561 -34.328,6.247 -51.445,2.687c0.097,0.233 0.194,0.466 0.291,0.699c15.855,4.518 31.697,-2.458 47.477,0.965c1.164,-1.434 2.512,-3.027 3.676,-4.351l0.001,0Z" style="fill:#c92327;fill-rule:nonzero;"/><path d="M141.906,134.109c21.062,8.458 42.285,-5.037 63.351,0.86c1.374,-1.572 2.617,-2.902 3.991,-4.304c-22.461,-7.163 -44.999,10.033 -67.46,2.87c0.022,0.058 0.094,0.515 0.118,0.574Z" style="fill:#c92327;fill-rule:nonzero;"/><path d="M182.362,123.789c-5.79,-0.371 -9.238,3.575 -16.8,3.647c-0.503,0.72 -1.101,1.535 -1.644,2.227c8.804,1.658 13.416,-4.073 20.498,-1.873c-0.721,-1.423 -1.345,-2.681 -2.055,-4.001l0.001,0Z" style="fill:#c92327;fill-rule:nonzero;"/><path d="M175.777,111.769c-0.91,1.29 -3.135,3.996 -3.899,4.997c1.797,0.511 3.666,-1.892 5.618,-1.558c-0.783,-1.415 -1.113,-2.199 -1.719,-3.439Z" style="fill:#c92327;fill-rule:nonzero;"/><path d="M178.973,117.854c-3.096,-0.134 -5.916,3.146 -9.623,3.295c-0.801,1.065 -1.236,1.621 -1.891,2.414c4.742,0.641 8.923,-3.407 13.256,-2.225c-0.693,-1.539 -1.067,-2.151 -1.742,-3.484l0,0Z" style="fill:#c92327;fill-rule:nonzero;"/><path d="M147.143,152.519c-2.116,3.02 -13.33,18.228 -13.33,18.228l24.396,0l8.494,17.484l13.027,-17.614l23.749,0.128c0,0 -7.364,-15.18 -8.379,-17.287c-13.56,-3.742 -26.484,3.016 -47.957,-0.939Z" style="fill:#324fa2;fill-rule:nonzero;"/><g><path d="M231.538,157.949c0,4.798 -0.926,8.194 -2.781,10.202c-1.855,2.004 -4.59,3.006 -8.209,3.006c-3.244,0 -5.81,-0.99 -7.698,-2.966c-1.89,-1.977 -2.835,-4.59 -2.835,-7.836l0,-1.041l5.214,0c0,4.776 1.773,7.166 5.319,7.166c1.872,0 3.307,-0.525 4.305,-1.578c0.999,-1.051 1.498,-3.278 1.498,-6.682l0,-26.927l5.188,0l-0.002,26.656l0.001,0Z" style="fill:#324fa2;fill-rule:nonzero;"/><path d="M252.003,171.159c-5.527,0 -9.658,-1.239 -12.393,-3.715c-2.738,-2.476 -4.177,-5.662 -4.319,-9.546l5.002,0c0.265,2.925 1.481,5.088 3.647,6.485c2.164,1.398 4.78,2.1 7.847,2.1c2.908,0 5.246,-0.598 7.018,-1.792c1.774,-1.193 2.661,-2.816 2.661,-4.867c0,-2.155 -0.919,-3.726 -2.754,-4.703c-1.836,-0.982 -4.994,-1.949 -9.476,-2.902c-4.484,-0.953 -7.701,-2.279 -9.654,-3.971c-1.951,-1.694 -2.928,-3.948 -2.928,-6.767c0,-3.17 1.27,-5.774 3.812,-7.804c2.539,-2.033 5.913,-3.051 10.12,-3.051c4.421,0 7.985,1.028 10.698,3.076c2.707,2.052 4.143,4.947 4.304,8.691l-5.054,0c-0.518,-4.743 -3.762,-7.114 -9.733,-7.114c-2.887,0 -5.124,0.543 -6.71,1.632c-1.588,1.086 -2.38,2.529 -2.38,4.331c0,1.638 0.636,2.869 1.911,3.689c1.274,0.821 3.654,1.613 7.139,2.379c3.485,0.768 6.25,1.525 8.301,2.274c2.051,0.748 3.806,1.912 5.268,3.488c1.464,1.578 2.191,3.696 2.191,6.352c0,3.371 -1.341,6.167 -4.026,8.395c-2.684,2.226 -6.178,3.34 -10.493,3.34l0.001,0Z" style="fill:#324fa2;fill-rule:nonzero;"/><path d="M270.65,131.294l14.62,0c3.209,0 5.9,0.297 8.065,0.894c2.162,0.6 3.882,1.89 5.147,3.878c1.263,1.988 1.897,4.211 1.897,6.672c0,3.957 -1.254,6.96 -3.766,9.009c-2.518,2.051 -6.152,3.076 -10.911,3.076l-9.866,0l0,15.669l-5.188,0l0.001,-39.198l0.001,0Zm5.187,18.875l9.916,0c3.333,0 5.71,-0.622 7.125,-1.87c1.419,-1.247 2.127,-3.047 2.127,-5.401c0,-1.569 -0.39,-2.96 -1.177,-4.171c-0.783,-1.212 -1.777,-1.977 -2.981,-2.299c-1.204,-0.321 -2.935,-0.481 -5.201,-0.481l-9.809,0l0,14.222Z" style="fill:#324fa2;fill-rule:nonzero;"/><path d="M331.37,170.492l-5.855,0l-4.544,-11.925l-16.423,0l-4.327,11.925l-5.483,0l15.053,-39.199l5.59,0l15.988,39.199l0.001,0Zm-11.924,-16.046l-6.899,-18.179l-6.577,18.179l13.476,0Z" style="fill:#324fa2;fill-rule:nonzero;"/><path d="M366.188,170.492l-5.322,0l-20.537,-30.936l0,30.936l-4.917,0l0,-39.199l5.294,0l20.538,30.939l0,-30.939l4.943,0l0,39.199Z" style="fill:#324fa2;fill-rule:nonzero;"/></g><rect x="224.047" y="135.257" width="9.879" height="2.646" style="fill:#fff;"/></g></svg>