<?xml version="1.0" encoding="UTF-8" standalone="no"?><!DOCTYPE svg PUBLIC "-//W3C//DTD SVG 1.1//EN" "http://www.w3.org/Graphics/SVG/1.1/DTD/svg11.dtd"><svg width="100%" height="100%" viewBox="0 0 250 300" version="1.1" xmlns="http://www.w3.org/2000/svg" xmlns:xlink="http://www.w3.org/1999/xlink" xml:space="preserve" xmlns:serif="http://www.serif.com/" style="fill-rule:evenodd;clip-rule:evenodd;stroke-linejoin:round;stroke-miterlimit:1.41421;"><g id="jspan"><path d="M77.294,134.847c32.468,11.828 65.29,-6.998 97.761,1.213c2.233,-2.631 4.164,-4.833 6.395,-7.203c-34.808,-9.915 -69.665,15.115 -104.475,5.2c0.104,0.262 0.213,0.527 0.319,0.79Z" style="fill:#c92327;fill-rule:nonzero;"/><path d="M172.657,141.383c-30.219,-6.288 -60.602,11.029 -90.823,4.743c0.17,0.413 0.342,0.824 0.514,1.235c27.991,7.975 55.959,-4.339 83.819,1.703c2.056,-2.532 4.435,-5.344 6.49,-7.681Z" style="fill:#c92327;fill-rule:nonzero;"/><path d="M72.7,121.944c37.185,14.934 74.652,-8.891 111.842,1.519c2.426,-2.775 4.621,-5.123 7.047,-7.598c-39.655,-12.646 -79.442,17.713 -119.098,5.067c0.04,0.103 0.168,0.91 0.209,1.012Z" style="fill:#c92327;fill-rule:nonzero;"/><path d="M144.123,103.726c-10.222,-0.656 -16.311,6.312 -29.661,6.439c-0.887,1.271 -1.942,2.71 -2.901,3.931c15.543,2.928 23.685,-7.191 36.187,-3.306c-1.27,-2.512 -2.372,-4.734 -3.625,-7.064Z" style="fill:#c92327;fill-rule:nonzero;"/><path d="M132.497,82.506c-1.607,2.276 -5.535,7.054 -6.882,8.82c3.172,0.903 6.472,-3.34 9.918,-2.749c-1.384,-2.5 -1.965,-3.884 -3.036,-6.071Z" style="fill:#c92327;fill-rule:nonzero;"/><path d="M138.14,93.247c-5.465,-0.236 -10.446,5.555 -16.99,5.819c-1.413,1.879 -2.182,2.861 -3.338,4.261c8.373,1.132 15.753,-6.015 23.403,-3.928c-1.223,-2.718 -1.883,-3.798 -3.075,-6.152Z" style="fill:#c92327;fill-rule:nonzero;"/><path d="M81.945,154.447c-3.735,5.331 -23.534,32.181 -23.534,32.181l43.07,0l14.996,30.867l22.998,-31.097l41.929,0.227c0,0 -13,-26.801 -14.794,-30.52c-23.939,-6.607 -46.755,5.324 -84.665,-1.658Z" style="fill:#324fa2;fill-rule:nonzero;"/></g></svg>