<?xml version="1.0" encoding="UTF-8" standalone="no"?><!DOCTYPE svg PUBLIC "-//W3C//DTD SVG 1.1//EN" "http://www.w3.org/Graphics/SVG/1.1/DTD/svg11.dtd"><svg width="100%" height="100%" viewBox="0 0 512 512" version="1.1" xmlns="http://www.w3.org/2000/svg" xmlns:xlink="http://www.w3.org/1999/xlink" xml:space="preserve" xmlns:serif="http://www.serif.com/" style="fill-rule:evenodd;clip-rule:evenodd;stroke-linejoin:round;stroke-miterlimit:1.41421;"><path d="M463.266,0c26.897,0 48.734,21.837 48.734,48.734l0,414.532c0,26.897 -21.837,48.734 -48.734,48.734l-414.532,0c-26.897,0 -48.734,-21.837 -48.734,-48.734l0,-414.532c0,-26.897 21.837,-48.734 48.734,-48.734l414.532,0Zm-25.342,437.196l0,-147.663c0,-30.626 -6.652,-53.268 -19.957,-67.925c-13.304,-14.657 -31.727,-21.986 -55.271,-21.986c-17.414,0 -32.181,3.318 -44.301,9.954c-12.12,6.636 -24.1,17.683 -35.942,33.142l0,-37.845l-79.197,0l0,232.323l85.048,0l0,-111.568c0,-21.146 3.205,-35.803 9.613,-43.97c6.408,-8.167 14.767,-12.251 25.076,-12.251c9.333,0 16.578,3.026 21.732,9.079c5.155,6.052 7.732,16.37 7.732,30.954l0,127.756l85.467,0Zm-284.924,-232.196l-78,0l0,231l78,0l0,-231Zm-39,-136c25.664,0 46.5,20.836 46.5,46.5c0,25.664 -20.836,46.5 -46.5,46.5c-25.664,0 -46.5,-20.836 -46.5,-46.5c0,-25.664 20.836,-46.5 46.5,-46.5Z" style="fill:#121d2a;"/></svg>