<svg clip-rule="evenodd" fill-rule="evenodd" stroke-linejoin="round" stroke-miterlimit="1.41421" viewBox="0 0 250 300" xmlns="http://www.w3.org/2000/svg"><path d="m-6.75 0h263.5v300h-263.5z" fill="#3b1e56"/><path d="m106.296 178.507-.007-.01-5.216-8.204-5.216 8.204c-.04.064-.081.127-.122.191l-1.136 1.787-.114-.059c-.096.118-.194.236-.293.353-1.351 1.592-2.974 2.991-4.795 4.132-2.136 1.338-4.537 2.319-7.054 2.888-1.297.294-2.624.477-3.959.549-1.345.072-2.697.029-4.032-.129-1.447-.171-2.874-.477-4.252-.911-1.291-.407-2.538-.926-3.721-1.547-1.183-.62-2.303-1.341-3.336-2.153-1.103-.866-2.108-1.836-2.994-2.888-.819-.971-1.535-2.013-2.139-3.107-.6-1.085-1.088-2.221-1.457-3.387-.716-2.264-.981-4.643-.772-6.991.178-2.004.7-3.98 1.543-5.838.062-.136.125-.272.19-.407l-.114-.059 1.137-1.788c.04-.064.081-.128.121-.191l23.806-37.442c.04-.064.08-.128.121-.191l.005-.007c.339-.527.704-1.039 1.096-1.534.439-.557.911-1.091 1.413-1.602l.013-.013.016-.017.045-.046.04-.04.028-.028.028-.028.027-.026.031-.03.045-.046.035-.034.013-.012.019-.018.065-.064.039-.037.002-.002.003-.003c1.23-1.178 2.623-2.215 4.137-3.08.387-.221.782-.431 1.185-.629.209-.104.419-.205.632-.302.608-.278 1.232-.531 1.867-.756 1.814-.642 3.723-1.058 5.661-1.232.712-.064 1.428-.095 2.143-.094.716-.001 1.431.03 2.143.094 1.938.174 3.848.59 5.662 1.232.635.225 1.258.478 1.866.756.213.097.424.198.633.302.402.198.797.408 1.184.629 1.514.865 2.907 1.902 4.137 3.08l.044.042.065.064.02.018.047.046.046.046.03.03.027.026.056.056.04.04.045.046.017.017.012.013c.446.454.869.927 1.266 1.418l.113-.06 1.135 1.785c.041.063.081.127.121.191l5.218 8.207 5.218-8.207c.04-.064.081-.128.121-.191l.003-.004c.339-.528.705-1.041 1.098-1.537.48-.608.999-1.191 1.554-1.744l.001-.002.002-.001.053-.053.061-.061.015-.015.012-.011.035-.035.056-.054.029-.028.018-.017.022-.022.048-.045.046-.044.02-.019.013-.011.035-.034.067-.062.021-.02.004-.003.015-.014c1.164-1.076 2.466-2.028 3.872-2.831.275-.157.553-.308.835-.453l.007-.004.009-.004c.087-.045.173-.089.26-.132.233-.116.468-.229.706-.338.608-.278 1.231-.531 1.866-.756 1.814-.642 3.724-1.058 5.662-1.232.712-.064 1.428-.095 2.143-.094.715-.001 1.431.03 2.144.094 1.937.174 3.847.59 5.661 1.232.634.225 1.258.478 1.866.756.238.109.473.222.706.338.087.043.173.087.26.132l.009.004.007.004c.282.145.56.296.835.453 1.406.803 2.708 1.755 3.872 2.831l.015.014.004.003.021.02.067.062.036.034.012.011.02.019.046.044.048.045.022.022.018.017.029.028.056.054.035.035.012.011.014.015.063.061.055.056c.499.497.968 1.018 1.407 1.56l.113-.06 1.135 1.785c.041.063.081.127.121.191l23.806 37.442c.04.063.081.127.121.191l1.137 1.788-.114.059c.065.135.128.271.19.407.843 1.858 1.365 3.834 1.543 5.838.209 2.348-.056 4.727-.772 6.991-.369 1.166-.857 2.302-1.457 3.387-.604 1.094-1.32 2.136-2.139 3.107-.886 1.052-1.891 2.022-2.994 2.888-1.033.812-2.153 1.533-3.336 2.153-1.183.621-2.43 1.14-3.721 1.547-1.378.434-2.805.74-4.252.911-1.335.158-2.687.201-4.032.129-1.335-.072-2.662-.255-3.959-.549-2.517-.569-4.918-1.55-7.054-2.888-1.821-1.141-3.444-2.54-4.795-4.132-.099-.117-.197-.235-.293-.353l-.114.059-1.136-1.787c-.041-.064-.082-.127-.122-.191l-5.216-8.204-5.216 8.204-.007.011c-.045.072-.091.144-.137.215l-1.114 1.752-.113-.059c-.08.099-.161.197-.242.294-.841.998-1.789 1.922-2.826 2.754l-.06.048-.003.002-.003.003-.007.006c-.619.492-1.27.953-1.948 1.378-.445.279-.9.541-1.366.788l-.007.004-.041.021-.024.013-.005.002-.041.022c-1.183.621-2.43 1.14-3.721 1.547-1.378.434-2.805.74-4.251.911-.927.109-1.861.163-2.795.162-.934.001-1.868-.053-2.794-.162-1.447-.171-2.874-.477-4.252-.911-1.291-.407-2.538-.926-3.721-1.547l-.041-.022-.004-.002-.025-.013-.041-.021-.007-.004c-.465-.247-.921-.509-1.365-.788-.678-.425-1.329-.886-1.949-1.378l-.007-.006-.003-.003-.003-.002-.059-.047c-1.037-.832-1.985-1.756-2.826-2.755-.082-.097-.163-.195-.243-.294l-.113.059-1.114-1.752c-.046-.072-.092-.143-.137-.216zm-21.8-34.288-2.799 4.403-11.067 17.406.021.011c-.073.14-.14.282-.203.426-.248.578-.402 1.189-.457 1.807-.073.814.027 1.639.285 2.421.254.768.662 1.494 1.202 2.128.294.344.626.661.99.943.351.272.73.512 1.131.719.385.199.789.367 1.208.499.466.147.95.249 1.439.304.877.099 1.773.046 2.63-.147.872-.198 1.704-.541 2.437-1.013.559-.359 1.059-.792 1.48-1.282.086-.101.17-.204.249-.309l.021.011 8.06-12.677 1.661-2.613zm81.008.001-8.288 13.036 9.721 15.29.02-.011c.098.128.199.252.306.373.427.484.932.911 1.494 1.263.741.464 1.577.799 2.452.986.859.185 1.755.227 2.631.119.475-.059.943-.162 1.394-.307.435-.14.853-.318 1.25-.53.383-.203.746-.437 1.081-.701.373-.293.712-.621 1.009-.979.533-.64.931-1.371 1.174-2.142.248-.784.337-1.61.254-2.423-.064-.619-.227-1.228-.484-1.805-.052-.118-.109-.235-.169-.35l.021-.011-8.06-12.677zm-22.806-16.276c-.62.993-10.718 18.61-13.01 21.965-1.045 1.53-2.804 2.348-4.688 2.348s-3.643-.818-4.688-2.348c-2.292-3.355-12.388-20.981-13.027-21.991l-.019-.032c-.275-.424-.6-.822-.972-1.181l-.024-.023c-.175-.167-.36-.324-.553-.473-.293-.224-.605-.424-.931-.604-.055-.03-.11-.059-.166-.089-.03-.015-.06-.03-.09-.045-1.054-.521-2.25-.8-3.45-.806-1.215.003-2.428.288-3.494.821-.048.024-.096.049-.143.074-.331.178-.648.376-.945.598-.224.167-.436.346-.636.537l-.009.009-.007.007c-.369.357-.693.753-.965 1.175l-.01.016c-.637 1.002-.978 2.157-.976 3.316.001.55.079 1.1.234 1.631.159.544.398 1.067.704 1.556.057.091.117.181.179.27l-.006.003 22.658 35.636s.838 1.312 1.108 1.742l.055.087c.086.134.178.265.276.393l.001-.001c.097.128.199.252.305.373.206.233.43.453.669.658l.039.032.008.007c.065.055.131.108.198.159.343.267.715.503 1.107.707.601.31 1.252.542 1.925.686.544.117 1.102.177 1.66.178.577-.003 1.154-.07 1.715-.196.645-.147 1.269-.372 1.848-.672l.053-.028c.382-.203.745-.437 1.08-.701.068-.053.135-.108.201-.164l.043-.036.005-.004c.246-.215.476-.445.687-.69.086-.101.169-.204.25-.309l.001.001c.096-.127.188-.257.274-.39l.06-.095c.282-.452 1.104-1.737 1.104-1.737l6.641-10.445 1.661-2.613 8.289-13.036 6.067-9.542-.006-.003c.063-.089.122-.179.179-.27.299-.478.534-.988.693-1.518.159-.531.24-1.08.245-1.63.01-1.153-.321-2.304-.945-3.307l-.041-.064c-.293-.453-.644-.876-1.048-1.254-.159-.148-.326-.289-.5-.423-.293-.224-.605-.424-.931-.604-.055-.03-.11-.059-.166-.089l-.041-.02c-1.066-.537-2.28-.825-3.499-.831-1.219.003-2.435.289-3.502.825-.046.023-.091.047-.136.07-.331.178-.647.376-.944.598-.203.151-.397.313-.58.484-.399.375-.747.794-1.037 1.244z" fill="#7de0a3"/></svg>