<?xml version="1.0" encoding="UTF-8" standalone="no"?><!DOCTYPE svg PUBLIC "-//W3C//DTD SVG 1.1//EN" "http://www.w3.org/Graphics/SVG/1.1/DTD/svg11.dtd"><svg width="100%" height="100%" viewBox="0 0 250 300" version="1.1" xmlns="http://www.w3.org/2000/svg" xmlns:xlink="http://www.w3.org/1999/xlink" xml:space="preserve" xmlns:serif="http://www.serif.com/" style="fill-rule:evenodd;clip-rule:evenodd;stroke-linejoin:round;stroke-miterlimit:1.41421;"><g id="mapperkeeper"><rect x="-6.75" y="0" width="263.5" height="300" style="fill:#3b1e56;"/><path d="M106.296,178.507l-0.007,-0.01l-5.216,-8.204l-5.216,8.204c-0.04,0.064 -0.081,0.127 -0.122,0.191l-1.136,1.787l-0.114,-0.059c-0.096,0.118 -0.194,0.236 -0.293,0.353c-1.351,1.592 -2.974,2.991 -4.795,4.132c-2.136,1.338 -4.537,2.319 -7.054,2.888c-1.297,0.294 -2.624,0.477 -3.959,0.549c-1.345,0.072 -2.697,0.029 -4.032,-0.129c-1.447,-0.171 -2.874,-0.477 -4.252,-0.911c-1.291,-0.407 -2.538,-0.926 -3.721,-1.547c-1.183,-0.62 -2.303,-1.341 -3.336,-2.153c-1.103,-0.866 -2.108,-1.836 -2.994,-2.888c-0.819,-0.971 -1.535,-2.013 -2.139,-3.107c-0.6,-1.085 -1.088,-2.221 -1.457,-3.387c-0.716,-2.264 -0.981,-4.643 -0.772,-6.991c0.178,-2.004 0.7,-3.98 1.543,-5.838c0.062,-0.136 0.125,-0.272 0.19,-0.407l-0.114,-0.059l1.137,-1.788c0.04,-0.064 0.081,-0.128 0.121,-0.191l23.806,-37.442c0.04,-0.064 0.08,-0.128 0.121,-0.191l0.005,-0.007c0.339,-0.527 0.704,-1.039 1.096,-1.534c0.439,-0.557 0.911,-1.091 1.413,-1.602l0.013,-0.013l0.016,-0.017l0.045,-0.046l0.04,-0.04l0.028,-0.028l0.028,-0.028l0.027,-0.026l0.031,-0.03l0.045,-0.046l0.035,-0.034l0.013,-0.012l0.019,-0.018l0.065,-0.064l0.039,-0.037l0.002,-0.002l0.003,-0.003c1.23,-1.178 2.623,-2.215 4.137,-3.08c0.387,-0.221 0.782,-0.431 1.185,-0.629c0.209,-0.104 0.419,-0.205 0.632,-0.302c0.608,-0.278 1.232,-0.531 1.867,-0.756c1.814,-0.642 3.723,-1.058 5.661,-1.232c0.712,-0.064 1.428,-0.095 2.143,-0.094c0.716,-0.001 1.431,0.03 2.143,0.094c1.938,0.174 3.848,0.59 5.662,1.232c0.635,0.225 1.258,0.478 1.866,0.756c0.213,0.097 0.424,0.198 0.633,0.302c0.402,0.198 0.797,0.408 1.184,0.629c1.514,0.865 2.907,1.902 4.137,3.08l0.044,0.042l0.065,0.064l0.02,0.018l0.047,0.046l0.046,0.046l0.03,0.03l0.027,0.026l0.056,0.056l0.04,0.04l0.045,0.046l0.017,0.017l0.012,0.013c0.446,0.454 0.869,0.927 1.266,1.418l0.113,-0.06l1.135,1.785c0.041,0.063 0.081,0.127 0.121,0.191l5.218,8.207l5.218,-8.207c0.04,-0.064 0.081,-0.128 0.121,-0.191l0.003,-0.004c0.339,-0.528 0.705,-1.041 1.098,-1.537c0.48,-0.608 0.999,-1.191 1.554,-1.744l0.001,-0.002l0.002,-0.001l0.053,-0.053l0.061,-0.061l0.015,-0.015l0.012,-0.011l0.035,-0.035l0.056,-0.054l0.029,-0.028l0.018,-0.017l0.022,-0.022l0.048,-0.045l0.046,-0.044l0.02,-0.019l0.013,-0.011l0.035,-0.034l0.067,-0.062l0.021,-0.02l0.004,-0.003l0.015,-0.014c1.164,-1.076 2.466,-2.028 3.872,-2.831c0.275,-0.157 0.553,-0.308 0.835,-0.453l0.007,-0.004l0.009,-0.004c0.087,-0.045 0.173,-0.089 0.26,-0.132c0.233,-0.116 0.468,-0.229 0.706,-0.338c0.608,-0.278 1.231,-0.531 1.866,-0.756c1.814,-0.642 3.724,-1.058 5.662,-1.232c0.712,-0.064 1.428,-0.095 2.143,-0.094c0.715,-0.001 1.431,0.03 2.144,0.094c1.937,0.174 3.847,0.59 5.661,1.232c0.634,0.225 1.258,0.478 1.866,0.756c0.238,0.109 0.473,0.222 0.706,0.338c0.087,0.043 0.173,0.087 0.26,0.132l0.009,0.004l0.007,0.004c0.282,0.145 0.56,0.296 0.835,0.453c1.406,0.803 2.708,1.755 3.872,2.831l0.015,0.014l0.004,0.003l0.021,0.02l0.067,0.062l0.036,0.034l0.012,0.011l0.02,0.019l0.046,0.044l0.048,0.045l0.022,0.022l0.018,0.017l0.029,0.028l0.056,0.054l0.035,0.035l0.012,0.011l0.014,0.015l0.063,0.061l0.055,0.056c0.499,0.497 0.968,1.018 1.407,1.56l0.113,-0.06l1.135,1.785c0.041,0.063 0.081,0.127 0.121,0.191l23.806,37.442c0.04,0.063 0.081,0.127 0.121,0.191l1.137,1.788l-0.114,0.059c0.065,0.135 0.128,0.271 0.19,0.407c0.843,1.858 1.365,3.834 1.543,5.838c0.209,2.348 -0.056,4.727 -0.772,6.991c-0.369,1.166 -0.857,2.302 -1.457,3.387c-0.604,1.094 -1.32,2.136 -2.139,3.107c-0.886,1.052 -1.891,2.022 -2.994,2.888c-1.033,0.812 -2.153,1.533 -3.336,2.153c-1.183,0.621 -2.43,1.14 -3.721,1.547c-1.378,0.434 -2.805,0.74 -4.252,0.911c-1.335,0.158 -2.687,0.201 -4.032,0.129c-1.335,-0.072 -2.662,-0.255 -3.959,-0.549c-2.517,-0.569 -4.918,-1.55 -7.054,-2.888c-1.821,-1.141 -3.444,-2.54 -4.795,-4.132c-0.099,-0.117 -0.197,-0.235 -0.293,-0.353l-0.114,0.059l-1.136,-1.787c-0.041,-0.064 -0.082,-0.127 -0.122,-0.191l-5.216,-8.204l-5.216,8.204l-0.007,0.011c-0.045,0.072 -0.091,0.144 -0.137,0.215l-1.114,1.752l-0.113,-0.059c-0.08,0.099 -0.161,0.197 -0.242,0.294c-0.841,0.998 -1.789,1.922 -2.826,2.754l-0.06,0.048l-0.003,0.002l-0.003,0.003l-0.007,0.006c-0.619,0.492 -1.27,0.953 -1.948,1.378c-0.445,0.279 -0.9,0.541 -1.366,0.788l-0.007,0.004l-0.041,0.021l-0.024,0.013l-0.005,0.002l-0.041,0.022c-1.183,0.621 -2.43,1.14 -3.721,1.547c-1.378,0.434 -2.805,0.74 -4.251,0.911c-0.927,0.109 -1.861,0.163 -2.795,0.162c-0.934,0.001 -1.868,-0.053 -2.794,-0.162c-1.447,-0.171 -2.874,-0.477 -4.252,-0.911c-1.291,-0.407 -2.538,-0.926 -3.721,-1.547l-0.041,-0.022l-0.004,-0.002l-0.025,-0.013l-0.041,-0.021l-0.007,-0.004c-0.465,-0.247 -0.921,-0.509 -1.365,-0.788c-0.678,-0.425 -1.329,-0.886 -1.949,-1.378l-0.007,-0.006l-0.003,-0.003l-0.003,-0.002l-0.059,-0.047c-1.037,-0.832 -1.985,-1.756 -2.826,-2.755c-0.082,-0.097 -0.163,-0.195 -0.243,-0.294l-0.113,0.059l-1.114,-1.752c-0.046,-0.072 -0.092,-0.143 -0.137,-0.216Zm-21.8,-34.288l-2.799,4.403l-11.067,17.406l0.021,0.011c-0.073,0.14 -0.14,0.282 -0.203,0.426c-0.248,0.578 -0.402,1.189 -0.457,1.807c-0.073,0.814 0.027,1.639 0.285,2.421c0.254,0.768 0.662,1.494 1.202,2.128c0.294,0.344 0.626,0.661 0.99,0.943c0.351,0.272 0.73,0.512 1.131,0.719c0.385,0.199 0.789,0.367 1.208,0.499c0.466,0.147 0.95,0.249 1.439,0.304c0.877,0.099 1.773,0.046 2.63,-0.147c0.872,-0.198 1.704,-0.541 2.437,-1.013c0.559,-0.359 1.059,-0.792 1.48,-1.282c0.086,-0.101 0.17,-0.204 0.249,-0.309l0.021,0.011l8.06,-12.677l1.661,-2.613l-8.288,-13.037Zm81.008,0.001l-8.288,13.036l9.721,15.29l0.02,-0.011c0.098,0.128 0.199,0.252 0.306,0.373c0.427,0.484 0.932,0.911 1.494,1.263c0.741,0.464 1.577,0.799 2.452,0.986c0.859,0.185 1.755,0.227 2.631,0.119c0.475,-0.059 0.943,-0.162 1.394,-0.307c0.435,-0.14 0.853,-0.318 1.25,-0.53c0.383,-0.203 0.746,-0.437 1.081,-0.701c0.373,-0.293 0.712,-0.621 1.009,-0.979c0.533,-0.64 0.931,-1.371 1.174,-2.142c0.248,-0.784 0.337,-1.61 0.254,-2.423c-0.064,-0.619 -0.227,-1.228 -0.484,-1.805c-0.052,-0.118 -0.109,-0.235 -0.169,-0.35l0.021,-0.011l-8.06,-12.677l-5.806,-9.131Zm-22.806,-16.276c-0.62,0.993 -10.718,18.61 -13.01,21.965c-1.045,1.53 -2.804,2.348 -4.688,2.348c-1.884,0 -3.643,-0.818 -4.688,-2.348c-2.292,-3.355 -12.388,-20.981 -13.027,-21.991l-0.019,-0.032c-0.275,-0.424 -0.6,-0.822 -0.972,-1.181l-0.024,-0.023l0,0c-0.175,-0.167 -0.36,-0.324 -0.553,-0.473c-0.293,-0.224 -0.605,-0.424 -0.931,-0.604c-0.055,-0.03 -0.11,-0.059 -0.166,-0.089c-0.03,-0.015 -0.06,-0.03 -0.09,-0.045c-1.054,-0.521 -2.25,-0.8 -3.45,-0.806c-1.215,0.003 -2.428,0.288 -3.494,0.821c-0.048,0.024 -0.096,0.049 -0.143,0.074c-0.331,0.178 -0.648,0.376 -0.945,0.598c-0.224,0.167 -0.436,0.346 -0.636,0.537l-0.009,0.009l-0.007,0.007c-0.369,0.357 -0.693,0.753 -0.965,1.175l-0.01,0.016c-0.637,1.002 -0.978,2.157 -0.976,3.316c0.001,0.55 0.079,1.1 0.234,1.631c0.159,0.544 0.398,1.067 0.704,1.556c0.057,0.091 0.117,0.181 0.179,0.27l-0.006,0.003l22.658,35.636c0,0 0.838,1.312 1.108,1.742l0.055,0.087c0.086,0.134 0.178,0.265 0.276,0.393l0.001,-0.001c0.097,0.128 0.199,0.252 0.305,0.373c0.206,0.233 0.43,0.453 0.669,0.658l0.039,0.032l0.008,0.007c0.065,0.055 0.131,0.108 0.198,0.159c0.343,0.267 0.715,0.503 1.107,0.707c0.601,0.31 1.252,0.542 1.925,0.686c0.544,0.117 1.102,0.177 1.66,0.178c0.577,-0.003 1.154,-0.07 1.715,-0.196c0.645,-0.147 1.269,-0.372 1.848,-0.672l0.053,-0.028c0.382,-0.203 0.745,-0.437 1.08,-0.701c0.068,-0.053 0.135,-0.108 0.201,-0.164l0.043,-0.036l0.005,-0.004c0.246,-0.215 0.476,-0.445 0.687,-0.69c0.086,-0.101 0.169,-0.204 0.25,-0.309l0.001,0.001c0.096,-0.127 0.188,-0.257 0.274,-0.39l0.06,-0.095c0.282,-0.452 1.104,-1.737 1.104,-1.737l6.641,-10.445l1.661,-2.613l8.289,-13.036l6.067,-9.542l-0.006,-0.003c0.063,-0.089 0.122,-0.179 0.179,-0.27c0.299,-0.478 0.534,-0.988 0.693,-1.518c0.159,-0.531 0.24,-1.08 0.245,-1.63c0.01,-1.153 -0.321,-2.304 -0.945,-3.307l-0.041,-0.064c-0.293,-0.453 -0.644,-0.876 -1.048,-1.254c-0.159,-0.148 -0.326,-0.289 -0.5,-0.423c-0.293,-0.224 -0.605,-0.424 -0.931,-0.604c-0.055,-0.03 -0.11,-0.059 -0.166,-0.089l-0.041,-0.02c-1.066,-0.537 -2.28,-0.825 -3.499,-0.831c-1.219,0.003 -2.435,0.289 -3.502,0.825c-0.046,0.023 -0.091,0.047 -0.136,0.07c-0.331,0.178 -0.647,0.376 -0.944,0.598c-0.203,0.151 -0.397,0.313 -0.58,0.484c-0.399,0.375 -0.747,0.794 -1.037,1.244l-0.037,0.058Z" style="fill:#7de0a3;"/></g></svg>