<svg enable-background="new 0 0 792 211" height="211" viewBox="0 0 792 211" width="792" xmlns="http://www.w3.org/2000/svg"><path d="m94.438 86c12.181 0 19.026 9.631 19.026 18.507s-6.846 18.507-19.026 18.507-19.026-9.631-19.026-18.507 6.846-18.507 19.026-18.507zm0 32.764c7.317 0 14.21-5.76 14.21-14.257 0-8.498-6.893-14.258-14.21-14.258s-14.21 5.76-14.21 14.258c.001 8.497 6.893 14.257 14.21 14.257z"/><path d="m150.193 86.566h4.816l-13.267 35.881h-3.776l-13.268-35.881h4.816l10.291 28.657h.096z"/><path d="m168.312 86.566h18.554v4.249h-14.021v11.378 4.249 11.755h14.021v4.25h-18.554z"/><path d="m206.07 107.15v15.297h-4.532v-35.881h10.339c6.893 0 12.039 3.966 12.039 10.859 0 6.42-5.051 10.386-10.906 10.717l13.975 14.305h-6.373zm0-2.785c.613.047 1.275.047 3.966.047 6.94 0 9.348-3.021 9.348-6.939 0-4.202-2.88-6.94-7.601-6.94h-5.713z"/><path d="m244.537 90.815h-8.971v-4.249h22.473v4.249h-8.971v31.632h-4.531z"/><path d="m270.152 86.566h4.533v21.528c0 5.854 3.257 10.669 9.535 10.669 6.279 0 9.537-4.814 9.537-10.669v-21.528h4.533v22.85c0 7.743-5.855 13.598-14.164 13.598-8.12 0-13.975-5.854-13.975-13.598v-22.85z"/><path d="m318.533 107.15v15.297h-4.531v-35.881h10.338c6.895 0 12.039 3.966 12.039 10.859 0 6.42-5.051 10.386-10.904 10.717l13.973 14.305h-6.373zm0-2.785c.615.047 1.275.047 3.967.047 6.939 0 9.348-3.021 9.348-6.939 0-4.202-2.881-6.94-7.602-6.94h-5.713z"/><path d="m352.469 86.566h18.553v4.249h-14.022v11.378 4.249 11.755h14.021v4.25h-18.553v-35.881z"/><path d="m176.238 102.172h10.628v4.258h-10.628z"/><path d="m359.992 102.172h10.629v4.258h-10.629z"/><path d="m420.796 86.296v36.153h-2.208l-26.387-31.599v31.599h-2.684v-36.153h2.273l26.322 31.599v-31.599z"/><path d="m456.935 86.296v2.329h-16.247v14.466 2.355 14.674h16.645v2.329h-19.328v-36.153z"/><path d="m496.975 86.296v2.329h-13.019v33.824h-2.708v-33.824h-13.018v-2.329z"/><path d="m532.629 92.3-11.633 30.512h-.724l-13.966-36.516h2.754l11.494 29.994 11.648-29.994h.834l11.591 29.994 11.521-29.994h2.753l-13.994 36.516h-.647z"/><path d="m588.878 85.83c5.135 0 9.486 1.798 13.056 5.396 3.569 3.597 5.354 7.983 5.354 13.159 0 5.159-1.785 9.537-5.354 13.134s-7.921 5.396-13.056 5.396c-5.117 0-9.452-1.799-13.005-5.396-3.553-3.598-5.329-7.976-5.329-13.134 0-5.176 1.776-9.562 5.329-13.159 3.553-3.598 7.888-5.396 13.005-5.396zm.1 34.497c4.323 0 7.971-1.54 10.944-4.619 2.973-3.08 4.459-6.854 4.459-11.323 0-4.485-1.486-8.269-4.459-11.348-2.974-3.08-6.621-4.62-10.944-4.62-4.339 0-8.012 1.54-11.018 4.62-3.007 3.079-4.51 6.862-4.51 11.348 0 4.469 1.503 8.243 4.51 11.323 3.006 3.079 6.679 4.619 11.018 4.619z"/><path d="m623.029 86.296h8.895c3.727 0 6.575.841 8.546 2.523 1.971 1.683 2.957 3.956 2.957 6.819 0 4.175-2.203 7.108-6.609 8.799 1.144.569 2.684 2.407 4.621 5.512l7.851 12.5h-3.176l-6.046-9.908c-2.02-3.314-3.593-5.381-4.719-6.201s-2.773-1.229-4.942-1.229h-4.693v17.339h-2.684v-36.154zm2.684 2.329v14.156h5.764c2.932 0 5.171-.617 6.72-1.851 1.549-1.233 2.323-2.98 2.323-5.24 0-2.226-.787-3.959-2.36-5.202s-3.834-1.863-6.782-1.863z"/><path d="m683.888 86.296-16.615 18.059 18.206 18.095h-3.415l-18.175-18.064v18.064h-2.683v-36.154h2.683v17.986l16.651-17.986z"/><path d="m713.84 88.107v3.08c-3.015-1.846-5.606-2.769-7.775-2.769-2.087 0-3.83.66-5.229 1.98-1.4 1.319-2.1 2.955-2.1 4.904 0 1.397.414 2.657 1.242 3.778.828 1.122 2.559 2.2 5.192 3.235s4.555 1.898 5.764 2.588c1.209.691 2.235 1.691 3.08 3.002s1.268 3.011 1.268 5.098c0 2.778-.978 5.124-2.932 7.04-1.954 1.914-4.34 2.872-7.155 2.872-2.882 0-5.847-1.052-8.894-3.157v-3.287c3.361 2.571 6.276 3.856 8.745 3.856 2.053 0 3.788-.694 5.204-2.083 1.416-1.39 2.124-3.094 2.124-5.112 0-1.536-.438-2.92-1.316-4.154-.878-1.233-2.657-2.387-5.34-3.459-2.682-1.073-4.599-1.937-5.75-2.592-1.152-.655-2.13-1.591-2.934-2.806s-1.206-2.78-1.206-4.695c0-2.655.978-4.918 2.932-6.789s4.307-2.806 7.056-2.806c2.699-.001 5.374.758 8.024 2.276z"/><path d="m443.919 103.091h13.413v2.355h-13.413z"/><g fill="#fff" stroke="#ed1c24" stroke-miterlimit="10"><circle cx="390.679" cy="132.7" r="3.399"/><circle cx="419.609" cy="76.652" r="3.399"/></g></svg>