<svg clip-rule="evenodd" fill-rule="evenodd" stroke-linejoin="round" stroke-miterlimit="1.41421" viewBox="0 0 250 300" xmlns="http://www.w3.org/2000/svg"><path d="m-40.497-45.075h330.994v428.329h-330.994z" fill="#9bc63e"/><path d="m29.456 75.266c-8.238-3.339-18.095-5.064-28.606-6.13 10.405-2.903 23.423.407 28.606 6.13z"/><path d="m32.521 73.222c2.635-2.235 10.404-.912 13.282 0-4.03 1.439-8.611.134-13.282 0z"/><path d="m175.55 92.633c2.099-16.236 32.044-22.859 41.887-9.194 17.706 24.582-34.789 25.588-41.887 9.194z"/><path d="m65.213 76.287h3.066c1.17 3.213-1.606 2.482-2.044 4.087-1.386-.316-.848-2.558-1.022-4.087z"/><path d="m115.273 92.633c3.279.808 4.465 3.709 7.152 5.109-2.119 2.049-6.334-2.47-7.152-5.109z"/><path d="m119.36 102.85c.215 1.146 1.133 1.591 2.044 2.043-3.436 4.822-8.098 3.609-14.304 2.043-.077-1.779.229-3.177 1.022-4.086-2.099 2.068-2.04-.416-3.064-2.044-1.191.172-1.11 1.616-1.023 3.065-3.067-3.062-4.495-7.763-10.216-8.173.266-1.436 2.24-1.165 3.065-2.042 5.796 2.304 13.227 7.44 22.476 9.194z"/><path d="m131.618 111.023c1.026-.003 1.217.827 2.044 1.022.225.796.855 1.188 2.044 1.022-.227.796-.857 1.187-2.044 1.021-.172 2.216 3.624.463 5.108 1.022 2.121 1.209-5.253 1.48-7.152 2.044-1.514-1.21-1.589-3.86-3.063-5.109.171-1.191 1.614-1.11 3.063-1.022z"/><path d="m223.566 138.607c-3.847 3.556 11.645 2.661 10.218 4.087-4.885 4.884-31.106-6.629-27.586-6.13h2.045c4.623 3.402 8.555 1.846 13.28 4.087.23-.793.029-2.016 1.022-2.043.341-.001.681-.001 1.021-.001z"/><path d="m40.694 177.429h4.087c1.501 3.886-4.567.201-3.065 4.087-1.386-.316-.848-2.558-1.022-4.087z"/><path d="m-40.842 60.893s30.172-.968 37.605 6.199c16.3-4.011 29.121 8.233 37.801 2.043.512 4.085 12.602 1.202 16.346-2.043 3.178 3.848 11.973 5.64 17.368 4.087-1.142 1.257-.891 2.097 1.021 2.043v5.109c2.135.432 2.706-.701 4.087-1.023 6.704 3.067 17.378 5.149 21.454 5.108-.866-1.518-3.289-1.478-5.108-2.042.253-1.286 2.031-1.031 2.044 0 2.82-1.608 4.943-3.912 8.172-5.109 16.229 4.441 24.238 12.901 26.563 24.519 1.317-1.406 4.438-1.011 7.151-1.021 2.041-5.232 17.741-9.816 22.477-7.152 2.218 2.737 1.384 4.638 1.022 8.173-1.198-.165-.862-1.862-1.022-3.065-2.774 1.994-2.152 7.384-5.108 9.195.89 2.514 4.523 2.288 4.086 6.13 19.783-.033 27.954 11.548 42.908 16.346-10.132-3.016-17.102-3.168-26.562-7.151h5.108c-10.832-7.558-32.204-4.576-43.93-11.239 1.488-3.75 5.336.785 8.172-2.043-.65-2.072-4.775-.673-5.107-3.065 13.074 5.16 17.148 10.474 35.757 12.26-19.129-3.347-29.294-15.657-50.059-17.368.861 2.203 5.266.862 6.128 3.065-8.515-1.36-15.992-3.758-22.475-7.152 1.568-3.61 4.538.523 7.151-2.042-6.467-5.464-18.266-3.757-28.605-3.066.171-2.216-3.624-.463-5.109-1.021-.74-2.324-5.824-.305-5.107-4.087 2.649-2.529 5.01.993 9.194 0-2.186-3.945-9.139-3.121-12.26-6.129-2.595 1.362-.643 6.677 3.066 5.108-2.64 3.025-6.402-1.424-9.195 1.022 0-3.746 0-7.493 0-11.238-3.948 1.31.4 7.898-4.087 10.216-4.285-4.272-8.654-1.18-11.238-7.152-3.395 3.416-2.43 11.192-7.152 13.282 3.184-3.6 16.383-5.857 22.477 0 .998 5.783-3.572 11.515 2.043 13.281 2.671-3.459 2.318-9.939 3.064-15.324h4.088c-.469 4.225 3.963.13 6.129 2.043 1.081.957-4.097 1.068-4.086 1.022-.1.456 3.008 2.764 3.064 4.087.382 8.857-17.863 17.996-22.476 23.497-12.722.227-24.988-7.288-22.476-25.54.62.588 4.846 2.39 5.108 0-.929-2.796-3.579 1.813-5.108-1.023.994-4.738 7.423-8.535 6.13-12.259 3.817.092 2.912 1.145 6.13 0-3.439-2.749-7.95-.827-13.282-3.065-2.462.419-2.22-1.866-5.108-1.022-9.434.451-24.962.465-32.692-6.13-13.389 4.028-23.728-3.578-35.563-3.688 0-.987 0-1.41 0-2.255 9.523 3.266 20.085 6.516 30.454 4.921-5.389-2.102-14.106-.878-18.389-4.086 10.348-3.5 19.779 5.348 27.584 4.086-7.393-3.851-19.161-8.753-30.649-5.108 1.188-.166 1.817.226 2.044 1.022-4.35-.453-11.041-3.369-11.041-3.369l-.002-.787zm41.692 8.242c10.512 1.067 20.368 2.791 28.606 6.13-5.183-5.722-18.201-9.032-28.606-6.13zm44.952 4.087c-2.877-.912-10.646-2.235-13.282 0 4.672.134 9.253 1.439 13.282 0zm20.433 7.152c.438-1.604 3.213-.874 2.044-4.087-1.023 0-2.044 0-3.066 0 .174 1.529-.364 3.771 1.022 4.087zm28.605 6.129c-1.4-.968-9.135-4.236-7.151-2.043 2.235.229 5.5 4.608 7.151 2.043zm19.411 5.108c-2.614-.839-7.005-5.185-10.216-2.043 4.571-1.114 8.424 3.769 10.216 2.043zm8.174 6.131c-2.687-1.4-3.873-4.301-7.152-5.109.818 2.639 5.033 7.158 7.152 5.109z"/><path d="m89.733 48.703c16.345 4.087 26.011 14.855 39.844 21.454 18.857-7.869 41.552-26.123 68.448-13.281 2.914 2.56 9.805 6.506 12.261 6.13.868-.188.962.398 1.021 1.021 3.871 3.961 8.099 7.565 12.259 11.238 3.537 3.276 5.903 7.72 9.195 11.238 1.51 7.345 6.115 11.594 6.129 20.433 1.171 3.213-1.604 2.482-2.043 4.086 4.464 2.558.56 9.475 1.023 14.303-3.631 1.589-.618-3.47-3.067-3.065-1.612 1.79-1.365 5.444-2.041 8.174-2.37-.327-3.923.164-5.108 1.021-.406 2.448 4.653-.567 3.065 3.065-4.573-1.509-3.138 2.991-7.152 2.043 1.576 2.141 6.075.363 2.043 3.064-.826-.193-1.019-1.024-2.043-1.021-.341 0-.681 0-1.022 0-4.242-3.931-10.01-6.335-16.347-8.173-2.241-1.164-4.175-2.636-8.173-2.043-14.954-4.798-23.125-16.379-42.908-16.347.437-3.842-3.195-3.616-4.086-6.13 2.956-1.81 2.334-7.2 5.108-9.195.16 1.204-.176 2.901 1.022 3.065.362-3.534 1.196-5.436-1.022-8.173-4.736-2.664-20.436 1.92-22.477 7.152-2.713.011-5.834-.385-7.151 1.022-2.325-11.619-10.334-20.078-26.563-24.519-3.229 1.196-5.351 3.501-8.172 5.108-.012-1.031-1.791-1.285-2.044 0 1.819.564 4.242.525 5.108 2.043-4.076.04-14.75-2.041-21.454-5.108.442-8.894 4.445-14.968 2.043-24.519-5.677 1.828 0 16.581-6.13 20.432-1.912.054-2.163-.786-1.021-2.043-5.395 1.553-14.19-.239-17.368-4.087-3.744 3.246-15.834 6.128-16.346 2.043 9.903-9.848 22.502-17.001 38.823-20.432 5.448.001 10.897.001 16.346.001zm127.705 34.736c-9.844-13.665-39.788-7.042-41.887 9.193 7.097 16.395 59.592 15.389 41.887-9.193z"/><path d="m198.025 56.876c4.204 1.929 8.751 3.507 12.261 6.13-2.456.376-9.347-3.57-12.261-6.13z"/><path d="m211.307 64.027c3.319.768 4.282 3.891 7.152 5.108 1.057 2.69 4.05 3.442 5.107 6.13-4.161-3.672-8.388-7.277-12.259-11.238z"/><path d="m206.197 130.434c6.337 1.837 12.105 4.242 16.348 8.173-.993.028-.793 1.251-1.022 2.043-4.725-2.24-8.658-.685-13.281-4.087.671-3.059 2.184.977 4.086 0-2.084-3.025-7.527-2.689-10.216-5.108 3.37-.899 6.38 2.625 4.085-1.021z"/><path d="m26.391 161.083c2.282 2.826 3.977 6.239 5.109 10.216-2.284-2.825-3.977-6.24-5.109-10.216z"/><path d="m35.586 180.494c3.239 3.912 6.16 8.142 8.173 13.282-2.997-4.155-6.067-8.236-8.173-13.282z"/><path d="m232.761 86.503c-3.292-3.518-5.658-7.962-9.195-11.237-1.057-2.689-4.05-3.44-5.107-6.13 5.653 4.904 11.016 10.097 14.302 17.367z"/><path d="m73.387 88.547c-1.363 0-2.724 0-4.088 0-.746 5.385-.393 11.866-3.064 15.324-5.615-1.766-1.045-7.498-2.043-13.281-6.094-5.857-19.293-3.6-22.477 0 4.721-2.09 3.757-9.866 7.152-13.282 2.584 5.972 6.953 2.88 11.238 7.152 4.487-2.318.138-8.906 4.087-10.216v11.238c2.793-2.446 6.555 2.003 9.195-1.022-3.71 1.569-5.661-3.746-3.066-5.108 3.121 3.008 10.075 2.184 12.26 6.129-4.184.993-6.545-2.529-9.194 0-.717 3.782 4.367 1.762 5.107 4.087-2.369.326-3.922-.164-5.107-1.021z"/><path d="m73.387 88.547c1.184.857 2.738 1.348 5.107 1.022 1.485.558 5.281-1.194 5.109 1.021 2.256 3.192 12.505-1.609 13.281 3.066-.825.878-2.8.607-3.065 2.042 5.721.41 7.149 5.111 10.216 8.173-.087-1.45-.168-2.893 1.023-3.065 1.024 1.629.965 4.112 3.064 2.044-.792.909-1.099 2.307-1.022 4.086 6.206 1.566 10.868 2.779 14.304-2.043-.911-.452-1.828-.897-2.044-2.043 4.358 2.453 7.86 5.76 12.258 8.173-1.449-.088-2.892-.169-3.063 1.022 1.475 1.249 1.55 3.898 3.063 5.108 1.9-.564 9.273-.834 7.153-2.044-1.484-.558-5.281 1.195-5.108-1.021 1.187.166 1.816-.226 2.043-1.022-1.189.166-1.818-.225-2.043-1.022 24.876 7.816 47.616 17.769 69.472 28.606-.092 2.788 1.7 2.056 0 4.087-1.198-.165-.863-1.862-1.022-3.065-3.184 3.628-11.753 1.869-11.239 9.195-4.78-3.234-8.458 2.059-14.303 1.021-1.725 2.021-1.116 6.377-2.043 9.195-1.585-8.373-6.572 6.92-9.195 0-2.398 5.435-10.773 4.893-13.282 10.216-2.88.218-11.88-4.167-11.237 2.044-3.357-2.847-6.603.961-6.129 5.108-2.932-1.245-5.63-1.494-6.129 2.043-6.442-5.738-16.912 7.043-23.498 1.022-1.199 1.526-4.245 1.203-4.087 4.087-2.498-2.951-5.53-5.368-9.194-7.152-2.854 1.572-7.923.93-8.173 5.108-10.276.06-21.271.839-24.519-6.13-5.159-.732-8.855 0-9.195 4.087-1.386-5.085-9.431-3.511-9.195-10.217-2.228-.185-3.249.837-3.065 3.065.471-5.127-6.254-4.185-4.086-8.173-1.188-.166-1.817.225-2.043 1.021-2.826-.687 2.843-5.359-3.065-4.085.336-4.763-.797-8.058-2.044-11.239-.827.195-1.018 1.026-2.043 1.022-.622-.057-1.209-.153-1.021-1.022 2.211-1.297 1.118-7.848-2.043-7.151-.795-.225-1.188-.855-1.022-2.043h2.043c-2.292-3.838-1.623-10.637-4.087-14.303-.622-.058-1.209-.153-1.022-1.022 1.701-5.128 1.701-17.347 0-22.476 1.594-11.347 6.464-19.417 10.217-28.605 2.888-.844 2.647 1.44 5.108 1.021-.308 3.714 5.446 1.364 7.152 3.066 1.293 3.723-5.137 7.521-6.13 12.259 1.528 2.835 4.179-1.773 5.108 1.022-.262 2.391-4.488.588-5.108 0-2.512 18.252 9.753 25.768 22.476 25.54 4.613-5.501 22.858-14.64 22.476-23.497-.056-1.323-3.165-3.63-3.064-4.087-.011.047 5.167-.065 4.085-1.021-2.167-1.915-6.599 2.181-6.13-2.044z"/><path d="m32.521 77.309c5.332 2.238 9.843.316 13.282 3.065-3.218 1.145-2.313.092-6.13 0-1.706-1.701-7.46.648-7.152-3.065z"/><path d="m24.347 152.909c1.025.004 1.217-.826 2.044-1.021 1.246 3.18 2.379 6.476 2.043 11.239 5.909-1.275.239 3.396 3.066 4.085.225-.796.855-1.187 2.042-1.021-2.168 3.987 4.558 3.046 4.087 8.172-.185-2.228.836-3.25 3.065-3.065-.236 6.705 7.808 5.132 9.194 10.217.34-4.086 4.037-4.818 9.195-4.086 3.248 6.968 14.243 6.189 24.52 6.129.25-4.178 5.319-3.535 8.173-5.108 3.664 1.785 6.695 4.201 9.194 7.152-.159-2.883 2.887-2.56 4.086-4.087 6.587 6.022 17.057-6.76 23.498-1.021.5-3.537 3.197-3.289 6.13-2.044-.475-4.146 2.771-7.954 6.128-5.107-.642-6.211 8.357-1.827 11.238-2.044 2.509-5.324 10.884-4.782 13.282-10.216 2.623 6.92 7.609-8.374 9.195 0 .926-2.819.318-7.175 2.043-9.195 5.845 1.038 9.523-4.256 14.303-1.022-.515-7.326 8.055-5.566 11.238-9.195.16 1.204-.176 2.901 1.022 3.065 1.701-2.03-.092-1.298 0-4.086-21.856-10.837-44.595-20.791-69.472-28.606-.827-.195-1.018-1.025-2.044-1.022-4.398-2.413-7.9-5.72-12.259-8.173-9.248-1.754-16.68-6.89-22.475-9.194-.777-4.675-11.026.126-13.281-3.066 10.339-.69 22.138-2.398 28.605 3.066-2.613 2.566-5.583-1.568-7.151 2.042 6.482 3.394 13.96 5.791 22.475 7.152 2.497.908 4.429 2.381 8.174 2.043.331 2.391 4.456.992 5.107 3.065-2.836 2.828-6.684-1.707-8.173 2.043 11.726 6.663 33.098 3.68 43.931 11.238h-7.151c-.317-1.387-2.558-.847-4.087-1.022 6.276 5.644 16.469 7.369 26.562 9.195 2.983 1.104 5.887 2.288 10.218 2.043 2.688 2.419 8.131 2.083 10.215 5.108-1.901.977-3.414-3.059-4.086 0-.681 0-1.362 0-2.044 0-.316-1.387-2.558-.846-4.085-1.021 3.904 5.29 13.352 5.037 19.41 8.173 4.384 2.767 10.511 3.792 12.261 9.194-11.228 31.342-33.358 51.781-55.17 72.537-13.341 2.322-17.544 13.786-30.648 16.346-2.175 6.352-9.195 9.788-14.304 13.282-5.694 3.892-11.806 7.403-17.367 11.237-28.139-20.219-51.275-45.44-72.536-72.536-2.013-5.139-4.934-9.369-8.173-13.281-1.235-3.19-2.478-6.376-4.086-9.196-1.132-3.976-2.826-7.39-5.109-10.216.66-4.063-2.702-4.105-2.043-8.172zm17.369 28.607c-1.502-3.886 4.566-.201 3.065-4.087-1.362 0-2.724 0-4.087 0 .174 1.529-.364 3.771 1.022 4.087z"/><path d="m18.218 128.391c2.464 3.666 1.794 10.465 4.087 14.302-.681 0-1.362 0-2.043 0 .197-5.646-2.816-8.083-2.044-14.302z"/><path d="m87.689 84.46c-1.984-2.193 5.751 1.075 7.151 2.043-1.651 2.565-4.916-1.814-7.151-2.043z"/><path d="m104.035 89.568c3.211-3.143 7.601 1.204 10.216 2.043-1.792 1.726-5.645-3.157-10.216-2.043z"/><path d="m127.532 102.85c-.862-2.203-5.267-.862-6.128-3.065 20.765 1.712 30.93 14.021 50.059 17.368-18.609-1.786-22.683-7.1-35.757-12.26-3.744.338-5.677-1.135-8.174-2.043z"/><path d="m169.419 121.239c2.406 3.736 15.95 5.155 22.476 8.173-10.093-1.826-20.286-3.551-26.562-9.195 1.529.175 3.769-.365 4.086 1.022z"/><path d="m206.197 136.563c-3.519-.499 22.701 11.015 27.586 6.13 1.428-1.426-14.064-.53-10.217-4.086 1.024-.004 1.216.827 2.043 1.021 5.529 1.702 13.886 4.14 13.28-4.086v6.129c8.845 3.756 15.832 9.371 22.478 15.325-8.923-2.315-18.564-3.912-24.521-9.194 7.291-.706 2.355 3.256 9.195 1.021-5.916-6.229-13.897-4.241-24.519-5.107-6.058-3.136-15.506-2.884-19.41-8.174 1.528.175 3.769-.365 4.085 1.021z"/><path d="m191.895 129.412c-6.525-3.018-20.069-4.436-22.476-8.172h2.043c9.46 3.983 16.43 4.135 26.562 7.151 3.999-.593 5.933.88 8.173 2.044 2.295 3.645-.715.122-4.085 1.021-4.33.244-7.234-.939-10.217-2.044z"/><path d="m17.196 127.369c.044-8.634-1.818-14.567 0-22.476 1.7 5.129 1.7 17.348 0 22.476z"/><path d="m238.89 106.936c4.282 6.883 1.571 21.134 0 28.606.606 8.227-7.751 5.789-13.28 4.087 4.032-2.702-.468-.924-2.044-3.065 4.014.948 2.58-3.552 7.152-2.043 1.588-3.632-3.471-.618-3.065-3.065 1.185-.856 2.739-1.347 5.108-1.021.676-2.73.429-6.384 2.042-8.174 2.448-.405-.564 4.654 3.066 3.065-.462-4.829 3.441-11.745-1.023-14.302.44-1.606 3.215-.875 2.044-4.088z"/><path d="m23.326 151.888c.167-3.233-2.715-3.415-2.043-7.152 3.162-.696 4.255 5.855 2.043 7.152z"/><path d="m69.299 73.222c6.131-3.851.453-18.604 6.131-20.433 2.402 9.552-1.601 15.626-2.043 24.519-1.382.322-1.952 1.454-4.088 1.023 0-1.704 0-3.407 0-5.109z"/><path d="m-40.151 63.261c6.288.893 10.145 4.219 16.648 4.896-.217-.763-.82-1.138-1.958-.979 11.011-3.495 22.29 1.204 29.378 4.896-7.482 1.209-16.522-7.272-26.44-3.917 4.105 3.075 12.461 1.901 17.626 3.917-11.967 1.84-25.232-3.487-35.254-6.855 0-.653 0-1.306 0-1.958z" fill="#fff"/><path d="m33.295 77.95c-7.897-3.201-17.344-4.854-27.42-5.876 9.973-2.782 22.452.39 27.42 5.876z" fill="#fff"/><path d="m36.232 75.991c2.526-2.142 9.973-.875 12.731 0-3.862 1.38-8.254.129-12.731 0z" fill="#fff"/><path d="m115.553 94.597c3.143.775 4.28 3.556 6.855 4.897-2.031 1.964-6.071-2.367-6.855-4.897z" fill="#fff"/><path d="m219.355 138.664c-3.687 3.409 11.162 2.551 9.794 3.917-4.682 4.682-29.816-6.354-26.442-5.875h1.959c4.432 3.261 8.201 1.77 12.73 3.917.22-.76.028-1.932.98-1.959z" fill="#fff"/><path d="m44.066 175.877h3.918c1.439 3.725-4.378.192-2.938 3.917-1.329-.303-.813-2.452-.98-3.917z" fill="#be1f21"/><path d="m91.071 52.489c15.667 3.917 24.933 14.239 38.191 20.564 18.078-7.543 39.831-25.039 65.612-12.73 2.792 2.455 9.399 6.236 11.751 5.875.832-.18.923.382.98.98 3.709 3.796 7.763 7.252 11.75 10.772 3.39 3.139 5.658 7.399 8.814 10.771 1.447 7.041 5.861 11.114 5.876 19.585 1.122 3.08-1.538 2.38-1.958 3.918 4.278 2.452.535 9.081.979 13.71-3.481 1.522-.592-3.326-2.939-2.938-1.547 1.715-1.311 5.217-1.958 7.834-2.271-.313-3.76.158-4.897.979-.388 2.348 4.461-.543 2.939 2.939-4.384-1.447-3.008 2.867-6.856 1.958 1.511 2.053 5.825.348 1.96 2.938-.794-.186-.978-.982-1.96-.98-.326 0-.652 0-.979 0-4.066-3.768-9.595-6.072-15.669-7.833-2.148-1.116-4.001-2.528-7.833-1.959-14.335-4.598-22.166-15.7-41.129-15.668.418-3.683-64.363-33.583-88.764-27.364-12.23-.785-28.355-6.919-26.791-13.766 9.493-9.441 21.57-16.296 37.213-19.585z" fill="#be1f21"/><path d="m194.874 60.323c4.029 1.848 8.389 3.362 11.752 5.875-2.352.362-8.959-3.42-11.752-5.875z" fill="#770505"/><path d="m207.605 67.178c3.181.736 4.104 3.73 6.855 4.896 1.013 2.578 3.882 3.299 4.896 5.876-3.988-3.52-8.041-6.976-11.751-10.772z" fill="#770505"/><path d="m202.707 130.831c6.074 1.762 11.604 4.066 15.669 7.833-.951.027-.759 1.199-.979 1.959-4.529-2.147-8.298-.656-12.73-3.917.643-2.933 2.093.936 3.917 0-1.998-2.899-7.216-2.577-9.792-4.897 3.23-.861 6.115 2.516 3.915-.978z" fill="#be1f21"/><path d="m30.356 160.208c2.189 2.709 3.812 5.982 4.897 9.793-2.188-2.707-3.811-5.982-4.897-9.793z" fill="#be1f21"/><path d="m39.17 178.814c3.106 3.751 5.905 7.805 7.834 12.731-2.872-3.982-5.816-7.893-7.834-12.731z" fill="#be1f21"/><path d="m228.169 88.722c-3.156-3.373-5.424-7.632-8.814-10.772-1.014-2.577-3.883-3.298-4.896-5.876 5.419 4.701 10.56 9.678 13.71 16.648z" fill="#be1f21"/><path d="m78.222 87.258c1.424.536 7.138 3.257 6.975 5.38 2.162 3.06 11.986-1.542 12.729 2.939-.79.842 21.75 9.911 21.544 8.813 4.177 2.351 13.926 9.577 13.709 8.813 23.846 7.492 45.642 17.032 66.592 27.42-.088 2.672 1.631 1.971 0 3.917-1.149-.158-.826-1.785-.98-2.938-3.052 3.477-11.265 1.792-10.773 8.813-4.581-3.1-8.106 1.975-13.71.98-1.653 1.936-1.07 6.112-1.957 8.813-1.521-8.025-6.3 6.634-8.815 0-2.298 5.21-10.326 4.69-12.73 9.793-2.762.208-11.388-3.995-10.772 1.958-3.218-2.728-6.329.922-5.875 4.897-2.811-1.193-5.397-1.431-5.876 1.958-6.174-5.5-16.21 6.752-22.523.98-1.149 1.462-4.068 1.154-3.917 3.917-2.394-2.828-5.3-5.145-8.813-6.855-2.735 1.508-7.594.892-7.833 4.896-9.851.058-20.39.804-23.503-5.875-4.945-.701-8.488 0-8.814 3.917-1.329-4.874-9.039-3.366-8.813-9.792-2.136-.178-3.115.8-2.938 2.937.451-4.914-5.996-4.012-3.917-7.833-1.139-.16-1.742.216-1.958.979-2.709-.66 2.725-5.138-2.939-3.917.322-4.564-.763-7.723-1.959-10.772-.792.186-.976.982-1.958.98-.597-.056-1.159-.147-.979-.98 2.119-1.244 1.072-7.524-1.959-6.855-.762-.215-1.139-.82-.98-1.958h1.959c-2.197-3.68-1.555-10.197-3.917-13.71-.596-.056-1.159-.147-.979-.98 1.629-4.916 1.629-16.628 0-21.544 1.528-10.876 6.195-18.613 9.792-27.419 2.769-.809 2.537 1.38 4.896.979-.295 3.56 5.22 1.308 6.856 2.938 12.909-.317 32.864 4.724 35.135 4.411z" fill="#be1f21"/><path d="m36.232 79.909c5.111 2.146 9.434.303 12.731 2.938-3.085 1.098-2.218.089-5.876 0-1.635-1.631-7.15.621-6.855-2.938z" fill="#770505"/><path d="m28.398 152.375c.982.003 1.166-.794 1.959-.98 1.195 3.049 2.28 6.208 1.959 10.772 5.664-1.221.23 3.257 2.938 3.917.216-.763.82-1.139 1.958-.979-2.078 3.821 4.369 2.919 3.918 7.833-.178-2.136.801-3.115 2.937-2.937-.225 6.426 7.485 4.918 8.813 9.791.327-3.916 3.869-4.617 8.814-3.916 3.114 6.68 13.653 5.933 23.503 5.875.24-4.004 5.099-3.388 7.834-4.896 3.512 1.71 6.418 4.026 8.813 6.855-.152-2.763 2.768-2.455 3.917-3.918 6.313 5.773 16.349-6.479 22.523-.979.479-3.39 3.065-3.151 5.876-1.958-.455-3.975 2.656-7.625 5.874-4.897-.615-5.953 8.011-1.75 10.773-1.958 2.403-5.103 10.431-4.584 12.73-9.793 2.514 6.634 7.293-8.025 8.815 0 .887-2.701.304-6.877 1.957-8.813 5.603.995 9.128-4.08 13.71-.98-.492-7.021 7.721-5.336 10.773-8.813.153 1.153-.169 2.78.979 2.938 1.631-1.946-.087-1.245 0-3.917-20.949-10.388-42.746-19.928-66.591-27.42-.793-.186-.977-.982-1.959-.979-4.216-2.312-7.573-5.483-11.751-7.834-8.865-1.681-15.988-6.604-21.543-8.813-.744-4.481-10.568.121-12.73-2.939 9.91-.662 21.22-2.298 27.419 2.939-2.504 2.459-5.351-1.502-6.855 1.958 6.214 3.253 13.381 5.552 21.544 6.855 2.393.871 4.245 2.283 7.834 1.959.318 2.292 4.271.951 4.896 2.937-2.72 2.711-6.408-1.635-7.834 1.959 11.24 6.387 31.725 3.527 42.108 10.772h-6.854c-.304-1.33-2.453-.812-3.918-.98 6.017 5.41 15.787 7.063 25.461 8.813 2.859 1.059 5.643 2.193 9.794 1.959 2.576 2.319 7.794 1.996 9.792 4.896-1.824.937-3.274-2.933-3.917 0-.653 0-1.306 0-1.96 0-.303-1.328-2.451-.812-3.915-.979 3.742 5.071 12.798 4.829 18.605 7.834 4.202 2.653 10.075 3.635 11.752 8.813-10.761 30.043-31.974 49.634-52.882 69.529-12.788 2.226-16.816 13.215-29.377 15.668-2.085 6.09-8.814 9.382-13.711 12.731-5.459 3.731-11.317 7.097-16.647 10.772-26.972-19.381-49.148-43.556-69.528-69.529-1.93-4.925-4.729-8.98-7.834-12.73-1.185-3.058-2.376-6.112-3.918-8.813-1.084-3.812-2.708-7.085-4.896-9.793.633-3.896-2.59-3.935-1.958-7.832zm16.648 27.419c-1.44-3.725 4.377-.192 2.938-3.917-1.306 0-2.611 0-3.918 0 .167 1.465-.349 3.614.98 3.917z" fill="#770505"/><path d="m22.522 128.872c2.362 3.514 1.72 10.031 3.917 13.71-.652 0-1.305 0-1.959 0 .191-5.413-2.698-7.748-1.958-13.71z" fill="#770505"/><path d="m104.781 91.66c3.078-3.013 7.287 1.153 9.793 1.958-1.718 1.654-5.412-3.027-9.793-1.958z" fill="#fff"/><path d="m127.304 104.39c-.826-2.111-5.049-.826-5.875-2.938 19.903 1.641 29.648 13.44 47.984 16.648-17.837-1.712-21.743-6.805-34.275-11.751-3.588.324-5.44-1.088-7.834-1.959z" fill="#fff"/><path d="m167.455 122.017c2.306 3.581 15.288 4.94 21.543 7.834-9.674-1.751-19.444-3.404-25.461-8.813 1.465.167 3.614-.35 3.918.979z" fill="#be1f21"/><path d="m202.707 136.706c-3.373-.479 21.76 10.557 26.443 5.875 1.367-1.366-13.482-.508-9.794-3.917.982-.003 1.166.794 1.959.98 5.299 1.632 13.31 3.968 12.731-3.917v5.876c8.477 3.599 15.173 8.981 21.544 14.688-8.552-2.219-17.794-3.75-23.503-8.812 6.989-.676 2.258 3.121 8.813.978-5.67-5.97-13.321-4.065-23.502-4.896-5.808-3.005-14.863-2.763-18.606-7.834 1.464.167 3.612-.35 3.915.979z" fill="#be1f21"/><path d="m188.998 129.851c-6.255-2.894-19.237-4.253-21.543-7.834h1.958c9.068 3.819 15.747 3.963 25.461 6.855 3.832-.569 5.686.842 7.833 1.958 2.199 3.495-.685.118-3.915.979-4.152.235-6.935-.9-9.794-1.958z" fill="#fff"/><path d="m21.543 127.893c.043-8.276-1.743-13.963 0-21.544 1.63 4.916 1.63 16.627 0 21.544z" fill="#770505"/><path d="m234.046 108.307c4.103 6.597 1.505 20.257 0 27.42.579 7.885-7.432 5.548-12.731 3.917 3.865-2.59-.449-.886-1.959-2.939 3.847.91 2.471-3.405 6.855-1.958 1.522-3.481-3.326-.591-2.939-2.938 1.137-.822 2.626-1.292 4.898-.98.647-2.616.411-6.118 1.958-7.834 2.347-.388-.542 4.461 2.939 2.938-.444-4.628 3.299-11.258-.98-13.71.42-1.536 3.08-.835 1.959-3.916z" fill="#770505"/><path d="m27.419 151.395c.161-3.098-2.602-3.273-1.959-6.855 3.031-.669 4.078 5.611 1.959 6.855z" fill="#770505"/><g fill="#fff"><path d="m143.316 224.599c.528.723.578 1.642.151 2.757-.376.994-.947 1.769-1.711 2.328-.1.073-.265.16-.494.261-.23.102-.397.191-.502.267-.331 1.121-1.032 2.072-2.101 2.853-.123.09-.259.186-.408.287-.293 2.301-.802 4.183-1.526 5.647.931-.283 1.558-.542 1.882-.778.126-.093.346-.294.659-.602.312-.308.474-.467.488-.477l.007-.005c-.048.077-.302.384-.76.921.046-.04.116-.09.21-.148.094-.057.162-.102.202-.131.432-.316.783-.782 1.052-1.397.116-.281.295-.843.535-1.689.027.009.046.019.056.033.04.055-.14.731-.539 2.027.182-.133.34-.378.477-.736.098-.287.197-.576.298-.867-.033-.045-.002-.093.096-.143-.159 1.428-.945 2.657-2.359 3.691-.473.346-1.294.641-2.46.887l-.177.129c-.155.287-.361.602-.62.944-.332.452-.667.82-1.005 1.101-.07.057-.489.368-1.258.929-.505.369-.989.639-1.451.808-.687.252-1.162.198-1.426-.162-.425-.582-.033-1.315 1.177-2.199.801-.584 1.984-1.152 3.549-1.702.211-.064.526-.168.943-.313.006-.003.016-.011.035-.025.095-.07.214-.421.358-1.056.123-.53.25-1.516.382-2.959.019-.174.035-.434.049-.778l-.046-.019c-.168.123-.406.33-.713.62-.308.291-.548.499-.721.626-1.605 1.173-2.807 1.213-3.605.121-.7-.959-.711-2.134-.032-3.524.558-1.147 1.367-2.107 2.426-2.882.124-.089.32-.202.591-.337s.468-.247.592-.337c.104-.077.251-.203.439-.379.189-.176.336-.303.44-.379.536-.392 1.013-.618 1.43-.678.165-.023.279-.057.343-.104.104-.077.234-.224.39-.441.154-.218.284-.365.388-.441.046-.034.119-.079.219-.139.1-.059.172-.105.217-.138-.004.003.095-.101.297-.311.495-.507.843-.836 1.048-.985 1.074-.785 1.904-.777 2.488.024zm-8.805 15.307c-.811.2-1.69.647-2.641 1.342-1.096.801-1.474 1.435-1.132 1.904.243.332.687.381 1.332.147.441-.161.895-.413 1.364-.755.059-.043.147-.113.265-.21.118-.096.207-.166.266-.209-.082.031-.266.03-.553-.005-.286-.034-.452-.081-.495-.141-.06-.082-.066-.182-.02-.3.197-.541.418-.902.665-1.081zm2.617-5.858-.124.09c-.105.077-.255.198-.45.365s-.346.289-.45.366c-.578.422-1.157.671-1.737.745-.715.09-1.27-.133-1.661-.669-.658-.901-.665-2.113-.02-3.638l-.048.035c-1.003 1.863-1.137 3.3-.399 4.309.711.975 1.834.901 3.367-.219.469-.342.976-.803 1.522-1.384zm-1.834-5.117c-.277.118-.569.29-.879.516-.782.572-1.364 1.318-1.746 2.238-.439 1.061-.393 1.955.14 2.683.69.945 1.791.867 3.301-.237l.608-.443c-.782-.106-1.361-.416-1.737-.929-.418-.574-.564-1.203-.437-1.889.073-.388.318-1.006.736-1.857.011-.014.015-.041.014-.082zm-2.172 12.585-.047.035c-.15.109-.176.232-.077.369.057.077.148.101.273.073zm2.839-1.687c-.194-.026-.583.113-1.172.417-.483.256-.861.483-1.135.682-.363.266-.44.542-.231.829l.075.102c.053.073.326-.07.817-.429l.416-.304c.696-.509 1.106-.941 1.23-1.297zm-2.049.691c-.014-.01-.033-.007-.056.01l-.027.02c-.019.021-.026.036-.019.045.022.011.045.009.067-.007.033-.031.045-.054.035-.068zm1.268.403-1.337.977c.131.036.336-.046.612-.249l.226-.165c.068-.049.235-.237.499-.563zm-.849-.646c-.017.006-.036.013-.057.021l-.124.09c-.045.034-.089.077-.135.13.037.002.085-.019.144-.062l.048-.035c.073-.053.11-.096.116-.127.009-.007.011-.012.008-.017zm.23-.116c-.016-.002-.04.008-.072.032l-.02.015c-.023.016-.038.038-.047.065.024.032.059.033.108.005.05-.037.061-.076.031-.117zm3.051-11.395c-.167-.095-.48-.142-.937-.143s-.758.052-.904.158c-.123.09-.31.342-.559.754-.737 1.216-.786 2.263-.145 3.141.2.273.509.496.93.671.473.198.835.206 1.085.023.041-.029.052-.588.032-1.676-.377-.087-.628-.214-.752-.383-.189-.259-.197-.452-.024-.578.016.204.071.37.164.497.226.309.425.4.599.275.103-1.157.273-2.071.511-2.739zm-2.289 11.98c-.016-.003-.035.001-.056.01l-.014.009c-.014.018-.023.035-.026.051.024.004.046.001.067-.007.015-.019.025-.04.029-.063zm2.842-13.442c-.231-.096-.594.037-1.09.399l-.846.618-.094.143c.506-.042 1.019-.023 1.539.058zm-.01 1.661-.367-.129c-.154.161-.237.985-.246 2.471.004.025.012.06.026.107.113-.551.31-1.367.587-2.449zm.52-1.709c-.118-.046-.213-.043-.286.011-.086.062-.209.283-.369.662-.16.378-.219.595-.18.649.033.046.095.088.183.128s.153.045.194.015c.136-.329.288-.818.458-1.465zm4.525-2.615c-.259-.355-.623-.518-1.091-.49-.394.023-.78.172-1.158.448-.642.469-1.04.893-1.196 1.272.091-.018.249-.018.471.001l.165.225c.316.432.344 1.067.084 1.906-.08.281-.214.694-.404 1.237-.204.504-.484 1.134-.839 1.889-.323.55-.65 1.134-.98 1.752l.035.047c.182-.083.353-.184.512-.301.415-.302.79-.657 1.127-1.064.417-.519.628-.97.634-1.353l-.024-.033c-.023-.032-.073-.071-.148-.117-.076-.046-.126-.087-.153-.124-.126-.172-.119-.311.022-.414.119-.086.24-.043.367.13.026.064.068.187.124.37.149-.025.382-.154.701-.387.746-.545 1.334-1.306 1.764-2.283.494-1.12.489-2.024-.013-2.711zm-3.878 5.764-.048.035c.077-.057-.232.236-.93.877-.021.162-.037.411-.049.748.38-.473.723-1.026 1.027-1.66zm-.967 2.086c-.015-.022-.033-.027-.052-.014-.006.012-.006.026-.001.043l.006.007c.014.01.028.014.04.012zm1.199-4.747-.084-.116c-.18-.246-.328-.326-.447-.239-.253.597-.398 1.122-.432 1.571.293.22.493.404.603.554.037.05.028.095-.026.135-.027.012-.05.014-.069.008l-.483-.39-.059-.01c-.128.589-.201 1.186-.219 1.792l.178-.129c.509-.372.886-.854 1.132-1.445.283-.681.252-1.258-.094-1.731zm-1.104 4.606c-.018-.007-.033-.008-.042-.001l-.005.035c.013.011.027.014.04.012zm.096-.112-.014-.021c-.022-.019-.039-.024-.053-.014l-.007.005c-.018.013-.021.034-.01.059l.015.021c.015.01.031.012.048.007l.013-.01c.016-.018.018-.034.008-.047zm.755-6.088c-.014.011-.033.02-.057.031s-.04.019-.049.026l-.13.095c-.109.079-.233.197-.369.354-.18.193-.246.322-.2.386l.14.033c.054.016.102.01.143-.02.063-.047.238-.348.522-.905zm-.708 5.98-.01-.014c-.024-.024-.045-.029-.064-.016l-.007.005c-.013.011-.012.031.002.061l.011.013c.024.025.043.032.057.022l.006-.006c.02-.012.021-.034.005-.065zm.098-.124-.01-.013c-.02-.028-.039-.035-.058-.021l-.006.005c-.014.01-.012.03.002.06l.011.014c.018.014.034.017.048.007l.006-.005c.015-.017.017-.033.007-.047zm.068-.123-.01-.013c-.025-.024-.047-.03-.064-.016l-.007.005c-.013.011-.013.031.002.061l.01.013c.018.015.034.017.048.008l.013-.01c.011-.015.013-.03.008-.048zm1.387-5.68c-.087-.119-.199-.127-.335-.028-.259.19-.481.526-.665 1.009l.011.013c.043.059.124.138.244.235s.204.178.25.242c.242.331.322.814.24 1.446.248-.376.411-.862.486-1.454.085-.648.007-1.135-.231-1.463zm-.728 4.09-.011-.013c-.024-.025-.043-.032-.057-.022l-.006.005c-.019.013-.02.035-.004.066l.009.014c.018.014.034.017.048.007l.013-.01c.015-.018.017-.033.008-.047zm.06-.118-.01-.013c-.025-.024-.044-.032-.057-.021l-.007.005c-.018.013-.017.033.003.061l.01.013c.012.018.029.021.047.008l.007-.006c.015-.017.017-.033.007-.047zm.238-4.202c-.017-.022-.041-.022-.073.001l-.008.005c-.032.023-.039.046-.022.069.028.001.054-.001.079-.006.008-.019.015-.042.024-.069zm.177 10.816c-.002.016-.006.028-.011.034-.004.008-.012.019-.022.033-.009-.001-.016-.006-.022-.015l-.015-.02c-.006-.009-.005-.017.003-.024.006-.003.015-.007.03-.011.013-.004.027-.003.037.003zm.048-.108-.015.053-.023-.004c-.01-.014-.013-.029-.011-.044.021-.009.037-.01.049-.005zm.29-10.604-.014-.02c-.021-.019-.039-.024-.053-.014l-.007.005c-.018.013-.019.032-.002.054l.015.021c.009.013.025.016.047.007l.007-.004c.014-.019.017-.035.007-.049zm.353 3.793-.235-.321c-.095.07-.1.164-.013.282.096.132.172.178.227.138l.013-.01zm-.203-3.588c-.014-.01-.04-.02-.074-.029-.019.013-.016.035.008.067l.004.007c.023.032.044.041.062.028.001-.028 0-.053 0-.073zm.081.213-.009-.014c-.026-.023-.045-.03-.058-.021l-.007.006c-.018.013-.017.033.003.06l.01.014c.013.018.027.022.04.012l.014-.01c.015-.018.017-.034.007-.047z" fill-rule="nonzero"/><path d="m143.912 232.788c.05.526.041.932-.027 1.215l-.031-.04c-.027-.036-.068-.034-.122.007.036-.028-.068.308-.311 1.005-.122.346-.269.646-.442.904-.086.128-.116.211-.09.246.085.113.207.11.364-.009.068-.051.135-.143.204-.277.068-.135.136-.227.204-.278.001.246-.151.484-.458.714-.162.122-.377.164-.645.126-.267-.038-.461-.136-.579-.293-.138-.184-.252-.856-.34-2.015l-.097-.127-.08.06c-.031.185-.093.458-.19.819.004.04-.012.095-.046.162l-.016-.02c-.06-.081-.04-.485.064-1.21.042.067.108.066.199-.002.171-.559.19-.929.054-1.109l-.06.046-.116.478-.036-.047c.02-.274.095-.661.227-1.16.029-.057.146-.163.353-.318l.196-.147c.014.046.025.14.032.282.008.093.047.187.117.282.126-.096.248-.145.365-.148l-.054 1.362c-.017.372-.034.743-.05 1.114.002.52.079.88.232 1.083.055.072.135.068.244-.013.207-.156.348-.417.424-.785.127-.412.281-1.036.464-1.871zm-1.439-4.045c.104.14.115.348.031.626-.083.278-.199.473-.348.585l-.063-.027-.132-.176c-.271-.36-.215-.685.169-.973.156-.118.272-.13.343-.035zm1.285 6.428c.005.045-.003.118-.026.218l-.034.026c-.01-.079.001-.154.031-.227zm.134-.919c-.004.052-.016.134-.036.248l-.034-.048.032-.224.023.003z" fill-rule="nonzero"/><path d="m146.783 219.035c.256.336.323.869.199 1.602-.103.681-.273 1.679-.509 2.994l-.454 1.875-.932 3.732c-.038.164-.01.986.085 2.466l.061.08c.082-.062.124-.112.129-.151.246-1.125.402-1.807.47-2.042.275-.977.576-1.589.902-1.839.345-.264.618-.263.82.001.096.126.143.424.141.894.033.045.047.119.042.223-.012.179-.205.497-.58.954-.34.408-.471.664-.392.768.048.062.152.103.314.122.161.019.278.076.35.169.061.08.109.22.144.417s.082.336.145.417c.041.054.081.065.122.034l.127-.097c.291-.222.593-1.147.906-2.776l.035.047c-.024.358-.048.711-.072 1.061-.056.652-.111 1.001-.166 1.05l-.034-.004v-.042l.033-.067c-.026-.016-.051-.042-.073-.08-.119.26-.306.642-.558 1.146l.05.067c.068-.051.145-.14.233-.266.089-.126.162-.211.219-.256l.022-.013c.022.251-.124.496-.437.735-.063.048-.223.102-.481.165-.423.103-.742.014-.957-.268-.171-.223-.287-.482-.345-.774s-.092-.445-.102-.459c-.075-.099-.243-.048-.503.15l-.129.095-.198 1.481c-.012.384-.045.809-.099 1.274.027.157.002.267-.075.333l-.595.529c-.078.074-.169.044-.27-.09l-.047-.06c-.038-.134-.078-.329-.119-.588l-.079-1.341c-.064-.084-.167-.098-.307-.041.01-.071.023-.173.041-.307.068-.264.142-.604.221-1.02.002-.015.001-.04-.002-.073l-.074-7.28c-.017-1.228.215-2.232.698-3.011-.01.007-.018.01-.026.009.006-.012.024-.035.052-.072.088-.088.218-.23.389-.424.023-.025.045-.052.065-.081-.005.003-.011.009-.02.015.074-.099.193-.349.36-.751.135-.314.291-.54.47-.677.319-.243.582-.227.79.045zm-1.771 1.977-.072-.095c-.246.189-.405.62-.479 1.293-.027.495-.053.99-.079 1.485l.061.08.08-.062zm.765-.211-.144-.189c-.122-.056-.214-.061-.276-.013l-.272 2.038c-.033.209-.074.55-.125 1.021l-.054 1.711-.109 3.422c-.004.124.016.215.061.273l.155-.104 1.055-4.544c.14-.584.198-1.206.173-1.869-.028-.796-.183-1.378-.464-1.746zm.639-1.51c-.164-.215-.351-.243-.559-.084-.107.081-.217.255-.332.52-.127.282-.158.468-.089.557.033.045.111.07.23.074.12.005.193.025.221.061l.168.221c.072.094.142.25.21.467.067.218.137.373.209.468l.107-.082c.146-1.132.092-1.867-.165-2.202zm.646 10.097-.292-.383c-.041-.054-.135-.024-.283.089-.372.284-.641.851-.807 1.701l.001.042c.075.099.245.047.509-.155.644-.492.935-.923.872-1.294zm.095-1.104-.241-.316c-.048-.062-.141-.041-.279.064-.174.133-.374.513-.602 1.14l.072.094c.072-.055.162-.148.271-.28.107-.133.195-.224.262-.276l.033-.025c.053-.034.18-.095.38-.185l.085-.042.036-.008-.006.005c.052-.038.047-.095-.011-.171zm1.475 3.063c.006.016.007.027.002.03l-.006.005c-.013.003-.027.003-.043.001-.013-.018-.017-.033-.012-.044.018-.014.036-.013.055.001z" fill-rule="nonzero"/><path d="m152.315 226.651c-.116.924-.22 1.549-.308 1.874-.2.725-.518 1.257-.954 1.596-.214.166-.471.27-.774.313-.404.058-.66.019-.767-.119-.37-.475-.582-.78-.637-.915-.023-.139-.051-.303-.083-.491-.011-.062-.032-.157-.06-.284-.103-.518-.035-1.111.205-1.779.239-.667.567-1.162.98-1.484l.286-.223c.118-.077.267-.079.447-.004.147.063.271.157.367.281.378.485.391 1.136.042 1.951-.177.416-.545 1.016-1.104 1.801.054.179.133.335.237.469.18.232.417.233.71.005.396-.308.707-.758.933-1.349.086-.238.231-.774.433-1.605zm-1.805-1.219c-.065-.084-.179-.131-.343-.139l-.201.155c-.199.156-.368.426-.504.811-.149.415-.152.713-.01.896l.083-.086c.299-.561.653-1.037 1.063-1.428.004-.059-.026-.129-.088-.209zm.208.696c-.017-.022-.041-.048-.072-.078-.03-.03-.052-.054-.066-.072-.06-.003-.136.032-.23.104-.129.1-.212.208-.25.324-.241.699-.314 1.412-.221 2.137l.083.107c.258-.201.49-.603.699-1.207.221-.641.24-1.08.057-1.315zm1.079 2.816-.072-.092c-.12.093-.257.262-.407.507-.237.367-.357.556-.363.567l.072.093c.272-.211.529-.57.77-1.075z" fill-rule="nonzero"/><path d="m169.193 204.433c-.19-.026-.47-.052-.84-.075-.516.01-.951.159-1.304.449-.03.025-.058.071-.084.136-.027.066-.053.109-.079.13-.137.215-.538.597-1.204 1.144-.244.201-.445.727-.604 1.58-.144.738-.202 1.338-.174 1.796l.296 5.12c-.008.151-.006.38.005.685.06.074.147.117.258.127.374.224.769.571 1.184 1.039.313-.258.589-.738.828-1.441.237-.704.344-1.044.318-1.023l.033-.027c-.055.847-.268 1.595-.639 2.243-.065.098-.163.248-.295.452-.04.076.023.277.188.6.072.123.171.315.298.575.417 1.065.454 2.183.112 3.355-.338 1.139-.954 2.076-1.846 2.81-2.049 1.686-4.064 1.462-6.046-.671-.34.199-.841.477-1.504.832-.756.375-1.285.38-1.586.014-.43-.521.108-1.402 1.613-2.641-.204-.124-.433-.34-.687-.649-.426-.517-.632-1.158-.618-1.921.011-.732.216-1.378.614-1.939.229-.327.485-.632.767-.916.043-.144.124-.485.244-1.021.074-.353.183-.731.327-1.133.05-.1.11-.248.181-.445.015-.078.014-.235-.003-.468-.092-1.238.604-2.573 2.088-4.006.111-.113.317-.301.62-.564l2.509-2.218c.869-.716 1.445-1.164 1.726-1.345.048-.032.2-.121.459-.267.241-.133.368-.205.381-.216.104-.085.191-.204.26-.355s.129-.249.181-.292l.033-.026c.037.107.046.263.026.47.97-.345 1.625-.311 1.964.102zm-10.366 17.657c-.175-.213-.354-.314-.534-.303-.044.035-.113.087-.208.153-.095.067-.163.119-.207.154-.669.551-1.08.984-1.23 1.297-.162.345-.167.608-.017.791.214.261.676.246 1.385-.046.559-.226 1.014-.484 1.366-.774l.124-.101c-.399-.715-.625-1.105-.679-1.171zm-.75-4.821-.038-.045c-.099.082-.179.184-.239.306-.716 1.399-.696 2.558.059 3.476.304.37.512.508.625.415l.046-.037c-.397-1.396-.548-2.767-.453-4.115zm3.543-1.055-.102-.123c-.329-.401-.778-.538-1.347-.414-.449.093-.895.322-1.339.687-.066.054-.155.14-.269.259s-.196.2-.249.243c-.176.503-.146 1.581.089 3.233.089.657.168 1.029.239 1.115l.038.046c.573-.297 1.001-.561 1.284-.794l.078-.065c-.061-.021-.191-.006-.389.047-.164.04-.277.023-.337-.051l.013-.011.002-.023c.234-.055.415-.109.545-.164.001-.016.004-.153.01-.414.002-.147.06-.268.173-.361.053-.043.132-.074.241-.094.107-.019.178-.043.213-.072l.02-.016c.021-.843.189-1.557.502-2.143.164-.171.36-.466.585-.885zm3.6-9.562-2.371 1.535c-.047.032-.103.079-.169.14-.076.069-.271.288-.587.658-1.394 1.621-2.307 3.029-2.738 4.224-.087.232.02.53.321.896.279.339.618.454 1.017.345.151-.038.247-.072.286-.104l.385-.317c.905-.745 1.404-1.885 1.497-3.421.003-.155-.022-.266-.076-.331-.218-.265-.608-.167-1.17.295-.378.311-.689.757-.934 1.338-.008-.161.116-.427.372-.799.228-.326.429-.56.602-.704.414-.34.8-.424 1.16-.254-.019-.181.003-.395.063-.642l.056.03.049.058c.124.54.192.991.205 1.353.055 1.414-.371 2.493-1.275 3.238-.509.418-.952.622-1.326.61-.522-.023-.842-.106-.96-.25l-.542-.659c-.066.054-.183.374-.352.962-.168.588-.257.968-.26 1.139 1.284-.904 2.417-.898 3.395.018.789-.584 1.632-.865 2.526-.841.009-.584-.054-1.409-.186-2.474-.137-1.106-.207-1.913-.209-2.422-.006-.9.124-1.715.386-2.442.099-.27.181-.433.246-.486.052-.043.091-.049.116-.019.043.053.039.1-.014.143-.153.462-.243.751-.27.868-.082.352-.089.646-.019.881l.173-1.04.026.339c.127-.535.32-1.157.577-1.865zm-4.41 13.938c-.244-.075-.474-.074-.685.006-.22.115-.434.23-.645.346-.169.087-.361.219-.574.394l-.169.14c.015.089.042.158.081.206.126.153.51.168 1.155.046.612-.117 1.008-.25 1.191-.4l-.001-.055zm.572.974c-.022-.018-.048-.04-.078-.067-.808.373-1.577.525-2.307.454l-.046.037c.218.434.406.746.563.937l.161.196.197-.107 1.429-1.176c.122-.1.149-.191.081-.274zm-2.021-9.598c-.1.235-.157.582-.173 1.04.046-.227.103-.573.173-1.04zm-.118 1.454c-.027.074-.011.147.051.221l.011.013zm.129.343-.011-.013c-.026-.022-.045-.028-.059-.017l-.006.005c-.017.014-.017.036 0 .066l.011.013c.019.014.034.015.047.005l.013-.011c.015-.019.016-.035.005-.048zm1.93-4.357c-.017.014-.043.032-.077.053-.034.02-.058.036-.071.047-.748.616-1.283 1.326-1.606 2.131-.003-.004-.007-.009-.01-.013l-.011-.013c-.022-.026-.041-.032-.059-.017l-.007.005c-.017.014-.014.034.007.061l.011.012c.014.018.029.023.046.017l-.018.058c.001-.008 0-.014-.004-.019l-.016-.019c-.022-.018-.042-.02-.059-.006l-.006.006c-.014.011-.013.029 0 .054l.017.019c.014.01.028.01.042-.002l.012-.011c-.112.326-.165.629-.16.91.519-1.179 1.176-2.27 1.969-3.273zm-1.859 2.448-.016-.019c-.018-.022-.034-.026-.053-.011l-.006.005c-.014.011-.013.029.001.055l.015.019c.015.01.031.011.048.004l.007-.005c.014-.018.016-.034.004-.048zm.105-.217c.01.021.009.037-.004.048l-.006.005c-.006.004-.009.003-.013-.001zm7.061 5.44c-.323.265-1.108.791-2.357 1.578-.06.042-.117.089-.169.14-.177.255-.411.582-.702.982-.528.697-1.083 1.336-1.662 1.915.397.484.855.726 1.375.729-.104.086-.285.097-.543.031-.074-.027-.181-.073-.323-.139-.137-.122-.356-.287-.661-.497l-1.787 1.472c1.804 2.192 3.741 2.436 5.811.732.848-.698 1.416-1.585 1.703-2.659.286-1.075.244-2.13-.128-3.167-.185-.518-.371-.891-.557-1.117zm-6.351-3.421c.007.017.006.033-.004.048l-.006.006c-.021.01-.037.009-.048-.005l-.016-.019c-.013-.026-.014-.044-.001-.054l.007-.006c.016-.015.034-.011.053.011zm.063 6.593-.006-.007c-.021-.026-.04-.032-.058-.017l-.006.005c-.018.014-.016.034.006.06l.006.007c.029.027.051.035.063.024l.007-.005c.017-.015.013-.037-.012-.067zm-.03-6.991.006.006c.022.027.018.052-.013.078l-.024-.003-.013-.043.015-.034c.008-.009.018-.01.029-.004zm.091-.315.009.024-.013.023-.013.011-.018.004-.023-.014-.005-.006-.011-.025.009-.017.012-.011.026-.011.022.015zm.04-.284.011.012c.02.034.024.056.011.068-.016.006-.036.008-.061.006-.008-.037-.003-.063.014-.077.004-.004.012-.007.025-.009zm.056 7.515c-.019-.006-.038-.002-.055.012l-.02.016c-.017.015-.022.026-.015.035l.016.019c.025-.006.046-.016.064-.03.013-.018.016-.035.01-.052zm.003-7.696.011.013c.018.03.012.056-.012.077l-.036-.004-.008-.049.015-.034c.012-.003.023-.004.03-.003zm.254 7.835c-.046.015-.097.033-.155.051l-.098.08c.051.009.127.016.226.022l.019-.016.025.003.002-.024c.022-.018.015-.057-.019-.116zm-.163-8.031c.011.021.009.037-.004.048l-.007.005c-.018.015-.033.013-.047-.004l-.011-.013c-.014-.026-.015-.043-.001-.054l.006-.006c.017-.014.035-.01.053.011zm.017-.166.005.007c.025.03.031.051.018.061-.017.007-.037.009-.061.007-.009-.037-.005-.061.008-.072.008-.007.018-.008.03-.003zm.089-.117c.006.016.005.032-.005.047l-.012.011c-.017.007-.033.005-.049-.005l-.016-.019c-.013-.025-.011-.045.007-.059l.006-.006c.013-.011.031-.007.053.012zm-.002 8.11-.01-.013c-.023-.018-.04-.021-.053-.011l-.007.006c-.018.014-.02.033-.006.058l.01.013c.019.014.035.016.048.005l.014-.011c.017-.014.02-.03.004-.047zm1.066-3.745c-.365.301-.644.817-.837 1.549s-.214 1.322-.061 1.774c.344-.283.6-.556.77-.82.263-.399.417-.814.463-1.246.053-.502-.059-.922-.335-1.257zm2.667-.923c-.177-.214-.552-.226-1.126-.037-.48.161-.853.351-1.118.569l-.195.162c.356.662.409 1.352.16 2.068-.218.632-.636 1.201-1.253 1.71l.037.045 2.483-1.211c.196-.162.391-.487.588-.976.189-.462.326-1.159.413-2.091.004-.056.008-.136.011-.239zm-1.503 3.84-1.885.873c-.005.004-.02.017-.047.038-.026.074-.001.158.079.254l.011.013c.397-.05.956-.372 1.678-.966.078-.064.133-.135.164-.212zm.629-.233c-.073-.027-.175.013-.305.12-.082.069-.196.175-.34.318-.145.145-.256.249-.334.314-.23.189-.56.377-.99.564-.314.133-.46.191-.438.173-.113.093-.044.292.206.597l.064.078c.156-.077.283-.157.384-.239l.509-.418c.639-.527 1.054-1.029 1.244-1.507zm-1.351 1.856c-.06.05-.157.121-.29.212s-.229.162-.291.212l-.11.092.102.124c.286-.237.483-.45.589-.64zm1.677-2.617-.166.29.058-.048c.093-.076.128-.156.108-.242zm2.544-1.524-.425-.516c-.325-.395-.589-.579-.792-.551-.005.004-.051.187-.138.551-.175.728-.373 1.364-.594 1.912.544-.28 1.056-.618 1.54-1.016l.286-.236c.044-.035.085-.084.123-.144z" fill-rule="nonzero"/><path d="m169.778 199.783c.258.298.359.879.302 1.742-.011.226-.032.569-.06 1.026.02.453-.004 1.134-.072 2.043l-1.029 5.607c-.148.8-.113 1.632.105 2.494l.079.065.077-.066c.026-.022.084-.364.173-1.024.079-.605.124-.987.136-1.146.025-.022.062-.013.11.026.02.006.043-.003.069-.025l.044-.039c.343-.662.628-1.093.857-1.292.036-.105.02-.196-.046-.273-.03-.034-.076-.08-.137-.139-.062-.058-.105-.102-.132-.132-.021.018-.056.042-.108.072-.052.031-.091.057-.117.079-.025.022-.037.04-.039.056-.058.052-.119.145-.179.28l-.044.039c.013-.209.075-.36.186-.457.37-.322.695-.32.976.003.222.256.362.818.42 1.685.081 1.161.134 1.794.158 1.9l.067.077c.038-.034.101-.074.185-.122.085-.048.146-.086.179-.116.192-.167.348-.63.47-1.392.084-.557.128-1.07.132-1.537l.039.045c.068.396.06 1.037-.022 1.921-.039-.07-.087-.079-.147-.028l-.045.038c-.022.259-.133.608-.331 1.049-.119.259-.163.402-.132.428l.067.053c.048-.041.111-.104.192-.193.079-.088.144-.152.19-.193l.015-.008c-.059.19-.169.354-.331.495-.148.129-.349.229-.602.299-.298.086-.502.066-.612-.062-.152-.174-.235-.463-.251-.868l-.072-2.175-.167-.191c-.012.011-.036.026-.072.046-.034.019-.061.036-.078.051-.069.059-.108.104-.118.136-.063.048-.097.091-.099.13-.517 1.142-.717 2.696-.6 4.662.006.033.008.082.008.15l-.652.565c-.077.023-.204.035-.38.039-.256-.853-.37-1.5-.342-1.942-.126-.144-.215-.194-.265-.15-.017.015-.03.03-.039.045.01-.039.045-.28.104-.723s.088-.697.084-.761l-.346-7.346c-.015-.405-.004-.765.034-1.082.057-.399.19-.866.398-1.398.08-.294.205-.726.373-1.298.152-.52.373-.906.662-1.157.298-.258.556-.262.775-.011zm-.61 1.901c-.181-.209-.407-.194-.68.041l-.09.078c-.008.008-.014.039-.018.095-.033.425-.07 1.062-.11 1.91-.005.167.003 1.034.02 2.602-.008.507.005 1.118.039 1.837.047.286.121.715.22 1.286l.106.121.069-.061c.009-.007.031-.124.067-.349.111-.551.259-1.373.443-2.467l.23-1.889c.08-.526.153-1.152.215-1.879-.027-.522-.197-.963-.511-1.325zm.294-1.598c-.181-.209-.373-.225-.576-.049-.263.229-.413.69-.448 1.385l.066.077c.388-.195.783-.142 1.185.158l.089-.078c-.018-.26-.036-.52-.054-.781-.038-.318-.126-.555-.262-.712zm.129 10.014c.025.03.026.056 0 .078l-.038.033c-.002-.02-.004-.044-.007-.072zm.053-.338c.008.009.009.023.004.042-.009 0-.025-.005-.048-.015.001-.008.003-.017.009-.03l.006-.005c.013-.003.022-.001.029.008zm.078-.246c.007.016.008.026.004.031l-.006.005c-.013.003-.029.002-.048-.004-.011-.012-.015-.025-.01-.036.017-.015.035-.015.054-.002zm.029-.198c.012.014.018.029.017.046-.02.002-.041-.001-.061-.008l.008-.03c.012-.011.025-.013.036-.008z" fill-rule="nonzero"/><path d="m175.183 207.198c.094.521.118.925.074 1.214l-.034-.038c-.029-.034-.069-.028-.12.016.033-.03-.042.314-.227 1.029-.092.353-.214.666-.365.936-.076.135-.099.22-.069.254.095.105.215.092.362-.039.063-.056.124-.153.181-.291.059-.137.12-.235.183-.291.021.244-.111.494-.397.749-.151.135-.362.194-.632.179-.271-.016-.472-.098-.602-.244-.155-.173-.325-.833-.51-1.981l-.107-.12-.075.067c-.015.187-.055.464-.121.831.007.04-.005.096-.033.166l-.016-.019c-.068-.076-.081-.479-.038-1.211.047.062.114.056.198-.018.125-.572.112-.941-.038-1.11l-.056.051-.077.486-.039-.044c-.005-.277.037-.669.126-1.18.023-.059.131-.174.324-.347l.184-.163c.017.045.036.138.056.279.015.093.062.183.14.271.118-.104.236-.164.351-.177l.06 1.363c.015.372.031.743.046 1.115.046.517.153.871.322 1.06.06.068.141.056.242-.033.193-.172.313-.445.358-.817.091-.422.193-1.056.305-1.904zm-1.772-3.913c.116.131.145.339.083.623-.06.285-.16.489-.3.614l-.064-.022-.147-.164c-.301-.337-.271-.666.088-.986.148-.132.262-.154.34-.065zm1.817 6.301c.01.044.007.117-.008.219l-.032.029c-.016-.078-.012-.154.012-.229zm.056-.927c.001.052-.003.135-.014.25l-.04-.044.014-.227.023.002z" fill-rule="nonzero"/><path d="m178.407 204.614c-.043.932-.096 1.563-.159 1.895-.141.74-.416 1.296-.823 1.668-.2.182-.449.306-.747.372-.399.09-.657.07-.776-.059-.405-.445-.641-.733-.708-.864-.033-.137-.074-.299-.121-.484-.017-.061-.045-.154-.083-.279-.144-.509-.122-1.106.065-1.792.187-.684.473-1.203.86-1.556l.268-.245c.112-.086.259-.1.444-.039.153.051.283.135.39.251.413.454.478 1.102.191 1.942-.144.428-.464 1.056-.961 1.883.067.175.158.325.272.45.198.216.434.199.709-.052.372-.339.647-.812.826-1.418.068-.245.17-.789.308-1.634zm-1.895-1.074c-.072-.079-.191-.117-.354-.113l-.187.171c-.187.171-.334.453-.439.847-.116.426-.096.724.06.894l.076-.092c.254-.582.571-1.085.949-1.505-.002-.06-.037-.127-.105-.202zm.261.677c-.019-.02-.044-.044-.077-.072s-.057-.05-.072-.066c-.06.001-.134.041-.221.121-.12.11-.195.225-.224.343-.184.718-.2 1.435-.049 2.153l.092.1c.24-.219.441-.64.601-1.258.169-.659.152-1.099-.05-1.321zm1.297 2.723-.079-.085c-.113.102-.235.281-.367.538-.206.383-.312.581-.317.593l.079.086c.254-.232.482-.609.684-1.132z" fill-rule="nonzero"/><path d="m182.749 200.487c.049.544-.161 1.126-.629 1.746-.137.184-.223.293-.26.327-.031.091-.072.232-.126.421-.071.106-.083.138-.038.095l-.049.046c.018-.621.022-.935.014-.944-.054-.057-.114-.055-.179.007l-.061.058c-.035.119-.166.506-.392 1.161-.264.738-.418 1.132-.464 1.183-.027.111-.043.196-.049.256.08.094.242.026.484-.202.115-.108.182-.185.202-.23-.01.073-.038.132-.087.179l-.479.44c-.112-.004-.222.045-.327.145-.05.047-.114.121-.192.222-.079.101-.141.173-.186.215-.127.12-.235.133-.325.039-.042-.045-.064-.098-.066-.157-.124-.705-.244-1.76-.364-3.165-.143-.151-.252-.19-.33-.117-.201.19-.366 1.02-.496 2.49l-.042.041c-.007-.04-.019-.102-.037-.187-.002-.068-.003-.168-.003-.299-.028-.26-.052-.649-.068-1.168.041.07.103.065.186-.012l.055-.053c.083-.419.287-.93.611-1.53.03-.059-.008-.144-.113-.255-.073-.078-.124-.103-.153-.076l-.377.351c.005-.11.07-.225.197-.345.25-.236.452-.272.607-.108l.29.307c.26.275.448.683.565 1.225.081.373.129.809.143 1.309l.013.64c.011.012.033.029.064.05s.055.039.07.056l.142-.133c.085-.081.244-.472.474-1.171.226-.672.354-1.111.383-1.318-.194-.353-.315-.699-.366-1.04-.011-.068-.041-.454-.094-1.157-.017-.125-.037-.249-.062-.373-.012-.144.029-.261.123-.349.124-.117.269-.086.435.09.279.295.443 1.191.494 2.688.073.078.124.103.153.077.307-.291.53-.769.668-1.434zm-4.386 1.215c.008.016.009.034.005.054-.016.008-.034.001-.053-.019-.005-.004-.002-.01.006-.018l.007-.006c.011-.011.024-.015.035-.011zm3.268.039c-.094.089-.096.181-.008.275.095-.089.098-.181.008-.275zm1.168-1.521c-.009.024-.016.057-.021.101l-.012.012-.024-.001.017-.155z" fill-rule="nonzero"/><path d="m185.903 197.41c-.007.934-.034 1.567-.084 1.902-.112.745-.366 1.311-.759 1.699-.193.19-.437.323-.732.4-.395.104-.655.094-.778-.031-.424-.431-.671-.71-.742-.838-.039-.136-.085-.296-.14-.48-.019-.06-.051-.152-.093-.276-.165-.504-.166-1.102-.007-1.793.161-.692.427-1.222.8-1.589l.259-.255c.109-.09.257-.109.444-.056.155.046.288.125.399.238.433.439.523 1.084.272 1.934-.125.433-.42 1.072-.882 1.916.074.172.171.318.291.439.206.21.441.184.707-.076.355-.351.611-.834.765-1.448.057-.247.136-.795.238-1.645zm-1.934-1.001c-.075-.077-.194-.109-.357-.099l-.181.178c-.18.178-.316.466-.407.864-.1.429-.068.726.095.891l.072-.096c.232-.592.529-1.105.89-1.54-.003-.059-.04-.126-.112-.198zm.287.669c-.019-.02-.046-.043-.079-.07-.033-.026-.059-.047-.075-.063-.059.004-.131.047-.215.13-.116.115-.187.231-.212.35-.157.723-.146 1.439.031 2.15l.095.096c.233-.229.417-.655.554-1.279.143-.663.11-1.101-.099-1.314zm1.395 2.667-.082-.084c-.108.107-.224.291-.345.553-.191.392-.287.595-.292.607l.082.084c.245-.241.458-.628.637-1.16z" fill-rule="nonzero"/><path d="m189.089 194.488c.041.528-.088 1.17-.386 1.926-.29.732-.626 1.294-1.007 1.685-.566.58-1.078.649-1.533.205-.196-.192-.319-.454-.368-.783-.047-.33.024-.592.213-.785.027-.028.07-.064.126-.106.058-.042.099-.076.122-.101l.146.142c.125.123.174.371.147.746-.028.376.032.634.176.776.226.22.434.234.622.041.439-.451.559-1.086.357-1.903-.038-.139-.291-.783-.759-1.932l-.109-.106-.071.072c-.069.554-.192 1.23-.372 2.027l-.096-.047c.005-.151.012-.384.02-.698.051.057.104.056.164-.005.075-.077.134-.338.178-.785s.037-.7-.023-.759c-.053-.051-.1-.051-.14-.001.012-.052.052-.347.123-.885.058-.462.115-.721.17-.777.063-.065.119-.073.167-.026.133.129.172.344.115.643-.075.416-.109.651-.099.707.104.102.269.272.495.507.382.414.627.711.733.893.15.264.252.639.306 1.124l.073.07c.13-.141.285-.749.467-1.822zm-2.591-.166c.005.02.003.038-.005.054-.011.005-.024.001-.036-.011l-.006-.006c-.012-.02-.016-.032-.013-.035l.007-.007c.02-.012.038-.011.053.005zm2.616-.176c.048.047.048.096.002.144v.024l-.018.018h-.024c.004-.035.007-.087.011-.155z" fill-rule="nonzero"/><path d="m190.781 194.251c.247.233.26.465.042.697-.143.151-.295.15-.457-.002-.227-.214-.246-.421-.058-.621.174-.183.331-.208.473-.074z" fill-rule="nonzero"/><path d="m192.015 192.925c.25.232.267.465.05.701-.142.153-.295.153-.46.002-.229-.213-.252-.42-.063-.623.17-.186.329-.213.473-.08z" fill-rule="nonzero"/><path d="m193.226 191.595c.254.23.273.464.057.703-.141.156-.294.158-.461.007-.233-.211-.257-.419-.071-.624.171-.19.329-.218.475-.086z" fill-rule="nonzero"/></g></svg>