<?xml version="1.0" encoding="UTF-8" standalone="no"?><!DOCTYPE svg PUBLIC "-//W3C//DTD SVG 1.1//EN" "http://www.w3.org/Graphics/SVG/1.1/DTD/svg11.dtd"><svg width="100%" height="100%" viewBox="0 0 250 300" version="1.1" xmlns="http://www.w3.org/2000/svg" xmlns:xlink="http://www.w3.org/1999/xlink" xml:space="preserve" xmlns:serif="http://www.serif.com/" style="fill-rule:evenodd;clip-rule:evenodd;stroke-linejoin:round;stroke-miterlimit:1.41421;"><g id="kungfu"><rect x="0" y="-3" width="385.745" height="302.25" style="fill:#9f0019;"/><path d="M64.75,-3l-17.479,28.401l9.172,26.108c0,0 -0.269,4.205 -0.104,5.36c0.164,1.156 1.816,5.615 2.642,6.936c0.827,1.321 0.827,5.12 1.982,6.605c1.155,1.486 3.468,4.625 4.624,5.286c1.157,0.66 6.276,3.798 6.606,4.624c0.33,0.825 4.624,14.532 5.45,16.514c0.825,1.981 4.292,14.038 4.788,15.193c0.495,1.157 0.331,2.808 0.66,3.469c0.331,0.659 -24.773,22.789 -26.754,27.083c-1.982,4.293 -3.302,31.545 -4.459,35.838c-1.157,4.293 -9.909,18.496 -10.734,19.322c-0.826,0.826 -12.384,19.817 -15.028,21.304c-2.642,1.487 -3.633,8.753 -2.147,10.734c1.486,1.981 6.77,7.431 7.596,7.927c0.826,0.495 8.918,-11.56 8.918,-11.56c0,0 2.808,0.66 3.799,2.311c0.991,1.653 4.458,8.094 4.788,12.387c0.331,4.293 2.808,11.56 3.303,13.047c0.496,1.487 1.982,6.44 1.982,6.44l-0.33,5.946c0,0 -13.047,28.9 -14.864,31.708c-1.816,2.807 -13.871,23.781 -15.688,25.267c-1.817,1.485 -6.11,11.891 -6.771,13.212c-0.66,1.321 -6.936,13.211 -7.761,14.533c-0.826,1.322 -4.955,10.569 -5.781,11.891c-0.826,1.321 -2.147,3.633 -2.147,4.459c0,0.826 0.495,5.119 0.495,6.276c0,1.156 3.137,4.789 3.469,5.45c0.33,0.66 0.165,7.102 0.165,7.761c0,0.661 1.156,3.798 2.476,4.293c1.322,0.497 8.752,4.294 10.074,5.12c1.322,0.827 10.24,0.165 10.24,0.165c0,0 1.65,-2.313 0.989,-4.129c-0.66,-1.817 0.992,-2.311 1.652,-2.807c0.66,-0.496 3.303,-2.311 3.965,-2.643c0.659,-0.33 1.98,-0.329 2.476,-0.825c0.495,-0.496 1.322,-3.469 0.661,-4.624c-0.661,-1.157 -3.303,-3.138 -3.303,-3.138c0,0 -1.321,-14.204 -0.991,-15.194c0.33,-0.99 3.633,-9.412 3.302,-12.221c-0.33,-2.806 -2.311,-6.935 -1.651,-8.257c0.66,-1.321 18.661,-18.001 19.817,-19.322c1.156,-1.321 13.873,-12.881 14.203,-13.542c0.331,-0.661 2.973,-1.487 3.633,-0.66c0.66,0.826 1.487,1.487 1.322,2.312c-0.165,0.826 -0.002,7.596 -0.165,8.422c-0.165,0.826 -2.809,6.606 -2.809,7.927c0,1.321 -0.495,5.119 0,6.109c0.496,0.992 2.312,5.286 1.982,6.111c-0.33,0.826 -2.972,6.277 -3.632,7.762c-0.661,1.485 -5.451,14.202 -6.606,15.688c-1.157,1.486 -6.111,6.77 -6.772,7.762c-0.659,0.991 -5.614,7.266 -6.44,8.918c-0.826,1.652 -4.292,9.084 -4.954,10.074c-0.663,0.991 -0.661,4.129 -1.157,4.955c-0.497,0.826 -5.45,8.092 -5.946,9.247c-0.495,1.156 -7.926,14.204 -8.752,15.36c-0.825,1.156 -6.236,2.986 -6.236,2.986l-22.4,0.489l0,-426.17l64.63,0Z" style="fill-rule:nonzero;"/><path d="M109.596,68.51c4.112,1.436 -1.477,5.57 -2.38,7.139c-3.105,-0.425 2.067,-4.977 2.38,-7.139Z"/><path d="M127.047,73.27c1.592,-0.27 2.482,0.161 2.38,1.586c-0.793,0 -1.586,0 -2.38,0c0,-0.528 0,-1.056 0,-1.586Z"/><path d="M114.355,84.377c-0.077,2.039 -3.096,1.134 -3.173,3.174c3.524,-0.89 7.339,-1.544 11.106,-1.587c1.714,-0.02 3.111,-1.624 3.966,-1.587c0.59,0.027 1.462,1.496 2.381,1.587c2.096,0.208 6.113,-1.578 5.553,2.379c-10.739,0.286 -22.266,2.956 -28.56,3.174c1.185,-2.88 2.048,-4.319 2.381,-6.347c2.941,0.562 3.405,-1.356 6.346,-0.793Z"/><path d="M125.462,93.896c1.183,1.754 -2.518,5.385 -6.348,4.76c0.713,-1.403 1.915,-2.317 2.381,-3.967c1.152,-0.433 4.099,0.928 3.967,-0.793Z"/><path d="M138.154,102.622c6.315,1.353 8.848,6.489 11.106,11.9c-4.568,-0.243 -8.083,-1.409 -11.9,-1.586c1.448,-4.215 -0.568,-6.406 0.794,-10.314Z"/><path d="M104.835,118.488c1.975,-0.759 -2.244,-6.112 -3.966,-3.173c-0.807,-0.516 -0.821,-1.824 -2.381,-1.587c1.76,-2.61 0.829,-3.432 0,-7.933c1.756,1.684 4.564,2.312 5.554,4.76c1.932,-2.321 4.083,-0.333 7.139,0.794c2.085,0.235 0.624,-3.078 3.173,-2.38c-1.166,3.017 3.546,0.156 2.38,3.173c1.011,-1.105 3.886,-0.345 3.967,-2.38c1.359,-0.135 3.119,4.499 3.173,0.794c2.164,-0.578 1.597,1.576 3.173,1.586c-3.598,4.449 -12.632,0.555 -17.452,2.38c6.22,3.703 -4.636,7.023 -7.14,9.52c0.642,0.629 0.835,4.861 -1.585,4.76c0.231,-1.842 1.993,-3.718 -1.587,-3.174c0.179,-1.143 2.367,-0.276 2.38,-1.586c-0.522,-2.376 -1.696,0.759 -3.174,0c0.325,-1.911 -1.448,-1.725 -0.793,-3.967c5.987,1.904 4.255,-4.055 7.139,-1.587Zm5.553,-2.38c-1.412,0.475 -3.294,-2.325 -3.967,0c0.482,0.458 3.764,1.857 3.967,0Z"/><path d="M95.316,108.175c1.282,-0.223 1.366,0.751 2.38,0.794c0.314,1.538 -3.614,1.159 -2.38,-0.794Z"/><path d="M84.21,126.421c2.464,2.261 -0.353,5.949 -1.586,7.14c-1.918,-1.714 1.669,-4.631 1.586,-7.14Z"/><path d="M120.702,129.595c1.377,0.721 2.05,2.779 0.794,3.966c-2.02,-0.081 -1.875,-2.957 -0.794,-3.966Z"/><path d="M132.601,130.387c3.63,2.37 -3.507,5.555 -7.139,7.139c-0.598,0.262 -3.807,3.032 -6.348,2.381c-1.099,-0.487 -0.119,-3.054 -1.585,-3.173c5.428,-1.71 11.068,-3.211 15.072,-6.347Z"/><path d="M103.249,134.355c0.587,3.495 -2.567,3.249 -3.174,5.553c-0.578,4.183 -0.141,9.378 -3.966,10.313c-0.519,-6.072 0.79,-10.317 1.586,-15.074c2.576,0.46 3.691,-0.541 5.554,-0.792Z"/><path d="M101.663,140.7c0.049,-0.055 -0.055,-0.783 0,-0.793c3.809,-0.673 -3.768,5.099 0,0.793Z"/><path d="M134.982,213.684c-4.211,2.084 -10.283,-0.094 -11.901,-3.174c0.858,-5.769 13.785,-3.516 11.901,3.174Z"/><path d="M65.171,209.718c2.811,0.921 4.186,6.512 2.379,9.52c-1.692,-2.041 -4.305,-6.395 -2.379,-9.52Z"/><path d="M161.159,216.858c1.402,-0.254 1.417,4.443 -0.793,3.173c-0.335,-1.66 0.544,-2.101 0.793,-3.173Z"/><path d="M64.377,219.237c0.303,-1.511 1.01,0.507 0.794,1.586c-0.303,1.511 -1.01,-0.506 -0.794,-1.586Z"/><path d="M164.333,218.443c0.976,0.346 1.629,1.015 1.586,2.38c-0.976,-0.346 -1.629,-1.015 -1.586,-2.38Z"/><path d="M126.254,224.79c0.674,1.707 2.921,1.839 5.554,1.587c-0.92,3.249 -6.77,4.415 -7.933,1.586c-1.057,0.794 -2.394,1.307 -3.173,2.379c-2.597,-3.278 -12.136,1.786 -15.074,-3.966c7.055,-0.35 15.856,1.047 20.626,-1.586Z"/><path d="M57.238,235.897c3.286,-0.113 0.826,5.519 1.587,7.932c-2.207,-0.967 -1.475,-4.873 -1.587,-7.932Z"/><path d="M99.282,250.176c0.861,0.196 0.538,1.577 1.587,1.586c-0.246,1.077 -1.987,0.658 -3.174,0.793c0.517,-0.806 1.825,-0.82 1.587,-2.379Z"/><path d="M83.416,250.969c0.956,0.896 1.438,2.265 3.967,1.586c0.181,1.407 -0.799,3.973 1.586,3.173c-1.124,3.448 -8.309,-1.846 -5.553,-4.759Z"/><path d="M76.277,255.728c0.913,-2.566 0.898,2.131 0.793,3.174c-0.913,2.567 -0.898,-2.13 -0.793,-3.174Z"/><path d="M231.763,262.076c3.875,0.629 0.053,5.353 0.795,7.932c-0.995,-1.859 -1.75,-6.58 -0.795,-7.932Z"/><path d="M90.557,283.494c1.466,-0.12 0.486,-2.687 1.586,-3.173c2.548,1.518 2.079,1.455 3.967,3.966c-5.81,-3.16 -2.937,5.557 -3.174,6.347c-7.656,-4.242 -11.01,-12.789 -11.106,-24.592c3.008,3.601 2.424,10.797 5.553,14.28c2.441,-0.555 1.525,-0.555 3.967,0c-1.469,1.528 -1.454,0.626 -0.793,3.172Z"/><path d="M120.702,274.768c-4.137,4.592 -8.102,2.768 -14.28,3.967c0.73,-1.385 2.48,-1.752 4.76,-1.587c-3.552,-2.889 6.458,-3.116 9.52,-2.38Z"/><path d="M98.489,279.528c1.858,0.203 0.457,3.485 0,3.966c-2.325,-0.671 0.474,-2.553 0,-3.966Z"/><rect x="103.249" y="279.528" width="1.587" height="1.587"/><path d="M140.534,2.667c-0.581,-3.406 1.046,6.128 0,0Z" style="fill:#fff;"/><path d="M103.249,55.024c0.552,-2.667 -1.631,-2.6 -2.379,-3.967c-3.567,0.165 -5.727,4.973 -9.521,2.381c4.017,-4.611 9.04,-5.761 19.039,-5.554c-3.616,-5.844 -15.781,-2.959 -22.212,-3.967c5.247,-8.127 19.675,-5.565 28.559,-3.173c-0.129,0.922 0.174,1.411 0.794,1.586c-1.746,6.291 -4.653,6.503 -7.14,11.9c-4.639,-1.137 -7.167,2.957 -10.313,0.793c0.521,-2.375 1.696,0.76 3.173,0.001Zm3.967,-3.967c-0.055,0.011 0.049,0.738 0,0.794c-3.768,4.305 3.809,-1.466 0,-0.794Z"/><path d="M123.081,74.856c0.222,2.462 -8.519,1.449 -10.313,1.587c1.448,-4.159 8.866,-1.036 10.313,-1.587Z"/><path d="M94.522,105.002c0.445,-2.298 1.238,1.217 2.38,0.793c-0.774,2.629 -1.568,-0.886 -2.38,-0.793Z"/><path d="M104.835,133.561c-3.463,0.831 -6.767,-2.431 -9.52,-1.586c-1.574,-1.177 3.222,-2.062 3.173,-2.38c0.772,0.021 0.616,0.972 0.794,1.586c1.161,0.014 2.515,-3.346 2.38,0c1.528,-0.323 0.627,-3.076 3.173,-2.379c0,0.529 0,1.057 0,1.585c0.675,0.147 0.749,-0.309 0.793,-0.792c1.82,2.745 -3.035,0.559 -0.793,3.966Z"/><path d="M117.529,130.387c0.552,-1.967 1.517,3.42 -0.794,2.381c-0.224,-1.282 0.749,-1.366 0.794,-2.381Z"/><path d="M76.277,150.221c1.358,7.711 -5.271,14.291 -7.139,21.418c-1.34,-1.569 -0.867,-4.951 -1.587,-7.139c5.798,-1.871 6.994,-8.343 8.726,-14.279Z"/><path d="M65.171,180.365c-0.818,8.027 -3.454,16.184 -2.38,28.559c-4.961,-9.331 -1.962,-26.684 1.586,-34.904c1.937,2.764 -1.217,7.217 -0.794,11.106c1.314,-0.802 0.862,-3.37 1.588,-4.761Z"/><path d="M194.478,222.41c-2.117,-1.956 -0.55,-4.058 -2.38,-7.139c-2.566,-0.98 -0.606,2.567 -3.173,1.587c0.181,-1.407 -0.8,-3.973 1.586,-3.174c-1.417,-1.756 -3.05,-3.296 -3.173,-6.347c-1.39,1.519 -1.682,4.136 -2.38,6.347c-1.618,-0.443 -1.555,-2.387 -3.173,-0.793c0.457,1.921 2.996,1.763 4.759,2.379c0.568,2.154 -3.741,-0.567 -3.174,1.587c1.06,1.321 3.529,1.231 4.761,2.379c-0.582,1.413 -1.442,0.115 -2.381,0c0.339,1.513 2.267,1.436 1.587,3.967c4.391,-0.307 4.818,1.005 7.933,3.174c1.178,-0.347 -0.313,-1.015 0,-2.38c2.132,-0.547 1.533,1.64 2.379,2.38c2.489,-1.78 -1.093,-4.132 -1.586,-5.554c4.045,-1.49 4.96,5.039 7.14,8.726c2.525,4.268 5.658,7.014 7.139,11.9c-2.109,3.471 -3.453,7.21 -2.38,11.9c-0.771,-0.021 -0.616,-0.97 -0.793,-1.586c-3.415,3.897 -2.464,7.567 -3.967,12.692c2.054,-0.847 4.75,-11.073 3.967,-7.139c-0.393,3.34 -1.514,9.184 -3.967,7.933c0.302,4.164 1.21,15.372 -3.174,17.453c0.352,0.705 0.697,1.419 1.586,1.585c-0.93,1.741 -4.495,0.298 -7.139,0.794c-3.649,0.687 -1.251,0.824 -4.759,0c-9.427,-2.215 -26.308,6.031 -30.146,-0.794c4.072,1.358 5.817,0.111 10.313,0.794c-0.779,-1.072 -2.117,-1.585 -3.173,-2.379c1.113,-2.311 2.733,1.406 4.759,0.793c-2.568,-1.535 -0.991,-2.073 0.794,-3.173c0.568,-2.155 -3.741,0.567 -3.173,-1.586c-0.241,-2.093 1.655,-2.047 3.173,-2.381c-0.339,-3.764 -0.688,-3.879 0,-7.139c2.495,-0.396 3.101,1.73 4.76,0c-0.118,-1.734 -1.999,-1.702 -3.967,-1.585c2.444,-3.332 1.743,-1.962 0,-5.554c2.032,0.084 3.782,0.449 4.76,1.586c2.027,-1.318 -3.096,-2.13 -2.38,-4.759c0.638,0.42 1.287,0.827 2.38,0.794c0,-0.794 0,-1.587 0,-2.38c-0.781,-2.223 -2.117,1.152 -3.174,-0.794c-0.624,-2.739 0.741,-3.489 2.38,-3.967c-0.246,-1.077 -1.986,-0.659 -3.174,-0.794c-0.807,-4.697 1.642,-1.212 2.381,-3.966c-0.546,-3.607 -3.293,-3.784 -3.968,-8.727c-2.444,-0.592 -0.966,2.736 -3.967,1.587c-0.122,-1.975 1.248,-2.456 1.587,-3.967c-0.922,-0.129 -1.412,0.175 -1.587,0.794c-0.68,-3.569 3.737,-7.609 2.38,-11.9c-2.973,0.625 -0.05,2.774 -1.586,3.966c-2.837,-0.655 0.322,-2.778 -2.38,-3.966c1.708,0.397 6.419,-4.917 2.38,-7.933c-0.93,0.128 -0.669,1.446 -0.794,2.38c-1.005,-1.375 -2.681,-2.079 -2.379,-4.76c3.005,-2.279 6.773,-0.25 7.139,-3.967c1.483,0.633 2.905,1.326 4.76,1.587c0.474,-2.062 -0.318,-2.856 -2.38,-2.381c-1.264,-1.976 4.493,0.514 5.553,-0.792c-0.516,-0.808 -1.824,-0.821 -1.586,-2.381c1.16,1.137 2.514,0.609 2.379,-1.586c-0.771,0.021 -0.616,0.971 -0.793,1.586c-0.772,-0.021 -0.616,-0.97 -0.793,-1.586c-1.143,0.445 -1.937,1.237 -2.38,2.38c-1.982,-0.548 1.472,-2.117 0.793,-3.967c-1.322,-3.077 -4.308,0.445 -6.347,-1.586c-1.496,2.953 -7.084,5.307 -10.312,3.966c1.418,-6.514 5.803,-10.062 6.346,-17.452c3.816,1.171 0.731,-4.558 3.967,-3.967c0.207,-2.322 -1.793,-2.438 -1.586,-4.76c1.592,0.27 2.482,-0.161 2.38,-1.586c4.6,1.22 6.766,1.733 9.52,3.174c-1.347,15.355 9.235,24.237 13.486,36.491c0.595,2.442 -2.174,1.525 -1.583,3.966Zm-15.072,-8.726c0.529,0 1.057,0 1.586,0c0,-0.528 0,-1.057 0,-1.586c-0.529,0 -1.057,0 -1.586,0c0,0.529 0,1.058 0,1.586Zm-7.141,4.759c0.797,-0.002 0.944,0.643 1.587,0.794c-0.076,-1.247 0.107,-2.751 -1.587,-2.379c0,0.528 0,1.057 0,1.585Z"/><path d="M210.344,252.555c-0.876,-0.929 0.958,-5.878 2.38,-7.139c2.9,1.959 7.392,6.161 0.793,3.174c-1.802,0.577 -2.373,2.386 -3.173,3.965Z"/><path d="M219.071,251.762c-1.478,-2.137 2.412,1.01 3.172,1.586c0.618,-1.595 -1.313,-2.725 -0.793,-7.139c2.659,1.59 1.404,11.262 4.76,9.519c1.665,0.223 -1.15,2.119 0.793,3.174c1.349,0.292 1.496,-0.619 1.586,-1.586c3.179,1.02 -0.218,1.64 0,3.968c-3.439,-2.909 -6.443,-6.251 -9.518,-9.522Z"/><path d="M56.444,286.668c0.145,-1.731 -0.649,-2.524 -2.379,-2.381c0.595,-3.635 5.573,-2.887 5.552,-7.139c7.24,7.04 8.615,19.945 15.866,26.972c0.303,2.948 -3.215,2.074 -2.379,5.554c-1.619,-0.233 -1.555,-2.147 -3.174,-2.38c-12.937,11.656 -26.656,22.528 -37.285,36.492c-2.013,-4.028 -5.643,-11.782 -2.38,-14.28c0.243,-0.962 -2.291,-2.736 -2.379,-0.794c0.518,-3.978 11.965,-10.574 8.726,-15.865c1.808,-0.222 2.982,0.191 3.173,1.586c1.457,-1.679 2.733,-2.304 1.587,-4.759c1.168,-0.515 1.513,1.128 2.379,0.794c3.184,-1.237 1.411,-2.727 2.38,-5.554c0.26,-0.758 1.424,-0.375 1.586,-0.794c1.774,-4.551 1.287,-10.764 3.173,-14.279c3.6,1.484 1.08,-3.151 3.968,-2.38c-1.212,-3.052 -0.773,-1.573 1.586,-0.793Z"/><path d="M139.74,-2.093c1.128,1.516 3.014,2.276 3.174,4.76c0.93,-0.128 0.669,-1.446 0.793,-2.38c6.685,8.359 4.041,31.674 3.173,45.218c-0.61,9.536 2.375,21.045 -4.758,23.799c3.796,-9.301 -0.412,-19.524 -0.794,-29.352c-5.535,0.018 -7.146,3.96 -11.9,4.76c2.788,1.25 8.297,-2.194 10.312,1.586c0.809,3.452 -1.64,3.648 -2.379,5.553c-2.376,-0.521 0.758,-1.696 0,-3.173c-2.589,-0.209 -2.292,2.468 -3.968,3.173c-1.527,-0.323 -0.625,-3.076 -3.173,-2.379c1.769,3.608 -3.96,2.562 -6.346,0c1.511,-8.427 7.507,-16.085 16.659,-14.28c0.856,-6.686 -11.211,-4.641 -13.486,-5.554c-2.104,0.253 0.743,-4.443 -2.379,-3.173c-2.376,0.522 0.758,1.696 0,3.173c-3.671,-1.086 -16.667,5.168 -19.833,-2.379c-0.335,2.941 -6.191,2.401 -7.933,-0.794c0,1.058 0,2.116 0,3.173c-6.669,-1.116 -4.633,6.473 -8.726,7.933c-0.207,-2.322 1.794,-2.437 1.586,-4.759c-3.283,-1.074 -3.03,4.305 -2.379,8.726c-2.454,0.074 -2.365,-2.396 -2.381,-4.759c-1.822,9.59 -12.815,26.373 -1.586,35.698c-0.261,1.854 -0.953,3.277 -1.586,4.76c-2.084,-0.561 -1.565,-3.723 -3.173,-4.76c-2.104,-0.253 0.742,4.444 -2.38,3.173c-2.343,-4.267 -2.701,-10.521 -9.52,-10.312c3.742,-2.156 -1.09,-5.196 -1.586,-7.933c-3.424,0.523 1.215,4.927 -0.794,6.346c-2.329,-1.109 -4.281,-2.593 -3.967,-6.346c0.097,-2.794 1.155,-0.218 3.173,-1.586c-0.522,-2.651 -2.466,-3.88 -3.173,-6.347c-0.926,1.453 -1.157,3.602 -3.173,3.967c-1.092,-1.228 -1.597,-4.762 -0.794,-5.553c-0.444,-1.793 -1.237,0.962 -2.379,-0.794c-0.976,-8.327 -8.953,-15.133 -9.52,-24.592c-0.571,-9.518 4.438,-17.121 8.726,-24.592c2.852,0.929 8.156,-0.43 11.9,0c1.006,0.116 1.772,1.584 1.587,1.587c0.962,-0.011 1.356,-1.371 2.379,-1.587c9.618,-2.041 23.357,0 35.699,0c12.039,-0.001 24.097,-0.001 34.905,-0.001Zm0.794,4.76c1.046,6.128 -0.581,-3.406 0,0Z"/><path d="M70.724,221.616c3.994,1.617 7.647,5.001 13.486,3.968c0.576,2.426 -1.369,2.332 -0.794,4.759c-1.281,0.224 -1.366,-0.75 -2.38,-0.794c-2.905,7.13 -0.019,18.4 0.794,26.972c-5.25,-10.086 -2.84,-27.834 -11.106,-34.905Z"/><rect x="0.12" y="296.881" width="385.318" height="296.464"/><path d="M81.33,92.693l4.845,11.187l10.156,9.311l6.657,6.209c0,0 11.098,-6.682 12.078,-8.305c0.983,-1.622 1.745,-6.17 1.745,-6.17l10.296,-11.9c0,0 5.981,14.796 7.017,15.167c1.035,0.372 -9.295,10.228 -10.98,11.071c-1.687,0.842 -9.816,3.455 -10.469,4.67c-0.651,1.215 -1.367,10.611 -1.037,12.403c0.332,1.791 -1.931,4.443 -1.206,6.02c0.725,1.578 1.524,5.948 2.602,7.916c1.078,1.967 6.707,20.274 6.211,21.238c-0.496,0.964 3.048,69.933 2.781,72.735c-0.266,2.801 2.763,85.782 2.304,86.567c-0.46,0.78 -2.873,20.434 -15.411,24.362c-12.887,-9.238 -16.363,-24.316 -16.427,-26.709c-0.064,-2.395 1.185,-83.866 1.068,-88.253c-0.117,-4.389 0.649,-65.487 0.886,-69.487c0.235,-3.997 5.127,-27.696 4.697,-28.868c-0.43,-1.172 -6.111,-11.414 -6.144,-12.611c-0.031,-1.197 -4.202,-3.88 -6.614,-4.614c-2.411,-0.734 -11.67,-14.859 -11.052,-17.271c0.621,-2.411 5.997,-14.668 5.997,-14.668Z" style="fill:#9f0019;"/><g><path d="M122.32,112.528c-0.129,2.827 0.24,5.037 0.848,6.953c-1.973,0.012 -3.302,2.368 -4.618,0.898c-0.283,-4.323 0.141,-7.861 3.77,-7.851Z"/><path d="M110.591,145.391c2.57,0.03 1.959,3.983 3.458,5.333c-0.365,1.895 -3.338,0.498 -2.691,-1.477c-2.756,-0.715 -5.74,3 -6.007,-1.392c3.103,-0.831 5.727,1.221 5.24,-2.464Z"/><path d="M116.245,158.415c-3.9,0.523 -13.52,-4.55 -18.582,-0.28c-0.645,-0.004 -0.54,-0.934 -0.704,-1.531c1.454,-2.747 6.099,-1.963 8.576,-1.779c4.252,0.317 8.316,2.401 10.71,3.59Z"/><path d="M117.755,165.35c0.947,1.5 0.751,4.407 1.491,6.16c-2.69,-0.148 -4.643,-1.207 -7.332,-1.355c-0.028,-1.032 -0.056,-2.065 -0.083,-3.097c-4.819,-0.722 -10.304,-0.623 -15.93,-0.351c3.35,-5.455 13.088,1.154 16.51,-2.764c2.052,0.135 3.768,0.685 5.344,1.407Z"/><path d="M111.955,171.704c2.396,0.778 5.41,0.795 7.352,2.129c-0.46,2.7 1.067,2.951 0.808,5.404c-3.662,-0.283 -8.762,1.208 -8.721,-3.643c-4.863,-1.191 -13.716,0.055 -16.614,-1.108c3.977,-3.981 12.234,-0.436 17.236,-0.458c-0.019,-0.775 -0.041,-1.549 -0.061,-2.324Z"/><path d="M120.177,181.561c0.055,2.065 0.11,4.131 0.166,6.195c-2.826,0.019 -4.671,-1.172 -7.975,-0.563c-0.534,-0.676 -0.759,-1.73 -0.745,-3.08c-5.216,-1.033 -11.958,-0.183 -16.634,-1.883c0.727,-1.977 5.419,-1.333 8.597,-1.004c2.481,0.257 5.083,1.119 6.67,1.372c2.388,1.143 0.329,-2.64 1.926,-2.375c3.207,-0.224 5.34,0.88 7.995,1.338Z"/><path d="M94.594,192.317c4.674,1.168 10.522,0.887 15.308,1.916c2.148,0.626 0.84,-2.577 2.589,-2.393c3.721,-0.325 6.685,0.286 8.679,2.094c0.041,1.548 0.083,3.098 0.124,4.646c-3.094,0.083 -6.187,0.166 -9.279,0.248c-0.533,-0.676 -0.76,-1.731 -0.746,-3.08c-5.155,1.29 -13.109,-3.523 -15.908,0.423c-1.435,0.168 -0.374,-2.738 -0.767,-3.854Z"/><path d="M121.355,200.905c0.055,2.066 0.109,4.13 0.164,6.195c-3.093,0.084 -6.186,0.166 -9.279,0.248c-0.533,-0.676 -0.76,-1.73 -0.746,-3.08c-6.106,-0.2 -12.149,-0.481 -17.296,-1.865c2.752,-2.715 11.066,0.453 15.93,0.351c2.163,0.766 0.653,-1.746 1.926,-2.376c2.582,-1.277 7.214,0.353 9.301,0.527Z"/><path d="M121.706,214.07c-8.535,1.99 -19.251,-0.251 -27.239,-1.6c-0.222,-1.379 0.584,-1.606 0.642,-0.792c8.941,0.704 18.438,0.723 26.597,2.392Z"/><path d="M121.89,221.04c0.056,2.065 0.111,4.13 0.166,6.196c-3.094,0.082 -6.187,0.164 -9.279,0.247c-2.122,0.75 -0.999,-2.501 -2.071,-3.044c-3.553,-0.156 -7.832,0.021 -11.289,-0.474c-1.709,-0.245 -4.767,0.078 -5.364,-2.183c6.21,-0.196 10.765,1.654 17.275,1.09c0.376,-5.222 7.579,-1.076 10.562,-1.832Z"/><path d="M94.135,224.88c1.05,-2.261 0.631,3.943 0.805,5.403c4.254,1.687 10.294,1.17 15.308,1.919c2.345,0.821 0.454,-1.682 1.926,-2.377c2.617,-1.232 7.271,0.7 9.963,0.511c0.055,2.065 0.11,4.129 0.166,6.195c-3.65,0.501 -6.261,-0.279 -9.3,-0.529c-3.518,-4.461 -11.715,-3.148 -18.663,-3.376c-0.069,-2.583 -0.137,-5.166 -0.205,-7.746Z"/><path d="M122.365,238.854c0.055,2.066 0.11,4.13 0.165,6.196c-3.535,0.092 -7.071,0.188 -10.606,0.282c-0.532,-0.677 -0.759,-1.73 -0.744,-3.081c-3.707,-0.247 -8.269,0.043 -11.952,-0.457c-1.702,-0.233 -4.771,0.069 -5.366,-2.182c5.471,0.719 10.884,1.506 17.275,1.09c1.024,-5.286 7.292,-0.496 11.228,-1.848Z"/><path d="M122.694,251.245c0.056,2.066 0.11,4.131 0.166,6.195c-3.617,-0.071 -7.956,0.745 -10.627,-0.492c-1.405,0.399 -1.291,-1.073 -1.388,-2.289c-5.159,-0.591 -13.768,-0.215 -16.612,-1.107c1.032,-2.516 5.292,-0.371 8.617,-0.23c3.106,0.133 5.957,-0.323 8.618,-0.229c-0.021,-0.774 -0.042,-1.549 -0.062,-2.324c4.212,-0.394 6.811,1.198 11.288,0.476Z"/><path d="M111.632,259.289c2.673,1.238 7.009,0.423 10.626,0.493c1.054,1.099 0.689,3.948 0.828,6.178c-2.01,0.574 -7.92,-0.143 -11.932,0.316c-0.027,-1.032 -0.053,-2.062 -0.082,-3.097c-2.823,0.706 -5.642,-0.379 -8.637,-0.545c-3.07,-0.17 -7.11,1.689 -8.658,-1.319c5.426,-0.018 13.323,1.152 17.254,0.315c-0.22,-1.244 0.591,-1.349 0.601,-2.341Z"/><path d="M94.046,271.382c6.917,0.863 16.509,0.86 24.586,1.671c1.389,0.14 4.506,-1.443 4.681,1.424c-6.331,-1.141 -14.178,-0.381 -21.253,-0.984c-2.746,-0.233 -6.372,0.097 -8.014,-2.111Z"/><path d="M93.566,278.371c0.781,0.105 0.598,1.395 0.725,2.305c3.763,2.559 10.893,0.962 15.971,1.899c0.949,-0.2 0.169,-2.317 1.263,-2.358c4.644,-0.659 7.309,1.117 11.952,0.457c0.054,2.065 0.109,4.129 0.165,6.195c-5.119,-0.621 -12.671,1.763 -14.023,-3.502c-4.807,1.988 -14.386,-3.769 -15.204,1.956c-1.526,-0.784 -0.381,-4.862 -0.849,-6.952Z"/><path d="M123.704,289.193c0.055,2.066 0.109,4.131 0.166,6.196c-5.812,-0.032 -12.788,1.372 -14.687,-3.484c-2.427,-0.058 -4.864,0.293 -7.291,0.195c-2.958,-0.121 -7.232,0.085 -8.678,-2.095c5.342,0.875 11.551,0.684 17.275,1.091c-0.02,-0.774 -0.041,-1.55 -0.063,-2.324c4.833,-0.362 8.144,1.156 13.278,0.421Z"/><path d="M93.317,293.877c0.847,-2.489 0.729,2.719 0.765,3.855c3.248,2.658 9.979,1.022 14.645,1.935c2.388,1.143 0.331,-2.64 1.928,-2.375c4.411,0.156 8.282,0.983 13.276,0.422c0.055,2.063 0.11,4.129 0.165,6.195c-5.182,0.526 -9.377,-0.165 -13.94,-0.405c0.966,-3.058 -1.764,-1.558 -2.071,-3.046c-4.997,0.564 -8.864,-0.267 -13.278,-0.421c-0.773,0.146 -0.521,1.428 -0.601,2.341c-1.551,-1.285 -0.401,-5.906 -0.889,-8.501Z"/><path d="M81.122,109.749c-0.293,-2.603 2.087,-3.362 2.465,-7.04c-1.618,2.061 -1.778,4.063 -3.874,3.978c2.936,3.145 -2.718,2.696 -3.15,6.283c-4.417,-7.83 4.431,-12.822 4.767,-20.277c2.466,3.939 5.357,7.957 5.591,10.702c4.42,-0.564 7.253,6.795 10.875,9.786c-0.094,2.402 -1.766,3.057 -2.528,4.716c1.901,2.172 2.507,-2.939 2.029,1.496c1.824,0.516 1.294,-1.574 2.611,-1.619c-0.187,-0.837 -1.332,-0.491 -1.367,-1.513c-1.149,-1.285 4.07,2.085 5.385,2.956c5.078,-3.678 12.949,-7.322 12.887,-14.292c2.527,0.882 5.643,1.039 4.805,6.073c-1.229,-0.085 -0.477,-2.613 -1.408,-3.063c-2.359,-0.357 -1.557,2.785 -3.916,2.429c2.034,4.183 0.639,6.852 0.309,11.616c-7.198,0.798 -7.888,8.803 -11.58,13.485c2.05,1.508 -1.005,3.952 2.795,5.351c1.94,-0.726 -1.569,-1.119 -0.744,-3.08c1.132,-0.064 1.732,0.529 2.028,1.495c0.907,-1.502 1.452,-3.403 1.846,-5.474c2.397,3.305 -1.314,8.169 0.288,10.842c-2.264,-1.192 -2.154,-2.93 -5.345,-1.408c0.669,-2.446 0.371,-2.194 -1.407,-3.062c-0.933,0.973 -0.928,2.982 -1.886,3.925c-0.143,2.042 2.589,0.541 2.071,3.045c-5.917,-1.646 -1.605,3.601 -5.863,4.031c-0.001,-0.755 0.796,-0.623 1.306,-0.81c0.06,-1.941 -1.083,-2.398 -2.071,-3.045c2.199,-8.157 -4.202,-12.332 -5.797,-18.446c-1.617,-1.206 -3.6,-1.958 -4.101,-4.54c-1.767,2.192 -2.787,-0.623 -4.661,-0.651c1.95,-3.845 -4.077,-0.215 -3.478,-6.107c4.42,-2.719 4.657,-5.414 7.022,-10.263c-0.605,-0.86 -2.095,0.243 -0.723,-2.306c-1.1,-0.534 -2.843,1.616 -1.284,1.584c-0.837,0.274 -2.395,1.064 -1.866,4.701c-2.783,0.426 -3.085,3.598 -4.496,5.545c0.532,-0.161 0.641,-0.795 1.306,-0.81c1.281,0.632 -0.704,0.48 -0.623,1.566c-1.521,0.279 -0.796,-2.217 -2.049,-2.269c1.146,-1.485 2.289,-2.978 3.19,-4.735c-2.113,0.166 -1.892,2.916 -3.895,3.203c1.215,-1.659 1.695,-4.135 4.536,-3.998Zm10.562,-1.831c-0.111,5.649 -5.235,9.721 -5.635,12.55c2.513,-2.76 8.391,-8.861 5.635,-12.55Zm15.803,20.504c2.81,-4.159 9.508,-11.915 8.867,-15.736c-3.89,-0.454 -9.193,6.959 -10.357,9.576c-0.164,-0.599 -0.581,-0.886 -1.348,-0.739c-0.37,2.129 -1.36,5.967 -4.454,7.094c3.021,7.449 4.4,4.087 7.292,-0.195Zm-7.625,12.605c1.656,-2.825 -2.234,-4.339 -2.836,-6.901c1.283,-3.12 -0.978,-5.377 -2.836,-6.9c0.512,6.301 3.033,10.124 5.672,13.801Z"/><path d="M82.59,115.135c-1.366,0.451 -1.484,-2.981 -0.683,-0.757c0.644,-0.038 0.49,-0.962 0.621,-1.566c1.196,0.536 0.134,1.406 0.062,2.323Z"/><path d="M127.107,93.025c2.233,-0.131 1.645,4.768 2.859,7.674c1.227,2.942 3.757,5.043 4.183,7.639c-0.893,2.52 -2.152,4.632 -4.496,5.545c-0.426,-1.61 -1.703,-2.168 -1.45,-4.612c-2.075,1.845 1.503,3.415 0.829,6.179c-1.257,0.364 -1.142,2.244 -3.274,1.637c-0.039,-1.82 -1.35,-3.627 -1.47,-5.386c-0.099,-1.47 1.114,-1.612 1.243,-3.134c0.391,-4.569 -3.552,-7.497 -2.96,-11.547c2.357,2.692 3.302,7.127 4.286,11.512c2.874,-3.455 -2.486,-10.734 -1.055,-14.697c2.215,2.068 1.626,7.593 2.941,10.771c2.745,-2.049 -2.218,-9.537 -1.636,-11.581Z"/></g></g></svg>