<svg clip-rule="evenodd" fill-rule="evenodd" stroke-linejoin="round" stroke-miterlimit="1.41421" viewBox="0 0 600 780" xmlns="http://www.w3.org/2000/svg"><path d="m-.67-.998 605.013 1.834-2.361 778.868-605.013-1.834 2.361-778.868z" fill="#9bc63e" fill-rule="nonzero"/><path d="m-1.89 193.628c11.984 1.732 7.771 4.358 20.167 5.681-.409-1.45-1.557-2.165-3.729-1.87 21.019-6.565 42.5 2.414 55.993 9.458-14.272 2.251-31.463-13.89-50.397-7.583 7.812 5.855 23.751 3.679 33.59 7.531-22.831 3.422-36.547-3.057-55.638-9.503l.011-3.716.003.002zm128.421 24.587c-15.04-6.117-33.047-9.308-52.254-11.306 19.036-5.22 42.812.872 52.254 11.306zm5.613-3.699c4.83-4.05 19.023-1.602 24.279.073-7.375 2.594-15.741.196-24.279-.073zm261.332 36.089c3.925-29.51 58.698-41.388 76.614-16.486 32.23 44.799-63.729 46.337-76.614 16.486zm-201.591-30.334 5.603.017c2.122 5.848-2.948 4.505-3.759 7.42-2.531-.582-1.535-4.656-1.844-7.436zm91.412 30c5.99 1.488 8.142 6.771 13.046 9.329-3.886 3.716-11.565-4.526-13.046-9.329zm7.415 18.602c.387 2.084 2.062 2.897 3.725 3.725-6.307 8.749-14.823 6.519-26.158 3.636-.131-3.235.437-5.776 1.891-7.424-3.847 3.748-3.725-.768-5.59-3.734-2.178.308-2.035 2.932-1.885 5.568-5.588-5.585-8.174-14.142-18.629-14.918.492-2.61 4.101-2.106 5.614-3.697 10.581 4.221 24.136 13.602 41.033 16.843zm22.361 14.929c1.875 0 2.22 1.511 3.731 1.87.406 1.447 1.556 2.164 3.729 1.87-.419 1.444-1.572 2.153-3.742 1.845-.326 4.028 6.623.862 9.332 1.887 3.871 2.21-9.61 2.661-13.085 3.676-2.761-2.207-2.883-7.026-5.571-9.306.321-2.166 2.958-2.009 5.607-1.842zm167.917 50.669c-7.051 6.444 21.269 4.903 18.654 7.487-8.956 8.853-56.821-12.227-50.39-11.3l3.737.012c8.433 6.211 15.628 3.404 24.254 7.505.424-1.441.064-3.665 1.88-3.709l1.865.006zm72.694 44.807c11.667 3.898 21.177 9.928 33.573 13.106-12.392 4.191-28.374-4.025-33.573-13.106zm-407.175 24.772 7.47.023c2.722 7.075-8.349.34-5.626 7.413-2.53-.582-1.536-4.656-1.845-7.436z"/><path d="m-1.886 191.691s55.156-1.593 68.703 11.479c29.817-7.202 53.185 15.132 69.084 3.926.913 7.43 23.027 2.255 29.891-3.626 5.786 7.015 21.853 10.323 31.723 7.529-2.094 2.279-1.639 3.808 1.854 3.721l-.028 9.289c3.903.799 4.951-1.26 7.477-1.836 12.236 5.613 31.737 9.458 39.188 9.407-1.575-2.765-6.005-2.707-9.326-3.742.469-2.337 3.718-1.864 3.737.011 5.162-2.908 9.055-7.086 14.965-9.244 29.64 8.166 44.232 23.593 48.417 44.732 2.416-2.549 8.119-1.812 13.078-1.817 3.758-9.502 32.481-17.751 41.123-12.88 4.041 4.988 2.505 8.442 1.823 14.867-2.188-.305-1.565-3.391-1.851-5.579-5.08 3.612-3.975 13.416-9.387 16.692 1.615 4.578 8.256 4.185 7.436 11.169 36.161.051 51.032 21.154 78.341 29.962-18.505-5.542-31.243-5.856-48.513-13.152l9.338.028c-19.759-13.802-58.84-8.498-80.238-20.679 2.742-6.81 9.751 1.456 14.95-3.669-1.177-3.772-8.725-1.251-9.318-5.601 23.869 9.454 31.287 19.14 65.291 22.492-34.947-6.194-53.46-28.632-91.405-31.861 1.56 4.011 9.621 1.597 11.184 5.608-15.557-2.521-29.211-6.923-41.042-13.129 2.887-6.556 8.291.976 13.083-3.675-11.791-9.971-33.368-6.932-52.269-5.733.324-4.031-6.621-.863-9.334-1.887-1.341-4.229-10.644-.586-9.313-7.459 4.858-4.583 9.153 1.834 16.805.051-3.971-7.186-16.687-5.725-22.374-11.214-4.751 2.464-1.213 12.139 5.575 9.306-4.841 5.486-11.694-2.625-16.813 1.807l.062-20.435c-7.224 2.361.69 14.365-7.525 18.554-7.81-7.793-15.812-2.192-20.503-13.066-6.223 6.192-4.504 20.336-13.145 24.111 5.839-6.528 29.978-10.559 41.084.125 1.794 10.521-6.592 20.919 3.663 24.162 4.901-6.275 4.292-18.062 5.685-27.849l7.471.022c-.879 7.681 7.246.258 11.192 3.752 1.972 1.743-7.494 1.918-7.474 1.834-.184.829 5.484 5.042 5.58 7.448.649 16.108-32.751 32.625-41.214 42.602-23.256.343-45.634-13.391-40.941-46.566 1.128 1.071 8.844 4.373 9.336.028-1.685-5.089-6.554 3.275-9.332-1.889 1.843-8.609 13.614-15.479 11.271-22.257 6.976.188 5.317 2.099 11.204.034-6.27-5.017-14.527-1.547-24.261-5.647-4.501.748-4.046-3.405-9.331-1.887-17.245.769-45.629.708-59.721-11.327-24.497 7.249-43.353-6.639-64.985-6.904l.012-4.101c17.389 5.993 36.677 11.962 55.638 9.118-9.838-3.853-25.778-1.676-33.588-7.532 18.932-6.308 36.122 9.835 50.397 7.582-13.493-7.045-34.976-16.024-55.993-9.458 2.171-.296 3.318.42 3.728 1.87-7.947-.85-20.162-6.188-20.162-6.188v-1.432l-.003.003zm76.163 15.218c19.208 1.998 37.214 5.188 52.254 11.305-9.442-10.433-33.219-16.524-52.254-11.305zm82.144 7.68c-5.254-1.675-19.448-4.123-24.279-.073 8.541.27 16.906 2.667 24.279.073zm37.308 13.119c.811-2.914 5.88-1.57 3.759-7.419l-5.603-.017c.308 2.78-.687 6.854 1.846 7.437zm52.254 11.305c-2.555-1.768-16.675-7.754-13.06-3.755 4.083.429 10.026 8.409 13.059 3.755zm35.453 9.396c-4.775-1.543-12.776-9.47-18.662-3.774 8.359-2.001 15.375 6.901 18.662 3.774zm14.907 11.191c-4.905-2.559-7.056-7.841-13.046-9.329 1.481 4.804 9.161 13.044 13.046 9.329zm-59.487-89.351c29.853 7.522 47.462 27.155 72.711 39.233 34.514-14.205 76.097-47.272 125.189-23.774 5.314 4.673 17.886 11.885 22.378 11.216 1.587-.336 1.757.729 1.86 1.864 7.054 7.223 14.762 13.8 22.346 20.502 6.447 5.976 10.747 14.07 16.746 20.486 2.717 13.363 11.113 21.116 11.089 37.188 2.124 5.848-2.945 4.505-3.756 7.42 8.144 4.677.97 17.233 1.789 26.014-6.645 2.87-1.11-6.313-5.588-5.59-2.958 3.247-2.526 9.891-3.777 14.851-4.328-.606-7.171.278-9.342 1.831-.755 4.447 8.508-1.007 5.586 5.589-8.35-2.769-5.753 5.421-13.085 3.674 2.869 3.903 11.104.694 3.72 5.584-1.511-.357-1.859-1.869-3.731-1.868l-1.868-.006c-7.732-7.173-18.263-11.576-29.835-14.953-4.089-2.129-7.617-4.817-14.926-3.76-27.31-8.806-42.18-29.912-78.341-29.963.82-6.984-5.822-6.593-7.436-11.169 5.414-3.276 4.308-13.079 9.389-16.692.285 2.189-.338 5.274 1.851 5.579.682-6.425 2.217-9.88-1.823-14.868-8.643-4.87-37.365 3.378-41.123 12.88-4.96.005-10.663-.73-13.079 1.819-4.186-21.139-18.777-36.566-48.417-44.732-5.91 2.158-9.802 6.337-14.965 9.244-.018-1.876-3.268-2.349-3.737-.011 3.321 1.034 7.75.977 9.325 3.741-7.449.051-26.95-3.793-39.186-9.407.857-16.169 8.209-27.193 3.87-44.573-10.388 3.292-.091 30.152-11.319 37.12-3.493.087-3.95-1.441-1.854-3.72-9.87 2.794-25.938-.514-31.723-7.528-6.863 5.879-28.979 11.054-29.891 3.624 18.155-17.853 41.226-30.79 71.076-36.938l29.879.091-.002.002zm233.236 63.869c-17.916-24.902-72.689-13.024-76.614 16.486 12.883 29.852 108.842 28.314 76.614-16.486zm-35.337-48.408c7.673 3.53 15.977 6.426 22.378 11.215-4.49.67-17.065-6.542-22.378-11.215zm24.238 13.077c6.062 1.415 7.806 7.099 13.045 9.328 1.917 4.896 7.382 6.279 9.3 11.174-7.585-6.701-15.292-13.278-22.346-20.503zm-9.706 120.725c11.573 3.376 22.103 7.781 29.836 14.953-1.815.044-1.455 2.269-1.88 3.709-8.623-4.101-15.82-1.293-24.252-7.505 1.242-5.56 3.988 1.789 7.468.022-3.793-5.512-13.743-4.931-18.645-9.345 6.165-1.616 11.648 4.808 7.473-1.834zm-328.832 54.735c4.156 5.151 7.235 11.368 9.282 18.605-4.158-5.15-7.234-11.369-9.282-18.605zm16.7 35.349c5.9 7.131 11.215 14.839 14.867 24.196-5.456-7.571-11.047-15.011-14.867-24.196z"/><path d="m498.085 239.776c-5.999-6.415-10.3-14.51-16.746-20.486-1.918-4.894-7.383-6.277-9.301-11.174 10.303 8.948 20.078 18.421 26.046 31.66zm-291.328 2.832-7.471-.022c-1.394 9.787-.784 21.574-5.686 27.849-10.255-3.242-1.869-13.64-3.663-24.162-11.105-10.684-35.244-6.653-41.084-.125 8.641-3.774 6.923-17.919 13.147-24.111 4.69 10.873 12.692 5.274 20.502 13.066 8.215-4.189.301-16.193 7.526-18.554l-.062 20.435c5.12-4.432 11.972 3.679 16.814-1.807-6.79 2.833-10.327-6.843-5.575-9.306 5.687 5.488 18.403 4.029 22.376 11.214-7.654 1.783-11.95-4.634-16.807-.051-1.331 6.873 7.973 3.229 9.314 7.459-4.332.581-7.17-.319-9.331-1.885zm0 0c2.161 1.566 4.998 2.467 9.331 1.887 2.711 1.024 9.658-2.142 9.333 1.887 4.104 5.815 22.864-2.857 24.259 5.647-1.513 1.591-5.121 1.086-5.614 3.696 10.455.777 13.041 9.333 18.629 14.918-.15-2.636-.291-5.262 1.885-5.567 1.865 2.968 1.743 7.482 5.591 3.734-1.453 1.648-2.022 4.19-1.891 7.424 11.335 2.883 19.851 5.113 26.158-3.636-1.663-.827-3.336-1.642-3.725-3.725 7.952 4.484 14.335 10.517 22.361 14.929-2.649-.167-5.286-.323-5.605 1.842 2.689 2.28 2.811 7.097 5.571 9.305 3.475-1.015 16.955-1.466 13.085-3.678-2.708-1.021-9.658 2.144-9.33-1.885 2.169.308 3.323-.401 3.742-1.847-2.175.295-3.324-.42-3.731-1.87 45.428 14.35 86.939 32.575 126.828 52.402-.183 5.068 3.098 3.748-.022 7.431-2.189-.306-1.566-3.39-1.852-5.579-5.838 6.581-21.491 3.334-20.592 16.658-8.719-5.907-15.473 3.698-26.15 1.779-3.165 3.664-2.076 11.589-3.784 16.707-2.854-15.234-12.052 12.547-16.809-.051-4.413 9.87-19.719 8.837-24.335 18.503-5.265.381-21.691-7.642-20.551 3.655-6.121-5.195-12.076 1.711-11.231 9.254-5.353-2.281-10.283-2.748-11.216 3.681-11.742-10.47-30.951 12.712-42.956 1.727-2.2 2.768-7.767 2.165-7.493 7.41-4.551-5.381-10.078-9.791-16.766-13.057-5.225 2.843-14.487 1.648-14.967 9.242-18.785.051-38.886 1.406-44.785-11.282-9.427-1.359-16.185-.049-16.83 7.38-2.505-9.254-17.218-6.437-16.749-18.628-4.071-.35-5.945 1.502-5.62 5.555.889-9.32-11.409-7.644-7.424-14.882-2.171-.311-3.323.398-3.739 1.844-5.163-1.267 5.226-9.729-5.581-7.446.639-8.659-1.413-14.658-3.675-20.447-1.511.347-1.866 1.858-3.739 1.845-1.137-.106-2.209-.284-1.861-1.864 4.05-2.345 2.088-14.263-3.695-13.015-1.452-.414-2.167-1.56-1.857-3.72l3.734.011c-4.168-6.992-2.906-19.351-7.391-26.03-1.137-.11-2.21-.286-1.863-1.864 3.137-9.317 3.205-31.535.124-40.871 2.977-20.623 11.923-35.272 18.833-51.959 5.284-1.518 4.83 2.634 9.332 1.887-.584 6.75 9.947 2.509 13.055 5.613 2.342 6.778-9.429 13.648-11.271 22.257 2.778 5.164 7.648-3.202 9.331 1.887-.493 4.346-8.208 1.044-9.337-.028-4.693 33.176 17.685 46.909 40.943 46.567 8.463-9.978 41.861-26.495 41.212-42.603-.096-2.406-5.763-6.619-5.579-7.448-.02.085 9.446-.09 7.474-1.834-3.951-3.494-12.075 3.929-11.196-3.752l.001.004zm-74.635-20.661c9.734 4.101 17.989.63 24.261 5.648-5.888 2.065-4.229.154-11.205-.034-3.109-3.102-13.64 1.139-13.056-5.613zm-15.357 137.426c1.873.013 2.229-1.498 3.74-1.847 2.261 5.791 4.314 11.791 3.675 20.449 10.806-2.285.416 6.177 5.58 7.445.416-1.446 1.568-2.153 3.739-1.845-3.986 7.239 8.313 5.565 7.423 14.882-.323-4.053 1.548-5.904 5.619-5.555-.468 12.191 14.245 9.374 16.749 18.628.646-7.428 7.406-8.737 16.831-7.379 5.899 12.688 26 11.333 44.785 11.281.48-7.596 9.742-6.399 14.967-9.243 6.688 3.266 12.215 7.676 16.766 13.057-.274-5.245 5.293-4.641 7.493-7.41 12.005 10.986 31.214-12.199 42.956-1.727.933-6.429 5.863-5.961 11.216-3.683-.845-7.542 5.11-14.448 11.23-9.253-1.14-11.297 15.286-3.274 20.553-3.655 4.614-9.666 19.92-8.633 24.333-18.503 4.757 12.598 13.955-15.183 16.808.051 1.709-5.118.62-13.043 3.784-16.707 10.681 1.919 17.432-7.686 26.15-1.779-.899-13.324 14.755-10.078 20.592-16.658.286 2.189-.337 5.273 1.852 5.579 3.12-3.684-.161-2.363.022-7.432-39.889-19.827-81.401-38.052-126.828-52.402-1.511-.359-1.855-1.87-3.731-1.87-8.025-4.41-14.407-10.445-22.361-14.929-16.895-3.241-30.452-12.622-41.031-16.843-1.395-8.506-20.156.168-24.26-5.65 18.901-1.197 40.478-4.237 52.269 5.735-4.791 4.651-10.196-2.883-13.083 3.674 11.831 6.207 25.486 10.608 41.045 13.129 4.558 1.666 8.081 4.354 14.928 3.76.592 4.35 8.14 1.829 9.317 5.601-5.199 5.128-12.209-3.14-14.948 3.67 21.395 12.181 60.477 6.876 80.236 20.679l-13.071-.04c-.57-2.523-4.669-1.555-7.463-1.881 11.441 10.298 30.063 13.49 48.501 16.867 5.446 2.025 10.747 4.193 18.665 3.772 4.9 4.414 14.851 3.834 18.645 9.345-3.482 1.767-6.225-5.582-7.469-.022l-3.737-.012c-.571-2.523-4.671-1.553-7.462-1.881 7.108 9.642 24.378 9.236 35.434 14.971 7.998 5.055 19.192 6.952 22.36 16.786-20.695 56.93-61.259 93.973-101.242 131.593-24.4 4.149-32.144 24.971-56.111 29.554-4.011 11.54-16.862 17.747-26.218 24.074-10.431 7.044-21.621 13.396-31.807 20.336-51.323-36.921-93.474-82.911-132.184-132.3-3.653-9.357-8.969-17.064-14.868-24.196-2.24-5.809-4.494-11.608-7.418-16.744-2.046-7.237-5.124-13.454-9.281-18.605 1.228-7.385-4.917-7.479-3.689-14.871l-.001.004zm31.589 52.113c-2.722-7.073 8.349-.338 5.625-7.413l-7.471-.023c.309 2.781-.685 6.854 1.845 7.436zm-42.658-96.731c4.484 6.679 3.222 19.039 7.392 26.03l-3.735-.011c.393-10.266-5.102-14.714-3.658-26.019zm127.228-79.498c-3.616-3.999 10.504 1.986 13.059 3.755-3.033 4.655-8.976-3.326-13.06-3.755zm29.849 9.378c5.887-5.696 13.887 2.231 18.662 3.774-3.286 3.127-10.301-5.775-18.662-3.774zm42.876 24.283c-1.563-4.011-9.624-1.598-11.183-5.608 37.944 3.228 56.457 25.667 91.404 31.86-34.004-3.351-41.421-13.038-65.291-22.492-6.846.593-10.37-2.095-14.929-3.76zm76.463 33.67c4.379 6.807 29.126 9.461 41.039 14.986-18.439-3.377-37.06-6.569-48.502-16.865 2.794.325 6.892-.644 7.463 1.879zm67.141 28.069c-6.431-.927 41.434 20.154 50.39 11.3 2.618-2.585-25.705-1.041-18.654-7.487 1.874-.001 2.22 1.511 3.731 1.868 10.097 3.125 25.359 7.605 24.296-7.357l-.033 11.146c16.147 6.879 28.886 17.127 41.001 27.992-16.296-4.261-33.911-7.219-44.77-16.856 13.332-1.243 4.287 5.933 16.802 1.907-10.781-11.36-25.381-7.789-44.79-9.423-11.057-5.735-28.328-5.328-35.434-14.97 2.792.325 6.892-.645 7.461 1.878z"/><path d="m423.149 317.575c-11.91-5.525-36.658-8.179-41.037-14.986l3.734.012c17.268 7.296 30.007 7.61 48.512 13.152 7.312-1.058 10.84 1.631 14.926 3.76 4.176 6.641-1.306.219-7.471 1.836-7.916.419-13.217-1.749-18.663-3.774zm-319.315-4.684c.129-15.699-3.243-26.499.124-40.871 3.08 9.337 3.012 31.555-.124 40.871zm405.34-35.926c7.79 12.539 2.756 38.438-.158 52.017 1.062 14.961-14.199 10.481-24.296 7.356 7.386-4.89-.849-1.681-3.718-5.584 7.332 1.747 4.735-6.444 13.085-3.675 2.922-6.595-6.341-1.141-5.586-5.589 2.17-1.551 5.012-2.434 9.341-1.831 1.251-4.959.819-11.605 3.777-14.85 4.477-.724-1.058 8.459 5.588 5.59-.819-8.784 6.354-21.338-1.791-26.014.812-2.916 5.881-1.572 3.757-7.421zm-394.269 80.545c.322-5.877-4.944-6.224-3.697-13.016 5.784-1.249 7.746 10.669 3.697 13.015zm84.465-142.79c11.228-6.968.931-33.828 11.319-37.12 4.339 17.38-3.012 28.404-3.869 44.573-2.526.576-3.576 2.633-7.477 1.836l.028-9.289z"/><path d="m-.635 195.999c11.488 1.66 18.52 7.727 30.403 8.997-.391-1.388-1.493-2.074-3.575-1.791 20.146-6.294 40.739 2.313 53.673 9.065-13.682 2.158-30.16-13.314-48.308-7.269 7.486 5.614 22.767 3.527 32.198 7.221-21.884 3.28-46.103-6.481-64.402-12.661l.011-3.56v-.002zm134.167 27.12c-14.415-5.866-31.676-8.923-50.087-10.838 18.246-5.003 41.037.833 50.087 10.837zm5.38-3.547c4.629-3.882 18.234-1.536 23.271.071-7.066 2.486-15.086.187-23.271-.071zm144.886 34.273c5.742 1.425 7.804 6.489 12.504 8.941-3.723 3.561-11.085-4.338-12.503-8.941zm189.495 80.706c-6.759 6.178 20.389 4.699 17.881 7.177-8.587 8.487-54.466-11.72-48.302-10.83l3.582.01c8.083 5.955 14.98 3.265 23.249 7.195.404-1.381.06-3.513 1.8-3.557l1.789.006z" fill="#fff"/><path d="m542.975 377.5c11.183 3.737 20.299 9.516 32.182 12.563-11.881 4.02-27.199-3.856-32.182-12.563zm-390.293 23.746 7.161.022c2.609 6.782-8.003.325-5.393 7.106-2.427-.558-1.472-4.463-1.769-7.126zm431.359 10.212c5.066 1.874 7.453 1.882 12.531.038-1.588 3.966-13.944 8.278-12.531-.038zm-344.759-234.318c28.616 7.21 45.493 26.03 69.694 37.605 33.085-13.616 72.943-45.311 119.999-22.786 5.092 4.48 17.147 11.393 21.449 10.75 1.521-.324 1.684.698 1.784 1.785 6.76 6.925 14.15 13.231 21.42 19.653 6.179 5.728 10.299 13.487 16.051 19.636 2.606 12.81 10.652 20.242 10.632 35.646 2.033 5.606-2.824 4.317-3.6 7.111 7.806 4.483.929 16.517 1.714 24.935-6.371 2.75-1.063-6.051-5.356-5.358-2.837 3.111-2.425 9.48-3.622 14.235-4.15-.581-6.875.266-8.957 1.753-.722 4.266 8.156-.962 5.355 5.36-8.004-2.655-5.514 5.197-12.541 3.522 2.749 3.742 10.644.666 3.565 5.355-1.45-.344-1.782-1.793-3.577-1.793l-1.789-.006c-7.413-6.874-17.507-11.095-28.599-14.331-3.919-2.041-7.3-4.618-14.308-3.604-26.177-8.442-40.43-28.671-75.092-28.72.785-6.695-117.46-61.422-162.098-50.249-22.349-1.496-51.791-12.74-48.894-25.181 17.404-17.115 39.517-29.513 68.128-35.407l28.642.087z" fill="#be1f21"/><path d="m428.977 191.96c7.353 3.384 15.314 6.159 21.447 10.749-4.3.643-16.356-6.271-21.449-10.75zm23.233 12.535c5.808 1.357 7.48 6.806 12.502 8.942 1.837 4.693 7.077 6.021 8.917 10.712-7.271-6.424-14.66-12.73-21.419-19.655z" fill="#770505"/><path d="m442.906 320.214c11.091 3.237 21.186 7.459 28.598 14.331-1.74.044-1.395 2.176-1.8 3.557-8.269-3.929-15.166-1.239-23.249-7.194 1.192-5.328 3.82 1.715 7.161.022-3.637-5.282-13.177-4.725-17.873-8.957 5.909-1.548 11.164 4.609 7.163-1.758zm157.273 82.389c-4.551 6.717-19.489 2.854-23.265-1.85 18.027-1.913 5.58-8.042 26.871-7.042l-.027 8.904c-3.126-4.661-12.466-4.235-17.894-1.834 3.234 5.802 10.811-3.711 14.314 1.823zm-472.471-29.924c3.985 4.939 6.935 10.898 8.897 17.835-3.985-4.936-6.934-10.898-8.897-17.835zm16.008 33.88c5.656 6.838 10.75 14.227 14.25 23.193-5.227-7.256-10.586-14.384-14.249-23.193zm345.963-162.774c-5.751-6.15-9.873-13.908-16.051-19.636-1.84-4.693-7.08-6.02-8.917-10.713 9.879 8.576 19.249 17.657 24.968 30.348zm-274.076-3.492c2.599.981 13.031 5.959 12.719 9.821 3.935 5.576 21.917-2.738 23.252 5.414-1.45 1.528 39.702 18.144 39.33 16.146 7.623 4.299 25.402 17.492 25.011 16.102 43.544 13.755 83.334 31.224 121.569 50.228-.175 4.858 2.97 3.595-.022 7.123-2.098-.291-1.499-3.25-1.773-5.347-5.598 6.306-20.601 3.195-19.74 15.966-8.358-5.663-14.83 3.544-25.065 1.706-3.034 3.511-1.991 11.106-3.628 16.015-2.735-14.603-11.553 12.027-16.113-.049-4.23 9.459-18.9 8.471-23.322 17.737-5.05.362-20.794-7.328-19.701 3.5-5.867-4.979-11.574 1.641-10.766 8.873-5.13-2.185-9.857-2.632-10.751 3.527-11.256-10.036-29.668 12.188-41.175 1.657-2.108 2.654-7.444 2.076-7.181 7.102-4.361-5.156-9.659-9.385-16.071-12.513-5.008 2.726-13.886 1.58-14.346 8.86-18.005.05-37.272 1.349-42.928-10.813-9.034-1.302-15.514-.047-16.132 7.073-2.402-8.87-16.504-6.17-16.055-17.854-3.904-.336-5.698 1.439-5.387 5.324.852-8.932-10.937-7.327-7.117-14.264-2.08-.298-3.184.383-3.584 1.769-4.949-1.215 5.011-9.328-5.35-7.139.614-8.298-1.353-14.047-3.521-19.598-1.45.334-1.791 1.78-3.586 1.769-1.09-.102-2.118-.272-1.784-1.785 3.882-2.25 2.001-13.676-3.542-12.477-1.393-.396-2.077-1.497-1.779-3.565l3.579.01c-3.994-6.703-2.786-18.55-7.084-24.951-1.09-.106-2.118-.274-1.784-1.787 3.005-8.931 3.069-30.228.119-39.176 2.852-19.768 11.426-33.811 18.05-49.805 5.066-1.456 4.629 2.524 8.944 1.807-.559 6.472 9.535 2.409 12.515 5.382 23.599-.506 60.046 8.772 64.199 8.216z" fill="#be1f21"/><path d="m138.891 226.695c9.33 3.931 17.243.603 23.254 5.414-5.644 1.979-4.054.149-10.74-.033-2.979-2.974-13.074 1.09-12.514-5.381zm-14.719 131.728c1.794.011 2.136-1.436 3.586-1.769 2.166 5.549 4.133 11.299 3.519 19.598 10.361-2.19.403 5.923 5.35 7.138.4-1.386 1.505-2.066 3.584-1.769-3.819 6.937 7.972 5.332 7.118 14.265-.312-3.885 1.482-5.66 5.386-5.323-.448 11.683 13.654 8.983 16.055 17.852.618-7.118 7.098-8.375 16.132-7.071 5.656 12.163 24.923 10.864 42.928 10.812.461-7.28 9.341-6.134 14.347-8.859 6.412 3.127 11.71 7.355 16.072 12.512-.262-5.026 5.073-4.449 7.181-7.102 11.508 10.532 29.919-11.69 41.174-1.655.896-6.163 5.621-5.714 10.751-3.527-.808-7.233 4.898-13.852 10.766-8.874-1.094-10.827 14.65-3.138 19.701-3.5 4.422-9.267 19.094-8.278 23.324-17.737 4.557 12.077 13.375-14.554 16.111.049 1.637-4.907.594-12.504 3.628-16.015 10.235 1.84 16.707-7.368 25.065-1.706-.861-12.77 14.142-9.66 19.74-15.966.273 2.097-.325 5.054 1.773 5.347 2.992-3.529-.153-2.264.022-7.122-38.235-19.005-78.025-36.474-121.569-50.228-1.448-.344-1.78-1.792-3.575-1.793-7.695-4.227-13.813-10.012-21.436-14.31-16.195-3.106-29.188-12.096-39.33-16.145-1.336-8.152-19.317.162-23.254-5.415 18.118-1.149 38.8-4.061 50.103 5.495-4.591 4.458-9.774-2.76-12.542 3.522 11.341 5.951 24.428 10.17 39.342 12.586 4.371 1.596 7.748 4.173 14.309 3.603.569 4.171 7.803 1.754 8.934 5.37-4.988 4.912-11.706-3.01-14.332 3.517 20.509 11.676 57.97 6.59 76.909 19.821l-12.527-.038c-.548-2.419-4.479-1.489-7.156-1.802 10.968 9.867 28.817 12.931 46.49 16.166 5.221 1.94 10.303 4.019 17.892 3.614 4.696 4.233 14.234 3.675 17.872 8.959-3.34 1.691-5.97-5.351-7.161-.021l-3.582-.011c-.546-2.418-4.476-1.491-7.151-1.802 6.812 9.24 23.366 8.851 33.964 14.348 7.667 4.847 18.397 6.664 21.433 16.091-19.836 54.569-58.717 90.074-97.044 126.135-23.388 3.978-30.811 23.937-53.784 28.329-3.845 11.062-16.163 17.011-25.133 23.074-9.999 6.755-20.725 12.841-30.487 19.495-49.196-35.391-89.599-79.474-126.706-126.816-3.5-8.967-8.594-16.355-14.25-23.193-2.148-5.566-4.309-11.125-7.111-16.046-1.961-6.939-4.911-12.898-8.896-17.835 1.179-7.08-4.713-7.17-3.535-14.253v.005zm30.278 49.952c-2.612-6.782 8.002-.325 5.392-7.106l-7.161-.022c.298 2.666-.658 6.57 1.767 7.128zm-40.889-92.721c4.298 6.402 3.088 18.249 7.085 24.952l-3.581-.011c.378-9.841-4.89-14.104-3.503-24.941z" fill="#770505"/><path d="m264.125 248.443c5.642-5.461 13.313 2.138 17.889 3.616-3.15 2.997-9.875-5.535-17.889-3.616zm41.1 23.274c-1.499-3.843-9.225-1.53-10.724-5.375 36.372 3.094 54.118 24.602 87.617 30.538-32.595-3.212-39.705-12.495-62.585-21.559-6.561.57-9.938-2.007-14.309-3.604z" fill="#fff"/><path d="m378.518 303.992c4.195 6.523 27.917 9.068 39.334 14.365-17.672-3.237-35.522-6.298-46.49-16.167 2.676.313 6.606-.616 7.156 1.802zm64.355 26.905c-6.164-.888 39.715 19.318 48.301 10.831 2.508-2.478-24.64-.999-17.881-7.177 1.796-.001 2.128 1.449 3.577 1.793 9.676 2.996 24.306 7.289 23.292-7.053l-.032 10.685c15.475 6.593 27.685 16.416 39.297 26.829-15.618-4.083-32.504-6.917-42.91-16.155 12.777-1.19 4.109 5.687 16.103 1.829-10.331-10.888-24.326-7.466-42.933-9.033-10.598-5.498-27.152-5.108-33.964-14.349 2.674.313 6.605-.615 7.151 1.802z" fill="#be1f21"/><path d="m417.852 318.357c-11.417-5.296-35.139-7.841-39.334-14.365l3.578.01c16.554 6.994 28.763 7.294 46.503 12.606 7.007-1.013 10.388 1.564 14.307 3.604 4 6.368-1.255.212-7.163 1.76-7.589.404-12.67-1.675-17.892-3.614z" fill="#fff"/><path d="m603.742 407.954c-2.954-.035-.988-4.94-3.563-5.351-3.504-5.535-11.082 3.977-14.315-1.823 5.428-2.403 14.769-2.827 17.894 1.834zm-491.965-94.086c.125-15.049-3.11-25.399.119-39.176 2.951 8.949 2.887 30.244-.119 39.175zm388.536-34.437c7.464 12.018 2.639 36.843-.151 49.859 1.014 14.342-13.616 10.049-23.292 7.053 7.078-4.69-.816-1.613-3.565-5.354 7.026 1.673 4.536-6.178 12.541-3.522 2.801-6.323-6.076-1.094-5.355-5.36 2.08-1.489 4.805-2.334 8.955-1.753 1.198-4.756.785-11.124 3.622-14.236 4.293-.695-1.013 8.107 5.357 5.358-.785-8.42 6.092-20.453-1.716-24.935.777-2.793 5.634-1.503 3.6-7.111zm-377.925 77.206c.311-5.634-4.739-5.967-3.542-12.477 5.543-1.199 7.422 10.227 3.542 12.477z" fill="#770505"/><g fill-rule="nonzero"><path d="m333.828 490.393c.962 1.317 1.049 2.989.262 5.013-.694 1.805-1.74 3.211-3.14 4.224-.184.132-.485.29-.905.472-.421.184-.726.344-.918.482-.613 2.037-1.898 3.763-3.857 5.177-.225.163-.475.336-.747.519-.548 4.183-1.489 7.603-2.819 10.259 1.702-.507 2.85-.975 3.443-1.403.232-.168.634-.532 1.209-1.091.57-.559.869-.846.893-.865l.014-.009c-.089.141-.555.696-1.395 1.671.086-.073.214-.163.387-.268.171-.104.295-.184.368-.238.791-.573 1.434-1.418 1.93-2.534.214-.511.543-1.533.988-3.069.049.016.083.035.1.06.073.101-.259 1.329-.995 3.685.332-.242.624-.687.877-1.337.179-.521.362-1.046.548-1.575-.059-.084-.002-.17.176-.26-.298 2.595-1.741 4.826-4.331 6.698-.867.624-2.37 1.158-4.502 1.599l-.325.233c-.284.52-.662 1.092-1.137 1.713-.611.82-1.225 1.487-1.845 1.996-.127.103-.895.666-2.304 1.682-.925.669-1.81 1.155-2.655 1.461-1.257.455-2.127.354-2.606-.301-.775-1.06-.052-2.392 2.163-3.992 1.466-1.058 3.631-2.084 6.494-3.076.388-.115.964-.302 1.727-.563.01-.006.03-.02.063-.045.174-.128.393-.766.659-1.92.228-.963.467-2.755.716-5.377.035-.318.065-.79.093-1.416l-.083-.035c-.309.224-.745.598-1.308 1.124-.563.528-1.003.905-1.32 1.134-2.943 2.123-5.138 2.19-6.591.2-1.275-1.748-1.287-3.884-.04-6.409 1.027-2.081 2.511-3.824 4.452-5.226.228-.162.586-.367 1.081-.611.497-.245.857-.447 1.084-.61.19-.139.459-.367.802-.686.347-.32.617-.548.808-.688.983-.71 1.855-1.118 2.619-1.225.301-.04.51-.102.626-.185.191-.14.43-.407.714-.801.284-.397.522-.663.714-.801.083-.061.218-.143.4-.251.183-.108.315-.19.399-.25-.01.006.171-.182.543-.562.906-.92 1.547-1.516 1.921-1.786 1.968-1.42 3.484-1.403 4.547.057zm-16.178 27.784c-1.484.359-3.093 1.168-4.835 2.426-2.007 1.449-2.701 2.602-2.077 3.455.441.606 1.254.698 2.433.275.806-.29 1.638-.745 2.496-1.365.109-.079.271-.204.485-.379.218-.177.381-.302.489-.38-.151.058-.487.053-1.012-.013-.523-.063-.826-.15-.902-.259-.109-.148-.121-.33-.035-.544.363-.982.77-1.638 1.222-1.963l1.737-1.253zm4.815-10.636-.228.161c-.19.139-.465.36-.822.663-.357.302-.634.523-.826.662-1.058.764-2.119 1.213-3.177 1.344-1.308.161-2.322-.249-3.034-1.226-1.198-1.643-1.204-3.847-.017-6.617l-.087.064c-1.844 3.382-2.096 5.994-.753 7.835 1.294 1.775 3.346 1.647 6.155-.381.858-.62 1.788-1.455 2.788-2.509zm-3.323-9.317c-.506.213-1.042.524-1.609.934-1.433 1.035-2.501 2.388-3.205 4.059-.807 1.926-.729 3.552.242 4.879 1.256 1.725 3.267 1.587 6.035-.411l1.113-.804c-1.428-.196-2.485-.762-3.168-1.699-.762-1.044-1.026-2.19-.79-3.436.135-.705.586-1.828 1.354-3.372.022-.027.03-.076.028-.151zm-4.039 22.873-.087.062c-.276.198-.323.422-.143.67.104.142.27.186.498.135l-.269-.866zm5.197-3.053c-.353-.047-1.066.203-2.143.751-.886.463-1.578.874-2.08 1.236-.664.481-.807.982-.427 1.505l.138.187c.096.132.594-.126 1.495-.777l.763-.551c1.274-.92 2.026-1.705 2.253-2.35zm-3.747 1.245c-.027-.019-.062-.013-.103.018l-.05.036c-.035.039-.047.066-.036.083.04.019.083.017.124-.014.06-.056.082-.098.065-.123zm2.315.74-2.45 1.77c.237.066.613-.083 1.12-.449l.414-.299c.124-.09.43-.431.915-1.022zm-1.549-1.179c-.03.01-.065.022-.104.037l-.228.163c-.082.061-.163.139-.247.235.069.004.155-.034.264-.112l.087-.064c.134-.096.203-.173.213-.229.017-.013.02-.022.015-.03zm.421-.21c-.03-.004-.073.015-.132.057l-.036.027c-.043.03-.07.071-.086.118.044.059.109.062.198.01.091-.066.111-.137.057-.211zm5.638-20.704c-.304-.174-.875-.262-1.709-.265-.835-.004-1.387.091-1.655.283-.225.162-.567.618-1.025 1.367-1.353 2.206-1.448 4.11-.282 5.71.365.498.927.906 1.697 1.225.863.363 1.525.38 1.982.049.075-.054.098-1.069.069-3.048-.69-.16-1.146-.393-1.372-.701-.345-.473-.359-.823-.042-1.052.029.372.127.674.297.906.412.563.776.73 1.093.505.194-2.104.511-3.765.949-4.98zm-4.247 21.77c-.03-.004-.065.002-.104.02l-.025.016c-.027.033-.043.063-.05.093.046.006.086.002.125-.014.027-.033.045-.071.053-.114zm5.268-24.425c-.42-.178-1.085.063-1.995.718l-1.549 1.12-.172.259c.926-.073 1.864-.036 2.813.114l.904-2.21zm-.027 3.019-.67-.238c-.283.294-.438 1.792-.463 4.493.006.046.021.11.046.195.211-1.001.573-2.483 1.086-4.449zm.961-3.104c-.217-.085-.39-.08-.524.018-.159.113-.383.514-.676 1.202-.297.688-.406 1.081-.335 1.179.061.083.174.161.334.234.162.074.279.083.356.029.249-.599.53-1.486.845-2.662zm8.286-4.73c-.473-.647-1.136-.946-1.993-.897-.721.041-1.427.31-2.118.81-1.179.848-1.907 1.616-2.193 2.304.166-.031.455-.028.86.006l.301.41c.575.786.622 1.942.142 3.465-.148.511-.396 1.261-.745 2.247-.375.917-.891 2.061-1.542 3.431-.596.999-1.197 2.059-1.802 3.181l.063.086c.333-.15.645-.332.938-.543.759-.549 1.447-1.191 2.066-1.929.764-.941 1.152-1.761 1.166-2.457l-.045-.061c-.042-.059-.133-.128-.269-.213-.138-.084-.231-.158-.279-.227-.231-.313-.218-.565.042-.752.218-.157.438-.078.669.238.05.118.123.341.226.673.271-.044.699-.277 1.283-.699 1.367-.985 2.446-2.367 3.237-4.14.908-2.035.905-3.679-.008-4.93zm-7.122 10.46-.087.062c.141-.103-.427.428-1.705 1.588-.039.295-.072.749-.094 1.362.698-.858 1.327-1.863 1.886-3.013zm-1.778 3.788c-.03-.041-.061-.049-.095-.026-.012.02-.012.047-.002.077l.01.013c.026.02.052.027.073.023l.013-.086zm2.218-8.626-.154-.211c-.327-.448-.598-.594-.815-.436-.468 1.084-.734 2.036-.8 2.854.535.4.901.736 1.101 1.01.066.091.048.172-.051.246-.047.019-.089.024-.124.012l-.881-.71-.109-.017c-.235 1.071-.372 2.155-.408 3.256l.325-.235c.931-.672 1.626-1.546 2.078-2.619.521-1.238.468-2.286-.162-3.148zm-2.042 8.369c-.036-.012-.062-.013-.079 0l-.011.064c.026.02.052.025.075.022l.014-.085zm.174-.202-.026-.037c-.04-.036-.072-.045-.099-.026l-.01.01c-.034.022-.04.058-.02.106l.027.037c.027.02.057.023.087.014l.025-.019c.03-.033.034-.059.016-.085zm1.413-11.065c-.024.019-.06.036-.102.056-.045.019-.073.034-.091.046l-.238.172c-.198.144-.426.358-.676.641-.329.35-.452.585-.368.701l.257.062c.099.03.185.018.26-.037.116-.084.437-.631.959-1.641zm-1.326 10.869-.018-.025c-.044-.044-.083-.054-.118-.03l-.01.01c-.026.018-.024.054.002.108l.02.026c.044.044.079.057.104.039l.012-.009c.035-.024.037-.064.008-.12zm.18-.224-.017-.025c-.037-.049-.071-.062-.106-.037l-.013.009c-.025.018-.023.054.004.109l.019.025c.034.027.063.032.089.014l.01-.01c.028-.031.032-.058.014-.084zm.125-.224-.02-.024c-.045-.044-.084-.054-.117-.029l-.011.009c-.025.02-.025.055.003.111l.018.024c.032.028.061.032.087.015l.025-.019c.019-.026.023-.053.014-.086zm2.566-10.321c-.158-.217-.362-.232-.613-.053-.474.343-.881.954-1.222 1.831l.02.024c.079.108.227.25.446.428.22.178.371.326.456.441.439.604.584 1.482.429 2.631.457-.684.756-1.565.898-2.643.157-1.176.019-2.065-.415-2.661zm-1.354 7.434-.019-.025c-.045-.045-.079-.057-.104-.04l-.012.01c-.033.024-.036.064-.007.12l.018.025c.033.026.062.031.089.014l.023-.02c.027-.031.03-.059.014-.084zm.11-.215-.017-.024c-.045-.044-.079-.057-.103-.038l-.013.01c-.033.022-.03.059.005.108l.018.026c.023.032.052.037.087.014l.012-.01c.027-.031.03-.059.013-.086zm.458-7.639c-.03-.04-.074-.04-.132.001l-.014.01c-.06.041-.072.083-.04.125.049 0 .099-.004.143-.012.014-.035.028-.076.044-.125zm.267 19.669c-.005.029-.013.049-.022.062-.008.014-.023.033-.04.059-.017 0-.03-.01-.042-.027l-.026-.037c-.012-.017-.01-.03.006-.044.01-.005.027-.011.054-.019.024-.007.05-.005.07.006zm.086-.196-.027.095-.042-.007c-.018-.025-.025-.052-.02-.081.04-.014.067-.017.089-.007zm.589-19.281-.026-.036c-.04-.036-.071-.045-.097-.027l-.012.01c-.032.022-.035.057-.004.098l.028.037c.017.024.046.029.086.014l.012-.008c.027-.034.03-.063.014-.089zm.624 6.898-.427-.585c-.175.128-.185.299-.026.514.175.239.313.323.414.252l.025-.02.014-.162zm-.351-6.524c-.027-.02-.074-.037-.136-.055-.035.024-.03.065.013.123l.008.013c.043.059.081.075.114.052v-.133zm.147.387-.019-.025c-.046-.043-.079-.056-.105-.04l-.012.01c-.033.025-.03.062.006.111l.017.025c.023.033.05.04.073.022l.025-.018c.028-.032.032-.061.014-.085z" fill="#fff"/><path d="m334.874 505.285c.088.958.07 1.696-.057 2.211l-.057-.074c-.049-.065-.123-.062-.222.012.065-.049-.125.56-.575 1.827-.225.627-.495 1.173-.813 1.64-.159.233-.213.383-.165.448.153.205.375.201.664-.015.123-.092.248-.26.373-.503.126-.244.251-.412.375-.504 0 .446-.28.879-.841 1.294-.297.221-.69.297-1.18.226-.488-.069-.841-.249-1.056-.535-.252-.335-.457-1.557-.611-3.665l-.178-.232-.145.107c-.058.338-.173.834-.351 1.488.006.074-.023.173-.086.295l-.027-.036c-.109-.148-.071-.882.122-2.2.076.121.197.121.364-.003.315-1.015.353-1.687.105-2.016l-.109.084-.216.869-.065-.085c.038-.499.177-1.203.421-2.11.053-.102.268-.294.646-.576l.36-.264c.026.082.045.254.058.511.013.169.084.341.213.512.23-.171.452-.26.667-.265l-.106 2.476-.096 2.025c.001.946.139 1.602.417 1.971.1.132.246.124.445-.023.38-.282.64-.755.781-1.423.233-.75.52-1.884.857-3.4l.088-.066zm-2.61-7.364c.19.256.209.636.056 1.141-.155.505-.368.858-.642 1.06l-.113-.049-.24-.32c-.493-.656-.389-1.246.313-1.769.288-.214.498-.235.627-.062zm2.315 11.698c.009.082-.007.213-.051.396l-.059.047c-.02-.142 0-.279.056-.413l.053-.029zm.25-1.671c-.007.094-.029.244-.066.452l-.063-.089.061-.407.042.006.028.038zm5.369-27.654c.465.612.584 1.583.354 2.912-.192 1.239-.508 3.053-.946 5.444l-.841 3.407-1.725 6.78c-.07.299-.023 1.793.143 4.485l.111.146c.149-.112.228-.203.238-.275.455-2.044.745-3.282.87-3.71.507-1.776 1.06-2.888 1.659-3.339.631-.478 1.131-.475 1.498.006.175.229.259.771.252 1.626.061.082.087.216.076.405-.021.327-.378.904-1.065 1.732-.625.741-.864 1.207-.721 1.394.087.114.276.188.573.225.296.034.508.139.64.309.112.145.198.399.261.758s.149.61.263.758c.075.098.148.118.222.064l.234-.177c.532-.401 1.09-2.081 1.67-5.043l.065.087-.137 1.93c-.107 1.185-.208 1.821-.31 1.909l-.063-.008v-.077l.062-.122c-.049-.027-.093-.076-.133-.145-.221.473-.564 1.166-1.028 2.081l.092.123c.124-.094.266-.255.427-.483.163-.229.297-.383.402-.464l.04-.024c.038.456-.23.901-.803 1.335-.116.086-.408.185-.88.296-.774.184-1.357.021-1.749-.492-.311-.407-.521-.877-.625-1.408-.104-.532-.166-.811-.183-.837-.138-.179-.445-.09-.921.27l-.235.173-.371 2.692c-.022.698-.086 1.471-.187 2.317.048.285.002.486-.141.605l-1.09.961c-.143.132-.307.078-.494-.169l-.083-.108c-.069-.242-.142-.599-.215-1.069l-.137-2.439c-.118-.154-.305-.18-.561-.076l.077-.56c.125-.48.262-1.098.409-1.853.004-.029.002-.072-.004-.132l-.095-13.238c-.025-2.234.405-4.058 1.292-5.473-.018.013-.033.019-.047.016.01-.019.043-.063.096-.129.158-.161.396-.417.712-.769.042-.044.081-.094.119-.147-.01.007-.02.016-.038.027.136-.178.355-.633.663-1.365.249-.57.537-.979.864-1.227.584-.44 1.064-.409 1.443.087l.001-.002zm-3.249 3.584-.131-.171c-.452.34-.745 1.123-.885 2.347-.052.9-.102 1.8-.151 2.699l.111.146.147-.11.908-4.911zm1.399-.379-.262-.343c-.222-.103-.39-.113-.504-.025l-.509 3.704c-.061.379-.139.998-.233 1.855l-.109 3.11-.216 6.222c-.011.227.026.392.107.498l.284-.188 1.953-8.257c.26-1.06.371-2.192.327-3.397-.045-1.448-.327-2.507-.838-3.177zm1.175-2.742c-.297-.392-.638-.445-1.02-.155-.195.147-.399.461-.609.942-.233.513-.291.851-.166 1.013.061.083.202.128.421.137.219.01.354.046.405.111l.305.404c.132.171.259.453.381.85s.249.679.38.851l.195-.147c.273-2.058.179-3.394-.289-4.006zm1.128 18.364-.532-.697c-.076-.099-.247-.045-.519.159-.683.516-1.178 1.545-1.485 3.09l.002.077c.136.179.446.086.93-.28 1.179-.891 1.713-1.673 1.602-2.347zm.179-2.006-.438-.577c-.089-.114-.259-.076-.511.115-.319.241-.688.93-1.106 2.069l.13.171c.132-.1.298-.268.496-.51.199-.239.357-.405.48-.5l.063-.045c.097-.061.328-.171.696-.332l.154-.078.067-.014-.012.01c.096-.069.088-.173-.018-.312zm2.679 5.576c.011.03.013.049.003.056l-.013.01c-.022.004-.049.004-.077 0-.025-.032-.033-.059-.023-.079.033-.025.065-.024.101 0l.007.013z" fill="#fff"/><path d="m350.266 494.174c-.217 1.679-.409 2.814-.573 3.405-.37 1.317-.953 2.282-1.753 2.896-.39.301-.861.489-1.415.566-.739.102-1.206.029-1.4-.222-.674-.866-1.06-1.422-1.16-1.668l-.149-.893c-.02-.111-.057-.285-.108-.517-.185-.942-.057-2.02.386-3.234.441-1.211 1.042-2.108 1.797-2.692l.525-.404c.218-.14.489-.142.817-.005.27.116.495.287.671.513.689.885.708 2.068.064 3.548-.324.756-1 1.846-2.026 3.268.097.327.24.611.429.855.328.422.76.426 1.298.014.725-.558 1.296-1.375 1.713-2.448.157-.433.425-1.405.799-2.917l.086-.066zm-3.292-2.227c-.118-.154-.327-.239-.627-.256l-.366.282c-.367.283-.675.772-.927 1.471-.274.754-.281 1.297-.023 1.629l.151-.157c.55-1.017 1.202-1.88 1.952-2.588.009-.108-.045-.236-.159-.381zm.376 1.267c-.029-.04-.075-.089-.131-.143-.055-.055-.095-.099-.12-.131-.109-.008-.249.056-.422.185-.236.183-.389.379-.459.589-.445 1.271-.581 2.565-.417 3.885l.152.194c.473-.364.899-1.093 1.282-2.189.409-1.166.446-1.965.113-2.392zm1.958 5.126-.131-.167c-.221.168-.471.474-.748.919-.434.668-.656 1.011-.666 1.031l.132.167c.499-.382.969-1.031 1.414-1.949zm31.933-44.474c-.348-.05-.86-.097-1.535-.142-.943.017-1.741.285-2.385.809-.056.047-.107.13-.156.248-.049.119-.098.197-.145.236-.25.39-.986 1.082-2.206 2.073-.446.363-.819 1.32-1.113 2.87-.267 1.342-.376 2.431-.328 3.264l.512 9.312c-.014.275-.012.69.007 1.245.108.135.266.213.47.233.681.411 1.403 1.043 2.158 1.897.574-.467 1.081-1.339 1.52-2.616s.636-1.896.589-1.859l.059-.049c-.103 1.541-.497 2.9-1.179 4.076-.119.177-.3.451-.543.819-.073.138.041.502.341 1.093.131.224.311.571.54 1.046.758 1.94.819 3.973.188 6.101-.625 2.07-1.756 3.771-3.389 5.1-3.756 3.054-7.438 2.636-11.048-1.252-.624.359-1.54.86-2.753 1.504-1.386.677-2.353.683-2.899.016-.784-.951.203-2.549 2.96-4.794-.371-.227-.789-.622-1.252-1.184-.775-.943-1.148-2.108-1.119-3.496.024-1.331.403-2.505 1.135-3.523.419-.593.888-1.146 1.406-1.662.078-.261.23-.88.451-1.855.138-.641.34-1.327.604-2.059.092-.18.202-.448.333-.807.03-.143.029-.427-.001-.852-.161-2.252 1.119-4.675 3.838-7.273.205-.206.582-.546 1.136-1.023l4.599-4.02c1.592-1.296 2.646-2.108 3.163-2.436.087-.056.367-.217.84-.482.441-.241.673-.372.698-.389.188-.157.349-.373.477-.648.126-.273.236-.45.331-.528l.06-.049c.068.197.084.482.047.856 1.774-.621 2.971-.557 3.59.197zm-19.046 32.052c-.319-.39-.645-.575-.975-.557-.08.064-.208.157-.38.277-.174.121-.3.216-.379.278-1.227 1-1.981 1.784-2.256 2.354-.299.625-.31 1.103-.034 1.435.389.477 1.234.452 2.531-.074 1.022-.408 1.856-.874 2.5-1.398l.228-.187c-.726-1.3-1.137-2.011-1.235-2.13zm-1.344-8.773-.069-.083c-.182.149-.329.334-.439.557-1.317 2.539-1.287 4.645.089 6.319.552.675.933.928 1.14.758l.085-.068c-.719-2.54-.987-5.034-.806-7.484zm6.481-1.898-.185-.227c-.601-.729-1.421-.98-2.459-.757-.821.166-1.639.58-2.453 1.241-.119.098-.284.255-.492.471-.21.215-.361.362-.458.439-.325.913-.275 2.875.145 5.879.158 1.196.3 1.873.431 2.03l.069.084c1.05-.536 1.832-1.014 2.351-1.436l.143-.118c-.111-.04-.35-.011-.712.083-.298.072-.504.041-.614-.094l.023-.019.005-.044c.427-.097.759-.194.997-.295.002-.029.009-.278.02-.751.005-.269.11-.488.318-.658.097-.078.242-.134.441-.169.196-.034.326-.077.39-.13l.036-.03c.044-1.531.355-2.828.931-3.891.301-.312.66-.847 1.073-1.607zm6.633-17.367-4.341 2.777c-.087.059-.188.142-.311.253-.139.127-.496.524-1.075 1.194-2.558 2.941-4.234 5.497-5.03 7.666-.159.422.034.964.583 1.631.508.618 1.127.83 1.856.633.277-.068.453-.129.525-.187l.703-.573c1.66-1.349 2.578-3.42 2.758-6.212.005-.283-.04-.484-.139-.602-.396-.483-1.109-.309-2.139.528-.694.564-1.264 1.373-1.714 2.429-.015-.293.212-.776.684-1.451.417-.591.787-1.016 1.104-1.277.757-.617 1.466-.767 2.122-.455-.033-.33.007-.718.118-1.167l.104.055.089.107c.224.984.345 1.803.368 2.459.093 2.573-.692 4.534-2.348 5.884-.932.756-1.743 1.124-2.428 1.1-.954-.044-1.539-.197-1.754-.458l-.987-1.203c-.119.098-.336.68-.647 1.749-.312 1.069-.475 1.757-.483 2.069 2.354-1.636 4.424-1.62 6.208.051 1.446-1.058 2.986-1.565 4.621-1.516.019-1.062-.091-2.562-.326-4.5-.245-2.011-.369-3.479-.37-4.405-.005-1.637.237-3.116.72-4.438.181-.491.332-.785.452-.883.094-.077.165-.088.21-.033.079.097.07.183-.026.261-.282.839-.449 1.364-.499 1.576-.152.639-.166 1.174-.039 1.603l.322-1.891.047.617c.234-.973.59-2.103 1.063-3.388zm-8.138 25.319c-.444-.139-.865-.137-1.252.008-.402.207-.795.415-1.181.625-.309.157-.659.396-1.05.713l-.31.255c.026.161.076.285.147.374.229.278.931.308 2.11.09 1.118-.208 1.845-.449 2.18-.721l-.001-.098-.643-1.244zm1.042 1.775c-.041-.034-.088-.074-.143-.124-1.479.675-2.886.948-4.22.814l-.083.068c.395.788.737 1.358 1.023 1.707l.293.355.361-.192 2.617-2.132c.225-.18.274-.346.15-.497zm-3.644-17.464c-.182.427-.288 1.057-.322 1.891.086-.413.193-1.042.322-1.89zm-.221 2.645c-.05.132-.021.265.091.401l.02.024-.111-.426zm.233.623-.02-.023c-.049-.041-.083-.052-.108-.033l-.01.01c-.032.026-.032.066-.001.12l.02.023c.034.025.062.028.086.01l.024-.02c.028-.036.03-.064.01-.088zm3.553-7.913c-.032.026-.079.059-.142.096-.064.037-.106.066-.129.085-1.372 1.117-2.354 2.405-2.948 3.868l-.02-.024-.019-.023c-.04-.048-.075-.06-.109-.032l-.01.01c-.032.025-.028.062.01.11l.019.023c.028.032.056.042.086.029l-.033.106c.002-.014 0-.024-.007-.033l-.03-.035c-.039-.032-.076-.036-.107-.01l-.012.01c-.024.02-.023.052 0 .098l.03.036c.027.02.053.018.079-.003l.021-.019c-.206.591-.304 1.141-.298 1.651.955-2.139 2.163-4.119 3.619-5.939zm-3.414 4.443-.027-.036c-.033-.039-.064-.046-.097-.02l-.012.01c-.025.02-.023.052.001.098l.03.036c.026.018.055.02.086.008l.012-.01c.026-.033.03-.062.008-.086zm.195-.395c.018.039.016.067-.008.087l-.012.009c-.01.007-.016.006-.023-.002zm12.876 9.93c-.591.48-2.031 1.433-4.316 2.857-.109.076-.215.162-.311.255-.324.461-.755 1.056-1.288 1.781-.97 1.265-1.986 2.423-3.049 3.474.723.881 1.56 1.324 2.51 1.332-.192.157-.522.175-.993.054-.135-.049-.33-.135-.591-.255-.248-.222-.648-.524-1.203-.907l-3.276 2.665c3.286 3.998 6.825 4.452 10.619 1.365 1.554-1.264 2.596-2.874 3.126-4.827s.457-3.873-.215-5.76c-.337-.943-.675-1.622-1.012-2.035zm-11.589-6.254c.012.03.01.059-.008.087l-.012.009c-.04.02-.067.017-.087-.008l-.03-.035c-.023-.047-.025-.079.001-.099l.01-.009c.031-.027.064-.02.098.02zm.077 11.988-.01-.013c-.039-.047-.073-.059-.105-.031l-.01.009c-.034.027-.03.063.009.111l.01.012c.055.05.094.065.117.045l.012-.01c.032-.026.025-.068-.022-.122zm-.015-12.713.01.01c.04.05.033.096-.023.142l-.043-.005-.025-.079.03-.063c.014-.014.032-.016.053-.007zm.167-.573.02.045-.026.041-.023.02-.033.008-.04-.026-.01-.012-.019-.045.015-.032.023-.019.047-.02.041.028.01.012zm.077-.516.02.023c.036.062.044.103.019.123-.03.01-.066.015-.111.01-.015-.067-.005-.113.025-.14.007-.007.022-.013.046-.016zm.06 13.666c-.035-.009-.069-.003-.102.023l-.036.029c-.03.026-.04.047-.027.062l.029.036c.045-.012.084-.03.116-.056.025-.032.03-.064.02-.095zm.048-13.994.019.024c.033.055.023.102-.023.141l-.065-.006-.014-.089.027-.063c.022-.005.04-.007.055-.006zm.421 14.249c-.084.029-.178.058-.285.092l-.178.144c.093.017.231.03.413.041l.035-.03.044.006.004-.044c.04-.031.028-.102-.035-.21zm-.254-14.605c.019.039.015.069-.008.088l-.012.01c-.033.026-.062.023-.087-.01l-.02-.023c-.024-.045-.026-.078-.002-.098l.012-.01c.03-.024.064-.019.097.02l.02.025zm.03-.301.01.013c.046.056.057.094.034.112-.03.012-.068.016-.112.012-.016-.067-.01-.111.014-.13.015-.014.035-.015.055-.006zm.164-.213c.012.03.01.059-.008.089l-.023.019c-.03.01-.059.008-.089-.01l-.029-.034c-.024-.047-.02-.083.013-.108l.012-.01c.023-.02.056-.013.097.02l.027.035zm-.047 14.749-.019-.024c-.04-.033-.073-.04-.097-.02l-.012.01c-.033.025-.037.061-.012.108l.02.023c.034.024.063.027.087.01l.024-.022c.033-.025.037-.054.01-.085zm1.969-6.804c-.669.545-1.181 1.482-1.539 2.811-.357 1.331-.398 2.404-.122 3.225.632-.511 1.101-1.006 1.412-1.486.482-.724.766-1.478.854-2.262.099-.915-.104-1.678-.606-2.288zm4.878-1.665c-.32-.389-1.007-.413-2.056-.073-.879.293-1.561.635-2.046 1.03l-.359.294c.647 1.205.74 2.46.28 3.76-.401 1.147-1.169 2.18-2.299 3.101l.067.083 4.546-2.189c.357-.292.718-.883 1.079-1.77.349-.839.604-2.106.767-3.801.008-.1.017-.246.021-.435zm-2.766 6.976-3.452 1.577-.085.069c-.05.134-.003.288.142.462l.019.024c.726-.088 1.75-.671 3.074-1.747.142-.118.243-.245.301-.383zm1.15-.421c-.134-.05-.321.023-.558.218-.151.123-.36.315-.625.576-.265.263-.468.451-.611.568-.422.343-1.027.683-1.814 1.02-.574.241-.841.345-.801.312-.207.169-.081.531.374 1.087l.118.143c.283-.139.517-.284.701-.433l.932-.757c1.171-.956 1.933-1.866 2.284-2.734zm-2.48 3.368c-.109.091-.287.219-.532.384-.244.165-.42.294-.532.382l-.203.167.187.227c.523-.43.885-.816 1.081-1.16zm3.079-4.749-.304.525.106-.088c.168-.137.235-.281.199-.438zm4.659-2.759-.774-.94c-.592-.719-1.074-1.055-1.445-1.007-.01.007-.094.341-.256 1.002-.322 1.322-.687 2.478-1.096 3.472.996-.504 1.934-1.117 2.821-1.837l.525-.428c.08-.063.155-.151.225-.261z" fill="#fff"/><path d="m382.335 445.414c.47.542.651 1.6.544 3.168-.023.413-.063 1.035-.117 1.866.034.826-.014 2.065-.142 3.717l-1.913 10.189c-.275 1.455-.217 2.967.179 4.534l.145.121.141-.122c.047-.039.154-.66.322-1.861.147-1.101.233-1.794.254-2.084.046-.039.113-.022.202.05.037.01.077-.006.126-.046l.081-.07c.63-1.203 1.153-1.983 1.573-2.346.066-.191.038-.356-.083-.496-.055-.062-.138-.146-.249-.253-.113-.106-.192-.188-.24-.241-.04.032-.104.075-.198.13s-.169.102-.214.142c-.047.039-.07.074-.072.102-.109.094-.218.263-.329.508l-.082.07c.026-.379.141-.655.343-.83.678-.583 1.272-.578 1.784.012.404.466.658 1.486.759 3.064.142 2.112.235 3.264.279 3.457l.121.141c.07-.061.185-.133.339-.22.156-.088.267-.157.329-.211.351-.302.639-1.144.868-2.529.154-1.012.238-1.946.248-2.794l.071.082c.122.721.103 1.887-.05 3.494-.072-.128-.161-.145-.271-.052l-.079.071c-.043.47-.247 1.104-.613 1.906-.219.469-.298.728-.243.776l.123.097c.087-.074.203-.19.351-.35.146-.159.265-.275.35-.349l.027-.016c-.11.346-.311.645-.606.899-.274.235-.641.415-1.103.54-.544.156-.918.118-1.12-.115-.275-.318-.426-.844-.452-1.581l-.12-3.954-.305-.35c-.022.02-.065.049-.131.084-.063.034-.112.065-.144.092-.126.108-.198.189-.215.246-.116.088-.178.166-.183.237-.951 2.074-1.326 4.899-1.123 8.474.01.059.014.149.013.272l-1.194 1.024c-.142.039-.374.062-.696.067-.463-1.551-.668-2.728-.615-3.532-.229-.264-.39-.355-.484-.274-.029.026-.054.055-.071.081.02-.07.086-.509.196-1.314s.164-1.268.158-1.384l-.592-13.361c-.025-.736-.003-1.39.068-1.966.105-.726.351-1.573.735-2.54.147-.534.378-1.32.688-2.359.279-.943.687-1.645 1.217-2.1.545-.467 1.017-.472 1.416-.016zm-1.125 3.453c-.331-.381-.744-.357-1.244.071l-.164.142c-.016.012-.027.068-.033.171-.062.772-.135 1.93-.212 3.47-.009.305 0 1.883.022 4.734-.017.922.003 2.034.061 3.34.085.521.218 1.301.396 2.339l.192.223.129-.11c.015-.014.056-.226.123-.634.205-1.003.482-2.497.824-4.484l.429-3.434c.149-.956.286-2.094.404-3.415-.046-.95-.354-1.754-.926-2.414zm.546-2.905c-.328-.38-.679-.41-1.053-.092-.481.415-.757 1.253-.826 2.516l.121.141c.71-.352 1.431-.255 2.164.294l.164-.142-.095-1.42c-.067-.578-.227-1.01-.474-1.297zm.182 18.211c.045.054.047.101-.001.141l-.069.061c-.005-.036-.01-.08-.012-.132l.081-.07zm.099-.615c.013.016.015.042.005.077-.016 0-.044-.01-.087-.028.002-.014.006-.031.016-.054l.012-.009c.023-.005.04 0 .054.014zm.142-.447c.015.03.017.05.01.057l-.013.009c-.023.006-.052.004-.087-.007-.022-.022-.027-.045-.019-.066.031-.026.064-.027.098-.003zm.057-.359c.019.025.032.053.029.083-.035.002-.074-.002-.111-.015l.014-.055c.023-.019.046-.025.068-.015zm9.938-3.824c.169.946.211 1.682.128 2.206l-.061-.069c-.054-.061-.128-.052-.22.029.062-.054-.078.57-.421 1.87-.17.643-.393 1.21-.671 1.701-.139.246-.183.399-.127.462.172.19.391.168.661-.07.116-.103.228-.278.334-.53.109-.248.218-.425.335-.527.039.443-.205.897-.729 1.359-.278.245-.664.352-1.158.321s-.859-.18-1.099-.446c-.281-.315-.588-1.516-.921-3.605l-.194-.219-.139.123c-.027.339-.101.842-.224 1.511.012.072-.01.173-.06.3l-.032-.034c-.122-.138-.142-.872-.062-2.203.088.114.209.104.364-.032.23-1.038.209-1.71-.063-2.018l-.105.092-.141.885-.072-.082c-.008-.501.071-1.215.236-2.143.043-.108.24-.316.595-.628l.337-.298c.03.083.065.252.102.508.026.169.11.335.253.495.218-.19.432-.297.644-.32l.101 2.479c.026.675.053 1.351.078 2.026.081.942.274 1.586.582 1.931.108.122.257.102.442-.061.354-.311.574-.806.659-1.483.169-.766.359-1.919.568-3.46l.079-.07zm-3.217-7.126c.211.237.263.615.148 1.131-.11.518-.296.889-.552 1.116l-.118-.04-.266-.3c-.549-.614-.493-1.211.165-1.792.272-.24.481-.28.624-.116zm3.286 11.467c.018.079.012.212-.017.398l-.059.052c-.027-.142-.019-.279.025-.416l.052-.035zm.107-1.686c.002.094-.006.245-.026.455l-.072-.079.026-.413.043.002zm5.73-7.337c-.082 1.694-.182 2.841-.3 3.446-.263 1.346-.768 2.355-1.514 3.028-.367.33-.823.554-1.367.675-.732.159-1.202.121-1.418-.113-.739-.812-1.169-1.337-1.29-1.577-.059-.248-.134-.542-.22-.88-.029-.11-.08-.28-.149-.508-.26-.925-.218-2.011.129-3.257.345-1.244.871-2.186 1.58-2.825l.491-.443c.205-.157.475-.181.813-.07.279.094.516.246.71.459.754.828.868 2.005.338 3.531-.265.778-.853 1.918-1.767 3.419.123.318.288.591.496.818.36.395.793.366 1.295-.089.684-.613 1.187-1.472 1.519-2.572.125-.446.314-1.435.572-2.971l.081-.07zm-3.458-1.964c-.131-.144-.347-.213-.645-.206l-.343.31c-.343.309-.613.822-.808 1.537-.213.773-.178 1.315.104 1.626l.141-.167c.468-1.057 1.049-1.969 1.742-2.732-.002-.108-.065-.231-.191-.368zm.475 1.234c-.034-.037-.081-.082-.141-.132-.06-.051-.103-.092-.131-.122-.109.002-.245.074-.404.219-.221.201-.357.409-.413.624-.34 1.304-.374 2.609-.101 3.913l.168.184c.441-.397.81-1.16 1.104-2.284.314-1.197.286-1.998-.082-2.4zm2.355 4.959-.143-.158c-.208.186-.433.512-.675.977-.378.697-.573 1.056-.583 1.077l.144.158c.466-.419.885-1.103 1.257-2.053zm8.589-11.709c.086.989-.301 2.045-1.159 3.171-.252.334-.411.53-.478.594-.057.164-.133.42-.232.763-.129.192-.153.25-.07.172l-.091.085c.037-1.129.047-1.702.033-1.717-.099-.104-.207-.101-.328.011l-.112.106c-.064.216-.307.918-.723 2.108-.487 1.34-.771 2.057-.854 2.149-.05.201-.08.355-.091.465.148.17.443.048.887-.366.209-.196.334-.335.37-.416-.02.132-.07.24-.162.324l-.877.799c-.205-.008-.406.08-.599.262-.091.085-.208.219-.352.402-.145.184-.258.314-.341.391-.232.217-.43.24-.594.067-.077-.081-.118-.178-.12-.286-.224-1.281-.436-3.2-.647-5.755-.26-.276-.461-.348-.603-.216-.368.345-.675 1.853-.92 4.526l-.077.072c-.014-.072-.034-.185-.066-.339-.004-.124-.005-.305-.005-.545-.051-.472-.091-1.18-.119-2.124.075.128.188.118.34-.021l.102-.095c.155-.763.53-1.69 1.126-2.78.056-.108-.014-.261-.204-.463-.133-.143-.227-.187-.28-.14l-.691.637c.009-.201.13-.41.361-.628.459-.428.828-.491 1.111-.194l.53.563c.473.501.815 1.244 1.024 2.229.147.679.233 1.472.257 2.381l.019 1.163c.02.023.059.054.119.091.055.04.098.072.126.103l.26-.242c.156-.147.447-.858.873-2.128.417-1.218.653-2.017.709-2.393-.354-.641-.574-1.273-.666-1.892-.02-.124-.072-.827-.165-2.106-.029-.226-.066-.452-.11-.678-.021-.262.055-.472.228-.634.228-.211.491-.156.793.167.509.538.804 2.168.89 4.89.133.143.227.187.279.14.563-.526.973-1.393 1.23-2.602l.074-.074zm-8.024 2.185c.014.029.016.062.008.098-.03.015-.061.002-.097-.035-.008-.007-.004-.018.012-.032l.012-.01c.02-.022.044-.029.065-.021zm5.973.089c-.173.161-.177.328-.015.499.173-.161.179-.328.015-.499zm2.144-2.76c-.017.045-.03.105-.04.187l-.02.019h-.046l.031-.283.074.079z" fill="#fff"/><path d="m411.821 441.188c-.015 1.698-.068 2.85-.163 3.459-.209 1.354-.676 2.381-1.396 3.083-.354.345-.802.588-1.341.724-.723.188-1.197.167-1.422-.06-.771-.786-1.222-1.294-1.349-1.529l-.255-.873c-.035-.108-.093-.276-.169-.502-.299-.918-.298-2.005-.002-3.262.297-1.258.787-2.22 1.472-2.885l.474-.461c.198-.164.47-.198.81-.099.284.084.527.227.729.434.79.801.951 1.975.488 3.52-.231.786-.774 1.944-1.622 3.478.134.312.31.579.528.798.376.385.806.339 1.293-.134.653-.637 1.122-1.511 1.408-2.627.104-.449.252-1.445.444-2.991l.076-.073zm-3.528-1.83c-.138-.141-.355-.2-.652-.183l-.331.324c-.33.321-.581.844-.749 1.567-.185.78-.128 1.32.169 1.62l.132-.172c.428-1.077.975-2.008 1.635-2.798-.005-.108-.072-.229-.203-.36zm.52 1.217c-.033-.036-.084-.079-.143-.128-.061-.046-.108-.085-.138-.114-.107.006-.237.084-.393.234-.213.208-.343.42-.388.636-.292 1.313-.276 2.616.044 3.909l.172.177c.427-.416.765-1.19 1.019-2.323.265-1.206.209-2.003-.173-2.391zm2.536 4.858-.148-.154c-.2.194-.412.528-.636 1.004-.35.712-.527 1.08-.537 1.101l.151.154c.449-.437.84-1.138 1.171-2.105z" fill="#fff"/><path d="m417.662 435.892c.072.961-.167 2.127-.715 3.5-.536 1.33-1.154 2.35-1.852 3.058-1.039 1.052-1.973 1.174-2.803.365-.358-.352-.581-.828-.668-1.428-.085-.6.046-1.074.393-1.424.049-.052.129-.118.232-.193.105-.077.178-.138.222-.183l.266.26c.227.223.316.675.263 1.358-.052.681.056 1.15.319 1.411.414.401.793.428 1.136.077.806-.819 1.028-1.972.663-3.46-.068-.253-.525-1.424-1.376-3.517l-.197-.193-.131.131c-.129 1.006-.358 2.235-.691 3.684l-.176-.086c.011-.275.024-.698.039-1.268.093.102.191.101.3-.009.137-.14.246-.614.33-1.427.085-.813.071-1.273-.039-1.38-.096-.093-.181-.094-.255-.004.02-.095.097-.631.229-1.608.109-.84.215-1.31.315-1.413.115-.118.218-.132.305-.046.242.236.312.627.207 1.17-.139.757-.202 1.184-.185 1.285.19.188.491.495.903.925.696.754 1.142 1.296 1.334 1.627.273.483.458 1.164.554 2.045l.133.131c.238-.257.524-1.361.862-3.312l.079-.078zm-4.734-.316c.008.037.004.069-.01.099-.02.007-.045-.001-.066-.02l-.011-.012c-.02-.036-.03-.059-.023-.064l.013-.013c.037-.022.069-.019.099.01zm4.781-.305c.089.087.089.174.004.262l-.001.044-.032.033h-.046c.008-.064.015-.157.021-.282l.053-.055zm3.047.199c.45.424.473.847.073 1.269-.262.275-.54.271-.835-.007-.414-.392-.447-.769-.102-1.13.317-.333.606-.376.864-.133zm2.263-2.404c.456.424.485.847.087 1.274-.26.278-.54.278-.84.002-.418-.389-.458-.765-.113-1.131.314-.339.604-.387.866-.145zm2.221-2.412c.464.42.496.845.1 1.279-.258.282-.537.285-.842.01-.426-.385-.467-.762-.125-1.135.311-.343.601-.395.867-.155z" fill="#fff"/><path d="m87.99 154.443.254-84.02 13.166.039c13.879.043 20.032 5.254 19.642 16.464l-.055 18.171c.077 13.69-6.935 17.917-20.337 17.168l-.098 32.215-12.574-.038zm12.7-42.208c3.677.011 7.354.141 7.722-3.753l.061-19.942c.023-7.789-2.703-8.387-7.687-8.048l-.096 31.744zm24.465-29.191c.034-10.975 8.703-14.135 16.414-14.112 7.829.024 16.479 3.236 16.446 14.211l-.179 59.002c-.034 10.975-8.703 14.135-16.532 14.112-7.711-.024-16.361-3.236-16.328-14.211zm12.399 57.978c-.013 4.248 1.289 5.196 3.899 5.204 2.491.008 3.799-.932 3.812-5.181l.172-56.878c.013-4.248-1.289-5.196-3.78-5.204-2.61-.008-3.918.932-3.931 5.181zm24.384 13.645.255-84.02 16.607.05c10.083.031 16.239 3.59 16.206 14.447l-.036 11.919c-.019 6.254-1.814 11.441-12.494 12.589l-.001.236c5.574.725 11.499 2.631 11.951 10.301.677 11.213-.07 23.012 1.911 34.583l-12.574-.038c-2.106-9.683-1.474-22.308-1.445-32.103.016-5.075-1.876-7.087-7.69-6.868l-.118 38.943-12.572-.038zm12.723-49.17 2.371.007c4.389.013 5.345-2.344 5.355-5.412l.046-15.223c.009-3.186-1.886-4.136-4.733-4.144l-2.965-.009-.076 24.782zm58.076-34.636-.033 10.975-10.914-.034-.221 73.046-12.574-.038.221-73.046-11.032-.033.033-10.975zm15.599 70.497c-.013 4.248 1.289 5.196 3.898 5.204 2.492.008 3.799-.932 3.812-5.181l.027-8.851c.036-11.801-20.214-23.427-20.173-37.116l.037-12.034c.033-10.975 8.703-14.135 16.413-14.112 7.829.024 16.479 3.236 16.446 14.211l-.053 17.702-12.575-.038.051-16.64c.013-4.248-1.289-5.196-3.781-5.204-2.609-.008-3.917.932-3.93 5.181l-.031 10.385c-.019 6.018 20.211 24.251 20.185 32.748l-.045 14.869c-.033 10.975-8.702 14.133-16.532 14.11-7.71-.024-16.36-3.236-16.327-14.211l.059-19.35 12.574.038-.055 18.292zm45.37-57.803c.033-10.975 8.702-14.135 16.413-14.112 7.829.024 16.479 3.236 16.446 14.211l-.179 59.003c-.033 10.974-8.703 14.134-16.532 14.111-7.711-.024-16.361-3.236-16.327-14.211zm12.398 57.978c-.013 4.248 1.289 5.196 3.899 5.204 2.491.008 3.799-.932 3.812-5.181l.172-56.878c.013-4.248-1.289-5.196-3.78-5.204-2.61-.008-3.917.933-3.93 5.181zm24.537 13.646.255-84.021 28.233.086-.033 10.975-15.659-.048-.065 21.596 15.065.046-.033 10.975-15.066-.046-.122 40.475zm71.335-53.122.051-17.112c.013-4.248-1.289-5.196-3.78-5.204-2.61-.008-3.917.932-3.93 5.181l-.173 56.878c-.013 4.248 1.289 5.196 3.899 5.204 2.491.008 3.799-.932 3.812-5.181l.055-18.173 12.574.038-.058 19.235c-.033 10.975-8.703 14.135-16.532 14.112-7.711-.024-16.361-3.236-16.327-14.211l.179-59.002c.033-10.975 8.702-14.135 16.413-14.112 7.829.024 16.479 3.236 16.446 14.211l-.055 18.174zm24.613-30.609 18.861.058 9.354 84.049-12.693-.038-2.303-22.784-8.897-.027-2.798 22.768-11.388-.034zm12.066 50.308-2.504-34.939-.831-.003-3.19 34.922zm19.219 33.808.255-84.02 12.574.038-.221 73.046 16.014.048-.033 10.975zm31.604.096.255-84.02 12.574.038-.221 73.045 16.012.049-.033 10.975-28.589-.087z"/><path d="m163.137 607.808-.033 10.975-10.914-.033-.221 73.045-12.574-.038.221-73.045-11.032-.034.033-10.975zm3.138 84.03.255-84.02 12.574.038-.098 32.217 6.999.021.098-32.217 12.572.039-.254 84.02-12.575-.038.124-40.832-6.999-.021-.124 40.832-12.574-.039zm36.665.112.255-84.021 27.996.085-.034 10.975-15.421-.047-.065 21.594 14.828.045-.033 10.975-14.829-.045-.089 29.503 15.658.047-.033 10.973-28.233-.085zm51.247.155.254-84.02 12.575.038-.115 37.881.356.001 9.723-37.852 12.217.037-9.725 38.322 9.707 45.698-12.93-.039-9.005-42.628-.356-.001-.129 42.6-12.574-.038zm38.124.116.255-84.021 12.574.038-.098 32.217 6.999.021.098-32.216 12.574.038-.255 84.02-12.574-.038.124-40.832-6.999-.021-.124 40.832zm48.298-83.875 4.097 18.304c1.754 8.148 1.632 9.328 2.673 18.182l.237.001c.374-6.608.867-12.153 2.189-17.577l4.565-18.866 11.744.035-13.088 52.002-.097 31.98-12.575-.038.095-31.391-12.77-52.669 12.93.039zm28.362.086 17.792.054c10.084.03 14.691 6.181 14.664 15.15l-.04 13.335c-.141 7.316-4.418 9.545-11.66 11.176v.236c7.943 1.558 11.97 3.694 11.941 13.133l-.04 13.335c-.031 10.031-4.68 17.688-15.238 17.656l-17.673-.054zm12.469 34.851 2.847.009c3.203.009 4.512-1.403 4.527-6.241l.039-12.745c.014-4.839-1.286-6.259-4.489-6.268l-2.847-.009zm-.119 39.178 2.492.007c3.558.011 5.223-1.4 5.239-6.593l.048-15.931c.016-5.193-1.64-6.614-5.199-6.624l-2.491-.008zm24.499 10.104.255-84.021 27.995.085-.033 10.975-15.421-.047-.066 21.594 14.828.045-.033 10.975-14.828-.045-.09 29.503 15.659.047-.033 10.973-28.233-.085zm31.248.095.255-84.021 16.607.051c10.083.03 16.239 3.589 16.206 14.446l-.036 11.919c-.019 6.253-1.814 11.442-12.494 12.589l-.001.236c5.574.725 11.499 2.632 11.951 10.302.677 11.213-.07 23.01 1.911 34.581l-12.574-.038c-2.106-9.684-1.474-22.309-1.445-32.104.016-5.074-1.876-7.084-7.69-6.868l-.118 38.944-12.572-.038zm12.721-49.171 2.373.008c4.389.013 5.345-2.345 5.355-5.413l.046-15.223c.009-3.186-1.886-4.136-4.733-4.145l-2.965-.009z"/><path d="m159.081 702.726 5.21.016-.077 25.167-3.756-.011.063-20.868h-.071l-9.913 20.838-3.332-.01-9.752-20.475-.071-.001-.062 20.446-3.757-.012.077-25.167 5.281.016 9.964 20.898zm27.031 17.918-12.401-.037-3.247 7.321-4.039-.012 11.521-25.133 4.288.013 11.368 25.202-4.287-.013zm-6.194-14.4-4.781 11.124 9.602.029-4.82-11.154zm16.004-3.406 15.661.047c5.067.015 6.899 3.512 6.889 6.718-.009 3.068-1.504 5.319-4.269 6.193v.068c2.23.325 3.534 2.411 3.668 5.371.198 4.688.336 5.851 1.185 6.841l-3.969-.012c-.601-.707-.598-1.765-.766-4.797-.234-4.513-1.752-5.891-4.872-5.901l-9.814-.029-.033 10.68-3.756-.012zm14.209 11.286c3.685.011 4.578-2.207 4.583-3.969.007-2.397-1.441-4.023-4.453-4.032l-10.596-.032-.024 8.001zm33.018-2.084c-.557-3.493-3.312-6.461-8.626-6.477-5.989-.019-9.79 3.389-9.811 10.262-.014 4.76 2.558 9.665 9.538 9.687 4.429.013 7.802-2.091 8.879-6.987l3.756.011c-.62 5.567-5.452 10.241-12.68 10.219-6.38-.02-13.278-3.53-13.248-13.328.022-7.333 4.646-13.135 13.291-13.109 5.066.016 12.041 2.188 12.656 9.732l-3.757-.011zm28.437 4.352-17.221-.052-.036 11.843-3.756-.012.076-25.168 3.757.012-.031 10.08 17.221.052.03-10.08 3.757.011-.077 25.168-3.756-.011zm35.763-6.731c-.383-2.257-2.505-3.391-4.914-3.398-4.075-.012-7.057 1.636-7.503 8.931h.069c.964-1.62 3.661-3.232 7.239-3.222 4.291.013 9.492 2.003 9.473 8.418-.011 3.701-2.72 8.522-9.842 8.5-7.513-.023-10.509-4.614-10.486-12.334.039-12.83 7.836-13.265 11.238-13.254 2.975.009 7.613 1.256 8.271 6.368l-3.544-.011zm-5.578 5.271c-4.324-.013-6.246 2.484-6.255 5.478-.009 2.998 1.898 5.507 6.221 5.52 4.287.013 6.206-2.484 6.215-5.481.009-2.996-1.895-5.503-6.181-5.516zm20.259-8.469-9.567-.029.01-3.243 22.889.069-.01 3.244-9.569-.029-.067 21.924-3.754-.011.066-21.925zm36.509 10.193-17.218-.052-.036 11.842-3.757-.011.077-25.168 3.756.012-.03 10.08 17.218.052.031-10.08 3.756.011-.076 25.168-3.757-.012zm19.527-4.278c.016-5.182 3.005-8.838 9.771-8.818 6.376.019 9.273 3.411 9.259 7.889-.026 8.6-12.071 8.211-14.959 13.877l14.917.045-.01 3.243-19.486-.059c.744-11.453 15.763-9.997 15.785-17.152.01-3.56-2.43-4.872-5.301-4.88-4.429-.014-6.314 2.413-6.43 5.866l-3.545-.011zm32.424-8.749c7.797.023 10.224 5.811 10.202 12.825-.021 7.014-2.484 12.789-10.28 12.765-7.794-.023-10.221-5.811-10.199-12.825.021-7.014 2.483-12.789 10.278-12.765zm-.009 2.96c-6.06-.019-6.506 6.89-6.515 9.814-.009 2.925.395 9.836 6.455 9.854 6.06.019 6.506-6.888 6.515-9.814.009-2.927-.395-9.836-6.455-9.854zm23.408-2.889c7.794.023 10.221 5.811 10.199 12.825-.021 7.014-2.483 12.789-10.277 12.765-7.796-.023-10.224-5.811-10.202-12.825.021-7.014 2.483-12.789 10.28-12.765zm-.009 2.96c-6.06-.019-6.506 6.89-6.515 9.814-.009 2.925.395 9.836 6.455 9.854 6.06.019 6.506-6.888 6.515-9.814.009-2.927-.395-9.836-6.455-9.854zm17.898 8.762v-.071c-2.903-1.066-3.961-2.761-3.953-5.158.012-4.123 3.384-6.441 9.09-6.424 5.669.018 9.03 2.355 9.018 6.479-.007 2.327-1.324 4.191-3.95 5.134v.071c2.94.501 5.023 2.73 5.013 6.113-.01 3.101-1.867 7.819-10.192 7.794-8.328-.025-10.155-4.754-10.146-7.856.013-4.088 3.7-5.805 5.12-6.082zm5.062 1.601c-4.641-.014-6.42 2.167-6.428 4.669-.007 2.503 1.759 4.694 6.4 4.708s6.418-2.166 6.426-4.669c.007-2.502-1.756-4.694-6.398-4.708zm.066-10.292c-3.685-.012-5.32 1.852-5.325 3.65-.006 1.833 1.618 3.671 5.304 3.682s5.284-1.816 5.29-3.65c.005-1.798-1.581-3.671-5.268-3.682z"/><path d="m203.534 587.424c-.326-2.047-1.94-3.785-5.053-3.795-3.509-.01-5.735 1.986-5.747 6.011-.008 2.789 1.499 5.663 5.588 5.676 2.593.008 4.569-1.225 5.201-4.095l2.2.007c-.362 3.261-3.193 5.999-7.427 5.986-3.735-.012-7.777-2.067-7.76-7.808.013-4.294 2.722-7.694 7.787-7.678 2.967.009 7.054 1.28 7.414 5.701l-2.202-.007zm4.489-5.293 7.515.023c4.441.013 6.466 2.911 6.453 7.185-.012 4.108-1.828 7.571-6.374 7.557l-7.638-.023.044-14.741zm7.496 12.866c3.611.011 4.264-3.002 4.272-5.624.008-2.602-.834-5.309-4.653-5.321l-4.919-.014-.033 10.943 5.335.016zm15.797-12.795 9.174.027c2.968.009 4.041 2.058 4.035 3.936-.005 1.796-.881 3.115-2.502 3.626v.041c1.307.191 2.072 1.411 2.15 3.144.116 2.748.197 3.428.693 4.008l-2.325-.007c-.351-.414-.35-1.034-.448-2.809-.137-2.644-1.028-3.451-2.853-3.456l-5.751-.018-.019 6.257-2.199-.007.044-14.742zm8.324 6.612c2.158.006 2.681-1.293 2.684-2.326.004-1.404-.843-2.357-2.609-2.362l-6.206-.019-.014 4.688zm7.362-6.565 11.912.036-.006 1.9-9.713-.029-.012 4.275 9.423.028-.005 1.901-9.424-.028-.015 4.769 9.922.03-.005 1.9-12.122-.037.045-14.744zm14.36.044 2.2.006-.039 12.844 9.009.027-.006 1.9-11.208-.034zm12.699.038 11.912.036-.006 1.9-9.712-.029-.013 4.275 9.424.028-.006 1.901-9.424-.028-.014 4.769 9.922.03-.006 1.9-12.121-.036.044-14.745zm24.628 10.523-7.264-.022-1.901 4.289-2.368-.008 6.747-14.721 2.513.008 6.658 14.762-2.511-.008-1.875-4.3zm-3.627-8.436-2.8 6.515 5.625.017-2.825-6.533zm10.236 7.899c.034 2.643 2.523 3.332 4.765 3.339 2.342.007 4.006-.876 4.011-2.486.004-1.344-1.052-1.904-2.752-2.199l-3.361-.567c-1.764-.295-4.396-1.005-4.387-3.875.008-2.684 2.149-4.475 5.949-4.463 2.967.009 6.098 1.092 6.294 4.644l-2.2-.007c-.184-1.157-.842-2.726-4.391-2.737-1.621-.005-3.448.67-3.453 2.405-.003.908.596 1.632 2.422 1.948l3.631.631c1.163.21 4.462.777 4.453 3.792-.012 3.757-3.399 4.821-6.387 4.812-3.342-.01-6.805-1.176-6.793-5.243l2.199.007zm13.019-9.852 11.912.036-.006 1.9-9.713-.029-.013 4.275 9.425.028-.006 1.901-9.423-.028-.015 4.769 9.923.03-.006 1.9-12.121-.036.044-14.745zm23.069 11.427c.224 1.321 1.467 1.986 2.881 1.99 2.385.007 4.132-.957 4.395-5.231h-.042c-.564.948-2.144 1.893-4.24 1.887-2.511-.008-5.559-1.173-5.548-4.931.007-2.168 1.593-4.991 5.764-4.978 4.399.013 6.156 2.701 6.143 7.224-.023 7.516-4.591 7.77-6.583 7.764-1.743-.006-4.459-.737-4.845-3.732l2.076.006zm3.288-9.529c-2.511-.008-3.637 1.454-3.642 3.208-.005 1.756 1.111 3.224 3.622 3.232 2.533.008 3.657-1.454 3.663-3.211.005-1.754-1.112-3.224-3.644-3.231zm8.633-1.792 7.639.024c3.258.009 4.956 1.502 4.947 4.248-.008 2.767-1.716 4.599-4.828 4.59l-5.583-.017-.018 5.905-2.202-.007.045-14.744zm7.472 6.96c2.18.007 2.91-1.167 2.915-2.654.004-1.404-.823-2.378-2.506-2.383l-5.686-.017-.015 5.038zm21.775-6.871 3.052.009-.045 14.742-2.2-.007.037-12.224h-.043l-5.807 12.206-1.951-.005-5.712-11.993h-.042l-.036 11.976-2.2-.007.045-14.741 3.092.009 5.838 12.242 5.973-12.206zm22.743 3.434 1.495.005-1.595 5.63c-.083.331-.229.723-.23 1.012s.144.475.476.476c1.412.004 2.932-2.015 2.939-4.224.01-3.366-2.641-5.397-5.856-5.407-3.819-.012-6.424 2.911-6.435 6.547-.012 3.696 2.803 6.45 6.584 6.461 1.866.006 3.675-.897 4.841-2.257l1.515.005c-1.376 2.205-3.787 3.499-6.444 3.491-4.505-.014-8.002-3.411-7.989-7.789.013-4.337 3.573-7.712 7.932-7.699 3.881.012 7.236 2.604 7.225 6.383-.012 3.904-3.338 5.957-5.145 5.952-.664-.002-1.224-.398-1.262-1.224h-.042c-.582.64-1.477 1.215-2.411 1.212-1.763-.005-3.067-1.537-3.061-3.375.008-2.724 1.865-5.548 4.666-5.54 1.018.004 1.869.46 2.404 1.556l.397-1.215zm-2.722 1.149c-1.744-.006-2.996 2.221-3.001 3.872-.003 1.218.722 2.067 1.739 2.071 1.703.005 2.955-2.325 2.96-3.935.003-1.075-.763-2.006-1.698-2.008z"/></g></svg>