<svg clip-rule="evenodd" fill-rule="evenodd" stroke-linejoin="round" stroke-miterlimit="1.41421" viewBox="0 0 452 698" xmlns="http://www.w3.org/2000/svg" xmlns:xlink="http://www.w3.org/1999/xlink"><clipPath id="a"><path clip-rule="evenodd" d="m129.124 436.094-39.402-2.542 15.888-275.81 18.314-11.128 20.451 13.672 19.701 242.126-35.588 35.588"/></clipPath><path d="m-.141 0h451.5v496.895h-451.5z" fill="#9f0019"/><path d="m451.359.001h-239.12l-39 104.675 177.761 392.219h100l.359-496.894z" fill="#ffe548"/><path d="m75.646 0-20.458 33.242 10.736 30.559s-.315 4.921-.122 6.274c.192 1.353 2.125 6.572 3.092 8.118.968 1.546.968 5.992 2.32 7.731s4.059 5.413 5.412 6.187c1.354.772 7.346 4.445 7.732 5.412.386.966 5.413 17.009 6.379 19.329.966 2.319 5.024 16.431 5.604 17.783.58 1.354.388 3.287.773 4.06.387.772-28.996 26.674-31.315 31.7-2.319 5.025-3.865 36.922-5.219 41.947s-11.598 21.649-12.564 22.615c-.966.967-14.495 23.195-17.589 24.936-3.093 1.74-4.253 10.245-2.513 12.564 1.739 2.319 7.924 8.698 8.891 9.278s10.438-13.53 10.438-13.53 3.287.772 4.446 2.705c1.16 1.934 5.218 9.473 5.605 14.498s3.286 13.531 3.866 15.271 2.32 7.538 2.32 7.538l-.387 6.959s-15.271 33.827-17.397 37.113-16.236 27.835-18.363 29.574c-2.126 1.739-7.151 13.918-7.925 15.465-.772 1.546-8.118 15.463-9.084 17.01-.967 1.547-5.799 12.37-6.766 13.918-.967 1.546-2.513 4.252-2.513 5.219s.579 5.992.579 7.346c0 1.353 3.672 5.605 4.06 6.379.387.772.193 8.312.193 9.084 0 .773 1.353 4.445 2.899 5.025 1.547.581 10.244 5.026 11.791 5.992 1.547.968 11.985.194 11.985.194s1.932-2.708 1.158-4.833c-.772-2.127 1.161-2.705 1.934-3.286.772-.58 3.866-2.705 4.64-3.093.772-.387 2.318-.386 2.898-.966s1.548-4.06.774-5.412c-.774-1.354-3.866-3.673-3.866-3.673s-1.546-16.625-1.16-17.784c.387-1.159 4.252-11.017 3.865-14.304-.386-3.285-2.705-8.118-1.932-9.665.772-1.546 21.842-21.069 23.195-22.616 1.353-1.546 16.237-15.076 16.624-15.85s3.479-1.74 4.252-.773c.772.967 1.74 1.741 1.547 2.707s-.002 8.891-.193 9.857c-.193.967-3.287 7.732-3.287 9.278 0 1.547-.58 5.992 0 7.151.58 1.161 2.706 6.187 2.319 7.152-.386.967-3.478 7.347-4.251 9.086-.774 1.738-6.38 16.623-7.732 18.362-1.354 1.739-7.152 7.924-7.926 9.085-.772 1.16-6.571 8.505-7.538 10.438-.967 1.934-5.024 10.633-5.799 11.792s-.773 4.832-1.354 5.799-6.379 9.472-6.959 10.823c-.58 1.354-9.277 16.626-10.244 17.979-.966 1.353-7.299 3.495-7.299 3.495l-26.218.572v-498.816h75.646z" fill-rule="nonzero"/><path d="m190.348 496.895c-.929 0-1.857 0-2.786 0 0-.619 0-1.238 0-1.857h1.857c.052.567.139 1.1.929.929z"/><path d="m207.99 496.895c2.872-1.093-.146-2.332 1.856-3.714-.28 2.446 1.286 3.048 3.714 2.785 1.443-3.301-3.153-.561-2.785-2.785 2.906-.431 4.145.807 3.713 3.714-2.165 0-4.333 0-6.498 0z"/><path d="m128.137 83.7c4.813 1.68-1.729 6.519-2.786 8.356-3.634-.498 2.42-5.826 2.786-8.356z"/><path d="m148.563 89.271c1.863-.316 2.905.189 2.786 1.856-.929 0-1.857 0-2.786 0 0-.617 0-1.236 0-1.856z"/><path d="m133.707 102.271c-.09 2.387-3.624 1.328-3.714 3.715 4.125-1.041 8.59-1.807 12.999-1.857 2.007-.023 3.642-1.901 4.643-1.857.69.031 1.711 1.751 2.786 1.857 2.454.243 7.156-1.847 6.5 2.785-12.569.334-26.061 3.46-33.428 3.715 1.387-3.371 2.397-5.056 2.786-7.429 3.443.657 3.986-1.587 7.428-.929z"/><path d="m146.707 113.413c1.385 2.053-2.947 6.303-7.429 5.571.834-1.642 2.241-2.711 2.786-4.643 1.349-.507 4.798 1.086 4.643-.928z"/><path d="m161.563 123.627c7.392 1.583 10.356 7.595 12.999 13.928-5.347-.284-9.461-1.649-13.928-1.856 1.694-4.934-.665-7.498.929-12.072z"/><path d="m122.565 142.197c2.311-.888-2.627-7.154-4.643-3.714-.944-.604-.961-2.135-2.786-1.857 2.06-3.055.97-4.017 0-9.285 2.055 1.97 5.342 2.706 6.5 5.571 2.262-2.717 4.779-.39 8.356.929 2.441.275.73-3.603 3.714-2.786-1.365 3.532 4.151.183 2.786 3.714 1.183-1.293 4.548-.403 4.643-2.785 1.591-.158 3.651 5.266 3.714.929 2.533-.677 1.869 1.845 3.714 1.856-4.211 5.208-14.786.65-20.427 2.786 7.28 4.334-5.426 8.22-8.357 11.143.751.736.977 5.689-1.856 5.571.271-2.156 2.333-4.352-1.857-3.715.21-1.337 2.771-.323 2.786-1.856-.611-2.781-1.985.888-3.715 0 .38-2.237-1.695-2.019-.929-4.643 7.008 2.228 4.981-4.746 8.357-1.858zm6.499-2.785c-1.653.555-3.855-2.722-4.643 0 .564.535 4.405 2.173 4.643 0z"/><path d="m111.423 130.126c1.5-.261 1.599.879 2.785.929.368 1.801-4.229 1.357-2.785-.929z"/><path d="m98.424 151.483c2.884 2.646-.414 6.962-1.857 8.356-2.245-2.006 1.954-5.42 1.857-8.356z"/><path d="m141.136 155.197c1.612.844 2.4 3.253.929 4.643-2.364-.095-2.194-3.461-.929-4.643z"/><path d="m155.064 156.125c4.248 2.774-4.105 6.502-8.357 8.356-.699.306-4.455 3.548-7.429 2.786-1.287-.57-.14-3.574-1.856-3.714 6.354-2.001 12.955-3.758 17.642-7.428z"/><path d="m120.708 160.769c.687 4.091-3.005 3.803-3.715 6.499-.676 4.896-.165 10.977-4.642 12.071-.608-7.107.925-12.075 1.856-17.643 3.016.538 4.321-.633 6.501-.927z"/><path d="m118.852 168.196c.057-.065-.065-.917 0-.929 4.458-.787-4.41 5.968 0 .929z"/><path d="m157.85 253.62c-4.929 2.44-12.036-.11-13.929-3.714 1.004-6.753 16.135-4.116 13.929 3.714z"/><path d="m76.139 248.979c3.29 1.077 4.9 7.622 2.785 11.142-1.981-2.389-5.039-7.485-2.785-11.142z"/><path d="m188.49 257.335c1.64-.297 1.658 5.201-.929 3.714-.392-1.942.637-2.459.929-3.714z"/><path d="m75.21 260.12c.354-1.768 1.182.594.929 1.857-.354 1.768-1.182-.593-.929-1.857z"/><path d="m192.205 259.191c1.142.405 1.906 1.188 1.856 2.786-1.142-.405-1.907-1.188-1.856-2.786z"/><path d="m147.635 266.62c.789 1.998 3.419 2.152 6.5 1.857-1.077 3.803-7.924 5.168-9.285 1.856-1.237.93-2.802 1.53-3.714 2.785-3.04-3.837-14.204 2.09-17.643-4.642 8.257-.41 18.558 1.225 24.142-1.856z"/><path d="m66.854 279.62c3.846-.132.967 6.46 1.857 9.284-2.583-1.132-1.726-5.703-1.857-9.284z"/><path d="m116.065 296.333c1.008.229.63 1.846 1.857 1.856-.288 1.261-2.325.771-3.715.929.605-.944 2.136-.96 1.858-2.785z"/><path d="m97.494 297.261c1.119 1.049 1.684 2.651 4.644 1.857.211 1.646-.936 4.65 1.856 3.714-1.316 4.035-9.725-2.161-6.5-5.571z"/><path d="m89.138 302.832c1.069-3.004 1.051 2.494.929 3.715-1.069 3.004-1.051-2.494-.929-3.715z"/><path d="m429.138 363.017c1.069-3.004 1.051 2.494.929 3.715-1.069 3.004-1.051-2.494-.929-3.715z"/><path d="m271.129 310.261c4.535.737.062 6.266.93 9.285-1.164-2.176-2.048-7.702-.93-9.285z"/><path d="m105.852 335.331c1.717-.141.569-3.145 1.857-3.714 2.982 1.776 2.433 1.703 4.643 4.642-6.8-3.699-3.438 6.504-3.715 7.429-8.961-4.966-12.887-14.969-12.999-28.784 3.521 4.215 2.837 12.637 6.5 16.714 2.857-.65 1.784-.65 4.643 0-1.72 1.788-1.702.733-.929 3.713z"/><path d="m141.136 325.117c-4.842 5.375-9.483 3.24-16.714 4.643.854-1.621 2.903-2.05 5.571-1.857-4.157-3.382 7.559-3.647 11.143-2.786z"/><path d="m115.137 330.688c2.174.238.535 4.079 0 4.643-2.722-.786.554-2.989 0-4.643z"/><path d="m120.708 330.688h1.857v1.857h-1.857z"/><path d="m100.28 356.687c1.894.273 1.821 2.514 3.714 2.786-.932 2.336-4.105-.74-3.714-2.786z"/><path d="m181.062 496.895c-30.642 0-61.283 0-91.925 0 .462-7.896 3.692-13.021 3.715-21.355-1.381.786-1.345 2.989-1.857 4.643-1.929-4.737 2.415-11.188.929-18.571 1.474-3.478 6.045-3.858 7.428-7.429-3.966-2.379-.421-9.615-.928-14.856 5.355 2.691 5.555 10.541 8.356 15.785 1.736-13.43 2.107-28.225 2.785-42.712 9.366-16.634 21.656-30.34 38.998-38.998 10.551 2.129 22.258-8.659 30.642-8.357 3.944.143 12.54 5.846 17.642 9.286 16.246 10.955 32.235 25.807 45.498 35.284-5.239 10.546-11.873 19.696-17.642 29.712-7.924 4.378-21.316 7.986-28.784 13.001-5.219 3.503-6.437 8.302-10.215 13.928-5.328 7.936-8.977 9.727-3.714 18.569 2.449 1.107 2.396-4.463 2.786 0 1.935 3.056.029 2.715-1.857.929-1.272 3.059-1.241 7.423-1.857 11.141z"/><path d="m97.494 365.973c-.99.865-.288 3.425-2.785 2.785-.169-2.026.76-2.954 2.785-2.785z"/><path d="m38.998 417.041c2.207 3.789-2.278 8.84-1.857 13.929-3.213-.457-1.355-4.54-3.714-3.715 1.308-3.954 4.716-5.807 5.571-10.214z"/><path d="m22.284 420.756c1.23 4.958 2.344 10.035 3.714 14.855-3.277 1.659-6.608 7.201-5.571 13.928.402 2.606 2.906 4.062-.929 5.571 1.41 3.348 6.019 1.435 7.429 2.786 1.708-1.404-.336-3.184-.929-6.5 3.123-.028 1.892 4.299 3.715 5.571 4.237.834 5.262-1.545 8.356-1.857-2.026 2.308-4.721 3.945-6.5 6.5-4.802.468-5.712-2.955-11.143-1.856-1.516-3.127-3.979-5.307-8.356-5.572 3.299-3.561 3.593-8.069-.929-11.142.15-1.088 1.693-.784 2.786-.929-3.518-2.957 2.158-6.139-1.857-10.214 1.666-.117 1.959 1.137 3.714.929-1.268-1.827-.887-5.304-1.856-7.428 2.933-1.4 3.971-4.695 8.356-4.642z"/><path d="m26.927 425.398c1.802-.369 1.356 4.229-.929 2.785 0-.619 0-1.237 0-1.857.79.171.876-.362.929-.928z"/><path d="m35.283 434.684c1.381.786 1.344 2.989 1.857 4.642-4.039-.175-1.69-1.615-1.857-4.642z"/><path d="m.928 435.611c2.077.4.377 4.577.929 6.5-3.175-.494-1.422-4.473-.929-6.5z"/><path d="m39.926 448.611c-.989 3.698-5.567-2.418-9.285.928-.337-3.123 4.023-1.548 5.571-2.785-.14-1.718-3.145-.569-3.714-1.856 3.779-2.542 2.061-1.006.929-3.715 5.791-4.387 1.494 8.065 6.499 7.428z"/><path d="m284.129 496.895c-11.143 0-22.285 0-33.427 0 1.327-6.394 5.887-12.347 7.428-20.429 1.333-6.994-.231-14.488 2.785-20.427 2.643-5.199 9.106-6.814 8.356-12.999 2.188 3.75 10.184 15.746 6.5 17.643 8.333 6.524 5.666 24.047 8.358 36.212z"/><path d="m4.642 456.039c4.359 2.142 8.926 4.074 11.143 8.357 4.528-1.095 11.802 3.826 13.929-.929 2.868 5.109-5.812 4.788-8.357 4.643-5.825-.334-17.221-7.145-16.715-12.071z"/><path d="m201.489 461.61c-.323 4.733-4.656 18.109-10.213 17.642 1.963-2.463 4.86-5.423 2.785-9.285 3.35-1.911 5.621-4.904 7.428-8.357z"/><path d="m30.641 496.895c14.302-18.507 20.927-49.642 38.07-62.211-11.709 18.932-23.379 37.904-33.428 58.497 3.481-.695 4.525 1.046 4.643 3.714-3.095 0-6.19 0-9.285 0z"/><path d="m164.349 6.633c-.68-3.986 1.224 7.173 0 0z" fill="#fff"/><path d="m120.708 67.915c.646-3.122-1.909-3.043-2.785-4.643-4.175.193-6.703 5.82-11.143 2.786 4.701-5.397 10.58-6.742 22.284-6.5-4.232-6.84-18.471-3.463-25.998-4.643 6.141-9.513 23.028-6.514 33.427-3.714-.151 1.079.204 1.651.929 1.856-2.043 7.363-5.446 7.612-8.357 13.928-5.429-1.33-8.388 3.462-12.071.929.61-2.78 1.985.889 3.714.001zm4.643-4.643c-.064.012.058.863 0 .929-4.41 5.039 4.459-1.716 0-.929z"/><path d="m143.921 91.128c.26 2.881-9.972 1.696-12.071 1.857 1.695-4.868 10.377-1.213 12.071-1.857z"/><path d="m110.494 126.412c.52-2.689 1.448 1.425 2.785.929-.906 3.077-1.835-1.037-2.785-.929z"/><path d="m122.565 159.84c-4.054.972-7.921-2.846-11.143-1.857-1.843-1.378 3.771-2.413 3.714-2.785.903.024.721 1.137.929 1.856 1.359.016 2.943-3.916 2.786 0 1.788-.378.733-3.6 3.714-2.785v1.856c.789.171.876-.362.928-.928 2.13 3.213-3.553.655-.928 4.643z"/><path d="m137.422 156.125c.646-2.303 1.776 4.003-.929 2.786-.262-1.5.877-1.599.929-2.786z"/><path d="m89.138 179.339c1.59 9.026-6.169 16.728-8.356 25.069-1.568-1.836-1.014-5.795-1.857-8.356 6.786-2.189 8.186-9.765 10.213-16.713z"/><path d="m76.139 214.622c-.957 9.395-4.042 18.943-2.785 33.427-5.807-10.921-2.297-31.233 1.856-40.854 2.267 3.236-1.425 8.447-.929 12.999 1.538-.938 1.009-3.944 1.858-5.572z"/><path d="m227.488 263.834c-2.478-2.29-.643-4.75-2.785-8.356-3.004-1.147-.71 3.005-3.714 1.857.211-1.646-.937-4.65 1.856-3.715-1.659-2.055-3.57-3.857-3.714-7.428-1.627 1.778-1.969 4.841-2.786 7.428-1.893-.518-1.82-2.793-3.714-.928.536 2.249 3.507 2.064 5.571 2.785.665 2.521-4.379-.664-3.715 1.857 1.24 1.547 4.13 1.441 5.572 2.785-.681 1.654-1.688.134-2.786 0 .396 1.771 2.653 1.681 1.857 4.643 5.139-.359 5.639 1.176 9.285 3.715 1.379-.406-.366-1.188 0-2.786 2.496-.64 1.795 1.92 2.785 2.786 2.913-2.083-1.28-4.836-1.856-6.5 4.734-1.744 5.805 5.898 8.356 10.213 2.956 4.996 6.623 8.21 8.356 13.929-2.468 4.062-4.041 8.439-2.785 13.928-.903-.025-.721-1.136-.929-1.857-3.997 4.562-2.883 8.858-4.643 14.856 2.405-.991 5.56-12.961 4.643-8.356-.459 3.91-1.772 10.75-4.643 9.285.354 4.874 1.417 17.993-3.715 20.428.412.826.816 1.661 1.857 1.856-1.089 2.037-5.261.348-8.356.929-4.271.804-1.465.965-5.571 0-11.033-2.593-30.792 7.059-35.284-.929 4.766 1.589 6.808.13 12.071.929-.912-1.255-2.478-1.855-3.714-2.785 1.302-2.705 3.199 1.646 5.57.929-3.006-1.797-1.16-2.427.929-3.714.665-2.522-4.378.664-3.714-1.857-.282-2.449 1.938-2.396 3.714-2.786-.396-4.406-.805-4.541 0-8.356 2.921-.464 3.63 2.024 5.572 0-.138-2.03-2.34-1.993-4.644-1.856 2.861-3.9 2.041-2.296 0-6.5 2.379.098 4.427.525 5.572 1.856 2.372-1.543-3.624-2.493-2.786-5.57.747.491 1.507.968 2.786.929 0-.929 0-1.857 0-2.786-.914-2.602-2.478 1.349-3.715-.929-.73-3.206.867-4.084 2.786-4.643-.288-1.261-2.325-.771-3.715-.929-.945-5.498 1.921-1.419 2.786-4.642-.639-4.222-3.854-4.429-4.644-10.215-2.86-.693-1.131 3.202-4.643 1.857-.143-2.311 1.46-2.874 1.857-4.643-1.079-.151-1.652.205-1.857.929-.796-4.177 4.374-8.906 2.786-13.928-3.48.732-.059 3.247-1.857 4.642-3.32-.767.377-3.252-2.785-4.642 1.999.465 7.513-5.755 2.785-9.285-1.088.149-.783 1.692-.929 2.785-1.176-1.609-3.138-2.433-2.785-5.571 3.517-2.668 7.928-.293 8.356-4.643 1.736.741 3.4 1.552 5.572 1.857.555-2.413-.373-3.342-2.786-2.786-1.479-2.313 5.259.601 6.499-.928-.603-.945-2.134-.961-1.856-2.786 1.358 1.331 2.943.712 2.785-1.857-.903.025-.721 1.137-.929 1.857-.903-.025-.721-1.136-.928-1.857-1.338.521-2.267 1.448-2.785 2.786-2.32-.642 1.722-2.478.928-4.643-1.547-3.602-5.043.52-7.429-1.857-1.751 3.457-8.292 6.212-12.07 4.643 1.66-7.625 6.792-11.778 7.428-20.428 4.466 1.371.855-5.335 4.643-4.643.242-2.718-2.099-2.853-1.856-5.571 1.863.316 2.905-.189 2.785-1.856 5.385 1.428 7.92 2.028 11.143 3.714-1.576 17.973 10.809 28.369 15.785 42.712.696 2.858-2.544 1.785-1.853 4.642zm-17.641-10.214h1.856c0-.618 0-1.237 0-1.856-.619 0-1.237 0-1.856 0zm-8.358 5.571c.933-.002 1.105.752 1.857.929-.089-1.459.125-3.22-1.857-2.785z"/><path d="m246.059 299.118c-1.026-1.088 1.121-6.88 2.786-8.356 3.394 2.292 8.652 7.211.928 3.715-2.109.675-2.778 2.793-3.714 4.641z"/><path d="m256.273 298.189c-1.729-2.501 2.823 1.183 3.713 1.857.723-1.867-1.537-3.19-.928-8.356 3.112 1.861 1.643 13.182 5.571 11.142 1.949.26-1.346 2.48.928 3.715 1.58.341 1.752-.725 1.857-1.857 3.721 1.194-.255 1.92 0 4.644-4.025-3.404-7.541-7.316-11.141-11.145z"/><path d="m65.925 339.045c.169-2.025-.76-2.954-2.785-2.786.696-4.255 6.523-3.379 6.499-8.356 8.474 8.24 10.083 23.345 18.57 31.57.355 3.45-3.763 2.427-2.785 6.5-1.894-.272-1.82-2.513-3.714-2.786-15.143 13.643-31.2 26.369-43.641 42.713-2.356-4.715-6.605-13.79-2.786-16.714.284-1.126-2.682-3.202-2.785-.929.607-4.657 14.005-12.377 10.214-18.57 2.116-.26 3.49.224 3.714 1.856 1.705-1.965 3.199-2.696 1.857-5.57 1.367-.603 1.771 1.321 2.785.929 3.727-1.447 1.652-3.191 2.786-6.5.304-.887 1.666-.439 1.856-.929 2.076-5.327 1.506-12.599 3.714-16.714 4.214 1.737 1.264-3.688 4.644-2.785-1.418-3.573-.904-1.841 1.857-.929z"/><path d="m311.056 359.473c1.569.167-.432 4.412-2.785 3.714-.818-2.984 3.059-1.273 2.785-3.714z"/><path d="m378.194 407.473c1.569.167-.432 4.412-2.785 3.714-.818-2.984 3.059-1.273 2.785-3.714z"/><path d="m255.344 363.187c1.338.211.324 2.771 1.857 2.786-.407 2.031-4.1-1.759-1.857-2.786z"/><path d="m407.344 465.187c1.338.211.324 2.771 1.857 2.786-.407 2.031-4.1-1.759-1.857-2.786z"/><path d="m165.277 364.115c-.399 1.458-2.92.793-1.857 3.714-3.325.078-5.365 1.443-8.355 1.857 1.75-3.509 7.033-3.49 10.212-5.571z"/><path d="m98.424 370.614c2.84.674 2.73-1.602 5.57-.928-1.874 3.427 1.779 4.915 1.857 8.357.187 8.3-6.874 17.998-6.5 27.855-2.014.157-.421-3.294-.928-4.644-1.834-.481-2.476 5.474-2.786.929 2.597-8.655 4.665-19.942 2.787-31.569zm1.856 1.858c-.746 5.622 4.257.619 0 0z"/><path d="m305.484 370.614c1.592.339-2.082 10.701-5.57 12.071 1.451-4.428 4.309-7.452 5.57-12.071z"/><path d="m298.057 387.328c.602 4.335-5.738 9.724-7.429 14.856-.374-4.106 5.514-9.949 7.429-14.856z"/><path d="m247.916 496.895c-9.594 0-19.189 0-28.784 0 .357-3.048 2.715-4.095 3.714-6.499-2.816 1.092-4.945 2.786-7.429 0 .416-3.674 3.996 1.119 4.644-2.786-6.599-1.003-11.782 1.205-14.856 9.285-.619 0-1.238 0-1.857 0 .754-6.213 7.604-10.752 6.5-15.785-6.045 1.235-7.216-.33-10.214-3.714 3.585-2.148 5.754.725 9.285-.93 2.483-.273-2.468 3.604 1.857 2.786 6.448.156 4.953-2.491 9.285-2.786 4.825 2.074-.753 5.829 2.785 7.429 3.677-.99 8.511-5.691 11.142-4.643-2.204 3.663 1.166 2.727 1.857 0-.018 6.616-4.126 6.506.929 7.429-.375 1.792-4.253.08-2.786 3.715 3.981 2.025 1.358 3.04 7.429.928 1.944 4.031 5.71 1.593 6.499 5.571z"/><path d="m163.42 1.062c1.32 1.774 3.527 2.663 3.714 5.571 1.089-.15.783-1.693.929-2.786 7.824 9.784 4.729 37.074 3.714 52.926-.714 11.162 2.779 24.633-5.57 27.856 4.443-10.886-.482-22.852-.929-34.355-6.478.021-8.364 4.635-13.928 5.571 3.263 1.463 9.711-2.568 12.07 1.857.946 4.04-1.92 4.269-2.785 6.499-2.781-.61.887-1.985 0-3.714-3.03-.244-2.683 2.889-4.644 3.714-1.788-.378-.732-3.6-3.714-2.785 2.07 4.223-4.635 2.999-7.428 0 1.768-9.863 8.786-18.826 19.499-16.714 1.002-7.825-13.122-5.432-15.785-6.5-2.463.296.869-5.201-2.785-3.714-2.781.611.887 1.985 0 3.714-4.296-1.271-19.508 6.048-23.213-2.785-.393 3.442-7.247 2.81-9.286-.929v3.714c-7.806-1.307-5.423 7.576-10.213 9.285-.242-2.718 2.099-2.853 1.856-5.57-3.842-1.258-3.546 5.039-2.785 10.213-2.872.087-2.768-2.804-2.786-5.57-2.133 11.224-15 30.869-1.857 41.783-.305 2.17-1.115 3.836-1.856 5.571-2.439-.656-1.832-4.357-3.714-5.571-2.463-.296.868 5.202-2.786 3.714-2.742-4.994-3.161-12.314-11.142-12.07 4.379-2.523-1.276-6.082-1.857-9.285-4.008.612 1.422 5.767-.929 7.428-2.726-1.298-5.011-3.036-4.643-7.428.113-3.271 1.352-.255 3.714-1.857-.611-3.103-2.887-4.541-3.714-7.428-1.084 1.7-1.355 4.215-3.714 4.643-1.278-1.438-1.87-5.574-.929-6.5-.52-2.098-1.448 1.126-2.785-.929-1.143-9.747-10.479-17.713-11.143-28.784-.668-11.141 5.195-20.04 10.214-28.784 3.338 1.087 9.546-.503 13.928 0 1.178.135 2.074 1.854 1.857 1.857 1.126-.013 1.588-1.604 2.785-1.857 11.258-2.389 27.339 0 41.784 0 14.092-.001 28.205-.001 40.856-.001zm.929 5.571c1.224 7.173-.68-3.986 0 0z"/><path d="m82.639 262.905c4.675 1.892 8.95 5.853 15.785 4.644.674 2.84-1.603 2.73-.93 5.57-1.499.262-1.598-.877-2.785-.929-3.4 8.345-.023 21.536.929 31.57-6.145-11.806-3.324-32.579-12.999-40.855z"/><path d="m0 496.895h451v201.105h-451z"/><g clip-path="url(#a)"><path d="m95.053 112.005 5.671 13.094 11.887 10.898 7.792 7.268s12.989-7.821 14.137-9.721c1.15-1.899 2.042-7.222 2.042-7.222l12.051-13.928s7.001 17.318 8.213 17.752c1.211.436-10.879 11.972-12.852 12.958-1.974.986-11.489 4.044-12.253 5.466-.762 1.422-1.6 12.42-1.214 14.518.389 2.096-2.26 5.2-1.412 7.046.849 1.847 1.784 6.962 3.046 9.265s7.85 23.73 7.27 24.859c-.581 1.128 3.567 81.853 3.255 85.133-.312 3.279 3.234 100.405 2.697 101.323-.539.914-3.363 23.918-18.038 28.515-15.084-10.813-19.153-28.461-19.228-31.262-.075-2.803 1.387-98.162 1.251-103.296-.137-5.138.759-76.651 1.036-81.332.275-4.679 6.001-32.417 5.498-33.789s-7.153-13.36-7.191-14.761c-.037-1.401-4.918-4.541-7.741-5.401-2.822-.859-13.66-17.392-12.936-20.215.726-2.822 7.019-17.168 7.019-17.168z" fill="#9f0019"/><path d="m143.086 135.221c-.151 3.309.281 5.896.993 8.139-2.31.014-3.865 2.771-5.406 1.05-.331-5.059.165-9.201 4.413-9.189z"/><path d="m129.358 173.686c3.008.035 2.292 4.662 4.047 6.242-.427 2.218-3.907.583-3.15-1.729-3.225-.836-6.718 3.512-7.031-1.629 3.632-.973 6.704 1.429 6.134-2.884z"/><path d="m135.975 188.93c-4.564.612-15.824-5.325-21.749-.327-.755-.005-.632-1.094-.824-1.793 1.702-3.215 7.138-2.297 10.038-2.082 4.976.371 9.733 2.81 12.535 4.202z"/><path d="m137.743 197.047c1.108 1.756.879 5.159 1.745 7.211-3.148-.174-5.435-1.413-8.582-1.586-.033-1.208-.065-2.417-.097-3.625-5.641-.846-12.06-.73-18.645-.411 3.921-6.385 15.318 1.351 19.324-3.236 2.402.159 4.41.802 6.255 1.647z"/><path d="m130.954 204.484c2.804.911 6.332.931 8.605 2.493-.538 3.16 1.249 3.453.946 6.325-4.286-.332-10.255 1.414-10.208-4.264-5.691-1.394-16.054.064-19.445-1.297 4.654-4.66 14.319-.511 20.173-.536-.022-.907-.047-1.813-.071-2.721z"/><path d="m140.578 216.022c.064 2.417.128 4.835.194 7.251-3.308.022-5.467-1.372-9.335-.659-.624-.792-.888-2.025-.872-3.605-6.105-1.209-13.996-.215-19.469-2.204.851-2.314 6.343-1.561 10.062-1.175 2.904.301 5.95 1.309 7.807 1.606 2.796 1.337.386-3.09 2.255-2.78 3.754-.262 6.25 1.03 9.358 1.566z"/><path d="m110.634 228.611c5.47 1.367 12.315 1.039 17.917 2.243 2.514.733.983-3.016 3.031-2.801 4.355-.38 7.824.335 10.158 2.451.048 1.812.097 3.626.145 5.438-3.621.097-7.242.194-10.861.29-.624-.791-.889-2.026-.873-3.605-6.034 1.51-15.343-4.123-18.62.495-1.679.197-.437-3.205-.897-4.511z"/><path d="m141.956 238.663c.065 2.418.128 4.834.192 7.251-3.62.098-7.24.194-10.86.29-.624-.791-.89-2.025-.873-3.604-7.147-.235-14.22-.563-20.245-2.183 3.221-3.178 12.952.53 18.646.41 2.532.897.764-2.043 2.254-2.781 3.022-1.494 8.444.413 10.886.617z"/><path d="m142.367 254.072c-9.99 2.33-22.532-.293-31.882-1.873-.26-1.613.684-1.879.752-.927 10.465.825 21.581.847 31.13 2.8z"/><path d="m142.583 262.231c.065 2.417.13 4.834.194 7.252-3.621.096-7.242.192-10.861.289-2.484.878-1.169-2.928-2.424-3.563-4.159-.183-9.167.025-13.213-.555-2-.287-5.58.091-6.279-2.555 7.269-.229 12.6 1.936 20.22 1.276.44-6.113 8.871-1.26 12.363-2.144z"/><path d="m110.096 266.725c1.229-2.646.739 4.615.943 6.324 4.979 1.975 12.049 1.369 17.917 2.246 2.745.961.531-1.969 2.255-2.782 3.062-1.442 8.51.819 11.661.598.064 2.417.129 4.833.194 7.251-4.272.587-7.328-.326-10.885-.619-4.118-5.221-13.712-3.685-21.845-3.952-.08-3.023-.16-6.046-.24-9.066z"/><path d="m143.139 283.081c.064 2.418.128 4.834.193 7.252-4.138.108-8.276.22-12.414.33-.623-.792-.888-2.024-.871-3.606-4.339-.289-9.679.051-13.989-.535-1.993-.272-5.585.081-6.281-2.554 6.404.842 12.739 1.763 20.22 1.276 1.198-6.187 8.535-.58 13.142-2.163z"/><path d="m143.524 297.584c.065 2.418.128 4.835.194 7.251-4.234-.083-9.312.872-12.438-.575-1.645.466-1.512-1.257-1.625-2.68-6.038-.692-16.115-.251-19.444-1.296 1.208-2.944 6.194-.434 10.086-.269 3.635.156 6.972-.378 10.087-.268-.025-.906-.049-1.813-.073-2.72 4.93-.461 7.973 1.402 13.213.557z"/><path d="m130.576 307c3.129 1.448 8.204.494 12.438.576 1.233 1.287.806 4.622.969 7.232-2.353.672-9.271-.168-13.966.37-.032-1.208-.063-2.414-.096-3.626-3.305.827-6.604-.443-10.11-.637-3.593-.199-8.322 1.977-10.133-1.544 6.35-.021 15.593 1.348 20.195.368-.258-1.456.691-1.579.703-2.739z"/><path d="m109.992 321.154c8.097 1.01 19.323 1.007 28.777 1.956 1.626.164 5.275-1.689 5.479 1.667-7.41-1.336-16.595-.446-24.875-1.152-3.215-.273-7.459.113-9.381-2.471z"/><path d="m109.431 329.334c.914.123.699 1.633.848 2.698 4.404 2.995 12.75 1.126 18.693 2.223 1.111-.234.198-2.712 1.479-2.76 5.435-.772 8.555 1.307 13.989.535.063 2.417.128 4.833.193 7.251-5.991-.727-14.831 2.063-16.413-4.099-5.626 2.327-16.838-4.412-17.796 2.289-1.786-.917-.446-5.69-.993-8.137z"/><path d="m144.706 342.001c.064 2.418.128 4.835.194 7.252-6.802-.037-14.968 1.606-17.19-4.078-2.841-.068-5.693.343-8.534.228-3.462-.141-8.465.1-10.158-2.452 6.253 1.025 13.52.801 20.22 1.277-.023-.906-.048-1.814-.073-2.72 5.656-.423 9.532 1.353 15.541.493z"/><path d="m109.139 347.483c.992-2.913.853 3.183.896 4.512 3.801 3.112 11.68 1.197 17.141 2.265 2.795 1.338.387-3.09 2.256-2.78 5.164.183 9.694 1.151 15.54.494.064 2.415.128 4.833.193 7.251-6.066.616-10.976-.193-16.317-.473 1.131-3.58-2.064-1.824-2.423-3.566-5.849.66-10.375-.312-15.542-.492-.905.17-.61 1.671-.703 2.74-1.816-1.504-.47-6.913-1.041-9.951z"/><path d="m108.7 360.195c1.23-2.646.741 4.615.945 6.324 4.739 1.645 10.764 1.702 17.117 1.359 2.794 1.335.386-3.093 2.254-2.783 4.246 1.632 10.908.28 16.316.475.073 2.719.145 5.438.217 8.157-14.005 1.358-20.526-6.515-35.057-4.509-1.898.829.396 6.305-1.359 7.293 5.263.929 16.801 4.011 20.148-1.444 4.243 1.63 10.907.279 16.316.474.064 2.418.129 4.835.194 7.253-3.804 1.422-9.749-.535-15.518.412-.359-1.742-3.556.016-2.423-3.563-5.119 2.139-20.179-5.705-18.524 4.119-2.477-2.957.424-15.1-.626-23.567z"/><path d="m108.672 388.316c11.784 1.383 23.815 2.46 37.312 1.728-2.105 3.289-7.155 2.132-10.812 2.103-6.9-.054-15.091-.481-20.997-1.255-2.043-.269-4.584.158-5.503-2.576z"/><path d="m126.295 408.71c3.105-.082 6.208-.165 9.311-.247-2.409 2.906-4.195 6.497-9.142 6.594.735-3.7-3.365-2.142-6.302-3.461 1.002-2.366 4.749-.328 6.206-.165-.025-.907-.048-1.814-.073-2.721z" fill-rule="nonzero"/><path d="m94.865 131.969c-.343-3.047 2.443-3.936 2.885-8.241-1.893 2.413-2.081 4.756-4.534 4.656 3.437 3.682-3.181 3.156-3.687 7.354-5.17-9.164 5.186-15.007 5.58-23.733 2.886 4.611 6.27 9.313 6.544 12.526 5.173-.66 8.489 7.954 12.728 11.454-.11 2.812-2.066 3.579-2.958 5.521 2.225 2.542 2.934-3.44 2.375 1.75 2.135.604 1.514-1.842 3.055-1.894-.218-.98-1.558-.575-1.599-1.772-1.345-1.503 4.763 2.441 6.303 3.461 5.943-4.305 15.156-8.571 15.083-16.729 2.958 1.033 6.605 1.216 5.624 7.108-1.438-.099-.558-3.058-1.648-3.585-2.761-.418-1.822 3.26-4.583 2.843 2.381 4.896.748 8.02.361 13.597-8.424.934-9.232 10.303-13.553 15.783 2.399 1.765-1.177 4.626 3.271 6.263 2.271-.849-1.836-1.31-.871-3.605 1.325-.075 2.027.619 2.374 1.75 1.062-1.758 1.699-3.983 2.16-6.407 2.806 3.868-1.537 9.561.337 12.69-2.649-1.395-2.521-3.429-6.256-1.648.784-2.863.435-2.568-1.646-3.584-1.093 1.139-1.086 3.491-2.208 4.594-.167 2.39 3.03.633 2.424 3.564-6.926-1.926-1.879 4.215-6.862 4.718-.002-.883.931-.729 1.528-.948.071-2.272-1.267-2.806-2.424-3.564 2.574-9.547-4.918-14.434-6.785-21.59-1.893-1.412-4.213-2.292-4.8-5.314-2.068 2.566-3.262-.729-5.455-.762 2.282-4.5-4.772-.252-4.071-7.148 5.173-3.183 5.451-6.337 8.219-12.012-.708-1.007-2.452.284-.847-2.699-1.287-.625-3.327 1.891-1.503 1.854-.979.32-2.803 1.245-2.183 5.502-3.258.498-3.611 4.211-5.263 6.49.623-.188.75-.93 1.529-.948 1.499.74-.824.562-.729 1.833-1.781.326-.932-2.595-2.399-2.656 1.342-1.738 2.679-3.485 3.734-5.542-2.473.194-2.214 3.413-4.559 3.749 1.422-1.942 1.984-4.84 5.309-4.679zm12.363-2.144c-.13 6.612-6.128 11.378-6.596 14.69 2.941-3.231 9.821-10.372 6.596-14.69zm18.496 24c3.289-4.868 11.129-13.946 10.379-18.419-4.553-.531-10.76 8.145-12.123 11.208-.191-.701-.679-1.036-1.577-.864-.433 2.491-1.592 6.984-5.214 8.303 3.536 8.719 5.15 4.784 8.535-.228zm-8.924 14.753c1.938-3.306-2.615-5.079-3.32-8.077 1.502-3.652-1.144-6.294-3.319-8.076.599 7.375 3.55 11.849 6.639 16.153z"/><path d="m96.584 138.273c-1.599.527-1.738-3.489-.8-.886.754-.045.574-1.126.727-1.833 1.4.627.157 1.645.073 2.719z"/><path d="m148.689 112.394c2.614-.154 1.925 5.58 3.346 8.982 1.437 3.443 4.398 5.902 4.896 8.941-1.045 2.949-2.518 5.422-5.262 6.49-.499-1.884-1.993-2.537-1.697-5.398-2.429 2.16 1.759 3.997.97 7.232-1.471.426-1.336 2.627-3.832 1.916-.046-2.13-1.58-4.245-1.72-6.304-.117-1.72 1.303-1.887 1.454-3.668.458-5.348-4.157-8.775-3.464-13.515 2.758 3.151 3.865 8.342 5.016 13.474 3.364-4.044-2.909-12.564-1.234-17.202 2.592 2.42 1.903 8.887 3.442 12.607 3.213-2.399-2.596-11.163-1.915-13.555z"/><path d="m110.538 400.06c2.71-.513 10.099 1.257 14.789 1.419 2.665-4.966 12.265-2.253 18.547-3.213-1.991 6.006-7.003 8.667-15.324 7.664-2.484.877-1.169-2.927-2.425-3.562-5.641-.221-12.176.659-15.587-2.308z"/></g><g fill-rule="nonzero"><path d="m220.359 53.25h18.252c2.543 0 4.949.232 7.217.694 2.267.463 4.243 1.261 5.934 2.394 1.688 1.134 3.029 2.661 4.025 4.581.995 1.92 1.492 4.337 1.492 7.252 0 2.87-.463 5.274-1.389 7.218-.927 1.943-2.198 3.494-3.817 4.649-1.618 1.157-3.538 1.978-5.759 2.464s-4.628.728-7.218.728h-7.912v19.154h-10.826v-49.134zm10.826 20.819h7.218c.972 0 1.908-.092 2.809-.277.903-.184 1.712-.497 2.431-.937.716-.439 1.294-1.041 1.735-1.805.439-.764.659-1.723.659-2.88 0-1.249-.289-2.255-.868-3.019-.578-.763-1.318-1.354-2.22-1.769-.902-.417-1.909-.683-3.019-.798-1.11-.116-2.175-.174-3.191-.174h-5.553v11.659z" fill="#190000"/><path d="m257.771 77.816c0-3.931.658-7.494 1.977-10.687 1.32-3.192 3.158-5.91 5.519-8.154 2.36-2.244 5.158-3.967 8.397-5.17 3.238-1.203 6.777-1.805 10.616-1.805 3.841 0 7.38.602 10.62 1.805 3.237 1.203 6.037 2.926 8.397 5.17 2.359 2.244 4.197 4.962 5.517 8.154 1.319 3.193 1.978 6.756 1.978 10.687 0 3.934-.658 7.496-1.978 10.688-1.319 3.192-3.157 5.911-5.517 8.154-2.36 2.245-5.16 3.968-8.397 5.171-3.24 1.202-6.779 1.804-10.62 1.804-3.839 0-7.378-.602-10.616-1.804-3.239-1.203-6.037-2.926-8.397-5.171-2.36-2.243-4.198-4.962-5.519-8.154-1.319-3.192-1.977-6.754-1.977-10.688zm11.242 0c0 2.315.357 4.431 1.076 6.351.717 1.92 1.746 3.586 3.087 4.997 1.343 1.412 2.95 2.51 4.825 3.296 1.874.787 3.966 1.179 6.278 1.179 2.314 0 4.408-.392 6.281-1.179 1.874-.786 3.481-1.884 4.824-3.296 1.341-1.411 2.371-3.077 3.088-4.997.718-1.919 1.076-4.036 1.076-6.351 0-2.266-.358-4.372-1.076-6.315-.717-1.943-1.747-3.619-3.088-5.031-1.343-1.411-2.95-2.51-4.824-3.297-1.873-.786-3.967-1.18-6.281-1.18-2.312 0-4.404.394-6.278 1.18-1.875.787-3.482 1.886-4.825 3.297-1.341 1.412-2.37 3.088-3.087 5.031-.719 1.943-1.076 4.049-1.076 6.315z" fill="#190000"/><path d="m312.517 53.25h19.016c2.497 0 4.868.243 7.113.729 2.243.486 4.208 1.295 5.898 2.429 1.688 1.134 3.029 2.66 4.024 4.58s1.492 4.314 1.492 7.183c0 3.47-.903 6.419-2.706 8.848-1.805 2.429-4.441 3.967-7.911 4.616l12.491 20.75h-12.978l-10.271-19.64h-5.344v19.64h-10.826v-49.135zm10.826 20.333h6.384c.972 0 2.002-.035 3.089-.104 1.086-.07 2.069-.278 2.95-.625.877-.347 1.605-.891 2.185-1.631.579-.739.868-1.781.868-3.123 0-1.249-.256-2.244-.764-2.984-.509-.74-1.157-1.307-1.942-1.701-.787-.393-1.69-.659-2.707-.798-1.019-.139-2.012-.208-2.984-.208h-7.078v11.174z" fill="#190000"/><path d="m365.03 62.826h-14.019v-9.576h38.864v9.577h-14.021v39.558h-10.825v-39.559z" fill="#190000"/><path d="m417.419 65.255c-.879-1.11-2.071-1.931-3.573-2.464-1.505-.531-2.928-.797-4.269-.797-.786 0-1.597.093-2.43.278-.832.185-1.619.474-2.359.867-.74.394-1.343.914-1.804 1.562-.463.648-.694 1.435-.694 2.359 0 1.481.556 2.614 1.665 3.4 1.111.787 2.51 1.458 4.199 2.013 1.688.555 3.505 1.11 5.448 1.665 1.942.555 3.759 1.343 5.448 2.36 1.687 1.018 3.088 2.383 4.198 4.094 1.109 1.712 1.666 4.002 1.666 6.871 0 2.73-.511 5.113-1.527 7.148-1.019 2.036-2.395 3.724-4.129 5.066-1.735 1.342-3.749 2.336-6.037 2.984-2.292.647-4.709.971-7.253.971-3.192 0-6.154-.486-8.883-1.458-2.731-.971-5.275-2.544-7.636-4.719l7.704-8.466c1.11 1.48 2.51 2.626 4.199 3.435 1.688.81 3.435 1.214 5.239 1.214.877 0 1.77-.104 2.672-.312.901-.208 1.711-.521 2.43-.937.715-.417 1.294-.948 1.734-1.597.439-.647.659-1.41.659-2.289 0-1.48-.566-2.648-1.701-3.505-1.134-.855-2.557-1.584-4.267-2.185-1.712-.601-3.563-1.204-5.553-1.805s-3.84-1.411-5.552-2.43c-1.713-1.017-3.136-2.359-4.269-4.025-1.135-1.666-1.699-3.862-1.699-6.593 0-2.638.521-4.95 1.562-6.94 1.04-1.988 2.429-3.654 4.164-4.996 1.735-1.341 3.735-2.348 6.003-3.019 2.266-.671 4.604-1.007 7.009-1.007 2.775 0 5.458.394 8.051 1.18 2.59.787 4.927 2.105 7.009 3.955z" fill="#190000"/><path d="m214.546 122.897c0-2.062.346-3.931 1.038-5.605.692-1.675 1.657-3.1 2.894-4.278 1.238-1.177 2.707-2.081 4.405-2.711 1.698-.631 3.555-.947 5.569-.947s3.872.316 5.57.947c1.699.631 3.167 1.535 4.405 2.711 1.238 1.178 2.202 2.603 2.895 4.278.69 1.674 1.037 3.543 1.037 5.605 0 2.063-.347 3.931-1.037 5.606-.693 1.675-1.657 3.102-2.895 4.278-1.238 1.177-2.706 2.081-4.405 2.711-1.699.631-3.557.947-5.57.947-2.014 0-3.871-.316-5.569-.947-1.699-.63-3.167-1.534-4.405-2.711-1.236-1.177-2.202-2.604-2.894-4.278s-1.038-3.542-1.038-5.606zm5.898 0c0 1.214.187 2.324.565 3.331.375 1.008.915 1.882 1.619 2.622.705.74 1.547 1.316 2.53 1.728.983.414 2.081.62 3.294.62s2.312-.206 3.295-.62c.982-.411 1.827-.987 2.529-1.728.704-.74 1.243-1.614 1.62-2.622.375-1.007.564-2.117.564-3.331 0-1.188-.189-2.293-.564-3.312-.377-1.02-.917-1.899-1.62-2.639s-1.547-1.317-2.529-1.729c-.983-.412-2.083-.619-3.295-.619-1.213 0-2.311.207-3.294.619s-1.826.989-2.53 1.729-1.243 1.62-1.619 2.639c-.378 1.019-.565 2.124-.565 3.312z" fill="#190000"/><path d="m244.142 110.012h17.292v5.241h-11.613v5.243h10.739v5.242h-10.739v10.046h-5.679z" fill="#190000"/><path d="m300.035 123.436c-1.066-1.293-2.372-2.29-3.922-2.983-1.551-.694-3.343-1.041-5.378-1.041-2.037 0-3.922.394-5.656 1.18-1.736.788-3.238 1.886-4.512 3.296-1.271 1.412-2.269 3.088-2.983 5.032-.719 1.942-1.075 4.049-1.075 6.315 0 2.315.356 4.431 1.075 6.351.715 1.92 1.701 3.585 2.949 4.997 1.249 1.412 2.718 2.511 4.407 3.297 1.688.786 3.504 1.179 5.447 1.179 2.221 0 4.188-.461 5.898-1.388 1.712-.925 3.124-2.22 4.233-3.886l9.023 6.732c-2.083 2.915-4.721 5.065-7.913 6.453-3.191 1.389-6.478 2.083-9.854 2.083-3.841 0-7.38-.602-10.618-1.804-3.238-1.203-6.038-2.926-8.396-5.17-2.36-2.244-4.199-4.962-5.518-8.154-1.319-3.193-1.979-6.754-1.979-10.688 0-3.931.659-7.495 1.979-10.687 1.318-3.192 3.157-5.91 5.518-8.154 2.358-2.244 5.158-3.967 8.396-5.17s6.777-1.804 10.618-1.804c1.388 0 2.833.128 4.338.381 1.502.254 2.983.659 4.441 1.214 1.457.555 2.856 1.296 4.198 2.22 1.342.927 2.545 2.06 3.608 3.401z" fill="#190000"/><path d="m329.645 110.667h8.952l21.377 49.135h-12.216l-4.232-10.41h-19.085l-4.095 10.41h-11.936zm4.165 14.296-5.968 15.268h12.005z" fill="#190000"/><path d="m361.339 110.667h10.828v39.141h20.055v9.994h-30.883z" fill="#190000"/><path d="m394.032 110.667h10.826v39.141h20.056v9.994h-30.882z" fill="#190000"/><path d="m263.893 157.246 5.53 5.845h-6.756l-2.064-2.345c-1.027 1.05-2.13 1.809-3.308 2.275-1.179.466-2.503.7-3.973.7-1.12 0-2.205-.152-3.255-.455s-1.989-.764-2.817-1.382c-.829-.618-1.487-1.394-1.978-2.328-.49-.933-.735-2.018-.735-3.255 0-.793.134-1.545.402-2.257.269-.711.642-1.359 1.12-1.943.479-.583 1.033-1.09 1.663-1.522.63-.431 1.317-.775 2.064-1.032-.396-.443-.765-.863-1.103-1.26-.338-.396-.63-.816-.875-1.26-.245-.443-.432-.91-.56-1.4-.129-.49-.192-1.038-.192-1.645 0-1.12.215-2.077.647-2.87s1.009-1.446 1.732-1.96c.723-.513 1.552-.887 2.485-1.12s1.89-.35 2.869-.35c.957 0 1.867.123 2.73.368s1.627.619 2.292 1.12c.665.502 1.196 1.132 1.593 1.89.396.759.595 1.663.595 2.713 0 .747-.122 1.435-.367 2.065s-.577 1.219-.997 1.768-.905 1.038-1.453 1.47-1.137.811-1.768 1.138l3.186 3.395 2.415-3.29h6.09zm-10.851-4.724c-.35.21-.694.426-1.032.647-.339.222-.642.467-.91.735-.269.269-.484.578-.647.928s-.245.758-.245 1.225.094.887.28 1.26c.187.374.432.688.735.945s.659.461 1.067.613.822.227 1.242.227c.816 0 1.522-.175 2.117-.525.596-.35 1.185-.781 1.768-1.295zm1.681-10.64c-.678 0-1.249.21-1.715.63-.468.42-.7.98-.7 1.68 0 .303.069.601.21.893.14.292.309.572.507.84.198.269.421.52.665.752.245.233.473.443.683.63.28-.163.583-.355.91-.577.326-.222.63-.467.91-.735s.513-.56.7-.875.28-.647.28-.998c0-.723-.24-1.277-.718-1.662-.478-.386-1.056-.578-1.732-.578z" fill="#140000"/><path d="m250.202 168.721h5.461v9.24h10.604v-9.24h5.46v24.78h-5.46v-10.71h-10.604v10.71h-5.461z" fill="#190000"/><path d="m275.791 168.721h5.46v24.78h-5.46z" fill="#190000"/><path d="m285.313 168.721h8.261l5.705 16.17h.069l5.74-16.17h8.225v24.78h-5.46v-19.005h-.069l-6.51 19.005h-4.165l-6.266-19.005h-.069v19.005h-5.461z" fill="#190000"/><path d="m325.479 168.721h4.516l10.779 24.78h-6.16l-2.135-5.25h-9.625l-2.064 5.25h-6.021zm2.101 7.21-3.011 7.7h6.056z" fill="#190000"/><path d="m342.333 168.721h5.46v19.74h10.114v5.04h-15.574z" fill="#190000"/><path d="m369.078 168.721h4.516l10.779 24.78h-6.16l-2.135-5.25h-9.625l-2.064 5.25h-6.021zm2.101 7.21-3.011 7.7h6.056z" fill="#190000"/><path d="m388.92 182.931-9.311-14.21h6.79l5.25 9.275 5.565-9.275h6.475l-9.31 14.21v10.57h-5.46v-10.57z" fill="#190000"/><path d="m409.619 168.721h4.516l10.779 24.78h-6.16l-2.135-5.25h-9.625l-2.064 5.25h-6.021zm2.101 7.21-3.011 7.7h6.056z" fill="#190000"/><path d="m316.299 225.799h15.383v4.663h-10.331v4.664h9.555v4.663h-9.555v8.939h-5.052z" fill="#190000"/><path d="m333.313 225.799h8.874c1.166 0 2.271.113 3.319.34 1.047.226 1.964.604 2.753 1.133.787.529 1.414 1.242 1.878 2.138s.697 2.013.697 3.352c0 1.619-.421 2.995-1.264 4.129-.84 1.133-2.072 1.851-3.691 2.153l5.829 9.684h-6.056l-4.792-9.165h-2.495v9.165h-5.052zm5.052 9.489h2.98c.453 0 .933-.017 1.441-.049.507-.032.967-.129 1.376-.291s.749-.416 1.02-.761c.27-.345.405-.832.405-1.458 0-.583-.119-1.047-.356-1.392-.239-.346-.54-.61-.907-.794-.368-.182-.788-.307-1.263-.372s-.939-.097-1.393-.097h-3.304v5.214z" fill="#190000"/><path d="m354.72 225.799h5.053v22.929h-5.053z" fill="#190000"/><path d="m363.679 225.799h7.578c1.835 0 3.578.205 5.231.615 1.651.41 3.092 1.074 4.324 1.992 1.23.918 2.206 2.111 2.93 3.578.724 1.468 1.085 3.25 1.085 5.344 0 1.857-.351 3.492-1.052 4.906-.702 1.414-1.646 2.603-2.834 3.563s-2.558 1.689-4.114 2.186c-1.553.496-3.184.745-4.89.745h-8.257v-22.929zm5.052 18.265h2.623c1.166 0 2.252-.119 3.256-.356 1.004-.238 1.872-.632 2.607-1.182.734-.551 1.311-1.274 1.731-2.17.422-.896.632-1.992.632-3.287 0-1.123-.21-2.1-.632-2.931-.421-.831-.987-1.517-1.699-2.056-.712-.54-1.55-.945-2.51-1.215-.962-.27-1.97-.405-3.029-.405h-2.979z" fill="#190000"/><path d="m393.799 225.799h4.177l9.974 22.929h-5.698l-1.976-4.858h-8.906l-1.912 4.858h-5.57zm1.943 6.671-2.785 7.125h5.602z" fill="#190000"/><path d="m411.247 238.947-8.613-13.148h6.282l4.857 8.582 5.151-8.582h5.99l-8.615 13.148v9.781h-5.052z" fill="#190000"/><path d="m331.941 263.487-4.599 4.048-2.752-3.174 7.481-6.315h4.533v22.929h-4.663z" fill="#190000"/><path d="m339.936 275.826 8.906-7.999c.453-.409.907-.875 1.361-1.393.453-.518.68-1.123.68-1.813 0-.778-.282-1.388-.842-1.83-.562-.443-1.22-.664-1.975-.664-.907 0-1.614.281-2.122.842-.508.562-.793 1.252-.858 2.073l-4.858-.357c.065-1.187.312-2.218.744-3.092.432-.875 1.005-1.604 1.717-2.186.712-.583 1.55-1.021 2.509-1.312.96-.292 2.003-.437 3.127-.437 1.036 0 2.007.145 2.914.437.907.291 1.694.723 2.363 1.295.67.572 1.192 1.29 1.571 2.154.378.864.567 1.868.567 3.012 0 .734-.076 1.398-.227 1.991-.152.595-.363 1.134-.631 1.62-.271.486-.59.935-.957 1.344-.367.41-.766.809-1.197 1.198l-6.963 5.991h10.169v4.275h-15.998z" fill="#190000"/><path d="m358.915 278.561c0-.355.066-.692.196-1.01.131-.317.313-.594.548-.828.234-.234.51-.417.829-.547.317-.131.654-.197 1.01-.197s.693.066 1.012.197c.317.13.593.313.827.547.235.234.417.511.548.828.13.318.197.655.197 1.01 0 .356-.067.692-.197 1.011-.131.318-.313.594-.548.828-.234.234-.51.416-.827.547-.319.131-.656.197-1.012.197s-.693-.066-1.01-.197c-.319-.131-.595-.313-.829-.547-.235-.233-.417-.51-.548-.828-.13-.319-.196-.655-.196-1.011z" fill="#190000"/><path d="m381.572 262.321h-9.101l-.097 3.53c.497-.173 1.177-.259 2.04-.259 1.166 0 2.235.173 3.207.518.971.346 1.808.848 2.509 1.506.701.659 1.247 1.458 1.637 2.397.387.939.583 1.991.583 3.157 0 1.296-.223 2.451-.664 3.466-.443 1.014-1.054 1.872-1.83 2.574s-1.7 1.236-2.768 1.603-2.229.551-3.482.551c-1.986 0-3.649-.486-4.988-1.458-1.338-.971-2.256-2.439-2.752-4.404l5.084-1.166c.13.821.474 1.484 1.037 1.992.561.507 1.263.761 2.105.761 1.036 0 1.862-.324 2.477-.972.615-.647.923-1.468.923-2.461 0-.756-.158-1.376-.471-1.862s-.723-.874-1.23-1.166c-.509-.291-1.074-.491-1.7-.599-.627-.108-1.253-.162-1.879-.162-.799 0-1.602.076-2.411.227-.81.151-1.594.356-2.349.615l.259-12.663h13.861z" fill="#190000"/><path d="m384.457 278.561c0-.355.066-.692.197-1.01.13-.317.313-.594.547-.828s.51-.417.829-.547c.317-.131.654-.197 1.01-.197.357 0 .693.066 1.012.197.317.13.594.313.828.547s.416.511.547.828c.131.318.198.655.198 1.01 0 .356-.067.692-.198 1.011-.131.318-.313.594-.547.828s-.511.416-.828.547c-.319.131-.655.197-1.012.197-.356 0-.693-.066-1.01-.197-.319-.131-.595-.313-.829-.547-.234-.233-.417-.51-.547-.828-.131-.319-.197-.655-.197-1.011z" fill="#190000"/><path d="m390.865 269.511c0-1.36.123-2.742.372-4.146.248-1.403.691-2.676 1.328-3.821.636-1.144 1.506-2.078 2.607-2.801s2.504-1.085 4.209-1.085c1.706 0 3.109.361 4.21 1.085 1.101.723 1.969 1.657 2.607 2.801.637 1.145 1.08 2.418 1.327 3.821.247 1.404.373 2.786.373 4.146s-.125 2.742-.373 4.145-.691 2.677-1.327 3.822c-.638 1.145-1.507 2.078-2.607 2.801-1.102.723-2.504 1.085-4.21 1.085-1.705 0-3.109-.362-4.209-1.085-1.102-.723-1.971-1.657-2.607-2.801-.638-1.145-1.08-2.417-1.328-3.822-.249-1.403-.372-2.785-.372-4.145zm4.858 0c0 .604.026 1.328.081 2.17.053.842.199 1.651.436 2.428.237.778.6 1.436 1.085 1.976.486.54 1.171.81 2.056.81.864 0 1.544-.27 2.041-.81.496-.54.863-1.198 1.102-1.976.237-.777.382-1.586.437-2.428.054-.842.08-1.566.08-2.17 0-.605-.026-1.328-.08-2.17-.055-.842-.201-1.652-.437-2.429-.239-.777-.606-1.436-1.102-1.975-.497-.54-1.177-.81-2.041-.81-.885 0-1.57.27-2.056.81-.485.539-.848 1.198-1.085 1.975-.238.777-.383 1.587-.436 2.429-.055.842-.081 1.565-.081 2.17z" fill="#190000"/><path d="m409.174 263.973c0-1.057.2-1.98.6-2.769.399-.788.95-1.447 1.651-1.976s1.516-.923 2.445-1.182c.928-.259 1.921-.388 2.98-.388 1.057 0 2.051.129 2.979.388.929.259 1.738.653 2.429 1.182.692.529 1.242 1.188 1.652 1.976s.615 1.711.615 2.769c0 1.252-.34 2.321-1.02 3.206s-1.635 1.511-2.866 1.878v.065c1.382.367 2.44 1.031 3.174 1.992s1.101 2.153 1.101 3.578c0 1.102-.221 2.073-.663 2.915-.443.842-1.036 1.538-1.781 2.089-.745.55-1.603.967-2.575 1.247-.971.279-1.987.421-3.044.421-1.058 0-2.073-.141-3.044-.421-.971-.281-1.829-.697-2.575-1.247-.744-.551-1.338-1.247-1.78-2.089-.443-.842-.664-1.813-.664-2.915 0-1.425.367-2.617 1.101-3.578s1.792-1.625 3.174-1.992v-.065c-1.231-.367-2.186-.992-2.866-1.878-.683-.885-1.023-1.954-1.023-3.206zm4.47 10.039c0 .799.291 1.479.874 2.041s1.361.842 2.332.842 1.749-.281 2.332-.842c.583-.562.874-1.242.874-2.041 0-.82-.291-1.51-.874-2.072s-1.361-.842-2.332-.842-1.749.28-2.332.842c-.584.561-.874 1.252-.874 2.072zm.387-9.359c0 .712.259 1.317.779 1.814.517.496 1.197.744 2.04.744s1.522-.247 2.04-.744.779-1.102.779-1.814c0-.691-.26-1.284-.779-1.781-.517-.497-1.197-.745-2.04-.745s-1.522.248-2.04.745c-.52.496-.779 1.09-.779 1.781z" fill="#190000"/><path d="m363.907 296.609c0-1.057.201-1.98.601-2.769.399-.788.95-1.446 1.651-1.975s1.516-.923 2.445-1.182c.928-.26 1.921-.389 2.98-.389 1.057 0 2.051.129 2.979.389.929.259 1.738.653 2.429 1.182.692.529 1.242 1.187 1.652 1.975s.615 1.711.615 2.769c0 1.252-.34 2.321-1.02 3.206s-1.635 1.512-2.866 1.879v.064c1.382.367 2.44 1.031 3.174 1.992s1.101 2.154 1.101 3.579c0 1.101-.221 2.072-.663 2.914-.443.842-1.036 1.539-1.781 2.089-.745.551-1.603.967-2.575 1.247-.971.28-1.987.421-3.044.421-1.058 0-2.073-.14-3.044-.421s-1.829-.696-2.575-1.247c-.744-.55-1.338-1.247-1.78-2.089-.443-.842-.664-1.813-.664-2.914 0-1.425.367-2.618 1.101-3.579s1.792-1.625 3.174-1.992v-.064c-1.231-.367-2.186-.992-2.866-1.879-.683-.885-1.024-1.954-1.024-3.206zm4.471 10.04c0 .798.291 1.478.874 2.04s1.361.842 2.332.842 1.749-.281 2.332-.842c.583-.562.874-1.242.874-2.04 0-.821-.291-1.511-.874-2.073-.583-.561-1.361-.842-2.332-.842s-1.749.281-2.332.842c-.584.561-.874 1.252-.874 2.073zm.387-9.36c0 .713.259 1.317.779 1.814.517.496 1.197.745 2.04.745s1.522-.248 2.04-.745.778-1.101.778-1.814c0-.691-.259-1.283-.778-1.781-.517-.497-1.197-.745-2.04-.745s-1.522.248-2.04.745c-.52.497-.779 1.09-.779 1.781z" fill="#190000"/><path d="m381.861 302.216c0-.355.066-.692.196-1.01.131-.318.313-.594.548-.828.234-.235.51-.417.829-.548.317-.13.654-.196 1.01-.196s.693.066 1.012.196c.317.132.593.314.828.548.234.233.416.509.547.828.131.318.197.655.197 1.01 0 .356-.066.693-.197 1.01-.131.319-.313.595-.547.828-.235.235-.511.417-.828.548-.319.131-.656.196-1.012.196s-.693-.066-1.01-.196c-.319-.131-.595-.313-.829-.548-.235-.233-.417-.509-.548-.828-.131-.318-.196-.655-.196-1.01zm0 8.982c0-.356.066-.692.196-1.011.131-.317.313-.594.548-.828.234-.234.51-.417.829-.547.317-.131.654-.197 1.01-.197s.693.066 1.012.197c.317.13.593.313.828.547.234.234.416.511.547.828.131.319.197.655.197 1.011 0 .355-.066.692-.197 1.01s-.313.594-.547.828c-.235.234-.511.417-.828.547-.319.131-.656.197-1.012.197s-.693-.066-1.01-.197c-.319-.13-.595-.313-.829-.547-.235-.233-.417-.51-.548-.828-.13-.318-.196-.655-.196-1.01z" fill="#190000"/><path d="m388.949 302.147c0-1.36.123-2.742.372-4.145.248-1.404.691-2.676 1.328-3.822.636-1.144 1.506-2.078 2.607-2.801 1.101-.722 2.504-1.085 4.209-1.085 1.706 0 3.109.362 4.21 1.085s1.969 1.657 2.607 2.801c.637 1.146 1.08 2.418 1.327 3.822.247 1.403.372 2.785.372 4.145s-.124 2.742-.372 4.145c-.248 1.404-.691 2.677-1.327 3.822-.638 1.145-1.507 2.078-2.607 2.801-1.102.723-2.504 1.085-4.21 1.085-1.705 0-3.109-.362-4.209-1.085-1.102-.723-1.971-1.657-2.607-2.801-.638-1.145-1.08-2.417-1.328-3.822-.249-1.403-.372-2.785-.372-4.145zm4.858 0c0 .604.026 1.328.081 2.17.053.842.199 1.651.436 2.429.237.777.6 1.435 1.085 1.975s1.171.81 2.056.81c.864 0 1.544-.27 2.04-.81.497-.54.864-1.198 1.103-1.975.237-.778.382-1.587.437-2.429.054-.842.08-1.566.08-2.17 0-.605-.026-1.328-.08-2.17-.055-.842-.201-1.651-.437-2.429-.239-.777-.606-1.435-1.103-1.975-.496-.54-1.176-.81-2.04-.81-.885 0-1.571.27-2.056.81s-.848 1.198-1.085 1.975c-.238.778-.383 1.587-.436 2.429-.054.842-.081 1.565-.081 2.17z" fill="#190000"/><path d="m407.881 302.147c0-1.36.123-2.742.373-4.145.247-1.404.691-2.676 1.328-3.822.635-1.144 1.506-2.078 2.607-2.801 1.101-.722 2.503-1.085 4.209-1.085 1.705 0 3.109.362 4.21 1.085s1.969 1.657 2.607 2.801c.637 1.146 1.079 2.418 1.326 3.822.248 1.403.373 2.785.373 4.145s-.124 2.742-.373 4.145c-.248 1.404-.69 2.677-1.326 3.822-.638 1.145-1.507 2.078-2.607 2.801-1.102.723-2.505 1.085-4.21 1.085-1.706 0-3.109-.362-4.209-1.085-1.103-.723-1.972-1.657-2.607-2.801-.638-1.145-1.081-2.417-1.328-3.822-.249-1.403-.373-2.785-.373-4.145zm4.858 0c0 .604.026 1.328.081 2.17.053.842.2 1.651.436 2.429.238.777.6 1.435 1.085 1.975.486.54 1.171.81 2.057.81.863 0 1.543-.27 2.04-.81.496-.54.864-1.198 1.102-1.975.238-.778.382-1.587.437-2.429.054-.842.08-1.566.08-2.17 0-.605-.026-1.328-.08-2.17-.055-.842-.201-1.651-.437-2.429-.238-.777-.606-1.435-1.102-1.975-.497-.54-1.177-.81-2.04-.81-.886 0-1.571.27-2.057.81-.485.54-.847 1.198-1.085 1.975-.237.778-.383 1.587-.436 2.429-.054.842-.081 1.565-.081 2.17z" fill="#190000"/><g fill="#ffe548"><path d="m43 553h362"/><path d="m43.447 570.264h6.553v12.35l11.55-12.35h8.568l-13.23 13.818 14.363 15.918h-9.156l-12.095-14.111v14.111h-6.552v-29.736z"/><path d="m96.426 588.535c0 1.764-.267 3.387-.798 4.871-.532 1.484-1.323 2.771-2.373 3.863-1.05 1.094-2.359 1.947-3.927 2.562s-3.375.924-5.418.924c-2.072 0-3.892-.309-5.46-.924s-2.877-1.469-3.927-2.562c-1.05-1.092-1.841-2.379-2.373-3.863s-.798-3.107-.798-4.871v-18.271h6.552v18.02c0 .924.147 1.777.441 2.561.294.785.707 1.465 1.239 2.037.532.574 1.169 1.023 1.911 1.344.742.322 1.547.484 2.415.484s1.666-.162 2.394-.484c.728-.32 1.358-.77 1.89-1.344.531-.572.945-1.252 1.239-2.037.294-.783.441-1.637.441-2.561v-18.02h6.552z"/><path d="m100.545 570.264h8.904l12.642 20.664h.084v-20.664h6.552v29.736h-8.568l-12.978-21.168h-.084v21.168h-6.552z"/><path d="m159.803 597.9c-1.932 1.008-3.948 1.736-6.048 2.184s-4.242.672-6.426.672c-2.325 0-4.467-.363-6.426-1.092-1.96-.727-3.654-1.77-5.082-3.129-1.428-1.357-2.541-3.002-3.339-4.936-.798-1.932-1.197-4.086-1.197-6.467s.399-4.537 1.197-6.469 1.911-3.576 3.339-4.936c1.428-1.357 3.122-2.4 5.082-3.129 1.959-.727 4.102-1.092 6.426-1.092 2.379 0 4.571.289 6.573.861 2.001.574 3.759 1.562 5.271 2.961l-4.62 5.041c-.896-.924-1.904-1.625-3.024-2.102-1.12-.475-2.52-.713-4.2-.713-1.4 0-2.667.238-3.801.713-1.134.477-2.107 1.143-2.919 1.996-.812.854-1.435 1.869-1.869 3.045s-.651 2.451-.651 3.822c0 1.4.217 2.682.651 3.842.434 1.164 1.057 2.172 1.869 3.025.812.854 1.785 1.52 2.919 1.994 1.134.477 2.401.715 3.801.715 1.428 0 2.66-.162 3.696-.484 1.036-.32 1.862-.65 2.478-.986v-4.83h-5.334v-6.047h11.634z"/><path d="m175.216 570.264h19.95v6.049h-13.398v6.049h12.39v6.047h-12.39v11.591h-6.552z"/><path d="m222.655 588.535c0 1.764-.267 3.387-.798 4.871-.532 1.484-1.323 2.771-2.373 3.863-1.05 1.094-2.359 1.947-3.927 2.562s-3.375.924-5.418.924c-2.072 0-3.892-.309-5.46-.924s-2.877-1.469-3.927-2.562c-1.05-1.092-1.841-2.379-2.373-3.863s-.798-3.107-.798-4.871v-18.271h6.552v18.02c0 .924.147 1.777.441 2.561.294.785.707 1.465 1.239 2.037.532.574 1.169 1.023 1.911 1.344.742.322 1.547.484 2.415.484s1.666-.162 2.394-.484c.728-.32 1.358-.77 1.89-1.344.531-.572.945-1.252 1.239-2.037.294-.783.441-1.637.441-2.561v-18.02h6.552z"/><path d="m238.111 570.264h8.903l12.643 20.664h.084v-20.664h6.552v29.736h-8.568l-12.978-21.168h-.084v21.168h-6.552z"/><path d="m270.61 570.264h20.201v6.049h-13.649v5.545h12.894v6.047h-12.894v6.049h14.406v6.046h-20.958z"/><path d="m313.94 577.992c-.645-.783-1.435-1.385-2.373-1.807-.938-.42-2.022-.629-3.255-.629s-2.373.238-3.423.713c-1.05.477-1.96 1.143-2.729 1.996-.771.854-1.373 1.869-1.807 3.045-.435 1.176-.65 2.451-.65 3.822 0 1.4.216 2.682.65 3.842.434 1.164 1.029 2.172 1.785 3.025s1.645 1.52 2.667 1.994c1.021.477 2.121.715 3.297.715 1.344 0 2.534-.279 3.57-.84 1.035-.561 1.89-1.344 2.562-2.354l5.46 4.074c-1.26 1.764-2.855 3.066-4.788 3.906-1.932.84-3.92 1.26-5.964 1.26-2.324 0-4.466-.363-6.426-1.092-1.96-.727-3.654-1.77-5.082-3.129-1.428-1.357-2.541-3.002-3.339-4.936-.798-1.932-1.197-4.086-1.197-6.467s.399-4.537 1.197-6.469 1.911-3.576 3.339-4.936c1.428-1.357 3.122-2.4 5.082-3.129 1.96-.727 4.102-1.092 6.426-1.092.84 0 1.715.078 2.625.232s1.807.398 2.688.734 1.729.783 2.541 1.344 1.539 1.246 2.184 2.059z"/><path d="m321.126 570.264h6.552v12.35l11.55-12.35h8.568l-13.23 13.818 14.364 15.918h-9.156l-12.096-14.111v14.111h-6.552z"/><path d="m356.221 576.061h-8.484v-5.797h23.521v5.797h-8.484v23.939h-6.552v-23.939z"/><path d="m372.412 570.264h6.552v29.736h-6.552z"/><path d="m383.251 570.264h20.201v6.049h-13.649v5.545h12.894v6.047h-12.894v6.049h14.406v6.046h-20.958z"/><path d="m47 617.606-2.958 2.604-1.771-2.041 4.812-4.062h2.916v14.747h-2.999z"/><path d="m52.76 625.543 5.728-5.146c.292-.264.583-.562.875-.896s.438-.722.438-1.166c0-.5-.181-.893-.542-1.177-.361-.285-.785-.428-1.271-.428-.583 0-1.039.181-1.365.542s-.51.806-.552 1.333l-3.125-.229c.042-.763.201-1.427.479-1.989s.646-1.03 1.104-1.405.996-.656 1.614-.844 1.288-.281 2.01-.281c.667 0 1.292.094 1.875.281s1.09.465 1.521.833c.43.368.767.83 1.01 1.385.243.556.365 1.202.365 1.938 0 .473-.049.899-.146 1.281s-.233.729-.406 1.041c-.174.312-.378.602-.614.864-.236.265-.493.521-.771.771l-4.478 3.854h6.541v2.749h-10.29z"/><path d="m74.127 616.856h-5.853l-.062 2.271c.319-.11.757-.166 1.312-.166.75 0 1.437.111 2.062.333.625.223 1.163.545 1.614.969s.802.938 1.052 1.541c.25.604.375 1.281.375 2.031 0 .833-.143 1.576-.427 2.229-.285.652-.677 1.205-1.177 1.656s-1.093.795-1.781 1.03c-.688.236-1.434.354-2.239.354-1.277 0-2.347-.312-3.208-.938-.861-.625-1.451-1.569-1.771-2.833l3.27-.749c.083.527.306.954.667 1.28.361.327.812.489 1.354.489.667 0 1.198-.208 1.594-.624.396-.417.593-.944.593-1.583 0-.486-.101-.886-.302-1.198-.202-.312-.465-.562-.792-.75s-.691-.315-1.094-.385-.805-.104-1.208-.104c-.514 0-1.031.049-1.552.146-.521.098-1.024.229-1.51.396l.167-8.145h8.915v2.75z"/><path d="m75.79 621.48c0-.874.08-1.763.239-2.666.16-.902.444-1.722.854-2.458.41-.735.969-1.336 1.677-1.801.708-.466 1.611-.698 2.708-.698s2 .232 2.708.698c.708.465 1.267 1.065 1.677 1.801s.694 1.556.854 2.458c.16.903.24 1.792.24 2.666 0 .875-.08 1.764-.24 2.667-.16.902-.444 1.722-.854 2.457-.41.736-.968 1.337-1.677 1.802-.708.466-1.611.698-2.708.698s-2-.232-2.708-.698c-.708-.465-1.267-1.065-1.677-1.802-.41-.735-.694-1.555-.854-2.457-.16-.903-.239-1.792-.239-2.667zm3.124 0c0 .39.018.854.052 1.396.035.541.128 1.062.281 1.562s.385.924.698 1.271c.312.348.753.521 1.323.521.555 0 .993-.174 1.312-.521s.555-.771.708-1.271c.152-.5.246-1.021.281-1.562.034-.542.052-1.007.052-1.396 0-.388-.018-.854-.052-1.396-.035-.541-.129-1.062-.281-1.562-.153-.5-.389-.924-.708-1.271-.319-.348-.757-.521-1.312-.521-.57 0-1.01.174-1.323.521-.312.347-.545.771-.698 1.271s-.247 1.021-.281 1.562c-.035.543-.052 1.009-.052 1.396z"/><path d="m94.056 614.107h4.416l6.27 10.248h.042v-10.248h3.25v14.747h-4.249l-6.437-10.498h-.042v10.498h-3.25z"/><path d="m116.28 614.107h9.894v2.999h-6.645v3h6.145v2.999h-6.145v5.749h-3.25v-14.747z"/><path d="m127.828 614.107h5.708c.75 0 1.461.073 2.135.219s1.264.389 1.771.729c.507.341.91.799 1.208 1.375.299.576.448 1.295.448 2.156 0 1.041-.271 1.927-.812 2.655-.542.729-1.333 1.191-2.375 1.386l3.749 6.228h-3.895l-3.083-5.895h-1.604v5.895h-3.25zm3.249 6.103h1.917c.292 0 .6-.01.927-.031.326-.021.621-.083.885-.188.264-.104.482-.267.656-.489.173-.222.26-.534.26-.938 0-.375-.077-.673-.229-.896-.153-.222-.348-.392-.583-.51-.236-.118-.507-.198-.812-.24-.306-.041-.604-.062-.896-.062h-2.125z"/><path d="m139.842 621.48c0-1.18.198-2.249.594-3.207s.948-1.774 1.656-2.447c.708-.674 1.548-1.191 2.521-1.552.972-.361 2.034-.542 3.187-.542 1.152 0 2.215.181 3.187.542.972.36 1.812.878 2.52 1.552.708.673 1.26 1.489 1.656 2.447s.593 2.027.593 3.207c0 1.181-.198 2.25-.593 3.208-.396.958-.948 1.774-1.656 2.447-.708.674-1.548 1.191-2.52 1.552s-2.035.542-3.187.542c-1.153 0-2.215-.181-3.187-.542-.972-.36-1.812-.878-2.521-1.552-.708-.673-1.26-1.489-1.656-2.447s-.594-2.027-.594-3.208zm3.374 0c0 .695.107 1.33.323 1.906s.524 1.076.927 1.5c.402.424.885.753 1.447.989s1.19.354 1.885.354c.694 0 1.323-.118 1.885-.354s1.045-.565 1.448-.989.711-.924.927-1.5c.215-.576.323-1.211.323-1.906 0-.68-.108-1.312-.323-1.895-.216-.584-.524-1.087-.927-1.511-.403-.423-.885-.753-1.448-.989-.562-.236-1.19-.354-1.885-.354s-1.323.118-1.885.354-1.045.566-1.447.989c-.403.424-.712.927-.927 1.511s-.323 1.216-.323 1.895z"/><path d="m157.393 614.107h4.416l6.27 10.248h.042v-10.248h3.25v14.747h-4.249l-6.437-10.498h-.042v10.498h-3.25z"/><path d="m176.52 616.981h-4.208v-2.874h11.664v2.874h-4.208v11.873h-3.249v-11.873z"/><path d="m198.036 617.711c-.264-.333-.622-.58-1.073-.739-.452-.16-.878-.24-1.281-.24-.236 0-.479.028-.729.084s-.486.143-.708.26c-.222.118-.403.274-.542.469s-.208.431-.208.708c0 .445.167.785.5 1.021s.753.437 1.26.604 1.052.333 1.635.5 1.128.403 1.635.708c.507.306.927.716 1.26 1.229.333.514.5 1.201.5 2.062 0 .819-.153 1.535-.458 2.146s-.718 1.118-1.239 1.521-1.125.701-1.812.896-1.413.292-2.177.292c-.958 0-1.847-.146-2.666-.438s-1.583-.764-2.291-1.416l2.312-2.542c.333.445.753.789 1.26 1.031.507.243 1.031.365 1.573.365.264 0 .531-.031.802-.094.271-.062.514-.156.729-.281s.388-.285.521-.479c.132-.194.198-.424.198-.688 0-.444-.17-.795-.51-1.052s-.768-.476-1.281-.656c-.514-.18-1.07-.36-1.667-.541s-1.153-.424-1.667-.729-.941-.708-1.281-1.208-.51-1.159-.51-1.979c0-.792.156-1.486.468-2.083s.729-1.097 1.25-1.5c.521-.402 1.121-.704 1.802-.906.68-.201 1.381-.302 2.104-.302.833 0 1.639.118 2.417.354.777.236 1.479.632 2.104 1.187z"/><path d="m205.149 616.981h-4.208v-2.874h11.664v2.874h-4.208v11.873h-3.249v-11.873z"/><path d="m225.02 614.107h5.479c.763 0 1.485.069 2.166.208.68.14 1.274.379 1.781.719.507.341.91.799 1.208 1.375.299.576.449 1.302.449 2.177 0 .861-.139 1.583-.418 2.166-.277.583-.659 1.049-1.145 1.396-.486.348-1.062.594-1.729.739s-1.389.219-2.167.219h-2.375v5.749h-3.25v-14.748zm3.249 6.249h2.167c.292 0 .573-.028.843-.084.271-.055.514-.148.729-.281.215-.132.389-.312.521-.541s.198-.518.198-.864c0-.375-.087-.677-.26-.906-.174-.229-.396-.406-.667-.531s-.573-.205-.906-.239c-.333-.035-.653-.053-.958-.053h-1.667z"/><path d="m237.249 614.107h3.249v5.499h6.312v-5.499h3.249v14.747h-3.249v-6.374h-6.312v6.374h-3.249z"/><path d="m252.48 614.107h3.249v14.747h-3.249z"/><path d="m258.215 614.107h3.249v11.748h6.02v2.999h-9.269z"/><path d="m274.123 614.107h2.688l6.415 14.747h-3.666l-1.271-3.124h-5.728l-1.229 3.124h-3.582zm1.25 4.291-1.791 4.582h3.604z"/><path d="m284.097 614.107h4.874c1.18 0 2.302.132 3.363.396 1.062.264 1.989.691 2.781 1.281.791.59 1.42 1.357 1.885 2.302s.698 2.09.698 3.437c0 1.194-.227 2.246-.678 3.155-.451.91-1.059 1.674-1.822 2.292s-1.646 1.086-2.646 1.405c-.999.32-2.048.479-3.145.479h-5.312v-14.747zm3.249 11.748h1.688c.75 0 1.447-.076 2.093-.229.646-.152 1.205-.406 1.677-.761.473-.354.844-.818 1.114-1.396.271-.575.406-1.28.406-2.114 0-.722-.135-1.35-.406-1.885-.271-.534-.635-.976-1.093-1.322-.459-.347-.997-.607-1.614-.781-.618-.174-1.268-.261-1.948-.261h-1.916v8.749z"/><path d="m299.386 614.107h10.019v2.999h-6.77v2.75h6.395v2.999h-6.395v3h7.145v2.999h-10.394z"/><path d="m311.848 614.107h3.249v11.748h6.02v2.999h-9.269z"/><path d="m322.131 614.107h5.478c.764 0 1.486.069 2.167.208.68.14 1.273.379 1.78.719.507.341.909.799 1.208 1.375s.448 1.302.448 2.177c0 .861-.139 1.583-.417 2.166-.277.583-.659 1.049-1.146 1.396-.486.348-1.062.594-1.729.739-.667.146-1.389.219-2.166.219h-2.375v5.749h-3.249v-14.748zm3.249 6.249h2.166c.292 0 .573-.028.844-.084.271-.055.514-.148.729-.281.215-.132.389-.312.521-.541s.198-.518.198-.864c0-.375-.087-.677-.261-.906s-.396-.406-.667-.531-.572-.205-.905-.239c-.334-.035-.653-.053-.959-.053h-1.666z"/><path d="m334.359 614.107h3.249v5.499h6.312v-5.499h3.249v14.747h-3.249v-6.374h-6.312v6.374h-3.249z"/><path d="m349.591 614.107h3.249v14.747h-3.249z"/><path d="m360.065 614.107h2.688l6.415 14.747h-3.666l-1.271-3.124h-5.728l-1.229 3.124h-3.582zm1.25 4.291-1.791 4.582h3.604z"/><path d="m371.016 625.48h2.999l-1.874 5.874h-2.666z"/><path d="m381.909 614.107h5.478c.764 0 1.486.069 2.167.208.68.14 1.273.379 1.78.719.507.341.909.799 1.208 1.375s.448 1.302.448 2.177c0 .861-.139 1.583-.417 2.166-.277.583-.659 1.049-1.146 1.396-.486.348-1.062.594-1.729.739-.667.146-1.389.219-2.166.219h-2.375v5.749h-3.249v-14.748zm3.249 6.249h2.166c.292 0 .573-.028.844-.084.271-.055.514-.148.729-.281.215-.132.389-.312.521-.541s.198-.518.198-.864c0-.375-.087-.677-.261-.906s-.396-.406-.667-.531-.572-.205-.905-.239c-.334-.035-.653-.053-.959-.053h-1.666z"/><path d="m397.949 614.107h2.688l6.415 14.747h-3.666l-1.271-3.124h-5.728l-1.229 3.124h-3.582zm1.25 4.291-1.791 4.582h3.604z"/><path d="m42.936 644.916h.858v1.014h.026c.139-.208.303-.385.494-.532.19-.147.39-.269.598-.364s.422-.165.644-.208c.221-.044.431-.065.63-.065.477 0 .912.08 1.307.241.394.16.734.383 1.021.669.286.286.509.624.669 1.014.16.391.24.815.24 1.274s-.08.884-.24 1.274c-.161.39-.384.728-.669 1.014-.286.286-.626.509-1.021.669-.395.161-.83.241-1.307.241-.2 0-.41-.022-.63-.065-.221-.043-.436-.112-.644-.208-.208-.095-.408-.217-.598-.364-.191-.146-.355-.324-.494-.532h-.026v4.758h-.858zm5.551 3.042c0-.338-.054-.654-.162-.949-.109-.294-.262-.55-.462-.767-.199-.217-.44-.388-.721-.514-.282-.126-.6-.188-.956-.188s-.681.062-.975.188-.55.297-.767.514-.386.473-.507.767c-.122.295-.182.611-.182.949s.061.654.182.949.29.55.507.767.473.388.767.514.62.188.975.188.674-.062.956-.188c.281-.126.522-.297.721-.514.2-.217.353-.472.462-.767.108-.295.162-.611.162-.949z"/><path d="m57.018 647.958c0 .459-.08.884-.24 1.274-.161.39-.384.728-.67 1.014s-.626.509-1.021.669c-.394.161-.83.241-1.306.241-.468 0-.899-.08-1.293-.241-.395-.16-.735-.383-1.021-.669s-.509-.624-.67-1.014c-.16-.391-.24-.815-.24-1.274s.08-.884.24-1.274c.161-.39.384-.728.67-1.014s.626-.509 1.021-.669c.394-.161.825-.241 1.293-.241.477 0 .912.08 1.306.241.395.16.735.383 1.021.669s.509.624.67 1.014c.16.39.24.815.24 1.274zm-.936 0c0-.338-.054-.654-.163-.949-.108-.294-.262-.55-.461-.767s-.44-.388-.721-.514c-.282-.126-.601-.188-.956-.188s-.674.062-.956.188-.52.297-.715.514-.347.473-.455.767c-.108.295-.163.611-.163.949s.054.654.163.949c.108.295.26.55.455.767s.433.388.715.514c.281.126.6.188.956.188.355 0 .674-.062.956-.188.281-.126.522-.297.721-.514s.353-.472.461-.767.163-.611.163-.949z"/><path d="m58.556 646.814c0-.269-.006-.542-.02-.819-.013-.277-.024-.637-.032-1.079h.845v1.131h.026c.061-.164.147-.322.26-.475.113-.151.249-.288.41-.409.16-.121.346-.219.559-.293.212-.073.453-.11.721-.11.243 0 .455.026.637.078l-.169.845c-.113-.043-.278-.064-.494-.064-.33 0-.611.062-.845.188s-.429.286-.585.48c-.156.195-.271.405-.344.631-.074.226-.111.442-.111.65v3.432h-.858z"/><path d="m66.457 645.696h-1.755v3.588c0 .226.021.409.065.553.043.143.104.253.182.331s.171.132.279.162c.108.031.228.046.357.046.147 0 .299-.021.455-.065.156-.043.299-.099.429-.169l.039.793c-.32.147-.706.222-1.157.222-.165 0-.336-.022-.514-.065s-.34-.125-.487-.247c-.147-.121-.269-.286-.364-.494s-.143-.48-.143-.818v-3.835h-1.287v-.78h1.287v-1.718h.858v1.716h1.755v.78z"/><path d="m71.087 646.359c-.13-.252-.304-.451-.52-.599-.217-.147-.481-.221-.793-.221-.147 0-.297.018-.449.052-.152.035-.288.089-.41.163-.121.073-.219.167-.292.279s-.11.251-.11.416c0 .286.1.494.299.624.2.13.499.242.897.338l.871.208c.425.096.778.288 1.06.578.282.291.422.652.422 1.086 0 .329-.067.613-.201.852-.135.238-.312.434-.533.585s-.475.262-.76.331c-.286.069-.577.104-.871.104-.468 0-.903-.089-1.307-.267-.403-.178-.748-.483-1.033-.917l.741-.507c.173.277.392.499.657.663.264.165.578.247.942.247.173 0 .347-.02.52-.059s.327-.1.461-.182.243-.188.325-.318c.082-.131.124-.282.124-.455 0-.304-.113-.522-.338-.657-.225-.134-.499-.24-.819-.318l-.832-.194c-.104-.026-.245-.069-.422-.131-.178-.06-.351-.151-.52-.272s-.314-.279-.436-.475c-.122-.195-.182-.436-.182-.722 0-.312.063-.585.188-.818.125-.234.294-.425.507-.572.212-.147.453-.258.721-.332.269-.073.546-.11.832-.11.425 0 .819.083 1.183.247.364.165.646.446.845.845z"/><path d="m79.546 647.958c0 .459-.08.884-.24 1.274-.161.39-.384.728-.67 1.014s-.626.509-1.021.669c-.394.161-.83.241-1.306.241-.468 0-.899-.08-1.293-.241-.395-.16-.735-.383-1.021-.669s-.509-.624-.67-1.014c-.16-.391-.24-.815-.24-1.274s.08-.884.24-1.274c.161-.39.384-.728.67-1.014s.626-.509 1.021-.669c.394-.161.825-.241 1.293-.241.477 0 .912.08 1.306.241.395.16.735.383 1.021.669s.509.624.67 1.014c.16.39.24.815.24 1.274zm-.936 0c0-.338-.054-.654-.163-.949-.108-.294-.262-.55-.461-.767s-.44-.388-.721-.514c-.282-.126-.601-.188-.956-.188s-.674.062-.956.188-.52.297-.715.514-.347.473-.455.767c-.108.295-.163.611-.163.949s.054.654.163.949c.108.295.26.55.455.767s.433.388.715.514c.281.126.6.188.956.188.355 0 .674-.062.956-.188.281-.126.522-.297.721-.514s.353-.472.461-.767.163-.611.163-.949z"/><path d="m83.754 645.696h-1.443v5.304h-.858v-5.304h-1.287v-.78h1.287v-1.664c0-.806.186-1.38.559-1.723.373-.342.867-.514 1.482-.514.122 0 .245.009.371.026s.249.039.371.065l-.156.779c-.104-.025-.213-.047-.325-.064-.113-.018-.226-.026-.338-.026-.234 0-.425.039-.572.117s-.26.188-.338.331c-.078.144-.13.311-.156.501s-.039.395-.039.611v1.56h1.443v.781z"/><path d="m89.098 646.346c-.147-.225-.354-.416-.618-.571-.265-.156-.565-.234-.903-.234-.355-.009-.674.048-.956.169s-.522.29-.722.507-.351.475-.455.773-.156.622-.156.969.052.67.156.969.256.557.455.773.44.386.722.507c.281.121.6.178.956.169.338 0 .639-.078.903-.234.264-.155.47-.346.618-.571l.702.532c-.303.355-.646.618-1.027.787s-.78.258-1.196.267c-.494.008-.94-.067-1.339-.228-.398-.16-.739-.384-1.021-.67s-.496-.626-.643-1.021-.221-.821-.221-1.28.074-.886.221-1.28c.147-.395.361-.734.643-1.021s.622-.509 1.021-.67c.399-.16.845-.235 1.339-.228.416.009.814.098 1.196.267s.724.432 1.027.787z"/><path d="m94.944 647.269v-.155c0-1.049-.52-1.573-1.56-1.573-.71 0-1.331.238-1.859.715l-.52-.611c.572-.589 1.43-.884 2.574-.884.294 0 .578.044.851.13.273.087.509.22.708.396.2.178.36.401.481.67s.182.59.182.962v2.717c0 .234.011.479.033.734.021.256.045.467.071.631h-.832c-.026-.147-.045-.308-.058-.481s-.02-.342-.02-.507h-.025c-.251.408-.548.7-.89.878-.343.178-.761.267-1.255.267-.269 0-.528-.037-.78-.11-.251-.074-.475-.187-.669-.339-.195-.151-.351-.338-.468-.559s-.175-.479-.175-.773c0-.494.128-.882.383-1.163.256-.282.577-.492.962-.631s.797-.226 1.235-.26c.438-.035.838-.053 1.203-.053h.428zm-.442.702c-.217 0-.487.012-.812.033s-.637.073-.936.155c-.299.083-.555.211-.767.384-.212.174-.318.412-.318.715 0 .199.041.371.124.514.082.143.193.26.332.351.138.092.292.156.461.195s.34.059.514.059c.312 0 .583-.052.812-.156s.422-.244.578-.422.271-.386.345-.624c.073-.238.11-.492.11-.761v-.442h-.443z"/><path d="m97.784 641.172h.858v9.828h-.858z"/><path d="m100.675 641.172h.858v9.828h-.858z"/><path d="m103.481 646.268c0-.225-.006-.45-.02-.676-.013-.225-.028-.45-.045-.676h.923v.923h.026c.208-.355.496-.624.865-.806.368-.183.734-.273 1.099-.273.165 0 .34.018.526.052.186.035.366.098.54.189.173.091.335.219.487.383.151.165.28.377.384.638.173-.391.448-.698.825-.924.377-.225.769-.338 1.177-.338.78 0 1.356.206 1.729.618.373.411.559.999.559 1.761v3.861h-.858v-3.549c0-.615-.108-1.088-.325-1.417s-.62-.494-1.209-.494c-.321 0-.59.062-.806.188-.217.126-.392.293-.526.5-.135.208-.232.444-.292.709-.061.265-.091.539-.091.825v3.238h-.858v-3.549c0-.615-.108-1.088-.325-1.417s-.62-.494-1.209-.494c-.052 0-.171.018-.357.052-.187.035-.379.13-.578.286-.2.156-.379.39-.54.702s-.241.745-.241 1.3v3.12h-.858v-4.732z"/><path d="m118.813 651c-.018-.164-.028-.327-.033-.487s-.006-.323-.006-.487h-.026c-.096.164-.217.316-.364.455s-.312.258-.494.357c-.182.1-.375.177-.579.233s-.405.085-.604.085c-.78 0-1.356-.206-1.729-.618-.373-.411-.559-.998-.559-1.761v-3.861h.858v3.367c0 .338.026.637.078.896.052.261.141.479.267.657.125.178.294.312.507.402s.479.137.799.137c.043 0 .165-.018.364-.052.199-.035.409-.13.63-.286s.418-.39.591-.702.26-.745.26-1.3v-3.12h.858v4.745c0 .165.006.373.02.624s.028.489.045.715h-.883z"/><path d="m124.789 646.359c-.13-.252-.304-.451-.52-.599-.217-.147-.481-.221-.793-.221-.147 0-.297.018-.449.052-.152.035-.288.089-.41.163-.121.073-.219.167-.292.279s-.11.251-.11.416c0 .286.1.494.299.624.2.13.499.242.897.338l.871.208c.425.096.778.288 1.06.578.282.291.422.652.422 1.086 0 .329-.067.613-.201.852-.135.238-.312.434-.533.585s-.475.262-.76.331c-.286.069-.577.104-.871.104-.468 0-.903-.089-1.307-.267-.403-.178-.748-.483-1.033-.917l.741-.507c.173.277.392.499.657.663.264.165.578.247.942.247.173 0 .347-.02.52-.059s.327-.1.461-.182.243-.188.325-.318c.082-.131.124-.282.124-.455 0-.304-.113-.522-.338-.657-.225-.134-.499-.24-.819-.318l-.832-.194c-.104-.026-.245-.069-.422-.131-.178-.06-.351-.151-.52-.272s-.314-.279-.436-.475c-.122-.195-.182-.436-.182-.722 0-.312.063-.585.188-.818.125-.234.294-.425.507-.572.212-.147.453-.258.721-.332.269-.073.546-.11.832-.11.425 0 .819.083 1.183.247.364.165.646.446.845.845z"/><path d="m128.269 642.576c0 .182-.065.331-.195.448s-.273.176-.429.176-.299-.059-.429-.176-.195-.267-.195-.448c0-.183.065-.332.195-.448.13-.117.273-.176.429-.176s.299.059.429.176c.13.116.195.266.195.448zm-.195 8.424h-.858v-6.084h.858z"/><path d="m134.413 646.346c-.147-.225-.354-.416-.618-.571-.265-.156-.565-.234-.903-.234-.355-.009-.674.048-.956.169s-.522.29-.722.507-.351.475-.455.773-.156.622-.156.969.052.67.156.969.256.557.455.773.44.386.722.507c.281.121.6.178.956.169.338 0 .639-.078.903-.234.264-.155.47-.346.618-.571l.702.532c-.303.355-.646.618-1.027.787s-.78.258-1.196.267c-.494.008-.94-.067-1.339-.228-.398-.16-.739-.384-1.021-.67s-.496-.626-.643-1.021-.221-.821-.221-1.28.074-.886.221-1.28c.147-.395.361-.734.643-1.021s.622-.509 1.021-.67c.399-.16.845-.235 1.339-.228.416.009.814.098 1.196.267s.724.432 1.027.787z"/><path d="m137.724 650.376c0 .182-.065.345-.195.487-.13.144-.299.215-.507.215s-.377-.071-.507-.215c-.13-.143-.195-.306-.195-.487s.065-.345.195-.487c.13-.144.299-.215.507-.215s.377.071.507.215c.13.142.195.305.195.487z"/><path d="m143.791 646.346c-.147-.225-.354-.416-.618-.571-.265-.156-.565-.234-.903-.234-.355-.009-.674.048-.956.169s-.522.29-.722.507-.351.475-.455.773-.156.622-.156.969.052.67.156.969.256.557.455.773.44.386.722.507c.281.121.6.178.956.169.338 0 .639-.078.903-.234.264-.155.47-.346.618-.571l.702.532c-.303.355-.646.618-1.027.787s-.78.258-1.196.267c-.494.008-.94-.067-1.339-.228-.398-.16-.739-.384-1.021-.67s-.496-.626-.643-1.021-.221-.821-.221-1.28.074-.886.221-1.28c.147-.395.361-.734.643-1.021s.622-.509 1.021-.67c.399-.16.845-.235 1.339-.228.416.009.814.098 1.196.267s.724.432 1.027.787z"/><path d="m151.632 647.958c0 .459-.08.884-.24 1.274-.161.39-.384.728-.67 1.014s-.626.509-1.021.669c-.394.161-.83.241-1.306.241-.468 0-.899-.08-1.293-.241-.395-.16-.735-.383-1.021-.669s-.509-.624-.67-1.014c-.16-.391-.24-.815-.24-1.274s.08-.884.24-1.274c.161-.39.384-.728.67-1.014s.626-.509 1.021-.669c.394-.161.825-.241 1.293-.241.477 0 .912.08 1.306.241.395.16.735.383 1.021.669s.509.624.67 1.014c.16.39.24.815.24 1.274zm-.936 0c0-.338-.054-.654-.163-.949-.108-.294-.262-.55-.461-.767s-.44-.388-.721-.514c-.282-.126-.601-.188-.956-.188s-.674.062-.956.188-.52.297-.715.514-.347.473-.455.767c-.108.295-.163.611-.163.949s.054.654.163.949c.108.295.26.55.455.767s.433.388.715.514c.281.126.6.188.956.188.355 0 .674-.062.956-.188.281-.126.522-.297.721-.514s.353-.472.461-.767.163-.611.163-.949z"/><path d="m153.134 646.268c0-.225-.006-.45-.02-.676-.013-.225-.028-.45-.045-.676h.923v.923h.026c.208-.355.496-.624.865-.806.368-.183.734-.273 1.099-.273.165 0 .34.018.526.052.186.035.366.098.54.189.173.091.335.219.487.383.151.165.28.377.384.638.173-.391.448-.698.825-.924.377-.225.769-.338 1.177-.338.78 0 1.356.206 1.729.618.373.411.559.999.559 1.761v3.861h-.858v-3.549c0-.615-.108-1.088-.325-1.417s-.62-.494-1.209-.494c-.321 0-.59.062-.806.188-.217.126-.392.293-.526.5-.135.208-.232.444-.292.709-.061.265-.091.539-.091.825v3.238h-.858v-3.549c0-.615-.108-1.088-.325-1.417s-.62-.494-1.209-.494c-.052 0-.171.018-.357.052-.187.035-.379.13-.578.286-.2.156-.379.39-.54.702s-.241.745-.241 1.3v3.12h-.858v-4.732z"/><path d="m246.936 646.268c0-.225-.006-.45-.02-.676-.013-.225-.028-.45-.045-.676h.923v.923h.026c.208-.355.496-.624.865-.806.368-.183.734-.273 1.099-.273.165 0 .34.018.526.052.186.035.366.098.54.189.173.091.335.219.487.383.151.165.28.377.384.638.173-.391.448-.698.825-.924.377-.225.769-.338 1.177-.338.78 0 1.356.206 1.729.618.373.411.559.999.559 1.761v3.861h-.858v-3.549c0-.615-.108-1.088-.325-1.417s-.62-.494-1.209-.494c-.321 0-.59.062-.806.188-.217.126-.392.293-.526.5-.135.208-.232.444-.292.709-.061.265-.091.539-.091.825v3.238h-.858v-3.549c0-.615-.108-1.088-.325-1.417s-.62-.494-1.209-.494c-.052 0-.171.018-.357.052-.187.035-.379.13-.578.286-.2.156-.379.39-.54.702s-.241.745-.241 1.3v3.12h-.858v-4.732z"/><path d="m259.957 649.947 1.859-5.031h1.04l-3.042 7.67c-.182.468-.414.841-.696 1.118s-.687.416-1.215.416c-.13 0-.262-.005-.396-.013-.135-.009-.267-.035-.396-.078l.091-.832c.182.095.398.143.65.143.304 0 .542-.096.715-.286s.325-.459.455-.806l.442-1.17-2.496-6.162h1.079z"/><path d="m267.128 646.359c-.13-.252-.304-.451-.52-.599-.217-.147-.481-.221-.793-.221-.147 0-.297.018-.449.052-.152.035-.288.089-.41.163-.121.073-.219.167-.292.279s-.11.251-.11.416c0 .286.1.494.299.624.2.13.499.242.897.338l.871.208c.425.096.778.288 1.06.578.282.291.422.652.422 1.086 0 .329-.067.613-.201.852-.135.238-.312.434-.533.585s-.475.262-.76.331c-.286.069-.577.104-.871.104-.468 0-.903-.089-1.307-.267-.403-.178-.748-.483-1.033-.917l.741-.507c.173.277.392.499.657.663.264.165.578.247.942.247.173 0 .347-.02.52-.059s.327-.1.461-.182.243-.188.325-.318c.082-.131.124-.282.124-.455 0-.304-.113-.522-.338-.657-.225-.134-.499-.24-.819-.318l-.832-.194c-.104-.026-.245-.069-.422-.131-.178-.06-.351-.151-.52-.272s-.314-.279-.436-.475c-.122-.195-.182-.436-.182-.722 0-.312.063-.585.188-.818.125-.234.294-.425.507-.572.212-.147.453-.258.721-.332.269-.073.546-.11.832-.11.425 0 .819.083 1.183.247.364.165.646.446.845.845z"/><path d="m269.484 644.916h.858v1.014h.026c.139-.208.303-.385.494-.532.19-.147.39-.269.598-.364s.422-.165.644-.208c.221-.044.431-.065.63-.065.477 0 .912.08 1.307.241.394.16.734.383 1.021.669.286.286.509.624.669 1.014.16.391.24.815.24 1.274s-.08.884-.24 1.274c-.161.39-.384.728-.669 1.014-.286.286-.626.509-1.021.669-.395.161-.83.241-1.307.241-.2 0-.41-.022-.63-.065-.221-.043-.436-.112-.644-.208-.208-.095-.408-.217-.598-.364-.191-.146-.355-.324-.494-.532h-.026v4.758h-.858zm5.551 3.042c0-.338-.054-.654-.162-.949-.109-.294-.262-.55-.462-.767-.199-.217-.44-.388-.721-.514-.282-.126-.6-.188-.956-.188s-.681.062-.975.188-.55.297-.767.514-.386.473-.507.767c-.122.295-.182.611-.182.949s.061.654.182.949.29.55.507.767.473.388.767.514.62.188.975.188.674-.062.956-.188c.281-.126.522-.297.721-.514.2-.217.353-.472.462-.767.107-.295.162-.611.162-.949z"/><path d="m281.262 647.269v-.155c0-1.049-.52-1.573-1.56-1.573-.71 0-1.331.238-1.859.715l-.52-.611c.572-.589 1.43-.884 2.574-.884.294 0 .578.044.851.13.273.087.509.22.708.396.2.178.36.401.481.67s.182.59.182.962v2.717c0 .234.011.479.033.734.021.256.045.467.071.631h-.832c-.026-.147-.045-.308-.058-.481s-.02-.342-.02-.507h-.026c-.251.408-.548.7-.89.878-.343.178-.761.267-1.255.267-.269 0-.528-.037-.78-.11-.251-.074-.475-.187-.669-.339-.195-.151-.351-.338-.468-.559s-.175-.479-.175-.773c0-.494.128-.882.383-1.163.256-.282.577-.492.962-.631s.797-.226 1.235-.26c.438-.035.838-.053 1.203-.053h.429zm-.442.702c-.217 0-.487.012-.812.033s-.637.073-.936.155c-.299.083-.555.211-.767.384-.212.174-.318.412-.318.715 0 .199.041.371.124.514.082.143.193.26.332.351.138.092.292.156.461.195s.34.059.514.059c.312 0 .583-.052.812-.156s.422-.244.578-.422.271-.386.345-.624c.073-.238.11-.492.11-.761v-.442h-.443z"/><path d="m288.418 646.346c-.147-.225-.354-.416-.618-.571-.265-.156-.565-.234-.903-.234-.355-.009-.674.048-.956.169s-.522.29-.722.507-.351.475-.455.773-.156.622-.156.969.052.67.156.969.256.557.455.773.44.386.722.507c.281.121.6.178.956.169.338 0 .639-.078.903-.234.264-.155.47-.346.618-.571l.702.532c-.303.355-.646.618-1.027.787s-.78.258-1.196.267c-.494.008-.94-.067-1.339-.228-.398-.16-.739-.384-1.021-.67s-.496-.626-.643-1.021-.221-.821-.221-1.28.074-.886.221-1.28c.147-.395.361-.734.643-1.021s.622-.509 1.021-.67c.399-.16.845-.235 1.339-.228.416.009.814.098 1.196.267s.724.432 1.027.787z"/><path d="m290.715 648.192c.026.303.099.589.221.857s.282.501.481.695c.199.195.429.35.689.462s.542.169.845.169c.459 0 .856-.106 1.189-.318s.587-.457.761-.734l.663.546c-.364.459-.765.789-1.202.988-.438.199-.908.299-1.411.299-.451 0-.869-.08-1.254-.241-.386-.16-.717-.383-.995-.669s-.496-.624-.657-1.014c-.16-.391-.24-.815-.24-1.274s.078-.884.234-1.274.373-.728.65-1.014.603-.509.975-.669c.373-.161.775-.241 1.209-.241.459 0 .871.083 1.235.247.364.165.67.384.917.656.247.273.436.594.566.963.13.368.195.76.195 1.176v.391h-5.071zm4.134-.702c0-.581-.173-1.051-.52-1.411-.347-.359-.832-.539-1.456-.539-.277 0-.546.054-.806.162s-.488.254-.683.436c-.195.183-.351.391-.468.624-.117.234-.175.477-.175.729h4.108z"/><path d="m298.518 650.376c0 .182-.065.345-.195.487-.13.144-.299.215-.507.215s-.377-.071-.507-.215c-.13-.143-.195-.306-.195-.487s.065-.345.195-.487c.13-.144.299-.215.507-.215s.377.071.507.215c.13.142.195.305.195.487z"/><path d="m304.585 646.346c-.147-.225-.354-.416-.618-.571-.265-.156-.565-.234-.903-.234-.355-.009-.674.048-.956.169s-.522.29-.722.507-.351.475-.455.773-.156.622-.156.969.052.67.156.969.256.557.455.773.44.386.722.507c.281.121.6.178.956.169.338 0 .639-.078.903-.234.264-.155.47-.346.618-.571l.702.532c-.303.355-.646.618-1.027.787s-.78.258-1.196.267c-.494.008-.94-.067-1.339-.228-.398-.16-.739-.384-1.021-.67s-.496-.626-.643-1.021-.221-.821-.221-1.28.074-.886.221-1.28c.147-.395.361-.734.643-1.021s.622-.509 1.021-.67c.399-.16.845-.235 1.339-.228.416.009.814.098 1.196.267s.724.432 1.027.787z"/><path d="m312.426 647.958c0 .459-.08.884-.24 1.274-.161.39-.384.728-.67 1.014s-.626.509-1.021.669c-.394.161-.83.241-1.306.241-.468 0-.899-.08-1.293-.241-.395-.16-.735-.383-1.021-.669s-.509-.624-.67-1.014c-.16-.391-.24-.815-.24-1.274s.08-.884.24-1.274c.161-.39.384-.728.67-1.014s.626-.509 1.021-.669c.394-.161.825-.241 1.293-.241.477 0 .912.08 1.306.241.395.16.735.383 1.021.669s.509.624.67 1.014c.16.39.24.815.24 1.274zm-.936 0c0-.338-.054-.654-.163-.949-.108-.294-.262-.55-.461-.767s-.44-.388-.721-.514c-.282-.126-.601-.188-.956-.188s-.674.062-.956.188-.52.297-.715.514-.347.473-.455.767c-.108.295-.163.611-.163.949s.054.654.163.949c.108.295.26.55.455.767s.433.388.715.514c.281.126.6.188.956.188.355 0 .674-.062.956-.188.281-.126.522-.297.721-.514s.353-.472.461-.767.163-.611.163-.949z"/><path d="m313.928 646.268c0-.225-.006-.45-.02-.676-.013-.225-.028-.45-.045-.676h.923v.923h.026c.208-.355.496-.624.865-.806.368-.183.734-.273 1.099-.273.165 0 .34.018.526.052.186.035.366.098.54.189.173.091.335.219.487.383.151.165.28.377.384.638.173-.391.448-.698.825-.924.377-.225.769-.338 1.177-.338.78 0 1.356.206 1.729.618.373.411.559.999.559 1.761v3.861h-.858v-3.549c0-.615-.108-1.088-.325-1.417s-.62-.494-1.209-.494c-.321 0-.59.062-.806.188-.217.126-.392.293-.526.5-.135.208-.232.444-.292.709-.061.265-.091.539-.091.825v3.238h-.858v-3.549c0-.615-.108-1.088-.325-1.417s-.62-.494-1.209-.494c-.052 0-.171.018-.357.052-.187.035-.379.13-.578.286-.2.156-.379.39-.54.702s-.241.745-.241 1.3v3.12h-.858v-4.732z"/><path d="m324.882 651.234-.754-.247 3.939-9.426.741.261z"/><path d="m329.252 644.916h.858v1.014h.026c.139-.208.303-.385.494-.532.19-.147.39-.269.598-.364s.422-.165.644-.208c.221-.044.431-.065.63-.065.477 0 .912.08 1.307.241.394.16.734.383 1.021.669.286.286.509.624.669 1.014.16.391.24.815.24 1.274s-.08.884-.24 1.274c-.161.39-.384.728-.669 1.014-.286.286-.626.509-1.021.669-.395.161-.83.241-1.307.241-.2 0-.41-.022-.63-.065-.221-.043-.436-.112-.644-.208-.208-.095-.408-.217-.598-.364-.191-.146-.355-.324-.494-.532h-.026v4.758h-.858zm5.551 3.042c0-.338-.054-.654-.162-.949-.109-.294-.262-.55-.462-.767-.199-.217-.44-.388-.721-.514-.282-.126-.6-.188-.956-.188s-.681.062-.975.188-.55.297-.767.514-.386.473-.507.767c-.122.295-.182.611-.182.949s.061.654.182.949.29.55.507.767.473.388.767.514.62.188.975.188.674-.062.956-.188c.281-.126.522-.297.721-.514.2-.217.353-.472.462-.767.108-.295.162-.611.162-.949z"/><path d="m343.333 647.958c0 .459-.08.884-.24 1.274-.161.39-.384.728-.67 1.014s-.626.509-1.021.669c-.394.161-.83.241-1.306.241-.468 0-.899-.08-1.293-.241-.395-.16-.735-.383-1.021-.669s-.509-.624-.67-1.014c-.16-.391-.24-.815-.24-1.274s.08-.884.24-1.274c.161-.39.384-.728.67-1.014s.626-.509 1.021-.669c.394-.161.825-.241 1.293-.241.477 0 .912.08 1.306.241.395.16.735.383 1.021.669s.509.624.67 1.014c.16.39.24.815.24 1.274zm-.936 0c0-.338-.054-.654-.163-.949-.108-.294-.262-.55-.461-.767s-.44-.388-.721-.514c-.282-.126-.601-.188-.956-.188s-.674.062-.956.188-.52.297-.715.514-.347.473-.455.767c-.108.295-.163.611-.163.949s.054.654.163.949c.108.295.26.55.455.767s.433.388.715.514c.281.126.6.188.956.188.355 0 .674-.062.956-.188.281-.126.522-.297.721-.514s.353-.472.461-.767.163-.611.163-.949z"/><path d="m344.872 646.814c0-.269-.006-.542-.02-.819-.013-.277-.024-.637-.032-1.079h.845v1.131h.026c.061-.164.147-.322.26-.475.113-.151.249-.288.41-.409.16-.121.346-.219.559-.293.212-.073.453-.11.721-.11.243 0 .455.026.637.078l-.169.845c-.113-.043-.278-.064-.494-.064-.33 0-.611.062-.845.188s-.429.286-.585.48c-.156.195-.271.405-.344.631-.074.226-.111.442-.111.65v3.432h-.858z"/><path d="m352.772 645.696h-1.755v3.588c0 .226.021.409.065.553.043.143.104.253.182.331s.171.132.279.162c.108.031.228.046.357.046.147 0 .299-.021.455-.065.156-.043.299-.099.429-.169l.039.793c-.32.147-.706.222-1.157.222-.165 0-.336-.022-.514-.065s-.34-.125-.487-.247c-.147-.121-.269-.286-.364-.494s-.143-.48-.143-.818v-3.835h-1.287v-.78h1.287v-1.718h.858v1.716h1.755v.78z"/><path d="m357.403 646.359c-.13-.252-.304-.451-.52-.599-.217-.147-.481-.221-.793-.221-.147 0-.297.018-.449.052-.152.035-.288.089-.41.163-.121.073-.219.167-.292.279s-.11.251-.11.416c0 .286.1.494.299.624.2.13.499.242.897.338l.871.208c.425.096.778.288 1.06.578.282.291.422.652.422 1.086 0 .329-.067.613-.201.852-.135.238-.312.434-.533.585s-.475.262-.76.331c-.286.069-.577.104-.871.104-.468 0-.903-.089-1.307-.267-.403-.178-.748-.483-1.033-.917l.741-.507c.173.277.392.499.657.663.264.165.578.247.942.247.173 0 .347-.02.52-.059s.327-.1.461-.182.243-.188.325-.318c.082-.131.124-.282.124-.455 0-.304-.113-.522-.338-.657-.225-.134-.499-.24-.819-.318l-.832-.194c-.104-.026-.245-.069-.422-.131-.178-.06-.351-.151-.52-.272s-.314-.279-.436-.475c-.122-.195-.182-.436-.182-.722 0-.312.063-.585.188-.818.125-.234.294-.425.507-.572.212-.147.453-.258.721-.332.269-.073.546-.11.832-.11.425 0 .819.083 1.183.247.364.165.646.446.845.845z"/><path d="m365.862 647.958c0 .459-.08.884-.24 1.274-.161.39-.384.728-.67 1.014s-.626.509-1.021.669c-.394.161-.83.241-1.306.241-.468 0-.899-.08-1.293-.241-.395-.16-.735-.383-1.021-.669s-.509-.624-.67-1.014c-.16-.391-.24-.815-.24-1.274s.08-.884.24-1.274c.161-.39.384-.728.67-1.014s.626-.509 1.021-.669c.394-.161.825-.241 1.293-.241.477 0 .912.08 1.306.241.395.16.735.383 1.021.669s.509.624.67 1.014c.16.39.24.815.24 1.274zm-.936 0c0-.338-.054-.654-.163-.949-.108-.294-.262-.55-.461-.767s-.44-.388-.721-.514c-.282-.126-.601-.188-.956-.188s-.674.062-.956.188-.52.297-.715.514-.347.473-.455.767c-.108.295-.163.611-.163.949s.054.654.163.949c.108.295.26.55.455.767s.433.388.715.514c.281.126.6.188.956.188.355 0 .674-.062.956-.188.281-.126.522-.297.721-.514s.353-.472.461-.767.163-.611.163-.949z"/><path d="m370.07 645.696h-1.443v5.304h-.858v-5.304h-1.287v-.78h1.287v-1.664c0-.806.186-1.38.559-1.723.373-.342.867-.514 1.482-.514.122 0 .245.009.371.026s.249.039.371.065l-.156.779c-.104-.025-.213-.047-.325-.064-.113-.018-.226-.026-.338-.026-.234 0-.425.039-.572.117s-.26.188-.338.331c-.078.144-.13.311-.156.501s-.039.395-.039.611v1.56h1.443v.781z"/><path d="m375.414 646.346c-.147-.225-.354-.416-.618-.571-.265-.156-.565-.234-.903-.234-.355-.009-.674.048-.956.169s-.522.29-.722.507-.351.475-.455.773-.156.622-.156.969.052.67.156.969.256.557.455.773.44.386.722.507c.281.121.6.178.956.169.338 0 .639-.078.903-.234.264-.155.47-.346.618-.571l.702.532c-.303.355-.646.618-1.027.787s-.78.258-1.196.267c-.494.008-.94-.067-1.339-.228-.398-.16-.739-.384-1.021-.67s-.496-.626-.643-1.021-.221-.821-.221-1.28.074-.886.221-1.28c.147-.395.361-.734.643-1.021s.622-.509 1.021-.67c.399-.16.845-.235 1.339-.228.416.009.814.098 1.196.267s.724.432 1.027.787z"/><path d="m381.26 647.269v-.155c0-1.049-.52-1.573-1.56-1.573-.71 0-1.331.238-1.859.715l-.52-.611c.572-.589 1.43-.884 2.574-.884.294 0 .578.044.851.13.273.087.509.22.708.396.2.178.36.401.481.67s.182.59.182.962v2.717c0 .234.011.479.033.734.021.256.045.467.071.631h-.832c-.026-.147-.045-.308-.058-.481s-.02-.342-.02-.507h-.026c-.251.408-.548.7-.89.878-.343.178-.761.267-1.255.267-.269 0-.528-.037-.78-.11-.251-.074-.475-.187-.669-.339-.195-.151-.351-.338-.468-.559s-.175-.479-.175-.773c0-.494.128-.882.383-1.163.256-.282.577-.492.962-.631s.797-.226 1.235-.26c.438-.035.838-.053 1.203-.053h.429zm-.442.702c-.217 0-.487.012-.812.033s-.637.073-.936.155c-.299.083-.555.211-.767.384-.212.174-.318.412-.318.715 0 .199.041.371.124.514.082.143.193.26.332.351.138.092.292.156.461.195s.34.059.514.059c.312 0 .583-.052.812-.156s.422-.244.578-.422.271-.386.345-.624c.073-.238.11-.492.11-.761v-.442h-.443z"/><path d="m384.1 641.172h.858v9.828h-.858z"/><path d="m386.991 641.172h.858v9.828h-.858z"/><path d="m389.786 644.916h.858v1.014h.026c.139-.208.303-.385.494-.532.19-.147.39-.269.598-.364s.422-.165.644-.208c.221-.044.431-.065.63-.065.477 0 .912.08 1.307.241.394.16.734.383 1.021.669.286.286.509.624.669 1.014.16.391.24.815.24 1.274s-.08.884-.24 1.274c-.161.39-.384.728-.669 1.014-.286.286-.626.509-1.021.669-.395.161-.83.241-1.307.241-.2 0-.41-.022-.63-.065-.221-.043-.436-.112-.644-.208-.208-.095-.408-.217-.598-.364-.191-.146-.355-.324-.494-.532h-.026v4.758h-.858zm5.551 3.042c0-.338-.054-.654-.162-.949-.109-.294-.262-.55-.462-.767-.199-.217-.44-.388-.721-.514-.282-.126-.6-.188-.956-.188s-.681.062-.975.188-.55.297-.767.514-.386.473-.507.767c-.122.295-.182.611-.182.949s.061.654.182.949.29.55.507.767.473.388.767.514.62.188.975.188.674-.062.956-.188c.281-.126.522-.297.721-.514.2-.217.353-.472.462-.767.108-.295.162-.611.162-.949z"/><path d="m401.564 647.269v-.155c0-1.049-.52-1.573-1.56-1.573-.71 0-1.331.238-1.859.715l-.52-.611c.572-.589 1.43-.884 2.574-.884.294 0 .578.044.851.13.273.087.509.22.708.396.2.178.36.401.481.67s.182.59.182.962v2.717c0 .234.011.479.033.734.021.256.045.467.071.631h-.832c-.026-.147-.045-.308-.058-.481s-.02-.342-.02-.507h-.026c-.251.408-.548.7-.89.878-.343.178-.761.267-1.255.267-.269 0-.528-.037-.78-.11-.251-.074-.475-.187-.669-.339-.195-.151-.351-.338-.468-.559s-.175-.479-.175-.773c0-.494.128-.882.383-1.163.256-.282.577-.492.962-.631s.797-.226 1.235-.26c.438-.035.838-.053 1.203-.053h.429zm-.442.702c-.217 0-.487.012-.812.033s-.637.073-.936.155c-.299.083-.555.211-.767.384-.212.174-.318.412-.318.715 0 .199.041.371.124.514.082.143.193.26.332.351.138.092.292.156.461.195s.34.059.514.059c.312 0 .583-.052.812-.156s.422-.244.578-.422.271-.386.345-.624c.073-.238.11-.492.11-.761v-.442h-.443z"/></g></g></svg>