<?xml version="1.0" encoding="UTF-8" standalone="no"?><!DOCTYPE svg PUBLIC "-//W3C//DTD SVG 1.1//EN" "http://www.w3.org/Graphics/SVG/1.1/DTD/svg11.dtd"><svg width="100%" height="100%" viewBox="0 0 250 300" version="1.1" xmlns="http://www.w3.org/2000/svg" xmlns:xlink="http://www.w3.org/1999/xlink" xml:space="preserve" xmlns:serif="http://www.serif.com/" style="fill-rule:evenodd;clip-rule:evenodd;stroke-linejoin:round;stroke-miterlimit:1.41421;"><g id="lola"><rect id="Layer_2" x="-10.5" y="-187.623" width="419.695" height="543.123" style="fill:#261051;"/><g><path d="M33.688,205.338c2.329,0 4.658,0 6.986,0c2.567,6.643 -7.806,0.341 -5.24,6.985c-2.369,-0.542 -1.448,-4.374 -1.746,-6.985Z" style="fill:#e300a7;"/><path d="M9.237,177.393c3.902,4.831 6.798,10.667 8.733,17.466c-3.903,-4.831 -6.797,-10.671 -8.733,-17.466Z" style="fill:#e300a7;"/><path d="M24.955,210.575c5.538,6.688 10.531,13.918 13.972,22.705c-5.123,-7.103 -10.371,-14.077 -13.972,-22.705Z" style="fill:#e300a7;"/><path d="M-4.735,121.506c4.212,6.265 3.068,17.888 6.986,24.45c-1.165,0 -2.328,0 -3.494,0c0.34,-9.653 -4.811,-13.817 -3.492,-24.45Z" style="fill:#e300a7;"/><path d="M179.115,289.63c7.32,11.764 2.686,36.127 0,48.902c1.035,14.062 -13.252,9.895 -22.703,6.984c6.893,-4.617 -0.8,-1.578 -3.493,-5.239c6.861,1.621 4.407,-6.073 12.225,-3.495c2.717,-6.207 -5.931,-1.05 -5.24,-5.238c2.027,-1.464 4.684,-2.302 8.733,-1.746c1.155,-4.668 0.732,-10.912 3.493,-13.971c4.185,-0.693 -0.967,7.956 5.239,5.238c-0.791,-8.253 5.884,-20.077 -1.746,-24.45c0.751,-2.744 5.494,-1.493 3.492,-6.985Z" style="fill:#e300a7;"/><path d="M3.997,161.674c0.288,-5.524 -4.64,-5.836 -3.492,-12.226c5.405,-1.192 7.272,10.01 3.492,12.226Z" style="fill:#e300a7;"/><path d="M214.555,-3.357c0.265,0 0.528,0 0.793,0c2.444,2.585 4.118,5.94 5.558,9.528c-3.323,-1.974 -5.758,-4.83 -6.351,-9.528Z" style="fill:#e300a7;"/><path d="M32.722,8.553c0.301,-1.511 1.01,0.507 0.793,1.588c-0.302,1.512 -1.009,-0.506 -0.793,-1.588Z" style="fill:#e300a7;"/><rect x="180.411" y="14.112" width="1.588" height="1.589" style="fill:#e300a7;"/><path d="M185.174,17.289c1.98,0.322 0.048,3.078 -1.586,2.382c-0.439,-1.761 1.516,-1.133 1.586,-2.382Z" style="fill:#e300a7;"/><path d="M183.587,34.756c-0.799,1.648 -3.511,2.178 -3.176,-0.794c1.661,-0.336 2.103,0.544 3.176,0.794Z" style="fill:#e300a7;"/><path d="M194.703,51.431c-0.223,-1.282 0.752,-1.364 0.794,-2.38c0.643,0.151 0.792,0.796 1.587,0.794c0,0.527 0,1.057 0,1.586c-0.794,0 -1.587,0 -2.381,0Z" style="fill:#e300a7;"/><path d="M59.718,80.812c-0.529,0 -1.058,0 -1.588,0c0,-0.53 0,-1.058 0,-1.589c1.351,-0.292 1.499,0.618 1.588,1.589Z" style="fill:#e300a7;"/><path d="M204.231,103.041c3.256,0.49 1.591,2.184 1.589,4.766c-2.545,0.221 -2.888,-3.478 -1.589,-4.766Z" style="fill:#e300a7;"/><rect x="208.202" y="168.948" width="1.588" height="1.589" style="fill:#e300a7;"/><path d="M191.527,223.734c0.245,-1.077 1.988,-0.657 3.176,-0.79c-0.073,2.504 2.123,4.733 -1.588,4.762c-1.177,-2.329 0.899,-2.952 -1.588,-3.972Z" style="fill:#e300a7;"/><path d="M124.035,238.026c0.795,1.096 1.31,-0.336 2.383,1.589c-0.254,1.864 -2.458,1.778 -3.177,3.177c-1,-3.498 -0.436,-6.371 0,-10.32c0.639,0.417 1.29,0.826 2.383,0.79c-1.34,2.159 1.259,3.722 -1.589,4.764Z" style="fill:#e300a7;"/><path d="M117.682,237.233c2.667,0.726 0.393,1.476 0.794,3.969c-1.721,0.136 -0.36,-2.814 -0.794,-3.969Z" style="fill:#e300a7;"/><path d="M180.411,33.962c-0.335,2.972 2.377,2.442 3.176,0.794c-1.073,-0.25 -1.515,-1.13 -3.176,-0.794Z" style="fill:#e300a7;"/><path d="M98.627,4.583c0.796,-0.001 0.943,0.643 1.586,0.795c-0.003,-0.797 0.643,-0.947 0.794,-1.588c-0.797,0.002 -0.945,-0.643 -1.587,-0.795c0.004,0.797 -0.643,0.946 -0.793,1.588Z" style="fill:#e300a7;"/><path d="M97.037,9.349c0.822,-3.861 3.15,2.269 3.971,-1.592c-2.431,-0.128 -3.913,-0.97 -4.764,-1.586c1.013,1.987 -0.405,2.487 0.793,3.178Z" style="fill:#e300a7;"/><path d="M33.515,10.141c0.217,-1.081 -0.491,-3.1 -0.793,-1.588c-0.216,1.082 0.491,3.1 0.793,1.588Z" style="fill:#e300a7;"/><rect x="180.411" y="14.112" width="1.588" height="1.589" style="fill:#e300a7;"/><path d="M58.13,79.223c0,0.531 0,1.058 0,1.589c0.53,0 1.059,0 1.588,0c-0.089,-0.971 -0.237,-1.881 -1.588,-1.589Z" style="fill:#e300a7;"/><path d="M208.202,55.4c0.54,-1.972 2.418,1.173 3.176,1.589c-0.718,2.149 -1.775,-1.816 -3.176,-1.589Z" style="fill:#e300a7;"/><path d="M28.75,114.953c-2.606,-1.405 0.928,-3.217 1.589,-3.971c1.777,0.579 -1.754,2.393 -1.589,3.971Z" style="fill:#e300a7;"/><path d="M174.058,89.542c2.302,0.448 -1.216,1.241 -0.793,2.384c-2.632,-0.774 0.886,-1.569 0.793,-2.384Z" style="fill:#e300a7;"/><path d="M170.882,91.926c-1.358,6.039 -12.934,11.405 -14.293,22.234c1.15,-0.463 8.834,-1.203 13.499,-0.794c-6.398,-8.443 2.848,-19.762 15.086,-19.057c-1.605,1.631 0.324,1.584 1.588,2.38c-2.515,8.599 3.372,14.252 7.94,18.265c-1.563,0.127 -4.547,1.971 -6.351,1.588c-0.422,-0.087 -1.678,-1.583 -1.589,-1.588c-1.025,0.058 -2.363,3.233 -2.383,0c-2.623,1.192 1.654,1.941 0.795,3.968c-2.569,-0.681 -7.311,2.336 -10.322,0.797c0.353,0.707 0.698,1.418 1.588,1.586c-1.945,1.229 -5.168,1.185 -7.94,1.589c1.55,2.949 4.11,4.891 7.94,5.558c0.293,2.41 -2.586,1.648 -3.97,2.382c1.587,2.587 6.633,2.718 10.322,3.972c0.178,0.058 -0.176,1.507 0,1.585c0.872,0.39 2.323,-0.422 3.177,0c0.174,0.089 1.752,3.404 1.587,0c2.405,3.482 8.205,-0.306 7.941,4.766c0.742,-0.585 1.204,-1.445 1.587,-2.385c1.842,0.221 1.824,2.125 0.795,3.177c4.358,-2.997 8.212,-0.415 12.705,-1.586c2.96,0.216 1.09,5.261 5.557,3.971c0.049,2.683 -1.434,3.386 0.794,4.762c-1.418,1.62 -2.931,0.224 -1.588,3.178c-0.922,0.665 -2.129,1.046 -3.97,0.792c0.78,3.243 -0.088,3.211 0,7.146c-3.13,-1.015 -2.061,2.178 -3.176,3.177c-0.773,-0.021 -0.618,-0.972 -0.794,-1.586c-2.784,1.293 0.355,5.563 -2.382,7.938c2.27,-4.711 2.781,8.348 0.795,10.323c-2.09,-1.937 -5.183,2.057 -4.767,-2.383c-2.4,1.204 0.66,3.489 0,5.562c-4.914,-1.185 -2.422,8.28 -7.144,4.76c0.128,0.923 -0.176,1.413 -0.795,1.589c0.722,1.393 2.783,1.449 3.969,2.384c2.008,4.265 -0.491,10.509 0,1.585c-1.097,0.388 -1.926,7.161 0.795,6.354c-0.936,3.032 -2.678,5.258 -7.146,4.765c1.091,2.51 0.174,2.655 0,5.558c-0.74,-0.582 -1.202,-1.445 -1.588,-2.383c-4.634,4.799 -6.596,-2.991 -11.91,-2.385c-0.213,-10.142 -3.928,-11.917 -4.764,-21.437c-2.131,-2.321 -3.274,-4.302 -4.763,-8.732c-1.238,-3.68 -2.31,-4.84 -2.383,-7.94c-0.043,-1.796 -2.239,-3.867 -2.382,-4.766c-0.029,-0.186 3.162,-3.612 -0.795,-3.972c0.245,-1.076 1.987,-0.656 3.176,-0.793c-3.207,-2.404 -2.278,-8.581 -3.97,-14.292c-0.108,-0.367 -3.002,-4.53 -3.176,-6.353c-0.103,-1.1 0.769,-3.322 0.794,-3.176c-0.113,-0.657 -2.381,-2.759 -2.382,-3.176c-0.011,-3.438 2.537,-6.298 2.382,-9.53c-1.451,-1.193 -2.433,-2.863 -2.382,-5.558c-0.48,-0.357 -0.981,1.444 -0.793,1.591c-7.366,-5.714 10.365,-23.22 15.086,-25.41Zm34.938,81.786c-1.144,0.422 -1.938,-3.095 -2.383,-0.795c0.813,-0.093 1.607,3.425 2.383,0.795Z" style="fill:#e300a7;"/><path d="M28.75,114.953c-2.606,-1.405 0.928,-3.217 1.589,-3.971c1.777,0.579 -1.754,2.393 -1.589,3.971Z" style="fill:#e300a7;"/><path d="M203.437,172.917c0.445,-2.3 1.239,1.217 2.384,0.795c-0.777,2.63 -1.571,-0.888 -2.384,-0.795Z" style="fill:#e300a7;"/><path d="M112.919,231.677c-0.257,2.879 3.493,-0.102 6.351,1.585c-4.903,3.374 -8.188,3.223 -11.117,9.53c-4.161,-1.664 -7.894,-3.75 -9.526,-7.942c4.191,-2.481 9.786,-2.945 14.292,-3.173Z" style="fill:#e300a7;"/><path d="M56.102,70.01c-1.587,-10.947 -2.647,-22.951 -3.71,-37.96c1.758,-6.696 -7.333,-18.074 -1.2,-19.076c3.987,17.472 4.204,37.085 4.91,57.036Z" style="fill:#e300a7;"/><path d="M16.841,19.671c-0.134,-1.722 2.817,-0.362 3.969,-0.794c0.135,1.721 -2.815,0.359 -3.969,0.794Z" style="fill:#e300a7;"/><path d="M24.782,22.847c-1.745,2.425 -5.087,-0.917 0,0Z" style="fill:#e300a7;"/><path d="M20.81,18.877c-1.152,0.432 -4.103,-0.928 -3.969,0.794c1.154,-0.435 4.104,0.927 3.969,-0.794Z" style="fill:#e300a7;"/><path d="M24.782,22.847c-5.087,-0.917 -1.745,2.425 0,0Z" style="fill:#e300a7;"/><path d="M51.778,92.721c-1.252,-0.071 -0.622,-2.026 -2.383,-1.588c-0.695,1.636 2.06,3.564 2.383,1.588Zm138.955,-42.083c0.482,-3.13 -1.777,-3.516 -3.97,-3.971c-0.374,-2.493 2.137,-2.098 2.382,-3.971c-1.71,-1.72 -1.903,2.127 -5.558,0.795c-0.697,-2.55 2.06,-1.647 2.383,-3.176c0.568,-2.158 -3.744,0.569 -3.177,-1.589c3.194,-3.16 -0.324,-4.265 0,-8.736c3.125,-1.27 0.276,3.431 2.381,3.178c0.76,-0.162 1.081,-2.098 0.796,-3.178c-0.423,-1.587 -2.23,-1.081 -2.383,-1.587c-0.148,-0.486 1.217,-1.886 0.793,-3.174c-0.264,-0.811 -2.247,-2.608 -2.381,-4.765c-0.193,-3.139 2.48,-6.579 1.588,-10.323c2.667,-0.814 1.236,2.468 1.587,3.971c2.325,1.057 3.902,-0.021 5.558,-1.588c-1.253,-1.002 -2.84,1.8 -4.763,0c-1.836,-5.244 2.585,-2.997 1.095,-7.854c0.481,-0.076 0.958,-0.154 1.456,-0.234c1.571,1.331 -1.93,3.978 -0.168,5.705c3.149,-0.901 3.791,-3.63 4.146,-6.363c0.259,-0.043 0.505,-0.086 0.768,-0.129c-0.017,-1.178 -0.078,-2.405 -0.19,-3.669c0.014,-0.053 0.023,-0.11 0.038,-0.161c0.743,0.584 1.205,1.443 1.588,2.382c1.223,-1.358 -0.274,-2.89 0.795,-5.558l-2.835,0c-2.909,-18.541 -17.324,-42.797 -64.362,-44.317c-6.738,1.674 -20.931,2.274 -24.51,-0.347c-1.161,-0.962 -1.789,-0.237 -2.373,0.646c0.674,0.475 1.34,0.971 1.984,1.508c0,0 -79.384,9.482 -81.313,44.206c-0.6,10.795 10.437,19.141 12.834,80.217c0.225,5.732 5.451,6.407 5.705,12.325c0.534,-0.461 6.009,-3.425 6.387,-4.512c2.851,-1.01 8.836,2.315 9.529,-3.969c2.429,2.781 2.018,-0.121 3.97,-1.586c0.169,-4.14 -6.586,-1.357 -7.942,-3.972c1.654,-3.074 -1.182,-1.298 -0.792,-4.763c-1.335,-0.581 -4.558,-3.3 -5.558,-1.589c-2.587,-2.022 6.04,-3.798 6.351,-0.794c1.795,-0.444 -0.961,-1.239 0.794,-2.384c6.535,-0.227 14.374,-2.607 22.234,-0.793c2.497,0.577 5.37,2.963 7.94,3.971c2.96,1.161 6.416,1.592 7.94,4.764c-0.582,1.414 -1.444,0.112 -2.383,0c-0.176,2.369 2.933,2.701 0.795,4.763c-0.901,-0.15 -0.442,-0.794 0,-0.792c-0.586,-1.785 -3.027,1.114 -3.175,2.38c-2.289,-1.45 -2.485,-1.288 -5.559,-0.791c-0.861,2.032 2.412,3.783 0,4.761c3.702,4.24 6.277,9.604 9.53,14.294c-2.929,0.132 -0.009,2.056 0,5.559l-3.18,0c1.432,2.275 2.095,5.314 3.972,7.143c-9.458,10.584 -28.743,10.18 -34.936,-3.175c1.853,-2.656 1.713,-3.695 2.381,-6.354c0.027,-0.902 2.012,3.621 0,3.971c0.723,2.157 2.783,-0.811 3.969,-0.793c0.036,-1.358 -0.589,-2.056 -1.586,-2.383c0.28,-1.11 1.398,-0.068 1.586,0.794c2.309,-0.687 0.895,-1.189 0.796,-3.175c-2.702,-0.054 -5.541,-0.247 -6.352,1.585c-1.132,-0.967 -1.805,-3.027 -0.794,-3.968c-1.592,-0.978 -13.326,1.634 -19.278,8.908c0.18,6.788 2.32,5.388 2.276,12.173c3.991,0.151 12.625,2.214 16.207,3.534c-1.794,2.283 -5.483,-0.273 -6.353,3.971c-2.152,-0.719 0.668,-2.926 1.589,-3.177c0.359,-2.212 -4.327,0.62 -3.97,-1.588c-0.255,0.215 -0.452,0.489 -0.622,0.788c-0.074,8.138 -3.47,-0.553 -3.47,-0.553c0,0 -3.975,3.859 -4.795,-0.171c-0.797,0.407 -1.599,0.656 -3.024,-0.064c0.353,-1.154 0.698,0.081 1.589,0c-0.274,-2.805 -2.085,-2.053 -3.971,-1.589c1.322,-1.58 -0.072,-1.008 0,-3.173c-2.31,0.866 -5.609,0.742 -7.146,2.379c-1.467,-1.517 3.319,-3.521 4.763,-4.764c-0.899,-1.609 -3.518,1.714 -6.352,0.795c0.023,-0.774 0.972,-0.614 1.589,-0.795c-2.305,-0.988 0.271,-5.142 -2.382,-7.145c4.218,-0.092 0.637,-0.149 0.793,-2.382c2.281,-1.508 5.389,-3.406 3.971,-6.352c4.019,-0.913 9.991,-6.731 12.669,-8.987c-0.524,-6.043 -5.256,-8.404 -5.705,-12.325c-3.987,-34.783 -0.545,-39.332 -12.565,-80.711c-0.089,0.166 -0.18,0.327 -0.269,0.494c-3.381,3.108 -1.424,4.52 -0.492,6.256c-0.349,0.314 -0.701,1.342 -1.194,2.15c-0.743,0.181 -1.413,0.471 -2.02,0.849c-0.23,-0.137 -0.477,-0.332 -0.747,-0.628c-0.154,0.53 -0.314,1.054 -0.475,1.577c-4.447,4.255 -4.968,14.201 -8.667,19.913c0.648,0.805 1.187,1.26 1.648,1.474c-0.83,3.045 -1.541,6.209 -2.034,9.593c2.273,0.396 2.004,-8.568 6.353,-8.736c-0.066,2.474 -0.427,4.539 -0.924,6.328c-0.323,0.882 -0.628,1.761 -0.881,2.622c-1.102,2.793 -2.401,4.859 -2.96,6.931c-1.346,0.389 2.203,2.487 1.588,4.764c-1.399,1.994 -1.311,0.559 -3.176,1.587c0.246,3.147 2.758,-0.886 2.382,2.383c-3.283,4.53 -1.572,10.579 -2.382,15.88c-1.023,6.712 -3.072,13.248 -3.969,19.851c-2.541,18.688 -3.608,43.775 0,64.317c2.376,13.53 8.951,24.402 10.322,37.321c0.506,4.769 -1.07,9.64 0,14.291c-2.116,1.717 -2.589,-3.289 -5.558,-3.176c-0.442,3.389 -3.946,8.289 -2.383,13.497c4.093,2.811 8.445,1.209 11.116,-1.586c7.795,29.792 20.629,54.537 43.672,69.081c-0.117,1.77 -2.001,-1.031 -3.97,0c5,23.678 6.43,54.887 -6.405,70.589c-0.242,0.296 112.625,0.271 112.521,0.001c-1.689,-4.378 -5.866,-3.704 -11.626,-7.863c-5.005,-3.615 -9.838,-9.19 -13.499,-12.703c-2.75,-2.641 -10.183,-1.282 -14.293,-2.383c0.369,-1.694 -1.134,-1.513 -2.381,-1.588c0.251,-1.841 -0.129,-3.049 -0.794,-3.972c-4.134,-5.393 -10.482,-8.573 -14.295,-14.291c-17.125,-6.696 -32.534,-15.106 -44.463,-26.997c5.558,5.557 14.692,7.541 19.85,13.498c5.92,-1.025 10.585,5.252 17.468,5.559c8.234,0.366 13.506,-4.818 19.85,-7.94c2.024,-1.153 2.131,-4.22 3.971,-5.559c2.703,0.545 2.959,2.578 3.97,-0.791c6.087,1.183 14.897,-2.154 19.852,-6.356c0.81,-0.687 0.543,-1.678 1.587,-2.38c0.352,-0.238 1.009,-0.496 3.178,0.793c1.721,0.135 0.357,-2.815 0.793,-3.97c2.944,0.564 3.407,-1.356 6.352,-0.794c3.458,-1.656 -0.246,-6.493 4.764,-5.558c0.896,-1.159 -5.113,-3.815 0,-5.558c-1.66,-1.732 -2.266,0.396 -4.764,0c-5.626,-5.751 -16.584,-8.525 -26.996,-9.528c-4.728,-0.455 -9.216,0.791 -13.5,0c-5.48,-1.013 -12.074,-4.35 -15.086,-7.939c-1.956,-2.333 -4.352,-8.801 -4.764,-11.12c-3.228,1.962 -2.444,-1.476 -4.764,-2.383c-6.693,1.773 -14.714,-0.145 -20.646,-1.585c0.282,-3.157 4.059,-2.823 6.353,-3.97c7.022,-4.335 13.053,-8.729 21.438,-12.707c2.275,-1.077 5.341,-2.837 7.145,-3.174c4.724,-0.886 9.069,1.711 14.294,1.588c6.412,-0.151 14.087,-3.419 21.438,-3.176c3.474,0.114 5.696,1.469 8.736,0.794c2.058,-2.836 -3.734,-3.307 -3.972,-6.353c-9.615,-1.892 -16.857,-8.581 -26.995,-5.558c-0.559,-2.883 -2.56,-4.321 -3.972,-6.354c0.622,-3.587 2.821,-6.642 0,-9.529c-7.388,0.386 -16.375,6.073 -21.438,1.589c1.029,-2.411 1.497,-5.384 2.383,-7.939c7.955,-2.861 13.08,3.09 19.056,4.763c2.882,-0.091 2.562,-3.294 3.971,-4.763c4.662,-4.878 11.559,-6.35 14.292,-11.909c0.415,-0.845 -0.634,-3.324 0,-3.972c0.145,-0.148 1.535,0.172 1.588,0c2.847,-9.187 -3.789,-16.723 -5.557,-25.407c-0.7,-3.43 0.967,-6.875 -1.588,-10.323c0.711,-1.672 1.234,-3.532 2.381,-4.766c0.27,-1.58 -1.598,-3.186 -1.587,-4.762c0.011,-1.514 2.045,-1.835 2.381,-3.178c0.018,-0.068 -0.968,-5.858 -0.793,-7.146c0.03,-0.232 1.585,-1.537 1.588,-1.588c0.146,-4.118 -1.638,-7.871 -1.588,-11.911c0.051,-3.909 2.943,-6.622 0,-9.529c3.54,0.894 -0.484,-5.777 3.971,-3.967c-2.084,-3.903 3.113,-4.643 3.175,-8.735c4.738,-0.028 4.635,-4.895 9.529,-4.766c1.223,-0.419 0.051,-0.828 -0.795,-0.794c2.776,-0.391 6.678,-0.971 9.53,-1.588c-0.926,-3.555 4.23,0.385 4.765,-3.97c3.151,2.466 2.052,0.194 4.764,-0.793c3.18,-1.162 9.069,0.931 10.323,-2.383c2.583,1.959 4.125,0.061 7.143,1.586c1.957,-0.939 -1.625,-2.997 0.796,-3.969c2.074,3.501 7.327,-2.35 11.91,-0.793c-2.481,-1.229 -2.847,-4.57 -7.149,-3.97Zm-132.603,77.814c-0.771,0.021 -0.616,0.971 -0.793,1.588c-1.749,-0.634 -3.17,-1.596 -3.177,-3.968c1.708,-1.026 2.809,0.851 2.383,-3.179c1.999,0.407 1.59,4.405 3.175,7.147c-1.35,0.29 -1.498,-0.619 -1.588,-1.588Zm26.202,-0.793c-1.659,2.404 -4.554,1.745 -5.557,5.558c-2.904,-0.173 -3.046,-1.093 -5.558,0c-0.421,-0.639 -0.828,-1.292 -0.796,-2.384c-2.724,0.132 -5.129,3.209 -7.143,1.588c0.126,-0.93 1.447,-0.671 2.381,-0.793c0.383,-1.556 -3.641,-2.558 -3.971,-0.795c-0.881,-0.345 -1.982,-5.643 -2.382,-1.586c-2.307,-1.108 0.224,-3.92 0.794,-4.765c1.608,1.374 6.779,1.5 5.558,-2.382c5.871,3.552 11.186,-1.033 15.88,0c-1.126,-0.25 0.676,4.602 1.587,0.793c1.853,1.065 -2.457,4.181 -2.382,3.969c-0.175,0.49 1.419,1.043 1.589,0.797Zm-27.789,-35.733c1.224,-2.396 -4.11,-2.086 -3.972,-0.793c1.653,1.74 2.567,-0.698 3.972,0.793Zm-21.44,7.942c0.433,0.464 1.209,0.751 1.96,0.775c-0.052,-0.726 -0.103,-1.437 -0.156,-2.142c-0.842,-0.189 -1.49,-0.056 -1.804,1.367Zm11.911,-5.56c-0.316,-0.584 -0.697,-0.946 -1.113,-1.158c0.025,0.668 0.05,1.334 0.074,2.003c0.718,-0.079 1.282,-0.279 1.039,-0.845Zm-14.292,21.438c3.413,2.052 -0.303,3.766 5.338,4.728c-0.002,-0.066 -0.004,-0.128 -0.006,-0.193c-1.217,-1.258 -0.934,-1.329 -0.029,-0.964c-0.072,-2.209 -0.156,-4.367 -0.251,-6.471c-0.443,0.619 -0.653,1.475 -0.288,2.9c-2.153,-2.232 -1.976,-0.624 -4.764,0Zm-0.795,-11.115c1.852,-0.266 3.421,-0.814 3.971,-2.382c-2.274,-0.156 -4.335,-0.1 -3.971,2.382Z" style="fill:#e300a7;"/></g><path d="M24.475,-6.579l-2.744,8.915l13.716,90.523l8.915,-6.178l-19.887,-93.26Z" style="fill:#e300a7;"/></g></svg>