<?xml version="1.0" encoding="UTF-8" standalone="no"?><!DOCTYPE svg PUBLIC "-//W3C//DTD SVG 1.1//EN" "http://www.w3.org/Graphics/SVG/1.1/DTD/svg11.dtd"><svg width="100%" height="100%" viewBox="0 0 600 780" version="1.1" xmlns="http://www.w3.org/2000/svg" xmlns:xlink="http://www.w3.org/1999/xlink" xml:space="preserve" xmlns:serif="http://www.serif.com/" style="fill-rule:evenodd;clip-rule:evenodd;stroke-linejoin:round;stroke-miterlimit:1.41421;"><g><rect id="Layer_2" x="0" y="0" width="602.539" height="779.74" style="fill:#261051;"/><g><path d="M63.439,564.16c3.343,0 6.687,0 10.029,0c3.686,9.537 -11.207,0.489 -7.522,10.028c-3.402,-0.778 -2.08,-6.28 -2.507,-10.028Z" style="fill:#e300a7;"/><path d="M28.335,524.04c5.603,6.936 9.76,15.314 12.538,25.075c-5.603,-6.936 -9.759,-15.319 -12.538,-25.075Z" style="fill:#e300a7;"/><path d="M50.902,571.678c7.95,9.602 15.118,19.982 20.059,32.597c-7.356,-10.198 -14.889,-20.209 -20.059,-32.597Z" style="fill:#e300a7;"/><path d="M330.691,229.995c-8.08,-8.636 -13.888,-19.542 -22.567,-27.581c-2.596,-6.599 -9.941,-8.444 -12.535,-15.045c13.874,12.036 27.037,24.78 35.102,42.626Z" style="fill:#e300a7;"/><path d="M8.276,443.805c6.047,8.995 4.405,25.682 10.031,35.102c-1.673,0 -3.343,0 -5.017,0c0.488,-13.859 -6.907,-19.836 -5.014,-35.102Z" style="fill:#e300a7;"/><path d="M1.959,427.329c0.111,-21.19 -4.463,-35.748 0,-55.16c4.173,12.589 4.173,42.574 0,55.16Z" style="fill:#e300a7;"/><path d="M272.223,685.174c10.509,16.89 3.856,51.867 0,70.207c1.486,20.188 -19.025,14.206 -32.593,10.027c9.895,-6.629 -1.149,-2.265 -5.016,-7.522c9.851,2.328 6.327,-8.718 17.552,-5.017c3.899,-8.912 -8.516,-1.508 -7.523,-7.521c2.91,-2.101 6.724,-3.304 12.537,-2.506c1.658,-6.701 1.051,-15.666 5.014,-20.058c6.009,-0.995 -1.387,11.422 7.522,7.52c-1.135,-11.849 8.448,-28.824 -2.506,-35.101c1.078,-3.94 7.888,-2.144 5.013,-10.029Z" style="fill:#e300a7;"/><path d="M20.813,501.473c0.413,-7.93 -6.661,-8.379 -5.014,-17.552c7.76,-1.712 10.44,14.37 5.014,17.552Z" style="fill:#e300a7;"/><path d="M323.103,264.544c0.38,0 0.758,0 1.138,0c3.509,3.711 5.912,8.528 7.98,13.679c-4.77,-2.834 -8.266,-6.934 -9.118,-13.679Z" style="fill:#e300a7;"/><path d="M62.052,281.643c0.433,-2.17 1.45,0.728 1.139,2.28c-0.433,2.171 -1.449,-0.727 -1.139,-2.28Z" style="fill:#e300a7;"/><rect x="274.084" y="289.624" width="2.279" height="2.281" style="fill:#e300a7;"/><path d="M280.922,294.185c2.843,0.462 0.068,4.42 -2.278,3.419c-0.63,-2.528 2.177,-1.626 2.278,-3.419Z" style="fill:#e300a7;"/><path d="M278.643,319.262c-1.147,2.365 -5.041,3.127 -4.559,-1.141c2.384,-0.481 3.019,0.782 4.559,1.141Z" style="fill:#e300a7;"/><path d="M294.601,343.201c-0.32,-1.84 1.08,-1.958 1.142,-3.417c0.922,0.218 1.137,1.143 2.278,1.14c0,0.757 0,1.518 0,2.277c-1.14,0 -2.278,0 -3.42,0Z" style="fill:#e300a7;"/><path d="M100.809,385.383c-0.759,0 -1.519,0 -2.28,0c0,-0.762 0,-1.519 0,-2.281c1.94,-0.42 2.152,0.887 2.28,2.281Z" style="fill:#e300a7;"/><path d="M308.282,417.296c4.673,0.703 2.283,3.135 2.281,6.843c-3.654,0.317 -4.147,-4.994 -2.281,-6.843Z" style="fill:#e300a7;"/><rect x="313.982" y="511.915" width="2.28" height="2.281" style="fill:#e300a7;"/><path d="M290.042,590.57c0.352,-1.546 2.854,-0.944 4.559,-1.134c-0.104,3.595 3.049,6.795 -2.279,6.837c-1.69,-3.345 1.291,-4.239 -2.28,-5.703Z" style="fill:#e300a7;"/><path d="M193.147,611.089c1.14,1.573 1.88,-0.482 3.421,2.281c-0.365,2.676 -3.529,2.552 -4.562,4.561c-1.434,-5.022 -0.625,-9.147 0,-14.817c0.918,0.599 1.852,1.187 3.422,1.135c-1.924,3.1 1.808,5.344 -2.281,6.84Z" style="fill:#e300a7;"/><path d="M184.027,609.95c3.827,1.042 0.564,2.119 1.139,5.699c-2.472,0.195 -0.517,-4.041 -1.139,-5.699Z" style="fill:#e300a7;"/><path d="M274.084,318.121c-0.482,4.268 3.412,3.507 4.559,1.141c-1.54,-0.359 -2.175,-1.622 -4.559,-1.141Z" style="fill:#e300a7;"/><path d="M156.669,275.943c1.143,-0.002 1.354,0.924 2.277,1.142c-0.004,-1.145 0.923,-1.359 1.14,-2.281c-1.144,0.004 -1.356,-0.922 -2.279,-1.141c0.006,1.145 -0.922,1.359 -1.138,2.28Z" style="fill:#e300a7;"/><path d="M154.387,282.786c1.18,-5.544 4.522,3.258 5.7,-2.285c-3.489,-0.184 -5.617,-1.393 -6.839,-2.278c1.455,2.853 -0.581,3.571 1.139,4.563Z" style="fill:#e300a7;"/><path d="M63.191,283.923c0.311,-1.553 -0.705,-4.451 -1.139,-2.28c-0.31,1.553 0.706,4.451 1.139,2.28Z" style="fill:#e300a7;"/><rect x="274.084" y="289.624" width="2.279" height="2.281" style="fill:#e300a7;"/><path d="M98.529,383.102c0,0.761 0,1.518 0,2.281c0.761,0 1.521,0 2.28,0c-0.128,-1.394 -0.34,-2.701 -2.28,-2.281Z" style="fill:#e300a7;"/><path d="M313.982,348.9c0.775,-2.832 3.472,1.683 4.56,2.28c-1.031,3.086 -2.548,-2.606 -4.56,-2.28Z" style="fill:#e300a7;"/><path d="M56.35,434.397c-3.741,-2.017 1.331,-4.618 2.28,-5.7c2.552,0.831 -2.517,3.435 -2.28,5.7Z" style="fill:#e300a7;"/><path d="M264.963,397.916c3.305,0.643 -1.746,1.781 -1.138,3.423c-3.779,-1.112 1.271,-2.253 1.138,-3.423Z" style="fill:#e300a7;"/><path d="M260.403,401.339c-1.95,8.669 -18.569,16.373 -20.519,31.92c1.651,-0.665 12.681,-1.727 19.379,-1.141c-9.185,-12.12 4.089,-28.371 21.658,-27.359c-2.304,2.342 0.466,2.275 2.28,3.417c-3.611,12.345 4.841,20.462 11.399,26.222c-2.243,0.184 -6.528,2.83 -9.117,2.281c-0.606,-0.125 -2.41,-2.274 -2.282,-2.281c-1.47,0.084 -3.391,4.643 -3.421,0c-3.766,1.712 2.375,2.788 1.141,5.698c-3.688,-0.978 -10.496,3.353 -14.818,1.144c0.507,1.015 1.002,2.035 2.28,2.276c-2.793,1.766 -7.419,1.703 -11.4,2.281c2.226,4.235 5.901,7.023 11.4,7.98c0.419,3.461 -3.714,2.366 -5.7,3.419c2.279,3.715 9.523,3.903 14.819,5.703c0.255,0.084 -0.253,2.164 0,2.276c1.252,0.559 3.336,-0.606 4.561,0c0.25,0.127 2.516,4.887 2.279,0c3.452,4.999 11.779,-0.439 11.4,6.842c1.066,-0.84 1.728,-2.075 2.278,-3.423c2.645,0.317 2.619,3.05 1.142,4.56c6.257,-4.302 11.79,-0.596 18.239,-2.276c4.251,0.31 1.566,7.552 7.979,5.7c0.07,3.852 -2.059,4.862 1.139,6.837c-2.035,2.326 -4.207,0.322 -2.279,4.562c-1.324,0.955 -3.057,1.503 -5.699,1.138c1.119,4.656 -0.127,4.61 0,10.258c-4.495,-1.456 -2.96,3.127 -4.56,4.563c-1.11,-0.031 -0.887,-1.396 -1.141,-2.279c-3.996,1.857 0.51,7.988 -3.419,11.397c3.259,-6.762 3.992,11.985 1.141,14.821c-3,-2.782 -7.441,2.952 -6.844,-3.422c-3.446,1.728 0.947,5.009 0,7.985c-7.055,-1.7 -3.476,11.888 -10.256,6.835c0.183,1.325 -0.253,2.028 -1.142,2.28c1.038,2.001 3.996,2.081 5.699,3.423c2.883,6.123 -0.705,15.087 0,2.276c-1.575,0.557 -2.766,10.28 1.142,9.121c-1.345,4.354 -3.846,7.55 -10.26,6.842c1.566,3.603 0.25,3.812 0,7.98c-1.062,-0.836 -1.726,-2.075 -2.279,-3.422c-6.654,6.89 -9.471,-4.294 -17.1,-3.424c-0.306,-14.56 -5.638,-17.108 -6.839,-30.777c-3.059,-3.331 -4.701,-6.176 -6.838,-12.536c-1.778,-5.282 -3.317,-6.948 -3.421,-11.399c-0.062,-2.578 -3.215,-5.552 -3.42,-6.842c-0.042,-0.267 4.54,-5.186 -1.141,-5.702c0.352,-1.545 2.852,-0.942 4.56,-1.139c-4.605,-3.452 -3.271,-12.32 -5.7,-20.519c-0.155,-0.527 -4.31,-6.503 -4.559,-9.12c-0.149,-1.58 1.103,-4.77 1.139,-4.56c-0.163,-0.942 -3.418,-3.961 -3.42,-4.559c-0.015,-4.936 3.642,-9.043 3.42,-13.682c-2.083,-1.713 -3.492,-4.11 -3.42,-7.979c-0.689,-0.513 -1.408,2.072 -1.138,2.284c-10.576,-8.204 14.881,-33.336 21.658,-36.48Zm50.16,117.416c-1.643,0.606 -2.783,-4.442 -3.422,-1.141c1.167,-0.134 2.307,4.917 3.422,1.141Z" style="fill:#e300a7;"/><path d="M56.35,434.397c-3.741,-2.017 1.331,-4.618 2.28,-5.7c2.552,0.831 -2.517,3.435 -2.28,5.7Z" style="fill:#e300a7;"/><path d="M307.142,517.614c0.638,-3.301 1.779,1.747 3.422,1.141c-1.116,3.776 -2.256,-1.275 -3.422,-1.141Z" style="fill:#e300a7;"/><path d="M177.188,601.973c-0.369,4.133 5.014,-0.146 9.118,2.277c-7.04,4.844 -11.756,4.626 -15.961,13.681c-5.974,-2.389 -11.333,-5.384 -13.675,-11.402c6.017,-3.562 14.05,-4.228 20.518,-4.556Z" style="fill:#e300a7;"/><path d="M95.618,369.875c-2.279,-15.717 -3.8,-32.95 -5.327,-54.499c2.525,-9.613 -10.526,-25.947 -1.722,-27.386c5.724,25.083 6.036,53.241 7.049,81.885Z" style="fill:#e300a7;"/><path d="M39.252,297.604c-0.191,-2.471 4.044,-0.52 5.699,-1.14c0.193,2.471 -4.041,0.516 -5.699,1.14Z" style="fill:#e300a7;"/><path d="M50.653,302.164c-2.505,3.482 -7.303,-1.317 0,0Z" style="fill:#e300a7;"/><path d="M44.951,296.464c-1.655,0.62 -5.89,-1.331 -5.699,1.14c1.658,-0.624 5.892,1.331 5.699,-1.14Z" style="fill:#e300a7;"/><path d="M50.653,302.164c-7.303,-1.317 -2.505,3.482 0,0Z" style="fill:#e300a7;"/><path d="M89.41,402.48c-1.798,-0.103 -0.893,-2.909 -3.421,-2.281c-0.997,2.35 2.957,5.118 3.421,2.281Zm199.492,-60.418c0.692,-4.493 -2.55,-5.048 -5.7,-5.7c-0.536,-3.579 3.069,-3.012 3.421,-5.702c-2.455,-2.468 -2.732,3.054 -7.98,1.142c-1,-3.661 2.958,-2.365 3.421,-4.56c0.815,-3.098 -5.375,0.817 -4.561,-2.28c4.586,-4.537 -0.465,-6.124 0,-12.542c4.486,-1.825 0.397,4.924 3.419,4.562c1.091,-0.232 1.551,-3.013 1.142,-4.562c-0.607,-2.279 -3.201,-1.553 -3.421,-2.279c-0.212,-0.699 1.748,-2.708 1.138,-4.557c-0.379,-1.165 -3.225,-3.744 -3.418,-6.841c-0.277,-4.507 3.561,-9.445 2.28,-14.82c3.829,-1.17 1.775,3.543 2.278,5.701c3.338,1.517 5.603,-0.03 7.98,-2.281c-1.799,-1.438 -4.077,2.585 -6.838,0c-2.635,-7.527 3.711,-4.302 1.572,-11.275c0.691,-0.109 1.376,-0.22 2.09,-0.335c2.255,1.91 -2.771,5.71 -0.241,8.19c4.521,-1.294 5.443,-5.212 5.953,-9.135c0.371,-0.063 0.725,-0.124 1.102,-0.186c-0.024,-1.691 -0.111,-3.452 -0.273,-5.267c0.021,-0.076 0.034,-0.157 0.055,-0.231c1.066,0.838 1.729,2.071 2.279,3.419c1.757,-1.949 -0.393,-4.148 1.142,-7.979l-4.07,0c-4.176,-26.618 -24.872,-61.442 -92.402,-63.625c-9.674,2.405 -30.05,3.265 -35.188,-0.497c-1.667,-1.381 -2.569,-0.341 -3.408,0.928c0.969,0.682 1.925,1.393 2.849,2.164c0,0 -113.968,13.613 -116.738,63.465c-0.86,15.498 14.984,27.48 18.425,115.165c0.323,8.229 7.825,9.197 8.192,17.694c0.765,-0.662 8.626,-4.917 9.169,-6.477c4.092,-1.45 12.685,3.323 13.681,-5.699c3.486,3.993 2.896,-0.173 5.698,-2.277c0.243,-5.944 -9.454,-1.947 -11.401,-5.702c2.374,-4.413 -1.697,-1.863 -1.138,-6.838c-1.917,-0.835 -6.543,-4.738 -7.979,-2.281c-3.714,-2.904 8.671,-5.453 9.118,-1.14c2.577,-0.638 -1.379,-1.779 1.139,-3.423c9.383,-0.326 20.637,-3.743 31.921,-1.139c3.586,0.829 7.71,4.254 11.399,5.702c4.25,1.667 9.212,2.285 11.399,6.839c-0.835,2.029 -2.072,0.161 -3.42,0c-0.253,3.401 4.21,3.877 1.141,6.838c-1.294,-0.216 -0.634,-1.14 0,-1.137c-0.841,-2.563 -4.346,1.6 -4.558,3.417c-3.287,-2.081 -3.567,-1.85 -7.981,-1.136c-1.237,2.917 3.463,5.431 0,6.836c5.314,6.086 9.011,13.788 13.681,20.521c-4.205,0.19 -0.012,2.952 0,7.98l-4.564,0c2.054,3.267 3.008,7.63 5.701,10.256c-13.578,15.195 -41.265,14.615 -50.155,-4.558c2.66,-3.813 2.459,-5.306 3.418,-9.123c0.038,-1.295 2.889,5.198 0,5.701c1.038,3.097 3.995,-1.164 5.699,-1.138c0.051,-1.95 -0.847,-2.951 -2.279,-3.422c0.403,-1.593 2.008,-0.097 2.279,1.141c3.315,-0.987 1.283,-1.708 1.142,-4.559c-3.879,-0.077 -7.955,-0.354 -9.12,2.276c-1.625,-1.389 -2.591,-4.346 -1.139,-5.697c-2.285,-1.404 -19.133,2.347 -27.677,12.789c0.258,9.746 3.331,7.735 3.268,17.476c5.729,0.217 18.124,3.179 23.268,5.074c-2.576,3.277 -7.873,-0.392 -9.121,5.701c-3.091,-1.032 0.959,-4.201 2.281,-4.561c0.515,-3.176 -6.212,0.89 -5.7,-2.281c-0.367,0.31 -0.648,0.702 -0.893,1.133c-0.107,11.683 -4.981,-0.795 -4.981,-0.795c0,0 -5.707,5.54 -6.884,-0.245c-1.144,0.585 -2.296,0.941 -4.342,-0.093c0.506,-1.657 1.002,0.117 2.281,0c-0.394,-4.026 -2.994,-2.946 -5.701,-2.281c1.898,-2.267 -0.103,-1.446 0,-4.555c-3.316,1.243 -8.053,1.065 -10.259,3.415c-2.106,-2.177 4.765,-5.054 6.838,-6.839c-1.291,-2.309 -5.051,2.461 -9.119,1.142c0.032,-1.112 1.396,-0.882 2.281,-1.142c-3.309,-1.418 0.39,-7.383 -3.42,-10.257c6.056,-0.133 0.915,-0.214 1.139,-3.421c3.274,-2.165 7.736,-4.889 5.7,-9.118c5.771,-1.312 14.345,-9.664 18.19,-12.903c-0.753,-8.676 -7.547,-12.065 -8.192,-17.694c-5.723,-49.937 -0.782,-56.467 -18.039,-115.874c-0.127,0.238 -0.259,0.469 -0.386,0.709c-4.853,4.462 -2.043,6.489 -0.706,8.981c-0.501,0.451 -1.006,1.927 -1.714,3.088c-1.067,0.259 -2.029,0.676 -2.9,1.218c-0.331,-0.196 -0.685,-0.476 -1.072,-0.901c-0.222,0.761 -0.452,1.513 -0.682,2.264c-6.385,6.108 -7.133,20.387 -12.443,28.587c0.93,1.157 1.703,1.81 2.366,2.117c-1.193,4.371 -2.213,8.914 -2.92,13.773c3.263,0.568 2.876,-12.301 9.12,-12.542c-0.095,3.552 -0.613,6.515 -1.327,9.084c-0.464,1.266 -0.901,2.528 -1.264,3.764c-1.582,4.011 -3.447,6.976 -4.249,9.951c-1.933,0.558 3.162,3.571 2.279,6.839c-2.008,2.863 -1.882,0.803 -4.559,2.28c0.352,4.518 3.958,-1.272 3.419,3.42c-4.713,6.504 -2.257,15.188 -3.419,22.798c-1.469,9.637 -4.411,19.02 -5.699,28.5c-3.648,26.829 -5.18,62.847 0,92.338c3.411,19.424 12.85,35.033 14.819,53.579c0.726,6.848 -1.537,13.841 0,20.517c-3.038,2.465 -3.717,-4.721 -7.979,-4.559c-0.634,4.865 -5.665,11.9 -3.422,19.377c5.876,4.036 12.124,1.735 15.959,-2.277c11.191,42.771 29.617,78.297 62.698,99.177c-0.168,2.541 -2.872,-1.48 -5.699,0c7.178,33.994 9.231,78.799 -9.195,101.342c-0.348,0.425 161.691,0.39 161.542,0.002c-2.425,-6.285 -8.422,-5.318 -16.691,-11.29c-7.186,-5.189 -14.124,-13.193 -19.381,-18.237c-3.947,-3.791 -14.619,-1.84 -20.519,-3.421c0.53,-2.432 -1.628,-2.172 -3.419,-2.28c0.361,-2.642 -0.185,-4.376 -1.14,-5.701c-5.935,-7.743 -15.048,-12.309 -20.522,-20.518c-24.586,-9.613 -46.708,-21.687 -63.835,-38.759c7.98,7.979 21.094,10.826 28.499,19.379c8.5,-1.471 15.196,7.541 25.078,7.981c11.821,0.525 19.39,-6.918 28.498,-11.399c2.906,-1.655 3.06,-6.059 5.701,-7.981c3.88,0.783 4.248,3.702 5.7,-1.136c8.739,1.699 21.387,-3.092 28.5,-9.124c1.163,-0.986 0.78,-2.41 2.279,-3.417c0.506,-0.343 1.448,-0.712 4.562,1.138c2.471,0.194 0.513,-4.042 1.139,-5.7c4.227,0.81 4.89,-1.946 9.119,-1.14c4.964,-2.376 -0.354,-9.321 6.839,-7.979c1.287,-1.663 -7.34,-5.477 0,-7.979c-2.382,-2.487 -3.252,0.568 -6.839,0c-8.077,-8.258 -23.809,-12.24 -38.757,-13.679c-6.788,-0.654 -13.232,1.135 -19.382,0c-7.868,-1.455 -17.333,-6.245 -21.658,-11.397c-2.808,-3.351 -6.248,-12.636 -6.839,-15.966c-4.635,2.817 -3.51,-2.119 -6.84,-3.42c-9.609,2.544 -21.125,-0.209 -29.64,-2.276c0.405,-4.533 5.826,-4.054 9.12,-5.7c10.081,-6.223 18.739,-12.531 30.777,-18.242c3.266,-1.547 7.669,-4.074 10.258,-4.558c6.782,-1.272 13.02,2.457 20.522,2.28c9.205,-0.217 20.225,-4.908 30.778,-4.559c4.988,0.163 8.178,2.109 12.541,1.14c2.956,-4.072 -5.361,-4.748 -5.701,-9.122c-13.805,-2.715 -24.201,-12.318 -38.757,-7.979c-0.802,-4.139 -3.675,-6.203 -5.701,-9.121c0.892,-5.15 4.049,-9.537 0,-13.681c-10.608,0.554 -23.51,8.719 -30.779,2.281c1.478,-3.461 2.149,-7.73 3.422,-11.398c11.421,-4.107 18.778,4.437 27.358,6.838c4.137,-0.13 3.678,-4.728 5.701,-6.838c6.692,-7.003 16.594,-9.116 20.518,-17.097c0.596,-1.213 -0.911,-4.772 0,-5.702c0.209,-0.213 2.204,0.247 2.279,0c4.088,-13.19 -5.439,-24.009 -7.977,-36.477c-1.005,-4.923 1.389,-9.87 -2.28,-14.82c1.021,-2.4 1.771,-5.07 3.418,-6.842c0.387,-2.269 -2.294,-4.574 -2.279,-6.836c0.017,-2.174 2.936,-2.635 3.42,-4.564c0.025,-0.097 -1.391,-8.41 -1.14,-10.258c0.044,-0.334 2.277,-2.207 2.281,-2.28c0.208,-5.913 -2.352,-11.3 -2.281,-17.1c0.073,-5.612 4.226,-9.508 0,-13.68c5.083,1.282 -0.695,-8.295 5.701,-5.696c-2.991,-5.604 4.47,-6.665 4.558,-12.54c6.804,-0.041 6.656,-7.029 13.682,-6.844c1.755,-0.601 0.072,-1.188 -1.142,-1.139c3.986,-0.561 9.588,-1.394 13.682,-2.28c-1.329,-5.104 6.072,0.553 6.84,-5.699c4.524,3.54 2.946,0.278 6.84,-1.139c4.566,-1.667 13.02,1.337 14.82,-3.421c3.709,2.813 5.922,0.088 10.256,2.276c2.809,-1.346 -2.333,-4.302 1.142,-5.697c2.977,5.026 10.519,-3.374 17.099,-1.139c-3.561,-1.765 -4.087,-6.56 -10.264,-5.7Zm-190.373,111.715c-1.107,0.031 -0.884,1.394 -1.138,2.28c-2.511,-0.91 -4.551,-2.292 -4.562,-5.696c2.453,-1.473 4.034,1.222 3.423,-4.565c2.869,0.584 2.282,6.324 4.557,10.261c-1.938,0.417 -2.15,-0.889 -2.28,-2.28Zm37.618,-1.138c-2.382,3.452 -6.538,2.505 -7.978,7.98c-4.17,-0.249 -4.374,-1.571 -7.98,0c-0.605,-0.919 -1.188,-1.855 -1.142,-3.423c-3.911,0.189 -7.365,4.606 -10.256,2.28c0.181,-1.336 2.077,-0.964 3.418,-1.139c0.551,-2.233 -5.226,-3.673 -5.7,-1.141c-1.265,-0.496 -2.846,-8.102 -3.421,-2.277c-3.311,-1.591 0.323,-5.628 1.141,-6.841c2.308,1.972 9.732,2.153 7.979,-3.421c8.43,5.1 16.06,-1.481 22.798,0c-1.616,-0.358 0.971,6.609 2.279,1.139c2.661,1.529 -3.527,6.003 -3.42,5.698c-0.251,0.704 2.038,1.499 2.282,1.145Zm-39.895,-51.3c1.756,-3.44 -5.902,-2.995 -5.703,-1.14c2.372,2.499 3.685,-1.001 5.703,1.14Zm-30.781,11.402c0.621,0.666 1.736,1.078 2.814,1.112c-0.075,-1.042 -0.149,-2.063 -0.225,-3.075c-1.209,-0.271 -2.139,-0.08 -2.589,1.963Zm17.1,-7.983c-0.454,-0.839 -1.002,-1.358 -1.598,-1.662c0.036,0.959 0.072,1.915 0.106,2.875c1.031,-0.113 1.841,-0.401 1.492,-1.213Zm-20.519,30.778c4.901,2.946 -0.435,5.407 7.663,6.787c-0.002,-0.094 -0.005,-0.183 -0.007,-0.277c-1.748,-1.805 -1.342,-1.908 -0.043,-1.384c-0.102,-3.171 -0.223,-6.268 -0.36,-9.29c-0.636,0.889 -0.937,2.119 -0.414,4.164c-3.09,-3.205 -2.836,-0.895 -6.839,0Zm-1.141,-15.958c2.659,-0.382 4.912,-1.168 5.7,-3.419c-3.264,-0.225 -6.222,-0.144 -5.7,3.419Z" style="fill:#e300a7;"/></g><g><path d="M38.011,159.036l0,-105.145l16.392,0c17.278,0 24.957,6.498 24.514,20.527l0,22.741c0.148,17.131 -8.566,22.447 -25.253,21.561l0,40.315l-15.653,0l0,0.001Zm15.654,-52.868c4.579,0 9.157,0.148 9.6,-4.726l0,-24.957c0,-9.746 -3.397,-10.484 -9.6,-10.042l0,39.725Z" style="fill:#e300a7;fill-rule:nonzero;"/><path d="M84.014,69.544c0,-13.733 10.781,-17.721 20.379,-17.721c9.747,0 20.527,3.988 20.527,17.721l0,73.838c0,13.734 -10.78,17.721 -20.527,17.721c-9.599,0 -20.379,-3.987 -20.379,-17.721l0,-73.838Zm15.653,72.509c0,5.316 1.625,6.498 4.874,6.498c3.101,0 4.725,-1.182 4.725,-6.498l0,-71.18c0,-5.316 -1.624,-6.498 -4.725,-6.498c-3.249,0 -4.874,1.182 -4.874,6.498l0,71.18Z" style="fill:#e300a7;fill-rule:nonzero;"/><path d="M130.074,159.036l0,-105.145l20.674,0c12.553,0 20.231,4.43 20.231,18.016l0,14.915c0,7.827 -2.215,14.325 -15.506,15.801l0,0.295c6.941,0.886 14.325,3.249 14.915,12.847c0.886,14.03 0,28.797 2.51,43.269l-15.653,0c-2.658,-12.109 -1.92,-27.911 -1.92,-40.167c0,-6.351 -2.363,-8.861 -9.599,-8.566l0,48.733l-15.652,0l0,0.002Zm15.654,-61.581l2.954,0c5.464,0 6.645,-2.954 6.645,-6.793l0,-19.05c0,-3.988 -2.363,-5.169 -5.907,-5.169l-3.692,0l0,31.012Z" style="fill:#e300a7;fill-rule:nonzero;"/><path d="M217.897,53.891l0,13.733l-13.586,0l0,91.411l-15.653,0l0,-91.41l-13.734,0l0,-13.734l42.973,0Z" style="fill:#e300a7;fill-rule:nonzero;"/><path d="M237.582,142.053c0,5.316 1.624,6.498 4.873,6.498c3.101,0 4.726,-1.182 4.726,-6.498l0,-11.076c0,-14.768 -25.253,-29.24 -25.253,-46.37l0,-15.063c0,-13.733 10.781,-17.721 20.379,-17.721c9.746,0 20.527,3.988 20.527,17.721l0,22.152l-15.653,0l0,-20.823c0,-5.316 -1.625,-6.498 -4.726,-6.498c-3.249,0 -4.873,1.182 -4.873,6.498l0,12.996c0,7.531 25.252,30.274 25.252,40.906l0,18.607c0,13.734 -10.781,17.721 -20.527,17.721c-9.599,0 -20.379,-3.987 -20.379,-17.721l0,-24.219l15.654,0l0,22.89Z" style="fill:#e300a7;fill-rule:nonzero;"/><path d="M293.846,69.544c0,-13.733 10.78,-17.721 20.379,-17.721c9.746,0 20.528,3.988 20.528,17.721l0,73.838c0,13.734 -10.781,17.721 -20.528,17.721c-9.599,0 -20.379,-3.987 -20.379,-17.721l0,-73.838Zm15.654,72.509c0,5.316 1.624,6.498 4.873,6.498c3.1,0 4.726,-1.182 4.726,-6.498l0,-71.18c0,-5.316 -1.625,-6.498 -4.726,-6.498c-3.249,0 -4.873,1.182 -4.873,6.498l0,71.18Z" style="fill:#e300a7;fill-rule:nonzero;"/><path d="M340.098,159.036l0,-105.145l35.147,0l0,13.733l-19.494,0l0,27.025l18.756,0l0,13.734l-18.756,0l0,50.653l-15.653,0Z" style="fill:#e300a7;fill-rule:nonzero;"/><path d="M428.705,92.286l0,-21.413c0,-5.316 -1.624,-6.498 -4.726,-6.498c-3.249,0 -4.872,1.182 -4.872,6.498l0,71.18c0,5.316 1.623,6.498 4.872,6.498c3.101,0 4.726,-1.182 4.726,-6.498l0,-22.742l15.653,0l0,24.071c0,13.734 -10.78,17.721 -20.527,17.721c-9.599,0 -20.379,-3.987 -20.379,-17.721l0,-73.838c0,-13.733 10.78,-17.721 20.379,-17.721c9.746,0 20.527,3.988 20.527,17.721l0,22.742l-15.653,0Z" style="fill:#e300a7;fill-rule:nonzero;"/><path d="M459.23,53.891l23.48,0l11.961,105.144l-15.8,0l-2.953,-28.502l-11.077,0l-3.395,28.502l-14.177,0l11.961,-105.144Zm15.211,62.909l-3.249,-43.712l-1.034,0l-3.84,43.712l8.123,0Z" style="fill:#e300a7;fill-rule:nonzero;"/><path d="M498.497,159.036l0,-105.145l15.653,0l0,91.411l19.937,0l0,13.733l-35.59,0l0,0.001Z" style="fill:#e300a7;fill-rule:nonzero;"/><path d="M537.839,159.036l0,-105.145l15.654,0l0,91.411l19.936,0l0,13.733l-35.59,0l0,0.001Z" style="fill:#e300a7;fill-rule:nonzero;"/></g><g><path d="M394.29,618.317c-0.037,0.012 -0.146,0.025 -0.196,0.025c-0.332,-0.786 -1.361,-2.184 -1.116,-2.749c0.036,-0.061 0.307,-0.11 0.381,-0.012c0.454,0.7 0.785,2.146 0.931,2.736Zm1.203,-0.516c-0.282,0.05 -0.663,-0.907 -1.154,-1.767l-0.207,-0.49c-0.174,-0.196 0.171,-0.76 0.379,-0.503c0.613,0.749 0.762,1.803 0.982,2.76Z" style="fill:#e300a7;fill-rule:nonzero;"/><path d="M405.54,617.188c0,0 -0.884,-0.159 -1.092,1.129l-0.711,4.245c-0.196,1.153 0.871,1.117 0.871,1.117l0,0.159l-2.711,0l0,0.195l-1.632,0l-0.822,-2.551c-0.159,0.489 -0.454,1.79 -0.454,1.79c-0.123,0.454 0.454,0.417 0.454,0.417l0,0.16l-0.822,0c0,0 0.013,0.109 0,0.196l-1.631,0c0.024,-0.087 0,-0.196 0,-0.196l-0.563,0l0,-0.16c0,0 0.563,0.061 0.563,-0.773l0,-5.913l1.14,0l0,5.558l1.006,-3.226l0.736,0l0.92,3.226l0,-3.938l1.853,4.282c0.232,-1.484 0.786,-4.649 0.786,-4.649c0.195,-1.14 -1.069,-1.068 -1.069,-1.068c0,0 0.025,-0.111 0,-0.159l3.179,0l0,0.159l-0.001,0Zm-3.594,4.981l0,1.459c0,0 0.319,-0.171 0.441,-0.282l-0.441,-1.177Z" style="fill:#e300a7;fill-rule:nonzero;"/><path d="M409.967,623.261l0,0.772l-1.054,0l0,-2.699c0,-1.214 -0.627,-1.311 -0.944,-1.276c-0.565,0.061 -0.871,0.515 -0.871,1.276l0,2.05c0,0.466 0.772,0.502 0.772,0.502l0,0.209c0,0 -1.166,0.196 -1.791,-0.099c0,-7.199 0,-7.262 0,-7.262c0,-0.784 -0.908,-0.601 -0.908,-0.601l0,-0.135c0,0 1.14,-0.208 1.743,-0.307l0,1.473l0.196,0l0,2.33c1.325,-0.944 3.092,0.209 3.092,1.694c0,0.49 -0.05,1.558 0,2.073l-0.235,0Z" style="fill:#e300a7;fill-rule:nonzero;"/><path d="M414.936,621.396l0,0.418l-3.337,0c-0.159,0.526 0.061,1.054 0.503,1.35c0.907,0.612 1.62,-0.135 1.62,-0.135l1.043,0c0.049,0.011 0.184,-0.185 0.184,-0.185l0.381,0c0,0 -0.109,0.135 -0.087,0.185c-1.325,1.962 -4.611,1.224 -4.611,-1.326c0,-1.534 0.882,-2.393 2.109,-2.393c2.222,0 2.502,1.301 2.502,2.085l-0.307,0l0,0.001Zm-3.361,-0.479l2.317,0c-0.121,-1.275 -2.047,-1.324 -2.317,0Z" style="fill:#e300a7;fill-rule:nonzero;"/><path d="M417.574,619.813l0,1.104c0,1.067 -0.209,3.116 1.704,1.913l0,0.97c-0.418,0.049 -2.772,1.361 -2.772,-0.958l0,-3.066c-0.024,0.036 -0.993,0 -0.993,0l0,-0.222c0,0 0.281,-0.036 0.343,-0.036c1.325,-0.146 1.411,-1.84 1.411,-1.84l0.308,0l0,1.288l1.717,0l0,0.846l-1.718,0l0,0.001Z" style="fill:#e300a7;fill-rule:nonzero;"/><path d="M424.687,623.261l0,0.772l-1.055,0l0,-2.699c0,-1.214 -0.626,-1.311 -0.944,-1.276c-0.564,0.061 -0.871,0.515 -0.871,1.276l0,2.05c0,0.466 0.773,0.502 0.773,0.502l0,0.209c0,0 -1.167,0.196 -1.791,-0.099c0,-7.199 0,-7.262 0,-7.262c0,-0.784 -0.908,-0.601 -0.908,-0.601l0,-0.135c0,0 1.14,-0.208 1.743,-0.307l0,1.473l0.196,0l0,2.33c1.325,-0.944 3.091,0.209 3.091,1.694c0,0.49 -0.049,1.558 0,2.073l-0.234,0Z" style="fill:#e300a7;fill-rule:nonzero;"/><path d="M429.656,621.396l0,0.418l-3.337,0c-0.16,0.526 0.06,1.054 0.502,1.35c0.908,0.612 1.62,-0.135 1.62,-0.135l1.043,0c0.05,0.011 0.185,-0.185 0.185,-0.185l0.381,0c0,0 -0.11,0.135 -0.087,0.185c-1.325,1.962 -4.612,1.224 -4.612,-1.326c0,-1.534 0.883,-2.393 2.11,-2.393c2.221,0 2.502,1.301 2.502,2.085l-0.307,0l0,0.001Zm-3.361,-0.479l2.317,0c-0.121,-1.275 -2.048,-1.324 -2.317,0Z" style="fill:#e300a7;fill-rule:nonzero;"/><path d="M433.704,620.734c0,0 0.245,-0.467 -0.012,-0.688c-0.332,-0.268 -1.571,-0.711 -1.571,1.485l0,1.681c0,0.798 0.81,0.688 0.81,0.688l0,0.134l-2.675,0l0,-0.134c0,0 0.823,0.146 0.823,-0.7l0,-2.908c0,-0.417 -0.787,-0.478 -0.787,-0.478l0,-0.146l0.774,-0.111l0,-0.454l1.054,0l0,0.454c0.883,-1.079 3.166,-0.331 2.847,1.178c-0.429,-0.001 -1.263,-0.001 -1.263,-0.001Z" style="fill:#e300a7;fill-rule:nonzero;"/><path d="M441.935,624.021l-1.877,-0.048l0,-3.865l-1.141,0c-0.404,0 -0.33,-0.945 -0.33,-0.945l2.502,0l0,4.134c0,0.541 0.846,0.626 0.846,0.626l0,0.098Zm-2.208,-6.269c0,0 -0.11,-1.326 0.76,-1.326c0.797,0 0.626,1.326 0.626,1.326l-1.386,0Z" style="fill:#e300a7;fill-rule:nonzero;"/><path d="M443.897,619.813l0,1.104c0,1.067 -0.209,3.116 1.706,1.913l0,0.97c-0.418,0.049 -2.773,1.361 -2.773,-0.958l0,-3.066c-0.025,0.036 -0.994,0 -0.994,0l0,-0.222c0,0 0.282,-0.036 0.344,-0.036c1.325,-0.146 1.411,-1.84 1.411,-1.84l0.307,0l0,1.288l1.717,0l0,0.846l-1.718,0l0,0.001Z" style="fill:#e300a7;fill-rule:nonzero;"/><path d="M451.036,623.911l0,0.135l-0.981,0l0,-6.785c0,-0.564 -0.821,-1.128 -0.821,-1.128l0,-0.146l0.821,0l0,-0.234l0.882,0l0,4.16c0,0 0.614,-0.38 1.069,-0.38l0.808,0c2.221,0 2.502,2.92 0.835,4.231c-0.686,0.55 -2.613,0.147 -2.613,0.147Zm0.896,-4.011c-1.522,0.146 -1.534,4.317 0.613,3.778c1.828,-0.442 1.62,-3.988 -0.613,-3.778Z" style="fill:#e300a7;fill-rule:nonzero;"/><path d="M458.985,621.396l0,0.418l-3.336,0c-0.16,0.526 0.061,1.054 0.502,1.35c0.909,0.612 1.62,-0.135 1.62,-0.135l1.044,0c0.049,0.011 0.183,-0.185 0.183,-0.185l0.381,0c0,0 -0.109,0.135 -0.085,0.185c-1.326,1.962 -4.613,1.224 -4.613,-1.326c0,-1.534 0.882,-2.393 2.11,-2.393c2.221,0 2.503,1.301 2.503,2.085l-0.309,0l0,0.001Zm-3.361,-0.479l2.318,0c-0.121,-1.275 -2.048,-1.324 -2.318,0Z" style="fill:#e300a7;fill-rule:nonzero;"/><path d="M464.652,619.813l0,1.104c0,1.067 -0.207,3.116 1.706,1.913l0,0.97c-0.418,0.049 -2.772,1.361 -2.772,-0.958l0,-3.066c-0.024,0.036 -0.993,0 -0.993,0l0,-0.222c0,0 0.28,-0.036 0.342,-0.036c1.326,-0.146 1.412,-1.84 1.412,-1.84l0.306,0l0,1.288l1.718,0l0,0.846l-1.719,0l0,0.001Z" style="fill:#e300a7;fill-rule:nonzero;"/><path d="M471.768,623.261l0,0.772l-1.056,0l0,-2.699c0,-1.214 -0.625,-1.311 -0.943,-1.276c-0.564,0.061 -0.871,0.515 -0.871,1.276l0,2.05c0,0.466 0.772,0.502 0.772,0.502l0,0.209c0,0 -1.166,0.196 -1.79,-0.099c0,-7.199 0,-7.262 0,-7.262c0,-0.784 -0.908,-0.601 -0.908,-0.601l0,-0.135c0,0 1.14,-0.208 1.743,-0.307l0,1.473l0.196,0l0,2.33c1.324,-0.944 3.091,0.209 3.091,1.694c0,0.49 -0.049,1.558 0,2.073l-0.234,0Z" style="fill:#e300a7;fill-rule:nonzero;"/><path d="M475.889,620.734c0,0 0.245,-0.467 -0.013,-0.688c-0.331,-0.268 -1.571,-0.711 -1.571,1.485l0,1.681c0,0.798 0.811,0.688 0.811,0.688l0,0.134l-2.675,0l0,-0.134c0,0 0.821,0.146 0.821,-0.7l0,-2.908c0,-0.417 -0.784,-0.478 -0.784,-0.478l0,-0.146l0.772,-0.111l0,-0.454l1.054,0l0,0.454c0.884,-1.079 3.166,-0.331 2.847,1.178c-0.427,-0.001 -1.262,-0.001 -1.262,-0.001Z" style="fill:#e300a7;fill-rule:nonzero;"/><path d="M480.244,618.978c2.98,-0.588 4.527,4.465 0.355,5.274c-2.809,0.542 -4.465,-4.463 -0.355,-5.274Zm0.11,0.725c-1.804,0.368 -1.804,3.889 0.147,3.754c1.963,-0.134 1.804,-4.147 -0.147,-3.754Z" style="fill:#e300a7;fill-rule:nonzero;"/><path d="M487.446,624.046l0,-0.638c0,0 -3.302,1.803 -3.302,-0.478l0,-2.92c0,-0.441 -0.723,-0.503 -0.835,-0.515l0,-0.184l0.835,0l0,-0.172l1.044,0l0,1.816c0,1.066 -0.368,3.299 2.258,1.815l0,-2.698c0,-0.625 -0.885,-0.577 -0.885,-0.577l0,-0.184l1.952,-0.098l0,4.833l-1.067,0Z" style="fill:#e300a7;fill-rule:nonzero;"/><path d="M494.168,620.317l0,-0.136c0,0 0.171,-0.331 -0.099,-0.43c-0.024,0 -0.074,-0.012 -0.111,0.013l0,2.687l-1.042,0l0,-0.332c-0.712,0.258 -1.546,0.282 -2.245,-0.025c-0.282,-0.123 -0.896,0.627 -0.405,1.018c0.368,0.283 1.092,0.037 1.656,0.037l0.995,0l0,-0.258l1.042,0c-0.061,1.557 0.859,1.963 -0.158,2.025c-0.161,0.258 -0.615,0.835 -1.657,0.835l-1.019,0c-0.527,0 -1.447,-0.454 -1.288,-1.289l1.006,0c0.135,0.686 2.098,1.031 2.061,-0.098c0,-0.185 -0.332,-0.319 -0.76,-0.319l-2.244,0c-0.859,-0.541 -0.651,-1.73 0.379,-2.233c-1.692,-1.57 1.386,-3.68 2.675,-2.417l0,-0.184c0,0 0.345,0.184 1.215,-0.013c0.845,-0.181 0.881,1.131 -0.001,1.119Zm-2.602,-0.859c-1.214,0.196 -1.031,2.82 0.332,2.54c1.202,-0.259 0.968,-2.749 -0.332,-2.54Z" style="fill:#e300a7;fill-rule:nonzero;"/><path d="M499.957,623.261l0,0.772l-1.054,0l0,-2.699c0,-1.214 -0.626,-1.311 -0.945,-1.276c-0.564,0.061 -0.871,0.515 -0.871,1.276l0,2.05c0,0.466 0.773,0.502 0.773,0.502l0,0.209c0,0 -1.166,0.196 -1.791,-0.099c0,-7.199 0,-7.262 0,-7.262c0,-0.784 -0.908,-0.601 -0.908,-0.601l0,-0.135c0,0 1.141,-0.208 1.743,-0.307l0,1.473l0.195,0l0,2.33c1.325,-0.944 3.092,0.209 3.092,1.694c0,0.49 -0.05,1.558 0,2.073l-0.234,0Z" style="fill:#e300a7;fill-rule:nonzero;"/><path d="M505.698,619.813l0,1.104c0,1.067 -0.209,3.116 1.705,1.913l0,0.97c-0.417,0.049 -2.772,1.361 -2.772,-0.958l0,-3.066c-0.025,0.036 -0.994,0 -0.994,0l0,-0.222c0,0 0.282,-0.036 0.344,-0.036c1.325,-0.146 1.412,-1.84 1.412,-1.84l0.306,0l0,1.288l1.717,0l0,0.846l-1.718,0l0,0.001Z" style="fill:#e300a7;fill-rule:nonzero;"/><path d="M512.812,623.261l0,0.772l-1.055,0l0,-2.699c0,-1.214 -0.625,-1.311 -0.944,-1.276c-0.564,0.061 -0.872,0.515 -0.872,1.276l0,2.05c0,0.466 0.773,0.502 0.773,0.502l0,0.209c0,0 -1.165,0.196 -1.79,-0.099c0,-7.199 0,-7.262 0,-7.262c0,-0.784 -0.908,-0.601 -0.908,-0.601l0,-0.135c0,0 1.141,-0.208 1.743,-0.307l0,1.473l0.195,0l0,2.33c1.325,-0.944 3.092,0.209 3.092,1.694c0,0.49 -0.05,1.558 0,2.073l-0.234,0Z" style="fill:#e300a7;fill-rule:nonzero;"/><path d="M517.78,621.396l0,0.418l-3.336,0c-0.161,0.526 0.061,1.054 0.503,1.35c0.908,0.612 1.619,-0.135 1.619,-0.135l1.043,0c0.05,0.011 0.185,-0.185 0.185,-0.185l0.381,0c0,0 -0.11,0.135 -0.087,0.185c-1.325,1.962 -4.613,1.224 -4.613,-1.326c0,-1.534 0.883,-2.393 2.112,-2.393c2.22,0 2.501,1.301 2.501,2.085l-0.308,0l0,0.001Zm-3.361,-0.479l2.318,0c-0.121,-1.275 -2.047,-1.324 -2.318,0Z" style="fill:#e300a7;fill-rule:nonzero;"/><path d="M521.718,624.021l-1.877,-0.048l0,-3.865l-1.14,0c-0.405,0 -0.331,-0.945 -0.331,-0.945l2.502,0l0,4.134c0,0.541 0.846,0.626 0.846,0.626l0,0.098Zm-2.208,-6.269c0,0 -0.11,-1.326 0.76,-1.326c0.798,0 0.626,1.326 0.626,1.326l-1.386,0Z" style="fill:#e300a7;fill-rule:nonzero;"/><path d="M525.091,620.734c0,0 0.246,-0.467 -0.012,-0.688c-0.331,-0.268 -1.572,-0.711 -1.572,1.485l0,1.681c0,0.798 0.812,0.688 0.812,0.688l0,0.134l-2.675,0l0,-0.134c0,0 0.821,0.146 0.821,-0.7l0,-2.908c0,-0.417 -0.785,-0.478 -0.785,-0.478l0,-0.146l0.773,-0.111l0,-0.454l1.053,0l0,0.454c0.884,-1.079 3.167,-0.331 2.848,1.178c-0.428,-0.001 -1.263,-0.001 -1.263,-0.001Z" style="fill:#e300a7;fill-rule:nonzero;"/><path d="M534.77,623.261l0,0.772l-1.055,0l0,-2.699c0,-1.214 -0.626,-1.311 -0.944,-1.276c-0.564,0.061 -0.871,0.515 -0.871,1.276l0,2.05c0,0.466 0.772,0.502 0.772,0.502l0,0.209c0,0 -1.165,0.196 -1.79,-0.099c0,-7.199 0,-7.262 0,-7.262c0,-0.784 -0.909,-0.601 -0.909,-0.601l0,-0.135c0,0 1.141,-0.208 1.743,-0.307l0,1.473l0.196,0l0,2.33c1.325,-0.944 3.092,0.209 3.092,1.694c0,0.49 -0.05,1.558 0,2.073l-0.234,0Z" style="fill:#e300a7;fill-rule:nonzero;"/><path d="M541.283,623.236c0,0 -1.03,0.846 -1.203,1.091l-1.031,0l0,-0.822l-0.135,0c-0.98,1.265 -4.587,0.418 -3.016,-1.447c0.564,-0.687 1.999,-0.687 3.005,-0.785l0,-1.068c0,-1.227 -1.864,-0.92 -1.668,0.246c-0.281,-0.024 -0.737,-0.135 -1.079,-0.173c0.146,-0.894 0.857,-1.177 1.507,-1.177l0.713,0c0.859,0 1.753,0.431 1.753,1.645l0,2.072c0,0.736 -0.318,0.908 1.142,0.221c0.001,0.074 0.012,0.197 0.012,0.197Zm-3.177,-1.435c-0.809,-0.086 -1.913,0.92 -0.785,1.583c0.785,0.454 2.037,-0.787 1.705,-1.546c-0.295,-0.037 -0.613,-0.013 -0.92,-0.037Z" style="fill:#e300a7;fill-rule:nonzero;"/><path d="M545.871,624.046l0,-0.638c0,0 -3.301,1.803 -3.301,-0.478l0,-2.92c0,-0.441 -0.724,-0.503 -0.834,-0.515l0,-0.184l0.834,0l0,-0.172l1.045,0l0,1.816c0,1.066 -0.369,3.299 2.256,1.815l0,-2.698c0,-0.625 -0.884,-0.577 -0.884,-0.577l0,-0.184l1.95,-0.098l0,4.833l-1.066,0Z" style="fill:#e300a7;fill-rule:nonzero;"/><path d="M553.649,624.046l-2.649,0l0,-0.135c0,0 0.809,0.073 0.809,-0.614l0,-2.404c0,-1.361 -2.234,-1.264 -2.234,0l0,3.153l-1.066,0l0,-3.153c0,-1.276 -0.773,-0.92 -0.773,-0.92l0,-0.222l0.773,-0.196l0,-0.403l1.066,0l0,0.441c2.343,-1.08 3.3,-0.05 3.3,1.299l0,2.404c0,0.687 0.774,0.636 0.774,0.636l0,0.114Z" style="fill:#e300a7;fill-rule:nonzero;"/><path d="M555.844,619.813l0,1.104c0,1.067 -0.209,3.116 1.706,1.913l0,0.97c-0.418,0.049 -2.773,1.361 -2.773,-0.958l0,-3.066c-0.024,0.036 -0.994,0 -0.994,0l0,-0.222c0,0 0.283,-0.036 0.345,-0.036c1.325,-0.146 1.41,-1.84 1.41,-1.84l0.307,0l0,1.288l1.719,0l0,0.846l-1.72,0l0,0.001Z" style="fill:#e300a7;fill-rule:nonzero;"/><path d="M561.513,624.021l-1.878,-0.048l0,-3.865l-1.141,0c-0.404,0 -0.331,-0.945 -0.331,-0.945l2.503,0l0,4.134c0,0.541 0.847,0.626 0.847,0.626l0,0.098Zm-2.21,-6.269c0,0 -0.109,-1.326 0.761,-1.326c0.798,0 0.626,1.326 0.626,1.326l-1.387,0Z" style="fill:#e300a7;fill-rule:nonzero;"/><path d="M567.325,624.046l-2.648,0l0,-0.135c0,0 0.809,0.073 0.809,-0.614l0,-2.404c0,-1.361 -2.234,-1.264 -2.234,0l0,3.153l-1.066,0l0,-3.153c0,-1.276 -0.774,-0.92 -0.774,-0.92l0,-0.222l0.774,-0.196l0,-0.403l1.066,0l0,0.441c2.344,-1.08 3.3,-0.05 3.3,1.299l0,2.404c0,0.687 0.773,0.636 0.773,0.636l0,0.114Z" style="fill:#e300a7;fill-rule:nonzero;"/><path d="M572.32,620.317l0,-0.136c0,0 0.171,-0.331 -0.1,-0.43c-0.023,0 -0.072,-0.012 -0.109,0.013l0,2.687l-1.044,0l0,-0.332c-0.71,0.258 -1.545,0.282 -2.243,-0.025c-0.283,-0.123 -0.897,0.627 -0.406,1.018c0.368,0.283 1.092,0.037 1.657,0.037l0.993,0l0,-0.258l1.044,0c-0.061,1.557 0.86,1.963 -0.158,2.025c-0.162,0.258 -0.615,0.835 -1.657,0.835l-1.018,0c-0.528,0 -1.449,-0.454 -1.29,-1.289l1.006,0c0.135,0.686 2.098,1.031 2.061,-0.098c0,-0.185 -0.331,-0.319 -0.759,-0.319l-2.246,0c-0.859,-0.541 -0.65,-1.73 0.38,-2.233c-1.692,-1.57 1.386,-3.68 2.676,-2.417l0,-0.184c0,0 0.344,0.184 1.214,-0.013c0.845,-0.181 0.882,1.131 -0.001,1.119Zm-2.601,-0.859c-1.215,0.196 -1.031,2.82 0.332,2.54c1.202,-0.259 0.968,-2.749 -0.332,-2.54Z" style="fill:#e300a7;fill-rule:nonzero;"/><path d="M391.828,641.514l-3.46,0l0,-0.135c0,0 1.018,0.085 1.018,-0.994l0,-5.128c0,-1.079 -0.858,-1.006 -0.858,-1.006l0,-0.173l0.858,-0.208l1.08,0l0,0.418c4.527,-2.762 4.747,6.784 0.087,4.122c-0.038,0 -0.05,-0.013 -0.087,0.024l0,1.95c0,1.044 1.362,0.994 1.362,0.994l0,0.136Zm-1.361,-6.331l0,2.173c0,2.071 2.97,0.611 2.97,-1.154c-0.001,-1.704 -2.97,-2.821 -2.97,-1.019Z" style="fill:#e300a7;fill-rule:nonzero;"/><path d="M398.293,635.455c0,0 0.245,-0.467 -0.012,-0.688c-0.332,-0.268 -1.571,-0.71 -1.571,1.486l0,1.681c0,0.797 0.809,0.685 0.809,0.685l0,0.136l-2.675,0l0,-0.136c0,0 0.824,0.147 0.824,-0.698l0,-2.908c0,-0.418 -0.787,-0.479 -0.787,-0.479l0,-0.147l0.775,-0.109l0,-0.455l1.053,0l0,0.455c0.883,-1.08 3.166,-0.332 2.847,1.178c-0.428,-0.001 -1.263,-0.001 -1.263,-0.001Z" style="fill:#e300a7;fill-rule:nonzero;"/><path d="M402.649,633.701c2.98,-0.59 4.525,4.465 0.354,5.274c-2.809,0.54 -4.465,-4.465 -0.354,-5.274Zm0.109,0.723c-1.803,0.368 -1.803,3.888 0.148,3.753c1.962,-0.135 1.802,-4.145 -0.148,-3.753Z" style="fill:#e300a7;fill-rule:nonzero;"/><path d="M409.198,638.754l0,-0.356c-0.381,0.418 -0.846,0.54 -1.411,0.553c-1.239,0.024 -2.06,-1.336 -2.06,-2.368c0,-1.104 0.686,-2.588 2.071,-2.588c0.922,0 1.35,0.626 1.436,0.553c0,0 0.012,-0.061 0,-2.552l1.005,0l0,5.826c0,0.723 0.932,0.761 0.932,0.761l0,0.172l-1.973,0l0,-0.001Zm0.11,-3.079c0,-1.828 -2.882,-1.509 -2.882,0.907c0,1.497 2.882,3.08 2.882,0.27l0,-1.177Z" style="fill:#e300a7;fill-rule:nonzero;"/><path d="M415.442,638.766l0,-0.637c0,0 -3.3,1.802 -3.3,-0.478l0,-2.92c0,-0.441 -0.724,-0.503 -0.835,-0.515l0,-0.184l0.835,0l0,-0.172l1.044,0l0,1.816c0,1.067 -0.369,3.3 2.256,1.816l0,-2.699c0,-0.626 -0.882,-0.577 -0.882,-0.577l0,-0.184l1.949,-0.099l0,4.833l-1.067,0Z" style="fill:#e300a7;fill-rule:nonzero;"/><path d="M417.319,636.841l0,-0.995c0,-2.122 2.54,-2.207 3.791,-1.779l0.196,1.828l-0.172,0c0,0 -0.208,-0.601 -0.969,-0.601c0,-0.638 -0.478,-0.515 -0.895,-0.515c-0.663,0 -0.968,0.76 -0.968,1.608c0,0.809 0.099,1.546 1.213,1.546c0.405,0 0.676,-0.393 0.65,-0.664l0.909,0l0,0.466l0.477,0c-0.883,1.619 -4.232,1.509 -4.232,-0.894Z" style="fill:#e300a7;fill-rule:nonzero;"/><path d="M423.87,634.533l0,1.105c0,1.067 -0.21,3.116 1.704,1.914l0,0.968c-0.417,0.049 -2.771,1.362 -2.771,-0.958l0,-3.065c-0.025,0.035 -0.995,0 -0.995,0l0,-0.222c0,0 0.282,-0.037 0.344,-0.037c1.325,-0.147 1.412,-1.84 1.412,-1.84l0.307,0l0,1.289l1.717,0l0,0.845l-1.718,0l0,0.001Z" style="fill:#e300a7;fill-rule:nonzero;"/><path d="M429.537,638.743l-1.878,-0.05l0,-3.866l-1.14,0c-0.404,0 -0.332,-0.944 -0.332,-0.944l2.504,0l0,4.134c0,0.541 0.846,0.626 0.846,0.626l0,0.1Zm-2.209,-6.27c0,0 -0.11,-1.324 0.761,-1.324c0.798,0 0.625,1.324 0.625,1.324l-1.386,0Z" style="fill:#e300a7;fill-rule:nonzero;"/><path d="M431.953,633.701c2.98,-0.59 4.526,4.465 0.354,5.274c-2.809,0.54 -4.464,-4.465 -0.354,-5.274Zm0.111,0.723c-1.804,0.368 -1.804,3.888 0.147,3.753c1.962,-0.135 1.802,-4.145 -0.147,-3.753Z" style="fill:#e300a7;fill-rule:nonzero;"/><path d="M440.908,638.766l-2.65,0l0,-0.135c0,0 0.809,0.074 0.809,-0.614l0,-2.403c0,-1.362 -2.233,-1.263 -2.233,0l0,3.152l-1.066,0l0,-3.152c0,-1.277 -0.773,-0.921 -0.773,-0.921l0,-0.221l0.773,-0.196l0,-0.405l1.066,0l0,0.441c2.344,-1.08 3.3,-0.049 3.3,1.301l0,2.403c0,0.688 0.774,0.638 0.774,0.638l0,0.112Z" style="fill:#e300a7;fill-rule:nonzero;"/><path d="M448.392,636.116l0,0.419l-3.337,0c-0.159,0.527 0.061,1.054 0.502,1.348c0.908,0.614 1.621,-0.135 1.621,-0.135l1.042,0c0.051,0.012 0.185,-0.185 0.185,-0.185l0.381,0c0,0 -0.11,0.136 -0.087,0.185c-1.324,1.962 -4.612,1.227 -4.612,-1.325c0,-1.535 0.882,-2.392 2.11,-2.392c2.221,0 2.502,1.3 2.502,2.084l-0.307,0l0,0.001Zm-3.361,-0.478l2.317,0c-0.122,-1.276 -2.049,-1.326 -2.317,0Z" style="fill:#e300a7;fill-rule:nonzero;"/><path d="M452.513,633.294c-0.221,-0.221 0.344,-0.465 -0.123,-0.465c-0.785,-0.025 -1.043,0.123 -1.043,0.834l0,1.73l0.932,0l0,0.306l-0.932,0l0,2.38c0,0.627 0.711,0.527 0.711,0.527l0,0.173l-2.441,0l0,-0.173c0,0 0.676,0.1 0.676,-0.527l0,-2.38l-0.43,0l0,-0.306l0.43,0l0,-0.454l-1.301,0l0,-0.847l1.313,0c0.036,-1.349 0.491,-2.084 1.657,-2.084l0.722,0c0,0.441 0.848,0.895 0.308,1.324c-0.086,0.061 -0.33,0.109 -0.479,-0.038Z" style="fill:#e300a7;fill-rule:nonzero;"/><path d="M456.215,633.294c-0.222,-0.221 0.344,-0.465 -0.123,-0.465c-0.785,-0.025 -1.043,0.123 -1.043,0.834l0,1.73l0.933,0l0,0.306l-0.933,0l0,2.38c0,0.627 0.712,0.527 0.712,0.527l0,0.173l-2.442,0l0,-0.173c0,0 0.677,0.1 0.677,-0.527l0,-2.38l-0.43,0l0,-0.306l0.43,0l0,-0.454l-1.301,0l0,-0.847l1.314,0c0.036,-1.349 0.49,-2.084 1.656,-2.084l0.722,0c0,0.441 0.848,0.895 0.307,1.324c-0.086,0.061 -0.331,0.109 -0.479,-0.038Z" style="fill:#e300a7;fill-rule:nonzero;"/><path d="M461.355,636.116l0,0.419l-3.336,0c-0.161,0.527 0.061,1.054 0.502,1.348c0.907,0.614 1.62,-0.135 1.62,-0.135l1.043,0c0.049,0.012 0.184,-0.185 0.184,-0.185l0.381,0c0,0 -0.109,0.136 -0.087,0.185c-1.325,1.962 -4.612,1.227 -4.612,-1.325c0,-1.535 0.883,-2.392 2.111,-2.392c2.221,0 2.501,1.3 2.501,2.084l-0.307,0l0,0.001Zm-3.361,-0.478l2.318,0c-0.122,-1.276 -2.049,-1.326 -2.318,0Z" style="fill:#e300a7;fill-rule:nonzero;"/><path d="M461.943,636.841l0,-0.995c0,-2.122 2.54,-2.207 3.79,-1.779l0.196,1.828l-0.171,0c0,0 -0.208,-0.601 -0.969,-0.601c0,-0.638 -0.478,-0.515 -0.896,-0.515c-0.661,0 -0.967,0.76 -0.967,1.608c0,0.809 0.098,1.546 1.213,1.546c0.404,0 0.676,-0.393 0.65,-0.664l0.908,0l0,0.466l0.479,0c-0.883,1.619 -4.233,1.509 -4.233,-0.894Z" style="fill:#e300a7;fill-rule:nonzero;"/><path d="M468.494,634.533l0,1.105c0,1.067 -0.209,3.116 1.704,1.914l0,0.968c-0.417,0.049 -2.771,1.362 -2.771,-0.958l0,-3.065c-0.024,0.035 -0.994,0 -0.994,0l0,-0.222c0,0 0.281,-0.037 0.343,-0.037c1.325,-0.147 1.412,-1.84 1.412,-1.84l0.307,0l0,1.289l1.717,0l0,0.845l-1.718,0l0,0.001Z" style="fill:#e300a7;fill-rule:nonzero;"/><path d="M470.921,638.558l-0.098,-1.4l0.246,0l0.208,0.295l0.614,0.049c0.368,0.872 1.901,0.884 2.06,0.16c0.269,-1.214 -1.84,-0.675 -2.76,-1.754c-0.834,-0.994 0.687,-2.479 1.78,-2.134l1.876,0.283l0,1.336l-0.159,0c0,0 -0.099,-0.466 -0.883,-0.258c-0.159,-0.799 -1.607,-0.933 -1.694,-0.147c-0.159,1.312 2.65,0.368 2.921,2.024c0.404,2.442 -2.749,1.95 -4.111,1.546Z" style="fill:#e300a7;fill-rule:nonzero;"/><path d="M476.615,640.519c1.227,-0.759 -0.196,-1.961 0.723,-2.219c1.693,-0.466 0.479,2.061 -0.723,2.219Z" style="fill:#e300a7;fill-rule:nonzero;"/><path d="M484.98,635.455c0,0 0.245,-0.467 -0.013,-0.688c-0.33,-0.268 -1.57,-0.71 -1.57,1.486l0,1.681c0,0.797 0.81,0.685 0.81,0.685l0,0.136l-2.676,0l0,-0.136c0,0 0.823,0.147 0.823,-0.698l0,-2.908c0,-0.418 -0.785,-0.479 -0.785,-0.479l0,-0.147l0.772,-0.109l0,-0.455l1.055,0l0,0.455c0.884,-1.08 3.165,-0.332 2.846,1.178c-0.428,-0.001 -1.262,-0.001 -1.262,-0.001Z" style="fill:#e300a7;fill-rule:nonzero;"/><path d="M491.139,636.116l0,0.419l-3.337,0c-0.161,0.527 0.061,1.054 0.502,1.348c0.909,0.614 1.621,-0.135 1.621,-0.135l1.042,0c0.05,0.012 0.185,-0.185 0.185,-0.185l0.381,0c0,0 -0.111,0.136 -0.086,0.185c-1.325,1.962 -4.614,1.227 -4.614,-1.325c0,-1.535 0.883,-2.392 2.111,-2.392c2.221,0 2.503,1.3 2.503,2.084l-0.308,0l0,0.001Zm-3.362,-0.478l2.318,0c-0.122,-1.276 -2.048,-1.326 -2.318,0Z" style="fill:#e300a7;fill-rule:nonzero;"/><path d="M497.504,634.079c0,0 -0.759,-0.061 -1.288,1.128c0,0 -1.055,2.245 -1.57,3.558l-1.031,0l-1.877,-5.19l1.202,0l1.51,4.085l1.313,-2.454c0.625,-1.165 -0.591,-1.151 -0.591,-1.151l0,-0.161l2.331,0l0,0.185l0.001,0Z" style="fill:#e300a7;fill-rule:nonzero;"/><path d="M501.504,636.116l0,0.419l-3.337,0c-0.159,0.527 0.061,1.054 0.502,1.348c0.909,0.614 1.621,-0.135 1.621,-0.135l1.043,0c0.049,0.012 0.184,-0.185 0.184,-0.185l0.381,0c0,0 -0.111,0.136 -0.087,0.185c-1.324,1.962 -4.613,1.227 -4.613,-1.325c0,-1.535 0.883,-2.392 2.11,-2.392c2.221,0 2.503,1.3 2.503,2.084l-0.307,0l0,0.001Zm-3.361,-0.478l2.318,0c-0.123,-1.276 -2.049,-1.326 -2.318,0Z" style="fill:#e300a7;fill-rule:nonzero;"/><path d="M505.552,635.455c0,0 0.245,-0.467 -0.013,-0.688c-0.331,-0.268 -1.571,-0.71 -1.571,1.486l0,1.681c0,0.797 0.811,0.685 0.811,0.685l0,0.136l-2.676,0l0,-0.136c0,0 0.823,0.147 0.823,-0.698l0,-2.908c0,-0.418 -0.785,-0.479 -0.785,-0.479l0,-0.147l0.773,-0.109l0,-0.455l1.053,0l0,0.455c0.884,-1.08 3.165,-0.332 2.846,1.178c-0.427,-0.001 -1.261,-0.001 -1.261,-0.001Z" style="fill:#e300a7;fill-rule:nonzero;"/><path d="M509.195,638.631l0,0.135l-0.982,0l0,-6.785c0,-0.563 -0.822,-1.128 -0.822,-1.128l0,-0.147l0.822,0l0,-0.232l0.884,0l0,4.159c0,0 0.613,-0.381 1.067,-0.381l0.809,0c2.221,0 2.502,2.92 0.835,4.233c-0.687,0.552 -2.613,0.146 -2.613,0.146Zm0.897,-4.011c-1.522,0.146 -1.535,4.318 0.612,3.778c1.828,-0.442 1.62,-3.987 -0.612,-3.778Z" style="fill:#e300a7;fill-rule:nonzero;"/><path d="M517.145,636.116l0,0.419l-3.336,0c-0.161,0.527 0.061,1.054 0.502,1.348c0.907,0.614 1.62,-0.135 1.62,-0.135l1.043,0c0.049,0.012 0.184,-0.185 0.184,-0.185l0.381,0c0,0 -0.109,0.136 -0.087,0.185c-1.325,1.962 -4.611,1.227 -4.611,-1.325c0,-1.535 0.882,-2.392 2.11,-2.392c2.221,0 2.501,1.3 2.501,2.084l-0.307,0l0,0.001Zm-3.361,-0.478l2.318,0c-0.122,-1.276 -2.049,-1.326 -2.318,0Z" style="fill:#e300a7;fill-rule:nonzero;"/><path d="M521.229,638.754l0,-0.356c-0.381,0.418 -0.846,0.54 -1.411,0.553c-1.239,0.024 -2.06,-1.336 -2.06,-2.368c0,-1.104 0.686,-2.588 2.072,-2.588c0.921,0 1.349,0.626 1.436,0.553c0,0 0.012,-0.061 0,-2.552l1.005,0l0,5.826c0,0.723 0.932,0.761 0.932,0.761l0,0.172l-1.974,0l0,-0.001Zm0.111,-3.079c0,-1.828 -2.883,-1.509 -2.883,0.907c0,1.497 2.883,3.08 2.883,0.27l0,-1.177Z" style="fill:#e300a7;fill-rule:nonzero;"/><path d="M532.135,634.079c0,0 -0.76,-0.061 -1.288,1.128c0,0 -1.055,2.245 -1.571,3.558l-1.031,0l-1.877,-5.19l1.203,0l1.509,4.085l1.313,-2.454c0.625,-1.165 -0.59,-1.151 -0.59,-1.151l0,-0.161l2.331,0l0,0.185l0.001,0Z" style="fill:#e300a7;fill-rule:nonzero;"/><path d="M534.331,633.701c2.981,-0.59 4.526,4.465 0.356,5.274c-2.809,0.54 -4.466,-4.465 -0.356,-5.274Zm0.111,0.723c-1.804,0.368 -1.804,3.888 0.146,3.753c1.964,-0.135 1.804,-4.145 -0.146,-3.753Z" style="fill:#e300a7;fill-rule:nonzero;"/><path d="M537.384,636.841l0,-0.995c0,-2.122 2.541,-2.207 3.792,-1.779l0.197,1.828l-0.173,0c0,0 -0.207,-0.601 -0.969,-0.601c0,-0.638 -0.477,-0.515 -0.894,-0.515c-0.663,0 -0.969,0.76 -0.969,1.608c0,0.809 0.097,1.546 1.213,1.546c0.406,0 0.676,-0.393 0.65,-0.664l0.909,0l0,0.466l0.477,0c-0.882,1.619 -4.233,1.509 -4.233,-0.894Z" style="fill:#e300a7;fill-rule:nonzero;"/><path d="M547.739,637.956c0,0 -1.03,0.848 -1.203,1.092l-1.031,0l0,-0.821l-0.135,0c-0.981,1.262 -4.587,0.416 -3.017,-1.448c0.565,-0.686 2,-0.686 3.005,-0.787l0,-1.065c0,-1.227 -1.863,-0.922 -1.668,0.244c-0.28,-0.023 -0.736,-0.135 -1.079,-0.171c0.148,-0.896 0.858,-1.179 1.509,-1.179l0.712,0c0.859,0 1.754,0.431 1.754,1.644l0,2.074c0,0.735 -0.318,0.908 1.141,0.22c0,0.075 0.012,0.197 0.012,0.197Zm-3.178,-1.434c-0.81,-0.087 -1.913,0.919 -0.784,1.582c0.784,0.454 2.036,-0.786 1.703,-1.546c-0.293,-0.036 -0.611,-0.012 -0.919,-0.036Z" style="fill:#e300a7;fill-rule:nonzero;"/><path d="M548.095,638.766l0,-0.16c0,0 0.759,0.074 0.759,-0.564l0,-5.164c0,-1.289 -0.674,-1.055 -0.674,-1.055l0,-0.159l1.348,-0.158l0,1.373l0.221,0l0,4.379c0,0.945 1.472,0.835 1.472,0.835l0,0.675l-3.126,0l0,-0.002Z" style="fill:#e300a7;fill-rule:nonzero;"/><path d="M551.848,638.558l-0.099,-1.4l0.246,0l0.209,0.295l0.613,0.049c0.367,0.872 1.901,0.884 2.061,0.16c0.27,-1.214 -1.84,-0.675 -2.761,-1.754c-0.834,-0.994 0.687,-2.479 1.78,-2.134l1.877,0.283l0,1.336l-0.161,0c0,0 -0.097,-0.466 -0.882,-0.258c-0.159,-0.799 -1.608,-0.933 -1.693,-0.147c-0.159,1.312 2.649,0.368 2.92,2.024c0.405,2.442 -2.749,1.95 -4.11,1.546Z" style="fill:#e300a7;fill-rule:nonzero;"/><path d="M557.54,640.519c1.228,-0.759 -0.196,-1.961 0.724,-2.219c1.693,-0.466 0.478,2.061 -0.724,2.219Z" style="fill:#e300a7;fill-rule:nonzero;"/><path d="M564.949,633.701c2.981,-0.59 4.527,4.465 0.355,5.274c-2.81,0.54 -4.464,-4.465 -0.355,-5.274Zm0.112,0.723c-1.804,0.368 -1.804,3.888 0.147,3.753c1.961,-0.135 1.801,-4.145 -0.147,-3.753Z" style="fill:#e300a7;fill-rule:nonzero;"/><path d="M571.463,635.455c0,0 0.245,-0.467 -0.012,-0.688c-0.332,-0.268 -1.572,-0.71 -1.572,1.486l0,1.681c0,0.797 0.812,0.685 0.812,0.685l0,0.136l-2.675,0l0,-0.136c0,0 0.821,0.147 0.821,-0.698l0,-2.908c0,-0.418 -0.786,-0.479 -0.786,-0.479l0,-0.147l0.774,-0.109l0,-0.455l1.053,0l0,0.455c0.884,-1.08 3.167,-0.332 2.847,1.178c-0.428,-0.001 -1.262,-0.001 -1.262,-0.001Z" style="fill:#e300a7;fill-rule:nonzero;"/><path d="M409.759,650.174c0,0 0.245,-0.465 -0.012,-0.686c-0.332,-0.271 -1.571,-0.712 -1.571,1.484l0,1.681c0,0.797 0.809,0.687 0.809,0.687l0,0.135l-2.675,0l0,-0.135c0,0 0.824,0.147 0.824,-0.7l0,-2.908c0,-0.415 -0.787,-0.476 -0.787,-0.476l0,-0.148l0.775,-0.11l0,-0.453l1.053,0l0,0.453c0.883,-1.08 3.165,-0.33 2.846,1.177c-0.427,-0.001 -1.262,-0.001 -1.262,-0.001Z" style="fill:#e300a7;fill-rule:nonzero;"/><path d="M415.917,650.838l0,0.416l-3.337,0c-0.159,0.528 0.061,1.055 0.503,1.35c0.909,0.613 1.621,-0.136 1.621,-0.136l1.042,0c0.051,0.013 0.184,-0.185 0.184,-0.185l0.381,0c0,0 -0.11,0.136 -0.085,0.185c-1.325,1.964 -4.614,1.227 -4.614,-1.324c0,-1.534 0.882,-2.393 2.111,-2.393c2.22,0 2.503,1.3 2.503,2.086l-0.309,0l0,0.001Zm-3.361,-0.478l2.318,0c-0.122,-1.276 -2.048,-1.326 -2.318,0Z" style="fill:#e300a7;fill-rule:nonzero;"/><path d="M416.617,653.278l-0.099,-1.398l0.245,0l0.209,0.294l0.613,0.049c0.369,0.872 1.903,0.883 2.062,0.161c0.269,-1.215 -1.84,-0.676 -2.762,-1.756c-0.832,-0.993 0.688,-2.477 1.779,-2.134l1.878,0.282l0,1.336l-0.16,0c0,0 -0.099,-0.465 -0.883,-0.258c-0.159,-0.797 -1.606,-0.932 -1.692,-0.145c-0.16,1.311 2.648,0.367 2.919,2.024c0.406,2.441 -2.748,1.95 -4.109,1.545Z" style="fill:#e300a7;fill-rule:nonzero;"/><path d="M423.965,648.421c2.98,-0.59 4.526,4.465 0.355,5.274c-2.809,0.541 -4.465,-4.465 -0.355,-5.274Zm0.111,0.723c-1.804,0.367 -1.804,3.889 0.146,3.755c1.963,-0.136 1.804,-4.147 -0.146,-3.755Z" style="fill:#e300a7;fill-rule:nonzero;"/><path d="M431.166,653.487l0,-0.638c0,0 -3.3,1.804 -3.3,-0.478l0,-2.919c0,-0.442 -0.724,-0.504 -0.835,-0.515l0,-0.185l0.835,0l0,-0.172l1.043,0l0,1.816c0,1.067 -0.368,3.3 2.257,1.815l0,-2.699c0,-0.624 -0.883,-0.575 -0.883,-0.575l0,-0.185l1.95,-0.099l0,4.834l-1.067,0Z" style="fill:#e300a7;fill-rule:nonzero;"/><path d="M438.944,653.487l-2.649,0l0,-0.135c0,0 0.808,0.073 0.808,-0.614l0,-2.404c0,-1.362 -2.233,-1.263 -2.233,0l0,3.153l-1.066,0l0,-3.153c0,-1.276 -0.773,-0.92 -0.773,-0.92l0,-0.221l0.773,-0.197l0,-0.404l1.066,0l0,0.441c2.343,-1.08 3.3,-0.05 3.3,1.3l0,2.404c0,0.687 0.774,0.637 0.774,0.637l0,0.113Z" style="fill:#e300a7;fill-rule:nonzero;"/><path d="M442.587,653.475l0,-0.355c-0.381,0.417 -0.846,0.54 -1.411,0.552c-1.24,0.024 -2.062,-1.336 -2.062,-2.367c0,-1.104 0.687,-2.589 2.073,-2.589c0.921,0 1.35,0.626 1.436,0.553c0,0 0.012,-0.061 0,-2.552l1.006,0l0,5.827c0,0.724 0.933,0.76 0.933,0.76l0,0.172l-1.975,0l0,-0.001Zm0.11,-3.079c0,-1.827 -2.883,-1.508 -2.883,0.908c0,1.496 2.883,3.078 2.883,0.268l0,-1.176Z" style="fill:#e300a7;fill-rule:nonzero;"/><path d="M448.033,653.463l-1.876,-0.049l0,-3.865l-1.141,0c-0.405,0 -0.332,-0.944 -0.332,-0.944l2.504,0l0,4.133c0,0.54 0.845,0.626 0.845,0.626l0,0.099Zm-2.208,-6.269c0,0 -0.11,-1.325 0.76,-1.325c0.799,0 0.626,1.325 0.626,1.325l-1.386,0Z" style="fill:#e300a7;fill-rule:nonzero;"/><path d="M453.848,653.487l-2.648,0l0,-0.135c0,0 0.808,0.073 0.808,-0.614l0,-2.404c0,-1.362 -2.233,-1.263 -2.233,0l0,3.153l-1.066,0l0,-3.153c0,-1.276 -0.773,-0.92 -0.773,-0.92l0,-0.221l0.773,-0.197l0,-0.404l1.066,0l0,0.441c2.343,-1.08 3.3,-0.05 3.3,1.3l0,2.404c0,0.687 0.773,0.637 0.773,0.637l0,0.113Z" style="fill:#e300a7;fill-rule:nonzero;"/><path d="M458.842,649.758l0,-0.136c0,0 0.171,-0.332 -0.099,-0.429c-0.024,0 -0.074,-0.013 -0.111,0.012l0,2.686l-1.043,0l0,-0.33c-0.711,0.258 -1.545,0.281 -2.244,-0.025c-0.282,-0.123 -0.895,0.626 -0.405,1.019c0.368,0.283 1.092,0.036 1.656,0.036l0.994,0l0,-0.257l1.043,0c-0.061,1.557 0.859,1.963 -0.159,2.025c-0.16,0.256 -0.613,0.833 -1.657,0.833l-1.018,0c-0.527,0 -1.447,-0.453 -1.287,-1.288l1.005,0c0.135,0.687 2.098,1.03 2.061,-0.1c0,-0.183 -0.331,-0.317 -0.761,-0.317l-2.243,0c-0.86,-0.541 -0.651,-1.73 0.379,-2.233c-1.693,-1.571 1.386,-3.68 2.675,-2.417l0,-0.185c0,0 0.344,0.185 1.215,-0.011c0.844,-0.184 0.881,1.13 -0.001,1.117Zm-2.602,-0.859c-1.214,0.196 -1.031,2.821 0.332,2.54c1.201,-0.259 0.969,-2.749 -0.332,-2.54Z" style="fill:#e300a7;fill-rule:nonzero;"/><path d="M459.749,653.487l0,-0.159c0,0 0.759,0.073 0.759,-0.565l0,-5.165c0,-1.287 -0.674,-1.054 -0.674,-1.054l0,-0.16l1.349,-0.16l0,1.374l0.221,0l0,4.38c0,0.944 1.472,0.835 1.472,0.835l0,0.675l-3.127,0l0,-0.001Z" style="fill:#e300a7;fill-rule:nonzero;"/><path d="M470.47,648.642c0,0 -0.676,0.195 -0.76,0.636l0.416,0c-1.827,2.208 -2.329,6.796 -5.433,6.661c-0.884,-0.036 -1.559,-0.858 -1.106,-1.471c0.552,-0.736 1.621,0.232 0.958,0.846c0.258,0.307 1.067,0.171 0.748,-0.392c0.884,0.148 1.559,-1.128 1.596,-1.729l-1.731,-3.865c-0.368,-0.81 -0.994,-0.686 -0.994,-0.686l0,-0.196l1.277,0c0,0 0.527,-0.101 0.638,0.196c0,0 0.882,2.366 1.385,3.496c0.491,-0.86 1.411,-2.65 1.411,-2.65c0.283,-0.527 -0.11,-0.773 -0.613,-0.846l0,-0.195l2.208,0l0,0.195Z" style="fill:#e300a7;fill-rule:nonzero;"/><path d="M474.052,653.278l-0.099,-1.398l0.247,0l0.207,0.294l0.614,0.049c0.369,0.872 1.902,0.883 2.061,0.161c0.269,-1.215 -1.84,-0.676 -2.761,-1.756c-0.833,-0.993 0.688,-2.477 1.78,-2.134l1.877,0.282l0,1.336l-0.16,0c0,0 -0.099,-0.465 -0.882,-0.258c-0.16,-0.797 -1.607,-0.932 -1.694,-0.145c-0.159,1.311 2.65,0.367 2.92,2.024c0.405,2.441 -2.749,1.95 -4.11,1.545Z" style="fill:#e300a7;fill-rule:nonzero;"/><path d="M480.947,649.255l0,1.104c0,1.067 -0.209,3.115 1.705,1.913l0,0.968c-0.419,0.05 -2.773,1.362 -2.773,-0.958l0,-3.066c-0.023,0.038 -0.993,0 -0.993,0l0,-0.221c0,0 0.282,-0.035 0.344,-0.035c1.324,-0.148 1.41,-1.842 1.41,-1.842l0.308,0l0,1.288l1.718,0l0,0.848l-1.719,0l0,0.001Z" style="fill:#e300a7;fill-rule:nonzero;"/><path d="M487.571,650.838l0,0.416l-3.337,0c-0.16,0.528 0.061,1.055 0.503,1.35c0.908,0.613 1.621,-0.136 1.621,-0.136l1.042,0c0.05,0.013 0.184,-0.185 0.184,-0.185l0.381,0c0,0 -0.11,0.136 -0.086,0.185c-1.324,1.964 -4.613,1.227 -4.613,-1.324c0,-1.534 0.882,-2.393 2.111,-2.393c2.22,0 2.502,1.3 2.502,2.086l-0.308,0l0,0.001Zm-3.362,-0.478l2.319,0c-0.123,-1.276 -2.049,-1.326 -2.319,0Z" style="fill:#e300a7;fill-rule:nonzero;"/><path d="M491.619,650.174c0,0 0.245,-0.465 -0.013,-0.686c-0.331,-0.271 -1.571,-0.712 -1.571,1.484l0,1.681c0,0.797 0.811,0.687 0.811,0.687l0,0.135l-2.675,0l0,-0.135c0,0 0.821,0.147 0.821,-0.7l0,-2.908c0,-0.415 -0.784,-0.476 -0.784,-0.476l0,-0.148l0.771,-0.11l0,-0.453l1.055,0l0,0.453c0.884,-1.08 3.166,-0.33 2.847,1.177c-0.427,-0.001 -1.262,-0.001 -1.262,-0.001Z" style="fill:#e300a7;fill-rule:nonzero;"/><path d="M496.819,653.463l-1.876,-0.049l0,-3.865l-1.14,0c-0.406,0 -0.332,-0.944 -0.332,-0.944l2.503,0l0,4.133c0,0.54 0.845,0.626 0.845,0.626l0,0.099Zm-2.207,-6.269c0,0 -0.111,-1.325 0.759,-1.325c0.799,0 0.626,1.325 0.626,1.325l-1.385,0Z" style="fill:#e300a7;fill-rule:nonzero;"/><path d="M496.648,653.487l0,-0.159c0,0 0.759,0.073 0.759,-0.565l0,-5.165c0,-1.287 -0.675,-1.054 -0.675,-1.054l0,-0.16l1.35,-0.16l0,1.374l0.221,0l0,4.38c0,0.944 1.471,0.835 1.471,0.835l0,0.675l-3.126,0l0,-0.001Z" style="fill:#e300a7;fill-rule:nonzero;"/><path d="M504.597,650.838l0,0.416l-3.336,0c-0.161,0.528 0.061,1.055 0.502,1.35c0.908,0.613 1.62,-0.136 1.62,-0.136l1.043,0c0.05,0.013 0.185,-0.185 0.185,-0.185l0.381,0c0,0 -0.111,0.136 -0.087,0.185c-1.325,1.964 -4.613,1.227 -4.613,-1.324c0,-1.534 0.883,-2.393 2.111,-2.393c2.22,0 2.502,1.3 2.502,2.086l-0.308,0l0,0.001Zm-3.362,-0.478l2.318,0c-0.122,-1.276 -2.048,-1.326 -2.318,0Z" style="fill:#e300a7;fill-rule:nonzero;"/><path d="M513.06,649.758l0,-0.136c0,0 0.172,-0.332 -0.098,-0.429c-0.025,0 -0.073,-0.013 -0.109,0.012l0,2.686l-1.045,0l0,-0.33c-0.711,0.258 -1.544,0.281 -2.244,-0.025c-0.282,-0.123 -0.896,0.626 -0.404,1.019c0.368,0.283 1.091,0.036 1.657,0.036l0.992,0l0,-0.257l1.045,0c-0.061,1.557 0.857,1.963 -0.16,2.025c-0.159,0.256 -0.613,0.833 -1.657,0.833l-1.018,0c-0.527,0 -1.447,-0.453 -1.289,-1.288l1.007,0c0.134,0.687 2.097,1.03 2.06,-0.1c0,-0.183 -0.331,-0.317 -0.76,-0.317l-2.245,0c-0.858,-0.541 -0.649,-1.73 0.381,-2.233c-1.693,-1.571 1.387,-3.68 2.674,-2.417l0,-0.185c0,0 0.344,0.185 1.214,-0.011c0.847,-0.184 0.883,1.13 -0.001,1.117Zm-2.6,-0.859c-1.214,0.196 -1.03,2.821 0.332,2.54c1.201,-0.259 0.969,-2.749 -0.332,-2.54Z" style="fill:#e300a7;fill-rule:nonzero;"/><path d="M518.202,653.487l0,-0.638c0,0 -3.302,1.804 -3.302,-0.478l0,-2.919c0,-0.442 -0.723,-0.504 -0.834,-0.515l0,-0.185l0.834,0l0,-0.172l1.044,0l0,1.816c0,1.067 -0.368,3.3 2.258,1.815l0,-2.699c0,-0.624 -0.883,-0.575 -0.883,-0.575l0,-0.185l1.95,-0.099l0,4.834l-1.067,0Z" style="fill:#e300a7;fill-rule:nonzero;"/><path d="M523.428,653.463l-1.877,-0.049l0,-3.865l-1.141,0c-0.405,0 -0.332,-0.944 -0.332,-0.944l2.504,0l0,4.133c0,0.54 0.846,0.626 0.846,0.626l0,0.099Zm-2.21,-6.269c0,0 -0.11,-1.325 0.76,-1.325c0.799,0 0.627,1.325 0.627,1.325l-1.387,0Z" style="fill:#e300a7;fill-rule:nonzero;"/><path d="M525.39,649.255l0,1.104c0,1.067 -0.209,3.115 1.704,1.913l0,0.968c-0.417,0.05 -2.771,1.362 -2.771,-0.958l0,-3.066c-0.025,0.038 -0.994,0 -0.994,0l0,-0.221c0,0 0.281,-0.035 0.343,-0.035c1.325,-0.148 1.412,-1.842 1.412,-1.842l0.307,0l0,1.288l1.717,0l0,0.848l-1.718,0l0,0.001Z" style="fill:#e300a7;fill-rule:nonzero;"/><path d="M533.56,652.678c0,0 -1.031,0.845 -1.204,1.09l-1.029,0l0,-0.822l-0.136,0c-0.981,1.264 -4.587,0.418 -3.017,-1.447c0.564,-0.687 2,-0.687 3.006,-0.785l0,-1.067c0,-1.227 -1.865,-0.922 -1.669,0.245c-0.282,-0.025 -0.735,-0.135 -1.079,-0.172c0.147,-0.895 0.859,-1.177 1.508,-1.177l0.712,0c0.859,0 1.755,0.429 1.755,1.643l0,2.074c0,0.735 -0.319,0.907 1.14,0.22c0,0.075 0.013,0.198 0.013,0.198Zm-3.179,-1.436c-0.809,-0.085 -1.913,0.92 -0.784,1.583c0.784,0.453 2.036,-0.786 1.704,-1.547c-0.293,-0.036 -0.612,-0.012 -0.92,-0.036Z" style="fill:#e300a7;fill-rule:nonzero;"/><path d="M537.46,650.174c0,0 0.244,-0.465 -0.015,-0.686c-0.329,-0.271 -1.569,-0.712 -1.569,1.484l0,1.681c0,0.797 0.809,0.687 0.809,0.687l0,0.135l-2.675,0l0,-0.135c0,0 0.824,0.147 0.824,-0.7l0,-2.908c0,-0.415 -0.786,-0.476 -0.786,-0.476l0,-0.148l0.773,-0.11l0,-0.453l1.054,0l0,0.453c0.883,-1.08 3.164,-0.33 2.846,1.177c-0.428,-0.001 -1.261,-0.001 -1.261,-0.001Z" style="fill:#e300a7;fill-rule:nonzero;"/><path d="M539.422,653.278l-0.098,-1.398l0.245,0l0.209,0.294l0.614,0.049c0.368,0.872 1.901,0.883 2.061,0.161c0.268,-1.215 -1.84,-0.676 -2.761,-1.756c-0.834,-0.993 0.686,-2.477 1.778,-2.134l1.878,0.282l0,1.336l-0.16,0c0,0 -0.099,-0.465 -0.882,-0.258c-0.159,-0.797 -1.608,-0.932 -1.693,-0.145c-0.161,1.311 2.649,0.367 2.92,2.024c0.404,2.441 -2.75,1.95 -4.111,1.545Z" style="fill:#e300a7;fill-rule:nonzero;"/><path d="M545.114,655.241c1.227,-0.761 -0.195,-1.963 0.724,-2.221c1.692,-0.465 0.479,2.061 -0.724,2.221Z" style="fill:#e300a7;fill-rule:nonzero;"/><path d="M552.069,649.255l0,1.104c0,1.067 -0.209,3.115 1.705,1.913l0,0.968c-0.417,0.05 -2.771,1.362 -2.771,-0.958l0,-3.066c-0.026,0.038 -0.995,0 -0.995,0l0,-0.221c0,0 0.282,-0.035 0.344,-0.035c1.325,-0.148 1.411,-1.842 1.411,-1.842l0.307,0l0,1.288l1.718,0l0,0.848l-1.719,0l0,0.001Z" style="fill:#e300a7;fill-rule:nonzero;"/><path d="M559.183,652.701l0,0.773l-1.053,0l0,-2.698c0,-1.215 -0.627,-1.312 -0.945,-1.277c-0.565,0.061 -0.872,0.515 -0.872,1.277l0,2.049c0,0.466 0.774,0.503 0.774,0.503l0,0.208c0,0 -1.167,0.196 -1.792,-0.099c0,-7.201 0,-7.261 0,-7.261c0,-0.786 -0.907,-0.601 -0.907,-0.601l0,-0.135c0,0 1.14,-0.209 1.743,-0.307l0,1.472l0.195,0l0,2.331c1.324,-0.945 3.092,0.208 3.092,1.692c0,0.491 -0.05,1.559 0,2.073l-0.235,0Z" style="fill:#e300a7;fill-rule:nonzero;"/><path d="M564.151,650.838l0,0.416l-3.335,0c-0.161,0.528 0.061,1.055 0.502,1.35c0.908,0.613 1.62,-0.136 1.62,-0.136l1.043,0c0.05,0.013 0.184,-0.185 0.184,-0.185l0.382,0c0,0 -0.111,0.136 -0.088,0.185c-1.325,1.964 -4.612,1.227 -4.612,-1.324c0,-1.534 0.882,-2.393 2.111,-2.393c2.221,0 2.501,1.3 2.501,2.086l-0.308,0l0,0.001Zm-3.36,-0.478l2.318,0c-0.124,-1.276 -2.048,-1.326 -2.318,0Z" style="fill:#e300a7;fill-rule:nonzero;"/><path d="M568.089,653.463l-1.876,-0.049l0,-3.865l-1.14,0c-0.406,0 -0.332,-0.944 -0.332,-0.944l2.504,0l0,4.133c0,0.54 0.844,0.626 0.844,0.626l0,0.099Zm-2.207,-6.269c0,0 -0.111,-1.325 0.759,-1.325c0.799,0 0.627,1.325 0.627,1.325l-1.386,0Z" style="fill:#e300a7;fill-rule:nonzero;"/><path d="M571.463,650.174c0,0 0.245,-0.465 -0.012,-0.686c-0.332,-0.271 -1.572,-0.712 -1.572,1.484l0,1.681c0,0.797 0.812,0.687 0.812,0.687l0,0.135l-2.675,0l0,-0.135c0,0 0.821,0.147 0.821,-0.7l0,-2.908c0,-0.415 -0.786,-0.476 -0.786,-0.476l0,-0.148l0.774,-0.11l0,-0.453l1.053,0l0,0.453c0.884,-1.08 3.167,-0.33 2.847,1.177c-0.428,-0.001 -1.262,-0.001 -1.262,-0.001Z" style="fill:#e300a7;fill-rule:nonzero;"/><path d="M391.409,667.398c0,0 -1.03,0.846 -1.202,1.091l-1.031,0l0,-0.822l-0.134,0c-0.981,1.265 -4.588,0.418 -3.017,-1.447c0.563,-0.687 2,-0.687 3.005,-0.786l0,-1.066c0,-1.228 -1.865,-0.921 -1.668,0.245c-0.282,-0.025 -0.736,-0.135 -1.079,-0.172c0.146,-0.895 0.857,-1.177 1.507,-1.177l0.713,0c0.859,0 1.755,0.43 1.755,1.643l0,2.074c0,0.735 -0.319,0.906 1.14,0.22c0,0.075 0.011,0.197 0.011,0.197Zm-3.177,-1.434c-0.809,-0.087 -1.913,0.919 -0.784,1.582c0.784,0.454 2.035,-0.785 1.703,-1.546c-0.294,-0.036 -0.612,-0.012 -0.919,-0.036Z" style="fill:#e300a7;fill-rule:nonzero;"/><path d="M393.899,663.976l0,1.105c0,1.066 -0.208,3.114 1.706,1.913l0,0.968c-0.418,0.049 -2.773,1.363 -2.773,-0.957l0,-3.067c-0.025,0.037 -0.993,0 -0.993,0l0,-0.221c0,0 0.281,-0.037 0.343,-0.037c1.325,-0.146 1.412,-1.84 1.412,-1.84l0.306,0l0,1.289l1.717,0l0,0.846l-1.718,0l0,0.001Z" style="fill:#e300a7;fill-rule:nonzero;"/><path d="M403.075,668.207l-2.552,0l0,-0.171c0,0 0.76,0.025 0.76,-0.626l0,-2.147c0,-0.712 -0.601,-0.637 -0.601,-0.637l-0.576,0c0,-0.602 -0.932,-0.798 -0.932,0.184l0,2.601c0,0.651 0.798,0.613 0.798,0.613l0,0.184l-1.816,0l0,-3.397c0,-0.92 -0.932,-1.006 -0.932,0l0,3.397l-1.019,0l0,-4.907l1.019,0l0,0.185c0.281,-0.084 1.202,-0.429 1.742,0.05c1.289,-0.736 3.312,0.11 3.312,1.729l0,2.148c0,0.651 0.798,0.651 0.798,0.651l0,0.143l-0.001,0Z" style="fill:#e300a7;fill-rule:nonzero;"/><path d="M406.313,663.141c2.981,-0.589 4.527,4.465 0.356,5.274c-2.809,0.542 -4.464,-4.465 -0.356,-5.274Zm0.112,0.724c-1.804,0.368 -1.804,3.888 0.146,3.754c1.963,-0.134 1.804,-4.145 -0.146,-3.754Z" style="fill:#e300a7;fill-rule:nonzero;"/><path d="M409.479,668l-0.1,-1.399l0.245,0l0.21,0.294l0.614,0.049c0.367,0.871 1.902,0.882 2.06,0.16c0.27,-1.213 -1.839,-0.676 -2.76,-1.755c-0.834,-0.993 0.686,-2.478 1.779,-2.134l1.876,0.282l0,1.336l-0.159,0c0,0 -0.099,-0.465 -0.883,-0.257c-0.159,-0.798 -1.607,-0.932 -1.692,-0.146c-0.16,1.312 2.648,0.368 2.919,2.024c0.405,2.442 -2.748,1.95 -4.109,1.546Z" style="fill:#e300a7;fill-rule:nonzero;"/><path d="M417.636,670.955l-3.46,0l0,-0.135c0,0 1.019,0.087 1.019,-0.993l0,-5.128c0,-1.08 -0.86,-1.005 -0.86,-1.005l0,-0.173l0.86,-0.208l1.079,0l0,0.417c4.527,-2.761 4.747,6.784 0.087,4.122c-0.037,0 -0.051,-0.012 -0.087,0.025l0,1.95c0,1.043 1.362,0.993 1.362,0.993l0,0.135Zm-1.361,-6.328l0,2.169c0,2.074 2.969,0.615 2.969,-1.151c-0.001,-1.707 -2.969,-2.821 -2.969,-1.018Z" style="fill:#e300a7;fill-rule:nonzero;"/><path d="M425.438,667.424l0,0.771l-1.054,0l0,-2.697c0,-1.214 -0.626,-1.313 -0.944,-1.276c-0.566,0.061 -0.872,0.515 -0.872,1.276l0,2.049c0,0.465 0.773,0.502 0.773,0.502l0,0.209c0,0 -1.167,0.196 -1.792,-0.098c0,-7.201 0,-7.263 0,-7.263c0,-0.785 -0.908,-0.601 -0.908,-0.601l0,-0.135c0,0 1.141,-0.208 1.743,-0.307l0,1.471l0.196,0l0,2.331c1.325,-0.944 3.092,0.209 3.092,1.693c0,0.491 -0.05,1.559 0,2.074l-0.234,0l0,0.001Z" style="fill:#e300a7;fill-rule:nonzero;"/><path d="M430.406,665.558l0,0.417l-3.336,0c-0.16,0.527 0.061,1.056 0.502,1.35c0.907,0.614 1.62,-0.136 1.62,-0.136l1.043,0c0.05,0.013 0.184,-0.184 0.184,-0.184l0.381,0c0,0 -0.109,0.135 -0.087,0.184c-1.324,1.963 -4.611,1.226 -4.611,-1.324c0,-1.535 0.882,-2.392 2.11,-2.392c2.221,0 2.501,1.299 2.501,2.084l-0.307,0l0,0.001Zm-3.361,-0.477l2.318,0c-0.123,-1.277 -2.049,-1.326 -2.318,0Z" style="fill:#e300a7;fill-rule:nonzero;"/><path d="M434.454,664.895c0,0 0.245,-0.465 -0.012,-0.685c-0.332,-0.271 -1.572,-0.713 -1.572,1.483l0,1.68c0,0.799 0.811,0.689 0.811,0.689l0,0.133l-2.675,0l0,-0.133c0,0 0.822,0.145 0.822,-0.7l0,-2.908c0,-0.417 -0.786,-0.478 -0.786,-0.478l0,-0.146l0.773,-0.111l0,-0.453l1.054,0l0,0.453c0.885,-1.079 3.166,-0.331 2.847,1.177c-0.428,-0.001 -1.262,-0.001 -1.262,-0.001Z" style="fill:#e300a7;fill-rule:nonzero;"/><path d="M439.656,668.183l-1.877,-0.049l0,-3.865l-1.141,0c-0.404,0 -0.332,-0.943 -0.332,-0.943l2.504,0l0,4.133c0,0.541 0.846,0.626 0.846,0.626l0,0.098Zm-2.209,-6.269c0,0 -0.111,-1.325 0.76,-1.325c0.798,0 0.626,1.325 0.626,1.325l-1.386,0Z" style="fill:#e300a7;fill-rule:nonzero;"/><path d="M439.569,666.282l0,-0.994c0,-2.123 2.54,-2.209 3.792,-1.779l0.195,1.826l-0.172,0c0,0 -0.207,-0.599 -0.968,-0.599c0,-0.638 -0.478,-0.515 -0.896,-0.515c-0.662,0 -0.968,0.759 -0.968,1.608c0,0.808 0.099,1.543 1.214,1.543c0.404,0 0.675,-0.39 0.65,-0.661l0.907,0l0,0.465l0.479,0c-0.883,1.62 -4.233,1.511 -4.233,-0.894Z" style="fill:#e300a7;fill-rule:nonzero;"/><path d="M452.952,667.398c0,0 -1.031,0.846 -1.202,1.091l-1.031,0l0,-0.822l-0.136,0c-0.98,1.265 -4.587,0.418 -3.016,-1.447c0.564,-0.687 1.999,-0.687 3.005,-0.786l0,-1.066c0,-1.228 -1.864,-0.921 -1.668,0.245c-0.282,-0.025 -0.736,-0.135 -1.079,-0.172c0.146,-0.895 0.858,-1.177 1.508,-1.177l0.712,0c0.858,0 1.754,0.43 1.754,1.643l0,2.074c0,0.735 -0.319,0.906 1.14,0.22c0.001,0.075 0.013,0.197 0.013,0.197Zm-3.177,-1.434c-0.808,-0.087 -1.913,0.919 -0.785,1.582c0.785,0.454 2.037,-0.785 1.705,-1.546c-0.294,-0.036 -0.614,-0.012 -0.92,-0.036Z" style="fill:#e300a7;fill-rule:nonzero;"/><path d="M455.185,668.073l0,0.135l-0.982,0l0,-6.784c0,-0.563 -0.821,-1.128 -0.821,-1.128l0,-0.146l0.821,0l0,-0.233l0.883,0l0,4.158c0,0 0.613,-0.379 1.068,-0.379l0.809,0c2.22,0 2.503,2.919 0.835,4.233c-0.687,0.548 -2.613,0.144 -2.613,0.144Zm0.895,-4.012c-1.521,0.148 -1.533,4.319 0.613,3.779c1.829,-0.442 1.62,-3.986 -0.613,-3.779Z" style="fill:#e300a7;fill-rule:nonzero;"/><path d="M462.178,668.183l-1.877,-0.049l0,-3.865l-1.14,0c-0.405,0 -0.332,-0.943 -0.332,-0.943l2.504,0l0,4.133c0,0.541 0.845,0.626 0.845,0.626l0,0.098Zm-2.209,-6.269c0,0 -0.11,-1.325 0.76,-1.325c0.798,0 0.625,1.325 0.625,1.325l-1.385,0Z" style="fill:#e300a7;fill-rule:nonzero;"/><path d="M462.006,668.207l0,-0.159c0,0 0.76,0.073 0.76,-0.563l0,-5.165c0,-1.289 -0.675,-1.055 -0.675,-1.055l0,-0.16l1.349,-0.159l0,1.375l0.221,0l0,4.38c0,0.944 1.472,0.833 1.472,0.833l0,0.675l-3.127,0l0,-0.002Z" style="fill:#e300a7;fill-rule:nonzero;"/><path d="M468.997,668.183l-1.877,-0.049l0,-3.865l-1.14,0c-0.405,0 -0.331,-0.943 -0.331,-0.943l2.502,0l0,4.133c0,0.541 0.846,0.626 0.846,0.626l0,0.098Zm-2.208,-6.269c0,0 -0.11,-1.325 0.761,-1.325c0.796,0 0.625,1.325 0.625,1.325l-1.386,0Z" style="fill:#e300a7;fill-rule:nonzero;"/><path d="M470.959,663.976l0,1.105c0,1.066 -0.209,3.114 1.706,1.913l0,0.968c-0.418,0.049 -2.773,1.363 -2.773,-0.957l0,-3.067c-0.024,0.037 -0.993,0 -0.993,0l0,-0.221c0,0 0.281,-0.037 0.343,-0.037c1.326,-0.146 1.412,-1.84 1.412,-1.84l0.306,0l0,1.289l1.717,0l0,0.846l-1.718,0l0,0.001Z" style="fill:#e300a7;fill-rule:nonzero;"/><path d="M480.356,663.362c0,0 -0.676,0.197 -0.76,0.638l0.416,0c-1.827,2.208 -2.329,6.796 -5.433,6.662c-0.885,-0.037 -1.559,-0.86 -1.106,-1.472c0.553,-0.736 1.62,0.232 0.958,0.847c0.258,0.307 1.067,0.171 0.748,-0.393c0.883,0.146 1.559,-1.129 1.596,-1.73l-1.731,-3.864c-0.368,-0.81 -0.994,-0.688 -0.994,-0.688l0,-0.196l1.277,0c0,0 0.527,-0.098 0.638,0.196c0,0 0.882,2.368 1.386,3.497c0.49,-0.858 1.41,-2.648 1.41,-2.648c0.282,-0.529 -0.11,-0.774 -0.613,-0.848l0,-0.196l2.208,0l0,0.195Z" style="fill:#e300a7;fill-rule:nonzero;"/><path d="M487.177,668.183l-1.878,-0.049l0,-3.865l-1.14,0c-0.404,0 -0.331,-0.943 -0.331,-0.943l2.503,0l0,4.133c0,0.541 0.846,0.626 0.846,0.626l0,0.098Zm-2.209,-6.269c0,0 -0.11,-1.325 0.761,-1.325c0.798,0 0.626,1.325 0.626,1.325l-1.387,0Z" style="fill:#e300a7;fill-rule:nonzero;"/><path d="M487.201,668l-0.098,-1.399l0.245,0l0.209,0.294l0.613,0.049c0.368,0.871 1.902,0.882 2.062,0.16c0.269,-1.213 -1.84,-0.676 -2.762,-1.755c-0.833,-0.993 0.687,-2.478 1.779,-2.134l1.879,0.282l0,1.336l-0.161,0c0,0 -0.099,-0.465 -0.883,-0.257c-0.158,-0.798 -1.607,-0.932 -1.692,-0.146c-0.16,1.312 2.649,0.368 2.919,2.024c0.405,2.442 -2.749,1.95 -4.11,1.546Z" style="fill:#e300a7;fill-rule:nonzero;"/><path d="M499.383,665.558l0,0.417l-3.336,0c-0.16,0.527 0.061,1.056 0.502,1.35c0.907,0.614 1.62,-0.136 1.62,-0.136l1.043,0c0.05,0.013 0.184,-0.184 0.184,-0.184l0.381,0c0,0 -0.109,0.135 -0.087,0.184c-1.324,1.963 -4.611,1.226 -4.611,-1.324c0,-1.535 0.882,-2.392 2.11,-2.392c2.221,0 2.501,1.299 2.501,2.084l-0.307,0l0,0.001Zm-3.361,-0.477l2.318,0c-0.123,-1.277 -2.049,-1.326 -2.318,0Z" style="fill:#e300a7;fill-rule:nonzero;"/><path d="M505.823,667.398c0,0 -1.031,0.846 -1.202,1.091l-1.031,0l0,-0.822l-0.135,0c-0.98,1.265 -4.588,0.418 -3.016,-1.447c0.563,-0.687 1.999,-0.687 3.004,-0.786l0,-1.066c0,-1.228 -1.864,-0.921 -1.667,0.245c-0.282,-0.025 -0.737,-0.135 -1.08,-0.172c0.146,-0.895 0.858,-1.177 1.508,-1.177l0.713,0c0.858,0 1.754,0.43 1.754,1.643l0,2.074c0,0.735 -0.319,0.906 1.14,0.22c0,0.075 0.012,0.197 0.012,0.197Zm-3.177,-1.434c-0.809,-0.087 -1.913,0.919 -0.785,1.582c0.785,0.454 2.036,-0.785 1.703,-1.546c-0.293,-0.036 -0.611,-0.012 -0.918,-0.036Z" style="fill:#e300a7;fill-rule:nonzero;"/><path d="M506.374,668l-0.098,-1.399l0.246,0l0.208,0.294l0.613,0.049c0.369,0.871 1.902,0.882 2.062,0.16c0.269,-1.213 -1.84,-0.676 -2.762,-1.755c-0.833,-0.993 0.687,-2.478 1.78,-2.134l1.878,0.282l0,1.336l-0.161,0c0,0 -0.098,-0.465 -0.883,-0.257c-0.158,-0.798 -1.607,-0.932 -1.692,-0.146c-0.16,1.312 2.649,0.368 2.92,2.024c0.404,2.442 -2.749,1.95 -4.111,1.546Z" style="fill:#e300a7;fill-rule:nonzero;"/><path d="M518.299,663.362c0,0 -0.675,0.197 -0.76,0.638l0.417,0c-1.827,2.208 -2.33,6.796 -5.434,6.662c-0.883,-0.037 -1.559,-0.86 -1.105,-1.472c0.553,-0.736 1.621,0.232 0.958,0.847c0.258,0.307 1.067,0.171 0.748,-0.393c0.883,0.146 1.558,-1.129 1.595,-1.73l-1.73,-3.864c-0.369,-0.81 -0.994,-0.688 -0.994,-0.688l0,-0.196l1.276,0c0,0 0.528,-0.098 0.638,0.196c0,0 0.883,2.368 1.385,3.497c0.491,-0.858 1.412,-2.648 1.412,-2.648c0.282,-0.529 -0.111,-0.774 -0.613,-0.848l0,-0.196l2.207,0l0,0.195Z" style="fill:#e300a7;fill-rule:nonzero;"/><path d="M523.819,663.976l0,1.105c0,1.066 -0.209,3.114 1.706,1.913l0,0.968c-0.419,0.049 -2.773,1.363 -2.773,-0.957l0,-3.067c-0.024,0.037 -0.994,0 -0.994,0l0,-0.221c0,0 0.282,-0.037 0.344,-0.037c1.325,-0.146 1.411,-1.84 1.411,-1.84l0.307,0l0,1.289l1.717,0l0,0.846l-1.718,0l0,0.001Z" style="fill:#e300a7;fill-rule:nonzero;"/><path d="M528.64,663.141c2.98,-0.589 4.526,4.465 0.355,5.274c-2.809,0.542 -4.464,-4.465 -0.355,-5.274Zm0.111,0.724c-1.805,0.368 -1.805,3.888 0.147,3.754c1.961,-0.134 1.802,-4.145 -0.147,-3.754Z" style="fill:#e300a7;fill-rule:nonzero;"/><path d="M540.574,667.398c0,0 -1.029,0.846 -1.201,1.091l-1.031,0l0,-0.822l-0.134,0c-0.981,1.265 -4.588,0.418 -3.018,-1.447c0.563,-0.687 1.999,-0.687 3.006,-0.786l0,-1.066c0,-1.228 -1.866,-0.921 -1.668,0.245c-0.283,-0.025 -0.737,-0.135 -1.08,-0.172c0.147,-0.895 0.858,-1.177 1.508,-1.177l0.713,0c0.858,0 1.753,0.43 1.753,1.643l0,2.074c0,0.735 -0.32,0.906 1.141,0.22c0.001,0.075 0.011,0.197 0.011,0.197Zm-3.175,-1.434c-0.809,-0.087 -1.914,0.919 -0.785,1.582c0.785,0.454 2.036,-0.785 1.703,-1.546c-0.294,-0.036 -0.613,-0.012 -0.918,-0.036Z" style="fill:#e300a7;fill-rule:nonzero;"/><path d="M544.513,668.195l0,-0.354c-0.38,0.417 -0.845,0.54 -1.411,0.552c-1.239,0.023 -2.061,-1.336 -2.061,-2.367c0,-1.104 0.686,-2.589 2.073,-2.589c0.92,0 1.347,0.626 1.435,0.554c0,0 0.013,-0.062 0,-2.552l1.005,0l0,5.826c0,0.723 0.933,0.76 0.933,0.76l0,0.171l-1.974,0l0,-0.001Zm0.112,-3.079c0,-1.826 -2.885,-1.507 -2.885,0.909c0,1.497 2.885,3.079 2.885,0.269l0,-1.178Z" style="fill:#e300a7;fill-rule:nonzero;"/><path d="M553.469,668.207l-2.552,0l0,-0.171c0,0 0.759,0.025 0.759,-0.626l0,-2.147c0,-0.712 -0.601,-0.637 -0.601,-0.637l-0.576,0c0,-0.602 -0.933,-0.798 -0.933,0.184l0,2.601c0,0.651 0.799,0.613 0.799,0.613l0,0.184l-1.817,0l0,-3.397c0,-0.92 -0.93,-1.006 -0.93,0l0,3.397l-1.018,0l0,-4.907l1.018,0l0,0.185c0.28,-0.084 1.202,-0.429 1.74,0.05c1.29,-0.736 3.313,0.11 3.313,1.729l0,2.148c0,0.651 0.799,0.651 0.799,0.651l0,0.143l-0.001,0Z" style="fill:#e300a7;fill-rule:nonzero;"/><path d="M557.555,668.183l-1.878,-0.049l0,-3.865l-1.141,0c-0.404,0 -0.331,-0.943 -0.331,-0.943l2.503,0l0,4.133c0,0.541 0.847,0.626 0.847,0.626l0,0.098Zm-2.211,-6.269c0,0 -0.109,-1.325 0.762,-1.325c0.797,0 0.624,1.325 0.624,1.325l-1.386,0Z" style="fill:#e300a7;fill-rule:nonzero;"/><path d="M560.927,664.895c0,0 0.245,-0.465 -0.014,-0.685c-0.331,-0.271 -1.57,-0.713 -1.57,1.483l0,1.68c0,0.799 0.809,0.689 0.809,0.689l0,0.133l-2.675,0l0,-0.133c0,0 0.823,0.145 0.823,-0.7l0,-2.908c0,-0.417 -0.786,-0.478 -0.786,-0.478l0,-0.146l0.774,-0.111l0,-0.453l1.054,0l0,0.453c0.883,-1.079 3.165,-0.331 2.847,1.177c-0.428,-0.001 -1.262,-0.001 -1.262,-0.001Z" style="fill:#e300a7;fill-rule:nonzero;"/><path d="M567.084,665.558l0,0.417l-3.337,0c-0.159,0.527 0.061,1.056 0.504,1.35c0.906,0.614 1.619,-0.136 1.619,-0.136l1.043,0c0.049,0.013 0.185,-0.184 0.185,-0.184l0.38,0c0,0 -0.109,0.135 -0.086,0.184c-1.325,1.963 -4.612,1.226 -4.612,-1.324c0,-1.535 0.882,-2.392 2.111,-2.392c2.219,0 2.501,1.299 2.501,2.084l-0.308,0l0,0.001Zm-3.361,-0.477l2.318,0c-0.122,-1.277 -2.048,-1.326 -2.318,0Z" style="fill:#e300a7;fill-rule:nonzero;"/><path d="M568.263,667.129c0.674,-0.185 1.103,0.785 0.33,1.043c-0.724,0.232 -1.166,-0.822 -0.33,-1.043Z" style="fill:#e300a7;fill-rule:nonzero;"/><path d="M568.115,661.988c-0.05,-0.013 -0.136,-0.086 -0.16,-0.122c0.308,-0.785 0.564,-2.502 1.152,-2.724c0.061,-0.024 0.296,0.136 0.271,0.246c-0.183,0.822 -0.956,2.072 -1.263,2.6Zm1.201,0.479c-0.232,-0.159 0.173,-1.104 0.43,-2.061l0.209,-0.503c0.013,-0.245 0.651,-0.406 0.627,-0.074c-0.1,0.97 -0.738,1.816 -1.266,2.638Z" style="fill:#e300a7;fill-rule:nonzero;"/><rect x="496.918" y="680.99" width="2.907" height="0.541" style="fill:#e300a7;"/><path d="M505.456,683.076c-4.687,-0.21 -4.687,-6.919 0.145,-7.263c4.897,-0.343 5.767,7.005 0.628,7.263l-0.773,0Zm1.201,-5.877c0,0 0.036,-0.454 -0.858,-0.454c-0.786,0 -0.798,0.454 -0.798,0.454l-1.154,0c-0.944,1.423 -1.005,3.115 -0.036,4.527l1.19,0c0,0 0.036,0.392 0.798,0.392c0.834,0 0.858,-0.392 0.858,-0.392l1.178,0c0.994,-1.496 0.956,-3.079 0,-4.527l-1.178,0Z" style="fill:#e300a7;fill-rule:nonzero;"/><path d="M512.239,682.793l0,0.135l-0.982,0l0,-6.784c0,-0.563 -0.821,-1.128 -0.821,-1.128l0,-0.147l0.821,0l0,-0.233l0.883,0l0,4.16c0,0 0.613,-0.381 1.068,-0.381l0.809,0c2.22,0 2.502,2.919 0.835,4.233c-0.687,0.551 -2.613,0.145 -2.613,0.145Zm0.895,-4.011c-1.521,0.146 -1.534,4.317 0.613,3.779c1.829,-0.443 1.62,-3.988 -0.613,-3.779Z" style="fill:#e300a7;fill-rule:nonzero;"/><path d="M515.993,682.72l-0.098,-1.398l0.245,0l0.209,0.295l0.613,0.05c0.368,0.869 1.902,0.882 2.062,0.158c0.269,-1.215 -1.84,-0.674 -2.762,-1.754c-0.833,-0.994 0.687,-2.479 1.779,-2.134l1.878,0.282l0,1.336l-0.161,0c0,0 -0.098,-0.466 -0.882,-0.258c-0.159,-0.798 -1.607,-0.932 -1.692,-0.147c-0.16,1.313 2.648,0.369 2.919,2.025c0.405,2.441 -2.748,1.951 -4.11,1.545Z" style="fill:#e300a7;fill-rule:nonzero;"/><path d="M520.839,681.002l0,-0.994c0,-2.123 2.54,-2.207 3.791,-1.779l0.196,1.828l-0.172,0c0,0 -0.208,-0.601 -0.968,-0.601c0,-0.638 -0.479,-0.515 -0.896,-0.515c-0.662,0 -0.969,0.761 -0.969,1.608c0,0.809 0.099,1.543 1.215,1.543c0.403,0 0.675,-0.392 0.65,-0.661l0.907,0l0,0.467l0.479,0c-0.883,1.62 -4.233,1.509 -4.233,-0.896Z" style="fill:#e300a7;fill-rule:nonzero;"/><path d="M529.487,682.928l0,-0.638c0,0 -3.301,1.806 -3.301,-0.476l0,-2.919c0,-0.443 -0.722,-0.505 -0.835,-0.515l0,-0.186l0.835,0l0,-0.171l1.045,0l0,1.816c0,1.065 -0.369,3.3 2.256,1.815l0,-2.699c0,-0.626 -0.883,-0.575 -0.883,-0.575l0,-0.186l1.951,-0.098l0,4.832l-1.068,0Z" style="fill:#e300a7;fill-rule:nonzero;"/><path d="M534.824,679.616c0,0 0.245,-0.467 -0.013,-0.688c-0.332,-0.269 -1.57,-0.71 -1.57,1.487l0,1.678c0,0.799 0.809,0.688 0.809,0.688l0,0.135l-2.674,0l0,-0.135c0,0 0.822,0.146 0.822,-0.7l0,-2.907c0,-0.417 -0.786,-0.478 -0.786,-0.478l0,-0.146l0.772,-0.111l0,-0.454l1.056,0l0,0.454c0.883,-1.079 3.165,-0.331 2.845,1.178c-0.427,-0.001 -1.261,-0.001 -1.261,-0.001Z" style="fill:#e300a7;fill-rule:nonzero;"/><path d="M540.981,680.28l0,0.415l-3.336,0c-0.16,0.529 0.06,1.056 0.501,1.35c0.91,0.613 1.621,-0.135 1.621,-0.135l1.043,0c0.05,0.012 0.184,-0.185 0.184,-0.185l0.381,0c0,0 -0.11,0.135 -0.087,0.185c-1.325,1.963 -4.612,1.227 -4.612,-1.325c0,-1.533 0.882,-2.392 2.109,-2.392c2.223,0 2.503,1.299 2.503,2.086l-0.307,0l0,0.001Zm-3.361,-0.481l2.318,0c-0.123,-1.275 -2.048,-1.323 -2.318,0Z" style="fill:#e300a7;fill-rule:nonzero;"/><path d="M545.116,682.941l-0.454,-2.392c0.036,0 0.134,-0.037 0.171,-0.037c0.172,0.785 0.712,0.6 1.081,0.466c0.109,0.392 0.588,1.055 1.128,1.092c0.294,0.011 1.068,-0.196 1.116,-0.712c0.135,-1.202 -1.534,-1.338 -2.649,-2.356c-0.65,-0.577 -0.748,-1.866 0.147,-2.687c1.116,-1.019 2.38,-0.196 3.558,-0.185c0,0 -0.209,1.092 0.073,1.84l-0.221,0c-0.147,-0.159 -0.259,-0.577 -0.921,-0.244c-0.073,-1.448 -2.662,-1.031 -1.949,0.294c0.551,0.993 3.079,1.005 3.102,2.919c0.024,2.567 -2.661,2.05 -4.182,2.002Z" style="fill:#e300a7;fill-rule:nonzero;"/><path d="M552.598,677.863c2.98,-0.591 4.527,4.465 0.355,5.274c-2.81,0.54 -4.464,-4.465 -0.355,-5.274Zm0.111,0.722c-1.804,0.368 -1.804,3.89 0.147,3.753c1.961,-0.133 1.802,-4.144 -0.147,-3.753Z" style="fill:#e300a7;fill-rule:nonzero;"/><path d="M559.8,682.928l0,-0.638c0,0 -3.303,1.806 -3.303,-0.476l0,-2.919c0,-0.443 -0.723,-0.505 -0.834,-0.515l0,-0.186l0.834,0l0,-0.171l1.045,0l0,1.816c0,1.065 -0.368,3.3 2.258,1.815l0,-2.699c0,-0.626 -0.885,-0.575 -0.885,-0.575l0,-0.186l1.951,-0.098l0,4.832l-1.066,0Z" style="fill:#e300a7;fill-rule:nonzero;"/><path d="M567.575,682.928l-2.648,0l0,-0.135c0,0 0.809,0.073 0.809,-0.613l0,-2.403c0,-1.362 -2.234,-1.264 -2.234,0l0,3.151l-1.066,0l0,-3.151c0,-1.277 -0.774,-0.922 -0.774,-0.922l0,-0.221l0.774,-0.196l0,-0.404l1.066,0l0,0.442c2.344,-1.081 3.301,-0.05 3.301,1.3l0,2.403c0,0.686 0.772,0.638 0.772,0.638l0,0.111Z" style="fill:#e300a7;fill-rule:nonzero;"/><path d="M571.219,682.916l0,-0.355c-0.38,0.417 -0.845,0.538 -1.411,0.552c-1.239,0.025 -2.06,-1.336 -2.06,-2.367c0,-1.103 0.686,-2.588 2.072,-2.588c0.921,0 1.348,0.625 1.436,0.552c0,0 0.011,-0.061 0,-2.552l1.005,0l0,5.827c0,0.725 0.932,0.761 0.932,0.761l0,0.171l-1.974,0l0,-0.001Zm0.112,-3.078c0,-1.827 -2.884,-1.51 -2.884,0.907c0,1.497 2.884,3.079 2.884,0.269l0,-1.176Z" style="fill:#e300a7;fill-rule:nonzero;"/></g><g><path d="M324.859,307.696l0,-5.812c0,-2.034 -0.639,-3.198 -2.557,-3.198c-2.093,0 -2.558,1.163 -2.558,3.198c0,6.974 14.761,9.008 14.761,21.794c0,7.788 -4.183,11.391 -12.263,11.391c-6.16,0 -12.146,-2.092 -12.146,-9.241l0,-7.671l9.648,0l0,7.147c0,2.441 0.756,3.139 2.558,3.139c1.568,0 2.557,-0.697 2.557,-3.139c0,-9.357 -14.762,-9.531 -14.762,-22.898c0,-7.497 4.941,-10.345 12.379,-10.345c6.509,0 12.03,2.209 12.03,9.125l0,6.51l-9.647,0Z" style="fill:#e300a7;fill-rule:nonzero;"/><path d="M350.008,330.362l-0.116,0c-1.105,2.383 -2.79,4.301 -6.452,4.301c-4.009,0 -6.451,-2.44 -6.451,-6.8l0,-4.94c0,-8.717 13.019,-7.672 13.019,-13.832c0,-1.336 -0.407,-2.441 -1.918,-2.441c-1.511,0 -1.917,1.105 -1.917,2.441l0,3.661l-9.183,0l0,-3.08c0,-6.684 5.579,-9.067 11.1,-9.067c5.521,0 11.1,2.383 11.1,9.067l0,24.584l-9.182,0l0,-3.894Zm-3.836,-4.649c0,1.163 0.813,1.744 1.684,1.744c1.919,0 2.152,-1.279 2.152,-4.244l0,-5.753c-1.802,1.278 -3.835,2.034 -3.835,4.65l0,3.603l-0.001,0Z" style="fill:#e300a7;fill-rule:nonzero;"/><path d="M361.189,307.057l0,-6.044l3.082,0l0,-5.987l9.181,0l0,5.987l4.01,0l0,6.044l-4.01,0l0,18.133c0,1.976 0.058,3.022 2.209,3.022l1.801,0l0,6.044l-7.496,0c-4.592,0 -5.695,-2.557 -5.695,-6.916l0,-20.283l-3.082,0Z" style="fill:#e300a7;fill-rule:nonzero;"/><path d="M392.574,330.13l-0.116,0c-0.872,2.906 -3.081,4.532 -6.684,4.532c-4.126,0 -6.217,-2.848 -6.217,-7.613l0,-26.037l9.181,0l0,23.073c0,1.454 0.117,3.022 1.861,3.022c1.744,0 1.976,-1.569 1.976,-3.022l0,-23.073l9.183,0l0,33.244l-9.183,0l0,-4.126l-0.001,0Z" style="fill:#e300a7;fill-rule:nonzero;"/><path d="M413.667,305.371l0.174,0c1.22,-2.906 3.255,-4.766 6.625,-4.766c4.65,0 6.219,3.081 6.219,6.509l0,11.857l-9.183,0l0,-8.079c0,-1.337 -0.407,-2.731 -1.918,-2.731c-1.51,0 -1.917,1.395 -1.917,2.731l0,23.363l-9.183,0l0,-33.244l9.183,0l0,4.36Z" style="fill:#e300a7;fill-rule:nonzero;"/><path d="M442.174,330.072l-0.116,0c-0.466,3.312 -2.964,4.591 -6.335,4.591c-5.057,0 -6.567,-4.301 -6.567,-8.31l0,-18.366c0,-4.242 1.743,-7.381 6.392,-7.381c3.371,0 5.696,1.918 6.509,4.941l0.116,0l0,-12.67l9.183,0l0,41.38l-9.183,0l0,-4.185l0.001,0Zm-3.834,-5.231c0,1.453 0.813,2.266 1.916,2.266c1.105,0 1.918,-0.814 1.918,-2.266l0,-14.414c0,-1.453 -0.813,-2.266 -1.918,-2.266c-1.103,0 -1.916,0.813 -1.916,2.266l0,14.414Z" style="fill:#e300a7;fill-rule:nonzero;"/><path d="M466.847,330.362l-0.116,0c-1.105,2.383 -2.789,4.301 -6.452,4.301c-4.009,0 -6.451,-2.44 -6.451,-6.8l0,-4.94c0,-8.717 13.019,-7.672 13.019,-13.832c0,-1.336 -0.407,-2.441 -1.918,-2.441c-1.51,0 -1.917,1.105 -1.917,2.441l0,3.661l-9.183,0l0,-3.08c0,-6.684 5.58,-9.067 11.1,-9.067c5.521,0 11.101,2.383 11.101,9.067l0,24.584l-9.183,0l0,-3.894Zm-3.836,-4.649c0,1.163 0.813,1.744 1.685,1.744c1.918,0 2.151,-1.279 2.151,-4.244l0,-5.753c-1.802,1.278 -3.836,2.034 -3.836,4.65l0,3.603Z" style="fill:#e300a7;fill-rule:nonzero;"/><path d="M486.776,301.013l3.081,22.956l0.116,0l3.081,-22.956l7.73,0l-7.44,35.046c-0.756,3.777 -3.428,5.637 -7.439,5.637l-7.381,0l0,-6.044l4.765,0c1.221,0 1.627,-0.291 1.627,-0.931c0,-0.464 -0.116,-0.871 -0.232,-1.453l-7.207,-32.255l9.299,0Z" style="fill:#e300a7;fill-rule:nonzero;"/></g><g><path d="M354.131,356.762l3.208,24.827l-5.752,0l-0.664,-6.103l-3.139,0l-0.941,6.103l-4.881,0l4.219,-24.827l7.95,0Zm-3.625,14.96l-1.011,-11.054l-0.07,0l-1.011,11.054l2.092,0Z" style="fill:#e300a7;fill-rule:nonzero;"/><path d="M366.466,379.113l-0.068,0c-0.524,1.743 -1.849,2.72 -4.01,2.72c-2.476,0 -3.731,-1.708 -3.731,-4.568l0,-15.621l5.51,0l0,13.842c0,0.872 0.068,1.814 1.116,1.814c1.045,0 1.184,-0.942 1.184,-1.814l0,-13.842l5.511,0l0,19.945l-5.511,0l0,-2.476l-0.001,0Z" style="fill:#e300a7;fill-rule:nonzero;"/><path d="M387.069,379.671c0,5.544 -4.359,6.381 -6.8,6.381c-4.218,0 -6.52,-2.093 -6.52,-4.219l0,-1.953l5.51,0l0,1.326c0,0.697 0.279,1.219 1.15,1.219c0.872,0 1.15,-0.522 1.15,-1.219l0,-4.952l-0.103,0c-0.175,1.709 -1.57,2.929 -3.348,2.929c-3.243,0 -4.358,-2.126 -4.358,-5.021l0,-8.16c0,-3.173 1.708,-4.602 3.59,-4.602c2.232,0 3.348,1.011 4.116,2.824l0.07,0l0,-2.58l5.544,0l0,18.027l-0.001,0Zm-7.811,-6.521c0,0.733 0.243,1.5 1.15,1.5c0.907,0 1.15,-0.767 1.15,-1.5l0,-5.718c0,-0.733 -0.243,-1.5 -1.15,-1.5c-0.907,0 -1.15,0.767 -1.15,1.5l0,5.718Z" style="fill:#e300a7;fill-rule:nonzero;"/><path d="M396.691,379.113l-0.069,0c-0.523,1.743 -1.849,2.72 -4.01,2.72c-2.477,0 -3.731,-1.708 -3.731,-4.568l0,-15.621l5.51,0l0,13.842c0,0.872 0.069,1.814 1.115,1.814c1.047,0 1.185,-0.942 1.185,-1.814l0,-13.842l5.51,0l0,19.945l-5.51,0l0,-2.476l0,0Z" style="fill:#e300a7;fill-rule:nonzero;"/><path d="M411.682,368.687l0,-2.161c0,-0.838 -0.278,-1.499 -1.151,-1.499c-0.871,0 -1.15,0.661 -1.15,1.499c0,3.416 7.706,2.789 7.706,9.275c0,3.94 -2.372,6.032 -6.974,6.032c-3.522,0 -6.241,-1.36 -6.241,-4.951l0,-3.174l5.509,0l0,2.998c0,0.837 0.279,1.5 1.15,1.5c0.873,0 1.151,-0.663 1.151,-1.5c0,-4.741 -7.81,-3.277 -7.81,-9.763c0,-3.975 2.823,-5.544 6.45,-5.544c4.184,0 6.87,1.639 6.87,4.985l0,2.301l-5.51,0l0,0.002Z" style="fill:#e300a7;fill-rule:nonzero;"/><path d="M418.609,365.27l0,-3.626l1.847,0l0,-3.592l5.51,0l0,3.592l2.405,0l0,3.626l-2.405,0l0,10.879c0,1.185 0.035,1.813 1.326,1.813l1.08,0l0,3.627l-4.496,0c-2.755,0 -3.419,-1.535 -3.419,-4.15l0,-12.169l-1.848,0Z" style="fill:#e300a7;fill-rule:nonzero;"/><path d="M452.711,377.962l0,3.627l-14.713,0l0,-3.069c0,-7.985 8.926,-11.542 8.926,-16.492c0,-1.221 -0.558,-1.779 -1.571,-1.779c-1.01,0 -1.569,0.558 -1.569,1.779l0,3.591l-5.787,0l0,-2.72c0,-6.032 4.253,-6.625 7.53,-6.625c3.313,0 7.183,1.325 7.183,6.555c0,5.718 -5.404,8.264 -8.019,12.727c-0.454,0.802 -0.908,1.395 -0.908,2.406l8.928,0Z" style="fill:#e300a7;fill-rule:nonzero;"/><path d="M460.258,372.035l0,4.184c0,1.011 0.279,1.882 1.465,1.882c1.185,0 1.498,-0.871 1.498,-1.882l0,-3.139c0,-2.126 -1.185,-2.232 -2.754,-2.232l-1.953,0l0,-3.974l2.232,0c1.255,0 2.476,-0.489 2.476,-2.197l0,-2.893c0,-0.837 -0.556,-1.535 -1.498,-1.535c-1.499,0 -1.465,1.535 -1.465,2.685l0,2.754l-5.788,0l0,-3.556c0,-4.777 4.429,-5.858 7.184,-5.858c3.59,0 7.357,1.395 7.357,5.544l0,1.569c0,3.522 -1.395,4.777 -3.591,5.266c-0.035,0.035 -0.035,0.035 -0.035,-0.035l0,0.209c2.232,0.314 3.627,1.291 3.627,4.498l0,2.754c0,4.289 -3.346,5.998 -7.358,5.998c-4.603,0 -7.183,-1.744 -7.183,-5.788l0,-4.254l5.786,0Z" style="fill:#e300a7;fill-rule:nonzero;"/><path d="M476.235,364.26l0.103,0c0.731,-1.744 1.952,-2.859 3.975,-2.859c2.79,0 3.731,1.848 3.731,3.904l0,7.114l-5.511,0l0,-4.847c0,-0.802 -0.243,-1.64 -1.149,-1.64c-0.907,0 -1.15,0.837 -1.15,1.64l0,14.017l-5.511,0l0,-19.945l5.511,0l0,2.616l0.001,0Z" style="fill:#e300a7;fill-rule:nonzero;"/><path d="M493.525,379.078l-0.069,0c-0.278,1.988 -1.778,2.755 -3.8,2.755c-3.034,0 -3.94,-2.581 -3.94,-4.987l0,-11.018c0,-2.545 1.045,-4.428 3.835,-4.428c2.023,0 3.419,1.151 3.906,2.963l0.069,0l0,-7.602l5.51,0l0,24.827l-5.51,0l0,-2.51l-0.001,0Zm-2.3,-3.138c0,0.872 0.489,1.36 1.151,1.36c0.663,0 1.15,-0.488 1.15,-1.36l0,-8.647c0,-0.872 -0.487,-1.36 -1.15,-1.36c-0.662,0 -1.151,0.489 -1.151,1.36l0,8.647Z" style="fill:#e300a7;fill-rule:nonzero;"/><path d="M523.865,377.962l0,3.627l-14.714,0l0,-3.069c0,-7.985 8.926,-11.542 8.926,-16.492c0,-1.221 -0.558,-1.779 -1.57,-1.779c-1.012,0 -1.569,0.558 -1.569,1.779l0,3.591l-5.788,0l0,-2.72c0,-6.032 4.254,-6.625 7.531,-6.625c3.313,0 7.183,1.325 7.183,6.555c0,5.718 -5.404,8.264 -8.02,12.727c-0.453,0.802 -0.907,1.395 -0.907,2.406l8.928,0Z" style="fill:#e300a7;fill-rule:nonzero;"/><path d="M540.269,375.312c0,4.742 -2.86,6.765 -7.323,6.765c-4.393,0 -7.357,-2.022 -7.357,-6.765l0,-11.785c0,-5.858 4.184,-7.253 7.427,-7.253c3.94,0 7.253,1.395 7.253,7.253l0,11.785Zm-5.789,-13.39c0,-1.22 -0.663,-1.673 -1.568,-1.673c-0.908,0 -1.535,0.453 -1.535,1.673l0,14.506c0,1.22 0.627,1.672 1.535,1.672c0.905,0 1.568,-0.452 1.568,-1.672l0,-14.506Z" style="fill:#e300a7;fill-rule:nonzero;"/><path d="M556.606,375.312c0,4.742 -2.859,6.765 -7.323,6.765c-4.393,0 -7.358,-2.022 -7.358,-6.765l0,-11.785c0,-5.858 4.184,-7.253 7.428,-7.253c3.94,0 7.252,1.395 7.252,7.253l0,11.785l0.001,0Zm-5.788,-13.39c0,-1.22 -0.663,-1.673 -1.569,-1.673c-0.908,0 -1.535,0.453 -1.535,1.673l0,14.506c0,1.22 0.627,1.672 1.535,1.672c0.906,0 1.569,-0.452 1.569,-1.672l0,-14.506Z" style="fill:#e300a7;fill-rule:nonzero;"/><path d="M573.19,375.801c0,4.393 -3.521,6.276 -7.67,6.276c-4.429,0 -7.323,-2.092 -7.323,-6.415l0,-2.686c0,-2.476 1.812,-4.009 3.87,-4.324l0,-0.14c-1.917,-0.349 -3.87,-1.778 -3.87,-4.429l0,-1.883c0,-4.742 4.497,-5.928 7.671,-5.928c3.696,0 7.322,1.325 7.322,5.858l0,2.197c0,1.918 -1.779,3.766 -3.904,4.184l0,0.14c2.056,0.454 3.904,1.081 3.904,5.021l0,2.129Zm-9.204,-10.217c0,1.22 0.662,1.464 1.674,1.464c1.045,0 1.743,-0.209 1.743,-1.604l0,-3.522c0,-1.15 -0.523,-1.673 -1.708,-1.673c-1.185,0 -1.708,0.697 -1.708,1.639l0,3.696l-0.001,0Zm0,11.193c0,1.081 0.767,1.324 1.778,1.324c1.046,0 1.639,-0.278 1.639,-1.324l0,-4.428c0,-1.046 -0.488,-1.674 -1.743,-1.674c-1.291,0 -1.674,0.697 -1.674,1.639l0,4.463Z" style="fill:#e300a7;fill-rule:nonzero;"/><path d="M342.067,395.401l0,-3.767l13.877,0l0,3.767l-4.044,0l0,21.06l-5.787,0l0,-21.06l-4.046,0Z" style="fill:#e300a7;fill-rule:nonzero;"/><path d="M357.467,416.461l0,-24.827l5.788,0l0,9.207l3.068,0l0,-9.207l5.788,0l0,24.827l-5.788,0l0,-11.855l-3.068,0l0,11.855l-5.788,0Z" style="fill:#e300a7;fill-rule:nonzero;"/><path d="M373.899,416.461l0,-24.827l11.996,0l0,3.767l-6.208,0l0,5.439l5.998,0l0,3.765l-5.998,0l0,8.09l6.208,0l0,3.766l-11.996,0Z" style="fill:#e300a7;fill-rule:nonzero;"/><path d="M400.261,416.461l-4.637,0l0,-24.827l8.509,0l2.44,17.645l0.069,0l2.441,-17.645l8.333,0l0,24.827l-5.23,0l0,-21.199l-0.069,0l-3.347,21.199l-5.09,0l-3.348,-21.199l-0.07,0l0,21.199l-0.001,0Z" style="fill:#e300a7;fill-rule:nonzero;"/><path d="M427.637,416.461l0,-24.827l5.823,0c5.509,0 8.786,0.558 8.786,5.79c0,3.102 -1.29,5.126 -4.427,5.647l0,0.069c2.789,0.07 4.427,1.117 4.427,4.674l0,5.194c0,0.977 0.175,2.441 0.873,3.452l-5.823,0c-0.698,-1.01 -0.837,-2.475 -0.837,-3.452l0,-5.265c0,-1.744 -1.045,-2.615 -2.093,-2.615l-0.941,0l0,11.333l-5.788,0Zm5.787,-14.888c2.615,0 3.034,-0.872 3.034,-3.209c0,-2.301 -0.385,-3.173 -3.034,-3.173l0,6.382Z" style="fill:#e300a7;fill-rule:nonzero;"/><path d="M458.615,409.697c0,5.683 -3.487,7.251 -7.323,7.251c-3.835,0 -7.322,-1.568 -7.322,-7.251l0,-11.297c0,-5.683 3.487,-7.253 7.322,-7.253c3.836,0 7.323,1.57 7.323,7.253l0,11.297Zm-8.857,1.324c0,1.013 0.313,1.953 1.534,1.953c1.221,0 1.535,-0.94 1.535,-1.953l0,-13.947c0,-1.01 -0.314,-1.952 -1.535,-1.952c-1.221,0 -1.534,0.942 -1.534,1.952l0,13.947Z" style="fill:#e300a7;fill-rule:nonzero;"/><path d="M474.936,409.697c0,5.683 -3.487,7.251 -7.323,7.251c-3.835,0 -7.322,-1.568 -7.322,-7.251l0,-11.297c0,-5.683 3.487,-7.253 7.322,-7.253c3.836,0 7.323,1.57 7.323,7.253l0,11.297Zm-8.858,1.324c0,1.013 0.313,1.953 1.534,1.953c1.221,0 1.535,-0.94 1.535,-1.953l0,-13.947c0,-1.01 -0.313,-1.952 -1.535,-1.952c-1.22,0 -1.534,0.942 -1.534,1.952l0,13.947Z" style="fill:#e300a7;fill-rule:nonzero;"/><path d="M481.29,416.461l-4.637,0l0,-24.827l8.508,0l2.441,17.645l0.07,0l2.441,-17.645l8.334,0l0,24.827l-5.23,0l0,-21.199l-0.069,0l-3.347,21.199l-5.091,0l-3.348,-21.199l-0.069,0l0,21.199l-0.003,0Z" style="fill:#e300a7;fill-rule:nonzero;"/><path d="M342.347,451.334l0,-24.827l7.077,0c4.603,0 7.568,1.046 7.568,5.336l0,4.532c0,3.731 -3.313,5.369 -6.731,5.369l-2.126,0l0,9.589l-5.788,0l0,0.001Zm5.788,-13.146l0.907,0c2.023,0 2.161,-1.116 2.161,-4.044c0,-2.93 -0.139,-4.08 -2.161,-4.08l-0.907,0l0,8.124Z" style="fill:#e300a7;fill-rule:nonzero;"/><path d="M358.667,451.334l0,-24.827l5.789,0l0,9.207l3.066,0l0,-9.207l5.79,0l0,24.827l-5.79,0l0,-11.855l-3.066,0l0,11.855l-5.789,0Z" style="fill:#e300a7;fill-rule:nonzero;"/><rect x="375.081" y="426.507" width="5.788" height="24.826" style="fill:#e300a7;"/><path d="M382.567,451.334l0,-24.827l5.789,0l0,21.062l6.277,0l0,3.765l-12.066,0Z" style="fill:#e300a7;fill-rule:nonzero;"/><path d="M407.97,426.507l3.208,24.827l-5.753,0l-0.663,-6.102l-3.138,0l-0.941,6.102l-4.883,0l4.219,-24.827l7.951,0Zm-3.626,14.959l-1.011,-11.054l-0.07,0l-1.011,11.054l2.092,0Z" style="fill:#e300a7;fill-rule:nonzero;"/><path d="M412.686,426.507l5.964,0c6.486,0 8.681,1.046 8.681,8.473l0,8.857c0,4.707 -1.395,7.496 -8.681,7.496l-5.964,0l0,-24.826Zm5.789,21.271c2.824,0 3.068,-1.082 3.068,-3.452l0,-10.217c0,-3.312 -0.14,-4.044 -3.068,-4.044l0,17.713Z" style="fill:#e300a7;fill-rule:nonzero;"/><path d="M429.003,451.334l0,-24.827l11.995,0l0,3.767l-6.207,0l0,5.439l5.998,0l0,3.765l-5.998,0l0,8.09l6.207,0l0,3.765l-11.995,0l0,0.001Z" style="fill:#e300a7;fill-rule:nonzero;"/><path d="M442.352,451.334l0,-24.827l5.789,0l0,21.062l6.276,0l0,3.765l-12.065,0Z" style="fill:#e300a7;fill-rule:nonzero;"/><path d="M455.772,451.334l0,-24.827l7.078,0c4.602,0 7.567,1.046 7.567,5.336l0,4.532c0,3.731 -3.313,5.369 -6.73,5.369l-2.127,0l0,9.589l-5.788,0l0,0.001Zm5.788,-13.146l0.907,0c2.023,0 2.161,-1.116 2.161,-4.044c0,-2.93 -0.139,-4.08 -2.161,-4.08l-0.907,0l0,8.124Z" style="fill:#e300a7;fill-rule:nonzero;"/><path d="M472.091,451.334l0,-24.827l5.789,0l0,9.207l3.067,0l0,-9.207l5.789,0l0,24.827l-5.789,0l0,-11.855l-3.067,0l0,11.855l-5.789,0Z" style="fill:#e300a7;fill-rule:nonzero;"/><rect x="488.506" y="426.507" width="5.788" height="24.826" style="fill:#e300a7;"/><path d="M507.865,426.507l3.209,24.827l-5.754,0l-0.663,-6.102l-3.138,0l-0.942,6.102l-4.882,0l4.219,-24.827l7.951,0Zm-3.626,14.959l-1.011,-11.054l-0.07,0l-1.011,11.054l2.092,0Z" style="fill:#e300a7;fill-rule:nonzero;"/><path d="M512.226,455.796l1.325,-10.319l5.545,0l-3.278,10.319l-3.592,0Z" style="fill:#e300a7;fill-rule:nonzero;"/><path d="M520.664,451.334l0,-24.827l7.078,0c4.603,0 7.567,1.046 7.567,5.336l0,4.532c0,3.731 -3.313,5.369 -6.729,5.369l-2.127,0l0,9.589l-5.789,0l0,0.001Zm5.789,-13.146l0.906,0c2.023,0 2.161,-1.116 2.161,-4.044c0,-2.93 -0.139,-4.08 -2.161,-4.08l-0.906,0l0,8.124Z" style="fill:#e300a7;fill-rule:nonzero;"/><path d="M547.754,426.507l3.207,24.827l-5.752,0l-0.663,-6.102l-3.139,0l-0.941,6.102l-4.882,0l4.218,-24.827l7.952,0Zm-3.625,14.959l-1.012,-11.054l-0.069,0l-1.012,11.054l2.093,0Z" style="fill:#e300a7;fill-rule:nonzero;"/></g><path d="M50.212,259.919l-3.939,12.799l19.691,129.96l12.799,-8.87l-28.551,-133.889Z" style="fill:#e300a7;"/></g></svg>