<svg clip-rule="evenodd" fill-rule="evenodd" stroke-linejoin="round" stroke-miterlimit="1.41421" viewBox="0 0 250 300" xmlns="http://www.w3.org/2000/svg"><path d="m0-3h385.745v302.25h-385.745z" fill="#9f0019"/><path d="m64.75-3-17.479 28.401 9.172 26.108s-.269 4.205-.104 5.36c.164 1.156 1.816 5.615 2.642 6.936.827 1.321.827 5.12 1.982 6.605 1.155 1.486 3.468 4.625 4.624 5.286 1.157.66 6.276 3.798 6.606 4.624.33.825 4.624 14.532 5.45 16.514.825 1.981 4.292 14.038 4.788 15.193.495 1.157.331 2.808.66 3.469.331.659-24.773 22.789-26.754 27.083-1.982 4.293-3.302 31.545-4.459 35.838s-9.909 18.496-10.734 19.322c-.826.826-12.384 19.817-15.028 21.304-2.642 1.487-3.633 8.753-2.147 10.734s6.77 7.431 7.596 7.927c.826.495 8.918-11.56 8.918-11.56s2.808.66 3.799 2.311c.991 1.653 4.458 8.094 4.788 12.387.331 4.293 2.808 11.56 3.303 13.047.496 1.487 1.982 6.44 1.982 6.44l-.33 5.946s-13.047 28.9-14.864 31.708c-1.816 2.807-13.871 23.781-15.688 25.267-1.817 1.485-6.11 11.891-6.771 13.212-.66 1.321-6.936 13.211-7.761 14.533-.826 1.322-4.955 10.569-5.781 11.891-.826 1.321-2.147 3.633-2.147 4.459s.495 5.119.495 6.276c0 1.156 3.137 4.789 3.469 5.45.33.66.165 7.102.165 7.761 0 .661 1.156 3.798 2.476 4.293 1.322.497 8.752 4.294 10.074 5.12 1.322.827 10.24.165 10.24.165s1.65-2.313.989-4.129c-.66-1.817.992-2.311 1.652-2.807s3.303-2.311 3.965-2.643c.659-.33 1.98-.329 2.476-.825.495-.496 1.322-3.469.661-4.624-.661-1.157-3.303-3.138-3.303-3.138s-1.321-14.204-.991-15.194 3.633-9.412 3.302-12.221c-.33-2.806-2.311-6.935-1.651-8.257.66-1.321 18.661-18.001 19.817-19.322s13.873-12.881 14.203-13.542c.331-.661 2.973-1.487 3.633-.66.66.826 1.487 1.487 1.322 2.312-.165.826-.002 7.596-.165 8.422-.165.826-2.809 6.606-2.809 7.927s-.495 5.119 0 6.109c.496.992 2.312 5.286 1.982 6.111-.33.826-2.972 6.277-3.632 7.762-.661 1.485-5.451 14.202-6.606 15.688-1.157 1.486-6.111 6.77-6.772 7.762-.659.991-5.614 7.266-6.44 8.918s-4.292 9.084-4.954 10.074c-.663.991-.661 4.129-1.157 4.955-.497.826-5.45 8.092-5.946 9.247-.495 1.156-7.926 14.204-8.752 15.36-.825 1.156-6.236 2.986-6.236 2.986l-22.4.489v-426.17h64.63z" fill-rule="nonzero"/><path d="m109.596 68.51c4.112 1.436-1.477 5.57-2.38 7.139-3.105-.425 2.067-4.977 2.38-7.139z"/><path d="m127.047 73.27c1.592-.27 2.482.161 2.38 1.586-.793 0-1.586 0-2.38 0 0-.528 0-1.056 0-1.586z"/><path d="m114.355 84.377c-.077 2.039-3.096 1.134-3.173 3.174 3.524-.89 7.339-1.544 11.106-1.587 1.714-.02 3.111-1.624 3.966-1.587.59.027 1.462 1.496 2.381 1.587 2.096.208 6.113-1.578 5.553 2.379-10.739.286-22.266 2.956-28.56 3.174 1.185-2.88 2.048-4.319 2.381-6.347 2.941.562 3.405-1.356 6.346-.793z"/><path d="m125.462 93.896c1.183 1.754-2.518 5.385-6.348 4.76.713-1.403 1.915-2.317 2.381-3.967 1.152-.433 4.099.928 3.967-.793z"/><path d="m138.154 102.622c6.315 1.353 8.848 6.489 11.106 11.9-4.568-.243-8.083-1.409-11.9-1.586 1.448-4.215-.568-6.406.794-10.314z"/><path d="m104.835 118.488c1.975-.759-2.244-6.112-3.966-3.173-.807-.516-.821-1.824-2.381-1.587 1.76-2.61.829-3.432 0-7.933 1.756 1.684 4.564 2.312 5.554 4.76 1.932-2.321 4.083-.333 7.139.794 2.085.235.624-3.078 3.173-2.38-1.166 3.017 3.546.156 2.38 3.173 1.011-1.105 3.886-.345 3.967-2.38 1.359-.135 3.119 4.499 3.173.794 2.164-.578 1.597 1.576 3.173 1.586-3.598 4.449-12.632.555-17.452 2.38 6.22 3.703-4.636 7.023-7.14 9.52.642.629.835 4.861-1.585 4.76.231-1.842 1.993-3.718-1.587-3.174.179-1.143 2.367-.276 2.38-1.586-.522-2.376-1.696.759-3.174 0 .325-1.911-1.448-1.725-.793-3.967 5.987 1.904 4.255-4.055 7.139-1.587zm5.553-2.38c-1.412.475-3.294-2.325-3.967 0 .482.458 3.764 1.857 3.967 0z"/><path d="m95.316 108.175c1.282-.223 1.366.751 2.38.794.314 1.538-3.614 1.159-2.38-.794z"/><path d="m84.21 126.421c2.464 2.261-.353 5.949-1.586 7.14-1.918-1.714 1.669-4.631 1.586-7.14z"/><path d="m120.702 129.595c1.377.721 2.05 2.779.794 3.966-2.02-.081-1.875-2.957-.794-3.966z"/><path d="m132.601 130.387c3.63 2.37-3.507 5.555-7.139 7.139-.598.262-3.807 3.032-6.348 2.381-1.099-.487-.119-3.054-1.585-3.173 5.428-1.71 11.068-3.211 15.072-6.347z"/><path d="m103.249 134.355c.587 3.495-2.567 3.249-3.174 5.553-.578 4.183-.141 9.378-3.966 10.313-.519-6.072.79-10.317 1.586-15.074 2.576.46 3.691-.541 5.554-.792z"/><path d="m101.663 140.7c.049-.055-.055-.783 0-.793 3.809-.673-3.768 5.099 0 .793z"/><path d="m134.982 213.684c-4.211 2.084-10.283-.094-11.901-3.174.858-5.769 13.785-3.516 11.901 3.174z"/><path d="m65.171 209.718c2.811.921 4.186 6.512 2.379 9.52-1.692-2.041-4.305-6.395-2.379-9.52z"/><path d="m161.159 216.858c1.402-.254 1.417 4.443-.793 3.173-.335-1.66.544-2.101.793-3.173z"/><path d="m64.377 219.237c.303-1.511 1.01.507.794 1.586-.303 1.511-1.01-.506-.794-1.586z"/><path d="m164.333 218.443c.976.346 1.629 1.015 1.586 2.38-.976-.346-1.629-1.015-1.586-2.38z"/><path d="m126.254 224.79c.674 1.707 2.921 1.839 5.554 1.587-.92 3.249-6.77 4.415-7.933 1.586-1.057.794-2.394 1.307-3.173 2.379-2.597-3.278-12.136 1.786-15.074-3.966 7.055-.35 15.856 1.047 20.626-1.586z"/><path d="m57.238 235.897c3.286-.113.826 5.519 1.587 7.932-2.207-.967-1.475-4.873-1.587-7.932z"/><path d="m99.282 250.176c.861.196.538 1.577 1.587 1.586-.246 1.077-1.987.658-3.174.793.517-.806 1.825-.82 1.587-2.379z"/><path d="m83.416 250.969c.956.896 1.438 2.265 3.967 1.586.181 1.407-.799 3.973 1.586 3.173-1.124 3.448-8.309-1.846-5.553-4.759z"/><path d="m76.277 255.728c.913-2.566.898 2.131.793 3.174-.913 2.567-.898-2.13-.793-3.174z"/><path d="m231.763 262.076c3.875.629.053 5.353.795 7.932-.995-1.859-1.75-6.58-.795-7.932z"/><path d="m90.557 283.494c1.466-.12.486-2.687 1.586-3.173 2.548 1.518 2.079 1.455 3.967 3.966-5.81-3.16-2.937 5.557-3.174 6.347-7.656-4.242-11.01-12.789-11.106-24.592 3.008 3.601 2.424 10.797 5.553 14.28 2.441-.555 1.525-.555 3.967 0-1.469 1.528-1.454.626-.793 3.172z"/><path d="m120.702 274.768c-4.137 4.592-8.102 2.768-14.28 3.967.73-1.385 2.48-1.752 4.76-1.587-3.552-2.889 6.458-3.116 9.52-2.38z"/><path d="m98.489 279.528c1.858.203.457 3.485 0 3.966-2.325-.671.474-2.553 0-3.966z"/><path d="m103.249 279.528h1.587v1.587h-1.587z"/><path d="m140.534 2.667c-.581-3.406 1.046 6.128 0 0z" fill="#fff"/><path d="m103.249 55.024c.552-2.667-1.631-2.6-2.379-3.967-3.567.165-5.727 4.973-9.521 2.381 4.017-4.611 9.04-5.761 19.039-5.554-3.616-5.844-15.781-2.959-22.212-3.967 5.247-8.127 19.675-5.565 28.559-3.173-.129.922.174 1.411.794 1.586-1.746 6.291-4.653 6.503-7.14 11.9-4.639-1.137-7.167 2.957-10.313.793.521-2.375 1.696.76 3.173.001zm3.967-3.967c-.055.011.049.738 0 .794-3.768 4.305 3.809-1.466 0-.794z"/><path d="m123.081 74.856c.222 2.462-8.519 1.449-10.313 1.587 1.448-4.159 8.866-1.036 10.313-1.587z"/><path d="m94.522 105.002c.445-2.298 1.238 1.217 2.38.793-.774 2.629-1.568-.886-2.38-.793z"/><path d="m104.835 133.561c-3.463.831-6.767-2.431-9.52-1.586-1.574-1.177 3.222-2.062 3.173-2.38.772.021.616.972.794 1.586 1.161.014 2.515-3.346 2.38 0 1.528-.323.627-3.076 3.173-2.379v1.585c.675.147.749-.309.793-.792 1.82 2.745-3.035.559-.793 3.966z"/><path d="m117.529 130.387c.552-1.967 1.517 3.42-.794 2.381-.224-1.282.749-1.366.794-2.381z"/><path d="m76.277 150.221c1.358 7.711-5.271 14.291-7.139 21.418-1.34-1.569-.867-4.951-1.587-7.139 5.798-1.871 6.994-8.343 8.726-14.279z"/><path d="m65.171 180.365c-.818 8.027-3.454 16.184-2.38 28.559-4.961-9.331-1.962-26.684 1.586-34.904 1.937 2.764-1.217 7.217-.794 11.106 1.314-.802.862-3.37 1.588-4.761z"/><path d="m194.478 222.41c-2.117-1.956-.55-4.058-2.38-7.139-2.566-.98-.606 2.567-3.173 1.587.181-1.407-.8-3.973 1.586-3.174-1.417-1.756-3.05-3.296-3.173-6.347-1.39 1.519-1.682 4.136-2.38 6.347-1.618-.443-1.555-2.387-3.173-.793.457 1.921 2.996 1.763 4.759 2.379.568 2.154-3.741-.567-3.174 1.587 1.06 1.321 3.529 1.231 4.761 2.379-.582 1.413-1.442.115-2.381 0 .339 1.513 2.267 1.436 1.587 3.967 4.391-.307 4.818 1.005 7.933 3.174 1.178-.347-.313-1.015 0-2.38 2.132-.547 1.533 1.64 2.379 2.38 2.489-1.78-1.093-4.132-1.586-5.554 4.045-1.49 4.96 5.039 7.14 8.726 2.525 4.268 5.658 7.014 7.139 11.9-2.109 3.471-3.453 7.21-2.38 11.9-.771-.021-.616-.97-.793-1.586-3.415 3.897-2.464 7.567-3.967 12.692 2.054-.847 4.75-11.073 3.967-7.139-.393 3.34-1.514 9.184-3.967 7.933.302 4.164 1.21 15.372-3.174 17.453.352.705.697 1.419 1.586 1.585-.93 1.741-4.495.298-7.139.794-3.649.687-1.251.824-4.759 0-9.427-2.215-26.308 6.031-30.146-.794 4.072 1.358 5.817.111 10.313.794-.779-1.072-2.117-1.585-3.173-2.379 1.113-2.311 2.733 1.406 4.759.793-2.568-1.535-.991-2.073.794-3.173.568-2.155-3.741.567-3.173-1.586-.241-2.093 1.655-2.047 3.173-2.381-.339-3.764-.688-3.879 0-7.139 2.495-.396 3.101 1.73 4.76 0-.118-1.734-1.999-1.702-3.967-1.585 2.444-3.332 1.743-1.962 0-5.554 2.032.084 3.782.449 4.76 1.586 2.027-1.318-3.096-2.13-2.38-4.759.638.42 1.287.827 2.38.794 0-.794 0-1.587 0-2.38-.781-2.223-2.117 1.152-3.174-.794-.624-2.739.741-3.489 2.38-3.967-.246-1.077-1.986-.659-3.174-.794-.807-4.697 1.642-1.212 2.381-3.966-.546-3.607-3.293-3.784-3.968-8.727-2.444-.592-.966 2.736-3.967 1.587-.122-1.975 1.248-2.456 1.587-3.967-.922-.129-1.412.175-1.587.794-.68-3.569 3.737-7.609 2.38-11.9-2.973.625-.05 2.774-1.586 3.966-2.837-.655.322-2.778-2.38-3.966 1.708.397 6.419-4.917 2.38-7.933-.93.128-.669 1.446-.794 2.38-1.005-1.375-2.681-2.079-2.379-4.76 3.005-2.279 6.773-.25 7.139-3.967 1.483.633 2.905 1.326 4.76 1.587.474-2.062-.318-2.856-2.38-2.381-1.264-1.976 4.493.514 5.553-.792-.516-.808-1.824-.821-1.586-2.381 1.16 1.137 2.514.609 2.379-1.586-.771.021-.616.971-.793 1.586-.772-.021-.616-.97-.793-1.586-1.143.445-1.937 1.237-2.38 2.38-1.982-.548 1.472-2.117.793-3.967-1.322-3.077-4.308.445-6.347-1.586-1.496 2.953-7.084 5.307-10.312 3.966 1.418-6.514 5.803-10.062 6.346-17.452 3.816 1.171.731-4.558 3.967-3.967.207-2.322-1.793-2.438-1.586-4.76 1.592.27 2.482-.161 2.38-1.586 4.6 1.22 6.766 1.733 9.52 3.174-1.347 15.355 9.235 24.237 13.486 36.491.595 2.442-2.174 1.525-1.583 3.966zm-15.072-8.726h1.586c0-.528 0-1.057 0-1.586-.529 0-1.057 0-1.586 0zm-7.141 4.759c.797-.002.944.643 1.587.794-.076-1.247.107-2.751-1.587-2.379z"/><path d="m210.344 252.555c-.876-.929.958-5.878 2.38-7.139 2.9 1.959 7.392 6.161.793 3.174-1.802.577-2.373 2.386-3.173 3.965z"/><path d="m219.071 251.762c-1.478-2.137 2.412 1.01 3.172 1.586.618-1.595-1.313-2.725-.793-7.139 2.659 1.59 1.404 11.262 4.76 9.519 1.665.223-1.15 2.119.793 3.174 1.349.292 1.496-.619 1.586-1.586 3.179 1.02-.218 1.64 0 3.968-3.439-2.909-6.443-6.251-9.518-9.522z"/><path d="m56.444 286.668c.145-1.731-.649-2.524-2.379-2.381.595-3.635 5.573-2.887 5.552-7.139 7.24 7.04 8.615 19.945 15.866 26.972.303 2.948-3.215 2.074-2.379 5.554-1.619-.233-1.555-2.147-3.174-2.38-12.937 11.656-26.656 22.528-37.285 36.492-2.013-4.028-5.643-11.782-2.38-14.28.243-.962-2.291-2.736-2.379-.794.518-3.978 11.965-10.574 8.726-15.865 1.808-.222 2.982.191 3.173 1.586 1.457-1.679 2.733-2.304 1.587-4.759 1.168-.515 1.513 1.128 2.379.794 3.184-1.237 1.411-2.727 2.38-5.554.26-.758 1.424-.375 1.586-.794 1.774-4.551 1.287-10.764 3.173-14.279 3.6 1.484 1.08-3.151 3.968-2.38-1.212-3.052-.773-1.573 1.586-.793z"/><path d="m139.74-2.093c1.128 1.516 3.014 2.276 3.174 4.76.93-.128.669-1.446.793-2.38 6.685 8.359 4.041 31.674 3.173 45.218-.61 9.536 2.375 21.045-4.758 23.799 3.796-9.301-.412-19.524-.794-29.352-5.535.018-7.146 3.96-11.9 4.76 2.788 1.25 8.297-2.194 10.312 1.586.809 3.452-1.64 3.648-2.379 5.553-2.376-.521.758-1.696 0-3.173-2.589-.209-2.292 2.468-3.968 3.173-1.527-.323-.625-3.076-3.173-2.379 1.769 3.608-3.96 2.562-6.346 0 1.511-8.427 7.507-16.085 16.659-14.28.856-6.686-11.211-4.641-13.486-5.554-2.104.253.743-4.443-2.379-3.173-2.376.522.758 1.696 0 3.173-3.671-1.086-16.667 5.168-19.833-2.379-.335 2.941-6.191 2.401-7.933-.794v3.173c-6.669-1.116-4.633 6.473-8.726 7.933-.207-2.322 1.794-2.437 1.586-4.759-3.283-1.074-3.03 4.305-2.379 8.726-2.454.074-2.365-2.396-2.381-4.759-1.822 9.59-12.815 26.373-1.586 35.698-.261 1.854-.953 3.277-1.586 4.76-2.084-.561-1.565-3.723-3.173-4.76-2.104-.253.742 4.444-2.38 3.173-2.343-4.267-2.701-10.521-9.52-10.312 3.742-2.156-1.09-5.196-1.586-7.933-3.424.523 1.215 4.927-.794 6.346-2.329-1.109-4.281-2.593-3.967-6.346.097-2.794 1.155-.218 3.173-1.586-.522-2.651-2.466-3.88-3.173-6.347-.926 1.453-1.157 3.602-3.173 3.967-1.092-1.228-1.597-4.762-.794-5.553-.444-1.793-1.237.962-2.379-.794-.976-8.327-8.953-15.133-9.52-24.592-.571-9.518 4.438-17.121 8.726-24.592 2.852.929 8.156-.43 11.9 0 1.006.116 1.772 1.584 1.587 1.587.962-.011 1.356-1.371 2.379-1.587 9.618-2.041 23.357 0 35.699 0 12.039-.001 24.097-.001 34.905-.001zm.794 4.76c1.046 6.128-.581-3.406 0 0z"/><path d="m70.724 221.616c3.994 1.617 7.647 5.001 13.486 3.968.576 2.426-1.369 2.332-.794 4.759-1.281.224-1.366-.75-2.38-.794-2.905 7.13-.019 18.4.794 26.972-5.25-10.086-2.84-27.834-11.106-34.905z"/><path d="m.12 296.881h385.318v296.464h-385.318z"/><path d="m81.33 92.693 4.845 11.187 10.156 9.311 6.657 6.209s11.098-6.682 12.078-8.305c.983-1.622 1.745-6.17 1.745-6.17l10.296-11.9s5.981 14.796 7.017 15.167c1.035.372-9.295 10.228-10.98 11.071-1.687.842-9.816 3.455-10.469 4.67-.651 1.215-1.367 10.611-1.037 12.403.332 1.791-1.931 4.443-1.206 6.02.725 1.578 1.524 5.948 2.602 7.916 1.078 1.967 6.707 20.274 6.211 21.238s3.048 69.933 2.781 72.735c-.266 2.801 2.763 85.782 2.304 86.567-.46.78-2.873 20.434-15.411 24.362-12.887-9.238-16.363-24.316-16.427-26.709-.064-2.395 1.185-83.866 1.068-88.253-.117-4.389.649-65.487.886-69.487.235-3.997 5.127-27.696 4.697-28.868s-6.111-11.414-6.144-12.611c-.031-1.197-4.202-3.88-6.614-4.614-2.411-.734-11.67-14.859-11.052-17.271.621-2.411 5.997-14.668 5.997-14.668z" fill="#9f0019"/><path d="m122.32 112.528c-.129 2.827.24 5.037.848 6.953-1.973.012-3.302 2.368-4.618.898-.283-4.323.141-7.861 3.77-7.851z"/><path d="m110.591 145.391c2.57.03 1.959 3.983 3.458 5.333-.365 1.895-3.338.498-2.691-1.477-2.756-.715-5.74 3-6.007-1.392 3.103-.831 5.727 1.221 5.24-2.464z"/><path d="m116.245 158.415c-3.9.523-13.52-4.55-18.582-.28-.645-.004-.54-.934-.704-1.531 1.454-2.747 6.099-1.963 8.576-1.779 4.252.317 8.316 2.401 10.71 3.59z"/><path d="m117.755 165.35c.947 1.5.751 4.407 1.491 6.16-2.69-.148-4.643-1.207-7.332-1.355-.028-1.032-.056-2.065-.083-3.097-4.819-.722-10.304-.623-15.93-.351 3.35-5.455 13.088 1.154 16.51-2.764 2.052.135 3.768.685 5.344 1.407z"/><path d="m111.955 171.704c2.396.778 5.41.795 7.352 2.129-.46 2.7 1.067 2.951.808 5.404-3.662-.283-8.762 1.208-8.721-3.643-4.863-1.191-13.716.055-16.614-1.108 3.977-3.981 12.234-.436 17.236-.458-.019-.775-.041-1.549-.061-2.324z"/><path d="m120.177 181.561c.055 2.065.11 4.131.166 6.195-2.826.019-4.671-1.172-7.975-.563-.534-.676-.759-1.73-.745-3.08-5.216-1.033-11.958-.183-16.634-1.883.727-1.977 5.419-1.333 8.597-1.004 2.481.257 5.083 1.119 6.67 1.372 2.388 1.143.329-2.64 1.926-2.375 3.207-.224 5.34.88 7.995 1.338z"/><path d="m94.594 192.317c4.674 1.168 10.522.887 15.308 1.916 2.148.626.84-2.577 2.589-2.393 3.721-.325 6.685.286 8.679 2.094.041 1.548.083 3.098.124 4.646-3.094.083-6.187.166-9.279.248-.533-.676-.76-1.731-.746-3.08-5.155 1.29-13.109-3.523-15.908.423-1.435.168-.374-2.738-.767-3.854z"/><path d="m121.355 200.905c.055 2.066.109 4.13.164 6.195-3.093.084-6.186.166-9.279.248-.533-.676-.76-1.73-.746-3.08-6.106-.2-12.149-.481-17.296-1.865 2.752-2.715 11.066.453 15.93.351 2.163.766.653-1.746 1.926-2.376 2.582-1.277 7.214.353 9.301.527z"/><path d="m121.706 214.07c-8.535 1.99-19.251-.251-27.239-1.6-.222-1.379.584-1.606.642-.792 8.941.704 18.438.723 26.597 2.392z"/><path d="m121.89 221.04c.056 2.065.111 4.13.166 6.196-3.094.082-6.187.164-9.279.247-2.122.75-.999-2.501-2.071-3.044-3.553-.156-7.832.021-11.289-.474-1.709-.245-4.767.078-5.364-2.183 6.21-.196 10.765 1.654 17.275 1.09.376-5.222 7.579-1.076 10.562-1.832z"/><path d="m94.135 224.88c1.05-2.261.631 3.943.805 5.403 4.254 1.687 10.294 1.17 15.308 1.919 2.345.821.454-1.682 1.926-2.377 2.617-1.232 7.271.7 9.963.511.055 2.065.11 4.129.166 6.195-3.65.501-6.261-.279-9.3-.529-3.518-4.461-11.715-3.148-18.663-3.376-.069-2.583-.137-5.166-.205-7.746z"/><path d="m122.365 238.854c.055 2.066.11 4.13.165 6.196-3.535.092-7.071.188-10.606.282-.532-.677-.759-1.73-.744-3.081-3.707-.247-8.269.043-11.952-.457-1.702-.233-4.771.069-5.366-2.182 5.471.719 10.884 1.506 17.275 1.09 1.024-5.286 7.292-.496 11.228-1.848z"/><path d="m122.694 251.245c.056 2.066.11 4.131.166 6.195-3.617-.071-7.956.745-10.627-.492-1.405.399-1.291-1.073-1.388-2.289-5.159-.591-13.768-.215-16.612-1.107 1.032-2.516 5.292-.371 8.617-.23 3.106.133 5.957-.323 8.618-.229-.021-.774-.042-1.549-.062-2.324 4.212-.394 6.811 1.198 11.288.476z"/><path d="m111.632 259.289c2.673 1.238 7.009.423 10.626.493 1.054 1.099.689 3.948.828 6.178-2.01.574-7.92-.143-11.932.316-.027-1.032-.053-2.062-.082-3.097-2.823.706-5.642-.379-8.637-.545-3.07-.17-7.11 1.689-8.658-1.319 5.426-.018 13.323 1.152 17.254.315-.22-1.244.591-1.349.601-2.341z"/><path d="m94.046 271.382c6.917.863 16.509.86 24.586 1.671 1.389.14 4.506-1.443 4.681 1.424-6.331-1.141-14.178-.381-21.253-.984-2.746-.233-6.372.097-8.014-2.111z"/><path d="m93.566 278.371c.781.105.598 1.395.725 2.305 3.763 2.559 10.893.962 15.971 1.899.949-.2.169-2.317 1.263-2.358 4.644-.659 7.309 1.117 11.952.457.054 2.065.109 4.129.165 6.195-5.119-.621-12.671 1.763-14.023-3.502-4.807 1.988-14.386-3.769-15.204 1.956-1.526-.784-.381-4.862-.849-6.952z"/><path d="m123.704 289.193c.055 2.066.109 4.131.166 6.196-5.812-.032-12.788 1.372-14.687-3.484-2.427-.058-4.864.293-7.291.195-2.958-.121-7.232.085-8.678-2.095 5.342.875 11.551.684 17.275 1.091-.02-.774-.041-1.55-.063-2.324 4.833-.362 8.144 1.156 13.278.421z"/><path d="m93.317 293.877c.847-2.489.729 2.719.765 3.855 3.248 2.658 9.979 1.022 14.645 1.935 2.388 1.143.331-2.64 1.928-2.375 4.411.156 8.282.983 13.276.422.055 2.063.11 4.129.165 6.195-5.182.526-9.377-.165-13.94-.405.966-3.058-1.764-1.558-2.071-3.046-4.997.564-8.864-.267-13.278-.421-.773.146-.521 1.428-.601 2.341-1.551-1.285-.401-5.906-.889-8.501z"/><path d="m81.122 109.749c-.293-2.603 2.087-3.362 2.465-7.04-1.618 2.061-1.778 4.063-3.874 3.978 2.936 3.145-2.718 2.696-3.15 6.283-4.417-7.83 4.431-12.822 4.767-20.277 2.466 3.939 5.357 7.957 5.591 10.702 4.42-.564 7.253 6.795 10.875 9.786-.094 2.402-1.766 3.057-2.528 4.716 1.901 2.172 2.507-2.939 2.029 1.496 1.824.516 1.294-1.574 2.611-1.619-.187-.837-1.332-.491-1.367-1.513-1.149-1.285 4.07 2.085 5.385 2.956 5.078-3.678 12.949-7.322 12.887-14.292 2.527.882 5.643 1.039 4.805 6.073-1.229-.085-.477-2.613-1.408-3.063-2.359-.357-1.557 2.785-3.916 2.429 2.034 4.183.639 6.852.309 11.616-7.198.798-7.888 8.803-11.58 13.485 2.05 1.508-1.005 3.952 2.795 5.351 1.94-.726-1.569-1.119-.744-3.08 1.132-.064 1.732.529 2.028 1.495.907-1.502 1.452-3.403 1.846-5.474 2.397 3.305-1.314 8.169.288 10.842-2.264-1.192-2.154-2.93-5.345-1.408.669-2.446.371-2.194-1.407-3.062-.933.973-.928 2.982-1.886 3.925-.143 2.042 2.589.541 2.071 3.045-5.917-1.646-1.605 3.601-5.863 4.031-.001-.755.796-.623 1.306-.81.06-1.941-1.083-2.398-2.071-3.045 2.199-8.157-4.202-12.332-5.797-18.446-1.617-1.206-3.6-1.958-4.101-4.54-1.767 2.192-2.787-.623-4.661-.651 1.95-3.845-4.077-.215-3.478-6.107 4.42-2.719 4.657-5.414 7.022-10.263-.605-.86-2.095.243-.723-2.306-1.1-.534-2.843 1.616-1.284 1.584-.837.274-2.395 1.064-1.866 4.701-2.783.426-3.085 3.598-4.496 5.545.532-.161.641-.795 1.306-.81 1.281.632-.704.48-.623 1.566-1.521.279-.796-2.217-2.049-2.269 1.146-1.485 2.289-2.978 3.19-4.735-2.113.166-1.892 2.916-3.895 3.203 1.215-1.659 1.695-4.135 4.536-3.998zm10.562-1.831c-.111 5.649-5.235 9.721-5.635 12.55 2.513-2.76 8.391-8.861 5.635-12.55zm15.803 20.504c2.81-4.159 9.508-11.915 8.867-15.736-3.89-.454-9.193 6.959-10.357 9.576-.164-.599-.581-.886-1.348-.739-.37 2.129-1.36 5.967-4.454 7.094 3.021 7.449 4.4 4.087 7.292-.195zm-7.625 12.605c1.656-2.825-2.234-4.339-2.836-6.901 1.283-3.12-.978-5.377-2.836-6.9.512 6.301 3.033 10.124 5.672 13.801z"/><path d="m82.59 115.135c-1.366.451-1.484-2.981-.683-.757.644-.038.49-.962.621-1.566 1.196.536.134 1.406.062 2.323z"/><path d="m127.107 93.025c2.233-.131 1.645 4.768 2.859 7.674 1.227 2.942 3.757 5.043 4.183 7.639-.893 2.52-2.152 4.632-4.496 5.545-.426-1.61-1.703-2.168-1.45-4.612-2.075 1.845 1.503 3.415.829 6.179-1.257.364-1.142 2.244-3.274 1.637-.039-1.82-1.35-3.627-1.47-5.386-.099-1.47 1.114-1.612 1.243-3.134.391-4.569-3.552-7.497-2.96-11.547 2.357 2.692 3.302 7.127 4.286 11.512 2.874-3.455-2.486-10.734-1.055-14.697 2.215 2.068 1.626 7.593 2.941 10.771 2.745-2.049-2.218-9.537-1.636-11.581z"/></svg>