<svg clip-rule="evenodd" fill-rule="evenodd" stroke-linejoin="round" stroke-miterlimit="1.41421" viewBox="0 0 250 300" xmlns="http://www.w3.org/2000/svg"><path d="m-10.5-187.623h419.695v543.123h-419.695z" fill="#261051"/><g fill="#e300a7"><path d="m33.688 205.338h6.986c2.567 6.643-7.806.341-5.24 6.985-2.369-.542-1.448-4.374-1.746-6.985z"/><path d="m9.237 177.393c3.902 4.831 6.798 10.667 8.733 17.466-3.903-4.831-6.797-10.671-8.733-17.466z"/><path d="m24.955 210.575c5.538 6.688 10.531 13.918 13.972 22.705-5.123-7.103-10.371-14.077-13.972-22.705z"/><path d="m-4.735 121.506c4.212 6.265 3.068 17.888 6.986 24.45-1.165 0-2.328 0-3.494 0 .34-9.653-4.811-13.817-3.492-24.45z"/><path d="m179.115 289.63c7.32 11.764 2.686 36.127 0 48.902 1.035 14.062-13.252 9.895-22.703 6.984 6.893-4.617-.8-1.578-3.493-5.239 6.861 1.621 4.407-6.073 12.225-3.495 2.717-6.207-5.931-1.05-5.24-5.238 2.027-1.464 4.684-2.302 8.733-1.746 1.155-4.668.732-10.912 3.493-13.971 4.185-.693-.967 7.956 5.239 5.238-.791-8.253 5.884-20.077-1.746-24.45.751-2.744 5.494-1.493 3.492-6.985z"/><path d="m3.997 161.674c.288-5.524-4.64-5.836-3.492-12.226 5.405-1.192 7.272 10.01 3.492 12.226z"/><path d="m214.555-3.357h.793c2.444 2.585 4.118 5.94 5.558 9.528-3.323-1.974-5.758-4.83-6.351-9.528z"/><path d="m32.722 8.553c.301-1.511 1.01.507.793 1.588-.302 1.512-1.009-.506-.793-1.588z"/><path d="m180.411 14.112h1.588v1.589h-1.588z"/><path d="m185.174 17.289c1.98.322.048 3.078-1.586 2.382-.439-1.761 1.516-1.133 1.586-2.382z"/><path d="m183.587 34.756c-.799 1.648-3.511 2.178-3.176-.794 1.661-.336 2.103.544 3.176.794z"/><path d="m194.703 51.431c-.223-1.282.752-1.364.794-2.38.643.151.792.796 1.587.794v1.586c-.794 0-1.587 0-2.381 0z"/><path d="m59.718 80.812c-.529 0-1.058 0-1.588 0 0-.53 0-1.058 0-1.589 1.351-.292 1.499.618 1.588 1.589z"/><path d="m204.231 103.041c3.256.49 1.591 2.184 1.589 4.766-2.545.221-2.888-3.478-1.589-4.766z"/><path d="m208.202 168.948h1.588v1.589h-1.588z"/><path d="m191.527 223.734c.245-1.077 1.988-.657 3.176-.79-.073 2.504 2.123 4.733-1.588 4.762-1.177-2.329.899-2.952-1.588-3.972z"/><path d="m124.035 238.026c.795 1.096 1.31-.336 2.383 1.589-.254 1.864-2.458 1.778-3.177 3.177-1-3.498-.436-6.371 0-10.32.639.417 1.29.826 2.383.79-1.34 2.159 1.259 3.722-1.589 4.764z"/><path d="m117.682 237.233c2.667.726.393 1.476.794 3.969-1.721.136-.36-2.814-.794-3.969z"/><path d="m180.411 33.962c-.335 2.972 2.377 2.442 3.176.794-1.073-.25-1.515-1.13-3.176-.794z"/><path d="m98.627 4.583c.796-.001.943.643 1.586.795-.003-.797.643-.947.794-1.588-.797.002-.945-.643-1.587-.795.004.797-.643.946-.793 1.588z"/><path d="m97.037 9.349c.822-3.861 3.15 2.269 3.971-1.592-2.431-.128-3.913-.97-4.764-1.586 1.013 1.987-.405 2.487.793 3.178z"/><path d="m33.515 10.141c.217-1.081-.491-3.1-.793-1.588-.216 1.082.491 3.1.793 1.588z"/><path d="m180.411 14.112h1.588v1.589h-1.588z"/><path d="m58.13 79.223v1.589h1.588c-.089-.971-.237-1.881-1.588-1.589z"/><path d="m208.202 55.4c.54-1.972 2.418 1.173 3.176 1.589-.718 2.149-1.775-1.816-3.176-1.589z"/><path d="m28.75 114.953c-2.606-1.405.928-3.217 1.589-3.971 1.777.579-1.754 2.393-1.589 3.971z"/><path d="m174.058 89.542c2.302.448-1.216 1.241-.793 2.384-2.632-.774.886-1.569.793-2.384z"/><path d="m170.882 91.926c-1.358 6.039-12.934 11.405-14.293 22.234 1.15-.463 8.834-1.203 13.499-.794-6.398-8.443 2.848-19.762 15.086-19.057-1.605 1.631.324 1.584 1.588 2.38-2.515 8.599 3.372 14.252 7.94 18.265-1.563.127-4.547 1.971-6.351 1.588-.422-.087-1.678-1.583-1.589-1.588-1.025.058-2.363 3.233-2.383 0-2.623 1.192 1.654 1.941.795 3.968-2.569-.681-7.311 2.336-10.322.797.353.707.698 1.418 1.588 1.586-1.945 1.229-5.168 1.185-7.94 1.589 1.55 2.949 4.11 4.891 7.94 5.558.293 2.41-2.586 1.648-3.97 2.382 1.587 2.587 6.633 2.718 10.322 3.972.178.058-.176 1.507 0 1.585.872.39 2.323-.422 3.177 0 .174.089 1.752 3.404 1.587 0 2.405 3.482 8.205-.306 7.941 4.766.742-.585 1.204-1.445 1.587-2.385 1.842.221 1.824 2.125.795 3.177 4.358-2.997 8.212-.415 12.705-1.586 2.96.216 1.09 5.261 5.557 3.971.049 2.683-1.434 3.386.794 4.762-1.418 1.62-2.931.224-1.588 3.178-.922.665-2.129 1.046-3.97.792.78 3.243-.088 3.211 0 7.146-3.13-1.015-2.061 2.178-3.176 3.177-.773-.021-.618-.972-.794-1.586-2.784 1.293.355 5.563-2.382 7.938 2.27-4.711 2.781 8.348.795 10.323-2.09-1.937-5.183 2.057-4.767-2.383-2.4 1.204.66 3.489 0 5.562-4.914-1.185-2.422 8.28-7.144 4.76.128.923-.176 1.413-.795 1.589.722 1.393 2.783 1.449 3.969 2.384 2.008 4.265-.491 10.509 0 1.585-1.097.388-1.926 7.161.795 6.354-.936 3.032-2.678 5.258-7.146 4.765 1.091 2.51.174 2.655 0 5.558-.74-.582-1.202-1.445-1.588-2.383-4.634 4.799-6.596-2.991-11.91-2.385-.213-10.142-3.928-11.917-4.764-21.437-2.131-2.321-3.274-4.302-4.763-8.732-1.238-3.68-2.31-4.84-2.383-7.94-.043-1.796-2.239-3.867-2.382-4.766-.029-.186 3.162-3.612-.795-3.972.245-1.076 1.987-.656 3.176-.793-3.207-2.404-2.278-8.581-3.97-14.292-.108-.367-3.002-4.53-3.176-6.353-.103-1.1.769-3.322.794-3.176-.113-.657-2.381-2.759-2.382-3.176-.011-3.438 2.537-6.298 2.382-9.53-1.451-1.193-2.433-2.863-2.382-5.558-.48-.357-.981 1.444-.793 1.591-7.366-5.714 10.365-23.22 15.086-25.41zm34.938 81.786c-1.144.422-1.938-3.095-2.383-.795.813-.093 1.607 3.425 2.383.795z"/><path d="m28.75 114.953c-2.606-1.405.928-3.217 1.589-3.971 1.777.579-1.754 2.393-1.589 3.971z"/><path d="m203.437 172.917c.445-2.3 1.239 1.217 2.384.795-.777 2.63-1.571-.888-2.384-.795z"/><path d="m112.919 231.677c-.257 2.879 3.493-.102 6.351 1.585-4.903 3.374-8.188 3.223-11.117 9.53-4.161-1.664-7.894-3.75-9.526-7.942 4.191-2.481 9.786-2.945 14.292-3.173z"/><path d="m56.102 70.01c-1.587-10.947-2.647-22.951-3.71-37.96 1.758-6.696-7.333-18.074-1.2-19.076 3.987 17.472 4.204 37.085 4.91 57.036z"/><path d="m16.841 19.671c-.134-1.722 2.817-.362 3.969-.794.135 1.721-2.815.359-3.969.794z"/><path d="m24.782 22.847c-1.745 2.425-5.087-.917 0 0z"/><path d="m20.81 18.877c-1.152.432-4.103-.928-3.969.794 1.154-.435 4.104.927 3.969-.794z"/><path d="m24.782 22.847c-5.087-.917-1.745 2.425 0 0z"/><path d="m51.778 92.721c-1.252-.071-.622-2.026-2.383-1.588-.695 1.636 2.06 3.564 2.383 1.588zm138.955-42.083c.482-3.13-1.777-3.516-3.97-3.971-.374-2.493 2.137-2.098 2.382-3.971-1.71-1.72-1.903 2.127-5.558.795-.697-2.55 2.06-1.647 2.383-3.176.568-2.158-3.744.569-3.177-1.589 3.194-3.16-.324-4.265 0-8.736 3.125-1.27.276 3.431 2.381 3.178.76-.162 1.081-2.098.796-3.178-.423-1.587-2.23-1.081-2.383-1.587-.148-.486 1.217-1.886.793-3.174-.264-.811-2.247-2.608-2.381-4.765-.193-3.139 2.48-6.579 1.588-10.323 2.667-.814 1.236 2.468 1.587 3.971 2.325 1.057 3.902-.021 5.558-1.588-1.253-1.002-2.84 1.8-4.763 0-1.836-5.244 2.585-2.997 1.095-7.854.481-.076.958-.154 1.456-.234 1.571 1.331-1.93 3.978-.168 5.705 3.149-.901 3.791-3.63 4.146-6.363.259-.043.505-.086.768-.129-.017-1.178-.078-2.405-.19-3.669.014-.053.023-.11.038-.161.743.584 1.205 1.443 1.588 2.382 1.223-1.358-.274-2.89.795-5.558h-2.835c-2.909-18.541-17.324-42.797-64.362-44.317-6.738 1.674-20.931 2.274-24.51-.347-1.161-.962-1.789-.237-2.373.646.674.475 1.34.971 1.984 1.508 0 0-79.384 9.482-81.313 44.206-.6 10.795 10.437 19.141 12.834 80.217.225 5.732 5.451 6.407 5.705 12.325.534-.461 6.009-3.425 6.387-4.512 2.851-1.01 8.836 2.315 9.529-3.969 2.429 2.781 2.018-.121 3.97-1.586.169-4.14-6.586-1.357-7.942-3.972 1.654-3.074-1.182-1.298-.792-4.763-1.335-.581-4.558-3.3-5.558-1.589-2.587-2.022 6.04-3.798 6.351-.794 1.795-.444-.961-1.239.794-2.384 6.535-.227 14.374-2.607 22.234-.793 2.497.577 5.37 2.963 7.94 3.971 2.96 1.161 6.416 1.592 7.94 4.764-.582 1.414-1.444.112-2.383 0-.176 2.369 2.933 2.701.795 4.763-.901-.15-.442-.794 0-.792-.586-1.785-3.027 1.114-3.175 2.38-2.289-1.45-2.485-1.288-5.559-.791-.861 2.032 2.412 3.783 0 4.761 3.702 4.24 6.277 9.604 9.53 14.294-2.929.132-.009 2.056 0 5.559h-3.18c1.432 2.275 2.095 5.314 3.972 7.143-9.458 10.584-28.743 10.18-34.936-3.175 1.853-2.656 1.713-3.695 2.381-6.354.027-.902 2.012 3.621 0 3.971.723 2.157 2.783-.811 3.969-.793.036-1.358-.589-2.056-1.586-2.383.28-1.11 1.398-.068 1.586.794 2.309-.687.895-1.189.796-3.175-2.702-.054-5.541-.247-6.352 1.585-1.132-.967-1.805-3.027-.794-3.968-1.592-.978-13.326 1.634-19.278 8.908.18 6.788 2.32 5.388 2.276 12.173 3.991.151 12.625 2.214 16.207 3.534-1.794 2.283-5.483-.273-6.353 3.971-2.152-.719.668-2.926 1.589-3.177.359-2.212-4.327.62-3.97-1.588-.255.215-.452.489-.622.788-.074 8.138-3.47-.553-3.47-.553s-3.975 3.859-4.795-.171c-.797.407-1.599.656-3.024-.064.353-1.154.698.081 1.589 0-.274-2.805-2.085-2.053-3.971-1.589 1.322-1.58-.072-1.008 0-3.173-2.31.866-5.609.742-7.146 2.379-1.467-1.517 3.319-3.521 4.763-4.764-.899-1.609-3.518 1.714-6.352.795.023-.774.972-.614 1.589-.795-2.305-.988.271-5.142-2.382-7.145 4.218-.092.637-.149.793-2.382 2.281-1.508 5.389-3.406 3.971-6.352 4.019-.913 9.991-6.731 12.669-8.987-.524-6.043-5.256-8.404-5.705-12.325-3.987-34.783-.545-39.332-12.565-80.711-.089.166-.18.327-.269.494-3.381 3.108-1.424 4.52-.492 6.256-.349.314-.701 1.342-1.194 2.15-.743.181-1.413.471-2.02.849-.23-.137-.477-.332-.747-.628-.154.53-.314 1.054-.475 1.577-4.447 4.255-4.968 14.201-8.667 19.913.648.805 1.187 1.26 1.648 1.474-.83 3.045-1.541 6.209-2.034 9.593 2.273.396 2.004-8.568 6.353-8.736-.066 2.474-.427 4.539-.924 6.328-.323.882-.628 1.761-.881 2.622-1.102 2.793-2.401 4.859-2.96 6.931-1.346.389 2.203 2.487 1.588 4.764-1.399 1.994-1.311.559-3.176 1.587.246 3.147 2.758-.886 2.382 2.383-3.283 4.53-1.572 10.579-2.382 15.88-1.023 6.712-3.072 13.248-3.969 19.851-2.541 18.688-3.608 43.775 0 64.317 2.376 13.53 8.951 24.402 10.322 37.321.506 4.769-1.07 9.64 0 14.291-2.116 1.717-2.589-3.289-5.558-3.176-.442 3.389-3.946 8.289-2.383 13.497 4.093 2.811 8.445 1.209 11.116-1.586 7.795 29.792 20.629 54.537 43.672 69.081-.117 1.77-2.001-1.031-3.97 0 5 23.678 6.43 54.887-6.405 70.589-.242.296 112.625.271 112.521.001-1.689-4.378-5.866-3.704-11.626-7.863-5.005-3.615-9.838-9.19-13.499-12.703-2.75-2.641-10.183-1.282-14.293-2.383.369-1.694-1.134-1.513-2.381-1.588.251-1.841-.129-3.049-.794-3.972-4.134-5.393-10.482-8.573-14.295-14.291-17.125-6.696-32.534-15.106-44.463-26.997 5.558 5.557 14.692 7.541 19.85 13.498 5.92-1.025 10.585 5.252 17.468 5.559 8.234.366 13.506-4.818 19.85-7.94 2.024-1.153 2.131-4.22 3.971-5.559 2.703.545 2.959 2.578 3.97-.791 6.087 1.183 14.897-2.154 19.852-6.356.81-.687.543-1.678 1.587-2.38.352-.238 1.009-.496 3.178.793 1.721.135.357-2.815.793-3.97 2.944.564 3.407-1.356 6.352-.794 3.458-1.656-.246-6.493 4.764-5.558.896-1.159-5.113-3.815 0-5.558-1.66-1.732-2.266.396-4.764 0-5.626-5.751-16.584-8.525-26.996-9.528-4.728-.455-9.216.791-13.5 0-5.48-1.013-12.074-4.35-15.086-7.939-1.956-2.333-4.352-8.801-4.764-11.12-3.228 1.962-2.444-1.476-4.764-2.383-6.693 1.773-14.714-.145-20.646-1.585.282-3.157 4.059-2.823 6.353-3.97 7.022-4.335 13.053-8.729 21.438-12.707 2.275-1.077 5.341-2.837 7.145-3.174 4.724-.886 9.069 1.711 14.294 1.588 6.412-.151 14.087-3.419 21.438-3.176 3.474.114 5.696 1.469 8.736.794 2.058-2.836-3.734-3.307-3.972-6.353-9.615-1.892-16.857-8.581-26.995-5.558-.559-2.883-2.56-4.321-3.972-6.354.622-3.587 2.821-6.642 0-9.529-7.388.386-16.375 6.073-21.438 1.589 1.029-2.411 1.497-5.384 2.383-7.939 7.955-2.861 13.08 3.09 19.056 4.763 2.882-.091 2.562-3.294 3.971-4.763 4.662-4.878 11.559-6.35 14.292-11.909.415-.845-.634-3.324 0-3.972.145-.148 1.535.172 1.588 0 2.847-9.187-3.789-16.723-5.557-25.407-.7-3.43.967-6.875-1.588-10.323.711-1.672 1.234-3.532 2.381-4.766.27-1.58-1.598-3.186-1.587-4.762.011-1.514 2.045-1.835 2.381-3.178.018-.068-.968-5.858-.793-7.146.03-.232 1.585-1.537 1.588-1.588.146-4.118-1.638-7.871-1.588-11.911.051-3.909 2.943-6.622 0-9.529 3.54.894-.484-5.777 3.971-3.967-2.084-3.903 3.113-4.643 3.175-8.735 4.738-.028 4.635-4.895 9.529-4.766 1.223-.419.051-.828-.795-.794 2.776-.391 6.678-.971 9.53-1.588-.926-3.555 4.23.385 4.765-3.97 3.151 2.466 2.052.194 4.764-.793 3.18-1.162 9.069.931 10.323-2.383 2.583 1.959 4.125.061 7.143 1.586 1.957-.939-1.625-2.997.796-3.969 2.074 3.501 7.327-2.35 11.91-.793-2.481-1.229-2.847-4.57-7.149-3.97zm-132.603 77.814c-.771.021-.616.971-.793 1.588-1.749-.634-3.17-1.596-3.177-3.968 1.708-1.026 2.809.851 2.383-3.179 1.999.407 1.59 4.405 3.175 7.147-1.35.29-1.498-.619-1.588-1.588zm26.202-.793c-1.659 2.404-4.554 1.745-5.557 5.558-2.904-.173-3.046-1.093-5.558 0-.421-.639-.828-1.292-.796-2.384-2.724.132-5.129 3.209-7.143 1.588.126-.93 1.447-.671 2.381-.793.383-1.556-3.641-2.558-3.971-.795-.881-.345-1.982-5.643-2.382-1.586-2.307-1.108.224-3.92.794-4.765 1.608 1.374 6.779 1.5 5.558-2.382 5.871 3.552 11.186-1.033 15.88 0-1.126-.25.676 4.602 1.587.793 1.853 1.065-2.457 4.181-2.382 3.969-.175.49 1.419 1.043 1.589.797zm-27.789-35.733c1.224-2.396-4.11-2.086-3.972-.793 1.653 1.74 2.567-.698 3.972.793zm-21.44 7.942c.433.464 1.209.751 1.96.775-.052-.726-.103-1.437-.156-2.142-.842-.189-1.49-.056-1.804 1.367zm11.911-5.56c-.316-.584-.697-.946-1.113-1.158.025.668.05 1.334.074 2.003.718-.079 1.282-.279 1.039-.845zm-14.292 21.438c3.413 2.052-.303 3.766 5.338 4.728-.002-.066-.004-.128-.006-.193-1.217-1.258-.934-1.329-.029-.964-.072-2.209-.156-4.367-.251-6.471-.443.619-.653 1.475-.288 2.9-2.153-2.232-1.976-.624-4.764 0zm-.795-11.115c1.852-.266 3.421-.814 3.971-2.382-2.274-.156-4.335-.1-3.971 2.382z"/><path d="m24.475-6.579-2.744 8.915 13.716 90.523 8.915-6.178-19.887-93.26z"/></g></svg>