<?xml version="1.0" encoding="UTF-8" standalone="no"?><!DOCTYPE svg PUBLIC "-//W3C//DTD SVG 1.1//EN" "http://www.w3.org/Graphics/SVG/1.1/DTD/svg11.dtd"><svg width="100%" height="100%" viewBox="0 0 250 300" version="1.1" xmlns="http://www.w3.org/2000/svg" xmlns:xlink="http://www.w3.org/1999/xlink" xml:space="preserve" xmlns:serif="http://www.serif.com/" style="fill-rule:evenodd;clip-rule:evenodd;stroke-linejoin:round;stroke-miterlimit:1.41421;"><g id="heart"><rect id="bg" x="-40.497" y="-45.075" width="330.994" height="428.329" style="fill:#9bc63e;"/><g><g><path d="M29.456,75.266c-8.238,-3.339 -18.095,-5.064 -28.606,-6.13c10.405,-2.903 23.423,0.407 28.606,6.13Z"/><path d="M32.521,73.222c2.635,-2.235 10.404,-0.912 13.282,0c-4.03,1.439 -8.611,0.134 -13.282,0Z"/><path d="M175.55,92.633c2.099,-16.236 32.044,-22.859 41.887,-9.194c17.706,24.582 -34.789,25.588 -41.887,9.194Z"/><path d="M65.213,76.287c1.022,0 2.043,0 3.066,0c1.17,3.213 -1.606,2.482 -2.044,4.087c-1.386,-0.316 -0.848,-2.558 -1.022,-4.087Z"/><path d="M115.273,92.633c3.279,0.808 4.465,3.709 7.152,5.109c-2.119,2.049 -6.334,-2.47 -7.152,-5.109Z"/><path d="M119.36,102.85c0.215,1.146 1.133,1.591 2.044,2.043c-3.436,4.822 -8.098,3.609 -14.304,2.043c-0.077,-1.779 0.229,-3.177 1.022,-4.086c-2.099,2.068 -2.04,-0.416 -3.064,-2.044c-1.191,0.172 -1.11,1.616 -1.023,3.065c-3.067,-3.062 -4.495,-7.763 -10.216,-8.173c0.266,-1.436 2.24,-1.165 3.065,-2.042c5.796,2.304 13.227,7.44 22.476,9.194Z"/><path d="M131.618,111.023c1.026,-0.003 1.217,0.827 2.044,1.022c0.225,0.796 0.855,1.188 2.044,1.022c-0.227,0.796 -0.857,1.187 -2.044,1.021c-0.172,2.216 3.624,0.463 5.108,1.022c2.121,1.209 -5.253,1.48 -7.152,2.044c-1.514,-1.21 -1.589,-3.86 -3.063,-5.109c0.171,-1.191 1.614,-1.11 3.063,-1.022Z"/><path d="M223.566,138.607c-3.847,3.556 11.645,2.661 10.218,4.087c-4.885,4.884 -31.106,-6.629 -27.586,-6.13c0.682,0 1.363,0 2.045,0c4.623,3.402 8.555,1.846 13.28,4.087c0.23,-0.793 0.029,-2.016 1.022,-2.043c0.341,-0.001 0.681,-0.001 1.021,-0.001Z"/><path d="M40.694,177.429c1.363,0 2.725,0 4.087,0c1.501,3.886 -4.567,0.201 -3.065,4.087c-1.386,-0.316 -0.848,-2.558 -1.022,-4.087Z"/><path d="M-40.842,60.893c0,0 30.172,-0.968 37.605,6.199c16.3,-4.011 29.121,8.233 37.801,2.043c0.512,4.085 12.602,1.202 16.346,-2.043c3.178,3.848 11.973,5.64 17.368,4.087c-1.142,1.257 -0.891,2.097 1.021,2.043c0,1.702 0,3.405 0,5.109c2.135,0.432 2.706,-0.701 4.087,-1.023c6.704,3.067 17.378,5.149 21.454,5.108c-0.866,-1.518 -3.289,-1.478 -5.108,-2.042c0.253,-1.286 2.031,-1.031 2.044,0c2.82,-1.608 4.943,-3.912 8.172,-5.109c16.229,4.441 24.238,12.901 26.563,24.519c1.317,-1.406 4.438,-1.011 7.151,-1.021c2.041,-5.232 17.741,-9.816 22.477,-7.152c2.218,2.737 1.384,4.638 1.022,8.173c-1.198,-0.165 -0.862,-1.862 -1.022,-3.065c-2.774,1.994 -2.152,7.384 -5.108,9.195c0.89,2.514 4.523,2.288 4.086,6.13c19.783,-0.033 27.954,11.548 42.908,16.346c-10.132,-3.016 -17.102,-3.168 -26.562,-7.151c1.703,0 3.406,0 5.108,0c-10.832,-7.558 -32.204,-4.576 -43.93,-11.239c1.488,-3.75 5.336,0.785 8.172,-2.043c-0.65,-2.072 -4.775,-0.673 -5.107,-3.065c13.074,5.16 17.148,10.474 35.757,12.26c-19.129,-3.347 -29.294,-15.657 -50.059,-17.368c0.861,2.203 5.266,0.862 6.128,3.065c-8.515,-1.36 -15.992,-3.758 -22.475,-7.152c1.568,-3.61 4.538,0.523 7.151,-2.042c-6.467,-5.464 -18.266,-3.757 -28.605,-3.066c0.171,-2.216 -3.624,-0.463 -5.109,-1.021c-0.74,-2.324 -5.824,-0.305 -5.107,-4.087c2.649,-2.529 5.01,0.993 9.194,0c-2.186,-3.945 -9.139,-3.121 -12.26,-6.129c-2.595,1.362 -0.643,6.677 3.066,5.108c-2.64,3.025 -6.402,-1.424 -9.195,1.022c0,-3.746 0,-7.493 0,-11.238c-3.948,1.31 0.4,7.898 -4.087,10.216c-4.285,-4.272 -8.654,-1.18 -11.238,-7.152c-3.395,3.416 -2.43,11.192 -7.152,13.282c3.184,-3.6 16.383,-5.857 22.477,0c0.998,5.783 -3.572,11.515 2.043,13.281c2.671,-3.459 2.318,-9.939 3.064,-15.324c1.364,0 2.725,0 4.088,0c-0.469,4.225 3.963,0.13 6.129,2.043c1.081,0.957 -4.097,1.068 -4.086,1.022c-0.1,0.456 3.008,2.764 3.064,4.087c0.382,8.857 -17.863,17.996 -22.476,23.497c-12.722,0.227 -24.988,-7.288 -22.476,-25.54c0.62,0.588 4.846,2.39 5.108,0c-0.929,-2.796 -3.579,1.813 -5.108,-1.023c0.994,-4.738 7.423,-8.535 6.13,-12.259c3.817,0.092 2.912,1.145 6.13,0c-3.439,-2.749 -7.95,-0.827 -13.282,-3.065c-2.462,0.419 -2.22,-1.866 -5.108,-1.022c-9.434,0.451 -24.962,0.465 -32.692,-6.13c-13.389,4.028 -23.728,-3.578 -35.563,-3.688c0,-0.987 0,-1.41 0,-2.255c9.523,3.266 20.085,6.516 30.454,4.921c-5.389,-2.102 -14.106,-0.878 -18.389,-4.086c10.348,-3.5 19.779,5.348 27.584,4.086c-7.393,-3.851 -19.161,-8.753 -30.649,-5.108c1.188,-0.166 1.817,0.226 2.044,1.022c-4.35,-0.453 -11.041,-3.369 -11.041,-3.369l-0.002,-0.787Zm41.692,8.242c10.512,1.067 20.368,2.791 28.606,6.13c-5.183,-5.722 -18.201,-9.032 -28.606,-6.13Zm44.952,4.087c-2.877,-0.912 -10.646,-2.235 -13.282,0c4.672,0.134 9.253,1.439 13.282,0Zm20.433,7.152c0.438,-1.604 3.213,-0.874 2.044,-4.087c-1.023,0 -2.044,0 -3.066,0c0.174,1.529 -0.364,3.771 1.022,4.087Zm28.605,6.129c-1.4,-0.968 -9.135,-4.236 -7.151,-2.043c2.235,0.229 5.5,4.608 7.151,2.043Zm19.411,5.108c-2.614,-0.839 -7.005,-5.185 -10.216,-2.043c4.571,-1.114 8.424,3.769 10.216,2.043Zm8.174,6.131c-2.687,-1.4 -3.873,-4.301 -7.152,-5.109c0.818,2.639 5.033,7.158 7.152,5.109Z"/><path d="M89.733,48.703c16.345,4.087 26.011,14.855 39.844,21.454c18.857,-7.869 41.552,-26.123 68.448,-13.281c2.914,2.56 9.805,6.506 12.261,6.13c0.868,-0.188 0.962,0.398 1.021,1.021c3.871,3.961 8.099,7.565 12.259,11.238c3.537,3.276 5.903,7.72 9.195,11.238c1.51,7.345 6.115,11.594 6.129,20.433c1.171,3.213 -1.604,2.482 -2.043,4.086c4.464,2.558 0.56,9.475 1.023,14.303c-3.631,1.589 -0.618,-3.47 -3.067,-3.065c-1.612,1.79 -1.365,5.444 -2.041,8.174c-2.37,-0.327 -3.923,0.164 -5.108,1.021c-0.406,2.448 4.653,-0.567 3.065,3.065c-4.573,-1.509 -3.138,2.991 -7.152,2.043c1.576,2.141 6.075,0.363 2.043,3.064c-0.826,-0.193 -1.019,-1.024 -2.043,-1.021c-0.341,0 -0.681,0 -1.022,0c-4.242,-3.931 -10.01,-6.335 -16.347,-8.173c-2.241,-1.164 -4.175,-2.636 -8.173,-2.043c-14.954,-4.798 -23.125,-16.379 -42.908,-16.347c0.437,-3.842 -3.195,-3.616 -4.086,-6.13c2.956,-1.81 2.334,-7.2 5.108,-9.195c0.16,1.204 -0.176,2.901 1.022,3.065c0.362,-3.534 1.196,-5.436 -1.022,-8.173c-4.736,-2.664 -20.436,1.92 -22.477,7.152c-2.713,0.011 -5.834,-0.385 -7.151,1.022c-2.325,-11.619 -10.334,-20.078 -26.563,-24.519c-3.229,1.196 -5.351,3.501 -8.172,5.108c-0.012,-1.031 -1.791,-1.285 -2.044,0c1.819,0.564 4.242,0.525 5.108,2.043c-4.076,0.04 -14.75,-2.041 -21.454,-5.108c0.442,-8.894 4.445,-14.968 2.043,-24.519c-5.677,1.828 0,16.581 -6.13,20.432c-1.912,0.054 -2.163,-0.786 -1.021,-2.043c-5.395,1.553 -14.19,-0.239 -17.368,-4.087c-3.744,3.246 -15.834,6.128 -16.346,2.043c9.903,-9.848 22.502,-17.001 38.823,-20.432c5.448,0.001 10.897,0.001 16.346,0.001Zm127.705,34.736c-9.844,-13.665 -39.788,-7.042 -41.887,9.193c7.097,16.395 59.592,15.389 41.887,-9.193Z"/><path d="M198.025,56.876c4.204,1.929 8.751,3.507 12.261,6.13c-2.456,0.376 -9.347,-3.57 -12.261,-6.13Z"/><path d="M211.307,64.027c3.319,0.768 4.282,3.891 7.152,5.108c1.057,2.69 4.05,3.442 5.107,6.13c-4.161,-3.672 -8.388,-7.277 -12.259,-11.238Z"/><path d="M206.197,130.434c6.337,1.837 12.105,4.242 16.348,8.173c-0.993,0.028 -0.793,1.251 -1.022,2.043c-4.725,-2.24 -8.658,-0.685 -13.281,-4.087c0.671,-3.059 2.184,0.977 4.086,0c-2.084,-3.025 -7.527,-2.689 -10.216,-5.108c3.37,-0.899 6.38,2.625 4.085,-1.021Z"/><path d="M26.391,161.083c2.282,2.826 3.977,6.239 5.109,10.216c-2.284,-2.825 -3.977,-6.24 -5.109,-10.216Z"/><path d="M35.586,180.494c3.239,3.912 6.16,8.142 8.173,13.282c-2.997,-4.155 -6.067,-8.236 -8.173,-13.282Z"/><path d="M232.761,86.503c-3.292,-3.518 -5.658,-7.962 -9.195,-11.237c-1.057,-2.689 -4.05,-3.44 -5.107,-6.13c5.653,4.904 11.016,10.097 14.302,17.367Z"/><path d="M73.387,88.547c-1.363,0 -2.724,0 -4.088,0c-0.746,5.385 -0.393,11.866 -3.064,15.324c-5.615,-1.766 -1.045,-7.498 -2.043,-13.281c-6.094,-5.857 -19.293,-3.6 -22.477,0c4.721,-2.09 3.757,-9.866 7.152,-13.282c2.584,5.972 6.953,2.88 11.238,7.152c4.487,-2.318 0.138,-8.906 4.087,-10.216c0,3.745 0,7.492 0,11.238c2.793,-2.446 6.555,2.003 9.195,-1.022c-3.71,1.569 -5.661,-3.746 -3.066,-5.108c3.121,3.008 10.075,2.184 12.26,6.129c-4.184,0.993 -6.545,-2.529 -9.194,0c-0.717,3.782 4.367,1.762 5.107,4.087c-2.369,0.326 -3.922,-0.164 -5.107,-1.021Z"/><path d="M73.387,88.547c1.184,0.857 2.738,1.348 5.107,1.022c1.485,0.558 5.281,-1.194 5.109,1.021c2.256,3.192 12.505,-1.609 13.281,3.066c-0.825,0.878 -2.8,0.607 -3.065,2.042c5.721,0.41 7.149,5.111 10.216,8.173c-0.087,-1.45 -0.168,-2.893 1.023,-3.065c1.024,1.629 0.965,4.112 3.064,2.044c-0.792,0.909 -1.099,2.307 -1.022,4.086c6.206,1.566 10.868,2.779 14.304,-2.043c-0.911,-0.452 -1.828,-0.897 -2.044,-2.043c4.358,2.453 7.86,5.76 12.258,8.173c-1.449,-0.088 -2.892,-0.169 -3.063,1.022c1.475,1.249 1.55,3.898 3.063,5.108c1.9,-0.564 9.273,-0.834 7.153,-2.044c-1.484,-0.558 -5.281,1.195 -5.108,-1.021c1.187,0.166 1.816,-0.226 2.043,-1.022c-1.189,0.166 -1.818,-0.225 -2.043,-1.022c24.876,7.816 47.616,17.769 69.472,28.606c-0.092,2.788 1.7,2.056 0,4.087c-1.198,-0.165 -0.863,-1.862 -1.022,-3.065c-3.184,3.628 -11.753,1.869 -11.239,9.195c-4.78,-3.234 -8.458,2.059 -14.303,1.021c-1.725,2.021 -1.116,6.377 -2.043,9.195c-1.585,-8.373 -6.572,6.92 -9.195,0c-2.398,5.435 -10.773,4.893 -13.282,10.216c-2.88,0.218 -11.88,-4.167 -11.237,2.044c-3.357,-2.847 -6.603,0.961 -6.129,5.108c-2.932,-1.245 -5.63,-1.494 -6.129,2.043c-6.442,-5.738 -16.912,7.043 -23.498,1.022c-1.199,1.526 -4.245,1.203 -4.087,4.087c-2.498,-2.951 -5.53,-5.368 -9.194,-7.152c-2.854,1.572 -7.923,0.93 -8.173,5.108c-10.276,0.06 -21.271,0.839 -24.519,-6.13c-5.159,-0.732 -8.855,0 -9.195,4.087c-1.386,-5.085 -9.431,-3.511 -9.195,-10.217c-2.228,-0.185 -3.249,0.837 -3.065,3.065c0.471,-5.127 -6.254,-4.185 -4.086,-8.173c-1.188,-0.166 -1.817,0.225 -2.043,1.021c-2.826,-0.687 2.843,-5.359 -3.065,-4.085c0.336,-4.763 -0.797,-8.058 -2.044,-11.239c-0.827,0.195 -1.018,1.026 -2.043,1.022c-0.622,-0.057 -1.209,-0.153 -1.021,-1.022c2.211,-1.297 1.118,-7.848 -2.043,-7.151c-0.795,-0.225 -1.188,-0.855 -1.022,-2.043c0.681,0 1.362,0 2.043,0c-2.292,-3.838 -1.623,-10.637 -4.087,-14.303c-0.622,-0.058 -1.209,-0.153 -1.022,-1.022c1.701,-5.128 1.701,-17.347 0,-22.476c1.594,-11.347 6.464,-19.417 10.217,-28.605c2.888,-0.844 2.647,1.44 5.108,1.021c-0.308,3.714 5.446,1.364 7.152,3.066c1.293,3.723 -5.137,7.521 -6.13,12.259c1.528,2.835 4.179,-1.773 5.108,1.022c-0.262,2.391 -4.488,0.588 -5.108,0c-2.512,18.252 9.753,25.768 22.476,25.54c4.613,-5.501 22.858,-14.64 22.476,-23.497c-0.056,-1.323 -3.165,-3.63 -3.064,-4.087c-0.011,0.047 5.167,-0.065 4.085,-1.021c-2.167,-1.915 -6.599,2.181 -6.13,-2.044Z"/><path d="M32.521,77.309c5.332,2.238 9.843,0.316 13.282,3.065c-3.218,1.145 -2.313,0.092 -6.13,0c-1.706,-1.701 -7.46,0.648 -7.152,-3.065Z"/><path d="M24.347,152.909c1.025,0.004 1.217,-0.826 2.044,-1.021c1.246,3.18 2.379,6.476 2.043,11.239c5.909,-1.275 0.239,3.396 3.066,4.085c0.225,-0.796 0.855,-1.187 2.042,-1.021c-2.168,3.987 4.558,3.046 4.087,8.172c-0.185,-2.228 0.836,-3.25 3.065,-3.065c-0.236,6.705 7.808,5.132 9.194,10.217c0.34,-4.086 4.037,-4.818 9.195,-4.086c3.248,6.968 14.243,6.189 24.52,6.129c0.25,-4.178 5.319,-3.535 8.173,-5.108c3.664,1.785 6.695,4.201 9.194,7.152c-0.159,-2.883 2.887,-2.56 4.086,-4.087c6.587,6.022 17.057,-6.76 23.498,-1.021c0.5,-3.537 3.197,-3.289 6.13,-2.044c-0.475,-4.146 2.771,-7.954 6.128,-5.107c-0.642,-6.211 8.357,-1.827 11.238,-2.044c2.509,-5.324 10.884,-4.782 13.282,-10.216c2.623,6.92 7.609,-8.374 9.195,0c0.926,-2.819 0.318,-7.175 2.043,-9.195c5.845,1.038 9.523,-4.256 14.303,-1.022c-0.515,-7.326 8.055,-5.566 11.238,-9.195c0.16,1.204 -0.176,2.901 1.022,3.065c1.701,-2.03 -0.092,-1.298 0,-4.086c-21.856,-10.837 -44.595,-20.791 -69.472,-28.606c-0.827,-0.195 -1.018,-1.025 -2.044,-1.022c-4.398,-2.413 -7.9,-5.72 -12.259,-8.173c-9.248,-1.754 -16.68,-6.89 -22.475,-9.194c-0.777,-4.675 -11.026,0.126 -13.281,-3.066c10.339,-0.69 22.138,-2.398 28.605,3.066c-2.613,2.566 -5.583,-1.568 -7.151,2.042c6.482,3.394 13.96,5.791 22.475,7.152c2.497,0.908 4.429,2.381 8.174,2.043c0.331,2.391 4.456,0.992 5.107,3.065c-2.836,2.828 -6.684,-1.707 -8.173,2.043c11.726,6.663 33.098,3.68 43.931,11.238l-7.151,0c-0.317,-1.387 -2.558,-0.847 -4.087,-1.022c6.276,5.644 16.469,7.369 26.562,9.195c2.983,1.104 5.887,2.288 10.218,2.043c2.688,2.419 8.131,2.083 10.215,5.108c-1.901,0.977 -3.414,-3.059 -4.086,0c-0.681,0 -1.362,0 -2.044,0c-0.316,-1.387 -2.558,-0.846 -4.085,-1.021c3.904,5.29 13.352,5.037 19.41,8.173c4.384,2.767 10.511,3.792 12.261,9.194c-11.228,31.342 -33.358,51.781 -55.17,72.537c-13.341,2.322 -17.544,13.786 -30.648,16.346c-2.175,6.352 -9.195,9.788 -14.304,13.282c-5.694,3.892 -11.806,7.403 -17.367,11.237c-28.139,-20.219 -51.275,-45.44 -72.536,-72.536c-2.013,-5.139 -4.934,-9.369 -8.173,-13.281c-1.235,-3.19 -2.478,-6.376 -4.086,-9.196c-1.132,-3.976 -2.826,-7.39 -5.109,-10.216c0.66,-4.063 -2.702,-4.105 -2.043,-8.172Zm17.369,28.607c-1.502,-3.886 4.566,-0.201 3.065,-4.087c-1.362,0 -2.724,0 -4.087,0c0.174,1.529 -0.364,3.771 1.022,4.087Z"/><path d="M18.218,128.391c2.464,3.666 1.794,10.465 4.087,14.302c-0.681,0 -1.362,0 -2.043,0c0.197,-5.646 -2.816,-8.083 -2.044,-14.302Z"/><path d="M87.689,84.46c-1.984,-2.193 5.751,1.075 7.151,2.043c-1.651,2.565 -4.916,-1.814 -7.151,-2.043Z"/><path d="M104.035,89.568c3.211,-3.143 7.601,1.204 10.216,2.043c-1.792,1.726 -5.645,-3.157 -10.216,-2.043Z"/><path d="M127.532,102.85c-0.862,-2.203 -5.267,-0.862 -6.128,-3.065c20.765,1.712 30.93,14.021 50.059,17.368c-18.609,-1.786 -22.683,-7.1 -35.757,-12.26c-3.744,0.338 -5.677,-1.135 -8.174,-2.043Z"/><path d="M169.419,121.239c2.406,3.736 15.95,5.155 22.476,8.173c-10.093,-1.826 -20.286,-3.551 -26.562,-9.195c1.529,0.175 3.769,-0.365 4.086,1.022Z"/><path d="M206.197,136.563c-3.519,-0.499 22.701,11.015 27.586,6.13c1.428,-1.426 -14.064,-0.53 -10.217,-4.086c1.024,-0.004 1.216,0.827 2.043,1.021c5.529,1.702 13.886,4.14 13.28,-4.086c0,2.043 0,4.086 0,6.129c8.845,3.756 15.832,9.371 22.478,15.325c-8.923,-2.315 -18.564,-3.912 -24.521,-9.194c7.291,-0.706 2.355,3.256 9.195,1.021c-5.916,-6.229 -13.897,-4.241 -24.519,-5.107c-6.058,-3.136 -15.506,-2.884 -19.41,-8.174c1.528,0.175 3.769,-0.365 4.085,1.021Z"/><path d="M191.895,129.412c-6.525,-3.018 -20.069,-4.436 -22.476,-8.172c0.682,0 1.362,0 2.043,0c9.46,3.983 16.43,4.135 26.562,7.151c3.999,-0.593 5.933,0.88 8.173,2.044c2.295,3.645 -0.715,0.122 -4.085,1.021c-4.33,0.244 -7.234,-0.939 -10.217,-2.044Z"/><path d="M17.196,127.369c0.044,-8.634 -1.818,-14.567 0,-22.476c1.7,5.129 1.7,17.348 0,22.476Z"/><path d="M238.89,106.936c4.282,6.883 1.571,21.134 0,28.606c0.606,8.227 -7.751,5.789 -13.28,4.087c4.032,-2.702 -0.468,-0.924 -2.044,-3.065c4.014,0.948 2.58,-3.552 7.152,-2.043c1.588,-3.632 -3.471,-0.618 -3.065,-3.065c1.185,-0.856 2.739,-1.347 5.108,-1.021c0.676,-2.73 0.429,-6.384 2.042,-8.174c2.448,-0.405 -0.564,4.654 3.066,3.065c-0.462,-4.829 3.441,-11.745 -1.023,-14.302c0.44,-1.606 3.215,-0.875 2.044,-4.088Z"/><path d="M23.326,151.888c0.167,-3.233 -2.715,-3.415 -2.043,-7.152c3.162,-0.696 4.255,5.855 2.043,7.152Z"/><path d="M69.299,73.222c6.131,-3.851 0.453,-18.604 6.131,-20.433c2.402,9.552 -1.601,15.626 -2.043,24.519c-1.382,0.322 -1.952,1.454 -4.088,1.023c0,-1.704 0,-3.407 0,-5.109Z"/></g><g><path d="M-40.151,63.261c6.288,0.893 10.145,4.219 16.648,4.896c-0.217,-0.763 -0.82,-1.138 -1.958,-0.979c11.011,-3.495 22.29,1.204 29.378,4.896c-7.482,1.209 -16.522,-7.272 -26.44,-3.917c4.105,3.075 12.461,1.901 17.626,3.917c-11.967,1.84 -25.232,-3.487 -35.254,-6.855c0,-0.653 0,-1.306 0,-1.958Z" style="fill:#fff;"/><path d="M33.295,77.95c-7.897,-3.201 -17.344,-4.854 -27.42,-5.876c9.973,-2.782 22.452,0.39 27.42,5.876Z" style="fill:#fff;"/><path d="M36.232,75.991c2.526,-2.142 9.973,-0.875 12.731,0c-3.862,1.38 -8.254,0.129 -12.731,0Z" style="fill:#fff;"/><path d="M115.553,94.597c3.143,0.775 4.28,3.556 6.855,4.897c-2.031,1.964 -6.071,-2.367 -6.855,-4.897Z" style="fill:#fff;"/><path d="M219.355,138.664c-3.687,3.409 11.162,2.551 9.794,3.917c-4.682,4.682 -29.816,-6.354 -26.442,-5.875c0.654,0 1.306,0 1.959,0c4.432,3.261 8.201,1.77 12.73,3.917c0.22,-0.76 0.028,-1.932 0.98,-1.959c0.327,0 0.653,0 0.979,0Z" style="fill:#fff;"/><path d="M44.066,175.877c1.307,0 2.612,0 3.918,0c1.439,3.725 -4.378,0.192 -2.938,3.917c-1.329,-0.303 -0.813,-2.452 -0.98,-3.917Z" style="fill:#be1f21;"/><path d="M91.071,52.489c15.667,3.917 24.933,14.239 38.191,20.564c18.078,-7.543 39.831,-25.039 65.612,-12.73c2.792,2.455 9.399,6.236 11.751,5.875c0.832,-0.18 0.923,0.382 0.98,0.98c3.709,3.796 7.763,7.252 11.75,10.772c3.39,3.139 5.658,7.399 8.814,10.771c1.447,7.041 5.861,11.114 5.876,19.585c1.122,3.08 -1.538,2.38 -1.958,3.918c4.278,2.452 0.535,9.081 0.979,13.71c-3.481,1.522 -0.592,-3.326 -2.939,-2.938c-1.547,1.715 -1.311,5.217 -1.958,7.834c-2.271,-0.313 -3.76,0.158 -4.897,0.979c-0.388,2.348 4.461,-0.543 2.939,2.939c-4.384,-1.447 -3.008,2.867 -6.856,1.958c1.511,2.053 5.825,0.348 1.96,2.938c-0.794,-0.186 -0.978,-0.982 -1.96,-0.98c-0.326,0 -0.652,0 -0.979,0c-4.066,-3.768 -9.595,-6.072 -15.669,-7.833c-2.148,-1.116 -4.001,-2.528 -7.833,-1.959c-14.335,-4.598 -22.166,-15.7 -41.129,-15.668c0.418,-3.683 -64.363,-33.583 -88.764,-27.364c-12.23,-0.785 -28.355,-6.919 -26.791,-13.766c9.493,-9.441 21.57,-16.296 37.213,-19.585c5.223,0 10.445,0 15.668,0Z" style="fill:#be1f21;"/><path d="M194.874,60.323c4.029,1.848 8.389,3.362 11.752,5.875c-2.352,0.362 -8.959,-3.42 -11.752,-5.875Z" style="fill:#770505;"/><path d="M207.605,67.178c3.181,0.736 4.104,3.73 6.855,4.896c1.013,2.578 3.882,3.299 4.896,5.876c-3.988,-3.52 -8.041,-6.976 -11.751,-10.772Z" style="fill:#770505;"/><path d="M202.707,130.831c6.074,1.762 11.604,4.066 15.669,7.833c-0.951,0.027 -0.759,1.199 -0.979,1.959c-4.529,-2.147 -8.298,-0.656 -12.73,-3.917c0.643,-2.933 2.093,0.936 3.917,0c-1.998,-2.899 -7.216,-2.577 -9.792,-4.897c3.23,-0.861 6.115,2.516 3.915,-0.978Z" style="fill:#be1f21;"/><path d="M30.356,160.208c2.189,2.709 3.812,5.982 4.897,9.793c-2.188,-2.707 -3.811,-5.982 -4.897,-9.793Z" style="fill:#be1f21;"/><path d="M39.17,178.814c3.106,3.751 5.905,7.805 7.834,12.731c-2.872,-3.982 -5.816,-7.893 -7.834,-12.731Z" style="fill:#be1f21;"/><path d="M228.169,88.722c-3.156,-3.373 -5.424,-7.632 -8.814,-10.772c-1.014,-2.577 -3.883,-3.298 -4.896,-5.876c5.419,4.701 10.56,9.678 13.71,16.648Z" style="fill:#be1f21;"/><path d="M78.222,87.258c1.424,0.536 7.138,3.257 6.975,5.38c2.162,3.06 11.986,-1.542 12.729,2.939c-0.79,0.842 21.75,9.911 21.544,8.813c4.177,2.351 13.926,9.577 13.709,8.813c23.846,7.492 45.642,17.032 66.592,27.42c-0.088,2.672 1.631,1.971 0,3.917c-1.149,-0.158 -0.826,-1.785 -0.98,-2.938c-3.052,3.477 -11.265,1.792 -10.773,8.813c-4.581,-3.1 -8.106,1.975 -13.71,0.98c-1.653,1.936 -1.07,6.112 -1.957,8.813c-1.521,-8.025 -6.3,6.634 -8.815,0c-2.298,5.21 -10.326,4.69 -12.73,9.793c-2.762,0.208 -11.388,-3.995 -10.772,1.958c-3.218,-2.728 -6.329,0.922 -5.875,4.897c-2.811,-1.193 -5.397,-1.431 -5.876,1.958c-6.174,-5.5 -16.21,6.752 -22.523,0.98c-1.149,1.462 -4.068,1.154 -3.917,3.917c-2.394,-2.828 -5.3,-5.145 -8.813,-6.855c-2.735,1.508 -7.594,0.892 -7.833,4.896c-9.851,0.058 -20.39,0.804 -23.503,-5.875c-4.945,-0.701 -8.488,0 -8.814,3.917c-1.329,-4.874 -9.039,-3.366 -8.813,-9.792c-2.136,-0.178 -3.115,0.8 -2.938,2.937c0.451,-4.914 -5.996,-4.012 -3.917,-7.833c-1.139,-0.16 -1.742,0.216 -1.958,0.979c-2.709,-0.66 2.725,-5.138 -2.939,-3.917c0.322,-4.564 -0.763,-7.723 -1.959,-10.772c-0.792,0.186 -0.976,0.982 -1.958,0.98c-0.597,-0.056 -1.159,-0.147 -0.979,-0.98c2.119,-1.244 1.072,-7.524 -1.959,-6.855c-0.762,-0.215 -1.139,-0.82 -0.98,-1.958c0.654,0 1.307,0 1.959,0c-2.197,-3.68 -1.555,-10.197 -3.917,-13.71c-0.596,-0.056 -1.159,-0.147 -0.979,-0.98c1.629,-4.916 1.629,-16.628 0,-21.544c1.528,-10.876 6.195,-18.613 9.792,-27.419c2.769,-0.809 2.537,1.38 4.896,0.979c-0.295,3.56 5.22,1.308 6.856,2.938c12.909,-0.317 32.864,4.724 35.135,4.411Z" style="fill:#be1f21;"/><path d="M36.232,79.909c5.111,2.146 9.434,0.303 12.731,2.938c-3.085,1.098 -2.218,0.089 -5.876,0c-1.635,-1.631 -7.15,0.621 -6.855,-2.938Z" style="fill:#770505;"/><path d="M28.398,152.375c0.982,0.003 1.166,-0.794 1.959,-0.98c1.195,3.049 2.28,6.208 1.959,10.772c5.664,-1.221 0.23,3.257 2.938,3.917c0.216,-0.763 0.82,-1.139 1.958,-0.979c-2.078,3.821 4.369,2.919 3.918,7.833c-0.178,-2.136 0.801,-3.115 2.937,-2.937c-0.225,6.426 7.485,4.918 8.813,9.791c0.327,-3.916 3.869,-4.617 8.814,-3.916c3.114,6.68 13.653,5.933 23.503,5.875c0.24,-4.004 5.099,-3.388 7.834,-4.896c3.512,1.71 6.418,4.026 8.813,6.855c-0.152,-2.763 2.768,-2.455 3.917,-3.918c6.313,5.773 16.349,-6.479 22.523,-0.979c0.479,-3.39 3.065,-3.151 5.876,-1.958c-0.455,-3.975 2.656,-7.625 5.874,-4.897c-0.615,-5.953 8.011,-1.75 10.773,-1.958c2.403,-5.103 10.431,-4.584 12.73,-9.793c2.514,6.634 7.293,-8.025 8.815,0c0.887,-2.701 0.304,-6.877 1.957,-8.813c5.603,0.995 9.128,-4.08 13.71,-0.98c-0.492,-7.021 7.721,-5.336 10.773,-8.813c0.153,1.153 -0.169,2.78 0.979,2.938c1.631,-1.946 -0.087,-1.245 0,-3.917c-20.949,-10.388 -42.746,-19.928 -66.591,-27.42c-0.793,-0.186 -0.977,-0.982 -1.959,-0.979c-4.216,-2.312 -7.573,-5.483 -11.751,-7.834c-8.865,-1.681 -15.988,-6.604 -21.543,-8.813c-0.744,-4.481 -10.568,0.121 -12.73,-2.939c9.91,-0.662 21.22,-2.298 27.419,2.939c-2.504,2.459 -5.351,-1.502 -6.855,1.958c6.214,3.253 13.381,5.552 21.544,6.855c2.393,0.871 4.245,2.283 7.834,1.959c0.318,2.292 4.271,0.951 4.896,2.937c-2.72,2.711 -6.408,-1.635 -7.834,1.959c11.24,6.387 31.725,3.527 42.108,10.772l-6.854,0c-0.304,-1.33 -2.453,-0.812 -3.918,-0.98c6.017,5.41 15.787,7.063 25.461,8.813c2.859,1.059 5.643,2.193 9.794,1.959c2.576,2.319 7.794,1.996 9.792,4.896c-1.824,0.937 -3.274,-2.933 -3.917,0c-0.653,0 -1.306,0 -1.96,0c-0.303,-1.328 -2.451,-0.812 -3.915,-0.979c3.742,5.071 12.798,4.829 18.605,7.834c4.202,2.653 10.075,3.635 11.752,8.813c-10.761,30.043 -31.974,49.634 -52.882,69.529c-12.788,2.226 -16.816,13.215 -29.377,15.668c-2.085,6.09 -8.814,9.382 -13.711,12.731c-5.459,3.731 -11.317,7.097 -16.647,10.772c-26.972,-19.381 -49.148,-43.556 -69.528,-69.529c-1.93,-4.925 -4.729,-8.98 -7.834,-12.73c-1.185,-3.058 -2.376,-6.112 -3.918,-8.813c-1.084,-3.812 -2.708,-7.085 -4.896,-9.793c0.633,-3.896 -2.59,-3.935 -1.958,-7.832Zm16.648,27.419c-1.44,-3.725 4.377,-0.192 2.938,-3.917c-1.306,0 -2.611,0 -3.918,0c0.167,1.465 -0.349,3.614 0.98,3.917Z" style="fill:#770505;"/><path d="M22.522,128.872c2.362,3.514 1.72,10.031 3.917,13.71c-0.652,0 -1.305,0 -1.959,0c0.191,-5.413 -2.698,-7.748 -1.958,-13.71Z" style="fill:#770505;"/><path d="M104.781,91.66c3.078,-3.013 7.287,1.153 9.793,1.958c-1.718,1.654 -5.412,-3.027 -9.793,-1.958Z" style="fill:#fff;"/><path d="M127.304,104.39c-0.826,-2.111 -5.049,-0.826 -5.875,-2.938c19.903,1.641 29.648,13.44 47.984,16.648c-17.837,-1.712 -21.743,-6.805 -34.275,-11.751c-3.588,0.324 -5.44,-1.088 -7.834,-1.959Z" style="fill:#fff;"/><path d="M167.455,122.017c2.306,3.581 15.288,4.94 21.543,7.834c-9.674,-1.751 -19.444,-3.404 -25.461,-8.813c1.465,0.167 3.614,-0.35 3.918,0.979Z" style="fill:#be1f21;"/><path d="M202.707,136.706c-3.373,-0.479 21.76,10.557 26.443,5.875c1.367,-1.366 -13.482,-0.508 -9.794,-3.917c0.982,-0.003 1.166,0.794 1.959,0.98c5.299,1.632 13.31,3.968 12.731,-3.917c0,1.958 0,3.917 0,5.876c8.477,3.599 15.173,8.981 21.544,14.688c-8.552,-2.219 -17.794,-3.75 -23.503,-8.812c6.989,-0.676 2.258,3.121 8.813,0.978c-5.67,-5.97 -13.321,-4.065 -23.502,-4.896c-5.808,-3.005 -14.863,-2.763 -18.606,-7.834c1.464,0.167 3.612,-0.35 3.915,0.979Z" style="fill:#be1f21;"/><path d="M188.998,129.851c-6.255,-2.894 -19.237,-4.253 -21.543,-7.834c0.653,0 1.305,0 1.958,0c9.068,3.819 15.747,3.963 25.461,6.855c3.832,-0.569 5.686,0.842 7.833,1.958c2.199,3.495 -0.685,0.118 -3.915,0.979c-4.152,0.235 -6.935,-0.9 -9.794,-1.958Z" style="fill:#fff;"/><path d="M21.543,127.893c0.043,-8.276 -1.743,-13.963 0,-21.544c1.63,4.916 1.63,16.627 0,21.544Z" style="fill:#770505;"/><path d="M234.046,108.307c4.103,6.597 1.505,20.257 0,27.42c0.579,7.885 -7.432,5.548 -12.731,3.917c3.865,-2.59 -0.449,-0.886 -1.959,-2.939c3.847,0.91 2.471,-3.405 6.855,-1.958c1.522,-3.481 -3.326,-0.591 -2.939,-2.938c1.137,-0.822 2.626,-1.292 4.898,-0.98c0.647,-2.616 0.411,-6.118 1.958,-7.834c2.347,-0.388 -0.542,4.461 2.939,2.938c-0.444,-4.628 3.299,-11.258 -0.98,-13.71c0.42,-1.536 3.08,-0.835 1.959,-3.916Z" style="fill:#770505;"/><path d="M27.419,151.395c0.161,-3.098 -2.602,-3.273 -1.959,-6.855c3.031,-0.669 4.078,5.611 1.959,6.855Z" style="fill:#770505;"/><g><path d="M143.316,224.599c0.528,0.723 0.578,1.642 0.151,2.757c-0.376,0.994 -0.947,1.769 -1.711,2.328c-0.1,0.073 -0.265,0.16 -0.494,0.261c-0.23,0.102 -0.397,0.191 -0.502,0.267c-0.331,1.121 -1.032,2.072 -2.101,2.853c-0.123,0.09 -0.259,0.186 -0.408,0.287c-0.293,2.301 -0.802,4.183 -1.526,5.647c0.931,-0.283 1.558,-0.542 1.882,-0.778c0.126,-0.093 0.346,-0.294 0.659,-0.602c0.312,-0.308 0.474,-0.467 0.488,-0.477l0.007,-0.005c-0.048,0.077 -0.302,0.384 -0.76,0.921c0.046,-0.04 0.116,-0.09 0.21,-0.148c0.094,-0.057 0.162,-0.102 0.202,-0.131c0.432,-0.316 0.783,-0.782 1.052,-1.397c0.116,-0.281 0.295,-0.843 0.535,-1.689c0.027,0.009 0.046,0.019 0.056,0.033c0.04,0.055 -0.14,0.731 -0.539,2.027c0.182,-0.133 0.34,-0.378 0.477,-0.736c0.098,-0.287 0.197,-0.576 0.298,-0.867c-0.033,-0.045 -0.002,-0.093 0.096,-0.143c-0.159,1.428 -0.945,2.657 -2.359,3.691c-0.473,0.346 -1.294,0.641 -2.46,0.887l-0.177,0.129c-0.155,0.287 -0.361,0.602 -0.62,0.944c-0.332,0.452 -0.667,0.82 -1.005,1.101c-0.07,0.057 -0.489,0.368 -1.258,0.929c-0.505,0.369 -0.989,0.639 -1.451,0.808c-0.687,0.252 -1.162,0.198 -1.426,-0.162c-0.425,-0.582 -0.033,-1.315 1.177,-2.199c0.801,-0.584 1.984,-1.152 3.549,-1.702c0.211,-0.064 0.526,-0.168 0.943,-0.313c0.006,-0.003 0.016,-0.011 0.035,-0.025c0.095,-0.07 0.214,-0.421 0.358,-1.056c0.123,-0.53 0.25,-1.516 0.382,-2.959c0.019,-0.174 0.035,-0.434 0.049,-0.778l-0.046,-0.019c-0.168,0.123 -0.406,0.33 -0.713,0.62c-0.308,0.291 -0.548,0.499 -0.721,0.626c-1.605,1.173 -2.807,1.213 -3.605,0.121c-0.7,-0.959 -0.711,-2.134 -0.032,-3.524c0.558,-1.147 1.367,-2.107 2.426,-2.882c0.124,-0.089 0.32,-0.202 0.591,-0.337c0.271,-0.135 0.468,-0.247 0.592,-0.337c0.104,-0.077 0.251,-0.203 0.439,-0.379c0.189,-0.176 0.336,-0.303 0.44,-0.379c0.536,-0.392 1.013,-0.618 1.43,-0.678c0.165,-0.023 0.279,-0.057 0.343,-0.104c0.104,-0.077 0.234,-0.224 0.39,-0.441c0.154,-0.218 0.284,-0.365 0.388,-0.441c0.046,-0.034 0.119,-0.079 0.219,-0.139c0.1,-0.059 0.172,-0.105 0.217,-0.138c-0.004,0.003 0.095,-0.101 0.297,-0.311c0.495,-0.507 0.843,-0.836 1.048,-0.985c1.074,-0.785 1.904,-0.777 2.488,0.024Zm-8.805,15.307c-0.811,0.2 -1.69,0.647 -2.641,1.342c-1.096,0.801 -1.474,1.435 -1.132,1.904c0.243,0.332 0.687,0.381 1.332,0.147c0.441,-0.161 0.895,-0.413 1.364,-0.755c0.059,-0.043 0.147,-0.113 0.265,-0.21c0.118,-0.096 0.207,-0.166 0.266,-0.209c-0.082,0.031 -0.266,0.03 -0.553,-0.005c-0.286,-0.034 -0.452,-0.081 -0.495,-0.141c-0.06,-0.082 -0.066,-0.182 -0.02,-0.3c0.197,-0.541 0.418,-0.902 0.665,-1.081l0.949,-0.692Zm2.617,-5.858l-0.124,0.09c-0.105,0.077 -0.255,0.198 -0.45,0.365c-0.195,0.167 -0.346,0.289 -0.45,0.366c-0.578,0.422 -1.157,0.671 -1.737,0.745c-0.715,0.09 -1.27,-0.133 -1.661,-0.669c-0.658,-0.901 -0.665,-2.113 -0.02,-3.638l-0.048,0.035c-1.003,1.863 -1.137,3.3 -0.399,4.309c0.711,0.975 1.834,0.901 3.367,-0.219c0.469,-0.342 0.976,-0.803 1.522,-1.384Zm-1.834,-5.117c-0.277,0.118 -0.569,0.29 -0.879,0.516c-0.782,0.572 -1.364,1.318 -1.746,2.238c-0.439,1.061 -0.393,1.955 0.14,2.683c0.69,0.945 1.791,0.867 3.301,-0.237l0.608,-0.443c-0.782,-0.106 -1.361,-0.416 -1.737,-0.929c-0.418,-0.574 -0.564,-1.203 -0.437,-1.889c0.073,-0.388 0.318,-1.006 0.736,-1.857c0.011,-0.014 0.015,-0.041 0.014,-0.082Zm-2.172,12.585l-0.047,0.035c-0.15,0.109 -0.176,0.232 -0.077,0.369c0.057,0.077 0.148,0.101 0.273,0.073l-0.149,-0.477Zm2.839,-1.687c-0.194,-0.026 -0.583,0.113 -1.172,0.417c-0.483,0.256 -0.861,0.483 -1.135,0.682c-0.363,0.266 -0.44,0.542 -0.231,0.829l0.075,0.102c0.053,0.073 0.326,-0.07 0.817,-0.429l0.416,-0.304c0.696,-0.509 1.106,-0.941 1.23,-1.297Zm-2.049,0.691c-0.014,-0.01 -0.033,-0.007 -0.056,0.01l-0.027,0.02c-0.019,0.021 -0.026,0.036 -0.019,0.045c0.022,0.011 0.045,0.009 0.067,-0.007c0.033,-0.031 0.045,-0.054 0.035,-0.068Zm1.268,0.403l-1.337,0.977c0.131,0.036 0.336,-0.046 0.612,-0.249l0.226,-0.165c0.068,-0.049 0.235,-0.237 0.499,-0.563Zm-0.849,-0.646c-0.017,0.006 -0.036,0.013 -0.057,0.021l-0.124,0.09c-0.045,0.034 -0.089,0.077 -0.135,0.13c0.037,0.002 0.085,-0.019 0.144,-0.062l0.048,-0.035c0.073,-0.053 0.11,-0.096 0.116,-0.127c0.009,-0.007 0.011,-0.012 0.008,-0.017Zm0.23,-0.116c-0.016,-0.002 -0.04,0.008 -0.072,0.032l-0.02,0.015c-0.023,0.016 -0.038,0.038 -0.047,0.065c0.024,0.032 0.059,0.033 0.108,0.005c0.05,-0.037 0.061,-0.076 0.031,-0.117Zm3.051,-11.395c-0.167,-0.095 -0.48,-0.142 -0.937,-0.143c-0.457,-0.001 -0.758,0.052 -0.904,0.158c-0.123,0.09 -0.31,0.342 -0.559,0.754c-0.737,1.216 -0.786,2.263 -0.145,3.141c0.2,0.273 0.509,0.496 0.93,0.671c0.473,0.198 0.835,0.206 1.085,0.023c0.041,-0.029 0.052,-0.588 0.032,-1.676c-0.377,-0.087 -0.628,-0.214 -0.752,-0.383c-0.189,-0.259 -0.197,-0.452 -0.024,-0.578c0.016,0.204 0.071,0.37 0.164,0.497c0.226,0.309 0.425,0.4 0.599,0.275c0.103,-1.157 0.273,-2.071 0.511,-2.739Zm-2.289,11.98c-0.016,-0.003 -0.035,0.001 -0.056,0.01l-0.014,0.009c-0.014,0.018 -0.023,0.035 -0.026,0.051c0.024,0.004 0.046,0.001 0.067,-0.007c0.015,-0.019 0.025,-0.04 0.029,-0.063Zm2.842,-13.442c-0.231,-0.096 -0.594,0.037 -1.09,0.399l-0.846,0.618l-0.094,0.143c0.506,-0.042 1.019,-0.023 1.539,0.058l0.491,-1.218Zm-0.01,1.661l-0.367,-0.129c-0.154,0.161 -0.237,0.985 -0.246,2.471c0.004,0.025 0.012,0.06 0.026,0.107c0.113,-0.551 0.31,-1.367 0.587,-2.449Zm0.52,-1.709c-0.118,-0.046 -0.213,-0.043 -0.286,0.011c-0.086,0.062 -0.209,0.283 -0.369,0.662c-0.16,0.378 -0.219,0.595 -0.18,0.649c0.033,0.046 0.095,0.088 0.183,0.128c0.088,0.04 0.153,0.045 0.194,0.015c0.136,-0.329 0.288,-0.818 0.458,-1.465Zm4.525,-2.615c-0.259,-0.355 -0.623,-0.518 -1.091,-0.49c-0.394,0.023 -0.78,0.172 -1.158,0.448c-0.642,0.469 -1.04,0.893 -1.196,1.272c0.091,-0.018 0.249,-0.018 0.471,0.001l0.165,0.225c0.316,0.432 0.344,1.067 0.084,1.906c-0.08,0.281 -0.214,0.694 -0.404,1.237c-0.204,0.504 -0.484,1.134 -0.839,1.889c-0.323,0.55 -0.65,1.134 -0.98,1.752l0.035,0.047c0.182,-0.083 0.353,-0.184 0.512,-0.301c0.415,-0.302 0.79,-0.657 1.127,-1.064c0.417,-0.519 0.628,-0.97 0.634,-1.353l-0.024,-0.033c-0.023,-0.032 -0.073,-0.071 -0.148,-0.117c-0.076,-0.046 -0.126,-0.087 -0.153,-0.124c-0.126,-0.172 -0.119,-0.311 0.022,-0.414c0.119,-0.086 0.24,-0.043 0.367,0.13c0.026,0.064 0.068,0.187 0.124,0.37c0.149,-0.025 0.382,-0.154 0.701,-0.387c0.746,-0.545 1.334,-1.306 1.764,-2.283c0.494,-1.12 0.489,-2.024 -0.013,-2.711Zm-3.878,5.764l-0.048,0.035c0.077,-0.057 -0.232,0.236 -0.93,0.877c-0.021,0.162 -0.037,0.411 -0.049,0.748c0.38,-0.473 0.723,-1.026 1.027,-1.66Zm-0.967,2.086c-0.015,-0.022 -0.033,-0.027 -0.052,-0.014c-0.006,0.012 -0.006,0.026 -0.001,0.043l0.006,0.007c0.014,0.01 0.028,0.014 0.04,0.012l0.007,-0.048Zm1.199,-4.747l-0.084,-0.116c-0.18,-0.246 -0.328,-0.326 -0.447,-0.239c-0.253,0.597 -0.398,1.122 -0.432,1.571c0.293,0.22 0.493,0.404 0.603,0.554c0.037,0.05 0.028,0.095 -0.026,0.135c-0.027,0.012 -0.05,0.014 -0.069,0.008l-0.483,-0.39l-0.059,-0.01c-0.128,0.589 -0.201,1.186 -0.219,1.792l0.178,-0.129c0.509,-0.372 0.886,-0.854 1.132,-1.445c0.283,-0.681 0.252,-1.258 -0.094,-1.731Zm-1.104,4.606c-0.018,-0.007 -0.033,-0.008 -0.042,-0.001l-0.005,0.035c0.013,0.011 0.027,0.014 0.04,0.012l0.007,-0.046Zm0.096,-0.112l-0.014,-0.021c-0.022,-0.019 -0.039,-0.024 -0.053,-0.014l-0.007,0.005c-0.018,0.013 -0.021,0.034 -0.01,0.059l0.015,0.021c0.015,0.01 0.031,0.012 0.048,0.007l0.013,-0.01c0.016,-0.018 0.018,-0.034 0.008,-0.047Zm0.755,-6.088c-0.014,0.011 -0.033,0.02 -0.057,0.031c-0.024,0.011 -0.04,0.019 -0.049,0.026l-0.13,0.095c-0.109,0.079 -0.233,0.197 -0.369,0.354c-0.18,0.193 -0.246,0.322 -0.2,0.386l0.14,0.033c0.054,0.016 0.102,0.01 0.143,-0.02c0.063,-0.047 0.238,-0.348 0.522,-0.905Zm-0.708,5.98l-0.01,-0.014c-0.024,-0.024 -0.045,-0.029 -0.064,-0.016l-0.007,0.005c-0.013,0.011 -0.012,0.031 0.002,0.061l0.011,0.013c0.024,0.025 0.043,0.032 0.057,0.022l0.006,-0.006c0.02,-0.012 0.021,-0.034 0.005,-0.065Zm0.098,-0.124l-0.01,-0.013c-0.02,-0.028 -0.039,-0.035 -0.058,-0.021l-0.006,0.005c-0.014,0.01 -0.012,0.03 0.002,0.06l0.011,0.014c0.018,0.014 0.034,0.017 0.048,0.007l0.006,-0.005c0.015,-0.017 0.017,-0.033 0.007,-0.047Zm0.068,-0.123l-0.01,-0.013c-0.025,-0.024 -0.047,-0.03 -0.064,-0.016l-0.007,0.005c-0.013,0.011 -0.013,0.031 0.002,0.061l0.01,0.013c0.018,0.015 0.034,0.017 0.048,0.008l0.013,-0.01c0.011,-0.015 0.013,-0.03 0.008,-0.048Zm1.387,-5.68c-0.087,-0.119 -0.199,-0.127 -0.335,-0.028c-0.259,0.19 -0.481,0.526 -0.665,1.009l0.011,0.013c0.043,0.059 0.124,0.138 0.244,0.235c0.12,0.097 0.204,0.178 0.25,0.242c0.242,0.331 0.322,0.814 0.24,1.446c0.248,-0.376 0.411,-0.862 0.486,-1.454c0.085,-0.648 0.007,-1.135 -0.231,-1.463Zm-0.728,4.09l-0.011,-0.013c-0.024,-0.025 -0.043,-0.032 -0.057,-0.022l-0.006,0.005c-0.019,0.013 -0.02,0.035 -0.004,0.066l0.009,0.014c0.018,0.014 0.034,0.017 0.048,0.007l0.013,-0.01c0.015,-0.018 0.017,-0.033 0.008,-0.047Zm0.06,-0.118l-0.01,-0.013c-0.025,-0.024 -0.044,-0.032 -0.057,-0.021l-0.007,0.005c-0.018,0.013 -0.017,0.033 0.003,0.061l0.01,0.013c0.012,0.018 0.029,0.021 0.047,0.008l0.007,-0.006c0.015,-0.017 0.017,-0.033 0.007,-0.047Zm0.238,-4.202c-0.017,-0.022 -0.041,-0.022 -0.073,0.001l-0.008,0.005c-0.032,0.023 -0.039,0.046 -0.022,0.069c0.028,0.001 0.054,-0.001 0.079,-0.006c0.008,-0.019 0.015,-0.042 0.024,-0.069Zm0.177,10.816c-0.002,0.016 -0.006,0.028 -0.011,0.034c-0.004,0.008 -0.012,0.019 -0.022,0.033c-0.009,-0.001 -0.016,-0.006 -0.022,-0.015l-0.015,-0.02c-0.006,-0.009 -0.005,-0.017 0.003,-0.024c0.006,-0.003 0.015,-0.007 0.03,-0.011c0.013,-0.004 0.027,-0.003 0.037,0.003Zm0.048,-0.108l-0.015,0.053l-0.023,-0.004c-0.01,-0.014 -0.013,-0.029 -0.011,-0.044c0.021,-0.009 0.037,-0.01 0.049,-0.005Zm0.29,-10.604l-0.014,-0.02c-0.021,-0.019 -0.039,-0.024 -0.053,-0.014l-0.007,0.005c-0.018,0.013 -0.019,0.032 -0.002,0.054l0.015,0.021c0.009,0.013 0.025,0.016 0.047,0.007l0.007,-0.004c0.014,-0.019 0.017,-0.035 0.007,-0.049Zm0.353,3.793l-0.235,-0.321c-0.095,0.07 -0.1,0.164 -0.013,0.282c0.096,0.132 0.172,0.178 0.227,0.138l0.013,-0.01l0.008,-0.089Zm-0.203,-3.588c-0.014,-0.01 -0.04,-0.02 -0.074,-0.029c-0.019,0.013 -0.016,0.035 0.008,0.067l0.004,0.007c0.023,0.032 0.044,0.041 0.062,0.028c0.001,-0.028 0,-0.053 0,-0.073Zm0.081,0.213l-0.009,-0.014c-0.026,-0.023 -0.045,-0.03 -0.058,-0.021l-0.007,0.006c-0.018,0.013 -0.017,0.033 0.003,0.06l0.01,0.014c0.013,0.018 0.027,0.022 0.04,0.012l0.014,-0.01c0.015,-0.018 0.017,-0.034 0.007,-0.047Z" style="fill:#fff;fill-rule:nonzero;"/><path d="M143.912,232.788c0.05,0.526 0.041,0.932 -0.027,1.215l-0.031,-0.04c-0.027,-0.036 -0.068,-0.034 -0.122,0.007c0.036,-0.028 -0.068,0.308 -0.311,1.005c-0.122,0.346 -0.269,0.646 -0.442,0.904c-0.086,0.128 -0.116,0.211 -0.09,0.246c0.085,0.113 0.207,0.11 0.364,-0.009c0.068,-0.051 0.135,-0.143 0.204,-0.277c0.068,-0.135 0.136,-0.227 0.204,-0.278c0.001,0.246 -0.151,0.484 -0.458,0.714c-0.162,0.122 -0.377,0.164 -0.645,0.126c-0.267,-0.038 -0.461,-0.136 -0.579,-0.293c-0.138,-0.184 -0.252,-0.856 -0.34,-2.015l-0.097,-0.127l-0.08,0.06c-0.031,0.185 -0.093,0.458 -0.19,0.819c0.004,0.04 -0.012,0.095 -0.046,0.162l-0.016,-0.02c-0.06,-0.081 -0.04,-0.485 0.064,-1.21c0.042,0.067 0.108,0.066 0.199,-0.002c0.171,-0.559 0.19,-0.929 0.054,-1.109l-0.06,0.046l-0.116,0.478l-0.036,-0.047c0.02,-0.274 0.095,-0.661 0.227,-1.16c0.029,-0.057 0.146,-0.163 0.353,-0.318l0.196,-0.147c0.014,0.046 0.025,0.14 0.032,0.282c0.008,0.093 0.047,0.187 0.117,0.282c0.126,-0.096 0.248,-0.145 0.365,-0.148l-0.054,1.362c-0.017,0.372 -0.034,0.743 -0.05,1.114c0.002,0.52 0.079,0.88 0.232,1.083c0.055,0.072 0.135,0.068 0.244,-0.013c0.207,-0.156 0.348,-0.417 0.424,-0.785c0.127,-0.412 0.281,-1.036 0.464,-1.871l0.047,-0.036Zm-1.439,-4.045c0.104,0.14 0.115,0.348 0.031,0.626c-0.083,0.278 -0.199,0.473 -0.348,0.585l-0.063,-0.027l-0.132,-0.176c-0.271,-0.36 -0.215,-0.685 0.169,-0.973c0.156,-0.118 0.272,-0.13 0.343,-0.035Zm1.285,6.428c0.005,0.045 -0.003,0.118 -0.026,0.218l-0.034,0.026c-0.01,-0.079 0.001,-0.154 0.031,-0.227l0.029,-0.017Zm0.134,-0.919c-0.004,0.052 -0.016,0.134 -0.036,0.248l-0.034,-0.048l0.032,-0.224l0.023,0.003l0.015,0.021Z" style="fill:#fff;fill-rule:nonzero;"/><path d="M146.783,219.035c0.256,0.336 0.323,0.869 0.199,1.602c-0.103,0.681 -0.273,1.679 -0.509,2.994l-0.454,1.875l-0.932,3.732c-0.038,0.164 -0.01,0.986 0.085,2.466l0.061,0.08c0.082,-0.062 0.124,-0.112 0.129,-0.151c0.246,-1.125 0.402,-1.807 0.47,-2.042c0.275,-0.977 0.576,-1.589 0.902,-1.839c0.345,-0.264 0.618,-0.263 0.82,0.001c0.096,0.126 0.143,0.424 0.141,0.894c0.033,0.045 0.047,0.119 0.042,0.223c-0.012,0.179 -0.205,0.497 -0.58,0.954c-0.34,0.408 -0.471,0.664 -0.392,0.768c0.048,0.062 0.152,0.103 0.314,0.122c0.161,0.019 0.278,0.076 0.35,0.169c0.061,0.08 0.109,0.22 0.144,0.417c0.035,0.197 0.082,0.336 0.145,0.417c0.041,0.054 0.081,0.065 0.122,0.034l0.127,-0.097c0.291,-0.222 0.593,-1.147 0.906,-2.776l0.035,0.047c-0.024,0.358 -0.048,0.711 -0.072,1.061c-0.056,0.652 -0.111,1.001 -0.166,1.05l-0.034,-0.004l0,-0.042l0.033,-0.067c-0.026,-0.016 -0.051,-0.042 -0.073,-0.08c-0.119,0.26 -0.306,0.642 -0.558,1.146l0.05,0.067c0.068,-0.051 0.145,-0.14 0.233,-0.266c0.089,-0.126 0.162,-0.211 0.219,-0.256l0.022,-0.013c0.022,0.251 -0.124,0.496 -0.437,0.735c-0.063,0.048 -0.223,0.102 -0.481,0.165c-0.423,0.103 -0.742,0.014 -0.957,-0.268c-0.171,-0.223 -0.287,-0.482 -0.345,-0.774c-0.058,-0.292 -0.092,-0.445 -0.102,-0.459c-0.075,-0.099 -0.243,-0.048 -0.503,0.15l-0.129,0.095l-0.198,1.481c-0.012,0.384 -0.045,0.809 -0.099,1.274c0.027,0.157 0.002,0.267 -0.075,0.333l-0.595,0.529c-0.078,0.074 -0.169,0.044 -0.27,-0.09l-0.047,-0.06c-0.038,-0.134 -0.078,-0.329 -0.119,-0.588l-0.079,-1.341c-0.064,-0.084 -0.167,-0.098 -0.307,-0.041c0.01,-0.071 0.023,-0.173 0.041,-0.307c0.068,-0.264 0.142,-0.604 0.221,-1.02c0.002,-0.015 0.001,-0.04 -0.002,-0.073l-0.074,-7.28c-0.017,-1.228 0.215,-2.232 0.698,-3.011c-0.01,0.007 -0.018,0.01 -0.026,0.009c0.006,-0.012 0.024,-0.035 0.052,-0.072c0.088,-0.088 0.218,-0.23 0.389,-0.424c0.023,-0.025 0.045,-0.052 0.065,-0.081c-0.005,0.003 -0.011,0.009 -0.02,0.015c0.074,-0.099 0.193,-0.349 0.36,-0.751c0.135,-0.314 0.291,-0.54 0.47,-0.677c0.319,-0.243 0.582,-0.227 0.79,0.045Zm-1.771,1.977l-0.072,-0.095c-0.246,0.189 -0.405,0.62 -0.479,1.293c-0.027,0.495 -0.053,0.99 -0.079,1.485l0.061,0.08l0.08,-0.062l0.489,-2.701Zm0.765,-0.211l-0.144,-0.189c-0.122,-0.056 -0.214,-0.061 -0.276,-0.013l-0.272,2.038c-0.033,0.209 -0.074,0.55 -0.125,1.021l-0.054,1.711l-0.109,3.422c-0.004,0.124 0.016,0.215 0.061,0.273l0.155,-0.104l1.055,-4.544c0.14,-0.584 0.198,-1.206 0.173,-1.869c-0.028,-0.796 -0.183,-1.378 -0.464,-1.746Zm0.639,-1.51c-0.164,-0.215 -0.351,-0.243 -0.559,-0.084c-0.107,0.081 -0.217,0.255 -0.332,0.52c-0.127,0.282 -0.158,0.468 -0.089,0.557c0.033,0.045 0.111,0.07 0.23,0.074c0.12,0.005 0.193,0.025 0.221,0.061l0.168,0.221c0.072,0.094 0.142,0.25 0.21,0.467c0.067,0.218 0.137,0.373 0.209,0.468l0.107,-0.082c0.146,-1.132 0.092,-1.867 -0.165,-2.202Zm0.646,10.097l-0.292,-0.383c-0.041,-0.054 -0.135,-0.024 -0.283,0.089c-0.372,0.284 -0.641,0.851 -0.807,1.701l0.001,0.042c0.075,0.099 0.245,0.047 0.509,-0.155c0.644,-0.492 0.935,-0.923 0.872,-1.294Zm0.095,-1.104l-0.241,-0.316c-0.048,-0.062 -0.141,-0.041 -0.279,0.064c-0.174,0.133 -0.374,0.513 -0.602,1.14l0.072,0.094c0.072,-0.055 0.162,-0.148 0.271,-0.28c0.107,-0.133 0.195,-0.224 0.262,-0.276l0.033,-0.025c0.053,-0.034 0.18,-0.095 0.38,-0.185l0.085,-0.042l0.036,-0.008l-0.006,0.005c0.052,-0.038 0.047,-0.095 -0.011,-0.171Zm1.475,3.063c0.006,0.016 0.007,0.027 0.002,0.03l-0.006,0.005c-0.013,0.003 -0.027,0.003 -0.043,0.001c-0.013,-0.018 -0.017,-0.033 -0.012,-0.044c0.018,-0.014 0.036,-0.013 0.055,0.001l0.004,0.007Z" style="fill:#fff;fill-rule:nonzero;"/><path d="M152.315,226.651c-0.116,0.924 -0.22,1.549 -0.308,1.874c-0.2,0.725 -0.518,1.257 -0.954,1.596c-0.214,0.166 -0.471,0.27 -0.774,0.313c-0.404,0.058 -0.66,0.019 -0.767,-0.119c-0.37,-0.475 -0.582,-0.78 -0.637,-0.915c-0.023,-0.139 -0.051,-0.303 -0.083,-0.491c-0.011,-0.062 -0.032,-0.157 -0.06,-0.284c-0.103,-0.518 -0.035,-1.111 0.205,-1.779c0.239,-0.667 0.567,-1.162 0.98,-1.484l0.286,-0.223c0.118,-0.077 0.267,-0.079 0.447,-0.004c0.147,0.063 0.271,0.157 0.367,0.281c0.378,0.485 0.391,1.136 0.042,1.951c-0.177,0.416 -0.545,1.016 -1.104,1.801c0.054,0.179 0.133,0.335 0.237,0.469c0.18,0.232 0.417,0.233 0.71,0.005c0.396,-0.308 0.707,-0.758 0.933,-1.349c0.086,-0.238 0.231,-0.774 0.433,-1.605l0.047,-0.037Zm-1.805,-1.219c-0.065,-0.084 -0.179,-0.131 -0.343,-0.139l-0.201,0.155c-0.199,0.156 -0.368,0.426 -0.504,0.811c-0.149,0.415 -0.152,0.713 -0.01,0.896l0.083,-0.086c0.299,-0.561 0.653,-1.037 1.063,-1.428c0.004,-0.059 -0.026,-0.129 -0.088,-0.209Zm0.208,0.696c-0.017,-0.022 -0.041,-0.048 -0.072,-0.078c-0.03,-0.03 -0.052,-0.054 -0.066,-0.072c-0.06,-0.003 -0.136,0.032 -0.23,0.104c-0.129,0.1 -0.212,0.208 -0.25,0.324c-0.241,0.699 -0.314,1.412 -0.221,2.137l0.083,0.107c0.258,-0.201 0.49,-0.603 0.699,-1.207c0.221,-0.641 0.24,-1.08 0.057,-1.315Zm1.079,2.816l-0.072,-0.092c-0.12,0.093 -0.257,0.262 -0.407,0.507c-0.237,0.367 -0.357,0.556 -0.363,0.567l0.072,0.093c0.272,-0.211 0.529,-0.57 0.77,-1.075Z" style="fill:#fff;fill-rule:nonzero;"/><path d="M169.193,204.433c-0.19,-0.026 -0.47,-0.052 -0.84,-0.075c-0.516,0.01 -0.951,0.159 -1.304,0.449c-0.03,0.025 -0.058,0.071 -0.084,0.136c-0.027,0.066 -0.053,0.109 -0.079,0.13c-0.137,0.215 -0.538,0.597 -1.204,1.144c-0.244,0.201 -0.445,0.727 -0.604,1.58c-0.144,0.738 -0.202,1.338 -0.174,1.796l0.296,5.12c-0.008,0.151 -0.006,0.38 0.005,0.685c0.06,0.074 0.147,0.117 0.258,0.127c0.374,0.224 0.769,0.571 1.184,1.039c0.313,-0.258 0.589,-0.738 0.828,-1.441c0.237,-0.704 0.344,-1.044 0.318,-1.023l0.033,-0.027c-0.055,0.847 -0.268,1.595 -0.639,2.243c-0.065,0.098 -0.163,0.248 -0.295,0.452c-0.04,0.076 0.023,0.277 0.188,0.6c0.072,0.123 0.171,0.315 0.298,0.575c0.417,1.065 0.454,2.183 0.112,3.355c-0.338,1.139 -0.954,2.076 -1.846,2.81c-2.049,1.686 -4.064,1.462 -6.046,-0.671c-0.34,0.199 -0.841,0.477 -1.504,0.832c-0.756,0.375 -1.285,0.38 -1.586,0.014c-0.43,-0.521 0.108,-1.402 1.613,-2.641c-0.204,-0.124 -0.433,-0.34 -0.687,-0.649c-0.426,-0.517 -0.632,-1.158 -0.618,-1.921c0.011,-0.732 0.216,-1.378 0.614,-1.939c0.229,-0.327 0.485,-0.632 0.767,-0.916c0.043,-0.144 0.124,-0.485 0.244,-1.021c0.074,-0.353 0.183,-0.731 0.327,-1.133c0.05,-0.1 0.11,-0.248 0.181,-0.445c0.015,-0.078 0.014,-0.235 -0.003,-0.468c-0.092,-1.238 0.604,-2.573 2.088,-4.006c0.111,-0.113 0.317,-0.301 0.62,-0.564l2.509,-2.218c0.869,-0.716 1.445,-1.164 1.726,-1.345c0.048,-0.032 0.2,-0.121 0.459,-0.267c0.241,-0.133 0.368,-0.205 0.381,-0.216c0.104,-0.085 0.191,-0.204 0.26,-0.355c0.069,-0.151 0.129,-0.249 0.181,-0.292l0.033,-0.026c0.037,0.107 0.046,0.263 0.026,0.47c0.97,-0.345 1.625,-0.311 1.964,0.102Zm-10.366,17.657c-0.175,-0.213 -0.354,-0.314 -0.534,-0.303c-0.044,0.035 -0.113,0.087 -0.208,0.153c-0.095,0.067 -0.163,0.119 -0.207,0.154c-0.669,0.551 -1.08,0.984 -1.23,1.297c-0.162,0.345 -0.167,0.608 -0.017,0.791c0.214,0.261 0.676,0.246 1.385,-0.046c0.559,-0.226 1.014,-0.484 1.366,-0.774l0.124,-0.101c-0.399,-0.715 -0.625,-1.105 -0.679,-1.171Zm-0.75,-4.821l-0.038,-0.045c-0.099,0.082 -0.179,0.184 -0.239,0.306c-0.716,1.399 -0.696,2.558 0.059,3.476c0.304,0.37 0.512,0.508 0.625,0.415l0.046,-0.037c-0.397,-1.396 -0.548,-2.767 -0.453,-4.115Zm3.543,-1.055l-0.102,-0.123c-0.329,-0.401 -0.778,-0.538 -1.347,-0.414c-0.449,0.093 -0.895,0.322 -1.339,0.687c-0.066,0.054 -0.155,0.14 -0.269,0.259c-0.114,0.119 -0.196,0.2 -0.249,0.243c-0.176,0.503 -0.146,1.581 0.089,3.233c0.089,0.657 0.168,1.029 0.239,1.115l0.038,0.046c0.573,-0.297 1.001,-0.561 1.284,-0.794l0.078,-0.065c-0.061,-0.021 -0.191,-0.006 -0.389,0.047c-0.164,0.04 -0.277,0.023 -0.337,-0.051l0.013,-0.011l0.002,-0.023c0.234,-0.055 0.415,-0.109 0.545,-0.164c0.001,-0.016 0.004,-0.153 0.01,-0.414c0.002,-0.147 0.06,-0.268 0.173,-0.361c0.053,-0.043 0.132,-0.074 0.241,-0.094c0.107,-0.019 0.178,-0.043 0.213,-0.072l0.02,-0.016c0.021,-0.843 0.189,-1.557 0.502,-2.143c0.164,-0.171 0.36,-0.466 0.585,-0.885Zm3.6,-9.562l-2.371,1.535c-0.047,0.032 -0.103,0.079 -0.169,0.14c-0.076,0.069 -0.271,0.288 -0.587,0.658c-1.394,1.621 -2.307,3.029 -2.738,4.224c-0.087,0.232 0.02,0.53 0.321,0.896c0.279,0.339 0.618,0.454 1.017,0.345c0.151,-0.038 0.247,-0.072 0.286,-0.104l0.385,-0.317c0.905,-0.745 1.404,-1.885 1.497,-3.421c0.003,-0.155 -0.022,-0.266 -0.076,-0.331c-0.218,-0.265 -0.608,-0.167 -1.17,0.295c-0.378,0.311 -0.689,0.757 -0.934,1.338c-0.008,-0.161 0.116,-0.427 0.372,-0.799c0.228,-0.326 0.429,-0.56 0.602,-0.704c0.414,-0.34 0.8,-0.424 1.16,-0.254c-0.019,-0.181 0.003,-0.395 0.063,-0.642l0.056,0.03l0.049,0.058c0.124,0.54 0.192,0.991 0.205,1.353c0.055,1.414 -0.371,2.493 -1.275,3.238c-0.509,0.418 -0.952,0.622 -1.326,0.61c-0.522,-0.023 -0.842,-0.106 -0.96,-0.25l-0.542,-0.659c-0.066,0.054 -0.183,0.374 -0.352,0.962c-0.168,0.588 -0.257,0.968 -0.26,1.139c1.284,-0.904 2.417,-0.898 3.395,0.018c0.789,-0.584 1.632,-0.865 2.526,-0.841c0.009,-0.584 -0.054,-1.409 -0.186,-2.474c-0.137,-1.106 -0.207,-1.913 -0.209,-2.422c-0.006,-0.9 0.124,-1.715 0.386,-2.442c0.099,-0.27 0.181,-0.433 0.246,-0.486c0.052,-0.043 0.091,-0.049 0.116,-0.019c0.043,0.053 0.039,0.1 -0.014,0.143c-0.153,0.462 -0.243,0.751 -0.27,0.868c-0.082,0.352 -0.089,0.646 -0.019,0.881l0.173,-1.04l0.026,0.339c0.127,-0.535 0.32,-1.157 0.577,-1.865Zm-4.41,13.938c-0.244,-0.075 -0.474,-0.074 -0.685,0.006c-0.22,0.115 -0.434,0.23 -0.645,0.346c-0.169,0.087 -0.361,0.219 -0.574,0.394l-0.169,0.14c0.015,0.089 0.042,0.158 0.081,0.206c0.126,0.153 0.51,0.168 1.155,0.046c0.612,-0.117 1.008,-0.25 1.191,-0.4l-0.001,-0.055l-0.353,-0.683Zm0.572,0.974c-0.022,-0.018 -0.048,-0.04 -0.078,-0.067c-0.808,0.373 -1.577,0.525 -2.307,0.454l-0.046,0.037c0.218,0.434 0.406,0.746 0.563,0.937l0.161,0.196l0.197,-0.107l1.429,-1.176c0.122,-0.1 0.149,-0.191 0.081,-0.274Zm-2.021,-9.598c-0.1,0.235 -0.157,0.582 -0.173,1.04c0.046,-0.227 0.103,-0.573 0.173,-1.04Zm-0.118,1.454c-0.027,0.074 -0.011,0.147 0.051,0.221l0.011,0.013l-0.062,-0.234Zm0.129,0.343l-0.011,-0.013c-0.026,-0.022 -0.045,-0.028 -0.059,-0.017l-0.006,0.005c-0.017,0.014 -0.017,0.036 0,0.066l0.011,0.013c0.019,0.014 0.034,0.015 0.047,0.005l0.013,-0.011c0.015,-0.019 0.016,-0.035 0.005,-0.048Zm1.93,-4.357c-0.017,0.014 -0.043,0.032 -0.077,0.053c-0.034,0.02 -0.058,0.036 -0.071,0.047c-0.748,0.616 -1.283,1.326 -1.606,2.131c-0.003,-0.004 -0.007,-0.009 -0.01,-0.013l-0.011,-0.013c-0.022,-0.026 -0.041,-0.032 -0.059,-0.017l-0.007,0.005c-0.017,0.014 -0.014,0.034 0.007,0.061l0.011,0.012c0.014,0.018 0.029,0.023 0.046,0.017l-0.018,0.058c0.001,-0.008 0,-0.014 -0.004,-0.019l-0.016,-0.019c-0.022,-0.018 -0.042,-0.02 -0.059,-0.006l-0.006,0.006c-0.014,0.011 -0.013,0.029 0,0.054l0.017,0.019c0.014,0.01 0.028,0.01 0.042,-0.002l0.012,-0.011c-0.112,0.326 -0.165,0.629 -0.16,0.91c0.519,-1.179 1.176,-2.27 1.969,-3.273Zm-1.859,2.448l-0.016,-0.019c-0.018,-0.022 -0.034,-0.026 -0.053,-0.011l-0.006,0.005c-0.014,0.011 -0.013,0.029 0.001,0.055l0.015,0.019c0.015,0.01 0.031,0.011 0.048,0.004l0.007,-0.005c0.014,-0.018 0.016,-0.034 0.004,-0.048Zm0.105,-0.217c0.01,0.021 0.009,0.037 -0.004,0.048l-0.006,0.005c-0.006,0.004 -0.009,0.003 -0.013,-0.001l0.023,-0.052Zm7.061,5.44c-0.323,0.265 -1.108,0.791 -2.357,1.578c-0.06,0.042 -0.117,0.089 -0.169,0.14c-0.177,0.255 -0.411,0.582 -0.702,0.982c-0.528,0.697 -1.083,1.336 -1.662,1.915c0.397,0.484 0.855,0.726 1.375,0.729c-0.104,0.086 -0.285,0.097 -0.543,0.031c-0.074,-0.027 -0.181,-0.073 -0.323,-0.139c-0.137,-0.122 -0.356,-0.287 -0.661,-0.497l-1.787,1.472c1.804,2.192 3.741,2.436 5.811,0.732c0.848,-0.698 1.416,-1.585 1.703,-2.659c0.286,-1.075 0.244,-2.13 -0.128,-3.167c-0.185,-0.518 -0.371,-0.891 -0.557,-1.117Zm-6.351,-3.421c0.007,0.017 0.006,0.033 -0.004,0.048l-0.006,0.006c-0.021,0.01 -0.037,0.009 -0.048,-0.005l-0.016,-0.019c-0.013,-0.026 -0.014,-0.044 -0.001,-0.054l0.007,-0.006c0.016,-0.015 0.034,-0.011 0.053,0.011l0.015,0.019Zm0.063,6.593l-0.006,-0.007c-0.021,-0.026 -0.04,-0.032 -0.058,-0.017l-0.006,0.005c-0.018,0.014 -0.016,0.034 0.006,0.06l0.006,0.007c0.029,0.027 0.051,0.035 0.063,0.024l0.007,-0.005c0.017,-0.015 0.013,-0.037 -0.012,-0.067Zm-0.03,-6.991l0.006,0.006c0.022,0.027 0.018,0.052 -0.013,0.078l-0.024,-0.003l-0.013,-0.043l0.015,-0.034c0.008,-0.009 0.018,-0.01 0.029,-0.004Zm0.091,-0.315l0.009,0.024l-0.013,0.023l-0.013,0.011l-0.018,0.004l-0.023,-0.014l-0.005,-0.006l-0.011,-0.025l0.009,-0.017l0.012,-0.011l0.026,-0.011l0.022,0.015l0.005,0.007Zm0.04,-0.284l0.011,0.012c0.02,0.034 0.024,0.056 0.011,0.068c-0.016,0.006 -0.036,0.008 -0.061,0.006c-0.008,-0.037 -0.003,-0.063 0.014,-0.077c0.004,-0.004 0.012,-0.007 0.025,-0.009Zm0.056,7.515c-0.019,-0.006 -0.038,-0.002 -0.055,0.012l-0.02,0.016c-0.017,0.015 -0.022,0.026 -0.015,0.035l0.016,0.019c0.025,-0.006 0.046,-0.016 0.064,-0.03c0.013,-0.018 0.016,-0.035 0.01,-0.052Zm0.003,-7.696l0.011,0.013c0.018,0.03 0.012,0.056 -0.012,0.077l-0.036,-0.004l-0.008,-0.049l0.015,-0.034c0.012,-0.003 0.023,-0.004 0.03,-0.003Zm0.254,7.835c-0.046,0.015 -0.097,0.033 -0.155,0.051l-0.098,0.08c0.051,0.009 0.127,0.016 0.226,0.022l0.019,-0.016l0.025,0.003l0.002,-0.024c0.022,-0.018 0.015,-0.057 -0.019,-0.116Zm-0.163,-8.031c0.011,0.021 0.009,0.037 -0.004,0.048l-0.007,0.005c-0.018,0.015 -0.033,0.013 -0.047,-0.004l-0.011,-0.013c-0.014,-0.026 -0.015,-0.043 -0.001,-0.054l0.006,-0.006c0.017,-0.014 0.035,-0.01 0.053,0.011l0.011,0.013Zm0.017,-0.166l0.005,0.007c0.025,0.03 0.031,0.051 0.018,0.061c-0.017,0.007 -0.037,0.009 -0.061,0.007c-0.009,-0.037 -0.005,-0.061 0.008,-0.072c0.008,-0.007 0.018,-0.008 0.03,-0.003Zm0.089,-0.117c0.006,0.016 0.005,0.032 -0.005,0.047l-0.012,0.011c-0.017,0.007 -0.033,0.005 -0.049,-0.005l-0.016,-0.019c-0.013,-0.025 -0.011,-0.045 0.007,-0.059l0.006,-0.006c0.013,-0.011 0.031,-0.007 0.053,0.012l0.016,0.019Zm-0.002,8.11l-0.01,-0.013c-0.023,-0.018 -0.04,-0.021 -0.053,-0.011l-0.007,0.006c-0.018,0.014 -0.02,0.033 -0.006,0.058l0.01,0.013c0.019,0.014 0.035,0.016 0.048,0.005l0.014,-0.011c0.017,-0.014 0.02,-0.03 0.004,-0.047Zm1.066,-3.745c-0.365,0.301 -0.644,0.817 -0.837,1.549c-0.193,0.732 -0.214,1.322 -0.061,1.774c0.344,-0.283 0.6,-0.556 0.77,-0.82c0.263,-0.399 0.417,-0.814 0.463,-1.246c0.053,-0.502 -0.059,-0.922 -0.335,-1.257Zm2.667,-0.923c-0.177,-0.214 -0.552,-0.226 -1.126,-0.037c-0.48,0.161 -0.853,0.351 -1.118,0.569l-0.195,0.162c0.356,0.662 0.409,1.352 0.16,2.068c-0.218,0.632 -0.636,1.201 -1.253,1.71l0.037,0.045l2.483,-1.211c0.196,-0.162 0.391,-0.487 0.588,-0.976c0.189,-0.462 0.326,-1.159 0.413,-2.091c0.004,-0.056 0.008,-0.136 0.011,-0.239Zm-1.503,3.84l-1.885,0.873c-0.005,0.004 -0.02,0.017 -0.047,0.038c-0.026,0.074 -0.001,0.158 0.079,0.254l0.011,0.013c0.397,-0.05 0.956,-0.372 1.678,-0.966c0.078,-0.064 0.133,-0.135 0.164,-0.212Zm0.629,-0.233c-0.073,-0.027 -0.175,0.013 -0.305,0.12c-0.082,0.069 -0.196,0.175 -0.34,0.318c-0.145,0.145 -0.256,0.249 -0.334,0.314c-0.23,0.189 -0.56,0.377 -0.99,0.564c-0.314,0.133 -0.46,0.191 -0.438,0.173c-0.113,0.093 -0.044,0.292 0.206,0.597l0.064,0.078c0.156,-0.077 0.283,-0.157 0.384,-0.239l0.509,-0.418c0.639,-0.527 1.054,-1.029 1.244,-1.507Zm-1.351,1.856c-0.06,0.05 -0.157,0.121 -0.29,0.212c-0.133,0.091 -0.229,0.162 -0.291,0.212l-0.11,0.092l0.102,0.124c0.286,-0.237 0.483,-0.45 0.589,-0.64Zm1.677,-2.617l-0.166,0.29l0.058,-0.048c0.093,-0.076 0.128,-0.156 0.108,-0.242Zm2.544,-1.524l-0.425,-0.516c-0.325,-0.395 -0.589,-0.579 -0.792,-0.551c-0.005,0.004 -0.051,0.187 -0.138,0.551c-0.175,0.728 -0.373,1.364 -0.594,1.912c0.544,-0.28 1.056,-0.618 1.54,-1.016l0.286,-0.236c0.044,-0.035 0.085,-0.084 0.123,-0.144Z" style="fill:#fff;fill-rule:nonzero;"/><path d="M169.778,199.783c0.258,0.298 0.359,0.879 0.302,1.742c-0.011,0.226 -0.032,0.569 -0.06,1.026c0.02,0.453 -0.004,1.134 -0.072,2.043l-1.029,5.607c-0.148,0.8 -0.113,1.632 0.105,2.494l0.079,0.065l0.077,-0.066c0.026,-0.022 0.084,-0.364 0.173,-1.024c0.079,-0.605 0.124,-0.987 0.136,-1.146c0.025,-0.022 0.062,-0.013 0.11,0.026c0.02,0.006 0.043,-0.003 0.069,-0.025l0.044,-0.039c0.343,-0.662 0.628,-1.093 0.857,-1.292c0.036,-0.105 0.02,-0.196 -0.046,-0.273c-0.03,-0.034 -0.076,-0.08 -0.137,-0.139c-0.062,-0.058 -0.105,-0.102 -0.132,-0.132c-0.021,0.018 -0.056,0.042 -0.108,0.072c-0.052,0.031 -0.091,0.057 -0.117,0.079c-0.025,0.022 -0.037,0.04 -0.039,0.056c-0.058,0.052 -0.119,0.145 -0.179,0.28l-0.044,0.039c0.013,-0.209 0.075,-0.36 0.186,-0.457c0.37,-0.322 0.695,-0.32 0.976,0.003c0.222,0.256 0.362,0.818 0.42,1.685c0.081,1.161 0.134,1.794 0.158,1.9l0.067,0.077c0.038,-0.034 0.101,-0.074 0.185,-0.122c0.085,-0.048 0.146,-0.086 0.179,-0.116c0.192,-0.167 0.348,-0.63 0.47,-1.392c0.084,-0.557 0.128,-1.07 0.132,-1.537l0.039,0.045c0.068,0.396 0.06,1.037 -0.022,1.921c-0.039,-0.07 -0.087,-0.079 -0.147,-0.028l-0.045,0.038c-0.022,0.259 -0.133,0.608 -0.331,1.049c-0.119,0.259 -0.163,0.402 -0.132,0.428l0.067,0.053c0.048,-0.041 0.111,-0.104 0.192,-0.193c0.079,-0.088 0.144,-0.152 0.19,-0.193l0.015,-0.008c-0.059,0.19 -0.169,0.354 -0.331,0.495c-0.148,0.129 -0.349,0.229 -0.602,0.299c-0.298,0.086 -0.502,0.066 -0.612,-0.062c-0.152,-0.174 -0.235,-0.463 -0.251,-0.868l-0.072,-2.175l-0.167,-0.191c-0.012,0.011 -0.036,0.026 -0.072,0.046c-0.034,0.019 -0.061,0.036 -0.078,0.051c-0.069,0.059 -0.108,0.104 -0.118,0.136c-0.063,0.048 -0.097,0.091 -0.099,0.13c-0.517,1.142 -0.717,2.696 -0.6,4.662c0.006,0.033 0.008,0.082 0.008,0.15l-0.652,0.565c-0.077,0.023 -0.204,0.035 -0.38,0.039c-0.256,-0.853 -0.37,-1.5 -0.342,-1.942c-0.126,-0.144 -0.215,-0.194 -0.265,-0.15c-0.017,0.015 -0.03,0.03 -0.039,0.045c0.01,-0.039 0.045,-0.28 0.104,-0.723c0.059,-0.443 0.088,-0.697 0.084,-0.761l-0.346,-7.346c-0.015,-0.405 -0.004,-0.765 0.034,-1.082c0.057,-0.399 0.19,-0.866 0.398,-1.398c0.08,-0.294 0.205,-0.726 0.373,-1.298c0.152,-0.52 0.373,-0.906 0.662,-1.157c0.298,-0.258 0.556,-0.262 0.775,-0.011Zm-0.61,1.901c-0.181,-0.209 -0.407,-0.194 -0.68,0.041l-0.09,0.078c-0.008,0.008 -0.014,0.039 -0.018,0.095c-0.033,0.425 -0.07,1.062 -0.11,1.91c-0.005,0.167 0.003,1.034 0.02,2.602c-0.008,0.507 0.005,1.118 0.039,1.837c0.047,0.286 0.121,0.715 0.22,1.286l0.106,0.121l0.069,-0.061c0.009,-0.007 0.031,-0.124 0.067,-0.349c0.111,-0.551 0.259,-1.373 0.443,-2.467l0.23,-1.889c0.08,-0.526 0.153,-1.152 0.215,-1.879c-0.027,-0.522 -0.197,-0.963 -0.511,-1.325Zm0.294,-1.598c-0.181,-0.209 -0.373,-0.225 -0.576,-0.049c-0.263,0.229 -0.413,0.69 -0.448,1.385l0.066,0.077c0.388,-0.195 0.783,-0.142 1.185,0.158l0.089,-0.078c-0.018,-0.26 -0.036,-0.52 -0.054,-0.781c-0.038,-0.318 -0.126,-0.555 -0.262,-0.712Zm0.129,10.014c0.025,0.03 0.026,0.056 0,0.078l-0.038,0.033c-0.002,-0.02 -0.004,-0.044 -0.007,-0.072l0.045,-0.039Zm0.053,-0.338c0.008,0.009 0.009,0.023 0.004,0.042c-0.009,0 -0.025,-0.005 -0.048,-0.015c0.001,-0.008 0.003,-0.017 0.009,-0.03l0.006,-0.005c0.013,-0.003 0.022,-0.001 0.029,0.008Zm0.078,-0.246c0.007,0.016 0.008,0.026 0.004,0.031l-0.006,0.005c-0.013,0.003 -0.029,0.002 -0.048,-0.004c-0.011,-0.012 -0.015,-0.025 -0.01,-0.036c0.017,-0.015 0.035,-0.015 0.054,-0.002l0.006,0.006Zm0.029,-0.198c0.012,0.014 0.018,0.029 0.017,0.046c-0.02,0.002 -0.041,-0.001 -0.061,-0.008l0.008,-0.03c0.012,-0.011 0.025,-0.013 0.036,-0.008Z" style="fill:#fff;fill-rule:nonzero;"/><path d="M175.183,207.198c0.094,0.521 0.118,0.925 0.074,1.214l-0.034,-0.038c-0.029,-0.034 -0.069,-0.028 -0.12,0.016c0.033,-0.03 -0.042,0.314 -0.227,1.029c-0.092,0.353 -0.214,0.666 -0.365,0.936c-0.076,0.135 -0.099,0.22 -0.069,0.254c0.095,0.105 0.215,0.092 0.362,-0.039c0.063,-0.056 0.124,-0.153 0.181,-0.291c0.059,-0.137 0.12,-0.235 0.183,-0.291c0.021,0.244 -0.111,0.494 -0.397,0.749c-0.151,0.135 -0.362,0.194 -0.632,0.179c-0.271,-0.016 -0.472,-0.098 -0.602,-0.244c-0.155,-0.173 -0.325,-0.833 -0.51,-1.981l-0.107,-0.12l-0.075,0.067c-0.015,0.187 -0.055,0.464 -0.121,0.831c0.007,0.04 -0.005,0.096 -0.033,0.166l-0.016,-0.019c-0.068,-0.076 -0.081,-0.479 -0.038,-1.211c0.047,0.062 0.114,0.056 0.198,-0.018c0.125,-0.572 0.112,-0.941 -0.038,-1.11l-0.056,0.051l-0.077,0.486l-0.039,-0.044c-0.005,-0.277 0.037,-0.669 0.126,-1.18c0.023,-0.059 0.131,-0.174 0.324,-0.347l0.184,-0.163c0.017,0.045 0.036,0.138 0.056,0.279c0.015,0.093 0.062,0.183 0.14,0.271c0.118,-0.104 0.236,-0.164 0.351,-0.177l0.06,1.363c0.015,0.372 0.031,0.743 0.046,1.115c0.046,0.517 0.153,0.871 0.322,1.06c0.06,0.068 0.141,0.056 0.242,-0.033c0.193,-0.172 0.313,-0.445 0.358,-0.817c0.091,-0.422 0.193,-1.056 0.305,-1.904l0.044,-0.039Zm-1.772,-3.913c0.116,0.131 0.145,0.339 0.083,0.623c-0.06,0.285 -0.16,0.489 -0.3,0.614l-0.064,-0.022l-0.147,-0.164c-0.301,-0.337 -0.271,-0.666 0.088,-0.986c0.148,-0.132 0.262,-0.154 0.34,-0.065Zm1.817,6.301c0.01,0.044 0.007,0.117 -0.008,0.219l-0.032,0.029c-0.016,-0.078 -0.012,-0.154 0.012,-0.229l0.028,-0.019Zm0.056,-0.927c0.001,0.052 -0.003,0.135 -0.014,0.25l-0.04,-0.044l0.014,-0.227l0.023,0.002l0.017,0.019Z" style="fill:#fff;fill-rule:nonzero;"/><path d="M178.407,204.614c-0.043,0.932 -0.096,1.563 -0.159,1.895c-0.141,0.74 -0.416,1.296 -0.823,1.668c-0.2,0.182 -0.449,0.306 -0.747,0.372c-0.399,0.09 -0.657,0.07 -0.776,-0.059c-0.405,-0.445 -0.641,-0.733 -0.708,-0.864c-0.033,-0.137 -0.074,-0.299 -0.121,-0.484c-0.017,-0.061 -0.045,-0.154 -0.083,-0.279c-0.144,-0.509 -0.122,-1.106 0.065,-1.792c0.187,-0.684 0.473,-1.203 0.86,-1.556l0.268,-0.245c0.112,-0.086 0.259,-0.1 0.444,-0.039c0.153,0.051 0.283,0.135 0.39,0.251c0.413,0.454 0.478,1.102 0.191,1.942c-0.144,0.428 -0.464,1.056 -0.961,1.883c0.067,0.175 0.158,0.325 0.272,0.45c0.198,0.216 0.434,0.199 0.709,-0.052c0.372,-0.339 0.647,-0.812 0.826,-1.418c0.068,-0.245 0.17,-0.789 0.308,-1.634l0.045,-0.039Zm-1.895,-1.074c-0.072,-0.079 -0.191,-0.117 -0.354,-0.113l-0.187,0.171c-0.187,0.171 -0.334,0.453 -0.439,0.847c-0.116,0.426 -0.096,0.724 0.06,0.894l0.076,-0.092c0.254,-0.582 0.571,-1.085 0.949,-1.505c-0.002,-0.06 -0.037,-0.127 -0.105,-0.202Zm0.261,0.677c-0.019,-0.02 -0.044,-0.044 -0.077,-0.072c-0.033,-0.028 -0.057,-0.05 -0.072,-0.066c-0.06,0.001 -0.134,0.041 -0.221,0.121c-0.12,0.11 -0.195,0.225 -0.224,0.343c-0.184,0.718 -0.2,1.435 -0.049,2.153l0.092,0.1c0.24,-0.219 0.441,-0.64 0.601,-1.258c0.169,-0.659 0.152,-1.099 -0.05,-1.321Zm1.297,2.723l-0.079,-0.085c-0.113,0.102 -0.235,0.281 -0.367,0.538c-0.206,0.383 -0.312,0.581 -0.317,0.593l0.079,0.086c0.254,-0.232 0.482,-0.609 0.684,-1.132Z" style="fill:#fff;fill-rule:nonzero;"/><path d="M182.749,200.487c0.049,0.544 -0.161,1.126 -0.629,1.746c-0.137,0.184 -0.223,0.293 -0.26,0.327c-0.031,0.091 -0.072,0.232 -0.126,0.421c-0.071,0.106 -0.083,0.138 -0.038,0.095l-0.049,0.046c0.018,-0.621 0.022,-0.935 0.014,-0.944c-0.054,-0.057 -0.114,-0.055 -0.179,0.007l-0.061,0.058c-0.035,0.119 -0.166,0.506 -0.392,1.161c-0.264,0.738 -0.418,1.132 -0.464,1.183c-0.027,0.111 -0.043,0.196 -0.049,0.256c0.08,0.094 0.242,0.026 0.484,-0.202c0.115,-0.108 0.182,-0.185 0.202,-0.23c-0.01,0.073 -0.038,0.132 -0.087,0.179l-0.479,0.44c-0.112,-0.004 -0.222,0.045 -0.327,0.145c-0.05,0.047 -0.114,0.121 -0.192,0.222c-0.079,0.101 -0.141,0.173 -0.186,0.215c-0.127,0.12 -0.235,0.133 -0.325,0.039c-0.042,-0.045 -0.064,-0.098 -0.066,-0.157c-0.124,-0.705 -0.244,-1.76 -0.364,-3.165c-0.143,-0.151 -0.252,-0.19 -0.33,-0.117c-0.201,0.19 -0.366,1.02 -0.496,2.49l-0.042,0.041c-0.007,-0.04 -0.019,-0.102 -0.037,-0.187c-0.002,-0.068 -0.003,-0.168 -0.003,-0.299c-0.028,-0.26 -0.052,-0.649 -0.068,-1.168c0.041,0.07 0.103,0.065 0.186,-0.012l0.055,-0.053c0.083,-0.419 0.287,-0.93 0.611,-1.53c0.03,-0.059 -0.008,-0.144 -0.113,-0.255c-0.073,-0.078 -0.124,-0.103 -0.153,-0.076l-0.377,0.351c0.005,-0.11 0.07,-0.225 0.197,-0.345c0.25,-0.236 0.452,-0.272 0.607,-0.108l0.29,0.307c0.26,0.275 0.448,0.683 0.565,1.225c0.081,0.373 0.129,0.809 0.143,1.309l0.013,0.64c0.011,0.012 0.033,0.029 0.064,0.05c0.031,0.021 0.055,0.039 0.07,0.056l0.142,-0.133c0.085,-0.081 0.244,-0.472 0.474,-1.171c0.226,-0.672 0.354,-1.111 0.383,-1.318c-0.194,-0.353 -0.315,-0.699 -0.366,-1.04c-0.011,-0.068 -0.041,-0.454 -0.094,-1.157c-0.017,-0.125 -0.037,-0.249 -0.062,-0.373c-0.012,-0.144 0.029,-0.261 0.123,-0.349c0.124,-0.117 0.269,-0.086 0.435,0.09c0.279,0.295 0.443,1.191 0.494,2.688c0.073,0.078 0.124,0.103 0.153,0.077c0.307,-0.291 0.53,-0.769 0.668,-1.434l0.041,-0.041Zm-4.386,1.215c0.008,0.016 0.009,0.034 0.005,0.054c-0.016,0.008 -0.034,0.001 -0.053,-0.019c-0.005,-0.004 -0.002,-0.01 0.006,-0.018l0.007,-0.006c0.011,-0.011 0.024,-0.015 0.035,-0.011Zm3.268,0.039c-0.094,0.089 -0.096,0.181 -0.008,0.275c0.095,-0.089 0.098,-0.181 0.008,-0.275Zm1.168,-1.521c-0.009,0.024 -0.016,0.057 -0.021,0.101l-0.012,0.012l-0.024,-0.001l0.017,-0.155l0.04,0.043Z" style="fill:#fff;fill-rule:nonzero;"/><path d="M185.903,197.41c-0.007,0.934 -0.034,1.567 -0.084,1.902c-0.112,0.745 -0.366,1.311 -0.759,1.699c-0.193,0.19 -0.437,0.323 -0.732,0.4c-0.395,0.104 -0.655,0.094 -0.778,-0.031c-0.424,-0.431 -0.671,-0.71 -0.742,-0.838c-0.039,-0.136 -0.085,-0.296 -0.14,-0.48c-0.019,-0.06 -0.051,-0.152 -0.093,-0.276c-0.165,-0.504 -0.166,-1.102 -0.007,-1.793c0.161,-0.692 0.427,-1.222 0.8,-1.589l0.259,-0.255c0.109,-0.09 0.257,-0.109 0.444,-0.056c0.155,0.046 0.288,0.125 0.399,0.238c0.433,0.439 0.523,1.084 0.272,1.934c-0.125,0.433 -0.42,1.072 -0.882,1.916c0.074,0.172 0.171,0.318 0.291,0.439c0.206,0.21 0.441,0.184 0.707,-0.076c0.355,-0.351 0.611,-0.834 0.765,-1.448c0.057,-0.247 0.136,-0.795 0.238,-1.645l0.042,-0.041Zm-1.934,-1.001c-0.075,-0.077 -0.194,-0.109 -0.357,-0.099l-0.181,0.178c-0.18,0.178 -0.316,0.466 -0.407,0.864c-0.1,0.429 -0.068,0.726 0.095,0.891l0.072,-0.096c0.232,-0.592 0.529,-1.105 0.89,-1.54c-0.003,-0.059 -0.04,-0.126 -0.112,-0.198Zm0.287,0.669c-0.019,-0.02 -0.046,-0.043 -0.079,-0.07c-0.033,-0.026 -0.059,-0.047 -0.075,-0.063c-0.059,0.004 -0.131,0.047 -0.215,0.13c-0.116,0.115 -0.187,0.231 -0.212,0.35c-0.157,0.723 -0.146,1.439 0.031,2.15l0.095,0.096c0.233,-0.229 0.417,-0.655 0.554,-1.279c0.143,-0.663 0.11,-1.101 -0.099,-1.314Zm1.395,2.667l-0.082,-0.084c-0.108,0.107 -0.224,0.291 -0.345,0.553c-0.191,0.392 -0.287,0.595 -0.292,0.607l0.082,0.084c0.245,-0.241 0.458,-0.628 0.637,-1.16Z" style="fill:#fff;fill-rule:nonzero;"/><path d="M189.089,194.488c0.041,0.528 -0.088,1.17 -0.386,1.926c-0.29,0.732 -0.626,1.294 -1.007,1.685c-0.566,0.58 -1.078,0.649 -1.533,0.205c-0.196,-0.192 -0.319,-0.454 -0.368,-0.783c-0.047,-0.33 0.024,-0.592 0.213,-0.785c0.027,-0.028 0.07,-0.064 0.126,-0.106c0.058,-0.042 0.099,-0.076 0.122,-0.101l0.146,0.142c0.125,0.123 0.174,0.371 0.147,0.746c-0.028,0.376 0.032,0.634 0.176,0.776c0.226,0.22 0.434,0.234 0.622,0.041c0.439,-0.451 0.559,-1.086 0.357,-1.903c-0.038,-0.139 -0.291,-0.783 -0.759,-1.932l-0.109,-0.106l-0.071,0.072c-0.069,0.554 -0.192,1.23 -0.372,2.027l-0.096,-0.047c0.005,-0.151 0.012,-0.384 0.02,-0.698c0.051,0.057 0.104,0.056 0.164,-0.005c0.075,-0.077 0.134,-0.338 0.178,-0.785c0.044,-0.447 0.037,-0.7 -0.023,-0.759c-0.053,-0.051 -0.1,-0.051 -0.14,-0.001c0.012,-0.052 0.052,-0.347 0.123,-0.885c0.058,-0.462 0.115,-0.721 0.17,-0.777c0.063,-0.065 0.119,-0.073 0.167,-0.026c0.133,0.129 0.172,0.344 0.115,0.643c-0.075,0.416 -0.109,0.651 -0.099,0.707c0.104,0.102 0.269,0.272 0.495,0.507c0.382,0.414 0.627,0.711 0.733,0.893c0.15,0.264 0.252,0.639 0.306,1.124l0.073,0.07c0.13,-0.141 0.285,-0.749 0.467,-1.822l0.043,-0.043Zm-2.591,-0.166c0.005,0.02 0.003,0.038 -0.005,0.054c-0.011,0.005 -0.024,0.001 -0.036,-0.011l-0.006,-0.006c-0.012,-0.02 -0.016,-0.032 -0.013,-0.035l0.007,-0.007c0.02,-0.012 0.038,-0.011 0.053,0.005Zm2.616,-0.176c0.048,0.047 0.048,0.096 0.002,0.144l0,0.024l-0.018,0.018l-0.024,0c0.004,-0.035 0.007,-0.087 0.011,-0.155l0.029,-0.031Z" style="fill:#fff;fill-rule:nonzero;"/><path d="M190.781,194.251c0.247,0.233 0.26,0.465 0.042,0.697c-0.143,0.151 -0.295,0.15 -0.457,-0.002c-0.227,-0.214 -0.246,-0.421 -0.058,-0.621c0.174,-0.183 0.331,-0.208 0.473,-0.074Z" style="fill:#fff;fill-rule:nonzero;"/><path d="M192.015,192.925c0.25,0.232 0.267,0.465 0.05,0.701c-0.142,0.153 -0.295,0.153 -0.46,0.002c-0.229,-0.213 -0.252,-0.42 -0.063,-0.623c0.17,-0.186 0.329,-0.213 0.473,-0.08Z" style="fill:#fff;fill-rule:nonzero;"/><path d="M193.226,191.595c0.254,0.23 0.273,0.464 0.057,0.703c-0.141,0.156 -0.294,0.158 -0.461,0.007c-0.233,-0.211 -0.257,-0.419 -0.071,-0.624c0.171,-0.19 0.329,-0.218 0.475,-0.086Z" style="fill:#fff;fill-rule:nonzero;"/></g></g></g></g></svg>