<?xml version="1.0" encoding="UTF-8" standalone="no"?><!DOCTYPE svg PUBLIC "-//W3C//DTD SVG 1.1//EN" "http://www.w3.org/Graphics/SVG/1.1/DTD/svg11.dtd"><svg width="100%" height="100%" viewBox="0 0 600 780" version="1.1" xmlns="http://www.w3.org/2000/svg" xmlns:xlink="http://www.w3.org/1999/xlink" xml:space="preserve" xmlns:serif="http://www.serif.com/" style="fill-rule:evenodd;clip-rule:evenodd;stroke-linejoin:round;stroke-miterlimit:1.41421;"><g><path id="bg" d="M-0.67,-0.998l605.013,1.834l-2.361,778.868l-605.013,-1.834l2.361,-778.868Z" style="fill:#9bc63e;fill-rule:nonzero;"/><path d="M-1.89,193.628c11.984,1.732 7.771,4.358 20.167,5.681c-0.409,-1.45 -1.557,-2.165 -3.729,-1.87c21.019,-6.565 42.5,2.414 55.993,9.458c-14.272,2.251 -31.463,-13.89 -50.397,-7.583c7.812,5.855 23.751,3.679 33.59,7.531c-22.831,3.422 -36.547,-3.057 -55.638,-9.503l0.011,-3.716l0.003,0.002Zm128.421,24.587c-15.04,-6.117 -33.047,-9.308 -52.254,-11.306c19.036,-5.22 42.812,0.872 52.254,11.306Zm5.613,-3.699c4.83,-4.05 19.023,-1.602 24.279,0.073c-7.375,2.594 -15.741,0.196 -24.279,-0.073Zm261.332,36.089c3.925,-29.51 58.698,-41.388 76.614,-16.486c32.23,44.799 -63.729,46.337 -76.614,16.486Zm-201.591,-30.334l5.603,0.017c2.122,5.848 -2.948,4.505 -3.759,7.42c-2.531,-0.582 -1.535,-4.656 -1.844,-7.436l0,-0.001Zm91.412,30c5.99,1.488 8.142,6.771 13.046,9.329c-3.886,3.716 -11.565,-4.526 -13.046,-9.329Zm7.415,18.602c0.387,2.084 2.062,2.897 3.725,3.725c-6.307,8.749 -14.823,6.519 -26.158,3.636c-0.131,-3.235 0.437,-5.776 1.891,-7.424c-3.847,3.748 -3.725,-0.768 -5.59,-3.734c-2.178,0.308 -2.035,2.932 -1.885,5.568c-5.588,-5.585 -8.174,-14.142 -18.629,-14.918c0.492,-2.61 4.101,-2.106 5.614,-3.697c10.581,4.221 24.136,13.602 41.033,16.843l-0.001,0.001Zm22.361,14.929c1.875,0 2.22,1.511 3.731,1.87c0.406,1.447 1.556,2.164 3.729,1.87c-0.419,1.444 -1.572,2.153 -3.742,1.845c-0.326,4.028 6.623,0.862 9.332,1.887c3.871,2.21 -9.61,2.661 -13.085,3.676c-2.761,-2.207 -2.883,-7.026 -5.571,-9.306c0.321,-2.166 2.958,-2.009 5.607,-1.842l-0.001,0Zm167.917,50.669c-7.051,6.444 21.269,4.903 18.654,7.487c-8.956,8.853 -56.821,-12.227 -50.39,-11.3l3.737,0.012c8.433,6.211 15.628,3.404 24.254,7.505c0.424,-1.441 0.064,-3.665 1.88,-3.709l1.865,0.006l0,-0.001Zm72.694,44.807c11.667,3.898 21.177,9.928 33.573,13.106c-12.392,4.191 -28.374,-4.025 -33.573,-13.106Zm-407.175,24.772l7.47,0.023c2.722,7.075 -8.349,0.34 -5.626,7.413c-2.53,-0.582 -1.536,-4.656 -1.845,-7.436l0.001,0Z"/><path d="M-1.886,191.691c0,0 55.156,-1.593 68.703,11.479c29.817,-7.202 53.185,15.132 69.084,3.926c0.913,7.43 23.027,2.255 29.891,-3.626c5.786,7.015 21.853,10.323 31.723,7.529c-2.094,2.279 -1.639,3.808 1.854,3.721l-0.028,9.289c3.903,0.799 4.951,-1.26 7.477,-1.836c12.236,5.613 31.737,9.458 39.188,9.407c-1.575,-2.765 -6.005,-2.707 -9.326,-3.742c0.469,-2.337 3.718,-1.864 3.737,0.011c5.162,-2.908 9.055,-7.086 14.965,-9.244c29.64,8.166 44.232,23.593 48.417,44.732c2.416,-2.549 8.119,-1.812 13.078,-1.817c3.758,-9.502 32.481,-17.751 41.123,-12.88c4.041,4.988 2.505,8.442 1.823,14.867c-2.188,-0.305 -1.565,-3.391 -1.851,-5.579c-5.08,3.612 -3.975,13.416 -9.387,16.692c1.615,4.578 8.256,4.185 7.436,11.169c36.161,0.051 51.032,21.154 78.341,29.962c-18.505,-5.542 -31.243,-5.856 -48.513,-13.152l9.338,0.028c-19.759,-13.802 -58.84,-8.498 -80.238,-20.679c2.742,-6.81 9.751,1.456 14.95,-3.669c-1.177,-3.772 -8.725,-1.251 -9.318,-5.601c23.869,9.454 31.287,19.14 65.291,22.492c-34.947,-6.194 -53.46,-28.632 -91.405,-31.861c1.56,4.011 9.621,1.597 11.184,5.608c-15.557,-2.521 -29.211,-6.923 -41.042,-13.129c2.887,-6.556 8.291,0.976 13.083,-3.675c-11.791,-9.971 -33.368,-6.932 -52.269,-5.733c0.324,-4.031 -6.621,-0.863 -9.334,-1.887c-1.341,-4.229 -10.644,-0.586 -9.313,-7.459c4.858,-4.583 9.153,1.834 16.805,0.051c-3.971,-7.186 -16.687,-5.725 -22.374,-11.214c-4.751,2.464 -1.213,12.139 5.575,9.306c-4.841,5.486 -11.694,-2.625 -16.813,1.807l0.062,-20.435c-7.224,2.361 0.69,14.365 -7.525,18.554c-7.81,-7.793 -15.812,-2.192 -20.503,-13.066c-6.223,6.192 -4.504,20.336 -13.145,24.111c5.839,-6.528 29.978,-10.559 41.084,0.125c1.794,10.521 -6.592,20.919 3.663,24.162c4.901,-6.275 4.292,-18.062 5.685,-27.849l7.471,0.022c-0.879,7.681 7.246,0.258 11.192,3.752c1.972,1.743 -7.494,1.918 -7.474,1.834c-0.184,0.829 5.484,5.042 5.58,7.448c0.649,16.108 -32.751,32.625 -41.214,42.602c-23.256,0.343 -45.634,-13.391 -40.941,-46.566c1.128,1.071 8.844,4.373 9.336,0.028c-1.685,-5.089 -6.554,3.275 -9.332,-1.889c1.843,-8.609 13.614,-15.479 11.271,-22.257c6.976,0.188 5.317,2.099 11.204,0.034c-6.27,-5.017 -14.527,-1.547 -24.261,-5.647c-4.501,0.748 -4.046,-3.405 -9.331,-1.887c-17.245,0.769 -45.629,0.708 -59.721,-11.327c-24.497,7.249 -43.353,-6.639 -64.985,-6.904l0.012,-4.101c17.389,5.993 36.677,11.962 55.638,9.118c-9.838,-3.853 -25.778,-1.676 -33.588,-7.532c18.932,-6.308 36.122,9.835 50.397,7.582c-13.493,-7.045 -34.976,-16.024 -55.993,-9.458c2.171,-0.296 3.318,0.42 3.728,1.87c-7.947,-0.85 -20.162,-6.188 -20.162,-6.188l0,-1.432l-0.003,0.003Zm76.163,15.218c19.208,1.998 37.214,5.188 52.254,11.305c-9.442,-10.433 -33.219,-16.524 -52.254,-11.305l0,0Zm82.144,7.68c-5.254,-1.675 -19.448,-4.123 -24.279,-0.073c8.541,0.27 16.906,2.667 24.279,0.073Zm37.308,13.119c0.811,-2.914 5.88,-1.57 3.759,-7.419l-5.603,-0.017c0.308,2.78 -0.687,6.854 1.846,7.437l-0.002,-0.001Zm52.254,11.305c-2.555,-1.768 -16.675,-7.754 -13.06,-3.755c4.083,0.429 10.026,8.409 13.059,3.755l0.001,0Zm35.453,9.396c-4.775,-1.543 -12.776,-9.47 -18.662,-3.774c8.359,-2.001 15.375,6.901 18.662,3.774Zm14.907,11.191c-4.905,-2.559 -7.056,-7.841 -13.046,-9.329c1.481,4.804 9.161,13.044 13.046,9.329Zm-59.487,-89.351c29.853,7.522 47.462,27.155 72.711,39.233c34.514,-14.205 76.097,-47.272 125.189,-23.774c5.314,4.673 17.886,11.885 22.378,11.216c1.587,-0.336 1.757,0.729 1.86,1.864c7.054,7.223 14.762,13.8 22.346,20.502c6.447,5.976 10.747,14.07 16.746,20.486c2.717,13.363 11.113,21.116 11.089,37.188c2.124,5.848 -2.945,4.505 -3.756,7.42c8.144,4.677 0.97,17.233 1.789,26.014c-6.645,2.87 -1.11,-6.313 -5.588,-5.59c-2.958,3.247 -2.526,9.891 -3.777,14.851c-4.328,-0.606 -7.171,0.278 -9.342,1.831c-0.755,4.447 8.508,-1.007 5.586,5.589c-8.35,-2.769 -5.753,5.421 -13.085,3.674c2.869,3.903 11.104,0.694 3.72,5.584c-1.511,-0.357 -1.859,-1.869 -3.731,-1.868l-1.868,-0.006c-7.732,-7.173 -18.263,-11.576 -29.835,-14.953c-4.089,-2.129 -7.617,-4.817 -14.926,-3.76c-27.31,-8.806 -42.18,-29.912 -78.341,-29.963c0.82,-6.984 -5.822,-6.593 -7.436,-11.169c5.414,-3.276 4.308,-13.079 9.389,-16.692c0.285,2.189 -0.338,5.274 1.851,5.579c0.682,-6.425 2.217,-9.88 -1.823,-14.868c-8.643,-4.87 -37.365,3.378 -41.123,12.88c-4.96,0.005 -10.663,-0.73 -13.079,1.819c-4.186,-21.139 -18.777,-36.566 -48.417,-44.732c-5.91,2.158 -9.802,6.337 -14.965,9.244c-0.018,-1.876 -3.268,-2.349 -3.737,-0.011c3.321,1.034 7.75,0.977 9.325,3.741c-7.449,0.051 -26.95,-3.793 -39.186,-9.407c0.857,-16.169 8.209,-27.193 3.87,-44.573c-10.388,3.292 -0.091,30.152 -11.319,37.12c-3.493,0.087 -3.95,-1.441 -1.854,-3.72c-9.87,2.794 -25.938,-0.514 -31.723,-7.528c-6.863,5.879 -28.979,11.054 -29.891,3.624c18.155,-17.853 41.226,-30.79 71.076,-36.938l29.879,0.091l-0.002,0.002Zm233.236,63.869c-17.916,-24.902 -72.689,-13.024 -76.614,16.486c12.883,29.852 108.842,28.314 76.614,-16.486Zm-35.337,-48.408c7.673,3.53 15.977,6.426 22.378,11.215c-4.49,0.67 -17.065,-6.542 -22.378,-11.215Zm24.238,13.077c6.062,1.415 7.806,7.099 13.045,9.328c1.917,4.896 7.382,6.279 9.3,11.174c-7.585,-6.701 -15.292,-13.278 -22.346,-20.503l0.001,0.001Zm-9.706,120.725c11.573,3.376 22.103,7.781 29.836,14.953c-1.815,0.044 -1.455,2.269 -1.88,3.709c-8.623,-4.101 -15.82,-1.293 -24.252,-7.505c1.242,-5.56 3.988,1.789 7.468,0.022c-3.793,-5.512 -13.743,-4.931 -18.645,-9.345c6.165,-1.616 11.648,4.808 7.473,-1.834Zm-328.832,54.735c4.156,5.151 7.235,11.368 9.282,18.605c-4.158,-5.15 -7.234,-11.369 -9.282,-18.605Zm16.7,35.349c5.9,7.131 11.215,14.839 14.867,24.196c-5.456,-7.571 -11.047,-15.011 -14.867,-24.196Z"/><path d="M498.085,239.776c-5.999,-6.415 -10.3,-14.51 -16.746,-20.486c-1.918,-4.894 -7.383,-6.277 -9.301,-11.174c10.303,8.948 20.078,18.421 26.046,31.66l0.001,0Zm-291.328,2.832l-7.471,-0.022c-1.394,9.787 -0.784,21.574 -5.686,27.849c-10.255,-3.242 -1.869,-13.64 -3.663,-24.162c-11.105,-10.684 -35.244,-6.653 -41.084,-0.125c8.641,-3.774 6.923,-17.919 13.147,-24.111c4.69,10.873 12.692,5.274 20.502,13.066c8.215,-4.189 0.301,-16.193 7.526,-18.554l-0.062,20.435c5.12,-4.432 11.972,3.679 16.814,-1.807c-6.79,2.833 -10.327,-6.843 -5.575,-9.306c5.687,5.488 18.403,4.029 22.376,11.214c-7.654,1.783 -11.95,-4.634 -16.807,-0.051c-1.331,6.873 7.973,3.229 9.314,7.459c-4.332,0.581 -7.17,-0.319 -9.331,-1.885Zm0,0c2.161,1.566 4.998,2.467 9.331,1.887c2.711,1.024 9.658,-2.142 9.333,1.887c4.104,5.815 22.864,-2.857 24.259,5.647c-1.513,1.591 -5.121,1.086 -5.614,3.696c10.455,0.777 13.041,9.333 18.629,14.918c-0.15,-2.636 -0.291,-5.262 1.885,-5.567c1.865,2.968 1.743,7.482 5.591,3.734c-1.453,1.648 -2.022,4.19 -1.891,7.424c11.335,2.883 19.851,5.113 26.158,-3.636c-1.663,-0.827 -3.336,-1.642 -3.725,-3.725c7.952,4.484 14.335,10.517 22.361,14.929c-2.649,-0.167 -5.286,-0.323 -5.605,1.842c2.689,2.28 2.811,7.097 5.571,9.305c3.475,-1.015 16.955,-1.466 13.085,-3.678c-2.708,-1.021 -9.658,2.144 -9.33,-1.885c2.169,0.308 3.323,-0.401 3.742,-1.847c-2.175,0.295 -3.324,-0.42 -3.731,-1.87c45.428,14.35 86.939,32.575 126.828,52.402c-0.183,5.068 3.098,3.748 -0.022,7.431c-2.189,-0.306 -1.566,-3.39 -1.852,-5.579c-5.838,6.581 -21.491,3.334 -20.592,16.658c-8.719,-5.907 -15.473,3.698 -26.15,1.779c-3.165,3.664 -2.076,11.589 -3.784,16.707c-2.854,-15.234 -12.052,12.547 -16.809,-0.051c-4.413,9.87 -19.719,8.837 -24.335,18.503c-5.265,0.381 -21.691,-7.642 -20.551,3.655c-6.121,-5.195 -12.076,1.711 -11.231,9.254c-5.353,-2.281 -10.283,-2.748 -11.216,3.681c-11.742,-10.47 -30.951,12.712 -42.956,1.727c-2.2,2.768 -7.767,2.165 -7.493,7.41c-4.551,-5.381 -10.078,-9.791 -16.766,-13.057c-5.225,2.843 -14.487,1.648 -14.967,9.242c-18.785,0.051 -38.886,1.406 -44.785,-11.282c-9.427,-1.359 -16.185,-0.049 -16.83,7.38c-2.505,-9.254 -17.218,-6.437 -16.749,-18.628c-4.071,-0.35 -5.945,1.502 -5.62,5.555c0.889,-9.32 -11.409,-7.644 -7.424,-14.882c-2.171,-0.311 -3.323,0.398 -3.739,1.844c-5.163,-1.267 5.226,-9.729 -5.581,-7.446c0.639,-8.659 -1.413,-14.658 -3.675,-20.447c-1.511,0.347 -1.866,1.858 -3.739,1.845c-1.137,-0.106 -2.209,-0.284 -1.861,-1.864c4.05,-2.345 2.088,-14.263 -3.695,-13.015c-1.452,-0.414 -2.167,-1.56 -1.857,-3.72l3.734,0.011c-4.168,-6.992 -2.906,-19.351 -7.391,-26.03c-1.137,-0.11 -2.21,-0.286 -1.863,-1.864c3.137,-9.317 3.205,-31.535 0.124,-40.871c2.977,-20.623 11.923,-35.272 18.833,-51.959c5.284,-1.518 4.83,2.634 9.332,1.887c-0.584,6.75 9.947,2.509 13.055,5.613c2.342,6.778 -9.429,13.648 -11.271,22.257c2.778,5.164 7.648,-3.202 9.331,1.887c-0.493,4.346 -8.208,1.044 -9.337,-0.028c-4.693,33.176 17.685,46.909 40.943,46.567c8.463,-9.978 41.861,-26.495 41.212,-42.603c-0.096,-2.406 -5.763,-6.619 -5.579,-7.448c-0.02,0.085 9.446,-0.09 7.474,-1.834c-3.951,-3.494 -12.075,3.929 -11.196,-3.752l0.001,0.004Zm-74.635,-20.661c9.734,4.101 17.989,0.63 24.261,5.648c-5.888,2.065 -4.229,0.154 -11.205,-0.034c-3.109,-3.102 -13.64,1.139 -13.056,-5.613l0,-0.001Zm-15.357,137.426c1.873,0.013 2.229,-1.498 3.74,-1.847c2.261,5.791 4.314,11.791 3.675,20.449c10.806,-2.285 0.416,6.177 5.58,7.445c0.416,-1.446 1.568,-2.153 3.739,-1.845c-3.986,7.239 8.313,5.565 7.423,14.882c-0.323,-4.053 1.548,-5.904 5.619,-5.555c-0.468,12.191 14.245,9.374 16.749,18.628c0.646,-7.428 7.406,-8.737 16.831,-7.379c5.899,12.688 26,11.333 44.785,11.281c0.48,-7.596 9.742,-6.399 14.967,-9.243c6.688,3.266 12.215,7.676 16.766,13.057c-0.274,-5.245 5.293,-4.641 7.493,-7.41c12.005,10.986 31.214,-12.199 42.956,-1.727c0.933,-6.429 5.863,-5.961 11.216,-3.683c-0.845,-7.542 5.11,-14.448 11.23,-9.253c-1.14,-11.297 15.286,-3.274 20.553,-3.655c4.614,-9.666 19.92,-8.633 24.333,-18.503c4.757,12.598 13.955,-15.183 16.808,0.051c1.709,-5.118 0.62,-13.043 3.784,-16.707c10.681,1.919 17.432,-7.686 26.15,-1.779c-0.899,-13.324 14.755,-10.078 20.592,-16.658c0.286,2.189 -0.337,5.273 1.852,5.579c3.12,-3.684 -0.161,-2.363 0.022,-7.432c-39.889,-19.827 -81.401,-38.052 -126.828,-52.402c-1.511,-0.359 -1.855,-1.87 -3.731,-1.87c-8.025,-4.41 -14.407,-10.445 -22.361,-14.929c-16.895,-3.241 -30.452,-12.622 -41.031,-16.843c-1.395,-8.506 -20.156,0.168 -24.26,-5.65c18.901,-1.197 40.478,-4.237 52.269,5.735c-4.791,4.651 -10.196,-2.883 -13.083,3.674c11.831,6.207 25.486,10.608 41.045,13.129c4.558,1.666 8.081,4.354 14.928,3.76c0.592,4.35 8.14,1.829 9.317,5.601c-5.199,5.128 -12.209,-3.14 -14.948,3.67c21.395,12.181 60.477,6.876 80.236,20.679l-13.071,-0.04c-0.57,-2.523 -4.669,-1.555 -7.463,-1.881c11.441,10.298 30.063,13.49 48.501,16.867c5.446,2.025 10.747,4.193 18.665,3.772c4.9,4.414 14.851,3.834 18.645,9.345c-3.482,1.767 -6.225,-5.582 -7.469,-0.022l-3.737,-0.012c-0.571,-2.523 -4.671,-1.553 -7.462,-1.881c7.108,9.642 24.378,9.236 35.434,14.971c7.998,5.055 19.192,6.952 22.36,16.786c-20.695,56.93 -61.259,93.973 -101.242,131.593c-24.4,4.149 -32.144,24.971 -56.111,29.554c-4.011,11.54 -16.862,17.747 -26.218,24.074c-10.431,7.044 -21.621,13.396 -31.807,20.336c-51.323,-36.921 -93.474,-82.911 -132.184,-132.3c-3.653,-9.357 -8.969,-17.064 -14.868,-24.196c-2.24,-5.809 -4.494,-11.608 -7.418,-16.744c-2.046,-7.237 -5.124,-13.454 -9.281,-18.605c1.228,-7.385 -4.917,-7.479 -3.689,-14.871l-0.001,0.004Zm31.589,52.113c-2.722,-7.073 8.349,-0.338 5.625,-7.413l-7.471,-0.023c0.309,2.781 -0.685,6.854 1.845,7.436l0.001,0Zm-42.658,-96.731c4.484,6.679 3.222,19.039 7.392,26.03l-3.735,-0.011c0.393,-10.266 -5.102,-14.714 -3.658,-26.019l0.001,0Zm127.228,-79.498c-3.616,-3.999 10.504,1.986 13.059,3.755c-3.033,4.655 -8.976,-3.326 -13.06,-3.755l0.001,0Zm29.849,9.378c5.887,-5.696 13.887,2.231 18.662,3.774c-3.286,3.127 -10.301,-5.775 -18.662,-3.774Zm42.876,24.283c-1.563,-4.011 -9.624,-1.598 -11.183,-5.608c37.944,3.228 56.457,25.667 91.404,31.86c-34.004,-3.351 -41.421,-13.038 -65.291,-22.492c-6.846,0.593 -10.37,-2.095 -14.929,-3.76l-0.001,0Zm76.463,33.67c4.379,6.807 29.126,9.461 41.039,14.986c-18.439,-3.377 -37.06,-6.569 -48.502,-16.865c2.794,0.325 6.892,-0.644 7.463,1.879Zm67.141,28.069c-6.431,-0.927 41.434,20.154 50.39,11.3c2.618,-2.585 -25.705,-1.041 -18.654,-7.487c1.874,-0.001 2.22,1.511 3.731,1.868c10.097,3.125 25.359,7.605 24.296,-7.357l-0.033,11.146c16.147,6.879 28.886,17.127 41.001,27.992c-16.296,-4.261 -33.911,-7.219 -44.77,-16.856c13.332,-1.243 4.287,5.933 16.802,1.907c-10.781,-11.36 -25.381,-7.789 -44.79,-9.423c-11.057,-5.735 -28.328,-5.328 -35.434,-14.97c2.792,0.325 6.892,-0.645 7.461,1.878l0,0.002Z"/><path d="M423.149,317.575c-11.91,-5.525 -36.658,-8.179 -41.037,-14.986l3.734,0.012c17.268,7.296 30.007,7.61 48.512,13.152c7.312,-1.058 10.84,1.631 14.926,3.76c4.176,6.641 -1.306,0.219 -7.471,1.836c-7.916,0.419 -13.217,-1.749 -18.663,-3.774l-0.001,0Zm-319.315,-4.684c0.129,-15.699 -3.243,-26.499 0.124,-40.871c3.08,9.337 3.012,31.555 -0.124,40.871Zm405.34,-35.926c7.79,12.539 2.756,38.438 -0.158,52.017c1.062,14.961 -14.199,10.481 -24.296,7.356c7.386,-4.89 -0.849,-1.681 -3.718,-5.584c7.332,1.747 4.735,-6.444 13.085,-3.675c2.922,-6.595 -6.341,-1.141 -5.586,-5.589c2.17,-1.551 5.012,-2.434 9.341,-1.831c1.251,-4.959 0.819,-11.605 3.777,-14.85c4.477,-0.724 -1.058,8.459 5.588,5.59c-0.819,-8.784 6.354,-21.338 -1.791,-26.014c0.812,-2.916 5.881,-1.572 3.757,-7.421l0.001,0.001Zm-394.269,80.545c0.322,-5.877 -4.944,-6.224 -3.697,-13.016c5.784,-1.249 7.746,10.669 3.697,13.015l0,0.001Zm84.465,-142.79c11.228,-6.968 0.931,-33.828 11.319,-37.12c4.339,17.38 -3.012,28.404 -3.869,44.573c-2.526,0.576 -3.576,2.633 -7.477,1.836l0.028,-9.289l-0.001,0Z"/><g><path d="M-0.635,195.999c11.488,1.66 18.52,7.727 30.403,8.997c-0.391,-1.388 -1.493,-2.074 -3.575,-1.791c20.146,-6.294 40.739,2.313 53.673,9.065c-13.682,2.158 -30.16,-13.314 -48.308,-7.269c7.486,5.614 22.767,3.527 32.198,7.221c-21.884,3.28 -46.103,-6.481 -64.402,-12.661l0.011,-3.56l0,-0.002Zm134.167,27.12c-14.415,-5.866 -31.676,-8.923 -50.087,-10.838c18.246,-5.003 41.037,0.833 50.087,10.837l0,0.001Zm5.38,-3.547c4.629,-3.882 18.234,-1.536 23.271,0.071c-7.066,2.486 -15.086,0.187 -23.271,-0.071Zm144.886,34.273c5.742,1.425 7.804,6.489 12.504,8.941c-3.723,3.561 -11.085,-4.338 -12.503,-8.941l-0.001,0Zm189.495,80.706c-6.759,6.178 20.389,4.699 17.881,7.177c-8.587,8.487 -54.466,-11.72 -48.302,-10.83l3.582,0.01c8.083,5.955 14.98,3.265 23.249,7.195c0.404,-1.381 0.06,-3.513 1.8,-3.557l1.789,0.006l0.001,-0.001Z" style="fill:#fff;"/><path d="M542.975,377.5c11.183,3.737 20.299,9.516 32.182,12.563c-11.881,4.02 -27.199,-3.856 -32.182,-12.563Zm-390.293,23.746l7.161,0.022c2.609,6.782 -8.003,0.325 -5.393,7.106c-2.427,-0.558 -1.472,-4.463 -1.769,-7.126l0.001,-0.002Zm431.359,10.212c5.066,1.874 7.453,1.882 12.531,0.038c-1.588,3.966 -13.944,8.278 -12.531,-0.038Zm-344.759,-234.318c28.616,7.21 45.493,26.03 69.694,37.605c33.085,-13.616 72.943,-45.311 119.999,-22.786c5.092,4.48 17.147,11.393 21.449,10.75c1.521,-0.324 1.684,0.698 1.784,1.785c6.76,6.925 14.15,13.231 21.42,19.653c6.179,5.728 10.299,13.487 16.051,19.636c2.606,12.81 10.652,20.242 10.632,35.646c2.033,5.606 -2.824,4.317 -3.6,7.111c7.806,4.483 0.929,16.517 1.714,24.935c-6.371,2.75 -1.063,-6.051 -5.356,-5.358c-2.837,3.111 -2.425,9.48 -3.622,14.235c-4.15,-0.581 -6.875,0.266 -8.957,1.753c-0.722,4.266 8.156,-0.962 5.355,5.36c-8.004,-2.655 -5.514,5.197 -12.541,3.522c2.749,3.742 10.644,0.666 3.565,5.355c-1.45,-0.344 -1.782,-1.793 -3.577,-1.793l-1.789,-0.006c-7.413,-6.874 -17.507,-11.095 -28.599,-14.331c-3.919,-2.041 -7.3,-4.618 -14.308,-3.604c-26.177,-8.442 -40.43,-28.671 -75.092,-28.72c0.785,-6.695 -117.46,-61.422 -162.098,-50.249c-22.349,-1.496 -51.791,-12.74 -48.894,-25.181c17.404,-17.115 39.517,-29.513 68.128,-35.407l28.642,0.087l0,0.002Z" style="fill:#be1f21;"/><path d="M428.977,191.96c7.353,3.384 15.314,6.159 21.447,10.749c-4.3,0.643 -16.356,-6.271 -21.449,-10.75l0.002,0.001Zm23.233,12.535c5.808,1.357 7.48,6.806 12.502,8.942c1.837,4.693 7.077,6.021 8.917,10.712c-7.271,-6.424 -14.66,-12.73 -21.419,-19.655l0,0.001Z" style="fill:#770505;"/><path d="M442.906,320.214c11.091,3.237 21.186,7.459 28.598,14.331c-1.74,0.044 -1.395,2.176 -1.8,3.557c-8.269,-3.929 -15.166,-1.239 -23.249,-7.194c1.192,-5.328 3.82,1.715 7.161,0.022c-3.637,-5.282 -13.177,-4.725 -17.873,-8.957c5.909,-1.548 11.164,4.609 7.163,-1.758l0,-0.001Zm157.273,82.389c-4.551,6.717 -19.489,2.854 -23.265,-1.85c18.027,-1.913 5.58,-8.042 26.871,-7.042l-0.027,8.904c-3.126,-4.661 -12.466,-4.235 -17.894,-1.834c3.234,5.802 10.811,-3.711 14.314,1.823l0.001,-0.001Zm-472.471,-29.924c3.985,4.939 6.935,10.898 8.897,17.835c-3.985,-4.936 -6.934,-10.898 -8.897,-17.835Zm16.008,33.88c5.656,6.838 10.75,14.227 14.25,23.193c-5.227,-7.256 -10.586,-14.384 -14.249,-23.193l-0.001,0Zm345.963,-162.774c-5.751,-6.15 -9.873,-13.908 -16.051,-19.636c-1.84,-4.693 -7.08,-6.02 -8.917,-10.713c9.879,8.576 19.249,17.657 24.968,30.348l0,0.001Zm-274.076,-3.492c2.599,0.981 13.031,5.959 12.719,9.821c3.935,5.576 21.917,-2.738 23.252,5.414c-1.45,1.528 39.702,18.144 39.33,16.146c7.623,4.299 25.402,17.492 25.011,16.102c43.544,13.755 83.334,31.224 121.569,50.228c-0.175,4.858 2.97,3.595 -0.022,7.123c-2.098,-0.291 -1.499,-3.25 -1.773,-5.347c-5.598,6.306 -20.601,3.195 -19.74,15.966c-8.358,-5.663 -14.83,3.544 -25.065,1.706c-3.034,3.511 -1.991,11.106 -3.628,16.015c-2.735,-14.603 -11.553,12.027 -16.113,-0.049c-4.23,9.459 -18.9,8.471 -23.322,17.737c-5.05,0.362 -20.794,-7.328 -19.701,3.5c-5.867,-4.979 -11.574,1.641 -10.766,8.873c-5.13,-2.185 -9.857,-2.632 -10.751,3.527c-11.256,-10.036 -29.668,12.188 -41.175,1.657c-2.108,2.654 -7.444,2.076 -7.181,7.102c-4.361,-5.156 -9.659,-9.385 -16.071,-12.513c-5.008,2.726 -13.886,1.58 -14.346,8.86c-18.005,0.05 -37.272,1.349 -42.928,-10.813c-9.034,-1.302 -15.514,-0.047 -16.132,7.073c-2.402,-8.87 -16.504,-6.17 -16.055,-17.854c-3.904,-0.336 -5.698,1.439 -5.387,5.324c0.852,-8.932 -10.937,-7.327 -7.117,-14.264c-2.08,-0.298 -3.184,0.383 -3.584,1.769c-4.949,-1.215 5.011,-9.328 -5.35,-7.139c0.614,-8.298 -1.353,-14.047 -3.521,-19.598c-1.45,0.334 -1.791,1.78 -3.586,1.769c-1.09,-0.102 -2.118,-0.272 -1.784,-1.785c3.882,-2.25 2.001,-13.676 -3.542,-12.477c-1.393,-0.396 -2.077,-1.497 -1.779,-3.565l3.579,0.01c-3.994,-6.703 -2.786,-18.55 -7.084,-24.951c-1.09,-0.106 -2.118,-0.274 -1.784,-1.787c3.005,-8.931 3.069,-30.228 0.119,-39.176c2.852,-19.768 11.426,-33.811 18.05,-49.805c5.066,-1.456 4.629,2.524 8.944,1.807c-0.559,6.472 9.535,2.409 12.515,5.382c23.599,-0.506 60.046,8.772 64.199,8.216l0,-0.004Z" style="fill:#be1f21;"/><path d="M138.891,226.695c9.33,3.931 17.243,0.603 23.254,5.414c-5.644,1.979 -4.054,0.149 -10.74,-0.033c-2.979,-2.974 -13.074,1.09 -12.514,-5.381Zm-14.719,131.728c1.794,0.011 2.136,-1.436 3.586,-1.769c2.166,5.549 4.133,11.299 3.519,19.598c10.361,-2.19 0.403,5.923 5.35,7.138c0.4,-1.386 1.505,-2.066 3.584,-1.769c-3.819,6.937 7.972,5.332 7.118,14.265c-0.312,-3.885 1.482,-5.66 5.386,-5.323c-0.448,11.683 13.654,8.983 16.055,17.852c0.618,-7.118 7.098,-8.375 16.132,-7.071c5.656,12.163 24.923,10.864 42.928,10.812c0.461,-7.28 9.341,-6.134 14.347,-8.859c6.412,3.127 11.71,7.355 16.072,12.512c-0.262,-5.026 5.073,-4.449 7.181,-7.102c11.508,10.532 29.919,-11.69 41.174,-1.655c0.896,-6.163 5.621,-5.714 10.751,-3.527c-0.808,-7.233 4.898,-13.852 10.766,-8.874c-1.094,-10.827 14.65,-3.138 19.701,-3.5c4.422,-9.267 19.094,-8.278 23.324,-17.737c4.557,12.077 13.375,-14.554 16.111,0.049c1.637,-4.907 0.594,-12.504 3.628,-16.015c10.235,1.84 16.707,-7.368 25.065,-1.706c-0.861,-12.77 14.142,-9.66 19.74,-15.966c0.273,2.097 -0.325,5.054 1.773,5.347c2.992,-3.529 -0.153,-2.264 0.022,-7.122c-38.235,-19.005 -78.025,-36.474 -121.569,-50.228c-1.448,-0.344 -1.78,-1.792 -3.575,-1.793c-7.695,-4.227 -13.813,-10.012 -21.436,-14.31c-16.195,-3.106 -29.188,-12.096 -39.33,-16.145c-1.336,-8.152 -19.317,0.162 -23.254,-5.415c18.118,-1.149 38.8,-4.061 50.103,5.495c-4.591,4.458 -9.774,-2.76 -12.542,3.522c11.341,5.951 24.428,10.17 39.342,12.586c4.371,1.596 7.748,4.173 14.309,3.603c0.569,4.171 7.803,1.754 8.934,5.37c-4.988,4.912 -11.706,-3.01 -14.332,3.517c20.509,11.676 57.97,6.59 76.909,19.821l-12.527,-0.038c-0.548,-2.419 -4.479,-1.489 -7.156,-1.802c10.968,9.867 28.817,12.931 46.49,16.166c5.221,1.94 10.303,4.019 17.892,3.614c4.696,4.233 14.234,3.675 17.872,8.959c-3.34,1.691 -5.97,-5.351 -7.161,-0.021l-3.582,-0.011c-0.546,-2.418 -4.476,-1.491 -7.151,-1.802c6.812,9.24 23.366,8.851 33.964,14.348c7.667,4.847 18.397,6.664 21.433,16.091c-19.836,54.569 -58.717,90.074 -97.044,126.135c-23.388,3.978 -30.811,23.937 -53.784,28.329c-3.845,11.062 -16.163,17.011 -25.133,23.074c-9.999,6.755 -20.725,12.841 -30.487,19.495c-49.196,-35.391 -89.599,-79.474 -126.706,-126.816c-3.5,-8.967 -8.594,-16.355 -14.25,-23.193c-2.148,-5.566 -4.309,-11.125 -7.111,-16.046c-1.961,-6.939 -4.911,-12.898 -8.896,-17.835c1.179,-7.08 -4.713,-7.17 -3.535,-14.253l0,0.005Zm30.278,49.952c-2.612,-6.782 8.002,-0.325 5.392,-7.106l-7.161,-0.022c0.298,2.666 -0.658,6.57 1.767,7.128l0.002,0Zm-40.889,-92.721c4.298,6.402 3.088,18.249 7.085,24.952l-3.581,-0.011c0.378,-9.841 -4.89,-14.104 -3.503,-24.941l-0.001,0Z" style="fill:#770505;"/><path d="M264.125,248.443c5.642,-5.461 13.313,2.138 17.889,3.616c-3.15,2.997 -9.875,-5.535 -17.889,-3.616Zm41.1,23.274c-1.499,-3.843 -9.225,-1.53 -10.724,-5.375c36.372,3.094 54.118,24.602 87.617,30.538c-32.595,-3.212 -39.705,-12.495 -62.585,-21.559c-6.561,0.57 -9.938,-2.007 -14.309,-3.604l0.001,0Z" style="fill:#fff;"/><path d="M378.518,303.992c4.195,6.523 27.917,9.068 39.334,14.365c-17.672,-3.237 -35.522,-6.298 -46.49,-16.167c2.676,0.313 6.606,-0.616 7.156,1.802Zm64.355,26.905c-6.164,-0.888 39.715,19.318 48.301,10.831c2.508,-2.478 -24.64,-0.999 -17.881,-7.177c1.796,-0.001 2.128,1.449 3.577,1.793c9.676,2.996 24.306,7.289 23.292,-7.053l-0.032,10.685c15.475,6.593 27.685,16.416 39.297,26.829c-15.618,-4.083 -32.504,-6.917 -42.91,-16.155c12.777,-1.19 4.109,5.687 16.103,1.829c-10.331,-10.888 -24.326,-7.466 -42.933,-9.033c-10.598,-5.498 -27.152,-5.108 -33.964,-14.349c2.674,0.313 6.605,-0.615 7.151,1.802l-0.001,-0.002Z" style="fill:#be1f21;"/><path d="M417.852,318.357c-11.417,-5.296 -35.139,-7.841 -39.334,-14.365l3.578,0.01c16.554,6.994 28.763,7.294 46.503,12.606c7.007,-1.013 10.388,1.564 14.307,3.604c4,6.368 -1.255,0.212 -7.163,1.76c-7.589,0.404 -12.67,-1.675 -17.892,-3.614l0.001,-0.001Z" style="fill:#fff;"/><path d="M603.742,407.954c-2.954,-0.035 -0.988,-4.94 -3.563,-5.351c-3.504,-5.535 -11.082,3.977 -14.315,-1.823c5.428,-2.403 14.769,-2.827 17.894,1.834l-0.016,5.34Zm-491.965,-94.086c0.125,-15.049 -3.11,-25.399 0.119,-39.176c2.951,8.949 2.887,30.244 -0.119,39.175l0,0.001Zm388.536,-34.437c7.464,12.018 2.639,36.843 -0.151,49.859c1.014,14.342 -13.616,10.049 -23.292,7.053c7.078,-4.69 -0.816,-1.613 -3.565,-5.354c7.026,1.673 4.536,-6.178 12.541,-3.522c2.801,-6.323 -6.076,-1.094 -5.355,-5.36c2.08,-1.489 4.805,-2.334 8.955,-1.753c1.198,-4.756 0.785,-11.124 3.622,-14.236c4.293,-0.695 -1.013,8.107 5.357,5.358c-0.785,-8.42 6.092,-20.453 -1.716,-24.935c0.777,-2.793 5.634,-1.503 3.6,-7.111l0.004,0.001Zm-377.925,77.206c0.311,-5.634 -4.739,-5.967 -3.542,-12.477c5.543,-1.199 7.422,10.227 3.542,12.477Z" style="fill:#770505;"/><path d="M333.828,490.393c0.962,1.317 1.049,2.989 0.262,5.013c-0.694,1.805 -1.74,3.211 -3.14,4.224c-0.184,0.132 -0.485,0.29 -0.905,0.472c-0.421,0.184 -0.726,0.344 -0.918,0.482c-0.613,2.037 -1.898,3.763 -3.857,5.177c-0.225,0.163 -0.475,0.336 -0.747,0.519c-0.548,4.183 -1.489,7.603 -2.819,10.259c1.702,-0.507 2.85,-0.975 3.443,-1.403c0.232,-0.168 0.634,-0.532 1.209,-1.091c0.57,-0.559 0.869,-0.846 0.893,-0.865l0.014,-0.009c-0.089,0.141 -0.555,0.696 -1.395,1.671c0.086,-0.073 0.214,-0.163 0.387,-0.268c0.171,-0.104 0.295,-0.184 0.368,-0.238c0.791,-0.573 1.434,-1.418 1.93,-2.534c0.214,-0.511 0.543,-1.533 0.988,-3.069c0.049,0.016 0.083,0.035 0.1,0.06c0.073,0.101 -0.259,1.329 -0.995,3.685c0.332,-0.242 0.624,-0.687 0.877,-1.337c0.179,-0.521 0.362,-1.046 0.548,-1.575c-0.059,-0.084 -0.002,-0.17 0.176,-0.26c-0.298,2.595 -1.741,4.826 -4.331,6.698c-0.867,0.624 -2.37,1.158 -4.502,1.599l-0.325,0.233c-0.284,0.52 -0.662,1.092 -1.137,1.713c-0.611,0.82 -1.225,1.487 -1.845,1.996c-0.127,0.103 -0.895,0.666 -2.304,1.682c-0.925,0.669 -1.81,1.155 -2.655,1.461c-1.257,0.455 -2.127,0.354 -2.606,-0.301c-0.775,-1.06 -0.052,-2.392 2.163,-3.992c1.466,-1.058 3.631,-2.084 6.494,-3.076c0.388,-0.115 0.964,-0.302 1.727,-0.563c0.01,-0.006 0.03,-0.02 0.063,-0.045c0.174,-0.128 0.393,-0.766 0.659,-1.92c0.228,-0.963 0.467,-2.755 0.716,-5.377c0.035,-0.318 0.065,-0.79 0.093,-1.416l-0.083,-0.035c-0.309,0.224 -0.745,0.598 -1.308,1.124c-0.563,0.528 -1.003,0.905 -1.32,1.134c-2.943,2.123 -5.138,2.19 -6.591,0.2c-1.275,-1.748 -1.287,-3.884 -0.04,-6.409c1.027,-2.081 2.511,-3.824 4.452,-5.226c0.228,-0.162 0.586,-0.367 1.081,-0.611c0.497,-0.245 0.857,-0.447 1.084,-0.61c0.19,-0.139 0.459,-0.367 0.802,-0.686c0.347,-0.32 0.617,-0.548 0.808,-0.688c0.983,-0.71 1.855,-1.118 2.619,-1.225c0.301,-0.04 0.51,-0.102 0.626,-0.185c0.191,-0.14 0.43,-0.407 0.714,-0.801c0.284,-0.397 0.522,-0.663 0.714,-0.801c0.083,-0.061 0.218,-0.143 0.4,-0.251c0.183,-0.108 0.315,-0.19 0.399,-0.25c-0.01,0.006 0.171,-0.182 0.543,-0.562c0.906,-0.92 1.547,-1.516 1.921,-1.786c1.968,-1.42 3.484,-1.403 4.547,0.057l0.003,0.006Zm-16.178,27.784c-1.484,0.359 -3.093,1.168 -4.835,2.426c-2.007,1.449 -2.701,2.602 -2.077,3.455c0.441,0.606 1.254,0.698 2.433,0.275c0.806,-0.29 1.638,-0.745 2.496,-1.365c0.109,-0.079 0.271,-0.204 0.485,-0.379c0.218,-0.177 0.381,-0.302 0.489,-0.38c-0.151,0.058 -0.487,0.053 -1.012,-0.013c-0.523,-0.063 -0.826,-0.15 -0.902,-0.259c-0.109,-0.148 -0.121,-0.33 -0.035,-0.544c0.363,-0.982 0.77,-1.638 1.222,-1.963l1.737,-1.253l-0.001,0Zm4.815,-10.636l-0.228,0.161c-0.19,0.139 -0.465,0.36 -0.822,0.663c-0.357,0.302 -0.634,0.523 -0.826,0.662c-1.058,0.764 -2.119,1.213 -3.177,1.344c-1.308,0.161 -2.322,-0.249 -3.034,-1.226c-1.198,-1.643 -1.204,-3.847 -0.017,-6.617l-0.087,0.064c-1.844,3.382 -2.096,5.994 -0.753,7.835c1.294,1.775 3.346,1.647 6.155,-0.381c0.858,-0.62 1.788,-1.455 2.788,-2.509l0.001,0.004Zm-3.323,-9.317c-0.506,0.213 -1.042,0.524 -1.609,0.934c-1.433,1.035 -2.501,2.388 -3.205,4.059c-0.807,1.926 -0.729,3.552 0.242,4.879c1.256,1.725 3.267,1.587 6.035,-0.411l1.113,-0.804c-1.428,-0.196 -2.485,-0.762 -3.168,-1.699c-0.762,-1.044 -1.026,-2.19 -0.79,-3.436c0.135,-0.705 0.586,-1.828 1.354,-3.372c0.022,-0.027 0.03,-0.076 0.028,-0.151l0,0.001Zm-4.039,22.873l-0.087,0.062c-0.276,0.198 -0.323,0.422 -0.143,0.67c0.104,0.142 0.27,0.186 0.498,0.135l-0.269,-0.866l0.001,-0.001Zm5.197,-3.053c-0.353,-0.047 -1.066,0.203 -2.143,0.751c-0.886,0.463 -1.578,0.874 -2.08,1.236c-0.664,0.481 -0.807,0.982 -0.427,1.505l0.138,0.187c0.096,0.132 0.594,-0.126 1.495,-0.777l0.763,-0.551c1.274,-0.92 2.026,-1.705 2.253,-2.35l0.001,-0.001Zm-3.747,1.245c-0.027,-0.019 -0.062,-0.013 -0.103,0.018l-0.05,0.036c-0.035,0.039 -0.047,0.066 -0.036,0.083c0.04,0.019 0.083,0.017 0.124,-0.014c0.06,-0.056 0.082,-0.098 0.065,-0.123Zm2.315,0.74l-2.45,1.77c0.237,0.066 0.613,-0.083 1.12,-0.449l0.414,-0.299c0.124,-0.09 0.43,-0.431 0.915,-1.022l0.001,0Zm-1.549,-1.179c-0.03,0.01 -0.065,0.022 -0.104,0.037l-0.228,0.163c-0.082,0.061 -0.163,0.139 -0.247,0.235c0.069,0.004 0.155,-0.034 0.264,-0.112l0.087,-0.064c0.134,-0.096 0.203,-0.173 0.213,-0.229c0.017,-0.013 0.02,-0.022 0.015,-0.03Zm0.421,-0.21c-0.03,-0.004 -0.073,0.015 -0.132,0.057l-0.036,0.027c-0.043,0.03 -0.07,0.071 -0.086,0.118c0.044,0.059 0.109,0.062 0.198,0.01c0.091,-0.066 0.111,-0.137 0.057,-0.211l-0.001,-0.001Zm5.638,-20.704c-0.304,-0.174 -0.875,-0.262 -1.709,-0.265c-0.835,-0.004 -1.387,0.091 -1.655,0.283c-0.225,0.162 -0.567,0.618 -1.025,1.367c-1.353,2.206 -1.448,4.11 -0.282,5.71c0.365,0.498 0.927,0.906 1.697,1.225c0.863,0.363 1.525,0.38 1.982,0.049c0.075,-0.054 0.098,-1.069 0.069,-3.048c-0.69,-0.16 -1.146,-0.393 -1.372,-0.701c-0.345,-0.473 -0.359,-0.823 -0.042,-1.052c0.029,0.372 0.127,0.674 0.297,0.906c0.412,0.563 0.776,0.73 1.093,0.505c0.194,-2.104 0.511,-3.765 0.949,-4.98l-0.002,0.001Zm-4.247,21.77c-0.03,-0.004 -0.065,0.002 -0.104,0.02l-0.025,0.016c-0.027,0.033 -0.043,0.063 -0.05,0.093c0.046,0.006 0.086,0.002 0.125,-0.014c0.027,-0.033 0.045,-0.071 0.053,-0.114l0.001,-0.001Zm5.268,-24.425c-0.42,-0.178 -1.085,0.063 -1.995,0.718l-1.549,1.12l-0.172,0.259c0.926,-0.073 1.864,-0.036 2.813,0.114l0.904,-2.21l-0.001,-0.001Zm-0.027,3.019l-0.67,-0.238c-0.283,0.294 -0.438,1.792 -0.463,4.493c0.006,0.046 0.021,0.11 0.046,0.195c0.211,-1.001 0.573,-2.483 1.086,-4.449l0.001,-0.001Zm0.961,-3.104c-0.217,-0.085 -0.39,-0.08 -0.524,0.018c-0.159,0.113 -0.383,0.514 -0.676,1.202c-0.297,0.688 -0.406,1.081 -0.335,1.179c0.061,0.083 0.174,0.161 0.334,0.234c0.162,0.074 0.279,0.083 0.356,0.029c0.249,-0.599 0.53,-1.486 0.845,-2.662Zm8.286,-4.73c-0.473,-0.647 -1.136,-0.946 -1.993,-0.897c-0.721,0.041 -1.427,0.31 -2.118,0.81c-1.179,0.848 -1.907,1.616 -2.193,2.304c0.166,-0.031 0.455,-0.028 0.86,0.006l0.301,0.41c0.575,0.786 0.622,1.942 0.142,3.465c-0.148,0.511 -0.396,1.261 -0.745,2.247c-0.375,0.917 -0.891,2.061 -1.542,3.431c-0.596,0.999 -1.197,2.059 -1.802,3.181l0.063,0.086c0.333,-0.15 0.645,-0.332 0.938,-0.543c0.759,-0.549 1.447,-1.191 2.066,-1.929c0.764,-0.941 1.152,-1.761 1.166,-2.457l-0.045,-0.061c-0.042,-0.059 -0.133,-0.128 -0.269,-0.213c-0.138,-0.084 -0.231,-0.158 -0.279,-0.227c-0.231,-0.313 -0.218,-0.565 0.042,-0.752c0.218,-0.157 0.438,-0.078 0.669,0.238c0.05,0.118 0.123,0.341 0.226,0.673c0.271,-0.044 0.699,-0.277 1.283,-0.699c1.367,-0.985 2.446,-2.367 3.237,-4.14c0.908,-2.035 0.905,-3.679 -0.008,-4.93l0.001,-0.003Zm-7.122,10.46l-0.087,0.062c0.141,-0.103 -0.427,0.428 -1.705,1.588c-0.039,0.295 -0.072,0.749 -0.094,1.362c0.698,-0.858 1.327,-1.863 1.886,-3.013l0,0.001Zm-1.778,3.788c-0.03,-0.041 -0.061,-0.049 -0.095,-0.026c-0.012,0.02 -0.012,0.047 -0.002,0.077l0.01,0.013c0.026,0.02 0.052,0.027 0.073,0.023l0.013,-0.086l0.001,-0.001Zm2.218,-8.626l-0.154,-0.211c-0.327,-0.448 -0.598,-0.594 -0.815,-0.436c-0.468,1.084 -0.734,2.036 -0.8,2.854c0.535,0.4 0.901,0.736 1.101,1.01c0.066,0.091 0.048,0.172 -0.051,0.246c-0.047,0.019 -0.089,0.024 -0.124,0.012l-0.881,-0.71l-0.109,-0.017c-0.235,1.071 -0.372,2.155 -0.408,3.256l0.325,-0.235c0.931,-0.672 1.626,-1.546 2.078,-2.619c0.521,-1.238 0.468,-2.286 -0.162,-3.148l0,-0.002Zm-2.042,8.369c-0.036,-0.012 -0.062,-0.013 -0.079,0l-0.011,0.064c0.026,0.02 0.052,0.025 0.075,0.022l0.014,-0.085l0.001,-0.001Zm0.174,-0.202l-0.026,-0.037c-0.04,-0.036 -0.072,-0.045 -0.099,-0.026l-0.01,0.01c-0.034,0.022 -0.04,0.058 -0.02,0.106l0.027,0.037c0.027,0.02 0.057,0.023 0.087,0.014l0.025,-0.019c0.03,-0.033 0.034,-0.059 0.016,-0.085Zm1.413,-11.065c-0.024,0.019 -0.06,0.036 -0.102,0.056c-0.045,0.019 -0.073,0.034 -0.091,0.046l-0.238,0.172c-0.198,0.144 -0.426,0.358 -0.676,0.641c-0.329,0.35 -0.452,0.585 -0.368,0.701l0.257,0.062c0.099,0.03 0.185,0.018 0.26,-0.037c0.116,-0.084 0.437,-0.631 0.959,-1.641l-0.001,0Zm-1.326,10.869l-0.018,-0.025c-0.044,-0.044 -0.083,-0.054 -0.118,-0.03l-0.01,0.01c-0.026,0.018 -0.024,0.054 0.002,0.108l0.02,0.026c0.044,0.044 0.079,0.057 0.104,0.039l0.012,-0.009c0.035,-0.024 0.037,-0.064 0.008,-0.12l0,0.001Zm0.18,-0.224l-0.017,-0.025c-0.037,-0.049 -0.071,-0.062 -0.106,-0.037l-0.013,0.009c-0.025,0.018 -0.023,0.054 0.004,0.109l0.019,0.025c0.034,0.027 0.063,0.032 0.089,0.014l0.01,-0.01c0.028,-0.031 0.032,-0.058 0.014,-0.084l0,-0.001Zm0.125,-0.224l-0.02,-0.024c-0.045,-0.044 -0.084,-0.054 -0.117,-0.029l-0.011,0.009c-0.025,0.02 -0.025,0.055 0.003,0.111l0.018,0.024c0.032,0.028 0.061,0.032 0.087,0.015l0.025,-0.019c0.019,-0.026 0.023,-0.053 0.014,-0.086l0.001,-0.001Zm2.566,-10.321c-0.158,-0.217 -0.362,-0.232 -0.613,-0.053c-0.474,0.343 -0.881,0.954 -1.222,1.831l0.02,0.024c0.079,0.108 0.227,0.25 0.446,0.428c0.22,0.178 0.371,0.326 0.456,0.441c0.439,0.604 0.584,1.482 0.429,2.631c0.457,-0.684 0.756,-1.565 0.898,-2.643c0.157,-1.176 0.019,-2.065 -0.415,-2.661l0.001,0.002Zm-1.354,7.434l-0.019,-0.025c-0.045,-0.045 -0.079,-0.057 -0.104,-0.04l-0.012,0.01c-0.033,0.024 -0.036,0.064 -0.007,0.12l0.018,0.025c0.033,0.026 0.062,0.031 0.089,0.014l0.023,-0.02c0.027,-0.031 0.03,-0.059 0.014,-0.084l-0.002,0Zm0.11,-0.215l-0.017,-0.024c-0.045,-0.044 -0.079,-0.057 -0.103,-0.038l-0.013,0.01c-0.033,0.022 -0.03,0.059 0.005,0.108l0.018,0.026c0.023,0.032 0.052,0.037 0.087,0.014l0.012,-0.01c0.027,-0.031 0.03,-0.059 0.013,-0.086l-0.002,0Zm0.458,-7.639c-0.03,-0.04 -0.074,-0.04 -0.132,0.001l-0.014,0.01c-0.06,0.041 -0.072,0.083 -0.04,0.125c0.049,0 0.099,-0.004 0.143,-0.012c0.014,-0.035 0.028,-0.076 0.044,-0.125l-0.001,0.001Zm0.267,19.669c-0.005,0.029 -0.013,0.049 -0.022,0.062c-0.008,0.014 -0.023,0.033 -0.04,0.059c-0.017,0 -0.03,-0.01 -0.042,-0.027l-0.026,-0.037c-0.012,-0.017 -0.01,-0.03 0.006,-0.044c0.01,-0.005 0.027,-0.011 0.054,-0.019c0.024,-0.007 0.05,-0.005 0.07,0.006Zm0.086,-0.196l-0.027,0.095l-0.042,-0.007c-0.018,-0.025 -0.025,-0.052 -0.02,-0.081c0.04,-0.014 0.067,-0.017 0.089,-0.007Zm0.589,-19.281l-0.026,-0.036c-0.04,-0.036 -0.071,-0.045 -0.097,-0.027l-0.012,0.01c-0.032,0.022 -0.035,0.057 -0.004,0.098l0.028,0.037c0.017,0.024 0.046,0.029 0.086,0.014l0.012,-0.008c0.027,-0.034 0.03,-0.063 0.014,-0.089l-0.001,0.001Zm0.624,6.898l-0.427,-0.585c-0.175,0.128 -0.185,0.299 -0.026,0.514c0.175,0.239 0.313,0.323 0.414,0.252l0.025,-0.02l0.014,-0.162l0,0.001Zm-0.351,-6.524c-0.027,-0.02 -0.074,-0.037 -0.136,-0.055c-0.035,0.024 -0.03,0.065 0.013,0.123l0.008,0.013c0.043,0.059 0.081,0.075 0.114,0.052l0,-0.133l0.001,0Zm0.147,0.387l-0.019,-0.025c-0.046,-0.043 -0.079,-0.056 -0.105,-0.04l-0.012,0.01c-0.033,0.025 -0.03,0.062 0.006,0.111l0.017,0.025c0.023,0.033 0.05,0.04 0.073,0.022l0.025,-0.018c0.028,-0.032 0.032,-0.061 0.014,-0.085l0.001,0Z" style="fill:#fff;fill-rule:nonzero;"/><path d="M334.874,505.285c0.088,0.958 0.07,1.696 -0.057,2.211l-0.057,-0.074c-0.049,-0.065 -0.123,-0.062 -0.222,0.012c0.065,-0.049 -0.125,0.56 -0.575,1.827c-0.225,0.627 -0.495,1.173 -0.813,1.64c-0.159,0.233 -0.213,0.383 -0.165,0.448c0.153,0.205 0.375,0.201 0.664,-0.015c0.123,-0.092 0.248,-0.26 0.373,-0.503c0.126,-0.244 0.251,-0.412 0.375,-0.504c0,0.446 -0.28,0.879 -0.841,1.294c-0.297,0.221 -0.69,0.297 -1.18,0.226c-0.488,-0.069 -0.841,-0.249 -1.056,-0.535c-0.252,-0.335 -0.457,-1.557 -0.611,-3.665l-0.178,-0.232l-0.145,0.107c-0.058,0.338 -0.173,0.834 -0.351,1.488c0.006,0.074 -0.023,0.173 -0.086,0.295l-0.027,-0.036c-0.109,-0.148 -0.071,-0.882 0.122,-2.2c0.076,0.121 0.197,0.121 0.364,-0.003c0.315,-1.015 0.353,-1.687 0.105,-2.016l-0.109,0.084l-0.216,0.869l-0.065,-0.085c0.038,-0.499 0.177,-1.203 0.421,-2.11c0.053,-0.102 0.268,-0.294 0.646,-0.576l0.36,-0.264c0.026,0.082 0.045,0.254 0.058,0.511c0.013,0.169 0.084,0.341 0.213,0.512c0.23,-0.171 0.452,-0.26 0.667,-0.265l-0.106,2.476l-0.096,2.025c0.001,0.946 0.139,1.602 0.417,1.971c0.1,0.132 0.246,0.124 0.445,-0.023c0.38,-0.282 0.64,-0.755 0.781,-1.423c0.233,-0.75 0.52,-1.884 0.857,-3.4l0.088,-0.066l0,-0.001Zm-2.61,-7.364c0.19,0.256 0.209,0.636 0.056,1.141c-0.155,0.505 -0.368,0.858 -0.642,1.06l-0.113,-0.049l-0.24,-0.32c-0.493,-0.656 -0.389,-1.246 0.313,-1.769c0.288,-0.214 0.498,-0.235 0.627,-0.062l-0.001,-0.001Zm2.315,11.698c0.009,0.082 -0.007,0.213 -0.051,0.396l-0.059,0.047c-0.02,-0.142 0,-0.279 0.056,-0.413l0.053,-0.029l0.001,-0.001Zm0.25,-1.671c-0.007,0.094 -0.029,0.244 -0.066,0.452l-0.063,-0.089l0.061,-0.407l0.042,0.006l0.028,0.038l-0.002,0Zm5.369,-27.654c0.465,0.612 0.584,1.583 0.354,2.912c-0.192,1.239 -0.508,3.053 -0.946,5.444l-0.841,3.407l-1.725,6.78c-0.07,0.299 -0.023,1.793 0.143,4.485l0.111,0.146c0.149,-0.112 0.228,-0.203 0.238,-0.275c0.455,-2.044 0.745,-3.282 0.87,-3.71c0.507,-1.776 1.06,-2.888 1.659,-3.339c0.631,-0.478 1.131,-0.475 1.498,0.006c0.175,0.229 0.259,0.771 0.252,1.626c0.061,0.082 0.087,0.216 0.076,0.405c-0.021,0.327 -0.378,0.904 -1.065,1.732c-0.625,0.741 -0.864,1.207 -0.721,1.394c0.087,0.114 0.276,0.188 0.573,0.225c0.296,0.034 0.508,0.139 0.64,0.309c0.112,0.145 0.198,0.399 0.261,0.758c0.063,0.359 0.149,0.61 0.263,0.758c0.075,0.098 0.148,0.118 0.222,0.064l0.234,-0.177c0.532,-0.401 1.09,-2.081 1.67,-5.043l0.065,0.087l-0.137,1.93c-0.107,1.185 -0.208,1.821 -0.31,1.909l-0.063,-0.008l0,-0.077l0.062,-0.122c-0.049,-0.027 -0.093,-0.076 -0.133,-0.145c-0.221,0.473 -0.564,1.166 -1.028,2.081l0.092,0.123c0.124,-0.094 0.266,-0.255 0.427,-0.483c0.163,-0.229 0.297,-0.383 0.402,-0.464l0.04,-0.024c0.038,0.456 -0.23,0.901 -0.803,1.335c-0.116,0.086 -0.408,0.185 -0.88,0.296c-0.774,0.184 -1.357,0.021 -1.749,-0.492c-0.311,-0.407 -0.521,-0.877 -0.625,-1.408c-0.104,-0.532 -0.166,-0.811 -0.183,-0.837c-0.138,-0.179 -0.445,-0.09 -0.921,0.27l-0.235,0.173l-0.371,2.692c-0.022,0.698 -0.086,1.471 -0.187,2.317c0.048,0.285 0.002,0.486 -0.141,0.605l-1.09,0.961c-0.143,0.132 -0.307,0.078 -0.494,-0.169l-0.083,-0.108c-0.069,-0.242 -0.142,-0.599 -0.215,-1.069l-0.137,-2.439c-0.118,-0.154 -0.305,-0.18 -0.561,-0.076l0.077,-0.56c0.125,-0.48 0.262,-1.098 0.409,-1.853c0.004,-0.029 0.002,-0.072 -0.004,-0.132l-0.095,-13.238c-0.025,-2.234 0.405,-4.058 1.292,-5.473c-0.018,0.013 -0.033,0.019 -0.047,0.016c0.01,-0.019 0.043,-0.063 0.096,-0.129c0.158,-0.161 0.396,-0.417 0.712,-0.769c0.042,-0.044 0.081,-0.094 0.119,-0.147c-0.01,0.007 -0.02,0.016 -0.038,0.027c0.136,-0.178 0.355,-0.633 0.663,-1.365c0.249,-0.57 0.537,-0.979 0.864,-1.227c0.584,-0.44 1.064,-0.409 1.443,0.087l0.001,-0.002Zm-3.249,3.584l-0.131,-0.171c-0.452,0.34 -0.745,1.123 -0.885,2.347c-0.052,0.9 -0.102,1.8 -0.151,2.699l0.111,0.146l0.147,-0.11l0.908,-4.911l0.001,0Zm1.399,-0.379l-0.262,-0.343c-0.222,-0.103 -0.39,-0.113 -0.504,-0.025l-0.509,3.704c-0.061,0.379 -0.139,0.998 -0.233,1.855l-0.109,3.11l-0.216,6.222c-0.011,0.227 0.026,0.392 0.107,0.498l0.284,-0.188l1.953,-8.257c0.26,-1.06 0.371,-2.192 0.327,-3.397c-0.045,-1.448 -0.327,-2.507 -0.838,-3.177l0,-0.002Zm1.175,-2.742c-0.297,-0.392 -0.638,-0.445 -1.02,-0.155c-0.195,0.147 -0.399,0.461 -0.609,0.942c-0.233,0.513 -0.291,0.851 -0.166,1.013c0.061,0.083 0.202,0.128 0.421,0.137c0.219,0.01 0.354,0.046 0.405,0.111l0.305,0.404c0.132,0.171 0.259,0.453 0.381,0.85c0.122,0.397 0.249,0.679 0.38,0.851l0.195,-0.147c0.273,-2.058 0.179,-3.394 -0.289,-4.006l-0.003,0Zm1.128,18.364l-0.532,-0.697c-0.076,-0.099 -0.247,-0.045 -0.519,0.159c-0.683,0.516 -1.178,1.545 -1.485,3.09l0.002,0.077c0.136,0.179 0.446,0.086 0.93,-0.28c1.179,-0.891 1.713,-1.673 1.602,-2.347l0.002,-0.002Zm0.179,-2.006l-0.438,-0.577c-0.089,-0.114 -0.259,-0.076 -0.511,0.115c-0.319,0.241 -0.688,0.93 -1.106,2.069l0.13,0.171c0.132,-0.1 0.298,-0.268 0.496,-0.51c0.199,-0.239 0.357,-0.405 0.48,-0.5l0.063,-0.045c0.097,-0.061 0.328,-0.171 0.696,-0.332l0.154,-0.078l0.067,-0.014l-0.012,0.01c0.096,-0.069 0.088,-0.173 -0.018,-0.312l-0.001,0.003Zm2.679,5.576c0.011,0.03 0.013,0.049 0.003,0.056l-0.013,0.01c-0.022,0.004 -0.049,0.004 -0.077,0c-0.025,-0.032 -0.033,-0.059 -0.023,-0.079c0.033,-0.025 0.065,-0.024 0.101,0l0.007,0.013l0.002,0Z" style="fill:#fff;fill-rule:nonzero;"/><path d="M350.266,494.174c-0.217,1.679 -0.409,2.814 -0.573,3.405c-0.37,1.317 -0.953,2.282 -1.753,2.896c-0.39,0.301 -0.861,0.489 -1.415,0.566c-0.739,0.102 -1.206,0.029 -1.4,-0.222c-0.674,-0.866 -1.06,-1.422 -1.16,-1.668l-0.149,-0.893c-0.02,-0.111 -0.057,-0.285 -0.108,-0.517c-0.185,-0.942 -0.057,-2.02 0.386,-3.234c0.441,-1.211 1.042,-2.108 1.797,-2.692l0.525,-0.404c0.218,-0.14 0.489,-0.142 0.817,-0.005c0.27,0.116 0.495,0.287 0.671,0.513c0.689,0.885 0.708,2.068 0.064,3.548c-0.324,0.756 -1,1.846 -2.026,3.268c0.097,0.327 0.24,0.611 0.429,0.855c0.328,0.422 0.76,0.426 1.298,0.014c0.725,-0.558 1.296,-1.375 1.713,-2.448c0.157,-0.433 0.425,-1.405 0.799,-2.917l0.086,-0.066l-0.001,0.001Zm-3.292,-2.227c-0.118,-0.154 -0.327,-0.239 -0.627,-0.256l-0.366,0.282c-0.367,0.283 -0.675,0.772 -0.927,1.471c-0.274,0.754 -0.281,1.297 -0.023,1.629l0.151,-0.157c0.55,-1.017 1.202,-1.88 1.952,-2.588c0.009,-0.108 -0.045,-0.236 -0.159,-0.381l-0.001,0Zm0.376,1.267c-0.029,-0.04 -0.075,-0.089 -0.131,-0.143c-0.055,-0.055 -0.095,-0.099 -0.12,-0.131c-0.109,-0.008 -0.249,0.056 -0.422,0.185c-0.236,0.183 -0.389,0.379 -0.459,0.589c-0.445,1.271 -0.581,2.565 -0.417,3.885l0.152,0.194c0.473,-0.364 0.899,-1.093 1.282,-2.189c0.409,-1.166 0.446,-1.965 0.113,-2.392l0.002,0.002Zm1.958,5.126l-0.131,-0.167c-0.221,0.168 -0.471,0.474 -0.748,0.919c-0.434,0.668 -0.656,1.011 -0.666,1.031l0.132,0.167c0.499,-0.382 0.969,-1.031 1.414,-1.949l-0.001,-0.001Zm31.933,-44.474c-0.348,-0.05 -0.86,-0.097 -1.535,-0.142c-0.943,0.017 -1.741,0.285 -2.385,0.809c-0.056,0.047 -0.107,0.13 -0.156,0.248c-0.049,0.119 -0.098,0.197 -0.145,0.236c-0.25,0.39 -0.986,1.082 -2.206,2.073c-0.446,0.363 -0.819,1.32 -1.113,2.87c-0.267,1.342 -0.376,2.431 -0.328,3.264l0.512,9.312c-0.014,0.275 -0.012,0.69 0.007,1.245c0.108,0.135 0.266,0.213 0.47,0.233c0.681,0.411 1.403,1.043 2.158,1.897c0.574,-0.467 1.081,-1.339 1.52,-2.616c0.439,-1.277 0.636,-1.896 0.589,-1.859l0.059,-0.049c-0.103,1.541 -0.497,2.9 -1.179,4.076c-0.119,0.177 -0.3,0.451 -0.543,0.819c-0.073,0.138 0.041,0.502 0.341,1.093c0.131,0.224 0.311,0.571 0.54,1.046c0.758,1.94 0.819,3.973 0.188,6.101c-0.625,2.07 -1.756,3.771 -3.389,5.1c-3.756,3.054 -7.438,2.636 -11.048,-1.252c-0.624,0.359 -1.54,0.86 -2.753,1.504c-1.386,0.677 -2.353,0.683 -2.899,0.016c-0.784,-0.951 0.203,-2.549 2.96,-4.794c-0.371,-0.227 -0.789,-0.622 -1.252,-1.184c-0.775,-0.943 -1.148,-2.108 -1.119,-3.496c0.024,-1.331 0.403,-2.505 1.135,-3.523c0.419,-0.593 0.888,-1.146 1.406,-1.662c0.078,-0.261 0.23,-0.88 0.451,-1.855c0.138,-0.641 0.34,-1.327 0.604,-2.059c0.092,-0.18 0.202,-0.448 0.333,-0.807c0.03,-0.143 0.029,-0.427 -0.001,-0.852c-0.161,-2.252 1.119,-4.675 3.838,-7.273c0.205,-0.206 0.582,-0.546 1.136,-1.023l4.599,-4.02c1.592,-1.296 2.646,-2.108 3.163,-2.436c0.087,-0.056 0.367,-0.217 0.84,-0.482c0.441,-0.241 0.673,-0.372 0.698,-0.389c0.188,-0.157 0.349,-0.373 0.477,-0.648c0.126,-0.273 0.236,-0.45 0.331,-0.528l0.06,-0.049c0.068,0.197 0.084,0.482 0.047,0.856c1.774,-0.621 2.971,-0.557 3.59,0.197l-0.001,0.003Zm-19.046,32.052c-0.319,-0.39 -0.645,-0.575 -0.975,-0.557c-0.08,0.064 -0.208,0.157 -0.38,0.277c-0.174,0.121 -0.3,0.216 -0.379,0.278c-1.227,1 -1.981,1.784 -2.256,2.354c-0.299,0.625 -0.31,1.103 -0.034,1.435c0.389,0.477 1.234,0.452 2.531,-0.074c1.022,-0.408 1.856,-0.874 2.5,-1.398l0.228,-0.187c-0.726,-1.3 -1.137,-2.011 -1.235,-2.13l0,0.002Zm-1.344,-8.773l-0.069,-0.083c-0.182,0.149 -0.329,0.334 -0.439,0.557c-1.317,2.539 -1.287,4.645 0.089,6.319c0.552,0.675 0.933,0.928 1.14,0.758l0.085,-0.068c-0.719,-2.54 -0.987,-5.034 -0.806,-7.484l0,0.001Zm6.481,-1.898l-0.185,-0.227c-0.601,-0.729 -1.421,-0.98 -2.459,-0.757c-0.821,0.166 -1.639,0.58 -2.453,1.241c-0.119,0.098 -0.284,0.255 -0.492,0.471c-0.21,0.215 -0.361,0.362 -0.458,0.439c-0.325,0.913 -0.275,2.875 0.145,5.879c0.158,1.196 0.3,1.873 0.431,2.03l0.069,0.084c1.05,-0.536 1.832,-1.014 2.351,-1.436l0.143,-0.118c-0.111,-0.04 -0.35,-0.011 -0.712,0.083c-0.298,0.072 -0.504,0.041 -0.614,-0.094l0.023,-0.019l0.005,-0.044c0.427,-0.097 0.759,-0.194 0.997,-0.295c0.002,-0.029 0.009,-0.278 0.02,-0.751c0.005,-0.269 0.11,-0.488 0.318,-0.658c0.097,-0.078 0.242,-0.134 0.441,-0.169c0.196,-0.034 0.326,-0.077 0.39,-0.13l0.036,-0.03c0.044,-1.531 0.355,-2.828 0.931,-3.891c0.301,-0.312 0.66,-0.847 1.073,-1.607l0,-0.001Zm6.633,-17.367l-4.341,2.777c-0.087,0.059 -0.188,0.142 -0.311,0.253c-0.139,0.127 -0.496,0.524 -1.075,1.194c-2.558,2.941 -4.234,5.497 -5.03,7.666c-0.159,0.422 0.034,0.964 0.583,1.631c0.508,0.618 1.127,0.83 1.856,0.633c0.277,-0.068 0.453,-0.129 0.525,-0.187l0.703,-0.573c1.66,-1.349 2.578,-3.42 2.758,-6.212c0.005,-0.283 -0.04,-0.484 -0.139,-0.602c-0.396,-0.483 -1.109,-0.309 -2.139,0.528c-0.694,0.564 -1.264,1.373 -1.714,2.429c-0.015,-0.293 0.212,-0.776 0.684,-1.451c0.417,-0.591 0.787,-1.016 1.104,-1.277c0.757,-0.617 1.466,-0.767 2.122,-0.455c-0.033,-0.33 0.007,-0.718 0.118,-1.167l0.104,0.055l0.089,0.107c0.224,0.984 0.345,1.803 0.368,2.459c0.093,2.573 -0.692,4.534 -2.348,5.884c-0.932,0.756 -1.743,1.124 -2.428,1.1c-0.954,-0.044 -1.539,-0.197 -1.754,-0.458l-0.987,-1.203c-0.119,0.098 -0.336,0.68 -0.647,1.749c-0.312,1.069 -0.475,1.757 -0.483,2.069c2.354,-1.636 4.424,-1.62 6.208,0.051c1.446,-1.058 2.986,-1.565 4.621,-1.516c0.019,-1.062 -0.091,-2.562 -0.326,-4.5c-0.245,-2.011 -0.369,-3.479 -0.37,-4.405c-0.005,-1.637 0.237,-3.116 0.72,-4.438c0.181,-0.491 0.332,-0.785 0.452,-0.883c0.094,-0.077 0.165,-0.088 0.21,-0.033c0.079,0.097 0.07,0.183 -0.026,0.261c-0.282,0.839 -0.449,1.364 -0.499,1.576c-0.152,0.639 -0.166,1.174 -0.039,1.603l0.322,-1.891l0.047,0.617c0.234,-0.973 0.59,-2.103 1.063,-3.388l-0.001,-0.003Zm-8.138,25.319c-0.444,-0.139 -0.865,-0.137 -1.252,0.008c-0.402,0.207 -0.795,0.415 -1.181,0.625c-0.309,0.157 -0.659,0.396 -1.05,0.713l-0.31,0.255c0.026,0.161 0.076,0.285 0.147,0.374c0.229,0.278 0.931,0.308 2.11,0.09c1.118,-0.208 1.845,-0.449 2.18,-0.721l-0.001,-0.098l-0.643,-1.244l0,-0.002Zm1.042,1.775c-0.041,-0.034 -0.088,-0.074 -0.143,-0.124c-1.479,0.675 -2.886,0.948 -4.22,0.814l-0.083,0.068c0.395,0.788 0.737,1.358 1.023,1.707l0.293,0.355l0.361,-0.192l2.617,-2.132c0.225,-0.18 0.274,-0.346 0.15,-0.497l0.002,0.001Zm-3.644,-17.464c-0.182,0.427 -0.288,1.057 -0.322,1.891c0.086,-0.413 0.193,-1.042 0.322,-1.89l0,-0.001Zm-0.221,2.645c-0.05,0.132 -0.021,0.265 0.091,0.401l0.02,0.024l-0.111,-0.426l0,0.001Zm0.233,0.623l-0.02,-0.023c-0.049,-0.041 -0.083,-0.052 -0.108,-0.033l-0.01,0.01c-0.032,0.026 -0.032,0.066 -0.001,0.12l0.02,0.023c0.034,0.025 0.062,0.028 0.086,0.01l0.024,-0.02c0.028,-0.036 0.03,-0.064 0.01,-0.088l-0.001,0.001Zm3.553,-7.913c-0.032,0.026 -0.079,0.059 -0.142,0.096c-0.064,0.037 -0.106,0.066 -0.129,0.085c-1.372,1.117 -2.354,2.405 -2.948,3.868l-0.02,-0.024l-0.019,-0.023c-0.04,-0.048 -0.075,-0.06 -0.109,-0.032l-0.01,0.01c-0.032,0.025 -0.028,0.062 0.01,0.11l0.019,0.023c0.028,0.032 0.056,0.042 0.086,0.029l-0.033,0.106c0.002,-0.014 0,-0.024 -0.007,-0.033l-0.03,-0.035c-0.039,-0.032 -0.076,-0.036 -0.107,-0.01l-0.012,0.01c-0.024,0.02 -0.023,0.052 0,0.098l0.03,0.036c0.027,0.02 0.053,0.018 0.079,-0.003l0.021,-0.019c-0.206,0.591 -0.304,1.141 -0.298,1.651c0.955,-2.139 2.163,-4.119 3.619,-5.939l0,-0.004Zm-3.414,4.443l-0.027,-0.036c-0.033,-0.039 -0.064,-0.046 -0.097,-0.02l-0.012,0.01c-0.025,0.02 -0.023,0.052 0.001,0.098l0.03,0.036c0.026,0.018 0.055,0.02 0.086,0.008l0.012,-0.01c0.026,-0.033 0.03,-0.062 0.008,-0.086l-0.001,0Zm0.195,-0.395c0.018,0.039 0.016,0.067 -0.008,0.087l-0.012,0.009c-0.01,0.007 -0.016,0.006 -0.023,-0.002l0.043,-0.094Zm12.876,9.93c-0.591,0.48 -2.031,1.433 -4.316,2.857c-0.109,0.076 -0.215,0.162 -0.311,0.255c-0.324,0.461 -0.755,1.056 -1.288,1.781c-0.97,1.265 -1.986,2.423 -3.049,3.474c0.723,0.881 1.56,1.324 2.51,1.332c-0.192,0.157 -0.522,0.175 -0.993,0.054c-0.135,-0.049 -0.33,-0.135 -0.591,-0.255c-0.248,-0.222 -0.648,-0.524 -1.203,-0.907l-3.276,2.665c3.286,3.998 6.825,4.452 10.619,1.365c1.554,-1.264 2.596,-2.874 3.126,-4.827c0.53,-1.953 0.457,-3.873 -0.215,-5.76c-0.337,-0.943 -0.675,-1.622 -1.012,-2.035l-0.001,0.001Zm-11.589,-6.254c0.012,0.03 0.01,0.059 -0.008,0.087l-0.012,0.009c-0.04,0.02 -0.067,0.017 -0.087,-0.008l-0.03,-0.035c-0.023,-0.047 -0.025,-0.079 0.001,-0.099l0.01,-0.009c0.031,-0.027 0.064,-0.02 0.098,0.02l0.028,0.035Zm0.077,11.988l-0.01,-0.013c-0.039,-0.047 -0.073,-0.059 -0.105,-0.031l-0.01,0.009c-0.034,0.027 -0.03,0.063 0.009,0.111l0.01,0.012c0.055,0.05 0.094,0.065 0.117,0.045l0.012,-0.01c0.032,-0.026 0.025,-0.068 -0.022,-0.122l-0.001,-0.001Zm-0.015,-12.713l0.01,0.01c0.04,0.05 0.033,0.096 -0.023,0.142l-0.043,-0.005l-0.025,-0.079l0.03,-0.063c0.014,-0.014 0.032,-0.016 0.053,-0.007l-0.002,0.002Zm0.167,-0.573l0.02,0.045l-0.026,0.041l-0.023,0.02l-0.033,0.008l-0.04,-0.026l-0.01,-0.012l-0.019,-0.045l0.015,-0.032l0.023,-0.019l0.047,-0.02l0.041,0.028l0.01,0.012l-0.005,0Zm0.077,-0.516l0.02,0.023c0.036,0.062 0.044,0.103 0.019,0.123c-0.03,0.01 -0.066,0.015 -0.111,0.01c-0.015,-0.067 -0.005,-0.113 0.025,-0.14c0.007,-0.007 0.022,-0.013 0.046,-0.016l0.001,0Zm0.06,13.666c-0.035,-0.009 -0.069,-0.003 -0.102,0.023l-0.036,0.029c-0.03,0.026 -0.04,0.047 -0.027,0.062l0.029,0.036c0.045,-0.012 0.084,-0.03 0.116,-0.056c0.025,-0.032 0.03,-0.064 0.02,-0.095l0,0.001Zm0.048,-13.994l0.019,0.024c0.033,0.055 0.023,0.102 -0.023,0.141l-0.065,-0.006l-0.014,-0.089l0.027,-0.063c0.022,-0.005 0.04,-0.007 0.055,-0.006l0.001,-0.001Zm0.421,14.249c-0.084,0.029 -0.178,0.058 -0.285,0.092l-0.178,0.144c0.093,0.017 0.231,0.03 0.413,0.041l0.035,-0.03l0.044,0.006l0.004,-0.044c0.04,-0.031 0.028,-0.102 -0.035,-0.21l0.002,0.001Zm-0.254,-14.605c0.019,0.039 0.015,0.069 -0.008,0.088l-0.012,0.01c-0.033,0.026 -0.062,0.023 -0.087,-0.01l-0.02,-0.023c-0.024,-0.045 -0.026,-0.078 -0.002,-0.098l0.012,-0.01c0.03,-0.024 0.064,-0.019 0.097,0.02l0.02,0.025l0,-0.002Zm0.03,-0.301l0.01,0.013c0.046,0.056 0.057,0.094 0.034,0.112c-0.03,0.012 -0.068,0.016 -0.112,0.012c-0.016,-0.067 -0.01,-0.111 0.014,-0.13c0.015,-0.014 0.035,-0.015 0.055,-0.006l-0.001,-0.001Zm0.164,-0.213c0.012,0.03 0.01,0.059 -0.008,0.089l-0.023,0.019c-0.03,0.01 -0.059,0.008 -0.089,-0.01l-0.029,-0.034c-0.024,-0.047 -0.02,-0.083 0.013,-0.108l0.012,-0.01c0.023,-0.02 0.056,-0.013 0.097,0.02l0.027,0.035l0,-0.001Zm-0.047,14.749l-0.019,-0.024c-0.04,-0.033 -0.073,-0.04 -0.097,-0.02l-0.012,0.01c-0.033,0.025 -0.037,0.061 -0.012,0.108l0.02,0.023c0.034,0.024 0.063,0.027 0.087,0.01l0.024,-0.022c0.033,-0.025 0.037,-0.054 0.01,-0.085l-0.001,0Zm1.969,-6.804c-0.669,0.545 -1.181,1.482 -1.539,2.811c-0.357,1.331 -0.398,2.404 -0.122,3.225c0.632,-0.511 1.101,-1.006 1.412,-1.486c0.482,-0.724 0.766,-1.478 0.854,-2.262c0.099,-0.915 -0.104,-1.678 -0.606,-2.288l0.001,0Zm4.878,-1.665c-0.32,-0.389 -1.007,-0.413 -2.056,-0.073c-0.879,0.293 -1.561,0.635 -2.046,1.03l-0.359,0.294c0.647,1.205 0.74,2.46 0.28,3.76c-0.401,1.147 -1.169,2.18 -2.299,3.101l0.067,0.083l4.546,-2.189c0.357,-0.292 0.718,-0.883 1.079,-1.77c0.349,-0.839 0.604,-2.106 0.767,-3.801c0.008,-0.1 0.017,-0.246 0.021,-0.435Zm-2.766,6.976l-3.452,1.577l-0.085,0.069c-0.05,0.134 -0.003,0.288 0.142,0.462l0.019,0.024c0.726,-0.088 1.75,-0.671 3.074,-1.747c0.142,-0.118 0.243,-0.245 0.301,-0.383l0.001,-0.002Zm1.15,-0.421c-0.134,-0.05 -0.321,0.023 -0.558,0.218c-0.151,0.123 -0.36,0.315 -0.625,0.576c-0.265,0.263 -0.468,0.451 -0.611,0.568c-0.422,0.343 -1.027,0.683 -1.814,1.02c-0.574,0.241 -0.841,0.345 -0.801,0.312c-0.207,0.169 -0.081,0.531 0.374,1.087l0.118,0.143c0.283,-0.139 0.517,-0.284 0.701,-0.433l0.932,-0.757c1.171,-0.956 1.933,-1.866 2.284,-2.734Zm-2.48,3.368c-0.109,0.091 -0.287,0.219 -0.532,0.384c-0.244,0.165 -0.42,0.294 -0.532,0.382l-0.203,0.167l0.187,0.227c0.523,-0.43 0.885,-0.816 1.081,-1.16l-0.001,0Zm3.079,-4.749l-0.304,0.525l0.106,-0.088c0.168,-0.137 0.235,-0.281 0.199,-0.438l-0.001,0.001Zm4.659,-2.759l-0.774,-0.94c-0.592,-0.719 -1.074,-1.055 -1.445,-1.007c-0.01,0.007 -0.094,0.341 -0.256,1.002c-0.322,1.322 -0.687,2.478 -1.096,3.472c0.996,-0.504 1.934,-1.117 2.821,-1.837l0.525,-0.428c0.08,-0.063 0.155,-0.151 0.225,-0.261l0,-0.001Z" style="fill:#fff;fill-rule:nonzero;"/><path d="M382.335,445.414c0.47,0.542 0.651,1.6 0.544,3.168c-0.023,0.413 -0.063,1.035 -0.117,1.866c0.034,0.826 -0.014,2.065 -0.142,3.717l-1.913,10.189c-0.275,1.455 -0.217,2.967 0.179,4.534l0.145,0.121l0.141,-0.122c0.047,-0.039 0.154,-0.66 0.322,-1.861c0.147,-1.101 0.233,-1.794 0.254,-2.084c0.046,-0.039 0.113,-0.022 0.202,0.05c0.037,0.01 0.077,-0.006 0.126,-0.046l0.081,-0.07c0.63,-1.203 1.153,-1.983 1.573,-2.346c0.066,-0.191 0.038,-0.356 -0.083,-0.496c-0.055,-0.062 -0.138,-0.146 -0.249,-0.253c-0.113,-0.106 -0.192,-0.188 -0.24,-0.241c-0.04,0.032 -0.104,0.075 -0.198,0.13c-0.094,0.055 -0.169,0.102 -0.214,0.142c-0.047,0.039 -0.07,0.074 -0.072,0.102c-0.109,0.094 -0.218,0.263 -0.329,0.508l-0.082,0.07c0.026,-0.379 0.141,-0.655 0.343,-0.83c0.678,-0.583 1.272,-0.578 1.784,0.012c0.404,0.466 0.658,1.486 0.759,3.064c0.142,2.112 0.235,3.264 0.279,3.457l0.121,0.141c0.07,-0.061 0.185,-0.133 0.339,-0.22c0.156,-0.088 0.267,-0.157 0.329,-0.211c0.351,-0.302 0.639,-1.144 0.868,-2.529c0.154,-1.012 0.238,-1.946 0.248,-2.794l0.071,0.082c0.122,0.721 0.103,1.887 -0.05,3.494c-0.072,-0.128 -0.161,-0.145 -0.271,-0.052l-0.079,0.071c-0.043,0.47 -0.247,1.104 -0.613,1.906c-0.219,0.469 -0.298,0.728 -0.243,0.776l0.123,0.097c0.087,-0.074 0.203,-0.19 0.351,-0.35c0.146,-0.159 0.265,-0.275 0.35,-0.349l0.027,-0.016c-0.11,0.346 -0.311,0.645 -0.606,0.899c-0.274,0.235 -0.641,0.415 -1.103,0.54c-0.544,0.156 -0.918,0.118 -1.12,-0.115c-0.275,-0.318 -0.426,-0.844 -0.452,-1.581l-0.12,-3.954l-0.305,-0.35c-0.022,0.02 -0.065,0.049 -0.131,0.084c-0.063,0.034 -0.112,0.065 -0.144,0.092c-0.126,0.108 -0.198,0.189 -0.215,0.246c-0.116,0.088 -0.178,0.166 -0.183,0.237c-0.951,2.074 -1.326,4.899 -1.123,8.474c0.01,0.059 0.014,0.149 0.013,0.272l-1.194,1.024c-0.142,0.039 -0.374,0.062 -0.696,0.067c-0.463,-1.551 -0.668,-2.728 -0.615,-3.532c-0.229,-0.264 -0.39,-0.355 -0.484,-0.274c-0.029,0.026 -0.054,0.055 -0.071,0.081c0.02,-0.07 0.086,-0.509 0.196,-1.314c0.11,-0.805 0.164,-1.268 0.158,-1.384l-0.592,-13.361c-0.025,-0.736 -0.003,-1.39 0.068,-1.966c0.105,-0.726 0.351,-1.573 0.735,-2.54c0.147,-0.534 0.378,-1.32 0.688,-2.359c0.279,-0.943 0.687,-1.645 1.217,-2.1c0.545,-0.467 1.017,-0.472 1.416,-0.016l-0.001,0.003Zm-1.125,3.453c-0.331,-0.381 -0.744,-0.357 -1.244,0.071l-0.164,0.142c-0.016,0.012 -0.027,0.068 -0.033,0.171c-0.062,0.772 -0.135,1.93 -0.212,3.47c-0.009,0.305 0,1.883 0.022,4.734c-0.017,0.922 0.003,2.034 0.061,3.34c0.085,0.521 0.218,1.301 0.396,2.339l0.192,0.223l0.129,-0.11c0.015,-0.014 0.056,-0.226 0.123,-0.634c0.205,-1.003 0.482,-2.497 0.824,-4.484l0.429,-3.434c0.149,-0.956 0.286,-2.094 0.404,-3.415c-0.046,-0.95 -0.354,-1.754 -0.926,-2.414l-0.001,0.001Zm0.546,-2.905c-0.328,-0.38 -0.679,-0.41 -1.053,-0.092c-0.481,0.415 -0.757,1.253 -0.826,2.516l0.121,0.141c0.71,-0.352 1.431,-0.255 2.164,0.294l0.164,-0.142l-0.095,-1.42c-0.067,-0.578 -0.227,-1.01 -0.474,-1.297l-0.001,0Zm0.182,18.211c0.045,0.054 0.047,0.101 -0.001,0.141l-0.069,0.061c-0.005,-0.036 -0.01,-0.08 -0.012,-0.132l0.081,-0.07l0.001,0Zm0.099,-0.615c0.013,0.016 0.015,0.042 0.005,0.077c-0.016,0 -0.044,-0.01 -0.087,-0.028c0.002,-0.014 0.006,-0.031 0.016,-0.054l0.012,-0.009c0.023,-0.005 0.04,0 0.054,0.014Zm0.142,-0.447c0.015,0.03 0.017,0.05 0.01,0.057l-0.013,0.009c-0.023,0.006 -0.052,0.004 -0.087,-0.007c-0.022,-0.022 -0.027,-0.045 -0.019,-0.066c0.031,-0.026 0.064,-0.027 0.098,-0.003l0.011,0.01Zm0.057,-0.359c0.019,0.025 0.032,0.053 0.029,0.083c-0.035,0.002 -0.074,-0.002 -0.111,-0.015l0.014,-0.055c0.023,-0.019 0.046,-0.025 0.068,-0.015l0,0.002Zm9.938,-3.824c0.169,0.946 0.211,1.682 0.128,2.206l-0.061,-0.069c-0.054,-0.061 -0.128,-0.052 -0.22,0.029c0.062,-0.054 -0.078,0.57 -0.421,1.87c-0.17,0.643 -0.393,1.21 -0.671,1.701c-0.139,0.246 -0.183,0.399 -0.127,0.462c0.172,0.19 0.391,0.168 0.661,-0.07c0.116,-0.103 0.228,-0.278 0.334,-0.53c0.109,-0.248 0.218,-0.425 0.335,-0.527c0.039,0.443 -0.205,0.897 -0.729,1.359c-0.278,0.245 -0.664,0.352 -1.158,0.321c-0.494,-0.031 -0.859,-0.18 -1.099,-0.446c-0.281,-0.315 -0.588,-1.516 -0.921,-3.605l-0.194,-0.219l-0.139,0.123c-0.027,0.339 -0.101,0.842 -0.224,1.511c0.012,0.072 -0.01,0.173 -0.06,0.3l-0.032,-0.034c-0.122,-0.138 -0.142,-0.872 -0.062,-2.203c0.088,0.114 0.209,0.104 0.364,-0.032c0.23,-1.038 0.209,-1.71 -0.063,-2.018l-0.105,0.092l-0.141,0.885l-0.072,-0.082c-0.008,-0.501 0.071,-1.215 0.236,-2.143c0.043,-0.108 0.24,-0.316 0.595,-0.628l0.337,-0.298c0.03,0.083 0.065,0.252 0.102,0.508c0.026,0.169 0.11,0.335 0.253,0.495c0.218,-0.19 0.432,-0.297 0.644,-0.32l0.101,2.479c0.026,0.675 0.053,1.351 0.078,2.026c0.081,0.942 0.274,1.586 0.582,1.931c0.108,0.122 0.257,0.102 0.442,-0.061c0.354,-0.311 0.574,-0.806 0.659,-1.483c0.169,-0.766 0.359,-1.919 0.568,-3.46l0.079,-0.07l0.001,0Zm-3.217,-7.126c0.211,0.237 0.263,0.615 0.148,1.131c-0.11,0.518 -0.296,0.889 -0.552,1.116l-0.118,-0.04l-0.266,-0.3c-0.549,-0.614 -0.493,-1.211 0.165,-1.792c0.272,-0.24 0.481,-0.28 0.624,-0.116l-0.001,0.001Zm3.286,11.467c0.018,0.079 0.012,0.212 -0.017,0.398l-0.059,0.052c-0.027,-0.142 -0.019,-0.279 0.025,-0.416l0.052,-0.035l-0.001,0.001Zm0.107,-1.686c0.002,0.094 -0.006,0.245 -0.026,0.455l-0.072,-0.079l0.026,-0.413l0.043,0.002l0.029,0.035Zm5.73,-7.337c-0.082,1.694 -0.182,2.841 -0.3,3.446c-0.263,1.346 -0.768,2.355 -1.514,3.028c-0.367,0.33 -0.823,0.554 -1.367,0.675c-0.732,0.159 -1.202,0.121 -1.418,-0.113c-0.739,-0.812 -1.169,-1.337 -1.29,-1.577c-0.059,-0.248 -0.134,-0.542 -0.22,-0.88c-0.029,-0.11 -0.08,-0.28 -0.149,-0.508c-0.26,-0.925 -0.218,-2.011 0.129,-3.257c0.345,-1.244 0.871,-2.186 1.58,-2.825l0.491,-0.443c0.205,-0.157 0.475,-0.181 0.813,-0.07c0.279,0.094 0.516,0.246 0.71,0.459c0.754,0.828 0.868,2.005 0.338,3.531c-0.265,0.778 -0.853,1.918 -1.767,3.419c0.123,0.318 0.288,0.591 0.496,0.818c0.36,0.395 0.793,0.366 1.295,-0.089c0.684,-0.613 1.187,-1.472 1.519,-2.572c0.125,-0.446 0.314,-1.435 0.572,-2.971l0.081,-0.07l0.001,-0.001Zm-3.458,-1.964c-0.131,-0.144 -0.347,-0.213 -0.645,-0.206l-0.343,0.31c-0.343,0.309 -0.613,0.822 -0.808,1.537c-0.213,0.773 -0.178,1.315 0.104,1.626l0.141,-0.167c0.468,-1.057 1.049,-1.969 1.742,-2.732c-0.002,-0.108 -0.065,-0.231 -0.191,-0.368Zm0.475,1.234c-0.034,-0.037 -0.081,-0.082 -0.141,-0.132c-0.06,-0.051 -0.103,-0.092 -0.131,-0.122c-0.109,0.002 -0.245,0.074 -0.404,0.219c-0.221,0.201 -0.357,0.409 -0.413,0.624c-0.34,1.304 -0.374,2.609 -0.101,3.913l0.168,0.184c0.441,-0.397 0.81,-1.16 1.104,-2.284c0.314,-1.197 0.286,-1.998 -0.082,-2.4l0,-0.002Zm2.355,4.959l-0.143,-0.158c-0.208,0.186 -0.433,0.512 -0.675,0.977c-0.378,0.697 -0.573,1.056 -0.583,1.077l0.144,0.158c0.466,-0.419 0.885,-1.103 1.257,-2.053l0,-0.001Zm8.589,-11.709c0.086,0.989 -0.301,2.045 -1.159,3.171c-0.252,0.334 -0.411,0.53 -0.478,0.594c-0.057,0.164 -0.133,0.42 -0.232,0.763c-0.129,0.192 -0.153,0.25 -0.07,0.172l-0.091,0.085c0.037,-1.129 0.047,-1.702 0.033,-1.717c-0.099,-0.104 -0.207,-0.101 -0.328,0.011l-0.112,0.106c-0.064,0.216 -0.307,0.918 -0.723,2.108c-0.487,1.34 -0.771,2.057 -0.854,2.149c-0.05,0.201 -0.08,0.355 -0.091,0.465c0.148,0.17 0.443,0.048 0.887,-0.366c0.209,-0.196 0.334,-0.335 0.37,-0.416c-0.02,0.132 -0.07,0.24 -0.162,0.324l-0.877,0.799c-0.205,-0.008 -0.406,0.08 -0.599,0.262c-0.091,0.085 -0.208,0.219 -0.352,0.402c-0.145,0.184 -0.258,0.314 -0.341,0.391c-0.232,0.217 -0.43,0.24 -0.594,0.067c-0.077,-0.081 -0.118,-0.178 -0.12,-0.286c-0.224,-1.281 -0.436,-3.2 -0.647,-5.755c-0.26,-0.276 -0.461,-0.348 -0.603,-0.216c-0.368,0.345 -0.675,1.853 -0.92,4.526l-0.077,0.072c-0.014,-0.072 -0.034,-0.185 -0.066,-0.339c-0.004,-0.124 -0.005,-0.305 -0.005,-0.545c-0.051,-0.472 -0.091,-1.18 -0.119,-2.124c0.075,0.128 0.188,0.118 0.34,-0.021l0.102,-0.095c0.155,-0.763 0.53,-1.69 1.126,-2.78c0.056,-0.108 -0.014,-0.261 -0.204,-0.463c-0.133,-0.143 -0.227,-0.187 -0.28,-0.14l-0.691,0.637c0.009,-0.201 0.13,-0.41 0.361,-0.628c0.459,-0.428 0.828,-0.491 1.111,-0.194l0.53,0.563c0.473,0.501 0.815,1.244 1.024,2.229c0.147,0.679 0.233,1.472 0.257,2.381l0.019,1.163c0.02,0.023 0.059,0.054 0.119,0.091c0.055,0.04 0.098,0.072 0.126,0.103l0.26,-0.242c0.156,-0.147 0.447,-0.858 0.873,-2.128c0.417,-1.218 0.653,-2.017 0.709,-2.393c-0.354,-0.641 -0.574,-1.273 -0.666,-1.892c-0.02,-0.124 -0.072,-0.827 -0.165,-2.106c-0.029,-0.226 -0.066,-0.452 -0.11,-0.678c-0.021,-0.262 0.055,-0.472 0.228,-0.634c0.228,-0.211 0.491,-0.156 0.793,0.167c0.509,0.538 0.804,2.168 0.89,4.89c0.133,0.143 0.227,0.187 0.279,0.14c0.563,-0.526 0.973,-1.393 1.23,-2.602l0.074,-0.074l-0.005,0.003Zm-8.024,2.185c0.014,0.029 0.016,0.062 0.008,0.098c-0.03,0.015 -0.061,0.002 -0.097,-0.035c-0.008,-0.007 -0.004,-0.018 0.012,-0.032l0.012,-0.01c0.02,-0.022 0.044,-0.029 0.065,-0.021Zm5.973,0.089c-0.173,0.161 -0.177,0.328 -0.015,0.499c0.173,-0.161 0.179,-0.328 0.015,-0.499Zm2.144,-2.76c-0.017,0.045 -0.03,0.105 -0.04,0.187l-0.02,0.019l-0.046,0l0.031,-0.283l0.074,0.079l0.001,-0.002Z" style="fill:#fff;fill-rule:nonzero;"/><path d="M411.821,441.188c-0.015,1.698 -0.068,2.85 -0.163,3.459c-0.209,1.354 -0.676,2.381 -1.396,3.083c-0.354,0.345 -0.802,0.588 -1.341,0.724c-0.723,0.188 -1.197,0.167 -1.422,-0.06c-0.771,-0.786 -1.222,-1.294 -1.349,-1.529l-0.255,-0.873c-0.035,-0.108 -0.093,-0.276 -0.169,-0.502c-0.299,-0.918 -0.298,-2.005 -0.002,-3.262c0.297,-1.258 0.787,-2.22 1.472,-2.885l0.474,-0.461c0.198,-0.164 0.47,-0.198 0.81,-0.099c0.284,0.084 0.527,0.227 0.729,0.434c0.79,0.801 0.951,1.975 0.488,3.52c-0.231,0.786 -0.774,1.944 -1.622,3.478c0.134,0.312 0.31,0.579 0.528,0.798c0.376,0.385 0.806,0.339 1.293,-0.134c0.653,-0.637 1.122,-1.511 1.408,-2.627c0.104,-0.449 0.252,-1.445 0.444,-2.991l0.076,-0.073l-0.003,0Zm-3.528,-1.83c-0.138,-0.141 -0.355,-0.2 -0.652,-0.183l-0.331,0.324c-0.33,0.321 -0.581,0.844 -0.749,1.567c-0.185,0.78 -0.128,1.32 0.169,1.62l0.132,-0.172c0.428,-1.077 0.975,-2.008 1.635,-2.798c-0.005,-0.108 -0.072,-0.229 -0.203,-0.36l-0.001,0.002Zm0.52,1.217c-0.033,-0.036 -0.084,-0.079 -0.143,-0.128c-0.061,-0.046 -0.108,-0.085 -0.138,-0.114c-0.107,0.006 -0.237,0.084 -0.393,0.234c-0.213,0.208 -0.343,0.42 -0.388,0.636c-0.292,1.313 -0.276,2.616 0.044,3.909l0.172,0.177c0.427,-0.416 0.765,-1.19 1.019,-2.323c0.265,-1.206 0.209,-2.003 -0.173,-2.391Zm2.536,4.858l-0.148,-0.154c-0.2,0.194 -0.412,0.528 -0.636,1.004c-0.35,0.712 -0.527,1.08 -0.537,1.101l0.151,0.154c0.449,-0.437 0.84,-1.138 1.171,-2.105l-0.001,0Z" style="fill:#fff;fill-rule:nonzero;"/><path d="M417.662,435.892c0.072,0.961 -0.167,2.127 -0.715,3.5c-0.536,1.33 -1.154,2.35 -1.852,3.058c-1.039,1.052 -1.973,1.174 -2.803,0.365c-0.358,-0.352 -0.581,-0.828 -0.668,-1.428c-0.085,-0.6 0.046,-1.074 0.393,-1.424c0.049,-0.052 0.129,-0.118 0.232,-0.193c0.105,-0.077 0.178,-0.138 0.222,-0.183l0.266,0.26c0.227,0.223 0.316,0.675 0.263,1.358c-0.052,0.681 0.056,1.15 0.319,1.411c0.414,0.401 0.793,0.428 1.136,0.077c0.806,-0.819 1.028,-1.972 0.663,-3.46c-0.068,-0.253 -0.525,-1.424 -1.376,-3.517l-0.197,-0.193l-0.131,0.131c-0.129,1.006 -0.358,2.235 -0.691,3.684l-0.176,-0.086c0.011,-0.275 0.024,-0.698 0.039,-1.268c0.093,0.102 0.191,0.101 0.3,-0.009c0.137,-0.14 0.246,-0.614 0.33,-1.427c0.085,-0.813 0.071,-1.273 -0.039,-1.38c-0.096,-0.093 -0.181,-0.094 -0.255,-0.004c0.02,-0.095 0.097,-0.631 0.229,-1.608c0.109,-0.84 0.215,-1.31 0.315,-1.413c0.115,-0.118 0.218,-0.132 0.305,-0.046c0.242,0.236 0.312,0.627 0.207,1.17c-0.139,0.757 -0.202,1.184 -0.185,1.285c0.19,0.188 0.491,0.495 0.903,0.925c0.696,0.754 1.142,1.296 1.334,1.627c0.273,0.483 0.458,1.164 0.554,2.045l0.133,0.131c0.238,-0.257 0.524,-1.361 0.862,-3.312l0.079,-0.078l0.004,0.002Zm-4.734,-0.316c0.008,0.037 0.004,0.069 -0.01,0.099c-0.02,0.007 -0.045,-0.001 -0.066,-0.02l-0.011,-0.012c-0.02,-0.036 -0.03,-0.059 -0.023,-0.064l0.013,-0.013c0.037,-0.022 0.069,-0.019 0.099,0.01l-0.002,0Zm4.781,-0.305c0.089,0.087 0.089,0.174 0.004,0.262l-0.001,0.044l-0.032,0.033l-0.046,0c0.008,-0.064 0.015,-0.157 0.021,-0.282l0.053,-0.055l0.001,-0.002Zm3.047,0.199c0.45,0.424 0.473,0.847 0.073,1.269c-0.262,0.275 -0.54,0.271 -0.835,-0.007c-0.414,-0.392 -0.447,-0.769 -0.102,-1.13c0.317,-0.333 0.606,-0.376 0.864,-0.133l0,0.001Zm2.263,-2.404c0.456,0.424 0.485,0.847 0.087,1.274c-0.26,0.278 -0.54,0.278 -0.84,0.002c-0.418,-0.389 -0.458,-0.765 -0.113,-1.131c0.314,-0.339 0.604,-0.387 0.866,-0.145Zm2.221,-2.412c0.464,0.42 0.496,0.845 0.1,1.279c-0.258,0.282 -0.537,0.285 -0.842,0.01c-0.426,-0.385 -0.467,-0.762 -0.125,-1.135c0.311,-0.343 0.601,-0.395 0.867,-0.155l0,0.001Z" style="fill:#fff;fill-rule:nonzero;"/></g><path d="M87.99,154.443l0.254,-84.02l13.166,0.039c13.879,0.043 20.032,5.254 19.642,16.464l-0.055,18.171c0.077,13.69 -6.935,17.917 -20.337,17.168l-0.098,32.215l-12.574,-0.038l0.002,0.001Zm12.7,-42.208c3.677,0.011 7.354,0.141 7.722,-3.753l0.061,-19.942c0.023,-7.789 -2.703,-8.387 -7.687,-8.048l-0.096,31.744l0,-0.001Zm24.465,-29.191c0.034,-10.975 8.703,-14.135 16.414,-14.112c7.829,0.024 16.479,3.236 16.446,14.211l-0.179,59.002c-0.034,10.975 -8.703,14.135 -16.532,14.112c-7.711,-0.024 -16.361,-3.236 -16.328,-14.211l0.179,-59.002Zm12.399,57.978c-0.013,4.248 1.289,5.196 3.899,5.204c2.491,0.008 3.799,-0.932 3.812,-5.181l0.172,-56.878c0.013,-4.248 -1.289,-5.196 -3.78,-5.204c-2.61,-0.008 -3.918,0.932 -3.931,5.181l-0.172,56.878Zm24.384,13.645l0.255,-84.02l16.607,0.05c10.083,0.031 16.239,3.59 16.206,14.447l-0.036,11.919c-0.019,6.254 -1.814,11.441 -12.494,12.589l-0.001,0.236c5.574,0.725 11.499,2.631 11.951,10.301c0.677,11.213 -0.07,23.012 1.911,34.583l-12.574,-0.038c-2.106,-9.683 -1.474,-22.308 -1.445,-32.103c0.016,-5.075 -1.876,-7.087 -7.69,-6.868l-0.118,38.943l-12.572,-0.038l0,-0.001Zm12.723,-49.17l2.371,0.007c4.389,0.013 5.345,-2.344 5.355,-5.412l0.046,-15.223c0.009,-3.186 -1.886,-4.136 -4.733,-4.144l-2.965,-0.009l-0.076,24.782l0.002,-0.001Zm58.076,-34.636l-0.033,10.975l-10.914,-0.034l-0.221,73.046l-12.574,-0.038l0.221,-73.046l-11.032,-0.033l0.033,-10.975l34.52,0.105Zm15.599,70.497c-0.013,4.248 1.289,5.196 3.898,5.204c2.492,0.008 3.799,-0.932 3.812,-5.181l0.027,-8.851c0.036,-11.801 -20.214,-23.427 -20.173,-37.116l0.037,-12.034c0.033,-10.975 8.703,-14.135 16.413,-14.112c7.829,0.024 16.479,3.236 16.446,14.211l-0.053,17.702l-12.575,-0.038l0.051,-16.64c0.013,-4.248 -1.289,-5.196 -3.781,-5.204c-2.609,-0.008 -3.917,0.932 -3.93,5.181l-0.031,10.385c-0.019,6.018 20.211,24.251 20.185,32.748l-0.045,14.869c-0.033,10.975 -8.702,14.133 -16.532,14.11c-7.71,-0.024 -16.36,-3.236 -16.327,-14.211l0.059,-19.35l12.574,0.038l-0.055,18.292l0,-0.003Zm45.37,-57.803c0.033,-10.975 8.702,-14.135 16.413,-14.112c7.829,0.024 16.479,3.236 16.446,14.211l-0.179,59.003c-0.033,10.974 -8.703,14.134 -16.532,14.111c-7.711,-0.024 -16.361,-3.236 -16.327,-14.211l0.179,-59.002Zm12.398,57.978c-0.013,4.248 1.289,5.196 3.899,5.204c2.491,0.008 3.799,-0.932 3.812,-5.181l0.172,-56.878c0.013,-4.248 -1.289,-5.196 -3.78,-5.204c-2.61,-0.008 -3.917,0.933 -3.93,5.181l-0.173,56.878Zm24.537,13.646l0.255,-84.021l28.233,0.086l-0.033,10.975l-15.659,-0.048l-0.065,21.596l15.065,0.046l-0.033,10.975l-15.066,-0.046l-0.122,40.475l-12.575,-0.038Zm71.335,-53.122l0.051,-17.112c0.013,-4.248 -1.289,-5.196 -3.78,-5.204c-2.61,-0.008 -3.917,0.932 -3.93,5.181l-0.173,56.878c-0.013,4.248 1.289,5.196 3.899,5.204c2.491,0.008 3.799,-0.932 3.812,-5.181l0.055,-18.173l12.574,0.038l-0.058,19.235c-0.033,10.975 -8.703,14.135 -16.532,14.112c-7.711,-0.024 -16.361,-3.236 -16.327,-14.211l0.179,-59.002c0.033,-10.975 8.702,-14.135 16.413,-14.112c7.829,0.024 16.479,3.236 16.446,14.211l-0.055,18.174l-12.574,-0.038Zm24.613,-30.609l18.861,0.058l9.354,84.049l-12.693,-0.038l-2.303,-22.784l-8.897,-0.027l-2.798,22.768l-11.388,-0.034l9.864,-83.992Zm12.066,50.308l-2.504,-34.939l-0.831,-0.003l-3.19,34.922l6.525,0.02Zm19.219,33.808l0.255,-84.02l12.574,0.038l-0.221,73.046l16.014,0.048l-0.033,10.975l-28.589,-0.087Zm31.604,0.096l0.255,-84.02l12.574,0.038l-0.221,73.045l16.012,0.049l-0.033,10.975l-28.589,-0.087l0.002,0Z" style="fill-rule:nonzero;"/><path d="M163.137,607.808l-0.033,10.975l-10.914,-0.033l-0.221,73.045l-12.574,-0.038l0.221,-73.045l-11.032,-0.034l0.033,-10.975l34.52,0.105Zm3.138,84.03l0.255,-84.02l12.574,0.038l-0.098,32.217l6.999,0.021l0.098,-32.217l12.572,0.039l-0.254,84.02l-12.575,-0.038l0.124,-40.832l-6.999,-0.021l-0.124,40.832l-12.574,-0.039l0.002,0Zm36.665,0.112l0.255,-84.021l27.996,0.085l-0.034,10.975l-15.421,-0.047l-0.065,21.594l14.828,0.045l-0.033,10.975l-14.829,-0.045l-0.089,29.503l15.658,0.047l-0.033,10.973l-28.233,-0.085l0,0.001Zm51.247,0.155l0.254,-84.02l12.575,0.038l-0.115,37.881l0.356,0.001l9.723,-37.852l12.217,0.037l-9.725,38.322l9.707,45.698l-12.93,-0.039l-9.005,-42.628l-0.356,-0.001l-0.129,42.6l-12.574,-0.038l0.002,0.001Zm38.124,0.116l0.255,-84.021l12.574,0.038l-0.098,32.217l6.999,0.021l0.098,-32.216l12.574,0.038l-0.255,84.02l-12.574,-0.038l0.124,-40.832l-6.999,-0.021l-0.124,40.832l-12.574,-0.038Zm48.298,-83.875l4.097,18.304c1.754,8.148 1.632,9.328 2.673,18.182l0.237,0.001c0.374,-6.608 0.867,-12.153 2.189,-17.577l4.565,-18.866l11.744,0.035l-13.088,52.002l-0.097,31.98l-12.575,-0.038l0.095,-31.391l-12.77,-52.669l12.93,0.039l0,-0.002Zm28.362,0.086l17.792,0.054c10.084,0.03 14.691,6.181 14.664,15.15l-0.04,13.335c-0.141,7.316 -4.418,9.545 -11.66,11.176l0,0.236c7.943,1.558 11.97,3.694 11.941,13.133l-0.04,13.335c-0.031,10.031 -4.68,17.688 -15.238,17.656l-17.673,-0.054l0.254,-84.021Zm12.469,34.851l2.847,0.009c3.203,0.009 4.512,-1.403 4.527,-6.241l0.039,-12.745c0.014,-4.839 -1.286,-6.259 -4.489,-6.268l-2.847,-0.009l-0.077,25.254Zm-0.119,39.178l2.492,0.007c3.558,0.011 5.223,-1.4 5.239,-6.593l0.048,-15.931c0.016,-5.193 -1.64,-6.614 -5.199,-6.624l-2.491,-0.008l-0.089,29.149Zm24.499,10.104l0.255,-84.021l27.995,0.085l-0.033,10.975l-15.421,-0.047l-0.066,21.594l14.828,0.045l-0.033,10.975l-14.828,-0.045l-0.09,29.503l15.659,0.047l-0.033,10.973l-28.233,-0.085l0,0.001Zm31.248,0.095l0.255,-84.021l16.607,0.051c10.083,0.03 16.239,3.589 16.206,14.446l-0.036,11.919c-0.019,6.253 -1.814,11.442 -12.494,12.589l-0.001,0.236c5.574,0.725 11.499,2.632 11.951,10.302c0.677,11.213 -0.07,23.01 1.911,34.581l-12.574,-0.038c-2.106,-9.684 -1.474,-22.309 -1.445,-32.104c0.016,-5.074 -1.876,-7.084 -7.69,-6.868l-0.118,38.944l-12.572,-0.038l0,0.001Zm12.721,-49.171l2.373,0.008c4.389,0.013 5.345,-2.345 5.355,-5.413l0.046,-15.223c0.009,-3.186 -1.886,-4.136 -4.733,-4.145l-2.965,-0.009l-0.076,24.782Z" style="fill-rule:nonzero;"/><path d="M159.081,702.726l5.21,0.016l-0.077,25.167l-3.756,-0.011l0.063,-20.868l-0.071,0l-9.913,20.838l-3.332,-0.01l-9.752,-20.475l-0.071,-0.001l-0.062,20.446l-3.757,-0.012l0.077,-25.167l5.281,0.016l9.964,20.898l10.196,-20.837Zm27.031,17.918l-12.401,-0.037l-3.247,7.321l-4.039,-0.012l11.521,-25.133l4.288,0.013l11.368,25.202l-4.287,-0.013l-3.203,-7.341Zm-6.194,-14.4l-4.781,11.124l9.602,0.029l-4.82,-11.154l-0.001,0.001Zm16.004,-3.406l15.661,0.047c5.067,0.015 6.899,3.512 6.889,6.718c-0.009,3.068 -1.504,5.319 -4.269,6.193l0,0.068c2.23,0.325 3.534,2.411 3.668,5.371c0.198,4.688 0.336,5.851 1.185,6.841l-3.969,-0.012c-0.601,-0.707 -0.598,-1.765 -0.766,-4.797c-0.234,-4.513 -1.752,-5.891 -4.872,-5.901l-9.814,-0.029l-0.033,10.68l-3.756,-0.012l0.076,-25.167Zm14.209,11.286c3.685,0.011 4.578,-2.207 4.583,-3.969c0.007,-2.397 -1.441,-4.023 -4.453,-4.032l-10.596,-0.032l-0.024,8.001l10.49,0.032Zm33.018,-2.084c-0.557,-3.493 -3.312,-6.461 -8.626,-6.477c-5.989,-0.019 -9.79,3.389 -9.811,10.262c-0.014,4.76 2.558,9.665 9.538,9.687c4.429,0.013 7.802,-2.091 8.879,-6.987l3.756,0.011c-0.62,5.567 -5.452,10.241 -12.68,10.219c-6.38,-0.02 -13.278,-3.53 -13.248,-13.328c0.022,-7.333 4.646,-13.135 13.291,-13.109c5.066,0.016 12.041,2.188 12.656,9.732l-3.757,-0.011l0.002,0.001Zm28.437,4.352l-17.221,-0.052l-0.036,11.843l-3.756,-0.012l0.076,-25.168l3.757,0.012l-0.031,10.08l17.221,0.052l0.03,-10.08l3.757,0.011l-0.077,25.168l-3.756,-0.011l0.036,-11.843Zm35.763,-6.731c-0.383,-2.257 -2.505,-3.391 -4.914,-3.398c-4.075,-0.012 -7.057,1.636 -7.503,8.931l0.069,0c0.964,-1.62 3.661,-3.232 7.239,-3.222c4.291,0.013 9.492,2.003 9.473,8.418c-0.011,3.701 -2.72,8.522 -9.842,8.5c-7.513,-0.023 -10.509,-4.614 -10.486,-12.334c0.039,-12.83 7.836,-13.265 11.238,-13.254c2.975,0.009 7.613,1.256 8.271,6.368l-3.544,-0.011l-0.001,0.002Zm-5.578,5.271c-4.324,-0.013 -6.246,2.484 -6.255,5.478c-0.009,2.998 1.898,5.507 6.221,5.52c4.287,0.013 6.206,-2.484 6.215,-5.481c0.009,-2.996 -1.895,-5.503 -6.181,-5.516l0,-0.001Zm20.259,-8.469l-9.567,-0.029l0.01,-3.243l22.889,0.069l-0.01,3.244l-9.569,-0.029l-0.067,21.924l-3.754,-0.011l0.066,-21.925l0.002,0Zm36.509,10.193l-17.218,-0.052l-0.036,11.842l-3.757,-0.011l0.077,-25.168l3.756,0.012l-0.03,10.08l17.218,0.052l0.031,-10.08l3.756,0.011l-0.076,25.168l-3.757,-0.012l0.036,-11.842Zm19.527,-4.278c0.016,-5.182 3.005,-8.838 9.771,-8.818c6.376,0.019 9.273,3.411 9.259,7.889c-0.026,8.6 -12.071,8.211 -14.959,13.877l14.917,0.045l-0.01,3.243l-19.486,-0.059c0.744,-11.453 15.763,-9.997 15.785,-17.152c0.01,-3.56 -2.43,-4.872 -5.301,-4.88c-4.429,-0.014 -6.314,2.413 -6.43,5.866l-3.545,-0.011l-0.001,0Zm32.424,-8.749c7.797,0.023 10.224,5.811 10.202,12.825c-0.021,7.014 -2.484,12.789 -10.28,12.765c-7.794,-0.023 -10.221,-5.811 -10.199,-12.825c0.021,-7.014 2.483,-12.789 10.278,-12.765l-0.001,0Zm-0.009,2.96c-6.06,-0.019 -6.506,6.89 -6.515,9.814c-0.009,2.925 0.395,9.836 6.455,9.854c6.06,0.019 6.506,-6.888 6.515,-9.814c0.009,-2.927 -0.395,-9.836 -6.455,-9.854Zm23.408,-2.889c7.794,0.023 10.221,5.811 10.199,12.825c-0.021,7.014 -2.483,12.789 -10.277,12.765c-7.796,-0.023 -10.224,-5.811 -10.202,-12.825c0.021,-7.014 2.483,-12.789 10.28,-12.765Zm-0.009,2.96c-6.06,-0.019 -6.506,6.89 -6.515,9.814c-0.009,2.925 0.395,9.836 6.455,9.854c6.06,0.019 6.506,-6.888 6.515,-9.814c0.009,-2.927 -0.395,-9.836 -6.455,-9.854Zm17.898,8.762l0,-0.071c-2.903,-1.066 -3.961,-2.761 -3.953,-5.158c0.012,-4.123 3.384,-6.441 9.09,-6.424c5.669,0.018 9.03,2.355 9.018,6.479c-0.007,2.327 -1.324,4.191 -3.95,5.134l0,0.071c2.94,0.501 5.023,2.73 5.013,6.113c-0.01,3.101 -1.867,7.819 -10.192,7.794c-8.328,-0.025 -10.155,-4.754 -10.146,-7.856c0.013,-4.088 3.7,-5.805 5.12,-6.082Zm5.062,1.601c-4.641,-0.014 -6.42,2.167 -6.428,4.669c-0.007,2.503 1.759,4.694 6.4,4.708c4.641,0.014 6.418,-2.166 6.426,-4.669c0.007,-2.502 -1.756,-4.694 -6.398,-4.708Zm0.066,-10.292c-3.685,-0.012 -5.32,1.852 -5.325,3.65c-0.006,1.833 1.618,3.671 5.304,3.682c3.686,0.011 5.284,-1.816 5.29,-3.65c0.005,-1.798 -1.581,-3.671 -5.268,-3.682l-0.001,0Z" style="fill-rule:nonzero;"/><path id="text" d="M203.534,587.424c-0.326,-2.047 -1.94,-3.785 -5.053,-3.795c-3.509,-0.01 -5.735,1.986 -5.747,6.011c-0.008,2.789 1.499,5.663 5.588,5.676c2.593,0.008 4.569,-1.225 5.201,-4.095l2.2,0.007c-0.362,3.261 -3.193,5.999 -7.427,5.986c-3.735,-0.012 -7.777,-2.067 -7.76,-7.808c0.013,-4.294 2.722,-7.694 7.787,-7.678c2.967,0.009 7.054,1.28 7.414,5.701l-2.202,-0.007l-0.001,0.002Zm4.489,-5.293l7.515,0.023c4.441,0.013 6.466,2.911 6.453,7.185c-0.012,4.108 -1.828,7.571 -6.374,7.557l-7.638,-0.023l0.044,-14.741l0,-0.001Zm7.496,12.866c3.611,0.011 4.264,-3.002 4.272,-5.624c0.008,-2.602 -0.834,-5.309 -4.653,-5.321l-4.919,-0.014l-0.033,10.943l5.335,0.016l-0.002,0Zm15.797,-12.795l9.174,0.027c2.968,0.009 4.041,2.058 4.035,3.936c-0.005,1.796 -0.881,3.115 -2.502,3.626l0,0.041c1.307,0.191 2.072,1.411 2.15,3.144c0.116,2.748 0.197,3.428 0.693,4.008l-2.325,-0.007c-0.351,-0.414 -0.35,-1.034 -0.448,-2.809c-0.137,-2.644 -1.028,-3.451 -2.853,-3.456l-5.751,-0.018l-0.019,6.257l-2.199,-0.007l0.044,-14.742l0.001,0Zm8.324,6.612c2.158,0.006 2.681,-1.293 2.684,-2.326c0.004,-1.404 -0.843,-2.357 -2.609,-2.362l-6.206,-0.019l-0.014,4.688l6.145,0.019Zm7.362,-6.565l11.912,0.036l-0.006,1.9l-9.713,-0.029l-0.012,4.275l9.423,0.028l-0.005,1.901l-9.424,-0.028l-0.015,4.769l9.922,0.03l-0.005,1.9l-12.122,-0.037l0.045,-14.744l0,-0.001Zm14.36,0.044l2.2,0.006l-0.039,12.844l9.009,0.027l-0.006,1.9l-11.208,-0.034l0.044,-14.743Zm12.699,0.038l11.912,0.036l-0.006,1.9l-9.712,-0.029l-0.013,4.275l9.424,0.028l-0.006,1.901l-9.424,-0.028l-0.014,4.769l9.922,0.03l-0.006,1.9l-12.121,-0.036l0.044,-14.745l0,-0.001Zm24.628,10.523l-7.264,-0.022l-1.901,4.289l-2.368,-0.008l6.747,-14.721l2.513,0.008l6.658,14.762l-2.511,-0.008l-1.875,-4.3l0.001,0Zm-3.627,-8.436l-2.8,6.515l5.625,0.017l-2.825,-6.533l0,0.001Zm10.236,7.899c0.034,2.643 2.523,3.332 4.765,3.339c2.342,0.007 4.006,-0.876 4.011,-2.486c0.004,-1.344 -1.052,-1.904 -2.752,-2.199l-3.361,-0.567c-1.764,-0.295 -4.396,-1.005 -4.387,-3.875c0.008,-2.684 2.149,-4.475 5.949,-4.463c2.967,0.009 6.098,1.092 6.294,4.644l-2.2,-0.007c-0.184,-1.157 -0.842,-2.726 -4.391,-2.737c-1.621,-0.005 -3.448,0.67 -3.453,2.405c-0.003,0.908 0.596,1.632 2.422,1.948l3.631,0.631c1.163,0.21 4.462,0.777 4.453,3.792c-0.012,3.757 -3.399,4.821 -6.387,4.812c-3.342,-0.01 -6.805,-1.176 -6.793,-5.243l2.199,0.007l0,-0.001Zm13.019,-9.852l11.912,0.036l-0.006,1.9l-9.713,-0.029l-0.013,4.275l9.425,0.028l-0.006,1.901l-9.423,-0.028l-0.015,4.769l9.923,0.03l-0.006,1.9l-12.121,-0.036l0.044,-14.745l-0.001,-0.001Zm23.069,11.427c0.224,1.321 1.467,1.986 2.881,1.99c2.385,0.007 4.132,-0.957 4.395,-5.231l-0.042,0c-0.564,0.948 -2.144,1.893 -4.24,1.887c-2.511,-0.008 -5.559,-1.173 -5.548,-4.931c0.007,-2.168 1.593,-4.991 5.764,-4.978c4.399,0.013 6.156,2.701 6.143,7.224c-0.023,7.516 -4.591,7.77 -6.583,7.764c-1.743,-0.006 -4.459,-0.737 -4.845,-3.732l2.076,0.006l-0.001,0.001Zm3.288,-9.529c-2.511,-0.008 -3.637,1.454 -3.642,3.208c-0.005,1.756 1.111,3.224 3.622,3.232c2.533,0.008 3.657,-1.454 3.663,-3.211c0.005,-1.754 -1.112,-3.224 -3.644,-3.231l0.001,0.002Zm8.633,-1.792l7.639,0.024c3.258,0.009 4.956,1.502 4.947,4.248c-0.008,2.767 -1.716,4.599 -4.828,4.59l-5.583,-0.017l-0.018,5.905l-2.202,-0.007l0.045,-14.744l0,0.001Zm7.472,6.96c2.18,0.007 2.91,-1.167 2.915,-2.654c0.004,-1.404 -0.823,-2.378 -2.506,-2.383l-5.686,-0.017l-0.015,5.038l5.292,0.016Zm21.775,-6.871l3.052,0.009l-0.045,14.742l-2.2,-0.007l0.037,-12.224l-0.043,0l-5.807,12.206l-1.951,-0.005l-5.712,-11.993l-0.042,0l-0.036,11.976l-2.2,-0.007l0.045,-14.741l3.092,0.009l5.838,12.242l5.973,-12.206l-0.001,-0.001Zm22.743,3.434l1.495,0.005l-1.595,5.63c-0.083,0.331 -0.229,0.723 -0.23,1.012c-0.001,0.289 0.144,0.475 0.476,0.476c1.412,0.004 2.932,-2.015 2.939,-4.224c0.01,-3.366 -2.641,-5.397 -5.856,-5.407c-3.819,-0.012 -6.424,2.911 -6.435,6.547c-0.012,3.696 2.803,6.45 6.584,6.461c1.866,0.006 3.675,-0.897 4.841,-2.257l1.515,0.005c-1.376,2.205 -3.787,3.499 -6.444,3.491c-4.505,-0.014 -8.002,-3.411 -7.989,-7.789c0.013,-4.337 3.573,-7.712 7.932,-7.699c3.881,0.012 7.236,2.604 7.225,6.383c-0.012,3.904 -3.338,5.957 -5.145,5.952c-0.664,-0.002 -1.224,-0.398 -1.262,-1.224l-0.042,0c-0.582,0.64 -1.477,1.215 -2.411,1.212c-1.763,-0.005 -3.067,-1.537 -3.061,-3.375c0.008,-2.724 1.865,-5.548 4.666,-5.54c1.018,0.004 1.869,0.46 2.404,1.556l0.397,-1.215l-0.004,0Zm-2.722,1.149c-1.744,-0.006 -2.996,2.221 -3.001,3.872c-0.003,1.218 0.722,2.067 1.739,2.071c1.703,0.005 2.955,-2.325 2.96,-3.935c0.003,-1.075 -0.763,-2.006 -1.698,-2.008Z" style="fill-rule:nonzero;"/></g></svg>