<svg clip-rule="evenodd" fill-rule="evenodd" stroke-linejoin="round" stroke-miterlimit="1.41421" viewBox="0 0 250 300" xmlns="http://www.w3.org/2000/svg"><g fill-rule="nonzero"><g fill="#84b3cf"><path d="m60.554 154.259c-.322.039-.565.12-.933.363-.445.408-1.176 1.828-2.435 4.346-1.138 2.272-5.644 12.097-7.675 17.09-.201.488-.403.893-.729 1.421-.324.569-.65 1.341-1.054 1.991-.081.161-.244.283-.57.283-.609 0-.976-.122-1.058-.365-.159-.202-.483-.893-1.542-3.573-3.651-9.175-6.575-15.467-7.794-18.066-1.5-3.29-1.701-3.49-3.977-3.857l.447-1.054c.08-.246.205-.246.364-.246 1.705.166 4.345.204 5.28.204 1.298 0 2.638-.081 3.979-.081.163 0 .283.081.203.771-.083.529-.125.651-.367.689-1.624.204-1.829.447-1.503 1.586.284.933.773 2.19 2.641 6.615 1.704 4.101 3.286 7.675 4.588 10.476.121.244.405.161.566-.083.853-1.624 2.763-6.008 4.953-11.244.934-2.235 1.666-4.222 2.558-6.739.163-.366-.324-.528-1.218-.569l-1.582-.081c-.163 0-.286-.163-.203-.285.364-1.013.407-1.177.771-1.177.934 0 2.884.122 3.977.122.936 0 2.156-.122 3.047-.122.69 0 .733.486.771 1.218 0 .203-.038.325-.326.282z"/><path d="m63.766 155.924c.3 0 .334.1.499.534.999 3.029 1.701 4.828 2.865 7.923 1.099 2.999 3.496 8.659 3.996 9.789.832 1.733 1.297 2.533 3.229 2.932.035-.067-.166.998-.401 1.066-3.229-.035-3.86-.068-4.96-.068-1.065 0-2.365.1-2.698.1-.13 0-.198-.032-.23-.1-.069-.198-.334-.865-.269-.931 1.467-.402 1.666-.6 1.567-1.466-.067-.764-1.233-3.762-1.498-4.327-.199-.5-.468-.735-.667-.735-1.565 0-4.928 0-6.594.101-.531.031-.696.266-.93.831-.334.835-1.198 2.965-1.198 3.928 0 .834.429 1.134 1.998 1.5.198.133-.1.999-.267 1.065-1.931-.031-3.831-.031-4.531-.031-.564 0-1.098.031-1.229 0-.169 0-.199-.035-.234-.134-.099-.167-.299-.867-.168-.933 1.632-.433 2.032-1.632 2.797-3.229.8-1.699 4.729-10.789 6.528-15.117.299-.801.563-1.532.732-1.965.067-.199.167-.334.265-.401.333-.165.934-.333 1.367-.333h.031zm-4.195 13.12c.335 0 .934.033 2.063.033 1.233 0 1.9 0 2.765-.033.299 0 .5-.299.466-.433-1.231-3.595-1.929-5.493-2.631-7.291-.1-.2-.301-.2-.366-.033-1.268 2.83-1.697 3.93-3.03 7.359-.065.167.234.399.699.399h.034z"/><path d="m74.668 156.392c1.528.067 2.196.132 5.323.132.269 0 .47.034.602.134.133.098.266.299.3.498.099.534 1.53 2.232 2.065 2.731 1.764 1.832 5.825 5.961 12.253 11.854.067-1.165.099-2.829.099-5.294 0-3.43-.068-5.46-.199-6.826-.067-.598-.166-1.431-.802-1.631-.364-.1-1.562-.199-1.928-.265-.135-.069-.2-.1-.2-.301l-.067-.9h3.762c1.233 0 2.795-.132 3.63-.168.165 0 .366.036.398.136l.2.832c-1.164.332-1.563.433-2.031.698-.697.433-.929 1.5-1.133 5.694-.099 3.197-.13 5.361-.13 8.759 0 2.796.098 4.727.098 5.194 0 .465-.199.666-1.001 1.099-.165.067-.332.067-.499-.232-1.83-2.699-4.361-5.462-7.891-8.992-3.493-3.496-5.925-5.926-7.925-7.857-.065 1.397-.132 3.496-.166 5.394 0 2.097-.034 7.224.334 8.59.267.866 1.797 1.165 2.696 1.332l.234.9c.035.066-.168.266-.268.266-1.23 0-2.864-.132-4.229-.132-1.134 0-2.232.064-2.73.097-.1-.365-.232-.731-.366-1.098 2.132-.466 2.232-.767 2.396-1.898.102-.766.368-3.797.368-7.426v-3.695c0-4.162-.166-4.795-.567-5.294-.598-.701-1.129-.933-2.295-1.134-.232-.099-.332-.133-.332-.366v-.831z"/><path d="m109.458 166.514c1.463 0 2.397-.033 3.125-.067 1.834-.133 2.1-.432 2.7-2.265.1-.165.865-.233 1.233-.165-.1.865-.266 2.563-.266 3.695.033 1.233.097 1.932.197 3.031-.164.067-.463.1-.764.1-.234.034-.365-.033-.464-.201-.1-.298-.334-1.031-.469-1.396-.234-.8-.765-1.167-1.963-1.234-.802-.066-1.665-.066-3.164-.066-1.199 0-1.532.032-1.732.066-.166.034-.299.1-.364.3-.102.2-.236 1.732-.236 4.395 0 2.165 0 2.831.267 3.231.467.666 2.132.766 3.898.766 3.394 0 5.392-.532 6.558-4.197.132-.068.734-.032.93 0 .103.034.103.034.103.267-.069 1.83-.633 4.196-1.101 5.094-.099.199-.199.266-.364.266-.236 0-.5 0-1.569-.033-.93-.033-3.195-.064-6.057-.064-3.164 0-6.128.132-8.625.197-.133-.065-.133-.698-.067-.93 0-.169.067-.2.136-.234 1.597-.332 1.862-.466 1.896-1.066.035-.466.234-2.729.234-5.862v-7.024c0-3.331-.168-4.363-.234-4.562-.034-.265-.065-.5-.4-.566-.333-.1-.867-.233-1.897-.466-.069-.033-.1-.033-.069-.167l.102-.733c0-.133 0-.198.166-.198h1.1c1.033 0 2.531.098 4.895.098h2.863c2.596 0 4.659-.2 6.625-.2.433 0 .635.032.799.168.135.166.267.298.17.865-.368 1.766-.368 3.362-.368 4.362-1.032.034-1.099-.065-1.168-.3-.796-2.597-1.295-3.562-3.261-3.562h-1.663c-1.966 0-2.934.066-3.298.099-.566.066-.601.633-.601 1.133 0 2.364 0 4.561.035 6.793 0 .4.165.633.366.633h1.766z"/><path d="m120.971 178.8c-.134 0-.234-.033-.403-.166-.099-.099-.199-.433-.231-1.231-.068-1.733-.267-3.331-.534-5.195-.065-.234-.034-.267.135-.3.201-.034.498-.101.665-.101.2 0 .334.067.433.367.165.5.4 1.198.965 1.996 1.198 1.665 3.498 3.132 5.462 3.132 2.529 0 4.429-1.7 4.429-4.229 0-1.067-.601-2.163-1.599-2.798-.598-.399-1.398-.898-3.464-1.764-2.297-.967-3.896-1.798-5.062-3.197-.665-.766-1.231-2.064-1.231-3.596 0-2.298 1.3-3.796 2.863-4.663.8-.465 2.765-1.063 5.062-1.063.932 0 2.397.132 2.999.199.365.065.664.065 1.031.098.299.034.567-.165.799-.632.399 0 .932 0 1.032.034-.1 1.764-.035 3.43.299 5.36.067.268 0 .366-.1.467-.264.168-.498.333-.797.466-.068.033-.202-.033-.267-.232-.498-1.432-.901-2.432-1.931-3.23-.8-.666-2.366-1.232-3.799-1.232-1.962 0-3.428 1.597-3.428 3.362 0 1.001.333 1.799.931 2.399.77.765 1.568 1.33 3.596 2.131 2.302.93 3.998 1.765 5.028 2.763 1.367 1.3 1.866 2.497 1.866 4.263 0 2.43-1.331 4.228-3.065 5.16-1.664.899-4.559 1.265-5.726 1.265-1.365 0-2.897-.199-4.129-.501-.265-.066-.434-.066-.599 0-.2.1-.399.267-.601.468-.232.166-.398.199-.597.199h-.032z"/><path d="m137.725 178.8c-.135 0-.234-.033-.399-.166-.099-.099-.202-.433-.236-1.231-.065-1.733-.265-3.331-.53-5.195-.069-.234-.034-.267.131-.3.201-.034.498-.101.668-.101.201 0 .331.067.431.367.168.5.399 1.198.966 1.996 1.199 1.665 3.498 3.132 5.462 3.132 2.529 0 4.429-1.7 4.429-4.229 0-1.067-.6-2.163-1.597-2.798-.602-.399-1.402-.898-3.465-1.764-2.298-.967-3.895-1.798-5.062-3.197-.666-.766-1.232-2.064-1.232-3.596 0-2.298 1.299-3.796 2.865-4.663.798-.465 2.765-1.063 5.06-1.063.93 0 2.399.132 2.997.199.364.065.665.065 1.031.098.302.034.566-.165.8-.632.399 0 .934 0 1.034.034-.1 1.764-.035 3.43.299 5.36.066.268 0 .366-.1.467-.268.168-.502.333-.801.466-.065.033-.2-.033-.265-.232-.501-1.432-.899-2.432-1.928-3.23-.804-.666-2.367-1.232-3.799-1.232-1.966 0-3.431 1.597-3.431 3.362 0 1.001.334 1.799.934 2.399.765.765 1.563 1.33 3.595 2.131 2.298.93 3.994 1.765 5.028 2.763 1.365 1.3 1.866 2.497 1.866 4.263 0 2.43-1.333 4.228-3.065 5.16-1.664.899-4.561 1.265-5.726 1.265-1.366 0-2.897-.199-4.13-.501-.268-.066-.433-.066-.6 0-.199.1-.399.267-.598.468-.234.166-.399.199-.601.199h-.031z"/><path d="m163.412 155.924c.299 0 .334.1.499.534.999 3.029 1.699 4.828 2.865 7.923 1.098 2.999 3.495 8.659 3.994 9.789.83 1.733 1.298 2.533 3.231 2.932.03-.067-.169.998-.401 1.066-3.229-.035-3.864-.068-4.961-.068-1.066 0-2.366.1-2.696.1-.136 0-.201-.032-.236-.1-.065-.198-.334-.865-.264-.931 1.462-.402 1.663-.6 1.562-1.466-.065-.764-1.231-3.762-1.498-4.327-.199-.5-.466-.735-.665-.735-1.564 0-4.926 0-6.593.101-.532.031-.697.266-.933.831-.332.835-1.198 2.965-1.198 3.928 0 .834.435 1.134 1.998 1.5.199.133-.1.999-.267 1.065-1.93-.031-3.827-.031-4.527-.031-.566 0-1.099.031-1.233 0-.166 0-.199-.035-.23-.134-.104-.167-.303-.867-.169-.933 1.632-.433 2.03-1.632 2.795-3.229.8-1.699 4.731-10.789 6.528-15.117.301-.801.566-1.532.733-1.965.067-.199.169-.334.266-.401.332-.165.934-.333 1.365-.333h.035zm-4.196 13.12c.333 0 .931.033 2.064.033 1.233 0 1.898 0 2.761-.033.302 0 .503-.299.469-.433-1.232-3.595-1.932-5.493-2.632-7.291-.1-.2-.3-.2-.365-.033-1.265 2.83-1.697 3.93-3.029 7.359-.069.167.23.399.697.399h.035z"/></g><path d="m183.702 151.776c2.225 0 4.619 1.067 6.246 3.42 1.325 2.01 2.307 5.39 2.307 10.177 0 7.703-2.136 10.478-3.547 11.804-1.627 1.498-4.023 2.525-6.457 2.525-2.484 0-4.921-1.113-6.502-3.463-1.157-1.669-2.481-5.092-2.481-9.967 0-5.431 1.281-8.896 2.992-11.077 1.07-1.368 2.824-2.564 4.704-3.08.813-.17 1.498-.34 2.695-.34h.043zm-1.154 1.752c-.813 0-1.498.341-2.137.939-.771.772-2.097 3.678-2.097 9.881 0 7.357 1.198 10.519 2.311 11.932.853 1.155 1.752 1.582 2.694 1.582.811 0 1.539-.34 2.009-.811.9-.854 1.968-4.147 1.968-10.18 0-5.474-.47-9.92-2.18-12.191-.472-.641-1.283-1.152-2.523-1.152z" fill="#569bbe"/><path d="m205.654 144.99c6.291 0 10.187 3.832 10.129 8.985 0 1.947-1.145 3.377-2.178 4.293-1.256 1.317-2.744 2.459-4.06 3.603 5.036 2.751 7.668 5.211 7.668 9.961 0 3.719-2.29 6.582-4.293 7.952-2.231 1.547-5.549 2.806-8.413 2.806-3.088 0-6.407-.8-8.522-2.634-2.464-2.002-3.382-4.635-3.382-7.039 0-1.601.69-2.919 1.547-3.947.685-.859 3.49-2.92 5.723-4.693-3.664-2.346-5.781-4.98-5.781-8.643 0-2.575.743-4.748 2.29-6.35 1.258-1.319 2.919-2.405 4.75-3.264 1.607-.745 3.089-1.03 4.464-1.03zm.285 35.026c3.26 0 5.666-1.719 5.666-5.61 0-1.775-.689-3.49-2.061-4.864-1.945-1.946-4.405-3.148-5.781-3.663-.856-.227-1.716-.402-2.404 0-1.429.745-2.974 3.091-2.974 5.893 0 5.382 4.353 8.243 7.497 8.243h.057zm-1.433-32.623c-1.487 0-2.631.573-3.49 1.374-1.086.915-1.601 2.461-1.601 4.122 0 3.719 2.747 5.664 5.666 6.982.973.399 2.174.856 2.632.686 1.486-.63 2.861-2.805 2.861-5.552 0-2.234-.401-4.062-1.888-5.721-.973-1.089-2.174-1.891-4.119-1.891z" fill="#569bbe"/><path d="m38.051 148.832c-2.968-.196-13.488-23.499 13.39-30.306 31.314-7.93 62.784 28.982 113.051 29.479 22.344.221 26.005-3.284 28.386-4.275-1.144 1.159-12.25 13.202-56.815 7.885-36.571-4.363-52.182-16.193-76.74-17.163-11.591-.458-20.725 4.885-21.272 14.38z" fill="#bf2026"/><path d="m37.06 146.373c-4.003-7.883-.815-25.928 24.576-25.149 24.537.754 48.242 22.066 84.067 27.605 19.138 2.96 31.956 1.993 42.863-.555-12.787 5.777-52.513 6.875-91.833-8.325-21.723-8.397-33.926-10.579-41.911-9.808-8.209.792-18.146 6.174-17.762 16.232z" fill="#fff"/></g></svg>