<?xml version="1.0" encoding="UTF-8" standalone="no"?><!DOCTYPE svg PUBLIC "-//W3C//DTD SVG 1.1//EN" "http://www.w3.org/Graphics/SVG/1.1/DTD/svg11.dtd"><svg width="100%" height="100%" viewBox="0 0 250 300" version="1.1" xmlns="http://www.w3.org/2000/svg" xmlns:xlink="http://www.w3.org/1999/xlink" xml:space="preserve" xmlns:serif="http://www.serif.com/" style="fill-rule:evenodd;clip-rule:evenodd;stroke-linejoin:round;stroke-miterlimit:1.41421;"><g id="vanessa08"><path d="M60.554,154.259c-0.322,0.039 -0.565,0.12 -0.933,0.363c-0.445,0.408 -1.176,1.828 -2.435,4.346c-1.138,2.272 -5.644,12.097 -7.675,17.09c-0.201,0.488 -0.403,0.893 -0.729,1.421c-0.324,0.569 -0.65,1.341 -1.054,1.991c-0.081,0.161 -0.244,0.283 -0.57,0.283c-0.609,0 -0.976,-0.122 -1.058,-0.365c-0.159,-0.202 -0.483,-0.893 -1.542,-3.573c-3.651,-9.175 -6.575,-15.467 -7.794,-18.066c-1.5,-3.29 -1.701,-3.49 -3.977,-3.857l0.447,-1.054c0.08,-0.246 0.205,-0.246 0.364,-0.246c1.705,0.166 4.345,0.204 5.28,0.204c1.298,0 2.638,-0.081 3.979,-0.081c0.163,0 0.283,0.081 0.203,0.771c-0.083,0.529 -0.125,0.651 -0.367,0.689c-1.624,0.204 -1.829,0.447 -1.503,1.586c0.284,0.933 0.773,2.19 2.641,6.615c1.704,4.101 3.286,7.675 4.588,10.476c0.121,0.244 0.405,0.161 0.566,-0.083c0.853,-1.624 2.763,-6.008 4.953,-11.244c0.934,-2.235 1.666,-4.222 2.558,-6.739c0.163,-0.366 -0.324,-0.528 -1.218,-0.569l-1.582,-0.081c-0.163,0 -0.286,-0.163 -0.203,-0.285c0.364,-1.013 0.407,-1.177 0.771,-1.177c0.934,0 2.884,0.122 3.977,0.122c0.936,0 2.156,-0.122 3.047,-0.122c0.69,0 0.733,0.486 0.771,1.218c0,0.203 -0.038,0.325 -0.326,0.282l-1.179,0.085Z" style="fill:#84b3cf;fill-rule:nonzero;"/><path d="M63.766,155.924c0.3,0 0.334,0.1 0.499,0.534c0.999,3.029 1.701,4.828 2.865,7.923c1.099,2.999 3.496,8.659 3.996,9.789c0.832,1.733 1.297,2.533 3.229,2.932c0.035,-0.067 -0.166,0.998 -0.401,1.066c-3.229,-0.035 -3.86,-0.068 -4.96,-0.068c-1.065,0 -2.365,0.1 -2.698,0.1c-0.13,0 -0.198,-0.032 -0.23,-0.1c-0.069,-0.198 -0.334,-0.865 -0.269,-0.931c1.467,-0.402 1.666,-0.6 1.567,-1.466c-0.067,-0.764 -1.233,-3.762 -1.498,-4.327c-0.199,-0.5 -0.468,-0.735 -0.667,-0.735c-1.565,0 -4.928,0 -6.594,0.101c-0.531,0.031 -0.696,0.266 -0.93,0.831c-0.334,0.835 -1.198,2.965 -1.198,3.928c0,0.834 0.429,1.134 1.998,1.5c0.198,0.133 -0.1,0.999 -0.267,1.065c-1.931,-0.031 -3.831,-0.031 -4.531,-0.031c-0.564,0 -1.098,0.031 -1.229,0c-0.169,0 -0.199,-0.035 -0.234,-0.134c-0.099,-0.167 -0.299,-0.867 -0.168,-0.933c1.632,-0.433 2.032,-1.632 2.797,-3.229c0.8,-1.699 4.729,-10.789 6.528,-15.117c0.299,-0.801 0.563,-1.532 0.732,-1.965c0.067,-0.199 0.167,-0.334 0.265,-0.401c0.333,-0.165 0.934,-0.333 1.367,-0.333l0.031,0l0,0.001Zm-4.195,13.12c0.335,0 0.934,0.033 2.063,0.033c1.233,0 1.9,0 2.765,-0.033c0.299,0 0.5,-0.299 0.466,-0.433c-1.231,-3.595 -1.929,-5.493 -2.631,-7.291c-0.1,-0.2 -0.301,-0.2 -0.366,-0.033c-1.268,2.83 -1.697,3.93 -3.03,7.359c-0.065,0.167 0.234,0.399 0.699,0.399l0.034,0l0,-0.001Z" style="fill:#84b3cf;fill-rule:nonzero;"/><path d="M74.668,156.392c1.528,0.067 2.196,0.132 5.323,0.132c0.269,0 0.47,0.034 0.602,0.134c0.133,0.098 0.266,0.299 0.3,0.498c0.099,0.534 1.53,2.232 2.065,2.731c1.764,1.832 5.825,5.961 12.253,11.854c0.067,-1.165 0.099,-2.829 0.099,-5.294c0,-3.43 -0.068,-5.46 -0.199,-6.826c-0.067,-0.598 -0.166,-1.431 -0.802,-1.631c-0.364,-0.1 -1.562,-0.199 -1.928,-0.265c-0.135,-0.069 -0.2,-0.1 -0.2,-0.301l-0.067,-0.9c1.265,0 2.529,0 3.762,0c1.233,0 2.795,-0.132 3.63,-0.168c0.165,0 0.366,0.036 0.398,0.136l0.2,0.832c-1.164,0.332 -1.563,0.433 -2.031,0.698c-0.697,0.433 -0.929,1.5 -1.133,5.694c-0.099,3.197 -0.13,5.361 -0.13,8.759c0,2.796 0.098,4.727 0.098,5.194c0,0.465 -0.199,0.666 -1.001,1.099c-0.165,0.067 -0.332,0.067 -0.499,-0.232c-1.83,-2.699 -4.361,-5.462 -7.891,-8.992c-3.493,-3.496 -5.925,-5.926 -7.925,-7.857c-0.065,1.397 -0.132,3.496 -0.166,5.394c0,2.097 -0.034,7.224 0.334,8.59c0.267,0.866 1.797,1.165 2.696,1.332l0.234,0.9c0.035,0.066 -0.168,0.266 -0.268,0.266c-1.23,0 -2.864,-0.132 -4.229,-0.132c-1.134,0 -2.232,0.064 -2.73,0.097c-0.1,-0.365 -0.232,-0.731 -0.366,-1.098c2.132,-0.466 2.232,-0.767 2.396,-1.898c0.102,-0.766 0.368,-3.797 0.368,-7.426l0,-3.695c0,-4.162 -0.166,-4.795 -0.567,-5.294c-0.598,-0.701 -1.129,-0.933 -2.295,-1.134c-0.232,-0.099 -0.332,-0.133 -0.332,-0.366l0,-0.831l0.001,0Z" style="fill:#84b3cf;fill-rule:nonzero;"/><path d="M109.458,166.514c1.463,0 2.397,-0.033 3.125,-0.067c1.834,-0.133 2.1,-0.432 2.7,-2.265c0.1,-0.165 0.865,-0.233 1.233,-0.165c-0.1,0.865 -0.266,2.563 -0.266,3.695c0.033,1.233 0.097,1.932 0.197,3.031c-0.164,0.067 -0.463,0.1 -0.764,0.1c-0.234,0.034 -0.365,-0.033 -0.464,-0.201c-0.1,-0.298 -0.334,-1.031 -0.469,-1.396c-0.234,-0.8 -0.765,-1.167 -1.963,-1.234c-0.802,-0.066 -1.665,-0.066 -3.164,-0.066c-1.199,0 -1.532,0.032 -1.732,0.066c-0.166,0.034 -0.299,0.1 -0.364,0.3c-0.102,0.2 -0.236,1.732 -0.236,4.395c0,2.165 0,2.831 0.267,3.231c0.467,0.666 2.132,0.766 3.898,0.766c3.394,0 5.392,-0.532 6.558,-4.197c0.132,-0.068 0.734,-0.032 0.93,0c0.103,0.034 0.103,0.034 0.103,0.267c-0.069,1.83 -0.633,4.196 -1.101,5.094c-0.099,0.199 -0.199,0.266 -0.364,0.266c-0.236,0 -0.5,0 -1.569,-0.033c-0.93,-0.033 -3.195,-0.064 -6.057,-0.064c-3.164,0 -6.128,0.132 -8.625,0.197c-0.133,-0.065 -0.133,-0.698 -0.067,-0.93c0,-0.169 0.067,-0.2 0.136,-0.234c1.597,-0.332 1.862,-0.466 1.896,-1.066c0.035,-0.466 0.234,-2.729 0.234,-5.862l0,-7.024c0,-3.331 -0.168,-4.363 -0.234,-4.562c-0.034,-0.265 -0.065,-0.5 -0.4,-0.566c-0.333,-0.1 -0.867,-0.233 -1.897,-0.466c-0.069,-0.033 -0.1,-0.033 -0.069,-0.167l0.102,-0.733c0,-0.133 0,-0.198 0.166,-0.198l1.1,0c1.033,0 2.531,0.098 4.895,0.098l2.863,0c2.596,0 4.659,-0.2 6.625,-0.2c0.433,0 0.635,0.032 0.799,0.168c0.135,0.166 0.267,0.298 0.17,0.865c-0.368,1.766 -0.368,3.362 -0.368,4.362c-1.032,0.034 -1.099,-0.065 -1.168,-0.3c-0.796,-2.597 -1.295,-3.562 -3.261,-3.562l-1.663,0c-1.966,0 -2.934,0.066 -3.298,0.099c-0.566,0.066 -0.601,0.633 -0.601,1.133c0,2.364 0,4.561 0.035,6.793c0,0.4 0.165,0.633 0.366,0.633l1.766,0l0,-0.001Z" style="fill:#84b3cf;fill-rule:nonzero;"/><path d="M120.971,178.8c-0.134,0 -0.234,-0.033 -0.403,-0.166c-0.099,-0.099 -0.199,-0.433 -0.231,-1.231c-0.068,-1.733 -0.267,-3.331 -0.534,-5.195c-0.065,-0.234 -0.034,-0.267 0.135,-0.3c0.201,-0.034 0.498,-0.101 0.665,-0.101c0.2,0 0.334,0.067 0.433,0.367c0.165,0.5 0.4,1.198 0.965,1.996c1.198,1.665 3.498,3.132 5.462,3.132c2.529,0 4.429,-1.7 4.429,-4.229c0,-1.067 -0.601,-2.163 -1.599,-2.798c-0.598,-0.399 -1.398,-0.898 -3.464,-1.764c-2.297,-0.967 -3.896,-1.798 -5.062,-3.197c-0.665,-0.766 -1.231,-2.064 -1.231,-3.596c0,-2.298 1.3,-3.796 2.863,-4.663c0.8,-0.465 2.765,-1.063 5.062,-1.063c0.932,0 2.397,0.132 2.999,0.199c0.365,0.065 0.664,0.065 1.031,0.098c0.299,0.034 0.567,-0.165 0.799,-0.632c0.399,0 0.932,0 1.032,0.034c-0.1,1.764 -0.035,3.43 0.299,5.36c0.067,0.268 0,0.366 -0.1,0.467c-0.264,0.168 -0.498,0.333 -0.797,0.466c-0.068,0.033 -0.202,-0.033 -0.267,-0.232c-0.498,-1.432 -0.901,-2.432 -1.931,-3.23c-0.8,-0.666 -2.366,-1.232 -3.799,-1.232c-1.962,0 -3.428,1.597 -3.428,3.362c0,1.001 0.333,1.799 0.931,2.399c0.77,0.765 1.568,1.33 3.596,2.131c2.302,0.93 3.998,1.765 5.028,2.763c1.367,1.3 1.866,2.497 1.866,4.263c0,2.43 -1.331,4.228 -3.065,5.16c-1.664,0.899 -4.559,1.265 -5.726,1.265c-1.365,0 -2.897,-0.199 -4.129,-0.501c-0.265,-0.066 -0.434,-0.066 -0.599,0c-0.2,0.1 -0.399,0.267 -0.601,0.468c-0.232,0.166 -0.398,0.199 -0.597,0.199l-0.032,0l0,0.001Z" style="fill:#84b3cf;fill-rule:nonzero;"/><path d="M137.725,178.8c-0.135,0 -0.234,-0.033 -0.399,-0.166c-0.099,-0.099 -0.202,-0.433 -0.236,-1.231c-0.065,-1.733 -0.265,-3.331 -0.53,-5.195c-0.069,-0.234 -0.034,-0.267 0.131,-0.3c0.201,-0.034 0.498,-0.101 0.668,-0.101c0.201,0 0.331,0.067 0.431,0.367c0.168,0.5 0.399,1.198 0.966,1.996c1.199,1.665 3.498,3.132 5.462,3.132c2.529,0 4.429,-1.7 4.429,-4.229c0,-1.067 -0.6,-2.163 -1.597,-2.798c-0.602,-0.399 -1.402,-0.898 -3.465,-1.764c-2.298,-0.967 -3.895,-1.798 -5.062,-3.197c-0.666,-0.766 -1.232,-2.064 -1.232,-3.596c0,-2.298 1.299,-3.796 2.865,-4.663c0.798,-0.465 2.765,-1.063 5.06,-1.063c0.93,0 2.399,0.132 2.997,0.199c0.364,0.065 0.665,0.065 1.031,0.098c0.302,0.034 0.566,-0.165 0.8,-0.632c0.399,0 0.934,0 1.034,0.034c-0.1,1.764 -0.035,3.43 0.299,5.36c0.066,0.268 0,0.366 -0.1,0.467c-0.268,0.168 -0.502,0.333 -0.801,0.466c-0.065,0.033 -0.2,-0.033 -0.265,-0.232c-0.501,-1.432 -0.899,-2.432 -1.928,-3.23c-0.804,-0.666 -2.367,-1.232 -3.799,-1.232c-1.966,0 -3.431,1.597 -3.431,3.362c0,1.001 0.334,1.799 0.934,2.399c0.765,0.765 1.563,1.33 3.595,2.131c2.298,0.93 3.994,1.765 5.028,2.763c1.365,1.3 1.866,2.497 1.866,4.263c0,2.43 -1.333,4.228 -3.065,5.16c-1.664,0.899 -4.561,1.265 -5.726,1.265c-1.366,0 -2.897,-0.199 -4.13,-0.501c-0.268,-0.066 -0.433,-0.066 -0.6,0c-0.199,0.1 -0.399,0.267 -0.598,0.468c-0.234,0.166 -0.399,0.199 -0.601,0.199l-0.031,0l0,0.001Z" style="fill:#84b3cf;fill-rule:nonzero;"/><path d="M163.412,155.924c0.299,0 0.334,0.1 0.499,0.534c0.999,3.029 1.699,4.828 2.865,7.923c1.098,2.999 3.495,8.659 3.994,9.789c0.83,1.733 1.298,2.533 3.231,2.932c0.03,-0.067 -0.169,0.998 -0.401,1.066c-3.229,-0.035 -3.864,-0.068 -4.961,-0.068c-1.066,0 -2.366,0.1 -2.696,0.1c-0.136,0 -0.201,-0.032 -0.236,-0.1c-0.065,-0.198 -0.334,-0.865 -0.264,-0.931c1.462,-0.402 1.663,-0.6 1.562,-1.466c-0.065,-0.764 -1.231,-3.762 -1.498,-4.327c-0.199,-0.5 -0.466,-0.735 -0.665,-0.735c-1.564,0 -4.926,0 -6.593,0.101c-0.532,0.031 -0.697,0.266 -0.933,0.831c-0.332,0.835 -1.198,2.965 -1.198,3.928c0,0.834 0.435,1.134 1.998,1.5c0.199,0.133 -0.1,0.999 -0.267,1.065c-1.93,-0.031 -3.827,-0.031 -4.527,-0.031c-0.566,0 -1.099,0.031 -1.233,0c-0.166,0 -0.199,-0.035 -0.23,-0.134c-0.104,-0.167 -0.303,-0.867 -0.169,-0.933c1.632,-0.433 2.03,-1.632 2.795,-3.229c0.8,-1.699 4.731,-10.789 6.528,-15.117c0.301,-0.801 0.566,-1.532 0.733,-1.965c0.067,-0.199 0.169,-0.334 0.266,-0.401c0.332,-0.165 0.934,-0.333 1.365,-0.333l0.035,0l0,0.001Zm-4.196,13.12c0.333,0 0.931,0.033 2.064,0.033c1.233,0 1.898,0 2.761,-0.033c0.302,0 0.503,-0.299 0.469,-0.433c-1.232,-3.595 -1.932,-5.493 -2.632,-7.291c-0.1,-0.2 -0.3,-0.2 -0.365,-0.033c-1.265,2.83 -1.697,3.93 -3.029,7.359c-0.069,0.167 0.23,0.399 0.697,0.399l0.035,0l0,-0.001Z" style="fill:#84b3cf;fill-rule:nonzero;"/><path d="M183.702,151.776c2.225,0 4.619,1.067 6.246,3.42c1.325,2.01 2.307,5.39 2.307,10.177c0,7.703 -2.136,10.478 -3.547,11.804c-1.627,1.498 -4.023,2.525 -6.457,2.525c-2.484,0 -4.921,-1.113 -6.502,-3.463c-1.157,-1.669 -2.481,-5.092 -2.481,-9.967c0,-5.431 1.281,-8.896 2.992,-11.077c1.07,-1.368 2.824,-2.564 4.704,-3.08c0.813,-0.17 1.498,-0.34 2.695,-0.34l0.043,0l0,0.001Zm-1.154,1.752c-0.813,0 -1.498,0.341 -2.137,0.939c-0.771,0.772 -2.097,3.678 -2.097,9.881c0,7.357 1.198,10.519 2.311,11.932c0.853,1.155 1.752,1.582 2.694,1.582c0.811,0 1.539,-0.34 2.009,-0.811c0.9,-0.854 1.968,-4.147 1.968,-10.18c0,-5.474 -0.47,-9.92 -2.18,-12.191c-0.472,-0.641 -1.283,-1.152 -2.523,-1.152l-0.045,0Z" style="fill:#569bbe;fill-rule:nonzero;"/><path d="M205.654,144.99c6.291,0 10.187,3.832 10.129,8.985c0,1.947 -1.145,3.377 -2.178,4.293c-1.256,1.317 -2.744,2.459 -4.06,3.603c5.036,2.751 7.668,5.211 7.668,9.961c0,3.719 -2.29,6.582 -4.293,7.952c-2.231,1.547 -5.549,2.806 -8.413,2.806c-3.088,0 -6.407,-0.8 -8.522,-2.634c-2.464,-2.002 -3.382,-4.635 -3.382,-7.039c0,-1.601 0.69,-2.919 1.547,-3.947c0.685,-0.859 3.49,-2.92 5.723,-4.693c-3.664,-2.346 -5.781,-4.98 -5.781,-8.643c0,-2.575 0.743,-4.748 2.29,-6.35c1.258,-1.319 2.919,-2.405 4.75,-3.264c1.607,-0.745 3.089,-1.03 4.464,-1.03l0.058,0l0,0Zm0.285,35.026c3.26,0 5.666,-1.719 5.666,-5.61c0,-1.775 -0.689,-3.49 -2.061,-4.864c-1.945,-1.946 -4.405,-3.148 -5.781,-3.663c-0.856,-0.227 -1.716,-0.402 -2.404,0c-1.429,0.745 -2.974,3.091 -2.974,5.893c0,5.382 4.353,8.243 7.497,8.243l0.057,0l0,0.001Zm-1.433,-32.623c-1.487,0 -2.631,0.573 -3.49,1.374c-1.086,0.915 -1.601,2.461 -1.601,4.122c0,3.719 2.747,5.664 5.666,6.982c0.973,0.399 2.174,0.856 2.632,0.686c1.486,-0.63 2.861,-2.805 2.861,-5.552c0,-2.234 -0.401,-4.062 -1.888,-5.721c-0.973,-1.089 -2.174,-1.891 -4.119,-1.891l-0.061,0Z" style="fill:#569bbe;fill-rule:nonzero;"/><path d="M38.051,148.832c-2.968,-0.196 -13.488,-23.499 13.39,-30.306c31.314,-7.93 62.784,28.982 113.051,29.479c22.344,0.221 26.005,-3.284 28.386,-4.275c-1.144,1.159 -12.25,13.202 -56.815,7.885c-36.571,-4.363 -52.182,-16.193 -76.74,-17.163c-11.591,-0.458 -20.725,4.885 -21.272,14.38Z" style="fill:#bf2026;fill-rule:nonzero;"/><path d="M37.06,146.373c-4.003,-7.883 -0.815,-25.928 24.576,-25.149c24.537,0.754 48.242,22.066 84.067,27.605c19.138,2.96 31.956,1.993 42.863,-0.555c-12.787,5.777 -52.513,6.875 -91.833,-8.325c-21.723,-8.397 -33.926,-10.579 -41.911,-9.808c-8.209,0.792 -18.146,6.174 -17.762,16.232Z" style="fill:#fff;fill-rule:nonzero;"/></g></svg>