<?xml version="1.0" encoding="utf-8"?>
<!-- Generator: Adobe Illustrator 15.1.0, SVG Export Plug-In . SVG Version: 6.00 Build 0)  -->
<!DOCTYPE svg PUBLIC "-//W3C//DTD SVG 1.1//EN" "http://www.w3.org/Graphics/SVG/1.1/DTD/svg11.dtd">
<svg version="1.1" id="Layer_1" xmlns="http://www.w3.org/2000/svg" xmlns:xlink="http://www.w3.org/1999/xlink" x="0px" y="0px"
	 width="792px" height="612px" viewBox="0 0 792 612" style="enable-background:new 0 0 792 612;" xml:space="preserve">
<g>
	<path style="fill:#84B3CF;" d="M275.388,320.027c-0.644,0.079-1.131,0.241-1.867,0.726c-0.89,0.817-2.351,3.657-4.87,8.693
		c-2.275,4.544-11.287,24.194-15.349,34.179c-0.403,0.977-0.806,1.787-1.458,2.843c-0.648,1.137-1.3,2.681-2.109,3.981
		c-0.161,0.322-0.487,0.566-1.139,0.566c-1.219,0-1.952-0.244-2.116-0.729c-0.319-0.405-0.967-1.787-3.084-7.146
		c-7.302-18.35-13.15-30.935-15.589-36.133c-3-6.579-3.402-6.98-7.954-7.713l0.894-2.108c0.161-0.493,0.41-0.493,0.729-0.493
		c3.409,0.333,8.69,0.409,10.559,0.409c2.596,0,5.276-0.162,7.958-0.162c0.326,0,0.567,0.162,0.406,1.541
		c-0.165,1.058-0.249,1.302-0.733,1.378c-3.248,0.409-3.658,0.894-3.006,3.172c0.567,1.867,1.545,4.381,5.281,13.231
		c3.409,8.202,6.573,15.349,9.177,20.951c0.241,0.488,0.81,0.323,1.131-0.165c1.707-3.248,5.526-12.017,9.906-22.488
		c1.868-4.47,3.333-8.445,5.116-13.478c0.326-0.732-0.648-1.056-2.435-1.138l-3.164-0.162c-0.326,0-0.572-0.326-0.406-0.57
		c0.728-2.026,0.813-2.354,1.541-2.354c1.868,0,5.769,0.243,7.955,0.243c1.871,0,4.311-0.243,6.094-0.243
		c1.38,0,1.465,0.972,1.542,2.436c0,0.406-0.077,0.65-0.652,0.564L275.388,320.027z"/>
	<path style="fill:#84B3CF;" d="M281.812,323.358c0.599,0,0.667,0.199,0.998,1.068c1.998,6.057,3.402,9.655,5.729,15.846
		c2.198,5.997,6.992,17.317,7.993,19.578c1.664,3.466,2.593,5.065,6.458,5.864c0.069-0.135-0.333,1.996-0.803,2.132
		c-6.457-0.07-7.719-0.136-9.92-0.136c-2.129,0-4.729,0.2-5.396,0.2c-0.26,0-0.395-0.064-0.46-0.2
		c-0.138-0.397-0.667-1.731-0.537-1.863c2.934-0.803,3.332-1.199,3.133-2.931c-0.134-1.529-2.465-7.525-2.995-8.654
		c-0.399-1-0.936-1.47-1.335-1.47c-3.129,0-9.856,0-13.188,0.202c-1.062,0.062-1.392,0.532-1.86,1.661
		c-0.667,1.67-2.396,5.93-2.396,7.857c0,1.667,0.859,2.267,3.996,3c0.396,0.265-0.199,1.998-0.533,2.13
		c-3.862-0.062-7.663-0.062-9.062-0.062c-1.128,0-2.197,0.062-2.458,0c-0.338,0-0.399-0.07-0.468-0.269
		c-0.199-0.334-0.599-1.733-0.337-1.865c3.264-0.866,4.064-3.265,5.595-6.459c1.6-3.398,9.458-21.577,13.055-30.234
		c0.598-1.602,1.127-3.064,1.465-3.93c0.134-0.398,0.333-0.668,0.529-0.802c0.667-0.33,1.868-0.665,2.734-0.665H281.812z
		 M273.421,349.598c0.671,0,1.868,0.065,4.126,0.065c2.466,0,3.801,0,5.53-0.065c0.598,0,1.001-0.598,0.932-0.866
		c-2.462-7.191-3.858-10.987-5.261-14.582c-0.2-0.401-0.603-0.401-0.733-0.067c-2.535,5.661-3.394,7.86-6.06,14.719
		c-0.13,0.333,0.468,0.797,1.399,0.797H273.421z"/>
	<path style="fill:#84B3CF;" d="M303.615,324.293c3.057,0.134,4.392,0.265,10.646,0.265c0.538,0,0.941,0.067,1.205,0.268
		c0.265,0.196,0.532,0.597,0.599,0.996c0.198,1.067,3.06,4.463,4.13,5.461c3.528,3.664,11.651,11.923,24.506,23.709
		c0.134-2.331,0.199-5.658,0.199-10.588c0-6.861-0.137-10.921-0.398-13.652c-0.134-1.196-0.333-2.863-1.604-3.263
		c-0.728-0.2-3.125-0.398-3.857-0.53c-0.269-0.137-0.4-0.199-0.4-0.602l-0.134-1.799c2.531,0,5.058,0,7.524,0
		c2.466,0,5.591-0.265,7.261-0.336c0.329,0,0.732,0.071,0.796,0.271l0.4,1.664c-2.328,0.665-3.126,0.867-4.062,1.396
		c-1.395,0.867-1.859,3.001-2.267,11.389c-0.198,6.394-0.26,10.722-0.26,17.517c0,5.593,0.196,9.454,0.196,10.389
		c0,0.93-0.398,1.332-2.002,2.197c-0.329,0.134-0.663,0.134-0.997-0.464c-3.66-5.398-8.722-10.923-15.782-17.983
		c-6.987-6.993-11.851-11.853-15.851-15.714c-0.13,2.794-0.264,6.992-0.331,10.787c0,4.194-0.069,14.448,0.667,17.181
		c0.534,1.731,3.594,2.33,5.393,2.663l0.468,1.8c0.069,0.133-0.337,0.533-0.537,0.533c-2.459,0-5.727-0.265-8.458-0.265
		c-2.267,0-4.464,0.129-5.46,0.194c-0.2-0.729-0.464-1.461-0.732-2.196c4.264-0.932,4.464-1.533,4.793-3.795
		c0.203-1.532,0.736-7.594,0.736-14.852v-7.39c0-8.325-0.333-9.591-1.134-10.589c-1.197-1.402-2.259-1.865-4.59-2.267
		c-0.464-0.198-0.665-0.266-0.665-0.733V324.293z"/>
	<path style="fill:#84B3CF;" d="M373.195,344.538c2.926,0,4.794-0.067,6.25-0.135c3.668-0.265,4.201-0.864,5.4-4.529
		c0.2-0.33,1.73-0.466,2.467-0.33c-0.2,1.729-0.533,5.126-0.533,7.39c0.066,2.465,0.195,3.863,0.395,6.062
		c-0.328,0.133-0.927,0.199-1.529,0.199c-0.468,0.068-0.729-0.066-0.928-0.401c-0.2-0.597-0.668-2.062-0.937-2.793
		c-0.468-1.6-1.53-2.333-3.927-2.467c-1.604-0.132-3.33-0.132-6.328-0.132c-2.397,0-3.064,0.064-3.463,0.132
		c-0.333,0.068-0.598,0.2-0.729,0.6c-0.203,0.4-0.472,3.463-0.472,8.79c0,4.33,0,5.662,0.534,6.461
		c0.935,1.332,4.264,1.532,7.796,1.532c6.789,0,10.784-1.064,13.117-8.393c0.264-0.136,1.468-0.065,1.859,0
		c0.207,0.067,0.207,0.067,0.207,0.534c-0.139,3.66-1.266,8.391-2.202,10.188c-0.198,0.398-0.398,0.531-0.728,0.531
		c-0.473,0-1.001,0-3.139-0.065c-1.859-0.067-6.389-0.129-12.113-0.129c-6.328,0-12.257,0.265-17.25,0.394
		c-0.266-0.129-0.266-1.396-0.135-1.86c0-0.337,0.135-0.4,0.272-0.468c3.195-0.664,3.725-0.932,3.793-2.131
		c0.069-0.932,0.468-5.459,0.468-11.724v-14.049c0-6.661-0.337-8.725-0.468-9.124c-0.069-0.529-0.13-1-0.801-1.132
		c-0.665-0.2-1.734-0.465-3.793-0.932c-0.138-0.066-0.2-0.066-0.138-0.333l0.203-1.467c0-0.265,0-0.396,0.333-0.396h2.199
		c2.066,0,5.062,0.197,9.79,0.197h5.727c5.191,0,9.318-0.4,13.249-0.4c0.867,0,1.271,0.064,1.599,0.335
		c0.27,0.333,0.534,0.597,0.339,1.731c-0.736,3.531-0.736,6.724-0.736,8.723c-2.063,0.068-2.198-0.13-2.336-0.6
		c-1.592-5.193-2.589-7.123-6.522-7.123h-3.325c-3.932,0-5.869,0.132-6.597,0.198c-1.132,0.131-1.201,1.266-1.201,2.265
		c0,4.728,0,9.122,0.069,13.586c0,0.8,0.33,1.266,0.732,1.266H373.195z"/>
	<path style="fill:#84B3CF;" d="M396.221,369.11c-0.268,0-0.467-0.066-0.805-0.332c-0.199-0.198-0.398-0.867-0.463-2.463
		c-0.136-3.465-0.534-6.662-1.067-10.389c-0.13-0.468-0.069-0.535,0.269-0.601c0.402-0.067,0.996-0.202,1.33-0.202
		c0.4,0,0.668,0.135,0.867,0.734c0.33,1,0.799,2.396,1.929,3.992c2.397,3.331,6.997,6.265,10.924,6.265
		c5.058,0,8.858-3.401,8.858-8.458c0-2.134-1.201-4.326-3.198-5.597c-1.196-0.798-2.796-1.796-6.927-3.527
		c-4.594-1.935-7.793-3.596-10.125-6.394c-1.33-1.532-2.461-4.129-2.461-7.193c0-4.595,2.6-7.591,5.725-9.325
		c1.601-0.93,5.531-2.127,10.125-2.127c1.864,0,4.793,0.265,5.998,0.398c0.729,0.131,1.328,0.131,2.061,0.197
		c0.598,0.067,1.134-0.331,1.599-1.264c0.798,0,1.863,0,2.063,0.067c-0.2,3.529-0.069,6.861,0.599,10.721
		c0.134,0.535,0,0.732-0.2,0.934c-0.529,0.335-0.997,0.666-1.595,0.932c-0.136,0.066-0.403-0.066-0.534-0.465
		c-0.996-2.864-1.802-4.863-3.862-6.459c-1.599-1.332-4.731-2.464-7.597-2.464c-3.924,0-6.857,3.194-6.857,6.723
		c0,2.002,0.667,3.599,1.863,4.798c1.539,1.531,3.135,2.66,7.192,4.263c4.603,1.86,7.995,3.53,10.055,5.526
		c2.734,2.599,3.732,4.993,3.732,8.525c0,4.861-2.662,8.457-6.13,10.32c-3.328,1.798-9.118,2.531-11.451,2.531
		c-2.73,0-5.794-0.399-8.258-1.002c-0.531-0.133-0.869-0.133-1.199,0c-0.399,0.199-0.798,0.534-1.201,0.935
		c-0.464,0.333-0.797,0.399-1.195,0.399H396.221z"/>
	<path style="fill:#84B3CF;" d="M429.729,369.11c-0.269,0-0.468-0.066-0.798-0.332c-0.198-0.198-0.403-0.867-0.472-2.463
		c-0.13-3.465-0.529-6.662-1.059-10.389c-0.138-0.468-0.069-0.535,0.262-0.601c0.402-0.067,0.996-0.202,1.335-0.202
		c0.402,0,0.662,0.135,0.862,0.734c0.337,1,0.798,2.396,1.933,3.992c2.397,3.331,6.995,6.265,10.923,6.265
		c5.059,0,8.858-3.401,8.858-8.458c0-2.134-1.199-4.326-3.194-5.597c-1.203-0.798-2.804-1.796-6.93-3.527
		c-4.595-1.935-7.789-3.596-10.124-6.394c-1.332-1.532-2.464-4.129-2.464-7.193c0-4.595,2.598-7.591,5.73-9.325
		c1.596-0.93,5.53-2.127,10.12-2.127c1.861,0,4.798,0.265,5.995,0.398c0.728,0.131,1.33,0.131,2.062,0.197
		c0.603,0.067,1.132-0.331,1.6-1.264c0.798,0,1.868,0,2.067,0.067c-0.199,3.529-0.069,6.861,0.599,10.721
		c0.131,0.535,0,0.732-0.2,0.934c-0.536,0.335-1.004,0.666-1.602,0.932c-0.131,0.066-0.4-0.066-0.531-0.465
		c-1.001-2.864-1.798-4.863-3.856-6.459c-1.608-1.332-4.733-2.464-7.598-2.464c-3.932,0-6.861,3.194-6.861,6.723
		c0,2.002,0.668,3.599,1.867,4.798c1.531,1.531,3.126,2.66,7.191,4.263c4.595,1.86,7.988,3.53,10.055,5.526
		c2.731,2.599,3.732,4.993,3.732,8.525c0,4.861-2.665,8.457-6.129,10.32c-3.328,1.798-9.123,2.531-11.452,2.531
		c-2.733,0-5.794-0.399-8.26-1.002c-0.537-0.133-0.867-0.133-1.201,0c-0.398,0.199-0.798,0.534-1.196,0.935
		c-0.468,0.333-0.798,0.399-1.201,0.399H429.729z"/>
	<path style="fill:#84B3CF;" d="M481.104,323.358c0.598,0,0.667,0.199,0.998,1.068c1.997,6.057,3.398,9.655,5.729,15.846
		c2.197,5.997,6.991,17.317,7.988,19.578c1.661,3.466,2.596,5.065,6.463,5.864c0.06-0.135-0.338,1.996-0.803,2.132
		c-6.458-0.07-7.727-0.136-9.921-0.136c-2.133,0-4.733,0.2-5.392,0.2c-0.273,0-0.403-0.064-0.472-0.2
		c-0.131-0.397-0.668-1.731-0.529-1.863c2.925-0.803,3.327-1.199,3.125-2.931c-0.131-1.529-2.462-7.525-2.996-8.654
		c-0.398-1-0.932-1.47-1.33-1.47c-3.129,0-9.852,0-13.186,0.202c-1.065,0.062-1.395,0.532-1.866,1.661
		c-0.665,1.67-2.397,5.93-2.397,7.857c0,1.667,0.87,2.267,3.996,3c0.398,0.265-0.2,1.998-0.533,2.13
		c-3.861-0.062-7.655-0.062-9.055-0.062c-1.132,0-2.197,0.062-2.466,0c-0.331,0-0.398-0.07-0.46-0.269
		c-0.208-0.334-0.605-1.733-0.338-1.865c3.264-0.866,4.061-3.265,5.591-6.459c1.599-3.398,9.461-21.577,13.055-30.234
		c0.603-1.602,1.132-3.064,1.466-3.93c0.134-0.398,0.338-0.668,0.533-0.802c0.663-0.33,1.867-0.665,2.729-0.665H481.104z
		 M472.712,349.598c0.665,0,1.861,0.065,4.128,0.065c2.466,0,3.796,0,5.521-0.065c0.605,0,1.006-0.598,0.939-0.866
		c-2.465-7.191-3.865-10.987-5.265-14.582c-0.2-0.401-0.599-0.401-0.729-0.067c-2.531,5.661-3.394,7.86-6.059,14.719
		c-0.138,0.333,0.46,0.797,1.395,0.797H472.712z"/>
	<path style="fill:#569BBE;" d="M521.684,315.061c4.449,0,9.238,2.134,12.492,6.84c2.649,4.02,4.613,10.781,4.613,20.355
		c0,15.405-4.271,20.956-7.094,23.608c-3.254,2.996-8.046,5.05-12.914,5.05c-4.968,0-9.842-2.226-13.003-6.926
		c-2.315-3.338-4.962-10.184-4.962-19.934c0-10.863,2.561-17.793,5.983-22.154c2.14-2.736,5.648-5.129,9.409-6.161
		c1.625-0.34,2.996-0.679,5.39-0.679H521.684z M519.376,318.566c-1.626,0-2.996,0.682-4.275,1.877
		c-1.541,1.545-4.193,7.357-4.193,19.763c0,14.714,2.396,21.038,4.622,23.864c1.705,2.309,3.504,3.164,5.387,3.164
		c1.623,0,3.079-0.681,4.018-1.622c1.8-1.709,3.937-8.294,3.937-20.36c0-10.949-0.94-19.84-4.36-24.383
		c-0.945-1.281-2.566-2.303-5.047-2.303H519.376z"/>
	<path style="fill:#569BBE;" d="M565.587,301.49c12.583,0,20.374,7.663,20.258,17.969c0,3.894-2.29,6.754-4.355,8.586
		c-2.513,2.635-5.488,4.918-8.121,7.207c10.072,5.502,15.337,10.422,15.337,19.922c0,7.438-4.58,13.163-8.587,15.904
		c-4.462,3.094-11.098,5.611-16.826,5.611c-6.175,0-12.813-1.599-17.044-5.267c-4.927-4.004-6.763-9.271-6.763-14.079
		c0-3.201,1.379-5.837,3.094-7.894c1.369-1.718,6.979-5.839,11.445-9.386c-7.327-4.691-11.562-9.96-11.562-17.286
		c0-5.149,1.486-9.496,4.581-12.7c2.515-2.637,5.837-4.81,9.499-6.527c3.214-1.49,6.179-2.061,8.929-2.061H565.587z
		 M566.158,371.541c6.519,0,11.332-3.438,11.332-11.22c0-3.55-1.379-6.979-4.122-9.728c-3.891-3.892-8.81-6.295-11.562-7.325
		c-1.713-0.454-3.432-0.805-4.808,0c-2.859,1.489-5.948,6.182-5.948,11.786c0,10.764,8.705,16.486,14.993,16.486H566.158z
		 M563.292,306.295c-2.974,0-5.262,1.146-6.981,2.748c-2.171,1.83-3.201,4.923-3.201,8.244c0,7.439,5.493,11.328,11.332,13.965
		c1.946,0.797,4.347,1.711,5.263,1.371c2.973-1.26,5.723-5.61,5.723-11.104c0-4.467-0.803-8.124-3.777-11.441
		c-1.945-2.179-4.348-3.783-8.238-3.783H563.292z"/>
</g>
<path style="fill:#BF2026;" d="M230.381,309.173c-5.936-0.391-26.975-46.998,26.78-60.611
	c62.629-15.86,125.569,57.963,226.103,58.958c44.687,0.441,52.009-6.568,56.771-8.551c-2.287,2.319-24.499,26.404-113.63,15.771
	c-73.141-8.727-104.364-32.387-153.479-34.327C249.744,279.498,231.476,290.184,230.381,309.173z"/>
<path style="fill:#FFFFFF;" d="M228.4,304.256c-8.006-15.767-1.63-51.857,49.152-50.298c49.073,1.507,96.483,44.131,168.133,55.21
	c38.276,5.92,63.913,3.986,85.727-1.11c-25.574,11.553-105.026,13.75-183.666-16.65c-43.447-16.795-67.852-21.158-83.822-19.617
	C247.506,273.376,227.631,284.139,228.4,304.256z"/>
</svg>
