<svg enable-background="new 0 0 792 612" height="612" viewBox="0 0 792 612" width="792" xmlns="http://www.w3.org/2000/svg"><g fill="#84b3cf"><path d="m275.388 320.027c-.644.079-1.131.241-1.867.726-.89.817-2.351 3.657-4.87 8.693-2.275 4.544-11.287 24.194-15.349 34.179-.403.977-.806 1.787-1.458 2.843-.648 1.137-1.3 2.681-2.109 3.981-.161.322-.487.566-1.139.566-1.219 0-1.952-.244-2.116-.729-.319-.405-.967-1.787-3.084-7.146-7.302-18.35-13.15-30.935-15.589-36.133-3-6.579-3.402-6.98-7.954-7.713l.894-2.108c.161-.493.41-.493.729-.493 3.409.333 8.69.409 10.559.409 2.596 0 5.276-.162 7.958-.162.326 0 .567.162.406 1.541-.165 1.058-.249 1.302-.733 1.378-3.248.409-3.658.894-3.006 3.172.567 1.867 1.545 4.381 5.281 13.231 3.409 8.202 6.573 15.349 9.177 20.951.241.488.81.323 1.131-.165 1.707-3.248 5.526-12.017 9.906-22.488 1.868-4.47 3.333-8.445 5.116-13.478.326-.732-.648-1.056-2.435-1.138l-3.164-.162c-.326 0-.572-.326-.406-.57.728-2.026.813-2.354 1.541-2.354 1.868 0 5.769.243 7.955.243 1.871 0 4.311-.243 6.094-.243 1.38 0 1.465.972 1.542 2.436 0 .406-.077.65-.652.564z"/><path d="m281.812 323.358c.599 0 .667.199.998 1.068 1.998 6.057 3.402 9.655 5.729 15.846 2.198 5.997 6.992 17.317 7.993 19.578 1.664 3.466 2.593 5.065 6.458 5.864.069-.135-.333 1.996-.803 2.132-6.457-.07-7.719-.136-9.92-.136-2.129 0-4.729.2-5.396.2-.26 0-.395-.064-.46-.2-.138-.397-.667-1.731-.537-1.863 2.934-.803 3.332-1.199 3.133-2.931-.134-1.529-2.465-7.525-2.995-8.654-.399-1-.936-1.47-1.335-1.47-3.129 0-9.856 0-13.188.202-1.062.062-1.392.532-1.86 1.661-.667 1.67-2.396 5.93-2.396 7.857 0 1.667.859 2.267 3.996 3 .396.265-.199 1.998-.533 2.13-3.862-.062-7.663-.062-9.062-.062-1.128 0-2.197.062-2.458 0-.338 0-.399-.07-.468-.269-.199-.334-.599-1.733-.337-1.865 3.264-.866 4.064-3.265 5.595-6.459 1.6-3.398 9.458-21.577 13.055-30.234.598-1.602 1.127-3.064 1.465-3.93.134-.398.333-.668.529-.802.667-.33 1.868-.665 2.734-.665h.063zm-8.391 26.24c.671 0 1.868.065 4.126.065 2.466 0 3.801 0 5.53-.065.598 0 1.001-.598.932-.866-2.462-7.191-3.858-10.987-5.261-14.582-.2-.401-.603-.401-.733-.067-2.535 5.661-3.394 7.86-6.06 14.719-.13.333.468.797 1.399.797h.067z"/><path d="m303.615 324.293c3.057.134 4.392.265 10.646.265.538 0 .941.067 1.205.268.265.196.532.597.599.996.198 1.067 3.06 4.463 4.13 5.461 3.528 3.664 11.651 11.923 24.506 23.709.134-2.331.199-5.658.199-10.588 0-6.861-.137-10.921-.398-13.652-.134-1.196-.333-2.863-1.604-3.263-.728-.2-3.125-.398-3.857-.53-.269-.137-.4-.199-.4-.602l-.134-1.799h7.524c2.466 0 5.591-.265 7.261-.336.329 0 .732.071.796.271l.4 1.664c-2.328.665-3.126.867-4.062 1.396-1.395.867-1.859 3.001-2.267 11.389-.198 6.394-.26 10.722-.26 17.517 0 5.593.196 9.454.196 10.389 0 .93-.398 1.332-2.002 2.197-.329.134-.663.134-.997-.464-3.66-5.398-8.722-10.923-15.782-17.983-6.987-6.993-11.851-11.853-15.851-15.714-.13 2.794-.264 6.992-.331 10.787 0 4.194-.069 14.448.667 17.181.534 1.731 3.594 2.33 5.393 2.663l.468 1.8c.069.133-.337.533-.537.533-2.459 0-5.727-.265-8.458-.265-2.267 0-4.464.129-5.46.194-.2-.729-.464-1.461-.732-2.196 4.264-.932 4.464-1.533 4.793-3.795.203-1.532.736-7.594.736-14.852v-7.39c0-8.325-.333-9.591-1.134-10.589-1.197-1.402-2.259-1.865-4.59-2.267-.464-.198-.665-.266-.665-.733v-1.662z"/><path d="m373.195 344.538c2.926 0 4.794-.067 6.25-.135 3.668-.265 4.201-.864 5.4-4.529.2-.33 1.73-.466 2.467-.33-.2 1.729-.533 5.126-.533 7.39.066 2.465.195 3.863.395 6.062-.328.133-.927.199-1.529.199-.468.068-.729-.066-.928-.401-.2-.597-.668-2.062-.937-2.793-.468-1.6-1.53-2.333-3.927-2.467-1.604-.132-3.33-.132-6.328-.132-2.397 0-3.064.064-3.463.132-.333.068-.598.2-.729.6-.203.4-.472 3.463-.472 8.79 0 4.33 0 5.662.534 6.461.935 1.332 4.264 1.532 7.796 1.532 6.789 0 10.784-1.064 13.117-8.393.264-.136 1.468-.065 1.859 0 .207.067.207.067.207.534-.139 3.66-1.266 8.391-2.202 10.188-.198.398-.398.531-.728.531-.473 0-1.001 0-3.139-.065-1.859-.067-6.389-.129-12.113-.129-6.328 0-12.257.265-17.25.394-.266-.129-.266-1.396-.135-1.86 0-.337.135-.4.272-.468 3.195-.664 3.725-.932 3.793-2.131.069-.932.468-5.459.468-11.724v-14.049c0-6.661-.337-8.725-.468-9.124-.069-.529-.13-1-.801-1.132-.665-.2-1.734-.465-3.793-.932-.138-.066-.2-.066-.138-.333l.203-1.467c0-.265 0-.396.333-.396h2.199c2.066 0 5.062.197 9.79.197h5.727c5.191 0 9.318-.4 13.249-.4.867 0 1.271.064 1.599.335.27.333.534.597.339 1.731-.736 3.531-.736 6.724-.736 8.723-2.063.068-2.198-.13-2.336-.6-1.592-5.193-2.589-7.123-6.522-7.123h-3.325c-3.932 0-5.869.132-6.597.198-1.132.131-1.201 1.266-1.201 2.265 0 4.728 0 9.122.069 13.586 0 .8.33 1.266.732 1.266h3.532z"/><path d="m396.221 369.11c-.268 0-.467-.066-.805-.332-.199-.198-.398-.867-.463-2.463-.136-3.465-.534-6.662-1.067-10.389-.13-.468-.069-.535.269-.601.402-.067.996-.202 1.33-.202.4 0 .668.135.867.734.33 1 .799 2.396 1.929 3.992 2.397 3.331 6.997 6.265 10.924 6.265 5.058 0 8.858-3.401 8.858-8.458 0-2.134-1.201-4.326-3.198-5.597-1.196-.798-2.796-1.796-6.927-3.527-4.594-1.935-7.793-3.596-10.125-6.394-1.33-1.532-2.461-4.129-2.461-7.193 0-4.595 2.6-7.591 5.725-9.325 1.601-.93 5.531-2.127 10.125-2.127 1.864 0 4.793.265 5.998.398.729.131 1.328.131 2.061.197.598.067 1.134-.331 1.599-1.264.798 0 1.863 0 2.063.067-.2 3.529-.069 6.861.599 10.721.134.535 0 .732-.2.934-.529.335-.997.666-1.595.932-.136.066-.403-.066-.534-.465-.996-2.864-1.802-4.863-3.862-6.459-1.599-1.332-4.731-2.464-7.597-2.464-3.924 0-6.857 3.194-6.857 6.723 0 2.002.667 3.599 1.863 4.798 1.539 1.531 3.135 2.66 7.192 4.263 4.603 1.86 7.995 3.53 10.055 5.526 2.734 2.599 3.732 4.993 3.732 8.525 0 4.861-2.662 8.457-6.13 10.32-3.328 1.798-9.118 2.531-11.451 2.531-2.73 0-5.794-.399-8.258-1.002-.531-.133-.869-.133-1.199 0-.399.199-.798.534-1.201.935-.464.333-.797.399-1.195.399h-.064z"/><path d="m429.729 369.11c-.269 0-.468-.066-.798-.332-.198-.198-.403-.867-.472-2.463-.13-3.465-.529-6.662-1.059-10.389-.138-.468-.069-.535.262-.601.402-.067.996-.202 1.335-.202.402 0 .662.135.862.734.337 1 .798 2.396 1.933 3.992 2.397 3.331 6.995 6.265 10.923 6.265 5.059 0 8.858-3.401 8.858-8.458 0-2.134-1.199-4.326-3.194-5.597-1.203-.798-2.804-1.796-6.93-3.527-4.595-1.935-7.789-3.596-10.124-6.394-1.332-1.532-2.464-4.129-2.464-7.193 0-4.595 2.598-7.591 5.73-9.325 1.596-.93 5.53-2.127 10.12-2.127 1.861 0 4.798.265 5.995.398.728.131 1.33.131 2.062.197.603.067 1.132-.331 1.6-1.264.798 0 1.868 0 2.067.067-.199 3.529-.069 6.861.599 10.721.131.535 0 .732-.2.934-.536.335-1.004.666-1.602.932-.131.066-.4-.066-.531-.465-1.001-2.864-1.798-4.863-3.856-6.459-1.608-1.332-4.733-2.464-7.598-2.464-3.932 0-6.861 3.194-6.861 6.723 0 2.002.668 3.599 1.867 4.798 1.531 1.531 3.126 2.66 7.191 4.263 4.595 1.86 7.988 3.53 10.055 5.526 2.731 2.599 3.732 4.993 3.732 8.525 0 4.861-2.665 8.457-6.129 10.32-3.328 1.798-9.123 2.531-11.452 2.531-2.733 0-5.794-.399-8.26-1.002-.537-.133-.867-.133-1.201 0-.398.199-.798.534-1.196.935-.468.333-.798.399-1.201.399h-.063z"/><path d="m481.104 323.358c.598 0 .667.199.998 1.068 1.997 6.057 3.398 9.655 5.729 15.846 2.197 5.997 6.991 17.317 7.988 19.578 1.661 3.466 2.596 5.065 6.463 5.864.06-.135-.338 1.996-.803 2.132-6.458-.07-7.727-.136-9.921-.136-2.133 0-4.733.2-5.392.2-.273 0-.403-.064-.472-.2-.131-.397-.668-1.731-.529-1.863 2.925-.803 3.327-1.199 3.125-2.931-.131-1.529-2.462-7.525-2.996-8.654-.398-1-.932-1.47-1.33-1.47-3.129 0-9.852 0-13.186.202-1.065.062-1.395.532-1.866 1.661-.665 1.67-2.397 5.93-2.397 7.857 0 1.667.87 2.267 3.996 3 .398.265-.2 1.998-.533 2.13-3.861-.062-7.655-.062-9.055-.062-1.132 0-2.197.062-2.466 0-.331 0-.398-.07-.46-.269-.208-.334-.605-1.733-.338-1.865 3.264-.866 4.061-3.265 5.591-6.459 1.599-3.398 9.461-21.577 13.055-30.234.603-1.602 1.132-3.064 1.466-3.93.134-.398.338-.668.533-.802.663-.33 1.867-.665 2.729-.665h.071zm-8.392 26.24c.665 0 1.861.065 4.128.065 2.466 0 3.796 0 5.521-.065.605 0 1.006-.598.939-.866-2.465-7.191-3.865-10.987-5.265-14.582-.2-.401-.599-.401-.729-.067-2.531 5.661-3.394 7.86-6.059 14.719-.138.333.46.797 1.395.797h.07z"/></g><path d="m521.684 315.061c4.449 0 9.238 2.134 12.492 6.84 2.649 4.02 4.613 10.781 4.613 20.355 0 15.405-4.271 20.956-7.094 23.608-3.254 2.996-8.046 5.05-12.914 5.05-4.968 0-9.842-2.226-13.003-6.926-2.315-3.338-4.962-10.184-4.962-19.934 0-10.863 2.561-17.793 5.983-22.154 2.14-2.736 5.648-5.129 9.409-6.161 1.625-.34 2.996-.679 5.39-.679h.086zm-2.308 3.505c-1.626 0-2.996.682-4.275 1.877-1.541 1.545-4.193 7.357-4.193 19.763 0 14.714 2.396 21.038 4.622 23.864 1.705 2.309 3.504 3.164 5.387 3.164 1.623 0 3.079-.681 4.018-1.622 1.8-1.709 3.937-8.294 3.937-20.36 0-10.949-.94-19.84-4.36-24.383-.945-1.281-2.566-2.303-5.047-2.303z" fill="#569bbe"/><path d="m565.587 301.49c12.583 0 20.374 7.663 20.258 17.969 0 3.894-2.29 6.754-4.355 8.586-2.513 2.635-5.488 4.918-8.121 7.207 10.072 5.502 15.337 10.422 15.337 19.922 0 7.438-4.58 13.163-8.587 15.904-4.462 3.094-11.098 5.611-16.826 5.611-6.175 0-12.813-1.599-17.044-5.267-4.927-4.004-6.763-9.271-6.763-14.079 0-3.201 1.379-5.837 3.094-7.894 1.369-1.718 6.979-5.839 11.445-9.386-7.327-4.691-11.562-9.96-11.562-17.286 0-5.149 1.486-9.496 4.581-12.7 2.515-2.637 5.837-4.81 9.499-6.527 3.214-1.49 6.179-2.061 8.929-2.061h.115zm.571 70.051c6.519 0 11.332-3.438 11.332-11.22 0-3.55-1.379-6.979-4.122-9.728-3.891-3.892-8.81-6.295-11.562-7.325-1.713-.454-3.432-.805-4.808 0-2.859 1.489-5.948 6.182-5.948 11.786 0 10.764 8.705 16.486 14.993 16.486h.115zm-2.866-65.246c-2.974 0-5.262 1.146-6.981 2.748-2.171 1.83-3.201 4.923-3.201 8.244 0 7.439 5.493 11.328 11.332 13.965 1.946.797 4.347 1.711 5.263 1.371 2.973-1.26 5.723-5.61 5.723-11.104 0-4.467-.803-8.124-3.777-11.441-1.945-2.179-4.348-3.783-8.238-3.783z" fill="#569bbe"/><path d="m230.381 309.173c-5.936-.391-26.975-46.998 26.78-60.611 62.629-15.86 125.569 57.963 226.103 58.958 44.687.441 52.009-6.568 56.771-8.551-2.287 2.319-24.499 26.404-113.63 15.771-73.141-8.727-104.364-32.387-153.479-34.327-23.182-.915-41.45 9.771-42.545 28.76z" fill="#bf2026"/><path d="m228.4 304.256c-8.006-15.767-1.63-51.857 49.152-50.298 49.073 1.507 96.483 44.131 168.133 55.21 38.276 5.92 63.913 3.986 85.727-1.11-25.574 11.553-105.026 13.75-183.666-16.65-43.447-16.795-67.852-21.158-83.822-19.617-16.418 1.585-36.293 12.348-35.524 32.465z" fill="#fff"/></svg>