<?xml version="1.0" standalone="no"?>
<!DOCTYPE svg PUBLIC "-//W3C//DTD SVG 1.1//EN" "http://www.w3.org/Graphics/SVG/1.1/DTD/svg11.dtd" >
<svg xmlns="http://www.w3.org/2000/svg">
<metadata>
<json>
<![CDATA[
{
	"fontFamily": "water-analysis",
	"majorVersion": 1,
	"minorVersion": 0,
	"designer": "Keith Forsythe",
	"version": "Version 1.0",
	"fontId": "water-analysis",
	"psName": "water-analysis",
	"subFamily": "Regular",
	"fullName": "water-analysis",
	"description": "Font generated by IcoMoon."
}
]]>
</json>
</metadata>
<defs>
<font id="water-analysis" horiz-adv-x="1024">
<font-face units-per-em="1024" ascent="960" descent="-64" />
<missing-glyph horiz-adv-x="1024" />
<glyph unicode="&#x20;" horiz-adv-x="512" d="" />
<glyph unicode="&#xe900;" glyph-name="water-clock" data-tags="clock" d="M512 928c265.028-0.194 479.8-215.086 479.8-480.14 0-197.578-119.339-367.282-289.868-440.963l-3.112-1.197c-54.67-23.472-118.3-37.121-185.117-37.121-265.174 0-480.14 214.966-480.14 480.14 0 197.057 118.711 366.387 288.52 440.378l3.097 1.202c54.846 23.835 118.732 37.701 185.856 37.701 0.339 0 0.678 0 1.017-0.001h-0.052zM512 960c-282.76 0-512-229.22-512-512s229.24-512 512-512 512 229.22 512 512-229.24 512-512 512zM684 307.26l-107.24 109.24c4.576 9.198 7.254 20.034 7.254 31.495 0 28.111-16.11 52.459-39.601 64.316l-0.412 0.189v255.5c0 17.673-14.327 32-32 32v0 0c-17.673 0-32-14.327-32-32v0-255.5c-23.88-12.053-39.971-36.389-39.971-64.484 0-39.765 32.235-72 72-72 4.75 0 9.393 0.46 13.886 1.338l-0.455-0.074 113.28-115.28c5.792-5.792 13.792-9.374 22.63-9.374 17.675 0 32.004 14.329 32.004 32.004 0 8.838-3.582 16.838-9.374 22.63v0z" />
<glyph unicode="&#xe901;" glyph-name="water-download" data-tags="download" d="M330 224.94c-9.1 0-12.64-6.14-7.88-13.66l181.3-270c4.72-7.44 12.44-7.44 17.16 0l181.3 270c4.76 7.52 1.22 13.66-7.88 13.66h-101.64c-9.352 0.132-17.091 6.875-18.761 15.76l-0.019 0.12-61.88 456.98c-1.18 8.38-3.040 8.36-4.12 0l-57.32-456.96c-1.537-9.052-9.264-15.877-18.607-16h-0.013zM1024.8 480c-0.089 95.043-69.164 173.927-159.848 189.282l-1.132 0.158c0.625 5.568 0.981 12.023 0.981 18.56 0 97.202-78.798 176-176 176-0.141 0-0.282 0-0.423 0h0.022c-0.081 0-0.178 0-0.275 0-39.994 0-76.871-13.349-106.417-35.835l0.431 0.315c-40.43 78.833-121.148 131.843-214.248 131.843-132.548 0-240-107.452-240-240 0-20.235 2.504-39.886 7.22-58.658l-0.352 1.655c-78.884-25.061-135.039-97.651-135.039-183.356 0-104.73 83.853-189.876 188.084-191.961l0.195-0.003h164v32h-160c-88.323 0.056-159.901 71.669-159.901 160 0 82.809 62.908 150.924 143.541 159.164l0.679 0.056c-10.299 23.819-16.289 51.555-16.289 80.689 0 114.875 93.125 208 208 208 97.045 0 178.568-66.46 201.537-156.349l0.312-1.44c26.37 37.843 69.676 62.296 118.692 62.296 79.651 0 144.22-64.569 144.22-144.22 0-5.706-0.331-11.335-0.976-16.869l0.064 0.673c-1.358-11.957-3.976-22.853-7.757-33.19l0.317 0.99c2.64 0.12 5.28 0.2 8 0.2 88.366 0 160-71.634 160-160s-71.634-160-160-160v0h-160.44v-32h164c104.622 1.899 188.715 87.115 188.8 191.992v0.008z" />
<glyph unicode="&#xe902;" glyph-name="water-location" data-tags="location" d="M506 960c-194.404 0-352-157.596-352-352v0c0-288 348-672 348-672s356 384 356 672c0 194.404-157.596 352-352 352v0zM506 416c-106.039 0-192 85.961-192 192s85.961 192 192 192c106.039 0 192-85.961 192-192v0c0-106.039-85.961-192-192-192v0z" />
<glyph unicode="&#xe903;" glyph-name="water-map" data-tags="map" d="M753.26 697.2l-23.26-9.84c3.813 15.345 6 32.961 6 51.088 0 0.039 0 0.078 0 0.118v-0.006c0 122.3-99.84 221.44-223 221.44s-223-99.14-223-221.46c0-0.053 0-0.116 0-0.18 0-19.61 2.561-38.621 7.367-56.718l-0.347 1.538s0-0.16 0-0.16c0.64-2.56 1.4-5.22 2.22-7.9l-60.26 22.68c-5.187 1.734-11.16 2.734-17.366 2.734-4.61 0-9.091-0.552-13.381-1.593l0.386 0.079-193.24-55.34c-8.73-2.955-14.978-10.898-15.378-20.354l-0.002-0.046v-671.28c0-8.84 6.58-13.18 14.7-9.68l194.6 83.68c5.009 1.913 10.803 3.020 16.855 3.020 4.636 0 9.121-0.65 13.368-1.864l-0.342 0.084 257.64-86c4.24-1.236 9.111-1.946 14.148-1.946 5.721 0 11.228 0.917 16.382 2.612l-0.37-0.105 226 84.96c4.482 1.484 9.641 2.339 15 2.339s10.518-0.856 15.348-2.438l-0.348 0.099 226-84.96c8.28-3.1 14.98 1.54 14.98 10.38v671.1c-0.37 9.422-6.734 17.264-15.367 19.841l-0.153 0.039-224.92 56.38c-3.304 0.695-7.1 1.092-10.988 1.092-6.918 0-13.542-1.259-19.656-3.559l0.385 0.127zM208 60.24l-176-75.6v630.46l176 50.4zM498-25.52l-258 86.2v602.48l75.36-28.32c44.4-93.3 144.64-219.42 182.64-265.78zM392 752c0 66.274 53.726 120 120 120s120-53.726 120-120c0-66.274-53.726-120-120-120v0c-66.274 0-120 53.726-120 120v0zM752 60.46l-222-83.44v393.8c42.18 50 150.94 183.6 188 276.7l34 14.34zM992-17.72l-208 78.18v606l208-52.12z" />
<glyph unicode="&#xe904;" glyph-name="water-print" data-tags="print" d="M320 128h384v-32h-384v32zM320 224h384v-32h-384v32zM768 704v160c0 17.673-14.327 32-32 32v0h-448c-17.673 0-32-14.327-32-32v0-160h-188.18c-37.415-0.102-67.718-30.405-67.82-67.81v-376.37c0.102-37.415 30.405-67.718 67.81-67.82h188.19v-156c0-17.673 14.327-32 32-32v0h448c17.673 0 32 14.327 32 32v0 156h188.18c37.415 0.102 67.718 30.405 67.82 67.81v376.37c-0.102 37.415-30.405 67.718-67.81 67.82h-188.19zM288 864h448v-160h-448zM736 36h-448v316h448v-316zM992 259.82c-0.023-19.774-16.046-35.797-35.818-35.82h-188.182v160h-512v-160h-188.18c-19.774 0.023-35.797 16.046-35.82 35.818v376.362c0.023 19.774 16.046 35.797 35.818 35.82h888.362c19.774-0.023 35.797-16.046 35.82-35.818v-0.002zM880 576c8.837 0 16-7.163 16-16s-7.163-16-16-16c-8.837 0-16 7.163-16 16v0c0 8.837 7.163 16 16 16v0zM880 608c-26.51 0-48-21.49-48-48s21.49-48 48-48c26.51 0 48 21.49 48 48v0c0 26.51-21.49 48-48 48v0z" />
<glyph unicode="&#xe905;" glyph-name="water-report" data-tags="report" d="M960 864h-64v64c0 17.52-15.26 32-32.94 32h-735.060c-17.673 0-32-14.327-32-32v0-96h-56c-3.42 0-8-4.6-8-8v-48c0-3.4 0.58-8 4-8h60v-64h-56c-3.42 0-8-4.78-8-8.18v-47.82c0-3.4 4.58-8 8-8h56v-64h-56c-3.42 0-8-4.78-8-8.18v-47.82c0-3.4 4.58-8 8-8h56v-64h-56c-3.42 0-8-4.78-8-8.18v-47.82c0-3.4 4.58-8 8-8h56v-64h-56c-3.54 0-8-4.86-8-8.38v-47.62c0.632-4.139 3.861-7.368 7.947-7.993l0.053-0.007h56v-64h-56c-3.42 0-8-4.78-8-8.18v-47.82c0-3.4 4.58-8 8-8h56v-96c0-17.673 14.327-32 32-32v0h63.18v-32.14c0.079-17.613 14.376-31.86 32-31.86 0.042 0 0.085 0 0.127 0h735.733c17.68 0 32.96 14.48 32.96 32v864c0 17.673-14.327 32-32 32v0zM197.38 32h-69.38v96h56c3.42 0 8 4.6 8 8v48c0 3.4-4.58 8-8 8h-52l-0.34 58h55.26c0 0 0 0 0 0 3.532 0 6.397 2.852 6.42 6.378v55.242c-0.023 3.528-2.888 6.38-6.42 6.38 0 0 0 0 0 0v0l-58.92 2v64h56c3.42 0 8 4.6 8 8l1.34 47.82c-0.023 3.418-2.799 6.18-6.22 6.18 0 0 0 0 0 0v0l-59.12 2v64h56c3.42 0 8 4.6 8 8v48c0 3.4-4.58 8-8 8h-56v64h56c3.42 0 8 4.6 8 8v48c0 3.4-4.58 8-8 8h-56v64h56c8 0 8 4.6 8 8v48c0 3.4 0 8-8 8h-56v96h736v-896h-666.62zM960-32h-736v32h640c28.24 0 32 18.48 32 36v796h64z" />
<glyph unicode="&#xe906;" glyph-name="water-report-table" data-tags="report table" d="M162 832h256c17.673 0 32-14.327 32-32v-256c0-17.673-14.327-32-32-32h-256c-17.673 0-32 14.327-32 32v256c0 17.673 14.327 32 32 32zM610 832h256c17.673 0 32-14.327 32-32v-256c0-17.673-14.327-32-32-32h-256c-17.673 0-32 14.327-32 32v256c0 17.673 14.327 32 32 32zM162 384h256c17.673 0 32-14.327 32-32v-256c0-17.673-14.327-32-32-32h-256c-17.673 0-32 14.327-32 32v256c0 17.673 14.327 32 32 32zM610 384h256c17.673 0 32-14.327 32-32v-256c0-17.673-14.327-32-32-32h-256c-17.673 0-32 14.327-32 32v256c0 17.673 14.327 32 32 32z" />
<glyph unicode="&#xe907;" glyph-name="water-report-text" data-tags="report text" d="M256 736h512c17.673 0 32-14.327 32-32v-64c0-17.673-14.327-32-32-32h-512c-17.673 0-32 14.327-32 32v64c0 17.673 14.327 32 32 32zM256 512h512c17.673 0 32-14.327 32-32v-64c0-17.673-14.327-32-32-32h-512c-17.673 0-32 14.327-32 32v64c0 17.673 14.327 32 32 32zM256 288h324c17.673 0 32-14.327 32-32v-64c0-17.673-14.327-32-32-32h-324c-17.673 0-32 14.327-32 32v64c0 17.673 14.327 32 32 32z" />
<glyph unicode="&#xe908;" glyph-name="water-threshold" data-tags="threshold" d="M802 960h190c17.673 0 32-14.327 32-32v-960c0-17.673-14.327-32-32-32h-190c-17.673 0-32 14.327-32 32v960c0 17.673 14.327 32 32 32zM418 608h192c17.673 0 32-14.327 32-32v-608c0-17.673-14.327-32-32-32h-192c-17.673 0-32 14.327-32 32v608c0 17.673 14.327 32 32 32zM32 224h190c17.673 0 32-14.327 32-32v-224c0-17.673-14.327-32-32-32h-190c-17.673 0-32 14.327-32 32v224c0 17.673 14.327 32 32 32z" />
<glyph unicode="&#xe909;" glyph-name="water-report-add" data-tags="report add" d="M960 864h-64v64c0 17.52-15.26 32-32.94 32h-735.060c-17.673 0-32-14.327-32-32v0-96h-56c-3.42 0-8-4.6-8-8v-48c0-3.4 0.58-8 4-8h60v-64h-56c-3.42 0-8-4.78-8-8.18v-47.82c0-3.4 4.58-8 8-8h56v-64h-56c-3.42 0-8-4.78-8-8.18v-47.82c0-3.4 4.58-8 8-8h56v-64h-56c-3.42 0-8-4.78-8-8.18v-47.82c0-3.4 4.58-8 8-8h56v-64h-56c-3.54 0-8-4.86-8-8.38v-47.62c0.632-4.139 3.861-7.368 7.947-7.993l0.053-0.007h56v-64h-56c-3.42 0-8-4.78-8-8.18v-47.82c0-3.4 4.58-8 8-8h56v-96c0-17.673 14.327-32 32-32v0h63.18v-32.14c0.079-17.613 14.376-31.86 32-31.86 0.042 0 0.085 0 0.127 0h735.733c17.68 0 32.96 14.48 32.96 32v864c0 17.673-14.327 32-32 32v0zM197.38 32h-69.38v96h56c3.42 0 8 4.6 8 8v48c0 3.4-4.58 8-8 8h-52l-0.34 58h55.26c0 0 0 0 0 0 3.532 0 6.397 2.852 6.42 6.378v55.242c-0.023 3.528-2.888 6.38-6.42 6.38 0 0 0 0 0 0v0l-58.92 2v64h56c3.42 0 8 4.6 8 8l1.34 47.82c-0.023 3.418-2.799 6.18-6.22 6.18 0 0 0 0 0 0v0l-59.12 2v64h56c3.42 0 8 4.6 8 8v48c0 3.4-4.58 8-8 8h-56v64h56c3.42 0 8 4.6 8 8v48c0 3.4-4.58 8-8 8h-56v64h56c8 0 8 4.6 8 8v48c0 3.4 0 8-8 8h-56v96h736v-896h-666.62zM960-32h-736v32h640c28.24 0 32 18.48 32 36v796h64zM608 480h-96v96h-32v-96h-96v-32h96v-96h32v96h96v32z" />
<glyph unicode="&#xe90a;" glyph-name="water-analyze" data-tags="analyze" d="M896 928c-53.011-0.011-95.981-42.987-95.981-96 0-36.87 20.785-68.885 51.277-84.968l0.524-0.252-126.98-428.28c-5.080 0.955-10.923 1.501-16.895 1.501-24.86 0-47.51-9.466-64.541-24.989l0.076 0.068-271.48 202.44c7.559 13.405 12.012 29.431 12.012 46.497 0 53.019-42.981 96-96 96s-96-42.981-96-96c0-36.746 20.646-68.67 50.97-84.805l0.518-0.252-98.76-300.44c-5.029 0.934-10.815 1.468-16.726 1.468-53.019 0-96-42.981-96-96s42.981-96 96-96c53.019 0 96 42.981 96 96 0 35.797-19.593 67.017-48.639 83.523l-0.475 0.248 99.1 301.28c4.202-0.654 9.054-1.032 13.992-1.040h0.008c0.032 0 0.070 0 0.107 0 24.602 0 47.034 9.291 63.979 24.556l-0.086-0.076 271.68-202.48c-7.362-13.263-11.695-29.085-11.695-45.92 0-53.019 42.981-96 96-96s96 42.981 96 96c0 35.745-19.536 66.927-48.513 83.452l-0.472 0.248 127.3 429.22c4.153-0.636 8.944-1 13.82-1 53.019 0 96 42.981 96 96s-42.981 96-96 96c-0.042 0-0.084 0-0.126 0h0.007z" />
<glyph unicode="&#xe90b;" glyph-name="water-caret" data-tags="caret" d="M773.38 853.12c7.804 7.851 12.627 18.672 12.627 30.62s-4.823 22.769-12.629 30.622l-1.018 1.018c-7.845 7.801-18.659 12.623-30.6 12.623s-22.755-4.822-30.602-12.625l-436.538-436.758c-7.804-7.851-12.627-18.672-12.627-30.62s4.823-22.769 12.629-30.622l436.538-436.738c7.845-7.801 18.659-12.623 30.6-12.623s22.755 4.822 30.602 12.625l1.018 1.018c7.804 7.851 12.627 18.672 12.627 30.62s-4.823 22.769-12.629 30.622l-374.318 374.478c-7.804 7.851-12.627 18.672-12.627 30.62s4.823 22.769 12.629 30.622l-0.002-0.002z" />
<glyph unicode="&#xe90c;" glyph-name="water-pdf" data-tags="water pdf" d="M832 927c17.673 0 32-14.327 32-32v0-896c0-17.673-14.327-32-32-32v0h-640c-17.673 0-32 14.327-32 32v0 896c0 17.673 14.327 32 32 32v0h640zM832 959h-640c-35.305-0.102-63.898-28.695-64-63.99v-896.010c0.102-35.305 28.695-63.898 63.99-64h640.010c35.305 0.102 63.898 28.695 64 63.99v896.010c-0.102 35.305-28.695 63.898-63.99 64h-0.010zM764 376.26c-2.429 4.063-5.21 7.57-8.389 10.67l-0.011 0.010c-10.225 9.86-22.588 17.579-36.319 22.386l-0.701 0.214c-27.28 9.64-55.46 10.48-83.74 6.94-16.7-2-33.22-5.84-49.82-8.74-0.203-0.029-0.438-0.046-0.677-0.046-1.038 0-2.002 0.316-2.801 0.857l0.018-0.011c-16.608 12.254-31.187 25.557-44.274 40.22l-0.246 0.28c-18.52 20.7-32.88 44.26-45.82 68.84-0.208 0.531-0.329 1.147-0.329 1.79s0.121 1.259 0.34 1.824l-0.012-0.034c3.72 10.16 7.8 20.2 11.34 30.42 8.96 26 14.84 52.5 15.34 80.24-0.8 8.38-1.24 16.82-2.48 25.12-1.577 12.344-6.103 23.399-12.844 32.75l0.144-0.21c-4.84 6.52-10.84 11.5-18.82 13.36-12.2 2.82-22.24-1.56-30.58-10.42-10-10.62-16.12-23.6-20.4-37.48-7.26-23.58-6.64-47.46-2-71.4 5.001-23.664 12.272-44.559 21.798-64.156l-0.718 1.636c0.476-0.952 0.755-2.073 0.755-3.26s-0.279-2.308-0.774-3.303l0.019 0.043c-7-17.6-14-35.2-20.72-52.9-13.78-36.28-26.92-72.84-42.42-108.42-0.673-1.711-2.015-3.034-3.696-3.666l-0.044-0.014c-19.902-8.095-36.767-16.746-52.768-26.658l1.488 0.858c-21.52-13.3-41.68-28.38-58.3-48-8-9.4-14.68-19.66-18-31.86-7.42-27.48 12.56-53.34 40.46-52.14 10.86 0.48 20.4 5.080 29.26 11.16 17.72 12.14 31.6 28.2 43.72 45.88 14.002 20.622 27.395 44.313 38.842 69.087l1.298 3.133c0.645 1.622 1.973 2.852 3.62 3.35l0.040 0.010c14.78 4.68 29.42 10 44.34 14 38.2 10.58 76.52 20.66 114.78 31 0.51 0.163 1.097 0.257 1.706 0.257 1.275 0 2.453-0.411 3.41-1.108l-0.017 0.012c29.82-18.92 61.72-32.4 96.48-38.26 18.5-3.12 37.040-4 55.56-0.26 9.448 1.656 17.855 5.146 25.188 10.105l-0.228-0.145c7.296 4.728 12.056 12.83 12.056 22.043 0 5.192-1.512 10.031-4.119 14.102l0.063-0.105zM363.020 300.74c-12-21.68-24.66-42.78-42.92-59.68-4.7-4.111-9.854-8.058-15.257-11.66l-0.543-0.34c-1.893-1.232-4.12-2.134-6.511-2.564l-0.109-0.016c-0.528-0.156-1.134-0.246-1.762-0.246-3.546 0-6.42 2.874-6.42 6.42 0 0.74 0.125 1.45 0.355 2.111l-0.014-0.045c0.876 3.206 2.099 6.012 3.663 8.588l-0.083-0.148c6.162 9.858 13.512 18.276 21.996 25.386l0.164 0.134c13.529 11.912 28.669 22.594 44.89 31.556l1.31 0.664c0.38 0.2 0.76 0.36 1.24 0.58 0.020-0.4 0.080-0.6 0-0.74zM462 631.28c1.51 12.657 5.839 24.065 12.341 33.912l-0.181-0.292c0.66 1 1.42 2 2.36 3.14 2.906-4.985 4.971-10.826 5.832-17.051l0.028-0.249c0.893-6.041 1.402-13.014 1.402-20.106 0-8.604-0.75-17.032-2.189-25.223l0.126 0.869c-2.44-15.404-5.921-29.030-10.511-42.135l0.511 1.675c-0.14-0.42-0.34-0.8-0.52-1.2l-0.64-0.1c-2 7.74-4.24 15.44-6 23.24-2.149 8.741-3.382 18.777-3.382 29.1 0 5.081 0.299 10.092 0.879 15.017l-0.057-0.597zM431.22 366.7l42.78 112.68c18.46-32.165 41.097-59.562 67.614-82.612l0.386-0.328zM702.78 362.3c-25.74 0.78-50 7.7-73.54 18.1-0.403 0.276-0.756 0.565-1.082 0.882l0.002-0.002c4.82 0.58 9.2 1.2 13.58 1.62 19.84 1.88 39.54 1.62 59-3.58 10.083-2.815 18.883-7.205 26.614-12.952l-0.214 0.152c0.415-0.293 0.773-0.575 1.116-0.874l-0.016 0.014c0.12-0.1 0.16-0.32 0.36-0.78-6.367-1.718-13.677-2.705-21.218-2.705-1.619 0-3.227 0.045-4.823 0.135l0.221-0.010z" />
<glyph unicode="&#xe90d;" glyph-name="water-tablet" data-tags="tablet" d="M832 959h-640c-35.305-0.102-63.898-28.695-64-63.99v-896.010c0.102-35.305 28.695-63.898 63.99-64h640.010c35.305 0.102 63.898 28.695 64 63.99v896.010c-0.102 35.305-28.695 63.898-63.99 64h-0.010zM160 864v31c0 17.673 14.327 32 32 32v0h640c17.673 0 32-14.327 32-32v0-31zM160 224v608h704v-608zM192-33c-17.673 0-32 14.327-32 32v0 193h704v-193c0-17.673-14.327-32-32-32v0zM496 119.78c21.97 0 39.78-17.81 39.78-39.78s-17.81-39.78-39.78-39.78c-21.97 0-39.78 17.81-39.78 39.78v0c0.023 21.961 17.819 39.757 39.778 39.78h0.002zM496 160c-44.183 0-80-35.817-80-80s35.817-80 80-80c44.183 0 80 35.817 80 80v0c0 44.183-35.817 80-80 80v0z" />
<glyph unicode="&#xe90e;" glyph-name="water-reset" data-tags="water reset" d="M900 320l124 159.4-98.54 0.22c-24.36 233.38-221.66 416.96-461.46 416.96-256.26 0-464-207.74-464-464s207.74-464 464-464c0.024 0 0.053 0 0.081 0 178.62 0 333.667 100.93 411.221 248.87l1.217 2.55h-36.34c-75.568-131.759-215.413-219.085-375.654-219.085-238.366 0-431.6 193.234-431.6 431.6s193.234 431.6 431.6 431.6c177.616 0 330.173-107.29 396.398-260.596l1.076-2.799c15.311-35.265 26.478-76.171 31.503-118.956l0.197-2.064-125.7 0.3z" />
<glyph unicode="&#xe90f;" glyph-name="water-edit" data-tags="water edit" d="M969.38 790.6l-114.76 114.76c-5.789 5.78-13.782 9.355-22.61 9.355s-16.821-3.575-22.61-9.356v0l-71.4-71.56c-12.48-12.52-22.64-22.62-22.68-22.58s-5.080-5-11.32-11.22-11.28-11.36-11.22-11.4-10-10.22-22.52-22.74l-468.58-469.76c-14.072-14.883-26.214-31.812-35.887-50.24l-0.593-1.24-119.32-247.8c-7.66-16-0.98-22.62 14.94-14.94l247.8 119.32c19.668 10.266 36.597 22.408 51.587 36.58l-0.107-0.1 469.76 468.56c12.52 12.48 22.7 22.56 22.74 22.52s5.16 4.98 11.4 11.22 11.28 11.34 11.24 11.38 10 10.18 22.58 22.68l71.52 71.34c5.792 5.791 9.375 13.792 9.375 22.63 0 8.818-3.567 16.803-9.336 22.591l0.001-0.001zM832 882.7l114.72-114.7-94.18-94-114.54 114.52zM318.7 141.54l-218.2-105.060 105.060 218.22 510 511.18 114.4-114.4z" />
<glyph unicode="&#xe910;" glyph-name="water-light" data-tags="water light" d="M528 752c0-8.837-7.163-16-16-16v0 0c-8.837 0-16 7.163-16 16v0 192c0 8.837 7.163 16 16 16v0 0c8.837 0 16-7.163 16-16v0zM283.2 671.44c2.893-2.895 4.683-6.894 4.683-11.31s-1.789-8.415-4.683-11.31v0c-2.895-2.893-6.894-4.683-11.31-4.683s-8.415 1.789-11.31 4.683l-135.78 135.74c-2.893 2.895-4.683 6.894-4.683 11.31s1.789 8.415 4.683 11.31v0c2.895 2.893 6.894 4.683 11.31 4.683s8.415-1.789 11.31-4.683v0zM576 80c0-8.837-7.163-16-16-16v0h-96.8c-8.837 0-16 7.163-16 16v0 0c0 8.837 7.163 16 16 16v0h96.8c8.837 0 16-7.163 16-16v0zM574.14 14.98c-3.34-8.24-13.82-14.98-23.32-14.98h-77.66c-9.5 0-20 6.74-23.32 14.98l-0.82 2c-3.34 8.24 1.7 14.98 11.2 14.98h103.54c9.5 0 14.54-6.74 11.2-14.98zM547.6-51.5c-6.483-7.206-15.641-11.895-25.898-12.495l-0.102-0.005h-19.2c-10.359 0.605-19.517 5.294-25.97 12.466l-0.030 0.034-5.6 7.020c-5.5 6.88-2.8 12.5 6 12.5h70.4c8.8 0 11.5-5.62 6-12.5zM795.44 644.8c-2.895-2.893-6.894-4.683-11.31-4.683s-8.415 1.789-11.31 4.683v0c-2.893 2.895-4.683 6.894-4.683 11.31s1.789 8.415 4.683 11.31l135.74 135.78c2.895 2.893 6.894 4.683 11.31 4.683s8.415-1.789 11.31-4.683v0c2.893-2.895 4.683-6.894 4.683-11.31s-1.789-8.415-4.683-11.31v0zM208 450c8.837 0 16-7.163 16-16v0 0c0-8.837-7.163-16-16-16v0h-192c-8.837 0-16 7.163-16 16v0 0c0 8.837 7.163 16 16 16v0zM1008 450c8.837 0 16-7.163 16-16v0 0c0-8.837-7.163-16-16-16v0h-192c-8.837 0-16 7.163-16 16v0 0c0 8.837 7.163 16 16 16v0zM147.44 60.8c-2.895-2.893-6.894-4.683-11.31-4.683s-8.415 1.789-11.31 4.683v0c-2.893 2.895-4.683 6.894-4.683 11.31s1.789 8.415 4.683 11.31l135.76 135.76c2.895 2.893 6.894 4.683 11.31 4.683s8.415-1.789 11.31-4.683v0c2.893-2.895 4.683-6.894 4.683-11.31s-1.789-8.415-4.683-11.31v0zM903.2 83.44c2.893-2.895 4.683-6.894 4.683-11.31s-1.789-8.415-4.683-11.31v0c-2.895-2.893-6.894-4.683-11.31-4.683s-8.415 1.789-11.31 4.683l-135.78 135.74c-2.893 2.895-4.683 6.894-4.683 11.31s1.789 8.415 4.683 11.31v0c2.895 2.893 6.894 4.683 11.31 4.683s8.415-1.789 11.31-4.683v0zM256 448c0-0.063 0-0.138 0-0.213 0-82.135 38.748-155.221 98.961-201.974l0.579-0.433c57.28-52.9 79.080-85.3 87.36-102.3 3.88-8 12.26-15.080 21.1-15.080h96c8.84 0 17.24 7.14 21.16 15.060 8.44 17.12 30.68 50 89.32 103.88 59.622 47.299 97.52 119.748 97.52 201.047 0 141.385-114.615 256-256 256-141.38 0-255.993-114.608-256-255.987v-0.001zM649.7 271.32l-0.9-0.82c-34.96-32.18-57.84-52.9-72.8-78.5v144c0.42 11.070 3.015 21.434 7.367 30.817l-0.207-0.497 49.68 99.38c4 8 0 14.32-8.84 14.32v0c-9.926-0.535-18.441-6.105-23.087-14.182l-0.073-0.138-49.68-99.38c-4.145-8.886-6.74-19.25-7.156-30.171l-0.004-0.149v-176h-64v176c-0.42 11.070-3.015 21.434-7.367 30.817l0.207-0.497-49.68 99.38c-4.723 8.207-13.237 13.769-23.089 14.297l-0.071 0.003c-8.84 0-12.8-6.4-8.84-14.32l49.68-99.38c4.142-8.88 6.737-19.236 7.155-30.15l0.005-0.15v-144c-15.72 24.16-38.3 46.92-70.76 76.9l-1.020 0.94-1.1 0.86c-26.374 20.571-47.742 46.267-62.846 75.706l-0.594 1.274c-14.932 29.203-23.682 63.701-23.682 100.243 0 123.712 100.288 224 224 224s224-100.288 224-224c0-71.141-33.164-134.536-84.876-175.569l-0.462-0.354z" />
<glyph unicode="&#xe911;" glyph-name="water-binoculars" data-tags="water binoculars" d="M800 670c-0.012 0-0.027 0-0.042 0-82.312 0-154.255-44.397-193.187-110.551l-0.571-1.049c-8.365-3.111-18.582-6.012-29.073-8.159l-1.407-0.241c-3.192 32.646-30.497 57.95-63.713 57.95-33.265 0-60.603-25.38-63.707-57.832l-0.020-0.259c-11.854 2.309-21.923 5.013-31.714 8.323l1.714-0.503c-39.402 67.634-111.578 112.369-194.202 112.369-123.712 0-224-100.288-224-224s100.288-224 224-224c91.007 0 169.337 54.272 204.393 132.216l0.569 1.415c14.96 14.66 40.44 28.32 82.96 28.32s68-13.66 83-28.38c35.627-79.353 113.955-133.62 204.957-133.62 123.712 0 224 100.288 224 224 0 123.697-100.264 223.975-223.955 224h-0.003zM224 256c-106.039 0-192 85.961-192 192s85.961 192 192 192c106.039 0 192-85.961 192-192v0c0-106.039-85.961-192-192-192v0zM512 512c-17.673 0-32 14.327-32 32s14.327 32 32 32c17.673 0 32-14.327 32-32v0c0-17.673-14.327-32-32-32v0zM800 256c-106.039 0-192 85.961-192 192s85.961 192 192 192c106.039 0 192-85.961 192-192v0c0-106.039-85.961-192-192-192v0zM240 607.34c-93.424-8.042-167.298-81.915-175.29-174.624l-0.050-0.716c-0.021-0.294-0.032-0.638-0.032-0.984 0-8.295 6.725-15.020 15.020-15.020 0.124 0 0.247 0.001 0.371 0.004h-0.018c8.902 0.249 16.109 7.179 16.796 15.94l0.004 0.060c7.947 75.675 67.525 135.253 142.505 143.141l0.695 0.059c8.821 0.691 15.751 7.898 15.999 16.776l0.001 0.024c0.003 0.105 0.004 0.228 0.004 0.352 0 8.295-6.725 15.020-15.020 15.020-0.346 0-0.69-0.012-1.030-0.035l0.046 0.003zM816 607.34c-93.424-8.042-167.298-81.915-175.29-174.624l-0.050-0.716c-0.021-0.294-0.032-0.638-0.032-0.984 0-8.295 6.725-15.020 15.020-15.020 0.124 0 0.247 0.001 0.371 0.004h-0.018c8.902 0.249 16.109 7.179 16.796 15.94l0.004 0.060c7.947 75.675 67.525 135.253 142.505 143.141l0.695 0.059c8.821 0.691 15.751 7.898 15.999 16.776l0.001 0.024c0.003 0.105 0.004 0.228 0.004 0.352 0 8.295-6.725 15.020-15.020 15.020-0.346 0-0.69-0.012-1.030-0.035l0.046 0.003z" />
<glyph unicode="&#xe912;" glyph-name="water-home" data-tags="water home" d="M832 768c0 17.673-14.327 32-32 32v0h-64c-17.673 0-32-14.327-32-32v0-76.8l-170.12 181.46c-5.434 5.954-13.227 9.675-21.89 9.675s-16.456-3.721-21.869-9.652l-0.021-0.023-436.22-465.32c-12.080-12.88-7.56-23.34 10.12-23.34h128v-352c0-17.673 14.327-32 32-32v0h576c17.673 0 32 14.327 32 32v0 352h128c17.68 0 22.2 10.46 10.12 23.34l-138.12 147.32zM736 768h64v-179.2l-64 68.26zM512 849.22l406.14-433.22h-86.14l-298.48 328.32c-5.257 6.028-12.951 9.816-21.53 9.816s-16.273-3.788-21.501-9.782l-0.029-0.034-298.46-328.32h-86.14zM800 32h-576v371.62l288 316.8 288-316.8z" />
<glyph unicode="&#xe913;" glyph-name="water-magnify" data-tags="water magnify" d="M982.62 22.62l-273.48 273.5c56.49 66.2 90.86 152.766 90.86 247.36 0 0.183 0 0.365 0 0.548v-0.028c0 212-172.14 384-384.5 384s-384.5-172-384.5-384 172.14-384 384.5-384c0.17 0 0.371 0 0.572 0 94.735 0 181.441 34.374 248.328 91.329l-0.54-0.449 273.52-273.5c5.792-5.792 13.792-9.374 22.63-9.374 17.675 0 32.004 14.329 32.004 32.004 0 8.838-3.582 16.838-9.374 22.63v0zM166.22 295.12c-62.656 63.558-101.348 150.883-101.348 247.245 0 194.548 157.712 352.26 352.26 352.26 96.561 0 184.048-38.852 247.68-101.777l-0.032 0.032c62.656-63.558 101.348-150.883 101.348-247.245 0-194.548-157.712-352.26-352.26-352.26-96.561 0-184.048 38.852-247.68 101.777l0.032-0.032zM128 544c0-0.66 0-1.32 0-2 0-158 128.94-286 288-286 0 0 32 0 32 16s-32 15.56-32 15.56c-0.245-0.001-0.535-0.001-0.825-0.001-70.309 0-133.976 28.442-180.121 74.448l0.006-0.006c-46.35 45.724-75.061 109.226-75.061 179.434 0 0.199 0 0.398 0.001 0.597v-0.031c0 0.66 0 1.32 0 2 0 0 0 32-16 32s-16-32-16-32z" />
<glyph unicode="&#xe914;" glyph-name="water-mail" data-tags="water mail" d="M32 704v-512c0-17.673 14.327-32 32-32v0h896c17.673 0 32 14.327 32 32v0 512c0 17.673-14.327 32-32 32v0h-896c-17.673 0-32-14.327-32-32v0zM910.44 700l-398.56-363.38-402.26 363.38zM68 196v493.1l316.2-285.64-219.96-207.46zM411.76 378.54l76.48-69.1c6.288-5.499 14.574-8.852 23.643-8.852 9.122 0 17.452 3.393 23.797 8.986l-0.039-0.034 76.14 69.42 194-182.98h-587.56zM956 196h-96.24l-220.54 208 316.78 288.82z" />
<glyph unicode="&#xe915;" glyph-name="water-pdf1" data-tags="water pdf" d="M832 927c17.673 0 32-14.327 32-32v0-896c0-17.673-14.327-32-32-32v0h-640c-17.673 0-32 14.327-32 32v0 896c0 17.673 14.327 32 32 32v0h640zM832 959h-640c-35.305-0.102-63.898-28.695-64-63.99v-896.010c0.102-35.305 28.695-63.898 63.99-64h640.010c35.305 0.102 63.898 28.695 64 63.99v896.010c-0.102 35.305-28.695 63.898-63.99 64h-0.010zM764 376.26c-2.429 4.063-5.21 7.57-8.389 10.67l-0.011 0.010c-10.225 9.86-22.588 17.579-36.319 22.386l-0.701 0.214c-27.28 9.64-55.46 10.48-83.74 6.94-16.7-2-33.22-5.84-49.82-8.74-0.203-0.029-0.438-0.046-0.677-0.046-1.038 0-2.002 0.316-2.801 0.857l0.018-0.011c-16.608 12.254-31.187 25.557-44.274 40.22l-0.246 0.28c-18.52 20.7-32.88 44.26-45.82 68.84-0.208 0.531-0.329 1.147-0.329 1.79s0.121 1.259 0.34 1.824l-0.012-0.034c3.72 10.16 7.8 20.2 11.34 30.42 8.96 26 14.84 52.5 15.34 80.24-0.8 8.38-1.24 16.82-2.48 25.12-1.577 12.344-6.103 23.399-12.844 32.75l0.144-0.21c-4.84 6.52-10.84 11.5-18.82 13.36-12.2 2.82-22.24-1.56-30.58-10.42-10-10.62-16.12-23.6-20.4-37.48-7.26-23.58-6.64-47.46-2-71.4 5.001-23.664 12.272-44.559 21.798-64.156l-0.718 1.636c0.476-0.952 0.755-2.073 0.755-3.26s-0.279-2.308-0.774-3.303l0.019 0.043c-7-17.6-14-35.2-20.72-52.9-13.78-36.28-26.92-72.84-42.42-108.42-0.673-1.711-2.015-3.034-3.696-3.666l-0.044-0.014c-19.902-8.095-36.767-16.746-52.768-26.658l1.488 0.858c-21.52-13.3-41.68-28.38-58.3-48-8-9.4-14.68-19.66-18-31.86-7.42-27.48 12.56-53.34 40.46-52.14 10.86 0.48 20.4 5.080 29.26 11.16 17.72 12.14 31.6 28.2 43.72 45.88 14.002 20.622 27.395 44.313 38.842 69.087l1.298 3.133c0.645 1.622 1.973 2.852 3.62 3.35l0.040 0.010c14.78 4.68 29.42 10 44.34 14 38.2 10.58 76.52 20.66 114.78 31 0.51 0.163 1.097 0.257 1.706 0.257 1.275 0 2.453-0.411 3.41-1.108l-0.017 0.012c29.82-18.92 61.72-32.4 96.48-38.26 18.5-3.12 37.040-4 55.56-0.26 9.448 1.656 17.855 5.146 25.188 10.105l-0.228-0.145c7.296 4.728 12.056 12.83 12.056 22.043 0 5.192-1.512 10.031-4.119 14.102l0.063-0.105zM363.020 300.74c-12-21.68-24.66-42.78-42.92-59.68-4.7-4.111-9.854-8.058-15.257-11.66l-0.543-0.34c-1.893-1.232-4.12-2.134-6.511-2.564l-0.109-0.016c-0.528-0.156-1.134-0.246-1.762-0.246-3.546 0-6.42 2.874-6.42 6.42 0 0.74 0.125 1.45 0.355 2.111l-0.014-0.045c0.876 3.206 2.099 6.012 3.663 8.588l-0.083-0.148c6.162 9.858 13.512 18.276 21.996 25.386l0.164 0.134c13.529 11.912 28.669 22.594 44.89 31.556l1.31 0.664c0.38 0.2 0.76 0.36 1.24 0.58 0.020-0.4 0.080-0.6 0-0.74zM462 631.28c1.51 12.657 5.839 24.065 12.341 33.912l-0.181-0.292c0.66 1 1.42 2 2.36 3.14 2.906-4.985 4.971-10.826 5.832-17.051l0.028-0.249c0.893-6.041 1.402-13.014 1.402-20.106 0-8.604-0.75-17.032-2.189-25.223l0.126 0.869c-2.44-15.404-5.921-29.030-10.511-42.135l0.511 1.675c-0.14-0.42-0.34-0.8-0.52-1.2l-0.64-0.1c-2 7.74-4.24 15.44-6 23.24-2.149 8.741-3.382 18.777-3.382 29.1 0 5.081 0.299 10.092 0.879 15.017l-0.057-0.597zM431.22 366.7l42.78 112.68c18.46-32.165 41.097-59.562 67.614-82.612l0.386-0.328zM702.78 362.3c-25.74 0.78-50 7.7-73.54 18.1-0.403 0.276-0.756 0.565-1.082 0.882l0.002-0.002c4.82 0.58 9.2 1.2 13.58 1.62 19.84 1.88 39.54 1.62 59-3.58 10.083-2.815 18.883-7.205 26.614-12.952l-0.214 0.152c0.415-0.293 0.773-0.575 1.116-0.874l-0.016 0.014c0.12-0.1 0.16-0.32 0.36-0.78-6.367-1.718-13.677-2.705-21.218-2.705-1.619 0-3.227 0.045-4.823 0.135l0.221-0.010z" />
<glyph unicode="&#xe916;" glyph-name="water-action" data-tags="water action" d="M975.38 608h-159.7c-8.837 0-16 7.163-16 16s7.163 16 16 16v0h159.7c8.837 0 16-7.163 16-16s-7.163-16-16-16v0zM975.38 512.48h-159.7c-8.837 0-16 7.163-16 16s7.163 16 16 16v0h159.7c8.837 0 16-7.163 16-16s-7.163-16-16-16v0zM976 416.22h-159.66c-8.837 0-16 7.163-16 16s7.163 16 16 16v0h159.66c8.837 0 16-7.163 16-16s-7.163-16-16-16v0zM976 320h-159.66c-8.837 0-16 7.163-16 16s7.163 16 16 16v0h159.66c8.837 0 16-7.163 16-16s-7.163-16-16-16v0zM715.4 863.12v0c-4.135-0.057-8.046-0.956-11.587-2.535l0.187 0.075-481.38-204.66c-16.34-6.94-44.92-16-62.62-16h-96c-20-0.14-32-12.14-32-32v-256c0-19.82 12.54-32 31.78-32h32.22v-223.24c0-17.88 15.24-30.9 32.66-33.42l159.34-30.68c1.198-0.185 2.584-0.294 3.994-0.3h0.006c15.52 0 27.62 13.24 28 31.88v63.76l64.96 22c17.040 4.24 31.040 22.42 31.040 40.32v31.68l287.58-122.72c3.361-1.468 7.273-2.339 11.385-2.38h0.015c11.7 0 21.020 8 21.020 21.78v722.76c0 13.72-9.080 21.68-20.6 21.68zM64 352v256h96c24.96 0 58.98 11.64 75.14 18.5l468.86 199.5v-692l-332.9 142c-26 11.52-76 33.78-80.94 35.72l-35.16 13.82-18.44 7.88h-0.32c-11.458 4.793-25.412 9.366-39.773 12.909l-2.067 0.431c-8.834 2.519-19.195 4.379-29.845 5.205l-0.555 0.035h-100zM288 65.26l-154.72 29.74c-2.045 0.237-3.858 1.083-5.29 2.349l0.010-0.009v222.2h0.38l32.46 0.46c10.11-0.699 19.502-2.306 28.547-4.757l-1.027 0.237c10.424-2.664 19.016-5.463 27.374-8.728l-1.594 0.548 28.72-11.3 45.14-19.32v-211.42zM319.66 161.66v101.52l38.7-16.52 15.46-6.88 0.4-0.16c3.76-1.68 9.76-11.14 9.76-16.78v-32.52c0-3.46-4.26-8.72-6.92-9.38l-1.18-0.3-1.16-0.4-55.060-18.58z" />
<glyph unicode="&#xe917;" glyph-name="water-assess" data-tags="water assess" d="M703.3 882.86v0l242.7-242.66-626.64-626.74-242.76 242.66 626.66 626.74zM703.26 914.86c-0.007 0-0.016 0-0.025 0-8.82 0-16.807-3.569-22.596-9.341l-626.639-626.739c-5.792-5.791-9.375-13.792-9.375-22.63s3.583-16.839 9.375-22.63l242.68-242.74c5.791-5.792 13.792-9.375 22.63-9.375s16.839 3.583 22.63 9.375l626.74 626.76c5.792 5.791 9.375 13.792 9.375 22.63s-3.583 16.839-9.375 22.63l-242.68 242.74c-5.788 5.771-13.774 9.34-22.595 9.34-0.009 0-0.018 0-0.027 0h0.001zM174.191 369.303l32.004 32.004 113.137-113.137-32.004-32.004-113.137 113.137zM302.73 497.313l31.438 31.438 82.859-82.859-31.438-31.438-82.859 82.859zM430.749 625.284l31.438 31.438 113.137-113.137-31.438-31.438-113.137 113.137zM559.3 753.302l31.438 31.438 80.568-80.568-31.438-31.438-80.568 80.568z" />
<glyph unicode="&#xe918;" glyph-name="water-contents" data-tags="water contents" d="M223.72 768.12v-64h-64v64h64zM239.72 800.12h-96c-8.837 0-16-7.163-16-16v0-96c0-8.837 7.163-16 16-16v0h96c8.837 0 16 7.163 16 16v0 96c0 8.837-7.163 16-16 16v0zM863.72 768.12v-64h-480v64h480zM879.72 800.12h-512c-8.837 0-16-7.163-16-16v0-96c0-8.837 7.163-16 16-16v0h512c8.837 0 16 7.163 16 16v0 96c0 8.837-7.163 16-16 16v0zM863.72 480.12v-64h-480v64h480zM879.72 512.12h-512c-8.837 0-16-7.163-16-16v0-96c0-8.837 7.163-16 16-16v0h512c8.837 0 16 7.163 16 16v0 96c0 8.837-7.163 16-16 16v0zM863.72 192.12v-64h-480v64h480zM879.72 224.12h-512c-8.837 0-16-7.163-16-16v0-96c0-8.837 7.163-16 16-16v0h512c8.837 0 16 7.163 16 16v0 96c0 8.837-7.163 16-16 16v0zM223.72 192.12v-64h-64v64h64zM239.72 224.12h-96c-8.837 0-16-7.163-16-16v0-96c0-8.837 7.163-16 16-16v0h96c8.837 0 16 7.163 16 16v0 96c0 8.837-7.163 16-16 16v0zM223.72 480.12v-64h-64v64h64zM239.72 512.12h-96c-8.837 0-16-7.163-16-16v0-96c0-8.837 7.163-16 16-16v0h96c8.837 0 16 7.163 16 16v0 96c0 8.837-7.163 16-16 16v0z" />
</font>
</defs>
</svg>
